<?xml version="1.0" encoding="UTF-8" standalone="no"?>
<svg
   xmlns:dc="http://purl.org/dc/elements/1.1/"
   xmlns:cc="http://creativecommons.org/ns#"
   xmlns:rdf="http://www.w3.org/1999/02/22-rdf-syntax-ns#"
   xmlns:svg="http://www.w3.org/2000/svg"
   xmlns="http://www.w3.org/2000/svg"
   xmlns:sodipodi="http://sodipodi.sourceforge.net/DTD/sodipodi-0.dtd"
   xmlns:inkscape="http://www.inkscape.org/namespaces/inkscape"
   id="svg3538"
   version="1.1"
   viewBox="0 0 19.991211 19.990499"
   height="19.990499mm"
   width="19.991211mm"
   sodipodi:docname="brain.svg"
   inkscape:version="0.92.3 (2405546, 2018-03-11)">
  <sodipodi:namedview
     pagecolor="#ffffff"
     bordercolor="#666666"
     borderopacity="1"
     objecttolerance="10"
     gridtolerance="10"
     guidetolerance="10"
     inkscape:pageopacity="0"
     inkscape:pageshadow="2"
     inkscape:window-width="1366"
     inkscape:window-height="662"
     id="namedview87"
     showgrid="false"
     inkscape:zoom="3.1235671"
     inkscape:cx="0.48156465"
     inkscape:cy="37.777322"
     inkscape:window-x="0"
     inkscape:window-y="27"
     inkscape:window-maximized="1"
     inkscape:current-layer="layer1" />
  <defs
     id="defs3532" />
  <metadata
     id="metadata3535">
    <rdf:RDF>
      <cc:Work
         rdf:about="">
        <dc:format>image/svg+xml</dc:format>
        <dc:type
           rdf:resource="http://purl.org/dc/dcmitype/StillImage" />
        <dc:title />
      </cc:Work>
    </rdf:RDF>
  </metadata>
  <g
     transform="translate(-160.09368,-232.57618)"
     id="layer1">
    <path
       id="path110"
       style="fill:#cceef7;fill-opacity:1;fill-rule:nonzero;stroke:none;stroke-width:0.03527778"
       d="m 167.66958,237.52177 c 0.91828,0 1.663,-0.74436 1.663,-1.66264 0,-0.91864 -0.74472,-1.663 -1.663,-1.663 -0.91792,0 -1.66264,0.74436 -1.66264,1.663 0,0.91828 0.74472,1.66264 1.66264,1.66264" />
    <path
       id="path112"
       style="fill:#cceef7;fill-opacity:1;fill-rule:nonzero;stroke:none;stroke-width:0.03527778"
       d="m 172.11141,237.49707 c 0.90487,0 1.63795,-0.73307 1.63795,-1.63794 0,-0.90488 -0.73308,-1.63795 -1.63795,-1.63795 -0.90523,0 -1.6383,0.73307 -1.6383,1.63795 0,0.90487 0.73307,1.63794 1.6383,1.63794" />
    <path
       id="path148"
       style="fill:#cceef7;fill-opacity:1;fill-rule:nonzero;stroke:none;stroke-width:0.03527778"
       d="m 163.22811,242.28356 c 1.09538,0 1.98297,-0.88759 1.98297,-1.98296 0,-1.09467 -0.88759,-1.98297 -1.98297,-1.98297 -1.09537,0 -1.98296,0.8883 -1.98296,1.98297 0,1.09537 0.88759,1.98296 1.98296,1.98296" />
    <path
       id="path150"
       style="fill:#cceef7;fill-opacity:1;fill-rule:nonzero;stroke:none;stroke-width:0.03527778"
       d="m 167.66958,242.30861 c 1.10914,0 2.00766,-0.89923 2.00766,-2.00801 0,-1.10878 -0.89852,-2.00801 -2.00766,-2.00801 -1.10878,0 -2.0073,0.89923 -2.0073,2.00801 0,1.10878 0.89852,2.00801 2.0073,2.00801" />
    <path
       id="path152"
       style="fill:#cceef7;fill-opacity:1;fill-rule:nonzero;stroke:none;stroke-width:0.03527778"
       d="m 172.11141,242.28356 c 1.09502,0 1.98226,-0.88759 1.98226,-1.98296 0,-1.09467 -0.88724,-1.98297 -1.98226,-1.98297 -1.09538,0 -1.98367,0.8883 -1.98367,1.98297 0,1.09537 0.88829,1.98296 1.98367,1.98296" />
    <path
       id="path154"
       style="fill:#cceef7;fill-opacity:1;fill-rule:nonzero;stroke:none;stroke-width:0.03527778"
       d="m 176.55288,242.22183 c 1.06116,0 1.92087,-0.86008 1.92087,-1.92123 0,-1.06151 -0.85971,-1.92123 -1.92087,-1.92123 -1.06116,0 -1.92158,0.85972 -1.92158,1.92123 0,1.06115 0.86042,1.92123 1.92158,1.92123" />
    <path
       id="path190"
       style="fill:#cceef7;fill-opacity:1;fill-rule:nonzero;stroke:none;stroke-width:0.03527778"
       d="m 163.22811,247.04536 c 1.27212,0 2.30329,-1.03117 2.30329,-2.30329 0,-1.27176 -1.03117,-2.30293 -2.30329,-2.30293 -1.27212,0 -2.30364,1.03117 -2.30364,2.30293 0,1.27212 1.03152,2.30329 2.30364,2.30329" />
    <path
       id="path192"
       style="fill:#cceef7;fill-opacity:1;fill-rule:nonzero;stroke:none;stroke-width:0.03527778"
       d="m 167.66958,247.05735 c 1.27918,0 2.31564,-1.03646 2.31564,-2.31528 0,-1.27952 -1.03646,-2.31493 -2.31564,-2.31493 -1.27882,0 -2.31528,1.03541 -2.31528,2.31493 0,1.27882 1.03646,2.31528 2.31528,2.31528" />
    <path
       id="path194"
       style="fill:#cceef7;fill-opacity:1;fill-rule:nonzero;stroke:none;stroke-width:0.03527778"
       d="m 172.11141,247.04536 c 1.27211,0 2.30364,-1.03117 2.30364,-2.30329 0,-1.27176 -1.03153,-2.30293 -2.30364,-2.30293 -1.27247,0 -2.30329,1.03117 -2.30329,2.30293 0,1.27212 1.03082,2.30329 2.30329,2.30329" />
    <path
       id="path196"
       style="fill:#cceef7;fill-opacity:1;fill-rule:nonzero;stroke:none;stroke-width:0.03527778"
       d="m 176.55288,246.98362 c 1.23825,0 2.24155,-1.00295 2.24155,-2.24155 0,-1.2386 -1.0033,-2.2419 -2.24155,-2.2419 -1.23825,0 -2.2412,1.0033 -2.2412,2.2419 0,1.2386 1.00295,2.24155 2.2412,2.24155" />
    <path
       id="path236"
       style="fill:#cceef7;fill-opacity:1;fill-rule:nonzero;stroke:none;stroke-width:0.03527778"
       d="m 167.66958,251.77046 c 1.42875,0 2.58657,-1.15781 2.58657,-2.58692 0,-1.42875 -1.15782,-2.58621 -2.58657,-2.58621 -1.42839,0 -2.58656,1.15746 -2.58656,2.58621 0,1.42911 1.15817,2.58692 2.58656,2.58692" />
    <path
       id="path238"
       style="fill:#cceef7;fill-opacity:1;fill-rule:nonzero;stroke:none;stroke-width:0.03527778"
       d="m 172.11141,251.74541 c 1.41464,0 2.56187,-1.14723 2.56187,-2.56187 0,-1.41534 -1.14723,-2.56187 -2.56187,-2.56187 -1.41499,0 -2.56223,1.14653 -2.56223,2.56187 0,1.41464 1.14724,2.56187 2.56223,2.56187" />
    <path
       id="path1256"
       style="fill:#0092f4;fill-opacity:1;fill-rule:nonzero;stroke:none;stroke-width:0.03527778"
       d="m 180.08489,242.57143 c 0,5.51991 -4.47534,9.99525 -9.9956,9.99525 -5.52062,0 -9.99561,-4.47534 -9.99561,-9.99525 0,-5.52062 4.47499,-9.99525 9.99561,-9.99525 5.52026,0 9.9956,4.47463 9.9956,9.99525" />
    <path
       id="path1258"
       style="fill:#ffffff;fill-opacity:1;fill-rule:nonzero;stroke:none;stroke-width:0.03527778"
       d="m 178.67378,242.57143 c 0,4.74063 -3.84351,8.58414 -8.58449,8.58414 -4.74134,0 -8.5845,-3.84351 -8.5845,-8.58414 0,-4.74133 3.84316,-8.58414 8.5845,-8.58414 4.74098,0 8.58449,3.84281 8.58449,8.58414" />
    <path
       id="path1260"
       style="fill:#a53547;fill-opacity:1;fill-rule:nonzero;stroke:none;stroke-width:0.03527778"
       d="m 177.26408,244.46479 c 0.008,-0.0702 0.0145,-0.14076 0.0152,-0.21132 0.006,-0.0448 0.0109,-0.0896 0.0187,-0.13476 0.0762,-0.43427 -0.36618,-1.03152 -0.61736,-1.41675 -0.0374,-0.15346 -0.0952,-0.30939 -0.16828,-0.43392 -0.0628,-0.14323 -0.14252,-0.2727 -0.2226,-0.36724 -0.0804,-0.0931 -0.25965,-0.26317 -0.39758,-0.28258 -0.0483,-0.0314 -0.0949,-0.0635 -0.13653,-0.10442 -0.048,-0.0963 -0.11006,-0.18768 -0.17886,-0.27658 -0.12135,-0.21061 -0.23353,-0.42686 -0.37712,-0.62441 -0.21766,-0.30163 -0.69708,-0.66887 -1.09396,-0.90735 -0.11571,-0.0868 -0.24694,-0.18238 -0.38453,-0.25153 l -0.0758,-0.0582 c -0.0751,-0.0363 -0.17074,-0.0815 -0.25717,-0.0737 -0.0116,7.2e-4 -0.0272,3.5e-4 -0.0434,3.5e-4 -0.0198,-3.5e-4 -0.0406,-7.2e-4 -0.0586,10e-4 -0.0466,-0.0134 -0.0921,-0.03 -0.13688,-0.0533 -0.1965,-0.0759 -0.39299,-0.1517 -0.58491,-0.23848 -0.375,-0.16898 -0.74012,-0.39617 -1.12536,-0.53587 -0.27693,-0.10019 -0.69391,-0.24977 -0.97966,-0.12277 l -0.0593,0.0123 c -0.0723,0.0138 -0.12206,0.0653 -0.1584,0.13088 -0.10089,0.0843 -0.1277,0.18239 -0.13299,0.38488 -0.0127,0.45297 0.0138,0.89923 -0.0159,1.35573 -0.004,0.0656 -0.004,0.13052 -0.003,0.19614 7.2e-4,-0.0656 0.001,-0.13053 -0.003,-0.19614 -0.031,-0.4565 -0.004,-0.90276 -0.0166,-1.35573 -0.005,-0.20249 -0.0325,-0.30057 -0.133,-0.38488 -0.0363,-0.0656 -0.0861,-0.11712 -0.1584,-0.13088 l -0.0586,-0.0123 c -0.28645,-0.127 -0.70344,0.0226 -0.98037,0.12277 -0.38453,0.1397 -0.74965,0.36689 -1.12395,0.53587 -0.19297,0.0868 -0.38911,0.16263 -0.58561,0.23848 -0.0448,0.0233 -0.0903,0.0399 -0.13723,0.0533 -0.018,-0.002 -0.0392,-10e-4 -0.0586,-10e-4 -0.0162,0 -0.0314,3.4e-4 -0.0434,-3.5e-4 -0.0861,-0.008 -0.18168,0.0374 -0.25683,0.0737 l -0.0766,0.0582 c -0.13723,0.0691 -0.26881,0.16475 -0.38453,0.25153 -0.39617,0.23848 -0.87559,0.60572 -1.09325,0.90735 -0.14358,0.19755 -0.25577,0.4138 -0.37712,0.62441 -0.0688,0.0889 -0.13088,0.18027 -0.17921,0.27658 -0.0413,0.0409 -0.0882,0.073 -0.13688,0.10442 -0.13723,0.0194 -0.31715,0.18944 -0.39688,0.28258 -0.0808,0.0945 -0.16051,0.22401 -0.2226,0.36724 -0.073,0.12453 -0.13159,0.28046 -0.16757,0.43392 -0.25153,0.38523 -0.69497,0.98248 -0.61877,1.41675 0.008,0.0452 0.0131,0.09 0.0187,0.13476 0.002,0.0706 0.007,0.14111 0.0159,0.21132 0.003,0.0593 0.007,0.11783 0.0166,0.17568 0.009,0.31397 -0.0159,0.62865 -0.0448,0.94368 -0.0261,0.29457 0.0434,0.52035 0.24306,0.73166 0.15523,0.16299 0.62583,0.28681 0.83714,0.36654 0.21167,0.0794 0.4699,0.15804 0.69956,0.12982 0.22754,-0.0279 0.32244,-0.11959 0.50448,-0.25506 0.31397,-0.23424 0.69497,-0.35066 1.07808,-0.41275 0.24342,-0.0402 0.49354,-0.0176 0.73449,-0.0695 0.27622,-0.06 0.42298,-0.25435 0.62089,-0.4318 0.0116,-0.0113 0.623,0.34855 0.70273,0.38277 0.031,0.0194 0.0628,0.0381 0.0991,0.0511 l 0.012,-0.004 c 0.42757,0.17109 0.92393,0.26952 1.29399,0.0409 0.0688,-0.0607 0.13229,-0.12771 0.18521,-0.20109 0.11995,-0.1651 0.16334,-0.33372 0.19156,-0.51152 0.0275,0.1778 0.0709,0.34642 0.19085,0.51152 0.0536,0.0734 0.11642,0.14041 0.18521,0.20109 0.37006,0.2286 0.86607,0.13017 1.2947,-0.0409 l 0.0116,0.004 c 0.0367,-0.013 0.0692,-0.0317 0.0995,-0.0511 0.0804,-0.0342 0.69109,-0.39406 0.70343,-0.38277 0.19685,0.17745 0.3429,0.37183 0.62019,0.4318 0.24024,0.0519 0.49177,0.0293 0.73448,0.0695 0.38312,0.0621 0.76412,0.17851 1.07809,0.41275 0.18203,0.13547 0.27587,0.22719 0.50447,0.25506 0.2286,0.0282 0.48719,-0.0505 0.69921,-0.12982 0.21166,-0.0797 0.68227,-0.20355 0.83679,-0.36654 0.20037,-0.21131 0.26987,-0.43709 0.24306,-0.73166 -0.0282,-0.31503 -0.0522,-0.62971 -0.0441,-0.94368 0.009,-0.0579 0.0138,-0.11642 0.0166,-0.17568" />
    <path
       id="path1262"
       style="fill:#f58593;fill-opacity:1;fill-rule:nonzero;stroke:none;stroke-width:0.03527778"
       d="m 167.0561,240.15772 c 0.0222,-0.19791 0.005,-0.36371 0.004,-0.5588 -7.1e-4,-0.18626 0.0628,-0.33972 0.25647,-0.3302 0.0448,-0.0201 0.0907,-0.0399 0.13229,-0.0614 0.29069,-0.15064 0.77435,-0.45544 1.2566,-0.64911 l -0.0483,0.0427 c -0.0723,0.0642 -0.16333,0.1023 -0.23424,0.17003 -0.11854,0.11395 -0.16581,0.19121 -0.17498,0.35737 -0.005,0.0903 -0.042,0.28116 0.0303,0.35278 l 10e-4,-0.001 c -0.036,-0.0723 0.01,-0.21837 0.0222,-0.28964 l 0.003,-0.0127 c 0.0113,0.0702 0.0642,0.12736 0.11324,0.17251 0.11148,0.10301 0.1323,0.23601 0.16934,0.37677 l 0.007,-0.003 c -0.018,-0.11147 -0.0236,-0.23247 -0.0751,-0.33443 -0.0388,-0.0773 -0.0967,-0.10901 -0.12488,-0.20461 -0.0342,-0.11465 0.0303,-0.20708 0.0896,-0.29704 0.0557,-0.0448 0.11995,-0.0847 0.19015,-0.13088 0.0882,-0.0582 0.15028,-0.14746 0.24659,-0.19649 0.1016,-0.0519 0.21731,-0.0755 0.32385,-0.11642 l 0.0649,-0.006 c 0.0395,3.4e-4 0.073,-0.004 0.10548,-0.007 0.0483,-0.006 0.0945,-0.0113 0.15558,-0.003 0.10901,0.0152 0.20073,0.0116 0.28187,0.0998 0.0614,0.0667 0.0882,0.15629 0.12135,0.2406 0.0413,0.24377 -0.0353,0.53058 -0.0441,0.76835 -0.0117,0.30903 0.0441,0.61454 0.0377,0.92569 -0.004,0.17603 -0.0607,0.27164 -0.097,0.37641 -0.0505,-0.0843 -0.1083,-0.16545 -0.14887,-0.24271 -0.0374,-0.0692 -0.0917,-0.15558 -0.15699,-0.22472 -0.0289,-0.0476 -0.0586,-0.0938 -0.0889,-0.13582 -0.1083,-0.15028 -0.19579,-0.25506 -0.17321,-0.45438 h -0.008 c -0.049,0.13441 -0.073,0.29351 0.009,0.41769 l 0.0367,0.0469 c -0.19933,-0.0423 -0.3983,-0.007 -0.56975,-0.1531 l -0.013,0.0138 c 0.0695,0.084 0.13829,0.13159 0.23883,0.17322 0.0332,0.0134 0.27446,0.0497 0.27446,0.0497 0.12453,0.0374 0.21414,0.18168 0.27411,0.28293 0.0896,0.15063 0.16193,0.30621 0.25647,0.45437 0.024,0.0374 0.0441,0.0751 0.0603,0.11254 l 0.012,0.0614 c -0.10689,-0.0868 -0.25506,-0.13793 -0.37783,-0.16827 l -0.003,0.005 c 0.17816,0.0847 0.33867,0.21696 0.41805,0.38876 0.0187,0.1337 0.0282,0.25753 0.0384,0.47025 0.0134,0.27023 0.0166,0.53728 0.0201,0.80434 -0.0187,0.0536 -0.0498,0.0998 -0.11501,0.13123 -0.10901,0.0194 -0.23283,0.005 -0.34325,-0.0314 -0.0275,-0.0215 -0.0564,-0.0402 -0.0896,-0.0529 -0.15063,-0.0579 -0.26917,-0.14111 -0.36583,-0.2413 0.0413,0.018 0.0854,0.0317 0.13229,0.0392 0.133,0.0215 0.38877,0.0469 0.48119,-0.0776 l -0.004,-0.003 c -0.11041,0.0931 -0.40604,0.0134 -0.52386,-0.0279 -0.11078,-0.0395 -0.19897,-0.13229 -0.28223,-0.21484 l -10e-4,-0.004 c -0.17427,-0.19932 -0.19085,-0.50765 -0.19156,-0.81422 -0.0159,-0.15345 -0.025,-0.30585 -0.0381,-0.44802 l -0.0296,0.0134 c 0.003,0.12453 7.2e-4,0.2473 -0.001,0.36971 -0.0289,-0.0536 -0.0617,-0.10548 -0.0914,-0.15804 -0.0857,-0.15134 -0.23777,-0.22472 -0.40887,-0.22401 l -0.004,0.0113 c 0.32597,0.0434 0.41063,0.35948 0.50341,0.63182 0.004,0.23848 0.0236,0.47308 0.10619,0.7052 0.13652,0.38277 0.99589,0.46214 0.87983,0.91299 l 0.0325,0.007 c 0.0695,-0.11359 0.0448,-0.24729 -0.0282,-0.34784 0.13441,0.048 0.28258,0.0603 0.38523,-0.007 0.003,0.18133 0.006,0.36336 0.0138,0.54575 -0.004,0.036 -0.008,0.066 -0.0102,0.0868 -0.025,-0.006 -0.0561,-0.007 -0.0974,-0.002 -0.6805,0.0783 -1.44003,-0.21131 -1.91523,-0.72072 v -0.008 c -0.0208,-0.0427 -0.0526,-0.0942 -0.091,-0.14641 0.0751,0.0303 0.15416,0.0504 0.23283,0.0709 -0.0571,-0.0459 -0.11218,-0.0914 -0.16404,-0.13934 -0.091,-0.0479 -0.15769,-0.0797 -0.21837,-0.17315 -0.0303,-0.0469 -0.0572,-0.0949 -0.0847,-0.14358 -0.0318,-0.0861 -0.0533,-0.17427 -0.067,-0.26458 -0.0166,-0.0586 -0.0289,-0.11995 -0.037,-0.18768 -0.0332,-0.2727 -0.0614,-0.58243 0.0413,-0.84596 0.12276,-0.31609 0.41204,-0.56339 0.39828,-0.91228 -0.0469,0.24765 -0.22331,0.40393 -0.35771,0.58243 -0.0152,-0.0589 -0.0303,-0.11782 -0.042,-0.17639 -0.0363,-0.17709 0.10336,-0.46072 0.19226,-0.60783 l -0.01,-0.004 c -0.10336,0.14464 -0.21661,0.3496 -0.24342,0.5267 -0.0145,0.097 -0.0138,0.25893 0.0325,0.36794 -0.0282,0.0487 -0.0529,0.0988 -0.0681,0.15558 -0.054,0.19826 -0.0713,0.36195 -0.0476,0.56938 0.0198,0.17674 0.0325,0.35878 0.0642,0.53375 -0.1531,-0.39758 -0.25928,-0.83291 -0.32949,-1.25765 -0.0695,-0.19509 -0.13088,-0.3937 -0.1083,-0.60043" />
    <path
       id="path1264"
       style="fill:#f1688b;fill-opacity:1;fill-rule:nonzero;stroke:none;stroke-width:0.03527778"
       d="m 167.3602,245.74537 c -0.0282,0.0332 -0.0554,0.0688 -0.0843,0.10301 -0.26599,0.14464 -0.49741,0.11536 -0.82938,0.0811 -0.15804,-0.0155 -0.35842,-0.0564 -0.53622,-0.11289 -0.0462,-0.006 -0.0928,-0.0123 -0.13899,-0.019 0.18379,0.0981 0.39193,0.16581 0.60078,0.22296 -0.0505,0.0155 -0.096,0.0243 -0.14006,0.0501 -0.22295,0.0353 -0.44414,0.0928 -0.64629,0.16686 -0.121,0.0444 -0.23283,0.0963 -0.34113,0.14746 -0.15558,0.11219 -0.31503,0.2286 -0.49389,0.27094 -0.0875,0.0212 -0.17216,0.0236 -0.25541,0.0145 -0.16334,0.006 -0.33655,-0.0307 -0.53975,-0.11183 -0.23283,-0.0931 -0.58561,-0.14887 -0.77788,-0.31573 -0.18062,-0.15628 -0.1852,-0.33479 -0.16122,-0.54575 -0.01,-0.21378 0.0374,-0.44909 0.0498,-0.65017 0.0593,0.1076 0.1397,0.20779 0.24729,0.29775 0.19826,0.1658 0.44168,0.26917 0.68968,0.33584 0.0226,0.0501 0.0593,0.096 0.0773,0.14923 0.024,0.0702 0.0476,0.13017 0.11289,0.1718 0.0614,0.0392 0.14323,0.085 0.21555,0.0988 l 0.0215,0.006 c 0.0427,3.4e-4 0.0861,0.002 0.12876,0.004 l -0.003,-0.001 -0.15416,-0.0621 c -0.0716,-0.042 -0.14746,-0.0818 -0.1972,-0.15205 -0.0413,-0.0593 -0.048,-0.12876 -0.0702,-0.18944 0.0614,0.004 0.12594,0.002 0.18874,7.1e-4 0.0483,-0.001 0.096,-0.003 0.14005,-0.001 0.17216,0.005 0.31327,0.072 0.47943,0.11254 l 0.008,-0.0123 c -0.17392,-0.0743 -0.25436,-0.13396 -0.46461,-0.16324 -0.10337,-0.0137 -0.19438,-0.025 -0.27834,-0.0388 -0.29845,-0.0268 -0.60714,-0.14076 -0.83503,-0.31221 -0.28469,-0.21449 -0.36583,-0.62265 -0.37641,-0.97331 -0.019,-0.11854 -0.0307,-0.23742 -0.0328,-0.35172 0.0138,-0.0878 0.0363,-0.17357 0.0695,-0.25647 0.0674,-0.16969 0.19155,-0.52176 0.36018,-0.63042 l 0.004,-0.007 h 0.004 l 0.004,-0.003 c 0.13547,-0.0773 0.16933,0.0603 0.1651,0.16334 0.0296,0.0663 0.0642,0.13511 0.10054,0.20884 -0.0892,-0.0469 -0.18662,-0.031 -0.30832,0.0113 v 0.0138 c 0.23671,-0.0265 0.33549,0.11889 0.45649,0.28858 0.0134,0.031 0.0265,0.0614 0.0388,0.0942 0.14111,0.36124 0.33549,0.66075 0.58067,0.8897 l -0.002,-10e-4 c -0.1838,-0.0914 -0.31044,-0.19156 -0.5207,-0.12735 l -0.001,0.005 c 0.20814,-0.0254 0.41346,0.17533 0.58561,0.28257 0.10689,0.066 0.23284,0.11077 0.36054,0.13723 0.28116,0.14182 0.60748,0.2152 0.97966,0.20638 h 7.2e-4 c -0.096,0.0748 -0.15699,0.1859 -0.21308,0.29138 l 0.0635,-0.0448 c 0.0977,-0.11536 0.19579,-0.18485 0.35348,-0.24553 0.15628,-0.0607 0.32456,-0.0363 0.47555,-0.0871 0.31009,-0.036 0.60748,-0.0162 0.84525,0.26493 0.0392,0.0466 0.0861,0.0907 0.13582,0.13406 -0.055,0.054 -0.0959,0.13476 -0.14181,0.1905" />
    <path
       id="path1266"
       style="fill:#f48b96;fill-opacity:1;fill-rule:nonzero;stroke:none;stroke-width:0.03527778"
       d="m 170.02049,245.35978 c -0.0395,0.20638 -0.10689,0.39476 -0.21907,0.53517 -0.0829,0.0561 -0.16969,0.10019 -0.25929,0.13441 l -0.0529,0.008 -0.0579,-0.001 c -0.12841,0.0335 -0.27305,0.001 -0.39228,-0.0744 -0.18168,-0.11571 -0.25259,-0.30269 -0.28223,-0.50271 -0.072,0.29704 0.048,0.54045 0.34149,0.6544 -0.25894,0.005 -0.52352,-0.061 -0.76623,-0.18027 -0.13688,-0.0233 -0.24871,-0.10093 -0.32844,-0.23075 -0.11253,-0.18345 -0.0427,-0.37148 -0.0339,-0.56339 -0.0579,0.14887 -0.13229,0.30092 -0.10866,0.45261 l -0.0289,-0.0173 -0.0554,-0.0554 c -0.0434,-0.0469 -0.0998,-0.0977 -0.16052,-0.1478 -0.16051,-0.0981 -0.26811,-0.28152 -0.34431,-0.4512 -0.085,-0.18662 -0.10195,-0.33303 -0.0829,-0.48013 -0.001,-0.10619 0.0201,-0.2085 0.0759,-0.30233 l 0.0247,-0.0727 c -0.0797,0.042 -0.13547,0.0952 -0.17145,0.15628 -0.11994,-0.55704 -0.19826,-1.13383 -0.50024,-1.49825 -0.0406,-0.0529 -0.0868,-0.10372 -0.14393,-0.15205 -0.29351,-0.24906 -0.47837,-0.5648 -0.32879,-0.94968 l -0.0109,-0.002 c -0.1397,0.25153 -0.15628,0.4378 -0.0377,0.70203 0.0145,0.0325 0.0377,0.0635 0.0653,0.0938 -0.0903,-0.0296 -0.18873,-0.0512 -0.30021,-0.0607 l -0.001,0.005 c 0.14958,0.0243 0.2734,0.0709 0.37888,0.13194 0.0593,0.0536 0.12383,0.10513 0.16722,0.15311 0.0706,0.0762 0.13229,0.14075 0.18556,0.21343 0.10195,0.18344 0.16051,0.4011 0.20602,0.62759 -0.0945,-0.13229 -0.22543,-0.22931 -0.39405,-0.29281 -0.15311,-0.0586 -0.3101,-0.0995 -0.46038,-0.16651 -0.18874,-0.085 -0.29351,-0.28398 -0.38029,-0.46037 l -0.007,0.005 c 0.10054,0.29527 0.21167,0.46884 0.50588,0.58773 l 0.0123,0.005 c -0.0646,0.007 -0.097,0.0572 -0.15769,0.0818 v 0.006 c 0.0681,-0.01 0.11359,-0.0519 0.18803,-0.0469 0.06,0.004 0.11289,0.0198 0.16933,0.0261 0.0759,0.0226 0.1517,0.0462 0.22472,0.0776 0.14958,0.0631 0.24412,0.18027 0.32315,0.31044 0.054,0.3041 0.0924,0.61666 0.17991,0.88124 0.0773,0.23319 0.1771,0.46426 0.31221,0.66499 -0.18873,-0.10443 -0.39405,-0.17392 -0.56374,-0.15628 -0.32385,0.0342 -0.61736,0.0734 -0.89641,0.0818 -0.14322,-0.018 -0.29703,-0.0233 -0.4258,-0.0871 -0.0938,-0.0459 -0.1591,-0.13688 -0.19156,-0.23884 -0.036,-0.0557 -0.0593,-0.11712 -0.0645,-0.17956 -0.0402,0.13441 -0.012,0.2914 0.0804,0.40005 l 0.0854,0.0751 c -0.3182,-0.0532 -0.6283,-0.18264 -0.95497,-0.45146 l -0.0614,-0.0593 c -0.0769,-0.10407 -0.14182,-0.2286 -0.18592,-0.35736 -0.084,-0.17498 -0.10336,-0.37747 -0.0367,-0.57044 -0.0776,0.10334 -0.10514,0.21305 -0.10126,0.33406 l -0.0116,-0.0265 c -0.0339,-0.0928 -0.0811,-0.19685 -0.13512,-0.28822 -0.037,-0.127 -0.0695,-0.2533 -0.10054,-0.37112 -0.0406,-0.15487 -0.0991,-0.25612 -0.14181,-0.34466 -0.008,-0.19826 0.0448,-0.39935 0.11571,-0.58209 l 0.0215,-0.0367 0.007,-0.0176 c 0.0233,-0.043 0.0504,-0.0861 0.0801,-0.12841 0.0998,-0.15945 0.21484,-0.31185 0.35736,-0.43003 0.0564,-0.0169 0.11113,-0.004 0.1591,0.0554 l -0.0205,0.0759 c -0.009,0.20496 0.0667,0.39088 0.18098,0.58455 0.23318,0.39688 0.57538,0.64524 0.78211,1.04211 l -0.003,-0.004 c -0.0346,-0.0441 -0.13723,-0.14711 -0.18627,-0.17004 -0.0833,-0.0381 -0.17604,-0.0469 -0.26599,-0.055 -0.048,-0.005 -0.0998,0.0201 -0.14958,0.0427 l 0.0882,0.0289 c 0.0519,0.001 0.10231,0.007 0.15134,0.0201 0.0907,0.0102 0.17957,0.0258 0.25541,0.0967 0.0557,0.0519 0.0984,0.11077 0.13371,0.17392 l 0.0487,0.0307 0.018,0.0409 c 0.0519,0.14993 0.13088,0.30657 0.23425,0.44133 0.0519,0.084 0.10618,0.16474 0.17568,0.23671 0.0924,0.0981 0.23107,0.18627 0.29633,0.30727 l 0.0649,0.054 c -0.005,-0.10372 -0.0448,-0.16722 -0.1083,-0.23001 0.16687,0.0603 0.35984,0.0236 0.52211,-0.043 -0.14675,0.0473 -0.31961,0.0455 -0.45543,0.008 -0.0854,-0.024 -0.15417,-0.0713 -0.21132,-0.13194 l -0.0116,-0.008 c -0.0339,-0.0247 -0.0628,-0.0533 -0.091,-0.0822 -0.0536,-0.0702 -0.10547,-0.14321 -0.15768,-0.21482 -0.067,-0.11289 -0.12559,-0.23178 -0.20073,-0.33726 l -0.0166,-0.0441 -10e-4,-0.0127 -0.005,-0.006 c -0.042,-0.11611 -0.0801,-0.23252 -0.12136,-0.33906 -0.0759,-0.19615 -0.25012,-0.3743 -0.40605,-0.54857 l 10e-4,-0.0173 c -0.0349,-0.11325 -0.10053,-0.19509 -0.10865,-0.31892 -0.0123,-0.19262 -0.0222,-0.35489 0.073,-0.53305 l -0.007,-0.002 c -0.12524,0.16546 -0.18733,0.44133 -0.12736,0.66428 l -0.0346,-0.0483 c -0.0716,-0.11536 -0.11959,-0.23001 -0.14993,-0.34431 -0.11465,-0.17568 -0.0772,-0.38029 -0.002,-0.56797 0.0173,-0.0755 0.0399,-0.15134 0.0702,-0.22789 0.0367,-0.0519 0.073,-0.10443 0.10619,-0.1584 0.0261,-0.042 0.0564,-0.0797 0.0882,-0.11571 0.10513,-0.22543 0.25365,-0.43004 0.44027,-0.58773 0.0346,0.0314 0.0497,0.11642 0.0536,0.15769 0.008,0.0706 0.0261,0.12312 0.0512,0.1905 0.0198,0.0519 0.0476,0.0928 0.0797,0.12488 l 0.0455,0.06 c 0.31926,0.21131 0.77929,0.0889 1.08056,0.38735 0.0861,0.0861 0.15204,0.18238 0.20461,0.28434 0.10865,0.15769 0.17639,0.34043 0.17215,0.51329 l 0.0138,0.0734 c 0.0247,-0.11112 0.0194,-0.22401 -0.009,-0.33443 l 0.003,-0.007 c -0.0476,-0.23954 -0.13299,-0.45438 -0.29985,-0.63641 -0.2847,-0.30903 -0.77576,-0.30445 -0.55951,-0.88089 l -0.005,-0.001 c -0.13617,0.25153 -0.19685,0.44803 0.0296,0.65441 l 0.0737,0.0568 -0.0737,-0.0229 c -0.12735,-0.037 -0.41945,-0.11465 -0.47801,-0.15699 -0.12136,-0.0868 -0.17921,-0.19861 -0.19297,-0.31644 -0.15099,-0.3115 0.19897,-0.59055 0.52211,-0.77929 0.1457,-0.13264 0.34537,-0.22789 0.49636,-0.3182 0.0956,-0.0575 0.28716,-0.21273 0.41134,-0.14464 0.0744,0.0413 0.10195,0.096 0.091,0.15699 0.0392,0.16122 -0.0194,0.33902 -0.0423,0.53057 -0.0282,0.24765 0.0455,0.46497 0.11854,0.6978 0.16545,0.53269 0.32314,1.08444 0.56091,1.59385 l 0.0236,0.0543 c -0.10972,-0.0568 -0.2219,-0.0536 -0.30763,0.0818 l 0.0113,0.008 c 0.12947,-0.14182 0.2667,-0.0445 0.38912,0.0847 0.0441,0.0832 0.0896,0.16616 0.14005,0.24588 0.27552,0.43851 0.85584,0.6403 1.31233,0.82339 0.18839,0.0751 0.30869,0.0907 0.50942,0.0688 0.0917,-0.01 0.1598,-0.0198 0.21272,-0.0286 l 7.2e-4,0.001 0.0264,0.002 0.005,-0.008 7.2e-4,3.4e-4 c 0.10266,0.12206 0.0889,0.36654 0.0896,0.51823 7.2e-4,0.19297 0.0557,0.44944 -0.0649,0.61242 -0.0882,0.004 -0.21484,-0.0437 -0.30303,-0.0811 -0.0811,-0.0744 -0.18345,-0.12135 -0.28999,-0.1531 -0.042,-0.0561 -0.0889,-0.11219 -0.14005,-0.16722 -0.23283,-0.25118 -0.73025,-0.31044 -1.02941,-0.46425 -0.14181,-0.073 -0.25682,-0.14782 -0.35806,-0.22755 -0.0243,-0.0395 -0.0434,-0.0811 -0.0533,-0.12805 -0.0183,-0.09 0.0257,-0.18204 0.0381,-0.26953 l -0.0106,3.5e-4 c -0.0289,0.0871 -0.084,0.19967 -0.0889,0.29986 -0.19261,-0.18132 -0.32914,-0.3951 -0.48824,-0.68544 l -0.005,0.003 c 0.22542,0.47696 0.39264,0.81598 0.86042,1.06892 l -0.019,-0.002 c -0.11712,-0.0134 -0.27975,0.0138 -0.34325,0.12382 l -0.002,0.003 -0.003,0.004 0.0208,0.008 0.008,-0.0201 c 0.019,-0.005 0.0434,-0.0131 0.079,-0.0243 0.10971,-0.0335 0.2219,-0.009 0.3309,0.013 0.12524,0.0247 0.25683,0.10019 0.3863,0.10654 0.59337,0.26564 1.30386,0.63712 0.84772,1.36419 l 0.0441,-0.0173 c 0.20179,-0.31044 0.17356,-0.58984 0.0159,-0.85583 0.0399,0.0173 0.0797,0.036 0.11642,0.0607 0.0522,0.0339 0.0889,0.0857 0.13088,0.13158 0.0342,0.0378 0.12806,0.15981 0.0963,0.22084 l 0.0152,0.006 c 0.0614,-0.0889 -0.037,-0.25435 -0.0928,-0.32879 0.10442,0.0607 0.23212,0.11183 0.30868,0.0716 0.007,0.1584 0.024,0.31397 0.013,0.46602" />
    <path
       id="path1268"
       style="fill:#f792aa;fill-opacity:1;fill-rule:nonzero;stroke:none;stroke-width:0.03527778"
       d="m 164.13334,245.46174 c -0.35137,-0.10831 -0.66887,-0.19191 -0.85901,-0.54363 -0.18415,-0.33761 -0.13441,-0.68898 -0.1711,-1.05551 l 0.009,-0.003 c 0.0882,0.35701 0.0868,0.73236 0.32385,1.04034 0.19967,0.26105 0.43109,0.38735 0.71931,0.52564 l -0.0222,0.0367" />
    <path
       id="path1270"
       style="fill:#f792aa;fill-opacity:1;fill-rule:nonzero;stroke:none;stroke-width:0.03527778"
       d="m 164.42262,245.54252 c -0.0504,0 -0.11324,-0.0243 -0.12101,-0.061 l 0.0176,-0.0131 c 0.0123,0.0159 0.0385,0.0205 0.0667,0.0205 0.031,0 0.0642,-0.005 0.0836,-0.006 l 0.0173,0.0155 c 0.003,0.031 -0.0272,0.0445 -0.0642,0.0445" />
    <path
       id="path1272"
       style="fill:#f792aa;fill-opacity:1;fill-rule:nonzero;stroke:none;stroke-width:0.03527778"
       d="m 163.79079,246.41177 c -0.3616,-0.0681 -0.72672,-0.34184 -0.59725,-0.75671 l 0.007,-3.4e-4 c -0.054,0.39511 0.33902,0.55245 0.6103,0.71578 l -0.0201,0.0413" />
    <path
       id="path1274"
       style="fill:#f792aa;fill-opacity:1;fill-rule:nonzero;stroke:none;stroke-width:0.03527778"
       d="m 164.47448,246.01913 c -0.0938,0 -0.15205,-0.11466 -0.18733,-0.19509 l 0.004,-0.004 c 0.036,0.0399 0.0716,0.078 0.12347,0.0974 0.0448,0.0159 0.0896,0.0222 0.13582,0.0356 l -0.0123,0.0494 c -0.0229,0.0116 -0.0441,0.0166 -0.0635,0.0166" />
    <path
       id="path1276"
       style="fill:#f792aa;fill-opacity:1;fill-rule:nonzero;stroke:none;stroke-width:0.03527778"
       d="m 166.63101,245.91082 c -0.24377,0 -0.47978,-0.0914 -0.62901,-0.30938 l 0.006,-0.005 c 0.20038,0.16192 0.43463,0.22401 0.67522,0.22401 0.13476,0 0.27164,-0.0198 0.40569,-0.0519 v 0.0381 c -0.14217,0.0663 -0.30162,0.10407 -0.45825,0.10407" />
    <path
       id="path1278"
       style="fill:#f792aa;fill-opacity:1;fill-rule:nonzero;stroke:none;stroke-width:0.03527778"
       d="m 164.64769,246.54759 c -0.0565,0 -0.11395,-0.0148 -0.18203,-0.0416 l 0.003,-0.007 c 0.0219,0.002 0.0427,0.004 0.0628,0.004 0.24977,0 0.381,-0.1898 0.60078,-0.28822 0.12806,-0.0579 0.22684,-0.0935 0.36336,-0.0935 0.009,0 0.0187,0 0.0282,3.4e-4 0.0335,0.001 0.005,0.0437 -0.012,0.049 -0.12453,0.0392 -0.25153,0.0554 -0.36865,0.12171 -0.10125,0.0572 -0.18803,0.13406 -0.28858,0.19191 -0.0765,0.0441 -0.14075,0.0642 -0.20708,0.0642" />
    <path
       id="path1280"
       style="fill:#f9adb3;fill-opacity:1;fill-rule:nonzero;stroke:none;stroke-width:0.03527778"
       d="m 164.85759,244.78193 c -0.19861,-0.0956 -0.45543,-0.25682 -0.56374,-0.45614 -0.13511,-0.24906 -0.115,-0.46496 -0.0205,-0.72178 l 0.0102,-7.1e-4 c -0.0124,0.46037 0.266,0.8509 0.59972,1.14441 l -0.0258,0.0342" />
    <path
       id="path1282"
       style="fill:#f9adb3;fill-opacity:1;fill-rule:nonzero;stroke:none;stroke-width:0.03527778"
       d="m 163.86382,243.19796 c -0.0653,-0.0931 -0.10196,-0.21343 -0.13618,-0.32138 -0.031,-0.0949 -0.003,-0.16898 0.0131,-0.26352 l 0.005,-0.002 c 0.003,0.10124 0.0109,0.1905 0.0631,0.28151 0.0512,0.0892 0.0773,0.17745 0.10478,0.27658 l -0.0497,0.0289" />
    <path
       id="path1284"
       style="fill:#f9adb3;fill-opacity:1;fill-rule:nonzero;stroke:none;stroke-width:0.03527778"
       d="m 165.3095,243.0759 c -0.14817,-0.13335 -0.33549,-0.25259 -0.38488,-0.46214 -0.0568,-0.248 -0.0363,-0.39793 0.048,-0.62618 l 0.0159,-7.1e-4 c -0.0173,0.19932 -0.0441,0.42651 0.073,0.60713 0.0956,0.14746 0.19297,0.29951 0.28328,0.4505 l -0.0353,0.0314" />
    <path
       id="path1286"
       style="fill:#f9adb3;fill-opacity:1;fill-rule:nonzero;stroke:none;stroke-width:0.03527778"
       d="m 166.32021,244.38188 c -0.18909,0 -0.38912,-0.0797 -0.50342,-0.23177 -0.0713,-0.0935 -0.12347,-0.19403 -0.17039,-0.30092 -0.0462,-0.10477 -0.0448,-0.21449 -0.078,-0.32103 l 0.004,-0.004 c 0.0469,0.0483 0.0621,0.11395 0.0967,0.17216 0.0564,0.0981 0.12806,0.18556 0.18944,0.28081 0.12242,0.1912 0.32315,0.3235 0.54293,0.369 l -0.008,0.031 c -0.024,0.003 -0.0487,0.004 -0.0737,0.004" />
    <path
       id="path1288"
       style="fill:#f9adb3;fill-opacity:1;fill-rule:nonzero;stroke:none;stroke-width:0.03527778"
       d="m 166.649,244.38188 -0.0751,-0.0127 0.0229,-0.0367 0.0624,0.01 -0.0102,0.0399" />
    <path
       id="path1290"
       style="fill:#f9adb3;fill-opacity:1;fill-rule:nonzero;stroke:none;stroke-width:0.03527778"
       d="m 167.60044,245.24372 c -0.12665,-0.11007 -0.2219,-0.25823 -0.25471,-0.42474 -0.0388,-0.19615 0.0109,-0.32315 0.0494,-0.51153 l 0.007,-0.002 c 0.0124,0.15698 0.006,0.29527 0.0536,0.44944 0.049,0.15487 0.12277,0.30021 0.19086,0.44803 l -0.0462,0.0409" />
    <path
       id="path1292"
       style="fill:#f9adb3;fill-opacity:1;fill-rule:nonzero;stroke:none;stroke-width:0.03527778"
       d="m 168.3508,245.83991 c -0.27905,-0.17391 -0.45473,-0.54433 -0.26529,-0.85513 l 0.009,0.002 c -0.0547,0.15275 -0.003,0.3429 0.0639,0.48331 0.0579,0.12276 0.16193,0.21061 0.23707,0.32138 l -0.0448,0.0487" />
    <path
       id="path1294"
       style="fill:#f9adb3;fill-opacity:1;fill-rule:nonzero;stroke:none;stroke-width:0.03527778"
       d="m 169.23345,245.00912 c -0.0963,-0.17004 -0.28258,-0.33231 -0.44697,-0.43744 -0.18415,-0.11748 -0.375,-0.16545 -0.5775,-0.23671 l 0.006,-0.0123 c 0.25224,0.0395 0.48719,0.0395 0.70309,0.19826 0.14393,0.10583 0.32102,0.28398 0.34784,0.46919 l -0.0325,0.019" />
    <path
       id="path1296"
       style="fill:#f9adb3;fill-opacity:1;fill-rule:nonzero;stroke:none;stroke-width:0.03527778"
       d="m 166.65993,242.57178 c -0.14322,-0.0998 -0.3115,-0.2166 -0.36865,-0.38911 -0.0536,-0.16228 -0.0674,-0.29316 -0.0448,-0.46108 l 0.009,-0.003 c 0.0116,0.16086 0.0515,0.31397 0.13158,0.45614 0.0752,0.13617 0.21132,0.24236 0.30375,0.36936 l -0.031,0.0275" />
    <path
       id="path1298"
       style="fill:#f9adb3;fill-opacity:1;fill-rule:nonzero;stroke:none;stroke-width:0.03527778"
       d="m 166.89629,242.99723 c -0.0197,-0.0356 -0.0303,-0.0787 -0.0363,-0.11888 -0.006,-0.042 -0.0353,-0.0773 -0.0462,-0.11854 l 0.0109,-0.006 c 0.0222,0.0381 0.0564,0.0624 0.0765,0.1009 0.019,0.0377 0.0406,0.0716 0.0427,0.1143 l -0.0476,0.0286" />
    <path
       id="path1300"
       style="fill:#f9adb3;fill-opacity:1;fill-rule:nonzero;stroke:none;stroke-width:0.03527778"
       d="m 166.30574,243.05756 c -0.0702,-0.0145 -0.14675,-0.0194 -0.20849,-0.0586 -0.0656,-0.0409 -0.11924,-0.10619 -0.1718,-0.16122 l 0.004,-0.005 c 0.0674,0.0402 0.16051,0.11324 0.2413,0.11712 0.0617,0.003 0.12594,0.002 0.17286,0.0476 l -0.0374,0.06" />
    <path
       id="path1302"
       style="fill:#f9adb3;fill-opacity:1;fill-rule:nonzero;stroke:none;stroke-width:0.03527778"
       d="m 165.73813,240.83753 c -0.11042,-3.5e-4 -0.18733,-0.0984 -0.21097,-0.20038 -0.0296,-0.12806 0.002,-0.23989 0.0268,-0.36442 l 0.0113,-0.004 c 0.008,0.097 0.0145,0.17921 0.0363,0.2734 0.0258,0.10583 0.10195,0.16369 0.1711,0.23954 l -0.0346,0.0557" />
    <path
       id="path1304"
       style="fill:#f9adb3;fill-opacity:1;fill-rule:nonzero;stroke:none;stroke-width:0.03527778"
       d="m 166.89277,241.61999 c -0.0769,-0.16052 -0.14111,-0.30304 -0.28223,-0.42157 -0.10618,-0.0889 -0.21237,-0.17498 -0.31573,-0.26635 -0.16475,-0.14429 -0.19085,-0.26882 -0.15769,-0.48154 l 0.005,-10e-4 c -0.006,0.53975 0.70379,0.62653 0.78281,1.15252 l -0.0317,0.018" />
    <path
       id="path1306"
       style="fill:#f8a7b1;fill-opacity:1;fill-rule:nonzero;stroke:none;stroke-width:0.03527778"
       d="m 167.23955,240.7839 c -0.13935,-0.37006 -0.17921,-0.91757 0.0226,-1.27105 l 0.006,0.001 c -0.1344,0.37535 -0.0413,0.8643 0.001,1.25165 l -0.0303,0.018" />
    <path
       id="path1308"
       style="fill:#f8a7b1;fill-opacity:1;fill-rule:nonzero;stroke:none;stroke-width:0.03527778"
       d="m 167.93134,242.40386 c -0.44097,-0.45473 -0.48365,-1.1116 -0.11041,-1.61996 l 0.003,7.2e-4 c -0.23142,0.52105 -0.13018,1.10984 0.13723,1.5935 l -0.0296,0.0258" />
    <path
       id="path1310"
       style="fill:#f8a7b1;fill-opacity:1;fill-rule:nonzero;stroke:none;stroke-width:0.03527778"
       d="m 168.11655,242.6187 c -0.0483,-0.0113 -0.0646,-0.055 -0.0896,-0.0935 l 0.0339,-0.03 c 0.0332,0.0229 0.0653,0.0459 0.097,0.0691 l -0.0413,0.0543" />
    <path
       id="path1312"
       style="fill:#f8a7b1;fill-opacity:1;fill-rule:nonzero;stroke:none;stroke-width:0.03527778"
       d="m 169.14102,242.29732 c -0.30727,-0.0554 -0.40076,-0.44344 -0.38488,-0.70979 l 0.005,-0.002 c 0.0374,0.28328 0.1718,0.51365 0.40181,0.67628 l -0.0222,0.0353" />
    <path
       id="path1314"
       style="fill:#f8a7b1;fill-opacity:1;fill-rule:nonzero;stroke:none;stroke-width:0.03527778"
       d="m 169.3548,243.43009 c -0.22824,0 -0.49142,-0.0885 -0.61171,-0.28011 l 0.008,-0.006 c 0.1845,0.17745 0.496,0.16899 0.73166,0.21873 0.036,0.007 0.0123,0.0561 -0.0145,0.06 -0.0363,0.005 -0.0744,0.008 -0.11359,0.008" />
    <path
       id="path1316"
       style="fill:#f8a7b1;fill-opacity:1;fill-rule:nonzero;stroke:none;stroke-width:0.03527778"
       d="m 168.72721,239.46945 c -0.25858,-0.17639 -0.20285,-0.58349 0.0755,-0.70661 l 0.003,0.006 c -0.11924,0.11677 -0.18098,0.21766 -0.15276,0.39229 0.0145,0.0868 0.0797,0.18803 0.11854,0.26846 l -0.0441,0.0395" />
    <path
       id="path1318"
       style="fill:#f8a7b1;fill-opacity:1;fill-rule:nonzero;stroke:none;stroke-width:0.03527778"
       d="m 169.11562,240.15843 c -0.13159,-0.0127 -0.26811,-0.0152 -0.35878,-0.127 -0.0642,-0.0804 -0.0995,-0.18027 -0.0808,-0.28222 l 0.009,-0.003 c 0.0106,0.10865 0.11606,0.20849 0.21025,0.25541 0.0833,0.042 0.17639,0.0483 0.25506,0.0988 l -0.0346,0.0579" />
    <path
       id="path1320"
       style="fill:#f8a7b1;fill-opacity:1;fill-rule:nonzero;stroke:none;stroke-width:0.03527778"
       d="m 169.58622,240.15913 c -0.13652,-0.12135 -0.19438,-0.28963 -0.20461,-0.46884 -0.009,-0.14852 0.0744,-0.27305 0.1323,-0.39934 l 0.006,-3.5e-4 c -0.0332,0.13935 -0.0744,0.266 -0.0381,0.41275 0.0367,0.14641 0.10971,0.27835 0.14816,0.42404 l -0.0434,0.0318" />
    <path
       id="path1322"
       style="fill:#f9adb3;fill-opacity:1;fill-rule:nonzero;stroke:none;stroke-width:0.03527778"
       d="m 167.59338,243.37682 c -0.0924,0 -0.115,-0.16969 -0.11006,-0.23989 l 0.009,-0.003 c 0.0233,0.0914 0.0861,0.13229 0.14922,0.19227 l -0.0169,0.0444 c -0.0113,0.004 -0.0219,0.006 -0.0314,0.006" />
    <path
       id="path1324"
       style="fill:#f9adb3;fill-opacity:1;fill-rule:nonzero;stroke:none;stroke-width:0.03527778"
       d="m 169.44829,244.44115 c -0.0413,-0.001 -0.0557,-0.0296 -0.0755,-0.0617 -0.0265,-0.0423 -0.0572,-0.078 -0.0889,-0.11606 -0.054,-0.0628 -0.115,-0.15593 -0.2039,-0.16334 l 0.002,-0.0109 c 0.01,-10e-4 0.0194,-0.002 0.0286,-0.002 0.0737,0 0.1397,0.0473 0.19544,0.0928 0.0744,0.06 0.16546,0.11183 0.18733,0.21202 l -0.0455,0.0494" />
    <path
       id="path1326"
       style="fill:#f9adb3;fill-opacity:1;fill-rule:nonzero;stroke:none;stroke-width:0.03527778"
       d="m 169.63032,244.5431 -0.0289,-0.0254 0.0303,-0.0212 0.0159,0.019 -0.0173,0.0275" />
    <path
       id="path1328"
       style="fill:#f58593;fill-opacity:1;fill-rule:nonzero;stroke:none;stroke-width:0.03527778"
       d="m 173.01487,240.75815 c -0.0702,0.42475 -0.17498,0.86007 -0.32879,1.25765 0.0317,-0.17497 0.0441,-0.35701 0.0642,-0.53375 0.0233,-0.20743 0.006,-0.37112 -0.0476,-0.56938 -0.0152,-0.0568 -0.0399,-0.10689 -0.0681,-0.15558 0.0462,-0.10901 0.0462,-0.27093 0.0325,-0.36794 -0.0272,-0.1771 -0.14076,-0.38206 -0.24341,-0.5267 l -0.0102,0.004 c 0.0896,0.14711 0.2293,0.43074 0.19297,0.60783 -0.0116,0.0586 -0.0268,0.11748 -0.042,0.17639 -0.13371,-0.1785 -0.3108,-0.33478 -0.35772,-0.58243 -0.0138,0.34889 0.27552,0.59619 0.39829,0.91228 0.10265,0.26353 0.0744,0.57326 0.0413,0.84596 -0.008,0.0677 -0.0208,0.12912 -0.037,0.18768 -0.0141,0.0903 -0.0353,0.1785 -0.067,0.26458 -0.0282,0.0487 -0.0543,0.0967 -0.0847,0.14358 -0.0607,0.0935 -0.127,0.12524 -0.21837,0.17322 -0.0519,0.048 -0.1069,0.0935 -0.16405,0.13934 0.0787,-0.0205 0.1577,-0.0406 0.23284,-0.0709 -0.0384,0.0522 -0.0702,0.10372 -0.091,0.14641 l -7.2e-4,0.008 c -0.47413,0.50941 -1.23472,0.79904 -1.91523,0.72072 -0.0416,-0.004 -0.0727,-0.004 -0.0974,0.002 -0.003,-0.0208 -0.006,-0.0508 -0.0102,-0.0868 0.007,-0.18238 0.0109,-0.36442 0.0138,-0.54574 0.10266,0.0674 0.25083,0.055 0.38594,0.007 -0.0737,0.10054 -0.0988,0.23424 -0.0289,0.34783 l 0.0321,-0.007 c -0.11571,-0.45085 0.74295,-0.53022 0.88018,-0.91299 0.0818,-0.23212 0.10337,-0.46672 0.10584,-0.7052 0.0931,-0.27234 0.1785,-0.58843 0.50447,-0.63182 l -0.005,-0.0113 c -0.17004,-7.2e-4 -0.32244,0.0727 -0.40781,0.22401 -0.0296,0.0526 -0.0628,0.10442 -0.0924,0.15805 -0.002,-0.12242 -0.004,-0.24518 -0.001,-0.36972 l -0.0303,-0.0134 c -0.012,0.14217 -0.0222,0.29457 -0.0374,0.44803 -7.2e-4,0.30656 -0.0166,0.61489 -0.19227,0.81421 l -7.1e-4,0.004 c -0.0833,0.0825 -0.17145,0.17533 -0.28258,0.21484 -0.11818,0.0413 -0.4131,0.121 -0.52422,0.0279 l -0.003,0.003 c 0.0931,0.12453 0.34819,0.0991 0.48119,0.0776 0.0466,-0.007 0.0907,-0.0212 0.13229,-0.0392 -0.0967,0.10019 -0.2159,0.18345 -0.36654,0.2413 l -0.0889,0.0529 c -0.11042,0.0363 -0.23424,0.0508 -0.34325,0.0314 -0.0649,-0.0314 -0.097,-0.0776 -0.11501,-0.13123 0.004,-0.26706 0.007,-0.53411 0.0198,-0.80434 0.01,-0.21272 0.0194,-0.33655 0.0381,-0.47025 0.0797,-0.1718 0.24095,-0.30409 0.41875,-0.38876 l -0.003,-0.005 c -0.12206,0.0303 -0.27023,0.0815 -0.37853,0.16828 l 0.0116,-0.0614 c 0.018,-0.0374 0.0374,-0.0751 0.0614,-0.11253 0.0945,-0.14817 0.16686,-0.30375 0.25647,-0.45438 0.0607,-0.10125 0.14887,-0.24553 0.27411,-0.28293 0,0 0.2413,-0.0363 0.27446,-0.0497 0.10054,-0.0416 0.16933,-0.0892 0.23812,-0.17322 l -0.0123,-0.0137 c -0.17145,0.14605 -0.37077,0.11077 -0.56973,0.1531 l 0.0356,-0.0469 c 0.0836,-0.12418 0.0589,-0.28328 0.01,-0.41769 h -0.009 c 0.0236,0.19932 -0.0639,0.3041 -0.17216,0.45438 -0.0303,0.042 -0.06,0.0882 -0.0889,0.13582 -0.066,0.0692 -0.11994,0.15558 -0.15628,0.22472 -0.0413,0.0773 -0.0991,0.1584 -0.14958,0.24271 -0.037,-0.10477 -0.0931,-0.20038 -0.0963,-0.37641 -0.007,-0.31115 0.0487,-0.61666 0.037,-0.92569 -0.01,-0.23777 -0.0854,-0.52458 -0.0441,-0.76835 0.0332,-0.0843 0.0593,-0.17392 0.12136,-0.2406 0.0811,-0.0882 0.17286,-0.0847 0.28187,-0.0998 0.061,-0.008 0.10724,-0.002 0.15557,0.003 0.0325,0.004 0.066,0.008 0.10548,0.007 l 0.0642,0.006 c 0.10725,0.0409 0.22225,0.0646 0.3235,0.11642 0.0981,0.049 0.15946,0.13828 0.24836,0.19649 0.0688,0.0462 0.1337,0.0861 0.19014,0.13088 0.0593,0.09 0.12383,0.18239 0.0903,0.29704 -0.0289,0.0956 -0.0871,0.12735 -0.12629,0.20461 -0.0515,0.10196 -0.0579,0.22296 -0.0758,0.33444 l 0.008,0.003 c 0.037,-0.14076 0.0586,-0.27376 0.17004,-0.37677 0.049,-0.0452 0.10195,-0.10231 0.11289,-0.17251 l 0.003,0.0127 c 0.0131,0.0713 0.0586,0.21731 0.0229,0.28963 l 0.001,0.001 c 0.0723,-0.0716 0.0356,-0.26247 0.031,-0.35278 -0.0106,-0.16615 -0.0575,-0.24341 -0.17639,-0.35736 -0.0706,-0.0677 -0.16193,-0.10583 -0.23495,-0.17004 l -0.0476,-0.0427 c 0.48225,0.19368 0.96661,0.49848 1.25659,0.64912 0.042,0.0215 0.0889,0.0413 0.1323,0.0614 0.19438,-0.01 0.25858,0.14393 0.25717,0.3302 -0.001,0.19508 -0.018,0.36089 0.004,0.5588 0.0226,0.20673 -0.0388,0.40534 -0.10901,0.60043" />
    <path
       id="path1330"
       style="fill:#f1688b;fill-opacity:1;fill-rule:nonzero;stroke:none;stroke-width:0.03527778"
       d="m 172.67726,245.55487 c 0.0501,-0.0434 0.097,-0.0875 0.13582,-0.13406 0.23813,-0.28116 0.53587,-0.30091 0.84596,-0.26493 0.15099,0.0508 0.31892,0.0265 0.47555,0.0871 0.15769,0.0607 0.25541,0.13017 0.35348,0.24553 l 0.0632,0.0448 c -0.0557,-0.10548 -0.11783,-0.2166 -0.21202,-0.29139 0.37183,0.009 0.6978,-0.0646 0.97896,-0.20638 0.12806,-0.0265 0.25365,-0.0713 0.36054,-0.13723 0.17286,-0.10724 0.37818,-0.30797 0.58561,-0.28257 v -0.005 c -0.21167,-0.0642 -0.33761,0.036 -0.52176,0.12735 l -0.002,0.001 c 0.24483,-0.22895 0.43921,-0.52846 0.58032,-0.8897 0.013,-0.0328 0.0261,-0.0632 0.0392,-0.0942 0.12065,-0.16969 0.21908,-0.31504 0.45614,-0.28858 v -0.0138 c -0.1217,-0.0423 -0.21907,-0.0582 -0.30797,-0.0113 0.036,-0.0737 0.0702,-0.14252 0.10054,-0.20884 -0.005,-0.10301 0.0296,-0.2406 0.16545,-0.16334 l 0.004,0.003 h 0.005 l 0.003,0.007 c 0.16969,0.10866 0.29351,0.46073 0.36125,0.63042 0.0325,0.0829 0.055,0.16862 0.0695,0.25647 -0.003,0.1143 -0.0138,0.23318 -0.0339,0.35172 -0.01,0.35066 -0.0914,0.75882 -0.37536,0.97331 -0.22825,0.17145 -0.53693,0.2854 -0.83502,0.31221 -0.085,0.0138 -0.17498,0.0251 -0.27764,0.0388 -0.21167,0.0293 -0.29175,0.0889 -0.46531,0.16333 l 0.008,0.0123 c 0.1651,-0.0406 0.30797,-0.10795 0.47942,-0.11253 0.0441,-0.002 0.0914,-3.5e-4 0.1397,10e-4 0.0628,0.002 0.12735,0.004 0.18838,-7.2e-4 -0.0215,0.0607 -0.0289,0.13018 -0.0702,0.18944 -0.0483,0.0702 -0.12558,0.11007 -0.1972,0.15205 l -0.1531,0.0621 -0.004,0.001 c 0.0434,-0.001 0.0868,-0.003 0.12947,-0.004 l 0.0205,-0.006 c 0.0727,-0.0138 0.15451,-0.0596 0.2166,-0.0988 0.0653,-0.0416 0.0889,-0.1016 0.11289,-0.1718 0.018,-0.0533 0.0543,-0.0991 0.0773,-0.14923 0.248,-0.0667 0.49107,-0.17003 0.68968,-0.33584 0.10689,-0.09 0.18733,-0.19015 0.2473,-0.29774 0.0123,0.20108 0.0586,0.43638 0.0497,0.65017 0.024,0.21096 0.0183,0.38946 -0.16122,0.54574 -0.19297,0.16687 -0.54504,0.22261 -0.77788,0.31574 -0.20355,0.0811 -0.37641,0.11783 -0.53975,0.11183 -0.084,0.009 -0.16792,0.007 -0.25611,-0.0145 -0.17851,-0.0423 -0.33761,-0.15875 -0.49283,-0.27093 -0.10866,-0.0512 -0.22049,-0.10301 -0.34184,-0.14746 -0.2025,-0.0741 -0.42298,-0.13159 -0.647,-0.16687 -0.0434,-0.0257 -0.0882,-0.0346 -0.13829,-0.0501 0.20814,-0.0571 0.41628,-0.12488 0.60078,-0.22295 -0.0469,0.007 -0.0938,0.0134 -0.1404,0.0191 -0.17639,0.0564 -0.37783,0.0974 -0.53552,0.11289 -0.33267,0.0342 -0.56374,0.0635 -0.82973,-0.0811 -0.0296,-0.0342 -0.0565,-0.0699 -0.084,-0.10302 -0.0455,-0.0557 -0.0861,-0.13652 -0.14252,-0.1905" />
    <path
       id="path1332"
       style="fill:#f48b96;fill-opacity:1;fill-rule:nonzero;stroke:none;stroke-width:0.03527778"
       d="m 170.17113,244.89377 c 0.0773,0.0402 0.20461,-0.0109 0.30939,-0.0716 -0.0557,0.0744 -0.15487,0.23988 -0.0921,0.32878 l 0.0145,-0.006 c -0.0317,-0.061 0.0617,-0.18309 0.097,-0.22084 0.0413,-0.0459 0.078,-0.0977 0.13017,-0.13158 0.0374,-0.0247 0.0759,-0.0434 0.11642,-0.0607 -0.1584,0.26599 -0.18521,0.54539 0.0166,0.85584 l 0.0434,0.0173 c -0.45614,-0.72708 0.25435,-1.09855 0.84808,-1.3642 0.12982,-0.006 0.2614,-0.0818 0.38664,-0.10653 0.1083,-0.0215 0.22119,-0.0466 0.33091,-0.013 0.0356,0.0113 0.06,0.019 0.079,0.0243 l 0.007,0.0201 0.0205,-0.008 -0.001,-0.004 -0.002,-0.003 c -0.0635,-0.11007 -0.22613,-0.13723 -0.34326,-0.12383 l -0.0194,0.002 c 0.46779,-0.25294 0.63536,-0.59196 0.86078,-1.06892 l -0.005,-0.003 c -0.1591,0.29034 -0.29492,0.50412 -0.4893,0.68545 -0.004,-0.10019 -0.0593,-0.21272 -0.0882,-0.29986 l -0.0102,-3.4e-4 c 0.013,0.0875 0.0557,0.17956 0.0381,0.26952 -0.01,0.0469 -0.0293,0.0885 -0.0533,0.12806 -0.10195,0.0797 -0.21625,0.15451 -0.35842,0.22754 -0.29881,0.15381 -0.79763,0.21308 -1.02976,0.46425 -0.0512,0.055 -0.0981,0.11113 -0.14006,0.16722 -0.10689,0.0318 -0.20884,0.0787 -0.28998,0.15311 -0.0875,0.0374 -0.21519,0.0854 -0.30339,0.0811 -0.12029,-0.16299 -0.0653,-0.41946 -0.0646,-0.61243 7.2e-4,-0.15169 -0.013,-0.39617 0.0896,-0.51823 l 7.2e-4,-3.4e-4 0.005,0.008 0.0258,-0.002 7.1e-4,-0.001 c 0.0543,0.009 0.12242,0.0187 0.21343,0.0286 0.20109,0.0219 0.32032,0.006 0.50906,-0.0688 0.45614,-0.18309 1.03717,-0.38488 1.31269,-0.82338 0.0512,-0.0797 0.0967,-0.16264 0.14076,-0.24589 0.1217,-0.12912 0.25964,-0.22648 0.3884,-0.0847 l 0.0116,-0.008 c -0.0854,-0.13536 -0.19831,-0.13854 -0.30732,-0.0817 l 0.0236,-0.0543 c 0.23742,-0.50941 0.39547,-1.06115 0.56057,-1.59385 0.0723,-0.23283 0.14675,-0.45014 0.11782,-0.69779 -0.0219,-0.19156 -0.0811,-0.36936 -0.0413,-0.53058 -0.0116,-0.061 0.0159,-0.11571 0.0917,-0.15698 0.12348,-0.0681 0.31503,0.0871 0.41064,0.14463 0.15099,0.0903 0.35066,0.18557 0.496,0.31821 0.32315,0.18874 0.6731,0.46778 0.52317,0.77929 -0.0145,0.11782 -0.0716,0.22965 -0.19297,0.31644 -0.06,0.0423 -0.35136,0.11994 -0.47907,0.15698 l -0.0737,0.0229 0.0744,-0.0568 c 0.22613,-0.20638 0.16545,-0.40287 0.0289,-0.65441 l -0.005,0.001 c 0.21625,0.57644 -0.27517,0.57186 -0.5595,0.88089 -0.16687,0.18203 -0.25295,0.39688 -0.29987,0.63641 l 0.002,0.007 c -0.0275,0.11042 -0.0339,0.22331 -0.009,0.33443 l 0.0145,-0.0734 c -0.004,-0.17286 0.0632,-0.3556 0.17145,-0.51329 0.0536,-0.10196 0.11995,-0.19827 0.20603,-0.28434 0.30056,-0.29845 0.76059,-0.17604 1.07985,-0.38735 l 0.0452,-0.06 c 0.0325,-0.0321 0.0593,-0.073 0.0794,-0.12488 0.0254,-0.0674 0.0427,-0.11994 0.0519,-0.1905 0.004,-0.0413 0.019,-0.12629 0.0529,-0.15769 0.18732,0.15769 0.33549,0.3623 0.44097,0.58773 0.0318,0.036 0.0621,0.0737 0.0875,0.11571 0.0346,0.054 0.0695,0.10654 0.10689,0.1584 0.0303,0.0765 0.0522,0.1524 0.0702,0.22789 0.0744,0.18768 0.11219,0.39229 -0.003,0.56797 -0.0296,0.1143 -0.078,0.22895 -0.14957,0.34431 l -0.0342,0.0483 c 0.0593,-0.22295 -0.002,-0.49882 -0.12771,-0.66428 l -0.007,0.002 c 0.0942,0.17816 0.0854,0.34043 0.0723,0.53305 -0.008,0.12383 -0.0737,0.20567 -0.1076,0.31891 l 7.2e-4,0.0173 c -0.15628,0.17427 -0.33056,0.35243 -0.4057,0.54857 -0.0413,0.10654 -0.0794,0.22296 -0.12135,0.33902 l -0.005,0.006 -0.001,0.0127 -0.0162,0.0441 c -0.0751,0.10548 -0.13371,0.22437 -0.20073,0.33726 -0.0522,0.0716 -0.10407,0.14464 -0.1577,0.21484 -0.0282,0.0289 -0.0572,0.0575 -0.091,0.0822 l -0.0123,0.008 c -0.0564,0.0607 -0.12558,0.10795 -0.21096,0.13194 -0.13546,0.0374 -0.30868,0.0392 -0.45543,-0.008 0.16263,0.0667 0.3556,0.10336 0.52246,0.043 -0.0642,0.0628 -0.10336,0.12629 -0.1083,0.23001 l 0.0649,-0.054 c 0.0653,-0.121 0.2039,-0.2092 0.29668,-0.30727 0.0684,-0.072 0.12348,-0.15275 0.17534,-0.23672 0.10336,-0.13476 0.18238,-0.29139 0.23424,-0.44132 l 0.0176,-0.0409 0.049,-0.0307 c 0.0353,-0.0632 0.078,-0.12206 0.1337,-0.17392 0.0759,-0.0709 0.16475,-0.0864 0.25506,-0.0967 0.0487,-0.0127 0.0998,-0.019 0.15134,-0.0201 l 0.0882,-0.0289 c -0.0494,-0.0226 -0.10124,-0.0476 -0.14922,-0.0427 -0.0903,0.008 -0.18274,0.0169 -0.266,0.055 -0.049,0.0229 -0.15099,0.12594 -0.18626,0.17004 l -0.004,0.004 c 0.20672,-0.39688 0.54857,-0.64523 0.7821,-1.04211 0.11395,-0.19367 0.18945,-0.37959 0.18133,-0.58455 l -0.0215,-0.0759 c 0.049,-0.0589 0.10337,-0.0723 0.16016,-0.0554 0.14253,0.11818 0.25753,0.27058 0.35737,0.43003 0.0296,0.0423 0.0564,0.0854 0.0794,0.12841 l 0.007,0.0176 0.0222,0.0367 c 0.0709,0.18274 0.12241,0.38383 0.115,0.58209 -0.0413,0.0885 -0.10054,0.18979 -0.14111,0.34466 -0.031,0.11783 -0.0635,0.24412 -0.10089,0.37112 -0.0536,0.0914 -0.10125,0.19544 -0.13476,0.28822 l -0.012,0.0265 c 0.004,-0.121 -0.0233,-0.23071 -0.10196,-0.33408 0.067,0.19297 0.0483,0.39547 -0.0356,0.57044 -0.0441,0.12877 -0.10971,0.2533 -0.18626,0.35737 l -0.061,0.0593 c -0.32668,0.26881 -0.63677,0.39828 -0.95497,0.45155 l 0.0854,-0.0751 c 0.0917,-0.10865 0.12065,-0.26564 0.0804,-0.40005 -0.006,0.0624 -0.0289,0.12383 -0.0639,0.17957 -0.0332,0.10195 -0.0981,0.19297 -0.19227,0.23883 -0.12911,0.0639 -0.28257,0.0692 -0.4258,0.0871 -0.27905,-0.008 -0.57326,-0.0476 -0.89641,-0.0818 -0.16968,-0.0176 -0.375,0.0519 -0.56444,0.15628 0.13582,-0.20073 0.23565,-0.4318 0.31291,-0.66499 0.0882,-0.26458 0.12594,-0.57714 0.17921,-0.88124 0.0804,-0.13017 0.17427,-0.24729 0.32315,-0.31044 0.0737,-0.0314 0.14922,-0.055 0.22436,-0.0776 0.0572,-0.006 0.11042,-0.0226 0.16969,-0.0261 0.0751,-0.005 0.12065,0.037 0.18944,0.0469 v -0.006 c -0.0614,-0.0247 -0.0945,-0.0744 -0.1591,-0.0819 l 0.0131,-0.005 c 0.29421,-0.11889 0.40499,-0.29245 0.50553,-0.58773 l -0.007,-0.005 c -0.0861,0.17639 -0.19156,0.37536 -0.3803,0.46038 -0.15028,0.067 -0.30656,0.10795 -0.46037,0.16651 -0.16933,0.0635 -0.29916,0.16051 -0.39405,0.2928 0.0455,-0.22648 0.10407,-0.44415 0.20602,-0.62759 0.0529,-0.0727 0.115,-0.13723 0.18521,-0.21343 0.0434,-0.048 0.10759,-0.0995 0.16757,-0.15311 0.10618,-0.061 0.2286,-0.10759 0.37959,-0.13194 l -0.002,-0.005 c -0.11148,0.01 -0.21061,0.0311 -0.30022,0.0607 0.0275,-0.0303 0.0508,-0.0614 0.0653,-0.0938 0.11854,-0.26423 0.10196,-0.45049 -0.0378,-0.70202 l -0.0113,0.002 c 0.14958,0.38488 -0.0342,0.70061 -0.32843,0.94967 -0.0572,0.0483 -0.10337,0.0991 -0.14323,0.15205 -0.30339,0.36442 -0.38065,0.94121 -0.50095,1.49825 -0.0367,-0.061 -0.0917,-0.1143 -0.1718,-0.15628 l 0.0243,0.0727 c 0.0564,0.0938 0.0773,0.19614 0.0765,0.30233 0.0183,0.14711 0.001,0.29351 -0.0829,0.48013 -0.0765,0.16968 -0.1845,0.35313 -0.34431,0.4512 -0.0614,0.0501 -0.11783,0.1009 -0.16122,0.14781 l -0.054,0.0554 -0.0296,0.0173 c 0.0236,-0.15169 -0.0508,-0.30374 -0.10865,-0.45261 0.009,0.19191 0.0783,0.37994 -0.0346,0.56339 -0.0794,0.12982 -0.19086,0.20743 -0.32809,0.23071 -0.24306,0.11924 -0.50764,0.18521 -0.76694,0.18027 0.29387,-0.11394 0.41416,-0.35736 0.34185,-0.6544 -0.0296,0.20002 -0.10125,0.387 -0.28293,0.50271 -0.11924,0.0759 -0.26423,0.10795 -0.39229,0.0744 l -0.0571,10e-4 -0.0529,-0.008 c -0.0896,-0.0342 -0.17639,-0.0783 -0.25859,-0.13441 -0.11289,-0.14041 -0.18027,-0.32879 -0.21978,-0.53516 -0.0109,-0.15205 0.006,-0.30763 0.0123,-0.46602" />
    <path
       id="path1334"
       style="fill:#f792aa;fill-opacity:1;fill-rule:nonzero;stroke:none;stroke-width:0.03527778"
       d="m 176.04664,245.46174 -0.0229,-0.0367 c 0.28893,-0.13829 0.51965,-0.26459 0.72002,-0.52564 0.23636,-0.30798 0.23566,-0.68333 0.32385,-1.04034 l 0.009,0.004 c -0.0374,0.36653 0.0123,0.7179 -0.17109,1.05551 -0.19086,0.35172 -0.50765,0.43533 -0.85902,0.54363" />
    <path
       id="path1336"
       style="fill:#f792aa;fill-opacity:1;fill-rule:nonzero;stroke:none;stroke-width:0.03527778"
       d="m 175.75701,245.54252 c -0.037,0 -0.0674,-0.0134 -0.0639,-0.0444 l 0.0173,-0.0155 c 0.0194,0.001 0.0526,0.006 0.0833,0.006 0.0282,0 0.0547,-0.005 0.0667,-0.0205 l 0.018,0.013 c -0.008,0.0367 -0.0709,0.061 -0.12135,0.061" />
    <path
       id="path1338"
       style="fill:#f792aa;fill-opacity:1;fill-rule:nonzero;stroke:none;stroke-width:0.03527778"
       d="m 176.38884,246.41177 -0.0205,-0.0413 c 0.27199,-0.16334 0.66498,-0.32068 0.61101,-0.71579 l 0.007,3.5e-4 c 0.12947,0.41486 -0.23636,0.68862 -0.59761,0.7567" />
    <path
       id="path1340"
       style="fill:#f792aa;fill-opacity:1;fill-rule:nonzero;stroke:none;stroke-width:0.03527778"
       d="m 175.70516,246.01913 c -0.0194,0 -0.0406,-0.005 -0.0632,-0.0166 l -0.0123,-0.0494 c 0.0455,-0.0134 0.0903,-0.0198 0.13582,-0.0356 0.0515,-0.0194 0.0868,-0.0575 0.12241,-0.0974 l 0.005,0.004 c -0.036,0.0804 -0.0945,0.19508 -0.18768,0.19508" />
    <path
       id="path1342"
       style="fill:#f792aa;fill-opacity:1;fill-rule:nonzero;stroke:none;stroke-width:0.03527778"
       d="m 173.54898,245.91082 c -0.15628,0 -0.31609,-0.0377 -0.45826,-0.10407 l 7.1e-4,-0.0381 c 0.13371,0.0321 0.27023,0.0519 0.40499,0.0519 0.2406,0 0.47484,-0.0621 0.67522,-0.22401 l 0.006,0.005 c -0.14958,0.21802 -0.38523,0.30939 -0.629,0.30939" />
    <path
       id="path1344"
       style="fill:#f792aa;fill-opacity:1;fill-rule:nonzero;stroke:none;stroke-width:0.03527778"
       d="m 175.53194,246.54759 c -0.0663,0 -0.13053,-0.0201 -0.20673,-0.0642 -0.10054,-0.0579 -0.18767,-0.13476 -0.28892,-0.19191 -0.11712,-0.0663 -0.24377,-0.0825 -0.36865,-0.12171 -0.0162,-0.005 -0.0452,-0.048 -0.0116,-0.049 0.01,-3.5e-4 0.0187,-3.5e-4 0.0279,-3.5e-4 0.13617,0 0.23495,0.0356 0.36371,0.0935 0.21943,0.0984 0.35031,0.28822 0.60078,0.28822 0.0201,0 0.0409,-0.001 0.0624,-0.004 l 0.004,0.007 c -0.0681,0.0268 -0.12594,0.0416 -0.18239,0.0416" />
    <path
       id="path1346"
       style="fill:#f9adb3;fill-opacity:1;fill-rule:nonzero;stroke:none;stroke-width:0.03527778"
       d="m 175.32239,244.78193 -0.0261,-0.0342 c 0.33338,-0.29351 0.61242,-0.68403 0.60008,-1.14441 l 0.0102,7.2e-4 c 0.0945,0.25682 0.1143,0.47272 -0.0212,0.72178 -0.1076,0.19932 -0.36478,0.36054 -0.56304,0.45614" />
    <path
       id="path1348"
       style="fill:#f9adb3;fill-opacity:1;fill-rule:nonzero;stroke:none;stroke-width:0.03527778"
       d="m 176.31581,243.19796 -0.0494,-0.0289 c 0.0268,-0.0991 0.0529,-0.18732 0.10407,-0.27658 0.0522,-0.091 0.0603,-0.18026 0.0632,-0.28151 l 0.006,0.002 c 0.0159,0.0945 0.0434,0.16863 0.013,0.26352 -0.0346,0.10795 -0.0716,0.22825 -0.13652,0.32138" />
    <path
       id="path1350"
       style="fill:#f9adb3;fill-opacity:1;fill-rule:nonzero;stroke:none;stroke-width:0.03527778"
       d="m 174.87048,243.0759 -0.0353,-0.0314 c 0.091,-0.15099 0.18733,-0.30303 0.28328,-0.4505 0.11712,-0.18062 0.0903,-0.40781 0.073,-0.60713 l 0.0159,7.2e-4 c 0.084,0.22825 0.10478,0.37818 0.0473,0.62618 -0.0487,0.20955 -0.23601,0.32879 -0.38417,0.46214" />
    <path
       id="path1352"
       style="fill:#f9adb3;fill-opacity:1;fill-rule:nonzero;stroke:none;stroke-width:0.03527778"
       d="m 173.85942,244.38188 c -0.0247,0 -0.0494,-0.001 -0.0737,-0.004 l -0.007,-0.031 c 0.21978,-0.0455 0.42016,-0.1778 0.54293,-0.369 0.0614,-0.0952 0.13299,-0.18274 0.18944,-0.28081 0.0339,-0.0582 0.0505,-0.12383 0.096,-0.17216 l 0.005,0.004 c -0.0328,0.10654 -0.031,0.21626 -0.0769,0.32103 -0.0476,0.10689 -0.1009,0.20743 -0.17039,0.30092 -0.1143,0.15205 -0.31574,0.23177 -0.50447,0.23177" />
    <path
       id="path1354"
       style="fill:#f9adb3;fill-opacity:1;fill-rule:nonzero;stroke:none;stroke-width:0.03527778"
       d="m 173.53028,244.38188 -0.01,-0.0399 0.0624,-0.01 0.0229,0.0367 -0.0759,0.0127" />
    <path
       id="path1356"
       style="fill:#f9adb3;fill-opacity:1;fill-rule:nonzero;stroke:none;stroke-width:0.03527778"
       d="m 172.57954,245.24372 -0.0462,-0.0409 c 0.0688,-0.14781 0.14182,-0.29316 0.19015,-0.44803 0.048,-0.15416 0.042,-0.29245 0.0543,-0.44944 l 0.007,0.002 c 0.0385,0.18839 0.0882,0.31539 0.0487,0.51153 -0.0328,0.16651 -0.12735,0.31468 -0.254,0.42475" />
    <path
       id="path1358"
       style="fill:#f9adb3;fill-opacity:1;fill-rule:nonzero;stroke:none;stroke-width:0.03527778"
       d="m 171.82919,245.83991 -0.0448,-0.0487 c 0.0748,-0.11077 0.17885,-0.19861 0.23671,-0.32138 0.067,-0.1404 0.11783,-0.33055 0.0642,-0.4833 l 0.009,-0.002 c 0.18944,0.3108 0.0138,0.68121 -0.26529,0.85513" />
    <path
       id="path1360"
       style="fill:#f9adb3;fill-opacity:1;fill-rule:nonzero;stroke:none;stroke-width:0.03527778"
       d="m 170.94583,245.00912 -0.0325,-0.019 c 0.0268,-0.1852 0.20391,-0.36336 0.34784,-0.46919 0.21555,-0.15875 0.4512,-0.15875 0.70344,-0.19826 l 0.007,0.0123 c -0.2032,0.0713 -0.39476,0.11924 -0.57891,0.23671 -0.16475,0.10513 -0.35066,0.26741 -0.44697,0.43745" />
    <path
       id="path1362"
       style="fill:#f9adb3;fill-opacity:1;fill-rule:nonzero;stroke:none;stroke-width:0.03527778"
       d="m 173.52005,242.57178 -0.031,-0.0275 c 0.0921,-0.127 0.2286,-0.23318 0.30445,-0.36935 0.0794,-0.14217 0.11924,-0.29528 0.13158,-0.45615 l 0.008,0.003 c 0.0222,0.16793 0.009,0.29881 -0.0448,0.46109 -0.0572,0.1725 -0.22578,0.28927 -0.3683,0.38911" />
    <path
       id="path1364"
       style="fill:#f9adb3;fill-opacity:1;fill-rule:nonzero;stroke:none;stroke-width:0.03527778"
       d="m 173.28369,242.99723 -0.0483,-0.0286 c 0.003,-0.0427 0.024,-0.0765 0.0427,-0.1143 0.0208,-0.0385 0.055,-0.0628 0.078,-0.10089 l 0.0102,0.006 c -0.0109,0.0413 -0.0399,0.0765 -0.0462,0.11853 -0.006,0.0402 -0.0166,0.0833 -0.0363,0.11889" />
    <path
       id="path1366"
       style="fill:#f9adb3;fill-opacity:1;fill-rule:nonzero;stroke:none;stroke-width:0.03527778"
       d="m 173.87459,243.05756 -0.0378,-0.06 c 0.0469,-0.0459 0.11077,-0.0448 0.17286,-0.0476 0.0815,-0.004 0.17357,-0.0769 0.2406,-0.11713 l 0.005,0.005 c -0.0533,0.055 -0.1076,0.1203 -0.17251,0.16122 -0.0614,0.0392 -0.139,0.0441 -0.20814,0.0586" />
    <path
       id="path1368"
       style="fill:#f9adb3;fill-opacity:1;fill-rule:nonzero;stroke:none;stroke-width:0.03527778"
       d="m 174.44186,240.83753 -0.0346,-0.0557 c 0.0688,-0.0759 0.14534,-0.13371 0.17039,-0.23954 0.0226,-0.0942 0.0289,-0.17639 0.037,-0.2734 l 0.0109,0.004 c 0.0257,0.12453 0.0564,0.23636 0.0268,0.36442 -0.0226,0.10195 -0.10054,0.20002 -0.21061,0.20037" />
    <path
       id="path1370"
       style="fill:#f9adb3;fill-opacity:1;fill-rule:nonzero;stroke:none;stroke-width:0.03527778"
       d="m 173.28686,241.61999 -0.0314,-0.018 c 0.079,-0.52599 0.78881,-0.61277 0.78246,-1.15252 l 0.006,0.001 c 0.0317,0.21273 0.006,0.33726 -0.15839,0.48154 -0.10337,0.0914 -0.21026,0.17745 -0.31644,0.26635 -0.14041,0.11853 -0.20532,0.26105 -0.28187,0.42157" />
    <path
       id="path1372"
       style="fill:#f8a7b1;fill-opacity:1;fill-rule:nonzero;stroke:none;stroke-width:0.03527778"
       d="m 172.94044,240.7839 -0.0303,-0.018 c 0.0427,-0.38735 0.13582,-0.8763 10e-4,-1.25165 l 0.006,-0.001 c 0.20108,0.35348 0.16157,0.90099 0.0226,1.27105" />
    <path
       id="path1374"
       style="fill:#f8a7b1;fill-opacity:1;fill-rule:nonzero;stroke:none;stroke-width:0.03527778"
       d="m 172.24864,242.40386 -0.0296,-0.0258 c 0.2674,-0.48366 0.36865,-1.07245 0.13723,-1.5935 l 0.003,-7.1e-4 c 0.37324,0.50835 0.32985,1.16522 -0.11042,1.61995" />
    <path
       id="path1376"
       style="fill:#f8a7b1;fill-opacity:1;fill-rule:nonzero;stroke:none;stroke-width:0.03527778"
       d="m 172.06343,242.6187 -0.0416,-0.0543 c 0.0317,-0.0233 0.0649,-0.0462 0.0974,-0.0691 l 0.0339,0.03 c -0.0243,0.0385 -0.0423,0.0822 -0.0896,0.0935" />
    <path
       id="path1378"
       style="fill:#f8a7b1;fill-opacity:1;fill-rule:nonzero;stroke:none;stroke-width:0.03527778"
       d="m 171.0372,242.29732 -0.0212,-0.0353 c 0.23001,-0.16263 0.36442,-0.39299 0.40181,-0.67627 l 0.005,0.002 c 0.0159,0.26634 -0.078,0.6544 -0.38594,0.70979" />
    <path
       id="path1380"
       style="fill:#f8a7b1;fill-opacity:1;fill-rule:nonzero;stroke:none;stroke-width:0.03527778"
       d="m 170.82483,243.43009 c -0.0395,0 -0.0776,-0.002 -0.11395,-0.008 -0.0272,-0.004 -0.0512,-0.0526 -0.0145,-0.06 0.23566,-0.0497 0.54751,-0.0413 0.73166,-0.21872 l 0.007,0.006 c -0.11994,0.19156 -0.38241,0.2801 -0.61066,0.2801" />
    <path
       id="path1382"
       style="fill:#f8a7b1;fill-opacity:1;fill-rule:nonzero;stroke:none;stroke-width:0.03527778"
       d="m 171.45207,239.46945 -0.0448,-0.0395 c 0.0395,-0.0804 0.10477,-0.18168 0.11924,-0.26846 0.0282,-0.17463 -0.0339,-0.27552 -0.15276,-0.39229 l 0.002,-0.006 c 0.27905,0.12312 0.33514,0.53023 0.0759,0.70661" />
    <path
       id="path1384"
       style="fill:#f8a7b1;fill-opacity:1;fill-rule:nonzero;stroke:none;stroke-width:0.03527778"
       d="m 171.06436,240.15843 -0.0353,-0.0579 c 0.0787,-0.0504 0.17216,-0.0568 0.25436,-0.0988 0.0949,-0.0469 0.20037,-0.14675 0.2106,-0.25541 l 0.009,0.003 c 0.019,0.10196 -0.0166,0.20179 -0.0815,0.28223 -0.091,0.11183 -0.22577,0.1143 -0.35736,0.127" />
    <path
       id="path1386"
       style="fill:#f8a7b1;fill-opacity:1;fill-rule:nonzero;stroke:none;stroke-width:0.03527778"
       d="m 170.59305,240.15913 -0.0441,-0.0318 c 0.0385,-0.14569 0.11219,-0.27763 0.14887,-0.42403 0.037,-0.14676 -0.005,-0.27341 -0.0381,-0.41275 l 0.006,3.4e-4 c 0.0579,0.12629 0.14041,0.25082 0.1323,0.39934 -0.0109,0.17922 -0.0684,0.34749 -0.20462,0.46885" />
    <path
       id="path1388"
       style="fill:#f9adb3;fill-opacity:1;fill-rule:nonzero;stroke:none;stroke-width:0.03527778"
       d="m 172.58589,243.37682 c -0.01,0 -0.0201,-0.002 -0.0314,-0.006 l -0.0166,-0.0445 c 0.0635,-0.06 0.1263,-0.10089 0.14958,-0.19226 l 0.009,0.003 c 0.004,0.0702 -0.0187,0.23989 -0.11077,0.23989" />
    <path
       id="path1390"
       style="fill:#f9adb3;fill-opacity:1;fill-rule:nonzero;stroke:none;stroke-width:0.03527778"
       d="m 170.73064,244.44115 -0.0455,-0.0494 c 0.0222,-0.10019 0.11324,-0.15205 0.18697,-0.21202 0.0561,-0.0455 0.12206,-0.0928 0.19614,-0.0928 0.009,0 0.0187,7.2e-4 0.0282,0.002 l 0.004,0.0109 c -0.0896,0.007 -0.15169,0.10054 -0.20461,0.16334 -0.0318,0.0381 -0.0635,0.0737 -0.0889,0.11606 -0.0198,0.0321 -0.0342,0.0603 -0.0759,0.0617" />
    <path
       id="path1392"
       style="fill:#f9adb3;fill-opacity:1;fill-rule:nonzero;stroke:none;stroke-width:0.03527778"
       d="m 170.54896,244.5431 -0.0166,-0.0275 0.0152,-0.019 0.0303,0.0212 -0.0289,0.0254" />
  </g>
</svg>
