<?xml version="1.0" encoding="UTF-8" standalone="no"?>
<svg
   xmlns:dc="http://purl.org/dc/elements/1.1/"
   xmlns:cc="http://creativecommons.org/ns#"
   xmlns:rdf="http://www.w3.org/1999/02/22-rdf-syntax-ns#"
   xmlns:svg="http://www.w3.org/2000/svg"
   xmlns="http://www.w3.org/2000/svg"
   id="svg12288"
   version="1.1"
   viewBox="0 0 54.297699 108.83492"
   height="108.83492mm"
   width="54.297699mm">
  <defs
     id="defs12282">
    <clipPath
       id="clipPath3452"
       clipPathUnits="userSpaceOnUse">
      <path
         id="path3450"
         d="m 766.891,5614.05 c -3.985,0 -7.215,5.64 -7.215,12.63 0,6.97 3.23,12.62 7.215,12.62 3.984,0 7.218,-5.65 7.218,-12.62 0,-6.99 -3.234,-12.63 -7.218,-12.63" />
    </clipPath>
  </defs>
  <metadata
     id="metadata12285">
    <rdf:RDF>
      <cc:Work
         rdf:about="">
        <dc:format>image/svg+xml</dc:format>
        <dc:type
           rdf:resource="http://purl.org/dc/dcmitype/StillImage" />
        <dc:title></dc:title>
      </cc:Work>
    </rdf:RDF>
  </metadata>
  <g
     transform="translate(-102.11901,-130.70159)"
     id="layer1">
    <path
       id="path3402"
       style="fill:#f8dfc6;fill-opacity:1;fill-rule:nonzero;stroke:none;stroke-width:0.03527778"
       d="m 152.29436,199.46105 c -0.87877,-2.4204 -2.67158,-3.2392 -2.67158,-3.2392 -1.21885,-5.34282 -5.16044,-16.45074 -9.09708,-20.76309 -3.93718,-4.312 -10.58757,-5.17878 -10.58757,-5.17878 v -1.9685 h -1.42007 -1.42007 v 1.9685 c 0,0 -6.65082,0.86678 -10.58746,5.17878 -3.93707,4.31235 -7.87866,15.42027 -9.0974,20.76309 0,0 -1.79282,0.8188 -2.67161,3.2392 -0.87863,2.42006 -0.28125,4.45911 0.49225,4.45911 0,0 0.31623,1.33562 1.23017,1.44075 0,0 0.52751,0.9846 1.47656,0.80857 0,0 0.7028,0.77364 1.19517,0.17603 0.49181,-0.5976 -0.45723,-1.68733 -0.21124,-3.55035 0.24638,-1.86302 0.94918,-2.17946 1.16043,-1.40582 0.21085,0.77293 -0.10598,2.63595 0.31612,2.9524 0.42182,0.31644 1.79285,-1.23014 1.40603,-3.76097 -0.38654,-2.53118 -1.30059,-3.02331 -1.30059,-3.02331 0,0 1.47973,-12.06887 9.51135,-19.89596 0,0 -1.83666,10.84334 -0.95486,22.0592 l 0.048,1.46261 c 0.0349,1.74132 0.22324,8.17104 1.18413,14.53621 0,0 1.78086,16.68533 0.84335,17.90383 -0.93747,1.21849 -7.17059,3.80929 -7.17059,3.80929 0,0 -0.53951,-0.31785 -0.82078,0.38488 -0.28098,0.70344 0.25813,1.61749 1.33573,1.42946 0,0 0.46923,0.37817 1.57028,0.0247 0,0 0.84377,0.46779 1.87484,-0.0476 0,0 0.72647,0.49177 1.78124,0.0935 0,0 0.58551,0.49213 2.0851,0 1.50015,-0.49212 2.17978,-0.98425 3.32796,-0.93733 1.14847,0.0466 3.25741,-0.23424 2.76518,-2.74179 -0.49209,-2.50754 -0.86678,-1.68733 -0.77308,-4.19488 0.0933,-2.50754 -0.0314,-15.53703 -0.0314,-15.53703 l 0.23234,-11.03489 c 0.39331,0.14429 1.21874,0.32914 2.43308,0.0311 l 0.23163,11.00384 c 0,0 -0.12471,13.0295 -0.031,15.53703 0.0934,2.50755 -0.28156,1.68734 -0.77336,4.19488 -0.49251,2.50755 1.61671,2.78836 2.76489,2.74179 1.14829,-0.0469 1.8281,0.44521 3.32797,0.93733 1.49969,0.49213 2.08548,0 2.08548,0 1.05445,0.39829 1.78117,-0.0935 1.78117,-0.0935 1.03082,0.51541 1.87466,0.0476 1.87466,0.0476 1.10103,0.35349 1.57022,-0.0247 1.57022,-0.0247 1.07809,0.18803 1.61678,-0.72602 1.33562,-1.42946 -0.28117,-0.70273 -0.82056,-0.38488 -0.82056,-0.38488 0,0 -6.23331,-2.5908 -7.17067,-3.80929 -0.93705,-1.2185 0.84338,-17.90382 0.84338,-17.90382 1.12487,-7.45208 1.19155,-14.99835 1.19155,-14.99835 l 0.10724,-2.34421 h -2.7e-4 c 0.64524,-10.72268 -1.0481,-20.71546 -1.0481,-20.71546 8.03169,7.82708 9.51124,19.89596 9.51124,19.89596 0,0 -0.91404,0.49212 -1.30034,3.02331 -0.38664,2.53082 0.98425,4.0774 1.40582,3.76096 0.42193,-0.31644 0.10548,-2.17946 0.3168,-2.9524 0.21061,-0.77364 0.91369,-0.4572 1.15993,1.40582 0.24589,1.86302 -0.70344,2.95275 -0.21131,3.55036 0.49247,0.5976 1.19556,-0.17604 1.19556,-0.17604 0.94862,0.17604 1.47602,-0.80856 1.47602,-0.80856 0.91405,-0.10513 1.23049,-1.44075 1.23049,-1.44075 0.77329,0 1.3709,-2.03905 0.49213,-4.45911" />
    <path
       id="path3404"
       style="fill:#f2caa3;fill-opacity:1;fill-rule:nonzero;stroke:none;stroke-width:0.03527778"
       d="m 128.58667,169.869 c -0.52309,0 -1.03021,-0.0727 -1.48868,-0.24236 v -1.31516 h 2.84014 v 1.41429 c -0.44856,0.0903 -0.90579,0.14323 -1.35146,0.14323" />
    <path
       id="path3406"
       style="fill:#ce9e6e;fill-opacity:1;fill-rule:nonzero;stroke:none;stroke-width:0.03527778"
       d="m 149.46473,203.38571 c 0.13124,-1.04811 0.0416,-2.12231 -0.40957,-3.0861 l 0.01,-0.002 c 0.49565,0.90875 0.62159,1.91734 0.54398,2.93828 -0.0716,0.93839 -0.14076,2.24508 -0.76482,3.01731 l -0.0261,-0.0233 c 0.48648,-0.83608 0.52952,-1.90676 0.64699,-2.84409" />
    <path
       id="path3408"
       style="fill:#ce9e6e;fill-opacity:1;fill-rule:nonzero;stroke:none;stroke-width:0.03527778"
       d="m 150.37419,199.80748 0.009,-7.9e-4 c 0.36971,1.01811 0.61172,1.9685 0.63006,3.06458 0.0155,0.90346 -0.0787,2.00765 -0.67556,2.7312 l -0.0261,-0.0229 c 0.98107,-1.73496 0.62653,-3.96945 0.0628,-5.77215" />
    <path
       id="path3410"
       style="fill:#ce9e6e;fill-opacity:1;fill-rule:nonzero;stroke:none;stroke-width:0.03527778"
       d="m 151.3214,199.24727 0.012,-0.005 c 0.90135,1.45239 1.05199,3.31329 0.35843,4.88068 l -0.0268,-0.0159 c 0.48154,-1.65276 0.47731,-3.30411 -0.34361,-4.85986" />
    <path
       id="path3412"
       style="fill:#ce9e6e;fill-opacity:1;fill-rule:nonzero;stroke:none;stroke-width:0.03527778"
       d="m 120.72058,174.52143 c 0,0 -0.44278,1.36878 -0.70281,3.14007 0,0 0.56208,-1.96814 0.70281,-3.14007" />
    <path
       id="path3414"
       style="fill:#ce9e6e;fill-opacity:1;fill-rule:nonzero;stroke:none;stroke-width:0.03527778"
       d="m 136.30771,174.52143 c 0,0 0.44316,1.36878 0.70326,3.14007 0,0 -0.56257,-1.96814 -0.70326,-3.14007" />
    <path
       id="path3416"
       style="fill:#ce9e6e;fill-opacity:1;fill-rule:nonzero;stroke:none;stroke-width:0.03527778"
       d="m 107.57117,203.38571 c -0.13116,-1.04811 -0.0416,-2.12231 0.41011,-3.0861 l -0.0101,-0.002 c -0.49579,0.90875 -0.62191,1.91734 -0.54391,2.93828 0.0717,0.93839 0.14044,2.24508 0.76468,3.01731 l 0.0262,-0.0233 c -0.48631,-0.8361 -0.52945,-1.90678 -0.647,-2.84411" />
    <path
       id="path3418"
       style="fill:#ce9e6e;fill-opacity:1;fill-rule:nonzero;stroke:none;stroke-width:0.03527778"
       d="m 106.66168,199.80748 -0.009,-7.9e-4 c -0.36929,1.01811 -0.61183,1.9685 -0.63003,3.06458 -0.0156,0.90346 0.0788,2.00765 0.6755,2.7312 l 0.0262,-0.0229 c -0.98104,-1.73496 -0.62632,-3.96945 -0.0627,-5.77215" />
    <path
       id="path3420"
       style="fill:#ce9e6e;fill-opacity:1;fill-rule:nonzero;stroke:none;stroke-width:0.03527778"
       d="m 105.71443,199.24727 -0.0121,-0.005 c -0.90138,1.45239 -1.05187,3.31329 -0.35828,4.88068 l 0.0271,-0.0159 c -0.48203,-1.6528 -0.47748,-3.30416 0.34329,-4.85991" />
    <path
       id="path3422"
       style="fill:#ce9e6e;fill-opacity:1;fill-rule:nonzero;stroke:none;stroke-width:0.03527778"
       d="m 120.71945,236.6015 c -0.4178,-0.0148 -0.99039,0.14216 -1.25374,0.49424 -0.52804,0.70626 -0.55601,2.23943 0.54846,2.42958 l 0.0138,-0.0282 c -0.89132,-0.35031 -0.99123,-1.49684 -0.52973,-2.23203 0.30868,-0.49107 1.02486,-0.54822 1.53321,-0.52105 0.41109,0.0226 0.62756,0.21907 0.95501,0.39582 l 0.003,-0.004 c -0.37871,-0.34749 -0.72969,-0.51541 -1.2699,-0.53481" />
    <path
       id="path3424"
       style="fill:#ce9e6e;fill-opacity:1;fill-rule:nonzero;stroke:none;stroke-width:0.03527778"
       d="m 117.2351,237.4277 c -0.43614,0.71438 0.15391,1.80764 0.95112,1.92194 l 0.0139,-0.0286 c -0.70982,-0.16545 -1.12462,-1.09643 -0.92604,-1.74625 0.28307,-0.92675 1.31589,-0.74754 2.00491,-0.59161 l 0.004,-0.007 c -0.76165,-0.32456 -1.57512,-0.32385 -2.04806,0.4512" />
    <path
       id="path3426"
       style="fill:#ce9e6e;fill-opacity:1;fill-rule:nonzero;stroke:none;stroke-width:0.03527778"
       d="m 115.50455,237.56387 c -0.36132,0.65652 -0.014,1.43263 0.62565,1.70886 l 0.0117,-0.0148 c -0.45572,-0.29986 -0.70489,-0.64346 -0.68972,-1.21108 0.022,-0.80751 0.93112,-1.36384 1.62966,-0.88865 l 0.004,-0.005 c -0.53771,-0.45438 -1.27247,-0.15169 -1.58158,0.41063" />
    <path
       id="path3428"
       style="fill:#ce9e6e;fill-opacity:1;fill-rule:nonzero;stroke:none;stroke-width:0.03527778"
       d="m 114.15175,237.75931 c -0.27605,0.51576 -0.0165,1.42134 0.56938,1.58856 l 0.0158,-0.0257 c -0.413,-0.24589 -0.66819,-0.73978 -0.6048,-1.22485 0.0861,-0.65581 0.69233,-0.98425 1.28076,-0.69285 l 0.004,-0.005 c -0.44002,-0.42192 -1.03008,-0.0797 -1.26503,0.35983" />
    <path
       id="path3430"
       style="fill:#ce9e6e;fill-opacity:1;fill-rule:nonzero;stroke:none;stroke-width:0.03527778"
       d="m 114.2271,237.42488 c -0.0841,-0.048 -0.13709,-0.0868 -0.23149,-0.10407 -0.10707,-0.0191 -0.26321,0.0145 -0.36862,0.0384 -0.19089,0.0434 -0.33143,0.27552 -0.38587,0.44591 l 0.0214,0.005 c 0.0443,-0.0882 0.10196,-0.1644 0.16644,-0.23989 0.10337,-0.12136 0.20768,-0.11112 0.3459,-0.14464 0.1615,-0.0392 0.28346,0.003 0.43988,0.0243 l 0.0124,-0.0247" />
    <path
       id="path3432"
       style="fill:#ce9e6e;fill-opacity:1;fill-rule:nonzero;stroke:none;stroke-width:0.03527778"
       d="m 120.90233,215.85958 c 0,0 0.79858,1.59385 3.65732,0.37535 0,0 -2.90767,0.75565 -3.65732,-0.37535" />
    <path
       id="path3434"
       style="fill:#ce9e6e;fill-opacity:1;fill-rule:nonzero;stroke:none;stroke-width:0.03527778"
       d="m 136.34323,236.6015 c 0.41797,-0.0148 0.99053,0.14216 1.25406,0.49424 0.52775,0.70626 0.55562,2.23943 -0.54892,2.42958 l -0.0138,-0.0282 c 0.89111,-0.35031 0.9913,-1.49684 0.52987,-2.23203 -0.30833,-0.49107 -1.02447,-0.54822 -1.53321,-0.52105 -0.41109,0.0226 -0.62717,0.21907 -0.95514,0.39582 l -0.003,-0.004 c 0.3787,-0.34749 0.72968,-0.51541 1.26986,-0.53481" />
    <path
       id="path3436"
       style="fill:#ce9e6e;fill-opacity:1;fill-rule:nonzero;stroke:none;stroke-width:0.03527778"
       d="m 139.82755,237.4277 c 0.43639,0.71438 -0.15346,1.80764 -0.95109,1.92194 l -0.0138,-0.0286 c 0.70944,-0.16545 1.1243,-1.09643 0.92604,-1.74625 -0.28293,-0.92675 -1.31586,-0.74754 -2.00484,-0.59161 l -0.005,-0.007 c 0.762,-0.32456 1.57551,-0.32385 2.04823,0.4512" />
    <path
       id="path3438"
       style="fill:#ce9e6e;fill-opacity:1;fill-rule:nonzero;stroke:none;stroke-width:0.03527778"
       d="m 141.55828,237.56387 c 0.36124,0.65652 0.0141,1.43263 -0.62548,1.70886 l -0.012,-0.0148 c 0.45579,-0.29986 0.70521,-0.64346 0.68968,-1.21108 -0.0219,-0.80751 -0.93098,-1.36384 -1.62948,-0.88865 l -0.005,-0.005 c 0.53834,-0.45438 1.27283,-0.15169 1.58186,0.41063" />
    <path
       id="path3440"
       style="fill:#ce9e6e;fill-opacity:1;fill-rule:nonzero;stroke:none;stroke-width:0.03527778"
       d="m 142.91083,237.75931 c 0.27622,0.51576 0.0166,1.42134 -0.56939,1.58856 l -0.0159,-0.0257 c 0.41311,-0.24589 0.66887,-0.73978 0.60537,-1.22485 -0.0864,-0.65581 -0.69286,-0.98425 -1.28094,-0.69285 l -0.004,-0.005 c 0.44062,-0.42192 1.03012,-0.0797 1.26507,0.35983" />
    <path
       id="path3442"
       style="fill:#ce9e6e;fill-opacity:1;fill-rule:nonzero;stroke:none;stroke-width:0.03527778"
       d="m 142.83569,237.42488 c 0.0843,-0.048 0.13723,-0.0868 0.23142,-0.10407 0.10759,-0.0191 0.26317,0.0145 0.36865,0.0384 0.19121,0.0434 0.33161,0.27552 0.38594,0.44591 l -0.0215,0.005 c -0.0444,-0.0882 -0.10195,-0.1644 -0.16651,-0.23989 -0.10337,-0.12136 -0.20743,-0.11112 -0.34572,-0.14464 -0.16158,-0.0392 -0.28364,0.003 -0.43992,0.0243 l -0.0124,-0.0247" />
    <path
       id="path3444"
       style="fill:#ce9e6e;fill-opacity:1;fill-rule:nonzero;stroke:none;stroke-width:0.03527778"
       d="m 136.16039,215.85958 c 0,0 -0.79858,1.59385 -3.65732,0.37535 0,0 2.90767,0.75565 3.65732,-0.37535" />
    <g
       id="g3446"
       transform="matrix(0.03527778,0,0,-0.03527778,101.6069,394.67169)">
      <g
         clip-path="url(#clipPath3452)"
         id="g3448">
        <path
           id="path3454"
           style="fill:#f1c69f;fill-opacity:1;fill-rule:nonzero;stroke:none"
           d="m 759.676,5614.05 h 14.4336 v 25.25 H 759.676 Z" />
      </g>
    </g>
    <path
       id="path3456"
       style="fill:#fcf1e6;fill-opacity:1;fill-rule:nonzero;stroke:none;stroke-width:0.03527778"
       d="m 137.95324,201.09865 c 0.001,-0.0579 0.002,-0.10901 0.003,-0.15381 -7.9e-4,0.0448 -0.001,0.0963 -0.002,0.15346 v 0 m 0.006,-0.37677 v 0 0 m 0,0 c 0,-2.6e-4 0,-2.6e-4 0,-2.6e-4 v 0 c 0,0 0,0 0,2.6e-4" />
    <path
       id="path3458"
       style="fill:#f3cfad;fill-opacity:1;fill-rule:nonzero;stroke:none;stroke-width:0.03527778"
       d="m 133.15599,203.27141 c 0.0471,-0.81845 0.0743,-1.28623 0.0743,-1.28623 l -2.8236,0.49212 c -0.67151,0.10831 -1.34648,0.15135 -1.99443,0.15135 -2.50609,0 -4.61394,-0.64347 -4.61394,-0.64347 0,0 0.0262,0.45156 0.0719,1.2446 -1.34264,-0.77364 -2.97505,-1.57092 -4.76236,-2.14313 l -0.0449,-1.36595 v 0 c -0.0185,-0.23636 -0.0344,-0.47237 -0.0506,-0.70838 0.97497,0.0515 4.69854,0.22966 9.22211,0.22966 3.10292,0 6.58262,-0.084 9.80838,-0.35031 l -0.0836,1.82951 c 0,0 0,0 0,2.6e-4 v 0 0 c -2.6e-4,0.007 -0.001,0.0843 -0.003,0.22331 -7.9e-4,0.0448 -0.002,0.096 -0.003,0.15381 -1.80499,0.58138 -3.45038,1.39136 -4.79725,2.17276" />
    <path
       id="path3460"
       style="fill:#fcf1e6;fill-opacity:1;fill-rule:nonzero;stroke:none;stroke-width:0.03527778"
       d="m 137.24028,179.15234 c -0.0642,-0.46743 -0.11889,-0.83396 -0.15769,-1.0869 v 0 c 0.0388,0.25223 0.0935,0.61912 0.15769,1.0869" />
    <path
       id="path3462"
       style="fill:#f3cfad;fill-opacity:1;fill-rule:nonzero;stroke:none;stroke-width:0.03527778"
       d="m 129.0668,190.46346 c -4.54243,0 -8.57885,-0.508 -10.1764,-0.73872 0.20257,-5.54249 0.80726,-9.96527 1.0371,-11.48785 1.00185,-1.70956 1.05311,-5.13856 1.04923,-6.02121 0.78013,-0.38312 1.54908,-0.69674 2.26522,-0.94898 0.11137,0.98672 0.78303,3.24662 4.58668,3.54789 0.30522,0.024 0.59626,0.0356 0.87464,0.0356 3.6777,-2.7e-4 5.05932,-2.01401 5.11418,-3.57505 0.70817,0.25082 1.46773,0.56056 2.23862,0.93909 0.0198,1.12783 0.16041,3.94864 1.02652,5.85117 0.0388,0.25295 0.0935,0.61948 0.15769,1.08691 0.27375,1.99143 0.7246,5.81449 0.89993,10.42811 -2.87736,0.66323 -6.08474,0.883 -9.07341,0.883" />
    <path
       id="path3464"
       style="fill:#fcf1e6;fill-opacity:1;fill-rule:nonzero;stroke:none;stroke-width:0.03527778"
       d="m 105.22809,203.92016 c -5.3e-4,0 -10e-4,0 -0.002,0 4.3e-4,0 9.8e-4,0 0.002,0 m -0.006,-2.6e-4 c -5.3e-4,0 -10e-4,0 -0.002,0 5.3e-4,0 0.001,0 0.002,0 m -0.007,0 c -4.2e-4,0 -8.2e-4,-2.6e-4 -0.001,-2.6e-4 4.3e-4,0 8.2e-4,2.6e-4 0.001,2.6e-4 m -0.006,-2.6e-4 c -5.5e-4,0 -0.001,0 -0.002,0 7.2e-4,0 0.001,0 0.002,0 m -0.006,-2.7e-4 c -7.1e-4,0 -0.001,0 -0.002,-2.6e-4 5.6e-4,2.6e-4 0.001,2.6e-4 0.002,2.6e-4 m -0.007,-7.9e-4 c -5.5e-4,0 -0.001,0 -0.002,0 5.3e-4,0 10e-4,0 0.002,0 m -0.006,-2.7e-4 c -6.6e-4,0 -0.001,0 -0.002,-2.6e-4 6.6e-4,2.6e-4 0.002,2.6e-4 0.002,2.6e-4 m -0.006,-7.9e-4 c -8.4e-4,0 -0.002,0 -0.003,-2.7e-4 8.5e-4,2.7e-4 0.002,2.7e-4 0.003,2.7e-4 m -0.006,-7.9e-4 c -7.1e-4,0 -10e-4,-2.7e-4 -0.002,-2.7e-4 8.2e-4,0 0.001,2.7e-4 0.002,2.7e-4 m -0.005,-8e-4 c -8.4e-4,0 -0.002,-2.6e-4 -0.002,-2.6e-4 7.2e-4,0 10e-4,2.6e-4 0.002,2.6e-4 m -0.007,-0.001 c -7.1e-4,0 -0.002,-2.6e-4 -0.002,-2.6e-4 7.2e-4,0 0.001,2.6e-4 0.002,2.6e-4 m -0.005,-0.001 c -8.2e-4,0 -0.002,0 -0.003,-2.6e-4 9.8e-4,2.6e-4 0.002,2.6e-4 0.003,2.6e-4 m -0.005,-7.9e-4 c -0.002,-2.7e-4 -0.003,-8e-4 -0.005,-0.001 0.002,2.6e-4 0.003,7.9e-4 0.005,0.001 m -0.007,-0.001 c -9.8e-4,-2.7e-4 -0.002,-2.7e-4 -0.003,-8e-4 9.6e-4,2.7e-4 0.002,2.7e-4 0.003,8e-4 m -0.005,-0.001 c -0.001,-2.7e-4 -0.002,-2.7e-4 -0.003,-7.9e-4 10e-4,2.6e-4 0.002,2.6e-4 0.003,7.9e-4 m -0.005,-10e-4 c -0.002,-2.7e-4 -0.005,-0.001 -0.007,-0.001 0.002,2.6e-4 0.004,0.001 0.007,0.001 m -0.008,-0.002 c -0.001,-2.7e-4 -0.002,-8e-4 -0.004,-0.001 0.001,2.6e-4 0.002,7.9e-4 0.004,0.001 m -0.005,-0.001 c -0.004,-0.001 -0.008,-0.002 -0.0121,-0.004 0.004,0.001 0.008,0.002 0.0121,0.004 m -0.0125,-0.004 c -0.13918,-0.0388 -0.26982,-0.14499 -0.38378,-0.30692 0.11396,0.16193 0.2446,0.26776 0.38378,0.30692 m -0.38488,-0.30847 c -9.7e-4,-0.001 -0.002,-0.003 -0.003,-0.004 9.7e-4,0.001 0.002,0.002 0.003,0.004 m -0.004,-0.006 c -0.001,-0.002 -0.002,-0.003 -0.004,-0.005 0.001,0.002 0.002,0.004 0.004,0.005 m -0.006,-0.009 c -6.9e-4,-0.001 -0.001,-0.002 -0.002,-0.002 5.5e-4,8e-4 10e-4,10e-4 0.002,0.002 m -0.005,-0.007 c -4.2e-4,-10e-4 -9.7e-4,-10e-4 -0.001,-0.002 4.1e-4,8e-4 9.6e-4,0.002 0.001,0.002 m -0.006,-0.009 -1.4e-4,-2.6e-4 c 0,0 1.4e-4,0 1.4e-4,2.6e-4 m -0.005,-0.007 c -1.4e-4,-2.6e-4 -2.8e-4,-7.9e-4 -4.1e-4,-0.001 1.3e-4,2.7e-4 2.7e-4,8e-4 4.1e-4,0.001 m -0.39468,-1.89502 c 8.3e-4,-0.0328 0.002,-0.0663 0.003,-0.0998 0,0 0,0 0,2.6e-4 -0.001,0.0335 -0.002,0.0667 -0.003,0.0995" />
    <path
       id="path3466"
       style="fill:#f3cfad;fill-opacity:1;fill-rule:nonzero;stroke:none;stroke-width:0.03527778"
       d="m 108.6947,206.572 c -0.38848,0 -0.7542,-0.40252 -0.7542,-0.40252 -0.0777,0.0145 -0.15255,0.0212 -0.22462,0.0212 -0.8074,0 -1.25194,-0.82974 -1.25194,-0.82974 -0.91394,-0.10513 -1.23017,-1.44074 -1.23017,-1.44074 v 0 c -0.002,0 -0.004,0 -0.006,0 -5.3e-4,0 -0.001,0 -0.002,0 -10e-4,-2.7e-4 -0.003,-2.7e-4 -0.004,-2.7e-4 -5.3e-4,0 -0.001,0 -0.002,0 -0.002,0 -0.004,0 -0.005,0 -4.2e-4,0 -8.2e-4,-2.6e-4 -0.001,-2.6e-4 -10e-4,0 -0.003,0 -0.004,0 -5.5e-4,0 -0.001,0 -0.002,0 -10e-4,-2.7e-4 -0.003,-2.7e-4 -0.004,-2.7e-4 -7.1e-4,0 -0.001,0 -0.002,-2.6e-4 -0.002,0 -0.003,0 -0.005,-2.7e-4 -5.5e-4,0 -0.001,0 -0.002,0 -0.001,0 -0.002,-2.6e-4 -0.004,-2.6e-4 -5.3e-4,0 -0.001,0 -0.002,-2.6e-4 -0.001,0 -0.003,0 -0.004,-2.7e-4 -8.4e-4,0 -0.002,0 -0.003,-2.6e-4 -0.001,0 -0.003,-2.7e-4 -0.004,-2.7e-4 -7.1e-4,0 -10e-4,-2.6e-4 -0.002,-2.6e-4 -0.001,0 -0.002,-2.7e-4 -0.003,-2.7e-4 -8.4e-4,0 -0.002,-2.6e-4 -0.002,-2.6e-4 -0.002,-2.7e-4 -0.003,-2.7e-4 -0.005,-8e-4 -8.4e-4,0 -0.002,-2.6e-4 -0.002,-2.6e-4 -0.001,-2.6e-4 -0.002,-2.6e-4 -0.003,-7.9e-4 -8.2e-4,0 -0.002,0 -0.003,-2.7e-4 -8.2e-4,0 -0.002,-2.6e-4 -0.002,-2.6e-4 -0.002,-2.7e-4 -0.003,-8e-4 -0.005,-0.001 -9.5e-4,0 -0.002,-2.7e-4 -0.003,-2.7e-4 -9.8e-4,-2.6e-4 -0.002,-2.6e-4 -0.003,-7.9e-4 -7.1e-4,0 -0.002,-2.7e-4 -0.002,-2.7e-4 -0.001,-2.6e-4 -0.002,-2.6e-4 -0.003,-7.9e-4 -4.2e-4,0 -9.8e-4,-2.6e-4 -0.002,-2.6e-4 -0.002,-2.7e-4 -0.005,-0.001 -0.007,-0.001 -4.2e-4,-2.7e-4 -6.9e-4,-2.7e-4 -0.001,-2.7e-4 -10e-4,-2.6e-4 -0.002,-7.9e-4 -0.004,-0.001 -4.2e-4,0 -9.5e-4,0 -0.001,0 -0.004,-0.001 -0.008,-0.002 -0.0121,-0.004 -1.3e-4,0 -2.6e-4,0 -4.2e-4,0 -0.13918,-0.0392 -0.26982,-0.14499 -0.38378,-0.30691 -4.1e-4,-8e-4 -8.3e-4,-0.001 -0.001,-0.002 -9.7e-4,-0.001 -0.002,-0.002 -0.003,-0.004 -4.1e-4,-8e-4 -9.7e-4,-0.001 -0.002,-0.002 -0.001,-0.002 -0.002,-0.003 -0.004,-0.005 -9.7e-4,-0.001 -0.002,-0.002 -0.003,-0.004 -5.5e-4,-10e-4 -10e-4,-0.002 -0.002,-0.002 -9.7e-4,-0.001 -0.002,-0.003 -0.003,-0.004 -4.2e-4,-8e-4 -9.7e-4,-0.002 -0.001,-0.002 -0.002,-0.002 -0.003,-0.004 -0.004,-0.006 0,-2.7e-4 -1.4e-4,-2.7e-4 -1.4e-4,-2.7e-4 -0.002,-0.002 -0.003,-0.005 -0.005,-0.007 -1.4e-4,-2.6e-4 -2.7e-4,-7.9e-4 -4.1e-4,-0.001 -0.25177,-0.3877 -0.41493,-1.05939 -0.39426,-1.89406 8.3e-4,-0.0328 0.002,-0.066 0.003,-0.0995 0.0371,0.27622 0.13574,0.6932 0.40032,0.73977 0,0 0.009,0.0124 0.0241,0.0124 0.0202,0 0.0507,-0.0236 0.0813,-0.13582 0.0528,-0.19297 0.0664,-1.91735 0.88581,-2.93582 -0.90138,1.45239 -1.05186,3.31329 -0.35828,4.88068 l 0.0271,-0.0159 c -0.46963,-1.61043 -0.47735,-3.21945 0.2818,-4.73992 -0.16316,0.4311 -0.65814,1.8983 -0.3616,3.12773 0,0 0.0605,0.32738 0.27245,0.32738 0.0433,0 0.0926,-0.0138 0.14912,-0.0462 0,0 0.17568,-0.0705 0.24595,-0.54469 0.0704,-0.47484 0.31627,-2.0567 0.87892,-2.7245 0,0 -0.84378,2.19674 -0.43932,3.79659 0,0 0.10545,0.50941 0.47445,0.50941 0.3689,0 0.31627,-0.31644 0.33391,-0.72037 0.0175,-0.40464 0.19349,-2.4959 0.9138,-3.14607 0,0 -0.68503,2.30223 -0.31613,3.55 0,0 0.0336,0.38735 0.36463,0.38735 0.007,0 0.0145,-2.6e-4 0.0219,-7.9e-4 0.35165,-0.0177 0.36918,-0.14041 0.4221,-0.61489 0.0526,-0.47484 0.22832,-2.79471 1.21253,-2.88255 0,0 0.0149,-0.002 0.0402,-0.002 0.14277,0 0.62054,0.0508 0.68047,0.72214 0.0646,0.72707 0.0547,1.51306 0.38023,1.51306 0.0286,0 0.0601,-0.006 0.0943,-0.0187 0.42167,-0.1584 0.43917,-4.35892 -1.72269,-4.79813 0,0 1.17133,-14.52633 11.13166,-22.22817 -0.13561,0.54962 -0.29298,1.27635 -0.41204,2.08738 v 0 0 0 c -8.03162,7.82726 -9.51134,19.89614 -9.51134,19.89614 v 0 0 c 0,0 0.91404,0.49213 1.30058,3.02331 0.047,0.30692 0.0679,0.59937 0.068,0.87595 1.4e-4,1.80516 -0.89641,2.92593 -1.34468,2.92593 -0.049,0 -0.0929,-0.0134 -0.1294,-0.0409 -0.21015,-0.15769 -0.23714,-0.69885 -0.23728,-1.29787 0,-0.20461 0.003,-0.41557 0.003,-0.62053 0,-0.4004 -0.0118,-0.77752 -0.0819,-1.03399 -0.0701,-0.25683 -0.19427,-0.39335 -0.33803,-0.39335 -0.28938,0 -0.65772,0.55457 -0.82239,1.79917 -0.0292,0.22189 -0.0416,0.43285 -0.0415,0.63358 9.5e-4,1.12713 0.3973,1.92264 0.39631,2.47015 -1.4e-4,0.17251 -0.0398,0.32033 -0.14358,0.44662 -0.13727,0.16651 -0.29076,0.22648 -0.44097,0.22648 m -0.72347,-6.2745 c -0.4958,0.90875 -0.62192,1.91735 -0.54392,2.93829 0.0717,0.93838 0.14044,2.24507 0.76468,3.0173 l 0.0262,-0.0233 c -0.48631,-0.83608 -0.52945,-1.90676 -0.647,-2.8441 -0.13116,-1.0481 -0.0416,-2.12231 0.41011,-3.0861 l -0.0101,-0.002 m -1.3185,-0.49072 c -0.36929,1.01811 -0.61183,1.9685 -0.63003,3.06457 -0.0156,0.90347 0.0788,2.00766 0.6755,2.73121 l 0.0262,-0.0229 c -0.98104,-1.73496 -0.62632,-3.96945 -0.0627,-5.77215 l -0.009,-7.9e-4" />
    <path
       id="path3468"
       style="fill:#ca9260;fill-opacity:1;fill-rule:nonzero;stroke:none;stroke-width:0.03527778"
       d="m 120.01777,177.6615 c 0.11906,-0.81103 0.27644,-1.53775 0.41205,-2.08738 0.025,-0.0194 0.0505,-0.0392 0.0756,-0.0582 l -0.48768,2.14559 v 0" />
    <path
       id="path3470"
       style="fill:#ca9260;fill-opacity:1;fill-rule:nonzero;stroke:none;stroke-width:0.03527778"
       d="m 108.19199,206.25309 c -0.62424,-0.77224 -0.693,-2.07893 -0.76468,-3.01731 -0.078,-1.02094 0.0481,-2.02953 0.54391,-2.93829 l 0.0101,0.002 c -0.4517,0.96379 -0.54127,2.038 -0.41011,3.0861 0.11755,0.93733 0.16069,2.00801 0.647,2.8441 l -0.0262,0.0233" />
    <path
       id="path3472"
       style="fill:#ca9260;fill-opacity:1;fill-rule:nonzero;stroke:none;stroke-width:0.03527778"
       d="m 106.69819,205.60256 c -0.59669,-0.72355 -0.69109,-1.82774 -0.6755,-2.7312 0.0182,-1.09608 0.26074,-2.04647 0.63003,-3.06458 l 0.009,7.9e-4 c -0.5636,1.8027 -0.91832,4.03719 0.0627,5.77215 l -0.0262,0.0229" />
    <path
       id="path3474"
       style="fill:#ca9260;fill-opacity:1;fill-rule:nonzero;stroke:none;stroke-width:0.03527778"
       d="m 105.34402,204.12301 c -0.69359,-1.56739 -0.5431,-3.42829 0.35828,-4.88068 v 0 c 0,0 -0.0189,0.0444 -0.0494,0.12488 -0.75914,1.52048 -0.75143,3.1295 -0.2818,4.73993 l -0.0271,0.0159" />
    <path
       id="path3476"
       style="fill:#fcf1e6;fill-opacity:1;fill-rule:nonzero;stroke:none;stroke-width:0.03527778"
       d="m 143.91554,237.81752 c -0.001,-0.002 -0.002,-0.005 -0.003,-0.008 0.001,0.003 0.002,0.006 0.003,0.008 m -30.76854,0 c 10e-4,-0.002 0.002,-0.005 0.003,-0.008 -0.001,0.002 -0.002,0.005 -0.003,0.008 m 30.76501,-0.009 c -7.9e-4,-0.002 -0.002,-0.004 -0.003,-0.006 0.001,0.002 0.002,0.004 0.003,0.006 m -30.76127,0 c 8.2e-4,-0.002 0.002,-0.004 0.003,-0.006 -8.4e-4,0.002 -0.002,0.004 -0.003,0.006" />
    <path
       id="path3478"
       style="fill:#f3cfad;fill-opacity:1;fill-rule:nonzero;stroke:none;stroke-width:0.03527778"
       d="m 136.47553,239.53625 c -0.30893,0 -0.70732,-0.0547 -1.20714,-0.21872 -1.4333,-0.47025 -2.11751,-0.9405 -3.1775,-0.9405 -0.0492,0 -0.0995,0.001 -0.15046,0.003 -0.0695,0.003 -0.14224,0.005 -0.21788,0.005 -1.04937,0 -2.62322,-0.31115 -2.62033,-2.05317 2.5e-4,-0.2099 0.0236,-0.44026 0.0733,-0.69321 0.44084,-2.2479 0.78783,-1.82139 0.78769,-3.51578 0,-0.19579 -0.005,-0.41945 -0.0143,-0.6791 -0.0255,-0.68333 -0.0349,-2.14735 -0.0349,-3.91653 -1.4e-4,-4.7237 0.0659,-11.6205 0.0659,-11.6205 v 0 0 l -0.23164,-11.00385 0.0142,0.67205 c 0.46772,-0.37571 1.69253,-1.31657 3.39358,-2.30329 -0.32314,5.61234 -1.58612,27.73397 -1.48388,28.83852 0.11754,1.26542 -0.14055,1.49966 -0.6325,2.99967 -0.49241,1.50001 0.0937,1.87431 1.94469,1.99143 1.67442,0.10619 2.44778,1.01741 3.41256,1.01741 0.10199,0 0.20616,-0.0102 0.31365,-0.0328 0.82787,-0.17215 0.83069,-0.67486 0.77424,-0.92816 0.0289,0.0332 0.0557,0.0692 0.0797,0.1076 0.40923,0.65229 0.37677,1.62843 -0.25788,2.08492 -0.10018,0.061 -0.363,0.18627 -0.83107,0.18627 m -15.88837,0 c -0.46866,0 -0.73159,-0.12559 -0.83121,-0.18662 -0.63458,-0.4565 -0.66697,-1.43228 -0.25771,-2.08457 0.0112,-0.0176 0.0229,-0.0349 0.0351,-0.0515 -0.0413,0.26529 0.0145,0.71155 0.78493,0.87206 0.10763,0.0226 0.21167,0.0328 0.3138,0.0328 0.96463,0 1.73824,-0.91122 3.41228,-1.01741 1.85127,-0.11712 2.43695,-0.49142 1.94497,-1.99143 -0.49224,-1.50001 -0.75033,-1.73425 -0.63278,-2.99967 0.10237,-1.10702 -1.16706,-23.33519 -1.48636,-28.88015 1.69718,0.9779 2.93137,1.9177 3.43076,2.31634 l 0.0142,-0.67451 -0.23234,11.03489 v 0 c 1.5e-4,0.0187 0.0659,6.88446 0.066,11.60145 1.5e-4,1.77764 -0.009,3.24978 -0.0346,3.93558 -0.01,0.25965 -0.0143,0.48331 -0.0145,0.6791 -4.2e-4,1.69439 0.34643,1.26788 0.78755,3.51578 0.0496,0.25295 0.0729,0.48331 0.0732,0.69321 0.003,1.74202 -1.57082,2.05317 -2.62033,2.05317 -0.0757,0 -0.14856,-0.002 -0.21802,-0.005 -0.051,-0.002 -0.10114,-0.003 -0.15046,-0.003 -1.05971,0 -1.7442,0.47025 -3.1775,0.9405 -0.49996,0.16404 -0.89807,0.21872 -1.20703,0.21872 m 17.58692,-0.0631 c -0.2092,0 -0.44626,-0.031 -0.7052,-0.11501 0.66463,-0.46143 0.5775,-1.66158 0.12841,-2.26236 -0.007,-0.0102 -0.0152,-0.0201 -0.0233,-0.0296 0.4385,0.22508 1.01247,0.83644 1.4919,0.83644 0.0769,0 0.15134,-0.0155 0.22225,-0.0511 0.43356,-0.21696 0.29633,-0.58667 0.21061,-0.74507 0.12594,0.10936 0.22683,0.26141 0.28998,0.46849 0.19826,0.64982 -0.2166,1.5808 -0.92604,1.74625 l 0.0134,0.0279 c -0.16616,0.0621 -0.40605,0.12418 -0.70203,0.12418 m -19.28548,0 c -0.29587,0 -0.53576,-0.0621 -0.70195,-0.12418 l 0.0135,-0.0279 c -0.70983,-0.16545 -1.12462,-1.09643 -0.92605,-1.74625 0.052,-0.17039 0.1294,-0.30339 0.22532,-0.40605 -0.0791,0.17886 -0.14234,0.49072 0.24102,0.68263 0.0711,0.0356 0.14538,0.0511 0.22229,0.0511 0.50119,0 1.1056,-0.66816 1.55042,-0.86466 -0.0167,0.0187 -0.0325,0.0378 -0.0474,0.0579 -0.44937,0.60078 -0.53661,1.80093 0.12816,2.26236 -0.25894,0.084 -0.49593,0.11501 -0.70527,0.11501 m 21.24516,-0.007 c -0.27482,0 -0.59761,-0.0533 -0.94298,-0.21519 0.62583,-0.30833 1.01318,-1.20686 0.63677,-1.82316 -0.0889,-0.1457 -0.1898,-0.26423 -0.30022,-0.35807 0.57538,0.32279 0.89712,1.13277 1.36807,1.13277 0.0628,0 0.12842,-0.0145 0.19721,-0.0462 0.51752,-0.23919 0.22331,-0.76588 0.12312,-0.91899 0.2293,0.19297 0.38558,0.48048 0.39476,0.80963 0.0155,0.56762 -0.2339,0.91122 -0.68969,1.21108 l 0.012,0.0148 c 0.63959,-0.27623 0.98672,-1.05234 0.62548,-1.70886 -0.0293,-0.0536 -0.0624,-0.10477 -0.0991,-0.1531 0.30374,0.30268 0.53552,0.71049 0.88547,0.71049 0.0346,0 0.0702,-0.004 0.10725,-0.0123 0.34642,-0.0787 0.31185,-0.35842 0.25188,-0.5334 0.11783,0.1337 0.19932,0.31079 0.22719,0.52175 0.0635,0.48508 -0.19227,0.97896 -0.60537,1.22485 l 0.0159,0.0257 c 0.58597,-0.16721 0.84561,-1.07279 0.56939,-1.58855 -0.0639,-0.11995 -0.15417,-0.23249 -0.26106,-0.32456 0.36724,0.19509 0.42827,0.82056 0.75106,0.82056 0.0388,0 0.0815,-0.009 0.12877,-0.0289 0.24729,-0.10442 0.27763,-0.29527 0.25611,-0.44414 0.005,0.009 0.01,0.0183 0.0145,0.0275 l 0.0215,-0.005 c -0.0173,-0.0536 -0.0427,-0.1136 -0.0759,-0.17181 -0.0155,-0.0392 -0.0286,-0.0635 -0.0286,-0.0635 h 0.0586 c 0.0476,0.0607 0.0935,0.13547 0.13335,0.23249 0.001,0.002 0.002,0.004 0.003,0.006 0,2.6e-4 2.7e-4,2.6e-4 2.7e-4,7.9e-4 0.001,0.003 0.002,0.006 0.003,0.008 v 0 c 0.0501,0.12524 0.0741,0.25683 0.0737,0.3877 -0.001,0.5394 -0.41487,1.0668 -1.13136,1.0668 -0.0882,0 -0.18097,-0.008 -0.27799,-0.0251 0,0 -0.21802,0.17568 -0.7052,0.17568 -0.2279,0 -0.51435,-0.0384 -0.86501,-0.15099 0,0 -0.35066,0.19438 -0.87595,0.19438 m -23.20473,0 c -0.52529,0 -0.87602,-0.19438 -0.87602,-0.19438 -0.35056,0.11254 -0.63705,0.15099 -0.86487,0.15099 -0.48726,0 -0.70542,-0.17568 -0.70542,-0.17568 -0.097,0.0169 -0.18975,0.0251 -0.27781,0.0251 -0.71628,0 -1.1304,-0.5274 -1.1315,-1.0668 -2.9e-4,-0.13087 0.0237,-0.26246 0.0736,-0.3877 v 0 c 0.001,-0.002 0.002,-0.005 0.003,-0.008 1.4e-4,-2.6e-4 2.9e-4,-7.9e-4 4.3e-4,-0.001 8.2e-4,-0.002 0.002,-0.004 0.003,-0.006 0.0402,-0.097 0.0858,-0.1718 0.13395,-0.23248 h 0.0241 c 0,0 -0.25767,0.46849 0.18757,0.65652 0.0474,0.0198 0.09,0.0289 0.12883,0.0289 0.32576,0 0.38488,-0.63747 0.76165,-0.82586 0,0 -0.0112,0.0191 -0.026,0.0508 -0.0852,0.0826 -0.1578,0.17816 -0.21167,0.27905 -0.27605,0.51576 -0.0165,1.42134 0.56939,1.58856 l 0.0158,-0.0257 c -0.413,-0.24589 -0.6682,-0.73978 -0.60481,-1.22485 0.0231,-0.17674 0.0842,-0.32949 0.17241,-0.45297 -0.0425,0.17181 -0.0316,0.39547 0.27227,0.46461 0.0369,0.008 0.0726,0.0124 0.1071,0.0124 0.4057,0 0.65317,-0.54892 1.03752,-0.84526 -0.0848,0.0843 -0.1585,0.18133 -0.21692,0.28787 -0.36131,0.65652 -0.014,1.43263 0.62565,1.70885 l 0.0117,-0.0148 c -0.45572,-0.29986 -0.70488,-0.64347 -0.68971,-1.21109 0.008,-0.29033 0.13063,-0.54821 0.31679,-0.7373 -0.11631,0.20602 -0.28649,0.63676 0.16732,0.84666 0.069,0.0317 0.13448,0.0462 0.19731,0.0462 0.491,0 0.81982,-0.88054 1.44297,-1.17158 0,0 -0.003,0.004 -0.008,0.0116 -0.12333,0.0977 -0.2358,0.22508 -0.33348,0.38524 -0.37635,0.6163 0.0114,1.51482 0.63708,1.82315 -0.34548,0.16193 -0.66823,0.2152 -0.94315,0.2152" />
    <path
       id="path3480"
       style="fill:#ca9260;fill-opacity:1;fill-rule:nonzero;stroke:none;stroke-width:0.03527778"
       d="m 119.59387,239.3581 v 0 c -0.66477,-0.46143 -0.57753,-1.66158 -0.12816,-2.26236 0.0149,-0.0201 0.0307,-0.0392 0.0474,-0.0579 0.0269,-0.0116 0.0531,-0.0219 0.0787,-0.03 0,0 -0.0396,0.0836 -0.0584,0.20566 -0.0122,0.0166 -0.0239,0.0339 -0.0351,0.0515 -0.40926,0.65229 -0.37687,1.62807 0.2577,2.08457 v 0 c -0.0317,-0.0191 -0.0469,-0.0321 -0.0469,-0.0321 -0.0389,0.0148 -0.0773,0.0282 -0.11521,0.0406" />
    <path
       id="path3482"
       style="fill:#ca9260;fill-opacity:1;fill-rule:nonzero;stroke:none;stroke-width:0.03527778"
       d="m 118.18664,239.34893 c -0.16647,-0.0624 -0.25879,-0.12488 -0.25879,-0.12488 -0.0186,0.009 -0.0372,0.0183 -0.0557,0.0268 v 0 c -0.62565,-0.30833 -1.01343,-1.20686 -0.63708,-1.82316 0.0977,-0.16016 0.21015,-0.28751 0.33348,-0.38523 -0.0135,0.0201 -0.0423,0.0656 -0.0692,0.12629 -0.0959,0.10266 -0.17336,0.23566 -0.22532,0.40605 -0.19858,0.64982 0.21622,1.5808 0.92604,1.74625 l -0.0135,0.0279" />
    <path
       id="path3484"
       style="fill:#ca9260;fill-opacity:1;fill-rule:nonzero;stroke:none;stroke-width:0.03527778"
       d="m 116.1302,239.27273 c -0.6397,-0.27623 -0.98697,-1.05234 -0.62565,-1.70886 0.0584,-0.10653 0.13215,-0.20355 0.21692,-0.28786 0.0387,-0.03 0.079,-0.0572 0.12072,-0.0811 0,0 -0.0335,0.0441 -0.0732,0.11465 -0.18616,0.18909 -0.30893,0.44697 -0.3168,0.73731 -0.0152,0.56762 0.234,0.91122 0.68972,1.21108 l -0.0117,0.0148" />
    <path
       id="path3486"
       style="fill:#ca9260;fill-opacity:1;fill-rule:nonzero;stroke:none;stroke-width:0.03527778"
       d="m 114.72113,239.34787 c -0.58593,-0.16722 -0.84543,-1.0728 -0.56938,-1.58856 0.0539,-0.10089 0.1265,-0.1965 0.21167,-0.27905 -0.0185,0.0392 -0.0426,0.0977 -0.0588,0.16405 -0.0882,0.12347 -0.14926,0.27622 -0.17241,0.45296 -0.0634,0.48507 0.19181,0.97896 0.60481,1.22485 l -0.0158,0.0257" />
    <path
       id="path3488"
       style="fill:#ca9260;fill-opacity:1;fill-rule:nonzero;stroke:none;stroke-width:0.03527778"
       d="m 137.46888,239.3581 c -0.0378,-0.0123 -0.0762,-0.0257 -0.11501,-0.0406 0,0 -0.0155,0.013 -0.0473,0.0325 v 0 c 0.63465,-0.4565 0.66711,-1.43263 0.25788,-2.08492 -0.024,-0.0384 -0.0508,-0.0744 -0.0797,-0.1076 -0.0201,-0.091 -0.048,-0.14957 -0.048,-0.14957 0.0441,0.0138 0.09,0.0339 0.13723,0.0582 0.008,0.01 0.0159,0.0194 0.0233,0.0296 0.44909,0.60078 0.53623,1.80093 -0.12841,2.26236 v 0" />
    <path
       id="path3490"
       style="fill:#ca9260;fill-opacity:1;fill-rule:nonzero;stroke:none;stroke-width:0.03527778"
       d="m 138.87611,239.34893 v 0 l -0.0134,-0.0279 c 0.70943,-0.16545 1.1243,-1.09643 0.92604,-1.74625 -0.0631,-0.20708 -0.16404,-0.35913 -0.28999,-0.46849 -0.0257,-0.0469 -0.0466,-0.0755 -0.0466,-0.0755 0.0254,0.012 0.0505,0.025 0.0751,0.0388 0.11042,0.0938 0.21132,0.21237 0.30022,0.35807 0.37641,0.6163 -0.0109,1.51483 -0.63677,1.82316 v 0 c -0.0183,-0.009 -0.037,-0.0176 -0.0557,-0.0268 0,0 -0.0921,0.0624 -0.25894,0.12488" />
    <path
       id="path3492"
       style="fill:#ca9260;fill-opacity:1;fill-rule:nonzero;stroke:none;stroke-width:0.03527778"
       d="m 140.9328,239.27273 -0.012,-0.0148 c 0.45579,-0.29986 0.70521,-0.64346 0.68968,-1.21108 -0.009,-0.32914 -0.16545,-0.61666 -0.39475,-0.80963 -0.0177,-0.0268 -0.0293,-0.0423 -0.0293,-0.0423 0.0991,0.0568 0.18873,0.13229 0.27269,0.2159 0.0367,0.0483 0.0699,0.0995 0.0991,0.1531 0.36125,0.65652 0.0141,1.43263 -0.62547,1.70886" />
    <path
       id="path3494"
       style="fill:#ca9260;fill-opacity:1;fill-rule:nonzero;stroke:none;stroke-width:0.03527778"
       d="m 142.34144,239.34787 -0.0159,-0.0257 c 0.41311,-0.24589 0.66887,-0.73978 0.60537,-1.22485 -0.0279,-0.21096 -0.10936,-0.38805 -0.22719,-0.52176 -0.0293,-0.0854 -0.0646,-0.14605 -0.0646,-0.14605 0.004,0.002 0.007,0.004 0.0106,0.005 0.10689,0.0921 0.1972,0.20462 0.26106,0.32456 0.27622,0.51576 0.0166,1.42134 -0.56939,1.58856" />
    <path
       id="path3496"
       style="fill:#ca9260;fill-opacity:1;fill-rule:nonzero;stroke:none;stroke-width:0.03527778"
       d="m 143.80018,237.80976 c -0.005,-0.009 -0.01,-0.0187 -0.0145,-0.0275 -0.008,-0.0586 -0.0254,-0.11077 -0.0399,-0.14887 0.0332,0.0582 0.0586,0.11818 0.0759,0.1718 l -0.0215,0.005" />
    <path
       id="path3498"
       style="fill:#f0c198;fill-opacity:1;fill-rule:nonzero;stroke:none;stroke-width:0.03527778"
       d="m 129.76241,205.57469 -0.0142,-0.67204 c -0.47582,0.11677 -0.89185,0.15946 -1.24573,0.15946 -0.54917,0 -0.94823,-0.10266 -1.18734,-0.1905 v 0 l -0.0142,0.67451 c -0.49939,-0.39864 -1.73359,-1.33844 -3.43077,-2.31634 -0.0457,-0.79304 -0.0719,-1.2446 -0.0719,-1.2446 0,0 2.10785,0.64347 4.61395,0.64347 0.64795,0 1.32292,-0.043 1.99443,-0.15135 l 2.8236,-0.49212 c 0,0 -0.0271,0.46778 -0.0743,1.28623 -1.70106,0.98672 -2.92587,1.92758 -3.39358,2.30328" />
    <path
       id="path3500"
       style="fill:#fcf1e6;fill-opacity:1;fill-rule:nonzero;stroke:none;stroke-width:0.03527778"
       d="m 151.80788,203.92016 c 2.7e-4,0 10e-4,0 10e-4,0 -2.6e-4,0 -10e-4,0 -10e-4,0 m 0.006,-2.6e-4 c 2.7e-4,0 8e-4,0 10e-4,0 -7.9e-4,0 -10e-4,0 -10e-4,0 m 0.007,0 c 2.7e-4,0 8e-4,-2.6e-4 0.001,-2.6e-4 -2.6e-4,0 -7.9e-4,2.6e-4 -0.001,2.6e-4 m 0.006,-2.6e-4 c 8e-4,0 0.001,0 0.002,0 -7.9e-4,0 -0.001,0 -0.002,0 m 0.007,-2.7e-4 c 2.7e-4,0 2.7e-4,0 8e-4,0 -2.7e-4,0 -2.7e-4,0 -8e-4,0 m 0.006,-7.9e-4 c 2.7e-4,0 8e-4,0 0.001,0 -2.6e-4,0 -7.9e-4,0 -0.001,0 m 0.006,-2.7e-4 c 2.7e-4,0 8e-4,-2.6e-4 0.001,-2.6e-4 -2.6e-4,0 -7.9e-4,2.6e-4 -0.001,2.6e-4 m 0.007,-7.9e-4 h 2.7e-4 -2.7e-4 m 0.006,-7.9e-4 c 2.7e-4,0 2.7e-4,-2.7e-4 8e-4,-2.7e-4 -2.7e-4,0 -2.7e-4,2.7e-4 -8e-4,2.7e-4 m 0.0187,-0.003 h 2.7e-4 c 0,0 0,0 -2.7e-4,0 m -5.3474,-6.35635 c 0,0 0,-2.7e-4 0,-0.001 0,0.001 0,0.001 0,0.001 v 0 m 0,-0.002 c -0.0212,-0.16969 -1.52083,-11.98351 -9.37331,-19.75697 -0.001,-0.002 -0.002,-0.004 -0.003,-0.005 7.85601,7.77346 9.35496,19.59151 9.37648,19.76226" />
    <path
       id="path3502"
       style="fill:#f3cfad;fill-opacity:1;fill-rule:nonzero;stroke:none;stroke-width:0.03527778"
       d="m 148.34114,206.572 c -0.15029,0 -0.30375,-0.06 -0.44098,-0.22649 -0.10371,-0.12629 -0.14322,-0.27411 -0.14358,-0.44661 -0.001,-0.54751 0.39547,-1.34303 0.39617,-2.47015 2.7e-4,-0.20074 -0.012,-0.4117 -0.0413,-0.63359 -0.16475,-1.24496 -0.53305,-1.79917 -0.82232,-1.79917 -0.14358,0 -0.26776,0.13652 -0.33761,0.39335 -0.0706,0.25823 -0.0822,0.63782 -0.0822,1.04105 0,0.20037 0.003,0.4064 0.003,0.60642 0,0.60184 -0.0265,1.14688 -0.23742,1.30493 -0.0367,0.0275 -0.0801,0.0409 -0.12947,0.0409 -0.44803,0 -1.34444,-1.12078 -1.34444,-2.92594 0,-0.27658 0.0212,-0.56903 0.0681,-0.87595 0.3863,-2.53118 1.30034,-3.02331 1.30034,-3.02331 v 0 0 c 0,0 0,-2.6e-4 0,-0.001 v -2.6e-4 c -0.0215,-0.17075 -1.52047,-11.9888 -9.37648,-19.76226 -0.0765,-0.11747 -0.13017,-0.20214 -0.13017,-0.20214 l -0.0734,-0.32244 c -0.11652,-0.70026 -0.25598,-1.32009 -0.37518,-1.79317 9.99402,7.69444 11.16771,22.25605 11.16771,22.25605 -2.16147,0.43956 -2.14419,4.64008 -1.72226,4.79813 0.0342,0.0127 0.0656,0.019 0.0942,0.019 0.32526,0 0.31573,-0.78634 0.38029,-1.51307 0.0596,-0.67133 0.53763,-0.72213 0.68051,-0.72213 0.0254,0 0.0402,0.002 0.0402,0.002 0.98425,0.0878 1.15993,2.40771 1.2125,2.88255 0.0529,0.47413 0.0702,0.59725 0.42227,0.61489 0.007,2.6e-4 0.0148,7.9e-4 0.0219,7.9e-4 0.33091,-2.6e-4 0.36442,-0.38735 0.36442,-0.38735 0.36901,-1.24813 -0.31609,-3.55 -0.31609,-3.55 0.72037,0.64981 0.89606,2.74143 0.91405,3.14572 0.0169,0.40428 -0.0353,0.72072 0.33373,0.72072 0.369,0 0.47448,-0.50976 0.47448,-0.50976 0.40429,-1.5995 -0.43921,-3.7966 -0.43921,-3.7966 0.56198,0.66781 0.80857,2.25002 0.87877,2.72451 0.0702,0.47448 0.24589,0.54469 0.24589,0.54469 0.0564,0.0328 0.10583,0.0462 0.14922,0.0462 0.21167,0 0.27235,-0.32738 0.27235,-0.32738 0.24518,-1.01741 -0.0512,-2.19745 -0.2533,-2.81834 0.64418,1.44956 0.61419,2.97497 0.16934,4.50109 l 0.0268,0.0159 c 0.67027,-1.51518 0.55209,-3.30377 -0.27023,-4.73357 -0.0501,-0.13829 -0.0836,-0.21731 -0.0836,-0.21731 0.81915,1.01846 0.83326,2.74249 0.88582,2.93581 0.0307,0.11219 0.061,0.13582 0.0815,0.13582 0.0145,0 0.024,-0.0124 0.024,-0.0124 0.25012,-0.0445 0.35243,-0.42051 0.3937,-0.69462 0.0621,1.33879 -0.34396,2.29059 -0.84596,2.37702 h -2.6e-4 c -0.006,10e-4 -0.012,0.002 -0.018,0.002 -2.7e-4,0 -2.7e-4,2.6e-4 -8e-4,2.6e-4 -0.002,0 -0.004,2.7e-4 -0.006,7.9e-4 h -2.6e-4 c -0.002,0 -0.004,2.7e-4 -0.006,2.7e-4 -2.7e-4,0 -8e-4,2.6e-4 -0.001,2.6e-4 -0.002,0 -0.003,2.7e-4 -0.005,2.7e-4 -2.7e-4,0 -7.9e-4,0 -0.001,0 -0.002,2.6e-4 -0.004,2.6e-4 -0.006,7.9e-4 -2.7e-4,0 -2.7e-4,0 -8e-4,0 -0.002,0 -0.003,0 -0.005,2.7e-4 -7.9e-4,0 -0.001,0 -0.002,0 -0.001,0 -0.003,0 -0.005,0 -2.6e-4,0 -7.9e-4,2.6e-4 -10e-4,2.6e-4 -0.002,0 -0.004,0 -0.005,0 -7.9e-4,0 -10e-4,0 -10e-4,0 -0.002,0 -0.003,0 -0.005,2.7e-4 -2.6e-4,0 -10e-4,0 -10e-4,0 -0.002,0 -0.004,0 -0.006,0 v 0 c 0,0 -0.31644,1.33561 -1.23049,1.44074 0,0 -0.4445,0.82974 -1.2513,0.82974 -0.072,0 -0.14711,-0.007 -0.22472,-0.0212 0,0 -0.36583,0.40251 -0.75459,0.40251 m 0.72355,-6.2745 -0.01,0.002 c 0.4512,0.96379 0.54081,2.038 0.40957,3.0861 -0.11747,0.93733 -0.16051,2.00801 -0.64699,2.84409 l 0.0261,0.0233 c 0.62406,-0.77223 0.69321,-2.07892 0.76482,-3.0173 0.0776,-1.02094 -0.0483,-2.02954 -0.54398,-2.93829 m 1.31833,-0.49071 -0.009,7.9e-4 c 0.56374,1.8027 0.91828,4.03719 -0.0628,5.77215 l 0.0261,0.0229 c 0.5969,-0.72355 0.69109,-1.82774 0.67557,-2.73121 -0.0183,-1.09608 -0.26035,-2.04646 -0.63006,-3.06458" />
    <path
       id="path3504"
       style="fill:#ca9260;fill-opacity:1;fill-rule:nonzero;stroke:none;stroke-width:0.03527778"
       d="m 148.84384,206.25309 -0.0261,-0.0233 c 0.48649,-0.83609 0.52952,-1.90677 0.647,-2.8441 0.13123,-1.0481 0.0416,-2.12231 -0.40958,-3.0861 l 0.01,-0.002 c 0.49566,0.90876 0.6216,1.91735 0.54399,2.93829 -0.0716,0.93839 -0.14076,2.24508 -0.76482,3.01731" />
    <path
       id="path3506"
       style="fill:#ca9260;fill-opacity:1;fill-rule:nonzero;stroke:none;stroke-width:0.03527778"
       d="m 150.3375,205.60256 -0.0261,-0.0229 c 0.98108,-1.73496 0.62654,-3.96945 0.0628,-5.77215 l 0.009,-7.9e-4 c 0.36971,1.01812 0.61172,1.9685 0.63006,3.06458 0.0155,0.90346 -0.0787,2.00766 -0.67556,2.7312" />
    <path
       id="path3508"
       style="fill:#ca9260;fill-opacity:1;fill-rule:nonzero;stroke:none;stroke-width:0.03527778"
       d="m 151.69182,204.12301 -0.0268,-0.0159 c 0.44485,-1.52611 0.47484,-3.05152 -0.16933,-4.50109 -0.0268,-0.0825 -0.0522,-0.15522 -0.0741,-0.21661 0.82232,1.42981 0.9405,3.2184 0.27023,4.73358" />
    <path
       id="path3510"
       style="fill:#ca9260;fill-opacity:1;fill-rule:nonzero;stroke:none;stroke-width:0.03527778"
       d="m 136.94924,177.26886 -0.41445,-1.82315 c 0.0129,0.01 0.0265,0.0201 0.0393,0.03 0.11921,0.47307 0.25866,1.09291 0.37518,1.79317" />
    <path
       id="path3512"
       style="fill:#e7f6ec;fill-opacity:1;fill-rule:nonzero;stroke:none;stroke-width:0.03527778"
       d="m 137.65832,179.32591 c -1.96825,-1.84009 -1.85734,-7.42879 -1.85734,-7.42879 l -1.86242,-0.83503 c 0.2588,2.99226 -2.34223,3.9624 -4.67293,4.12045 h -1.49585 c -2.33052,-0.15805 -4.93158,-1.12819 -4.67293,-4.12045 l -1.86242,0.83503 c 0,0 0.11134,5.5887 -1.85716,7.42879 0,0 -0.79901,4.8267 -0.76387,9.83791 0,0 3.51786,0.89359 9.32907,0.83856 v 0.003 h 1.46441 v -0.001 c 5.62377,0.0208 9.0152,-0.84067 9.0152,-0.84067 0.0353,-5.01121 -0.76376,-9.83792 -0.76376,-9.83792" />
    <path
       id="path3514"
       style="fill:#fab5d1;fill-opacity:1;fill-rule:nonzero;stroke:none;stroke-width:0.03527778"
       d="m 128.71621,199.59652 h -0.39659 c 0,0 -4.78829,-0.0614 -9.46739,-0.35877 l 0.0878,1.37795 c 0,0 5.51561,2.1971 8.32929,4.49932 0,0 0.86223,0.16546 1.24877,0.15276 0.38625,0.0127 1.24851,-0.15276 1.24851,-0.15276 2.81393,-2.30222 8.32919,-4.49932 8.32919,-4.49932 l 0.0878,-1.37795 c -4.6791,0.29739 -9.46739,0.35877 -9.46739,0.35877" />
    <path
       id="path3516"
       style="fill:#3c3c30;fill-opacity:1;fill-rule:nonzero;stroke:none;stroke-width:0.03527778"
       d="m 110.14469,144.41291 c 0,0 -2.14175,-0.9017 -5.69269,3.60785 -3.55121,4.50921 -2.14216,13.58371 -1.57855,15.9512 0,0 0.73326,3.49497 -0.33789,4.84752 l 0.61984,0.50624 c 0,0 1.07101,-1.46473 0.90179,-3.26778 0,0 0.6762,3.66324 2.87457,4.84716 l 1.48347,-0.50729 c 0,0 -1.70875,-2.24049 -1.75108,-5.11528 0,0 1.14144,3.29706 2.9169,4.90361 l 2.62104,-1.05692 c 0,0 -1.1417,-1.26788 -1.77546,-3.42371 0,0 1.23112,2.40912 2.58134,3.00108 l 2.53764,-1.43756 c 0,0 -1.94303,-1.9237 -2.53764,-4.21676 0,0 0.93525,2.48391 2.53764,3.41383 l 0.37648,-0.29598 c 0,0 -2.61412,-2.70545 -1.64535,-9.55393 0.96915,-6.84847 -4.13205,-12.20328 -4.13205,-12.20328" />
    <path
       id="path3518"
       style="fill:#3c3c30;fill-opacity:1;fill-rule:nonzero;stroke:none;stroke-width:0.03527778"
       d="m 103.56206,163.15564 c -0.0444,-0.36442 -0.10087,-0.74542 -0.17322,-1.1483 0,0 0.0468,0.45085 0.17322,1.1483" />
    <path
       id="path3520"
       style="fill:#27251e;fill-opacity:1;fill-rule:nonzero;stroke:none;stroke-width:0.03527778"
       d="m 106.93176,170.9051 c -2.19837,-1.18392 -2.87457,-4.84716 -2.87457,-4.84716 v 0 0 c 0.0123,0.13017 0.018,0.25859 0.0182,0.38488 0.002,1.62207 -0.91998,2.8829 -0.91998,2.8829 l -0.335,-0.2734 c 0.46302,-0.78352 1.14887,-2.56682 0.74166,-5.89668 0.32976,1.82104 1.20179,5.33329 3.20118,6.9603 0,0 -3.7495,-7.63975 -1.54644,-13.26374 0,0 0.79651,8.29522 4.0772,11.95141 l 1.1249,-0.6096 c 0,0 -3.37439,-7.59248 -3.18671,-11.81065 0,0 1.0312,4.68665 3.23398,7.26475 0,0 -5.35671,-8.18197 -3.05967,-18.50143 0.60526,-0.39758 1.11954,-0.60783 1.53349,-0.71261 l -5.3e-4,0.002 c -0.24229,0.0614 -0.51873,0.15911 -0.82766,0.30868 -0.16538,0.49671 -2.31856,7.31697 1.69799,14.357 0,0 1.44378,2.84621 4.72296,4.20511 0.55121,1.99567 1.38934,2.86314 1.38934,2.86314 l -0.37648,0.29599 c -1.60239,-0.92993 -2.53764,-3.41384 -2.53764,-3.41384 v 0 0 c 0.59461,2.29306 2.53764,4.21676 2.53764,4.21676 l -2.53764,1.43757 c -1.35022,-0.59195 -2.58134,-3.00107 -2.58134,-3.00107 v 0 0 c 0.63376,2.15583 1.77546,3.42371 1.77546,3.42371 l -2.62104,1.05692 c -1.77546,-1.60655 -2.9169,-4.90361 -2.9169,-4.90361 v 0 0 c 0.0423,2.87479 1.75108,5.11528 1.75108,5.11528 l -1.48347,0.50729" />
    <path
       id="path3522"
       style="fill:#3c3c30;fill-opacity:1;fill-rule:nonzero;stroke:none;stroke-width:0.03527778"
       d="m 114.53441,163.30768 c -5.3e-4,-2.6e-4 -10e-4,-7.9e-4 -0.002,-7.9e-4 -0.0679,-0.24588 -0.13131,-0.50835 -0.18835,-0.78881 2.5e-4,2.6e-4 9.5e-4,7.9e-4 0.001,7.9e-4 0.0572,0.28046 0.12083,0.54328 0.18877,0.78882" />
    <path
       id="path3524"
       style="fill:#12110f;fill-opacity:1;fill-rule:nonzero;stroke:none;stroke-width:0.03527778"
       d="m 114.53275,163.30698 c -3.27918,-1.3589 -4.72296,-4.20511 -4.72296,-4.20511 -4.01655,-7.04004 -1.86337,-13.86029 -1.69799,-14.357 0.30893,-0.14958 0.58537,-0.2473 0.82766,-0.30868 -0.33874,1.44568 -0.4946,2.92135 -0.49555,4.38079 -0.004,5.47829 2.17727,10.70892 5.08289,13.1124 l 2.9e-4,2.6e-4 c 0.0128,0.0106 0.0256,0.0212 0.0384,0.0317 0.001,8e-4 0.002,0.002 0.004,0.003 0.006,0.005 0.0131,0.0106 0.0194,0.0159 0.002,0.001 0.004,0.003 0.006,0.005 0.003,0.003 0.006,0.005 0.01,0.008 0.003,0.003 0.007,0.006 0.0101,0.008 0.003,0.003 0.008,0.006 0.011,0.009 0.004,0.003 0.007,0.006 0.0112,0.009 0.002,0.001 0.005,0.004 0.007,0.005 0.005,0.005 0.0106,0.009 0.0161,0.013 0.002,0.001 0.003,0.002 0.005,0.004 0.005,0.004 0.01,0.007 0.0142,0.0113 0.001,0.001 0.003,0.002 0.004,0.003 0.006,0.005 0.0118,0.01 0.0181,0.0141 0.001,0.001 0.002,0.001 0.003,0.002 0.006,0.005 0.0113,0.009 0.0171,0.0134 8.5e-4,8e-4 0.001,0.001 0.002,0.002 0.007,0.005 0.0128,0.01 0.0192,0.0145 8.2e-4,8e-4 10e-4,0.001 0.002,0.002 0.0134,0.0102 0.0266,0.0204 0.04,0.0303 l 4.3e-4,2.7e-4 c 0.18397,0.1397 0.37013,0.26776 0.55922,0.38382 0.057,0.28046 0.12044,0.54293 0.18835,0.78881" />
    <path
       id="path3526"
       style="fill:#3c3c30;fill-opacity:1;fill-rule:nonzero;stroke:none;stroke-width:0.03527778"
       d="m 148.39123,144.41291 c 0,0 2.14171,-0.9017 5.69242,3.60785 3.55106,4.50921 2.14242,13.58371 1.57868,15.9512 0,0 -0.73307,3.49497 0.33796,4.84752 l -0.61983,0.50624 c 0,0 -1.07103,-1.46473 -0.9017,-3.26778 0,0 -0.67662,3.66324 -2.87478,4.84716 l -1.48343,-0.50729 c 0,0 1.70885,-2.24049 1.75119,-5.11528 0,0 -1.14124,3.29706 -2.91677,4.90361 l -2.62114,-1.05692 c 0,0 1.14124,-1.26788 1.77553,-3.42371 0,0 -1.23119,2.40912 -2.58163,3.00108 l -2.53753,-1.43756 c 0,0 1.9431,-1.9237 2.53753,-4.21676 0,0 -0.93521,2.48391 -2.53753,3.41383 l -0.37641,-0.29598 c 0,0 2.61443,-2.70545 1.645,-9.55393 -0.96873,-6.84847 4.13244,-12.20328 4.13244,-12.20328" />
    <path
       id="path3528"
       style="fill:#3c3c30;fill-opacity:1;fill-rule:nonzero;stroke:none;stroke-width:0.03527778"
       d="m 154.97371,163.15564 c 0.0444,-0.36442 0.10089,-0.74542 0.17321,-1.1483 0,0 -0.0469,0.45085 -0.17321,1.1483" />
    <path
       id="path3530"
       style="fill:#27251e;fill-opacity:1;fill-rule:nonzero;stroke:none;stroke-width:0.03527778"
       d="m 151.60398,170.9051 -1.48343,-0.50729 c 0,0 1.70885,-2.24049 1.75119,-5.11528 v 0 0 c 0,0 -1.14124,3.29706 -2.91677,4.90361 l -2.62114,-1.05692 c 0,0 1.14124,-1.26788 1.77553,-3.42371 v 0 0 c 0,0 -1.23119,2.40912 -2.58163,3.00108 l -2.53753,-1.43756 c 0,0 1.9431,-1.9237 2.53753,-4.21676 v 0 0 c 0,0 -0.93521,2.48391 -2.53753,3.41383 l -0.37641,-0.29598 c 0,0 0.8382,-0.86748 1.38924,-2.86314 3.27907,-1.35855 4.72334,-4.20511 4.72334,-4.20511 4.01637,-7.04004 1.86302,-13.86029 1.69792,-14.357 -0.27446,-0.133 -0.52317,-0.22472 -0.74507,-0.28681 -2.6e-4,-7.1e-4 -2.6e-4,-10e-4 -7.9e-4,-0.002 0.39899,0.11148 0.88512,0.31927 1.45062,0.69074 2.29729,10.31946 -3.05929,18.50143 -3.05929,18.50143 2.20275,-2.5781 3.23356,-7.26475 3.23356,-7.26475 0.18803,4.21816 -3.18664,11.81065 -3.18664,11.81065 l 1.12501,0.6096 c 3.28083,-3.65619 4.0774,-11.95141 4.0774,-11.95141 2.20275,5.62398 -1.54657,13.26374 -1.54657,13.26374 1.99919,-1.62701 2.87126,-5.13927 3.2011,-6.96031 -0.4071,3.32987 0.2787,5.11316 0.74119,5.89668 l -0.33443,0.27341 c 0,0 -0.92181,-1.26083 -0.92005,-2.8829 2.7e-4,-0.1263 0.006,-0.25471 0.0183,-0.38489 v 0 0 c 0,0 -0.67662,3.66325 -2.87478,4.84717" />
    <path
       id="path3532"
       style="fill:#3c3c30;fill-opacity:1;fill-rule:nonzero;stroke:none;stroke-width:0.03527778"
       d="m 144.00162,163.30768 c 0.15522,-0.56056 0.28751,-1.20967 0.37253,-1.95403 l 2.6e-4,-2.7e-4 c -0.0843,0.74401 -0.2166,1.39347 -0.37147,1.95369 -2.7e-4,2.6e-4 -8e-4,2.6e-4 -0.001,7.9e-4" />
    <path
       id="path3534"
       style="fill:#12110f;fill-opacity:1;fill-rule:nonzero;stroke:none;stroke-width:0.03527778"
       d="m 144.00303,163.30698 c 0.15487,-0.56021 0.28716,-1.20968 0.37147,-1.95369 2.16641,-1.51976 5.17737,-4.62773 5.84624,-10.40165 0.001,-0.008 0.002,-0.0173 0.003,-0.0257 0,-0.002 2.6e-4,-0.004 7.9e-4,-0.006 7.9e-4,-0.006 0.001,-0.0131 0.002,-0.0198 2.7e-4,-0.003 2.7e-4,-0.005 7.9e-4,-0.007 8e-4,-0.006 0.001,-0.0127 0.002,-0.0187 2.7e-4,-0.002 8e-4,-0.005 8e-4,-0.007 7.9e-4,-0.006 0.001,-0.0123 0.002,-0.0187 2.6e-4,-0.003 7.9e-4,-0.006 0.001,-0.009 7.9e-4,-0.006 10e-4,-0.0123 0.002,-0.0183 2.6e-4,-0.002 7.9e-4,-0.004 7.9e-4,-0.007 0.003,-0.0257 0.006,-0.0519 0.008,-0.0776 0,-0.002 2.7e-4,-0.003 2.7e-4,-0.005 7.9e-4,-0.007 0.001,-0.0145 0.002,-0.0215 2.6e-4,-0.001 2.6e-4,-0.003 7.9e-4,-0.004 7.9e-4,-0.008 0.001,-0.0152 0.002,-0.0229 0,-10e-4 2.6e-4,-0.002 2.6e-4,-0.003 8e-4,-0.008 0.002,-0.0169 0.002,-0.025 0,-3.4e-4 0,-7.1e-4 0,-0.001 0.004,-0.0356 0.007,-0.0709 0.0102,-0.10618 0,-0.001 0,-7.2e-4 0,-0.002 0.001,-0.008 0.002,-0.0159 0.002,-0.024 0,-10e-4 0,-0.002 0,-0.003 0.003,-0.0353 0.006,-0.0699 0.009,-0.10478 2.7e-4,-7.1e-4 2.7e-4,-0.001 2.7e-4,-0.002 7.9e-4,-0.008 0.001,-0.0166 0.002,-0.025 v -0.001 c 7.9e-4,-0.008 0.001,-0.0159 0.002,-0.0236 0,-10e-4 0,-0.003 0,-0.004 7.9e-4,-0.008 0.001,-0.0155 0.002,-0.0233 0,-7.1e-4 0,-0.002 0,-0.002 0.002,-0.0258 0.004,-0.0515 0.006,-0.0776 2.6e-4,-0.001 2.6e-4,-0.004 2.6e-4,-0.005 8e-4,-0.007 10e-4,-0.0134 10e-4,-0.0201 2.7e-4,-0.002 2.7e-4,-0.004 8e-4,-0.006 2.6e-4,-0.006 7.9e-4,-0.0123 0.001,-0.0187 0,-0.003 2.6e-4,-0.005 2.6e-4,-0.008 2.7e-4,-0.006 0.001,-0.0113 0.001,-0.0173 0,-0.002 2.7e-4,-0.006 2.7e-4,-0.008 2.6e-4,-0.005 7.9e-4,-0.0106 0.001,-0.0162 2.6e-4,-0.003 7.9e-4,-0.006 7.9e-4,-0.01 7.9e-4,-0.008 0.001,-0.0155 0.002,-0.0233 2.7e-4,-0.005 7.9e-4,-0.01 0.001,-0.0145 0,-0.003 2.6e-4,-0.006 2.6e-4,-0.009 2.7e-4,-0.006 8e-4,-0.0106 0.001,-0.0162 2.7e-4,-0.003 2.7e-4,-0.005 8e-4,-0.008 2.6e-4,-0.006 7.9e-4,-0.0113 0.001,-0.0166 0,-0.002 0,-0.004 2.6e-4,-0.006 2.7e-4,-0.006 8e-4,-0.0116 10e-4,-0.018 0,-0.002 2.7e-4,-0.003 2.7e-4,-0.005 0.0212,-0.34643 0.0314,-0.68721 0.0314,-1.022 0,-1.66546 -0.2533,-3.18628 -0.65476,-4.55012 0.2219,0.0621 0.47061,0.15381 0.74507,0.2868 0.1651,0.49672 2.31845,7.31697 -1.69792,14.357 0,0 -1.44427,2.84657 -4.72334,4.20511" />
    <path
       id="path3536"
       style="fill:#57594a;fill-opacity:1;fill-rule:nonzero;stroke:none;stroke-width:0.03527778"
       d="m 144.41542,136.2962 c 0,0 -7.04567,-9.55393 -24.35023,-3.69182 -17.30432,5.8621 -12.14674,27.83698 -4.60792,30.44789 l 26.61853,-0.44591 c 0,0 7.07425,-2.41123 8.14494,-11.65472 1.07068,-9.24419 -5.80532,-14.65544 -5.80532,-14.65544" />
    <path
       id="path3538"
       style="fill:#57594a;fill-opacity:1;fill-rule:nonzero;stroke:none;stroke-width:0.03527778"
       d="m 144.41542,136.2962 c 0,0 -7.04567,-9.55393 -24.35023,-3.69182 -17.30432,5.8621 -12.14674,27.83698 -4.60792,30.44789 l 26.61853,-0.44591 c 0,0 7.07425,-2.41123 8.14494,-11.65472 1.07068,-9.24419 -5.80532,-14.65544 -5.80532,-14.65544" />
    <path
       id="path3540"
       style="fill:#aeafa5;fill-opacity:1;fill-rule:nonzero;stroke:none;stroke-width:0.03527778"
       d="m 115.45727,163.05227 c -0.006,-0.002 -0.0132,-0.005 -0.0197,-0.007 0.007,0.002 0.0134,0.005 0.0197,0.007 l 26.61853,-0.44591 c 0,0 0.9966,-0.33972 2.29835,-1.25271 v 0 c -1.30175,0.91299 -2.29835,1.25271 -2.29835,1.25271 l -26.61853,0.44591" />
    <path
       id="path3542"
       style="fill:#11100e;fill-opacity:1;fill-rule:nonzero;stroke:none;stroke-width:0.03527778"
       d="m 144.3745,161.35329 v 0 c 2.16641,-1.51976 5.17737,-4.62773 5.84624,-10.40165 0.001,-0.008 0.002,-0.0173 0.003,-0.0257 -0.001,0.008 -0.002,0.0173 -0.003,0.0257 -0.66887,5.77392 -3.67983,8.88189 -5.84624,10.40165" />
    <path
       id="path3544"
       style="fill:#aeafa5;fill-opacity:1;fill-rule:nonzero;stroke:none;stroke-width:0.03527778"
       d="m 115.43332,163.0438 c -0.007,-0.002 -0.0134,-0.005 -0.0199,-0.007 0.007,0.002 0.0128,0.005 0.0199,0.007 m -0.0208,-0.007 c -0.007,-0.002 -0.013,-0.005 -0.0199,-0.007 0.007,0.002 0.013,0.005 0.0199,0.007 m -0.0223,-0.008 c -0.007,-0.002 -0.0138,-0.005 -0.0209,-0.007 0.007,0.002 0.0141,0.005 0.0209,0.007 m -0.0213,-0.008 c -0.007,-0.002 -0.0145,-0.005 -0.0217,-0.008 0.007,0.002 0.0144,0.005 0.0217,0.008 m -0.0218,-0.008 c -0.007,-0.002 -0.0147,-0.005 -0.0219,-0.008 0.007,0.003 0.0145,0.006 0.0219,0.008 m -0.0222,-0.008 c -0.33182,-0.12523 -0.65895,-0.28821 -0.97921,-0.48542 0,0 0,2.7e-4 0,0 0.3204,0.19721 0.64739,0.36019 0.97921,0.48542" />
    <path
       id="path3546"
       style="fill:#27251e;fill-opacity:1;fill-rule:nonzero;stroke:none;stroke-width:0.03527778"
       d="m 114.34564,162.51887 c -3e-4,0 -9.8e-4,-2.6e-4 -0.001,-7.9e-4 h -1.5e-4 c 5.3e-4,2.6e-4 9.6e-4,7.9e-4 0.001,7.9e-4 0,2.7e-4 0,0 0,0" />
    <path
       id="path3548"
       style="fill:#11100e;fill-opacity:1;fill-rule:nonzero;stroke:none;stroke-width:0.03527778"
       d="m 114.3444,162.51817 c -0.18909,-0.11607 -0.37525,-0.24413 -0.55922,-0.38383 0.18397,0.1397 0.37013,0.26741 0.55908,0.38383 h 1.4e-4 m -0.55965,-0.38418 c -0.0134,-0.01 -0.0266,-0.0201 -0.04,-0.0303 0.0134,0.0102 0.0266,0.0205 0.04,0.0303 m -0.042,-0.0321 c -0.006,-0.005 -0.0127,-0.01 -0.0192,-0.0145 0.006,0.005 0.0132,0.01 0.0192,0.0145 m -0.0212,-0.0162 c -0.006,-0.005 -0.0113,-0.009 -0.0171,-0.0134 0.005,0.004 0.0114,0.009 0.0171,0.0134 m -0.0201,-0.0159 c -0.006,-0.005 -0.012,-0.009 -0.0181,-0.0141 0.006,0.005 0.012,0.01 0.0181,0.0141 m -0.0225,-0.0173 c -0.005,-0.004 -0.01,-0.008 -0.0142,-0.0113 0.005,0.004 0.009,0.007 0.0142,0.0113 m -0.0192,-0.0152 c -0.005,-0.004 -0.0106,-0.008 -0.0161,-0.013 0.005,0.005 0.0106,0.008 0.0161,0.013 m -0.0231,-0.0183 c -0.004,-0.003 -0.007,-0.006 -0.0112,-0.009 0.004,0.003 0.007,0.006 0.0112,0.009 m -0.0222,-0.018 c -0.003,-0.002 -0.007,-0.005 -0.01,-0.008 0.004,0.003 0.007,0.006 0.01,0.008 m -0.0198,-0.0159 c -0.002,-0.002 -0.004,-0.004 -0.006,-0.005 0.002,0.002 0.004,0.003 0.006,0.005 m -0.0256,-0.0208 c -0.001,-0.001 -0.002,-0.002 -0.004,-0.003 0.001,0.001 0.002,0.002 0.004,0.003 m -0.0419,-0.0346 -2.9e-4,-2.6e-4 2.9e-4,2.6e-4" />
    <path
       id="path3550"
       style="fill:#11100e;fill-opacity:1;fill-rule:nonzero;stroke:none;stroke-width:0.03527778"
       d="m 150.22462,150.91989 c 7.9e-4,-0.006 0.001,-0.0134 0.002,-0.0198 -8e-4,0.007 -0.001,0.0134 -0.002,0.0198 m 0.003,-0.0272 c 7.9e-4,-0.006 0.001,-0.0127 0.002,-0.0187 -8e-4,0.006 -0.001,0.0123 -0.002,0.0187 m 0.003,-0.0254 c 7.9e-4,-0.006 0.001,-0.0127 0.002,-0.0187 -8e-4,0.006 -0.001,0.0123 -0.002,0.0187 m 0.003,-0.0272 c 7.9e-4,-0.006 0.001,-0.0123 0.002,-0.0183 -2.7e-4,0.006 -0.001,0.0123 -0.002,0.0183 m 0.002,-0.025 c 0.003,-0.0258 0.006,-0.0519 0.008,-0.0776 -0.003,0.0258 -0.006,0.0519 -0.008,0.0776 m 0.009,-0.0825 c 7.9e-4,-0.007 0.001,-0.0145 0.002,-0.0215 -8e-4,0.007 -0.001,0.0141 -0.002,0.0215 m 0.003,-0.0258 c 7.9e-4,-0.008 10e-4,-0.0152 0.002,-0.0229 -8e-4,0.008 -0.001,0.0152 -0.002,0.0229 m 0.002,-0.0257 c 7.9e-4,-0.008 0.002,-0.0169 0.002,-0.025 -8e-4,0.008 -0.002,0.0166 -0.002,0.025 m 0.002,-0.0261 c 0.004,-0.0353 0.007,-0.0709 0.0102,-0.10618 -0.003,0.0353 -0.007,0.0706 -0.0102,0.10618 m 0.0102,-0.10795 c 7.9e-4,-0.008 0.002,-0.0162 0.002,-0.024 -8e-4,0.008 -0.001,0.0159 -0.002,0.024 m 0.002,-0.0272 c 0.003,-0.0349 0.006,-0.0699 0.009,-0.10477 -0.003,0.0349 -0.006,0.0695 -0.009,0.10477 m 0.01,-0.10654 c 7.9e-4,-0.008 0.001,-0.0166 0.002,-0.025 -8e-4,0.008 -0.001,0.0169 -0.002,0.025 m 0.002,-0.0261 c 7.9e-4,-0.008 10e-4,-0.0155 0.002,-0.0236 -8e-4,0.008 -0.001,0.0155 -0.002,0.0236 m 0.002,-0.0275 c 7.9e-4,-0.008 0.001,-0.0155 0.002,-0.0233 -8e-4,0.008 -0.001,0.0155 -0.002,0.0233 m 0.002,-0.0257 c 0.002,-0.0261 0.004,-0.0515 0.006,-0.0776 -0.002,0.0261 -0.004,0.0519 -0.006,0.0776 m 0.006,-0.0825 c 7.9e-4,-0.007 0.001,-0.0134 0.001,-0.0201 -2.7e-4,0.007 -8e-4,0.0134 -0.001,0.0201 m 0.002,-0.0265 c 2.6e-4,-0.006 7.9e-4,-0.0127 10e-4,-0.0187 -8e-4,0.006 -10e-4,0.0123 -10e-4,0.0187 m 0.002,-0.0265 c 2.6e-4,-0.006 7.9e-4,-0.0109 0.001,-0.0173 -2.7e-4,0.006 -0.001,0.0116 -0.001,0.0173 m 0.002,-0.0254 c 2.6e-4,-0.005 7.9e-4,-0.0106 0.001,-0.0162 -2.7e-4,0.006 -8e-4,0.0109 -0.001,0.0162 m 0.002,-0.0257 c 7.9e-4,-0.008 10e-4,-0.0155 0.002,-0.0233 -8e-4,0.008 -0.001,0.0155 -0.002,0.0233 m 0.003,-0.0378 c 0,-0.003 2.6e-4,-0.006 2.6e-4,-0.009 0,0.003 -2.6e-4,0.006 -2.6e-4,0.009 m 0.001,-0.025 c 2.6e-4,-0.003 2.6e-4,-0.006 7.9e-4,-0.008 -2.7e-4,0.003 -2.7e-4,0.005 -7.9e-4,0.008 m 0.002,-0.0247 c 0,-0.002 0,-0.004 2.6e-4,-0.006 -2.6e-4,0.002 -2.6e-4,0.004 -2.6e-4,0.006 m 10e-4,-0.0243 c 0,-10e-4 2.6e-4,-0.004 2.6e-4,-0.005 0,0.002 -2.6e-4,0.004 -2.6e-4,0.005" />
    <path
       id="path3552"
       style="fill:#3a392e;fill-opacity:1;fill-rule:nonzero;stroke:none;stroke-width:0.03527778"
       d="m 115.45727,163.05227 c -0.006,-0.002 -0.0132,-0.005 -0.0197,-0.007 -0.002,-2.6e-4 -0.003,-10e-4 -0.004,-10e-4 -0.007,-0.002 -0.013,-0.005 -0.0199,-0.007 -4.2e-4,0 -6.6e-4,-2.6e-4 -9.5e-4,-2.6e-4 -0.007,-0.002 -0.013,-0.005 -0.0199,-0.007 -5.3e-4,-2.7e-4 -0.002,-8e-4 -0.002,-0.001 -0.007,-0.002 -0.014,-0.005 -0.0209,-0.007 l -4e-4,-2.7e-4 c -0.007,-0.002 -0.0144,-0.005 -0.0217,-0.008 -2.9e-4,-2.6e-4 1.4e-4,0 -1.4e-4,-2.6e-4 -0.007,-0.002 -0.0146,-0.005 -0.0219,-0.008 -2.9e-4,0 1.4e-4,0 -2.9e-4,0 -0.33182,-0.12524 -0.65881,-0.28822 -0.9792,-0.48543 -4.3e-4,0 -8.5e-4,-2.6e-4 -10e-4,-7.9e-4 v 0 c -0.18895,-0.11642 -0.37511,-0.24412 -0.55909,-0.38382 l -4.2e-4,-2.7e-4 c -0.0134,-0.01 -0.0266,-0.0201 -0.04,-0.0303 -8.2e-4,-7.9e-4 -10e-4,-0.001 -0.002,-0.002 -0.006,-0.005 -0.0131,-0.01 -0.0191,-0.0145 -5.5e-4,-7.9e-4 -0.001,-0.001 -0.002,-0.002 -0.006,-0.004 -0.0116,-0.009 -0.0171,-0.0134 -9.5e-4,-7.9e-4 -0.002,-0.002 -0.003,-0.002 -0.006,-0.005 -0.0121,-0.009 -0.0181,-0.0141 -10e-4,-0.001 -0.003,-0.002 -0.004,-0.003 -0.005,-0.004 -0.01,-0.008 -0.0142,-0.0113 -0.002,-0.001 -0.003,-0.002 -0.005,-0.004 -0.005,-0.005 -0.0106,-0.008 -0.0161,-0.013 -0.002,-0.002 -0.005,-0.004 -0.007,-0.005 -0.004,-0.003 -0.007,-0.006 -0.0112,-0.009 -0.004,-0.003 -0.007,-0.006 -0.011,-0.009 -0.004,-0.002 -0.007,-0.005 -0.01,-0.008 -0.003,-0.002 -0.007,-0.005 -0.01,-0.008 -0.002,-0.002 -0.004,-0.003 -0.006,-0.005 -0.007,-0.005 -0.0128,-0.0106 -0.0194,-0.0159 -0.001,-10e-4 -0.002,-0.002 -0.003,-0.003 -0.013,-0.0106 -0.0255,-0.0208 -0.0384,-0.0318 l -2.9e-4,-2.6e-4 c -3.88684,-3.21532 -6.47535,-11.49219 -4.27144,-18.65041 -1.57,5.69384 0.17956,9.277 1.44857,9.27665 0.0958,0 0.18895,-0.0205 0.27768,-0.0621 2.20267,-1.03117 1.87441,-2.99967 1.87441,-2.99967 l -1.64028,0.74965 c 0,0 -0.37468,-7.73289 3.84348,-10.12331 0,0 -2.01538,2.76543 -1.59371,6.93667 0,0 2.06224,-1.17193 5.29608,-1.9685 0,0 0.4687,-5.67125 5.24937,-7.45208 0,0 -1.45313,2.67159 -1.3123,6.60824 0,0 2.14133,-0.31821 3.69563,-0.31821 0.42362,0 0.8038,0.0236 1.08479,0.0836 0,0 0.094,-4.59281 2.90601,-7.17056 0,0 -1.0312,2.67159 -0.46895,7.31132 0,0 0.0453,-7.1e-4 0.13092,-7.1e-4 0.55838,0 2.82621,0.0349 5.3057,0.56303 0,0 0.46938,-3.51473 -1.17118,-6.09247 0,0 2.95257,1.45309 3.5149,6.18666 0,0 3.65619,0.18733 6.32742,1.35925 0,0 0.0938,-4.96817 -3.79659,-7.12399 0,0 6.18701,0.18732 5.53085,10.21715 l -0.89041,-0.37465 c 0,0 0.14076,2.1089 1.7339,2.57739 0.0857,0.0254 0.17462,0.0377 0.26599,0.0377 1.59421,0 3.93489,-3.78989 1.50566,-10.21574 1.19733,2.2412 2.14771,5.18831 1.92934,8.74607 0,0.002 -2.6e-4,0.004 -2.6e-4,0.005 -2.7e-4,0.006 -8e-4,0.012 -0.001,0.018 -2.7e-4,0.002 -2.7e-4,0.004 -2.7e-4,0.006 -2.6e-4,0.005 -7.9e-4,0.0109 -0.001,0.0166 -2.6e-4,0.002 -2.6e-4,0.005 -7.9e-4,0.008 -2.7e-4,0.006 -8e-4,0.0106 -0.001,0.0162 0,0.003 -2.7e-4,0.006 -2.7e-4,0.009 -2.6e-4,0.005 -7.9e-4,0.01 -0.001,0.0145 -7.9e-4,0.008 -0.001,0.0155 -0.002,0.0233 0,0.003 -2.6e-4,0.007 -7.9e-4,0.01 -2.7e-4,0.006 -7.9e-4,0.0109 -10e-4,0.0162 0,0.003 -2.7e-4,0.006 -2.7e-4,0.008 -7.9e-4,0.006 -0.001,0.0113 -0.001,0.0173 0,0.002 -2.6e-4,0.005 -2.6e-4,0.008 -7.9e-4,0.006 -0.001,0.0127 -0.001,0.0187 -2.7e-4,0.002 -2.7e-4,0.004 -7.9e-4,0.006 -2.7e-4,0.007 -8e-4,0.0134 -0.001,0.0201 0,0.001 0,0.004 -2.7e-4,0.005 -0.002,0.0261 -0.004,0.0515 -0.006,0.0776 0,7.2e-4 0,0.002 0,0.002 -7.9e-4,0.008 -0.001,0.0155 -0.002,0.0233 0,0.001 0,0.002 0,0.004 -7.9e-4,0.008 -0.001,0.0152 -0.002,0.0236 0,3.5e-4 0,7.2e-4 0,0.001 -7.9e-4,0.008 -10e-4,0.0169 -0.002,0.025 0,7.2e-4 0,10e-4 -2.6e-4,0.002 -0.003,0.0349 -0.006,0.0699 -0.009,0.10478 0,0.001 0,0.002 0,0.003 -8e-4,0.008 -0.002,0.0162 -0.002,0.024 0,7.1e-4 0,10e-4 0,0.002 -0.003,0.0353 -0.007,0.0709 -0.0102,0.10618 0,3.5e-4 0,7.2e-4 0,0.001 -8e-4,0.008 -0.002,0.0169 -0.002,0.025 0,7.2e-4 -2.7e-4,0.002 -2.7e-4,0.003 -7.9e-4,0.008 -0.001,0.0148 -0.002,0.0229 -2.6e-4,0.001 -2.6e-4,0.003 -7.9e-4,0.004 -8e-4,0.007 -0.001,0.0141 -0.002,0.0215 0,0.002 -2.7e-4,0.003 -2.7e-4,0.005 -0.003,0.0257 -0.006,0.0519 -0.008,0.0776 0,0.002 -2.6e-4,0.005 -7.9e-4,0.007 -2.6e-4,0.006 -0.001,0.0123 -0.002,0.0183 -2.6e-4,0.003 -7.9e-4,0.006 -0.001,0.008 -7.9e-4,0.006 -0.001,0.0123 -0.002,0.0187 0,0.002 -2.6e-4,0.004 -7.9e-4,0.007 -8e-4,0.006 -0.001,0.0127 -0.002,0.0187 -2.7e-4,0.002 -2.7e-4,0.005 -8e-4,0.007 -7.9e-4,0.006 -10e-4,0.0138 -0.002,0.0198 -2.6e-4,0.002 -7.9e-4,0.004 -7.9e-4,0.006 -0.001,0.008 -0.002,0.0173 -0.003,0.0258 -0.66887,5.77392 -3.67983,8.88189 -5.84623,10.40166 v 0 l -2.7e-4,2.6e-4 c -1.30175,0.91299 -2.29834,1.25271 -2.29834,1.25271 l -26.61854,0.44591 m 26.61007,-2.1149 c 0.14781,0.0127 0.29104,0.019 0.42898,0.019 3.94088,0 3.78142,-4.99851 1.79528,-5.56612 -0.3817,-0.10901 -0.70167,-0.15346 -0.96943,-0.15346 -1.1871,0 -1.35573,0.87206 -1.35573,0.87206 v 2.60668 c -0.06,0.28152 -0.0882,0.56374 -0.0885,0.82268 -2.6e-4,0.0279 0.0346,0.0564 0.0621,0.0564 0.0106,0 0.0204,-0.005 0.0265,-0.0152 v 1.34832 0 c 0.0286,0.003 0.0572,0.006 0.0857,0.008 0.001,0 0.002,0 0.003,2.6e-4 0.004,2.6e-4 0.008,2.6e-4 0.012,7.9e-4 m -27.96628,-5.70075 c -0.26804,0 -0.58787,0.0444 -0.96947,0.15346 -1.98628,0.56762 -2.14545,5.56578 1.79561,5.56613 0.10611,0 0.21498,-0.004 0.32699,-0.0113 0.0666,-0.004 0.13409,-0.01 0.2027,-0.0173 v -1.34832 c 0.006,0.0106 0.0157,0.0152 0.0265,0.0152 0.0273,0 0.0619,-0.0286 0.0619,-0.0564 -5.3e-4,-0.25858 -0.0284,-0.54045 -0.0883,-0.82126 v -2.60809 0 c 0,0 -0.16894,-0.87207 -1.35583,-0.87207" />
    <path
       id="path3554"
       style="fill:#eac9a5;fill-opacity:1;fill-rule:nonzero;stroke:none;stroke-width:0.03527778"
       d="m 115.45727,156.1089 c 0,0 -0.25382,-1.31022 -2.3253,-0.71861 -2.07158,0.59196 -2.15593,6.00287 2.3253,5.53755 v -4.81894" />
    <path
       id="path3556"
       style="fill:#ce9e6e;fill-opacity:1;fill-rule:nonzero;stroke:none;stroke-width:0.03527778"
       d="m 114.18135,156.91923 c -0.35373,-0.13864 -0.7601,0.0635 -0.95952,0.35842 -0.27009,0.40005 -0.22187,0.88512 -0.18564,1.34479 l 0.0223,-0.007 c 0.0246,-0.36089 0.0374,-0.70555 0.2085,-1.03575 0.31118,-0.60184 0.89877,-0.36795 1.24396,-0.007 0.0489,0.0512 0.0944,0.10654 0.13878,0.16192 0.002,0.30198 -0.0499,0.58843 -0.20891,0.85619 -0.15339,0.25894 -0.53125,0.66922 -0.85316,0.69039 l -0.009,0.0265 c 0.38971,0.0808 0.81788,-0.33973 1.03149,-0.6096 0.10541,-0.13265 0.22874,-0.38065 0.27739,-0.62265 0.27492,0.45755 0.44813,0.98954 0.56553,1.49366 0.0132,0.0561 0.0925,0.0124 0.0925,-0.03 -0.002,-0.95815 -0.37937,-2.23203 -1.36426,-2.61903" />
    <path
       id="path3558"
       style="fill:#383123;fill-opacity:1;fill-rule:nonzero;stroke:none;stroke-width:0.03527778"
       d="m 115.25457,160.94513 c 0.0666,-0.004 0.13409,-0.01 0.2027,-0.0173 v -1.34832 0 1.34832 c -0.0686,0.007 -0.13613,0.013 -0.2027,0.0173" />
    <path
       id="path3560"
       style="fill:#e1ac7b;fill-opacity:1;fill-rule:nonzero;stroke:none;stroke-width:0.03527778"
       d="m 114.9335,160.95607 c -0.33295,0 -0.63623,-0.036 -0.91242,-0.10125 0.22546,-0.69638 0.35708,-1.35502 0.42171,-1.96638 0.0642,-0.0663 0.12083,-0.1323 0.16743,-0.19121 0.10541,-0.13264 0.22874,-0.38065 0.27739,-0.62265 0.27492,0.45755 0.44813,0.98954 0.56554,1.49366 0.001,0.004 0.003,0.008 0.004,0.0113 v 1.34831 c -0.0686,0.007 -0.13614,0.013 -0.20271,0.0173 -0.10996,0.007 -0.21689,0.0109 -0.32106,0.0109 m 0.52377,-2.23908 c -0.14055,-0.66075 -0.45749,-1.31762 -1.01008,-1.6637 -0.0762,-0.74154 -0.23703,-1.35607 -0.39426,-1.81363 0.0151,0 0.0303,-3.4e-4 0.0453,-3.4e-4 1.18702,0 1.359,0.8696 1.359,0.8696 v 2.60808 m -0.98403,-0.1845 c 0.0229,-0.34678 0.0245,-0.67698 0.0103,-0.98848 0.009,0.009 0.0185,0.0183 0.0274,0.0279 0.0489,0.0512 0.0944,0.10654 0.13878,0.16192 0.002,0.28046 -0.0427,0.54751 -0.17653,0.79869" />
    <path
       id="path3562"
       style="fill:#c78853;fill-opacity:1;fill-rule:nonzero;stroke:none;stroke-width:0.03527778"
       d="m 115.45727,159.57953 v 0 c -0.002,-0.003 -0.003,-0.007 -0.004,-0.0113 -0.1174,-0.50412 -0.29062,-1.03611 -0.56554,-1.49366 -0.0486,0.242 -0.17197,0.49001 -0.27738,0.62265 -0.0466,0.0589 -0.10323,0.12488 -0.16743,0.19121 0.0127,-0.12065 0.0227,-0.23919 0.0304,-0.35596 0.13381,-0.25118 0.17843,-0.51823 0.17653,-0.79869 -0.0444,-0.0554 -0.0898,-0.11077 -0.13879,-0.16192 -0.009,-0.009 -0.0182,-0.0187 -0.0274,-0.0279 -0.008,-0.16933 -0.0201,-0.33267 -0.0364,-0.49072 0.5526,0.34608 0.86953,1.00295 1.01008,1.6637 v 0 0.86255" />
    <path
       id="path3564"
       style="fill:#eac9a5;fill-opacity:1;fill-rule:nonzero;stroke:none;stroke-width:0.03527778"
       d="m 141.96644,156.1089 c 0,0 0.25365,-1.31022 2.32516,-0.71861 2.07151,0.59196 2.15618,6.00287 -2.32516,5.53755 v -4.81894" />
    <path
       id="path3566"
       style="fill:#ce9e6e;fill-opacity:1;fill-rule:nonzero;stroke:none;stroke-width:0.03527778"
       d="m 143.24209,156.91923 c 0.35383,-0.13864 0.75988,0.0635 0.9599,0.35842 0.26953,0.40005 0.22155,0.88512 0.18556,1.34479 l -0.0229,-0.007 c -0.0243,-0.36089 -0.037,-0.70555 -0.20778,-1.03575 -0.31115,-0.60184 -0.89923,-0.36795 -1.2446,-0.007 -0.0487,0.0512 -0.0942,0.10654 -0.13899,0.16192 -0.002,0.30198 0.0501,0.58843 0.2099,0.85619 0.1531,0.25894 0.53128,0.66922 0.85266,0.69039 l 0.009,0.0265 c -0.39052,0.0808 -0.81809,-0.33973 -1.03187,-0.6096 -0.10548,-0.13265 -0.22825,-0.38065 -0.27729,-0.62265 -0.27481,0.45755 -0.44802,0.98954 -0.5655,1.49366 -0.0127,0.0561 -0.0928,0.0124 -0.0924,-0.03 0.002,-0.95815 0.37924,-2.23203 1.36419,-2.61903" />
    <path
       id="path3568"
       style="fill:#383123;fill-opacity:1;fill-rule:nonzero;stroke:none;stroke-width:0.03527778"
       d="m 142.06734,160.93737 c -0.004,-2.7e-4 -0.008,-2.7e-4 -0.012,-7.9e-4 0.004,2.6e-4 0.008,2.6e-4 0.012,7.9e-4 m -0.0152,-10e-4 c -0.0286,-0.002 -0.0571,-0.005 -0.0857,-0.008 v 0 c 0.0286,0.003 0.0571,0.006 0.0857,0.008" />
    <path
       id="path3570"
       style="fill:#e1ac7b;fill-opacity:1;fill-rule:nonzero;stroke:none;stroke-width:0.03527778"
       d="m 142.48361,160.95571 c -0.13405,0 -0.27269,-0.006 -0.41627,-0.0183 -0.004,-2.6e-4 -0.008,-2.6e-4 -0.012,-7.9e-4 -0.001,-2.7e-4 -0.002,-2.7e-4 -0.003,-2.7e-4 -0.0286,-0.002 -0.0572,-0.005 -0.0857,-0.008 v -1.34831 c 0.002,-0.003 0.003,-0.007 0.004,-0.0113 0.11747,-0.50412 0.29069,-1.03611 0.5655,-1.49366 0.049,0.242 0.1718,0.49001 0.27728,0.62265 0.0385,0.0487 0.0836,0.10195 0.13441,0.15628 0.0212,0.63641 0.0907,1.32292 0.23072,2.04541 -0.21626,0.0367 -0.44732,0.0568 -0.69462,0.0568 m -0.51718,-2.24014 v -2.60667 c 0,0 0.17075,-0.87031 1.35714,-0.87031 0.006,0 0.012,0 0.018,3.5e-4 -0.11359,0.42721 -0.24624,1.03928 -0.32702,1.79105 -0.57609,0.33902 -0.90417,1.01036 -1.04811,1.68557 m 0.97438,-0.20143 c -0.12665,-0.24589 -0.16934,-0.50659 -0.16757,-0.78035 0.0448,-0.0554 0.0903,-0.11077 0.13899,-0.16192 0.0194,-0.0201 0.0392,-0.0395 0.0596,-0.0586 -0.0219,0.31432 -0.0335,0.64911 -0.031,1.00083" />
    <path
       id="path3572"
       style="fill:#c78853;fill-opacity:1;fill-rule:nonzero;stroke:none;stroke-width:0.03527778"
       d="m 141.96644,159.57953 v -0.86395 c 0.14393,-0.67522 0.47202,-1.34656 1.0481,-1.68558 -0.0166,0.15523 -0.0311,0.31644 -0.0427,0.48331 -0.0204,0.0191 -0.0402,0.0385 -0.0596,0.0586 -0.0487,0.0512 -0.0942,0.10654 -0.13899,0.16192 -0.002,0.27376 0.0409,0.53446 0.16757,0.78035 7.9e-4,0.11148 0.003,0.22472 0.007,0.33937 -0.0508,-0.0543 -0.0959,-0.1076 -0.13441,-0.15628 -0.10548,-0.13264 -0.22824,-0.38065 -0.27728,-0.62265 -0.27481,0.45755 -0.44803,0.98954 -0.5655,1.49366 -8e-4,0.004 -0.002,0.008 -0.004,0.0113" />
    <path
       id="path3574"
       style="fill:#f8dfc6;fill-opacity:1;fill-rule:nonzero;stroke:none;stroke-width:0.03527778"
       d="m 143.56982,147.36671 c -1.09256,-0.45049 -3.23004,-1.05374 -6.17926,-1.37724 -0.19367,-2.43981 -0.83855,-3.53483 -0.83855,-3.53483 0.21152,1.69051 -0.25354,3.42194 -0.25354,3.42194 -2.51905,-0.24412 -5.19247,-0.40569 -7.17409,-0.50447 -0.20352,-1.95651 -0.13917,-3.63679 -0.13917,-3.63679 -0.63458,1.39524 -0.59048,3.60151 -0.59048,3.60151 -1.41182,-0.0646 -5.2765,0.31362 -6.61349,0.60925 -0.10859,-3.22122 0.73586,-5.26733 0.73586,-5.26733 -1.22615,1.56457 -1.98713,5.56366 -1.98713,5.56366 v 3.5e-4 c -3.8633,0.97648 -6.5429,2.21438 -6.5429,2.21438 0,0 -0.3073,3.04377 0.66488,6.5525 0,0 0.71893,2.36749 0.29588,4.35433 -0.42263,1.9872 -0.12679,4.18501 3.46646,6.5525 3.59364,2.36749 8.17355,3.29776 9.62463,3.38208 0,0 0.62935,0.0607 1.22368,0 1.44586,-0.14817 6.03059,-1.01459 9.62409,-3.38208 3.5934,-2.36749 3.88938,-4.5653 3.46604,-6.5525 -0.42227,-1.98684 0.29634,-4.35433 0.29634,-4.35433 0.97225,-3.50873 0.92075,-7.64293 0.92075,-7.64293" />
    <path
       id="path3576"
       style="fill:#fccfca;fill-opacity:1;fill-rule:nonzero;stroke:none;stroke-width:0.03527778"
       d="m 139.65081,158.52119 c 0.0533,0.38453 -0.65229,0.7994 -1.57551,0.92746 -0.92428,0.12805 -1.71619,-0.079 -1.76925,-0.4625 -0.0538,-0.38452 0.652,-0.80045 1.57664,-0.92851 0.92251,-0.12841 1.7152,0.079 1.76812,0.46355" />
    <path
       id="path3578"
       style="fill:#fccfca;fill-opacity:1;fill-rule:nonzero;stroke:none;stroke-width:0.03527778"
       d="m 117.83866,158.52119 c -0.0528,0.38453 0.65321,0.7994 1.57579,0.92746 0.92424,0.12805 1.71637,-0.079 1.76968,-0.4625 0.0535,-0.38452 -0.6518,-0.80045 -1.57674,-0.92851 -0.92301,-0.12841 -1.71539,0.079 -1.76873,0.46355" />
    <path
       id="path3580"
       style="fill:#3c3c30;fill-opacity:1;fill-rule:nonzero;stroke:none;stroke-width:0.03527778"
       d="m 120.08625,152.13239 c 0,0 0.84613,-1.83903 2.12425,-1.51836 1.2791,0.32068 1.8011,2.44758 1.8011,2.44758 0,0 -1.52548,-3.27202 -3.92535,-0.92922" />
    <path
       id="path3582"
       style="fill:#3c3c30;fill-opacity:1;fill-rule:nonzero;stroke:none;stroke-width:0.03527778"
       d="m 136.95312,151.8798 c 0,0 -0.96432,-1.78117 -2.21944,-1.37724 -1.25564,0.40252 -1.63738,2.55905 -1.63738,2.55905 0,0 1.31011,-3.36445 3.85682,-1.18181" />
    <path
       id="path3584"
       style="fill:#522214;fill-opacity:1;fill-rule:nonzero;stroke:none;stroke-width:0.03527778"
       d="m 123.0941,155.85808 c -0.0875,0.94544 -0.49403,1.67886 -0.90773,1.64076 -0.41272,-0.0385 -0.67769,-0.83431 -0.5902,-1.77835 0.0868,-0.94438 0.49403,-1.67922 0.90745,-1.64077 0.41381,0.0388 0.67797,0.83467 0.59048,1.77836" />
    <path
       id="path3586"
       style="fill:#ffffff;fill-opacity:1;fill-rule:nonzero;stroke:none;stroke-width:0.03527778"
       d="m 122.30353,155.06327 c -0.0496,0.28363 -0.19061,0.49459 -0.31461,0.47237 -0.12471,-0.0219 -0.18355,-0.26847 -0.13395,-0.55104 0.0492,-0.28364 0.19113,-0.49566 0.31489,-0.47308 0.12361,0.0215 0.18492,0.26917 0.13367,0.55175" />
    <path
       id="path3588"
       style="fill:#522214;fill-opacity:1;fill-rule:nonzero;stroke:none;stroke-width:0.03527778"
       d="m 135.91923,155.56209 c 0.0255,0.94757 -0.28938,1.72544 -0.70527,1.73708 -0.4148,0.0113 -0.77269,-0.74789 -0.79792,-1.6958 -0.0268,-0.94827 0.28872,-1.72579 0.70323,-1.73673 0.41575,-0.0113 0.77378,0.74754 0.79996,1.69545" />
    <path
       id="path3590"
       style="fill:#ffffff;fill-opacity:1;fill-rule:nonzero;stroke:none;stroke-width:0.03527778"
       d="m 135.03894,154.86712 c -0.0159,0.28646 -0.12982,0.51365 -0.25562,0.5073 -0.12612,-0.007 -0.21526,-0.24624 -0.19942,-0.5327 0.0154,-0.28681 0.13024,-0.51435 0.2559,-0.50623 0.12608,0.006 0.21541,0.24412 0.19914,0.53163" />
    <path
       id="path3592"
       style="fill:#ce9e6e;fill-opacity:1;fill-rule:nonzero;stroke:none;stroke-width:0.03527778"
       d="m 127.54559,160.32354 c 0.36957,0.13088 0.78204,0.14887 1.16858,0.0621 -0.75107,-0.009 -1.55829,-0.23778 -1.72297,-1.08727 -0.11398,-0.58772 0.55989,-0.73765 0.98295,-0.76058 0.41783,-0.0219 0.88194,0.14146 1.2168,0.38452 l 0.007,-0.008 c -0.3259,-0.30656 -0.88057,-0.53693 -1.38769,-0.53128 0.0751,-0.12559 0.10061,-0.30162 0.12404,-0.42192 0.0852,-0.42616 -0.14676,-0.75671 -0.33144,-1.11513 l -0.002,0.002 c 0.14468,0.47907 0.3707,1.07703 0.0737,1.54375 -0.35168,0.0353 -0.66767,0.19509 -0.84917,0.5401 -0.18436,0.34925 -0.0213,0.75389 0.20493,1.05305 0.15984,0.15557 0.34216,0.27763 0.51512,0.33866" />
    <path
       id="path3594"
       style="fill:#141310;fill-opacity:1;fill-rule:nonzero;stroke:none;stroke-width:0.03527778"
       d="m 115.4457,139.66275 c 0,0 -3.58538,2.4257 -3.65566,9.80758 l 2.19703,-1.01318 -1.88076,0.59161 c 0,0 -0.21082,-5.41373 3.33939,-9.38601" />
    <path
       id="path3596"
       style="fill:#141310;fill-opacity:1;fill-rule:nonzero;stroke:none;stroke-width:0.03527778"
       d="m 143.56982,147.36671 1.43827,0.58032 c 0,0 0.28116,-5.85858 -2.99967,-7.78016 0,0 2.83563,1.64042 2.78871,7.499 l -1.22731,-0.29916" />
    <path
       id="path3598"
       style="fill:#ce9e6e;fill-opacity:1;fill-rule:nonzero;stroke:none;stroke-width:0.03527778"
       d="m 134.07085,161.16491 c -0.008,0.20426 0.02,0.40569 0.11921,0.59937 -1.59922,0.87877 -3.3576,1.35855 -5.15758,1.62666 -1.04592,0.15628 -2.10425,0.18203 -3.15888,0.11783 -0.90357,-0.0547 -2.09832,-0.15875 -2.79742,-0.8382 -0.0416,-0.0282 -0.0854,-0.0515 -0.12541,-0.0815 0.13271,0.19014 0.29947,0.35207 0.4917,0.49001 0.10749,0.11218 0.21318,0.22612 0.32247,0.33831 0.0868,0.0889 0.17734,0.17356 0.26459,0.26141 0.33513,0.47237 0.57767,1.05128 0.84913,1.52964 0.30731,0.54187 0.6773,1.02659 1.12931,1.45521 0.95056,0.9017 2.35504,0.89182 3.5468,0.63394 2.71886,-0.58773 3.38857,-3.35033 4.74002,-5.3654 0.15614,0.20638 0.34795,0.32809 0.5599,0.39018 -0.36834,-0.28082 -0.65084,-0.71544 -0.78384,-1.15747" />
    <path
       id="path3600"
       style="fill:#f57a8d;fill-opacity:1;fill-rule:nonzero;stroke:none;stroke-width:0.03527778"
       d="m 132.8138,164.44715 c -0.73173,1.44075 -1.99168,2.45146 -3.56055,2.794 -1.39598,0.3048 -2.6778,-0.10865 -3.61735,-1.16275 -0.5781,-0.6477 -0.89091,-1.61255 -1.43662,-2.31634 -0.0889,-0.12629 -0.18535,-0.24553 -0.30342,-0.36124 -0.0345,-0.0339 -0.0669,-0.0692 -0.0997,-0.10443 1.27469,0.64524 3.26983,0.54011 4.38905,0.42404 1.91823,-0.19932 4.37501,-0.67874 6.01969,-1.83268 -0.54984,0.7934 -0.95539,1.7018 -1.39114,2.5594" />
    <path
       id="path3602"
       style="fill:#f14852;fill-opacity:1;fill-rule:nonzero;stroke:none;stroke-width:0.03527778"
       d="m 126.17332,166.57299 c 0.86653,0.67663 1.93269,0.91864 3.07993,0.66816 0.92713,-0.20214 1.74251,-0.64311 2.4088,-1.26329 -1.71662,-0.99131 -4.26226,-0.90629 -5.48873,0.59513" />
    <path
       id="path3604"
       style="fill:#ffffff;fill-opacity:1;fill-rule:nonzero;stroke:none;stroke-width:0.03527778"
       d="m 132.28149,164.43128 c 0.31736,-0.29598 0.59845,-0.61842 0.8279,-0.97261 0.21389,-0.36936 0.37511,-0.762 0.46097,-1.17969 -1.6003,0.87454 -3.70003,1.26647 -5.38511,1.44145 -0.87366,0.0907 -2.27997,0.17286 -3.46163,-0.1016 0.71218,1.69051 2.35165,2.16817 4.19999,1.99884 1.26669,-0.11536 2.40288,-0.50518 3.35788,-1.18639" />
    <path
       id="path3606"
       style="fill:#f57a8d;fill-opacity:1;fill-rule:nonzero;stroke:none;stroke-width:0.03527778"
       d="m 128.83224,166.02548 -0.003,-0.0339 c -0.0678,-0.4265 -0.86264,-0.11289 -1.07417,-0.0321 -0.58981,0.22684 -0.15088,0.5715 0.28113,0.55069 0.21978,-0.0106 0.79855,-0.19332 0.7958,-0.48471" />
    <path
       id="path3608"
       style="fill:#f57a8d;fill-opacity:1;fill-rule:nonzero;stroke:none;stroke-width:0.03527778"
       d="m 127.1841,166.3518 -0.003,-0.0145 c -0.0507,-0.17674 -0.37112,-0.003 -0.45614,0.0423 -0.2377,0.1263 -0.0345,0.24977 0.14746,0.21837 0.0926,-0.0155 0.32755,-0.12312 0.31168,-0.24624" />
  </g>
</svg>
