<?xml version="1.0" encoding="UTF-8" standalone="no"?>
<svg
   xmlns:dc="http://purl.org/dc/elements/1.1/"
   xmlns:cc="http://creativecommons.org/ns#"
   xmlns:rdf="http://www.w3.org/1999/02/22-rdf-syntax-ns#"
   xmlns:svg="http://www.w3.org/2000/svg"
   xmlns="http://www.w3.org/2000/svg"
   id="svg5000"
   version="1.1"
   viewBox="0 0 19.990499 20.06741"
   height="20.06741mm"
   width="19.990499mm">
  <defs
     id="defs4994" />
  <metadata
     id="metadata4997">
    <rdf:RDF>
      <cc:Work
         rdf:about="">
        <dc:format>image/svg+xml</dc:format>
        <dc:type
           rdf:resource="http://purl.org/dc/dcmitype/StillImage" />
        <dc:title></dc:title>
      </cc:Work>
    </rdf:RDF>
  </metadata>
  <g
     transform="translate(-126.83213,-178.8651)"
     id="layer1">
    <path
       id="path492"
       style="fill:#cceef7;fill-opacity:1;fill-rule:nonzero;stroke:none;stroke-width:0.03527778"
       d="m 135.99927,182.88113 c 1.1086,0 2.00752,-0.89853 2.00752,-2.00801 0,-1.10878 -0.89892,-2.00802 -2.00752,-2.00802 -1.10906,0 -2.00808,0.89924 -2.00808,2.00802 0,1.10948 0.89902,2.00801 2.00808,2.00801" />
    <path
       id="path534"
       style="fill:#cceef7;fill-opacity:1;fill-rule:nonzero;stroke:none;stroke-width:0.03527778"
       d="m 131.55783,186.95395 c 0.9047,0 1.63739,-0.73378 1.63739,-1.6383 0,-0.90558 -0.73269,-1.6383 -1.63739,-1.6383 -0.90537,0 -1.63847,0.73272 -1.63847,1.6383 0,0.90452 0.7331,1.6383 1.63847,1.6383" />
    <path
       id="path536"
       style="fill:#cceef7;fill-opacity:1;fill-rule:nonzero;stroke:none;stroke-width:0.03527778"
       d="m 135.99927,187.2979 c 1.09485,0 1.983,-0.88758 1.983,-1.98225 0,-1.09503 -0.88815,-1.98403 -1.983,-1.98403 -1.09513,0 -1.983,0.889 -1.983,1.98403 0,1.09467 0.88787,1.98225 1.983,1.98225" />
    <path
       id="path538"
       style="fill:#cceef7;fill-opacity:1;fill-rule:nonzero;stroke:none;stroke-width:0.03527778"
       d="m 140.4411,187.61823 c 1.27151,0 2.30226,-1.03082 2.30226,-2.30258 0,-1.27283 -1.03075,-2.304 -2.30226,-2.304 -1.27237,0 -2.3034,1.03117 -2.3034,2.304 0,1.27176 1.03103,2.30258 2.3034,2.30258" />
    <path
       id="path576"
       style="fill:#cceef7;fill-opacity:1;fill-rule:nonzero;stroke:none;stroke-width:0.03527778"
       d="m 131.55783,191.33403 c 0.87024,0 1.5765,-0.70626 1.5765,-1.57691 0,-0.87101 -0.70626,-1.57657 -1.5765,-1.57657 -0.8709,0 -1.57645,0.70556 -1.57645,1.57657 0,0.87065 0.70555,1.57691 1.57645,1.57691" />
    <path
       id="path578"
       style="fill:#cceef7;fill-opacity:1;fill-rule:nonzero;stroke:none;stroke-width:0.03527778"
       d="m 135.99927,191.67799 c 1.06109,0 1.92126,-0.86007 1.92126,-1.92087 0,-1.06116 -0.86017,-1.92194 -1.92126,-1.92194 -1.06179,0 -1.92169,0.86078 -1.92169,1.92194 0,1.0608 0.8599,1.92087 1.92169,1.92087" />
    <path
       id="path580"
       style="fill:#cceef7;fill-opacity:1;fill-rule:nonzero;stroke:none;stroke-width:0.03527778"
       d="m 140.4411,191.99902 c 1.23775,0 2.24137,-1.004 2.24137,-2.2419 0,-1.23896 -1.00362,-2.24155 -2.24137,-2.24155 -1.23861,0 -2.2418,1.00259 -2.2418,2.24155 0,1.2379 1.00319,2.2419 2.2418,2.2419" />
    <path
       id="path620"
       style="fill:#cceef7;fill-opacity:1;fill-rule:nonzero;stroke:none;stroke-width:0.03527778"
       d="m 131.55783,195.67638 c 0.8158,0 1.47768,-0.66146 1.47768,-1.47885 0,-0.81562 -0.66188,-1.47708 -1.47768,-1.47708 -0.81647,0 -1.47792,0.66146 -1.47792,1.47708 0,0.81739 0.66145,1.47885 1.47792,1.47885" />
    <path
       id="path622"
       style="fill:#cceef7;fill-opacity:1;fill-rule:nonzero;stroke:none;stroke-width:0.03527778"
       d="m 135.99927,196.02139 c 1.00665,0 1.82245,-0.81632 1.82245,-1.82386 0,-1.00577 -0.8158,-1.82174 -1.82245,-1.82174 -1.00736,0 -1.82316,0.81597 -1.82316,1.82174 0,1.00754 0.8158,1.82386 1.82316,1.82386" />
    <path
       id="path624"
       style="fill:#cceef7;fill-opacity:1;fill-rule:nonzero;stroke:none;stroke-width:0.03527778"
       d="m 140.4411,196.32866 c 1.1764,0 2.13028,-0.95356 2.13028,-2.13113 0,-1.17545 -0.95388,-2.13042 -2.13028,-2.13042 -1.17726,0 -2.13089,0.95497 -2.13089,2.13042 0,1.17757 0.95363,2.13113 2.13089,2.13113" />
    <path
       id="path1008"
       style="fill:#f477ad;fill-opacity:1;fill-rule:nonzero;stroke:none;stroke-width:0.03527778"
       d="m 146.82263,188.93691 c 0,5.52062 -4.47502,9.9956 -9.9956,9.9956 -5.51956,0 -9.9949,-4.47498 -9.9949,-9.9956 0,-5.51991 4.47534,-9.99525 9.9949,-9.99525 5.52058,0 9.9956,4.47534 9.9956,9.99525" />
    <path
       id="path1010"
       style="fill:#ffffff;fill-opacity:1;fill-rule:nonzero;stroke:none;stroke-width:0.03527778"
       d="m 145.41166,188.93691 c 0,4.74133 -3.84333,8.58449 -8.58463,8.58449 -4.74045,0 -8.58379,-3.84316 -8.58379,-8.58449 0,-4.74098 3.84334,-8.58414 8.58379,-8.58414 4.7413,0 8.58463,3.84316 8.58463,8.58414" />
    <path
       id="path1012"
       style="fill:#e92042;fill-opacity:1;fill-rule:nonzero;stroke:none;stroke-width:0.03527778"
       d="m 140.65798,184.81752 -0.0131,0.0441 c -0.23703,-1.37865 0.72278,-2.18369 0.69522,-2.17417 -0.49456,0.1718 -0.7276,0.65511 -0.822,1.2446 -0.0103,0.06 -0.0158,0.11995 -0.0241,0.18062 l -0.004,-0.0215 c -0.1439,-0.43497 -0.0991,-0.83537 0.0166,-1.26435 l -0.0641,0.0695 c -0.0448,0.0963 -0.0862,0.18767 -0.11991,0.27869 l -0.0213,0.06 -0.007,0.0138 c -0.0426,0.13582 -0.0646,0.27693 -0.0455,0.45085 0.0372,0.31856 0.13571,0.61136 0.18616,0.92146 -0.0429,0.43003 -0.082,0.85654 -0.20119,1.28234 -0.22599,0.80963 -0.9875,1.58186 -1.84672,1.68028 -0.19072,-0.008 -0.36986,-0.0321 -0.50628,-0.06 -0.11645,-0.024 -0.28335,0.15311 -0.26747,0.27975 -0.0455,0.0353 -0.0853,0.0787 -0.11441,0.13053 -0.0839,0.15346 -0.0179,0.2533 0.10887,0.31821 l 0.0296,0.0607 c 0.2322,0.2106 0.54035,0.16192 0.8599,0.013 0.69881,-0.14182 1.32154,-0.50871 1.70134,-1.143 0.33884,-0.56515 0.40583,-1.20439 0.54571,-1.82316 0.0158,-0.99448 1.04232,-1.55469 1.02923,-1.54904 -0.4663,0.19649 -0.93966,0.50094 -1.11552,1.00682" />
    <path
       id="path1014"
       style="fill:#a01e3b;fill-opacity:1;fill-rule:nonzero;stroke:none;stroke-width:0.03527778"
       d="m 136.52265,194.20318 c -0.17653,-0.44591 -0.34727,-0.8763 -0.44097,-1.34973 l -0.004,-0.0367 0.008,-0.0247 c -0.0394,-0.32597 -0.0379,-0.70132 0.0315,-1.02588 0.0296,-0.13864 0.13091,-0.33302 0.15998,-0.50094 l 0.046,-0.0621 c 0.02,-0.0621 0.0228,-0.12524 -0.009,-0.18874 -0.13571,-0.27411 -0.53538,-0.36442 -0.80888,-0.36583 -0.30029,-0.001 -0.6277,-0.007 -0.87165,0.19015 -0.13504,0.10759 -0.15984,0.29633 -0.17293,0.47342 -0.14263,0.72955 -0.84681,1.33597 -1.42476,1.71697 -0.28332,0.18733 -0.52846,0.37007 -0.7014,0.63818 -0.0587,0.0639 -0.10474,0.1397 -0.12954,0.21555 l -0.002,0.004 -0.002,0.008 -0.005,0.031 c -0.0234,0.11923 0.0138,0.23706 0.15971,0.31608 0.18478,0.10019 0.2577,-0.0176 0.29023,-0.1651 0.0517,-0.0801 0.10322,-0.16016 0.16108,-0.23706 0.18188,-0.23772 0.41493,-0.38942 0.67263,-0.53123 0.26734,-0.14817 0.5388,-0.23778 0.76892,-0.42051 -0.18204,0.27904 -0.40443,0.53551 -0.61941,0.78281 -0.18468,0.21167 -0.4039,0.48577 -0.42651,0.77646 l 0.0138,0.0272 c 0.514,0.26988 0.72002,-0.30127 0.99769,-0.6484 0.31627,-0.39688 0.71367,-0.68827 0.92382,-1.13277 -0.0765,0.29774 -0.14125,0.59796 -0.10802,0.91969 0.024,0.24342 0.14605,1.14441 0.42514,1.25624 0.13557,0.0543 0.4258,-0.0409 0.48023,-0.19085 0.0544,-0.1524 -0.10075,-0.52317 -0.12968,-0.67733 -0.0186,-0.10125 -0.0288,-0.20391 -0.0386,-0.30657 0.0985,0.37818 0.24532,0.74119 0.37429,1.12501 l 0.0193,0.0413 c 0.0131,0.0744 0.0489,0.13088 0.13145,0.13088 0.11161,0.0279 0.25093,-0.0579 0.37151,-0.14182 0.12252,-0.0861 -0.10129,-0.54433 -0.14122,-0.64699" />
    <path
       id="path1016"
       style="fill:#951829;fill-opacity:1;fill-rule:nonzero;stroke:none;stroke-width:0.03527778"
       d="m 132.48497,194.18518 c -0.0117,0 -0.0244,-0.002 -0.0386,-0.008 -0.14884,-0.055 -0.19653,-0.1778 -0.1826,-0.3048 0.0131,-0.006 0.0284,-0.008 0.0447,-0.008 0.0635,0 0.14274,0.0392 0.16948,0.0589 0.0732,0.055 0.0732,0.13582 0.0758,0.21626 l -0.0193,0.0303 c -0.0142,0.009 -0.0302,0.0159 -0.0495,0.0159" />
    <path
       id="path1018"
       style="fill:#951829;fill-opacity:1;fill-rule:nonzero;stroke:none;stroke-width:0.03527778"
       d="m 133.49991,194.47834 c -0.007,0 -0.0143,-3.4e-4 -0.0214,-0.002 -0.10745,-0.0145 -0.13793,-0.0755 -0.12537,-0.16192 l 0.0544,-0.0473 c 0.0102,-0.002 0.0203,-0.003 0.03,-0.003 0.0349,0 0.0667,0.0127 0.0947,0.0402 0.0489,0.0441 0.0785,0.0688 0.10114,0.12735 -0.0464,0.0286 -0.0914,0.0466 -0.13353,0.0466" />
    <path
       id="path1020"
       style="fill:#951829;fill-opacity:1;fill-rule:nonzero;stroke:none;stroke-width:0.03527778"
       d="m 135.59756,194.77573 c -0.0347,0 -0.0664,-0.009 -0.0962,-0.024 -0.0448,-0.10759 0.14333,-0.14146 0.20204,-0.14287 0.002,0 0.004,0 0.006,0 0.0402,0 0.075,0.0134 0.1065,0.0332 -0.0187,0.0483 -0.0475,0.0861 -0.0944,0.0998 l -0.008,-7.1e-4 -0.0386,0.0215 c -0.0272,0.009 -0.0527,0.0131 -0.0768,0.0131" />
    <path
       id="path1022"
       style="fill:#ec314f;fill-opacity:1;fill-rule:nonzero;stroke:none;stroke-width:0.03527778"
       d="m 136.06566,194.29419 v -0.006 c -0.12195,-0.34642 -0.23495,-0.68333 -0.30868,-1.04387 -0.005,-0.12805 -0.009,-0.25682 -0.002,-0.38594 -0.0511,0.24836 -0.0854,0.49566 -0.0779,0.7486 0.0122,0.14252 0.0288,0.28504 0.0522,0.42898 0.0241,0.16898 0.0628,0.33831 0.10763,0.50306 -0.0759,-0.0261 -0.18673,-0.0124 -0.25026,0.013 -0.0626,0.0236 -0.14041,0.0751 -0.15766,0.14534 -0.31362,-0.3313 -0.26801,-1.66798 -0.22666,-2.37283 l -0.0186,0.0205 c -0.15776,0.4639 -0.40873,0.83855 -0.771,1.16664 -0.1476,0.13229 -0.4458,0.65193 -0.70901,0.86889 0.0171,-0.14958 -0.17293,-0.23072 -0.30797,-0.19015 0.13642,-0.29139 0.54155,-0.70838 0.60205,-0.79093 0.0966,-0.13017 0.18549,-0.25294 0.26335,-0.37923 0.11507,-0.12594 0.20104,-0.28434 0.24666,-0.45332 l -0.003,-0.006 c -0.0123,-0.078 -0.0241,-0.15593 -0.04,-0.23425 -0.0281,0.14676 -0.077,0.29281 -0.13572,0.4311 -0.36449,0.25365 -0.80479,0.36724 -1.17549,0.61877 -0.14111,0.0952 -0.23978,0.20073 -0.32314,0.31574 -0.0792,0.0628 -0.13698,0.12947 -0.18948,0.21695 l -0.02,0.0497 c -0.0585,-0.12488 -0.24585,-0.16615 -0.35277,-0.127 l 0.003,-0.0212 c 0.3321,-0.61065 1.13397,-0.86606 1.6371,-1.32997 0.31831,-0.29351 0.58,-0.76694 0.60152,-1.21461 0.0517,-0.20179 0.13504,-0.39546 0.38294,-0.47131 0.23015,-0.0716 0.52243,-0.0505 0.76136,-0.031 0.14401,0.0109 0.74154,0.24659 0.50314,0.52705 -0.0234,0.21625 -0.10266,0.42298 -0.17018,0.63112 -0.0675,0.6738 -0.0794,1.26647 0.25562,1.94098 0.12333,0.248 0.26098,0.48578 0.33679,0.75459 -0.10128,-0.0374 -0.19639,-0.0215 -0.28321,0.049 -0.0455,0.0363 -0.0675,0.0716 -0.075,0.11148 -0.0677,-0.15628 -0.093,-0.32526 -0.15586,-0.48366" />
    <path
       id="path1024"
       style="fill:#951829;fill-opacity:1;fill-rule:nonzero;stroke:none;stroke-width:0.03527778"
       d="m 136.34499,194.88333 c -0.0293,0 -0.0533,-0.0123 -0.0738,-0.0317 -0.0131,-0.0318 -0.007,-0.0688 0.0172,-0.11359 0.0338,-0.025 0.0662,-0.049 0.0991,-0.073 0.0265,-0.0106 0.0504,-0.0155 0.0723,-0.0155 0.0565,0 0.0984,0.0339 0.12622,0.0974 -0.0545,0.0434 -0.1083,0.0861 -0.1736,0.11782 -0.0254,0.013 -0.0476,0.0187 -0.0674,0.0187" />
    <path
       id="path1026"
       style="fill:#f2527e;fill-opacity:1;fill-rule:nonzero;stroke:none;stroke-width:0.03527778"
       d="m 133.59417,194.12204 c 0.10474,-0.24201 0.29147,-0.44591 0.46369,-0.66146 0.11783,-0.14887 0.22409,-0.30621 0.31627,-0.47061 0.0896,-0.13194 0.16965,-0.2667 0.21428,-0.40675 l 0.0117,-7.1e-4 c 0.0277,0.61277 -0.64629,1.0922 -1.00595,1.53952" />
    <path
       id="path1028"
       style="fill:#f2527e;fill-opacity:1;fill-rule:nonzero;stroke:none;stroke-width:0.03527778"
       d="m 132.44225,193.78902 -0.0399,-0.009 c 0.32784,-0.72216 1.25677,-0.82976 1.77338,-1.34763 l 0.008,0.004 c -0.43339,0.60854 -1.28859,0.74577 -1.74117,1.35255" />
    <path
       id="path1030"
       style="fill:#f2527e;fill-opacity:1;fill-rule:nonzero;stroke:none;stroke-width:0.03527778"
       d="m 135.45811,194.40285 c -0.11384,-0.26917 -0.18136,-0.52846 -0.18052,-0.82268 0,-0.26388 0.0751,-0.52423 0.0765,-0.78175 l 0.0129,-0.004 c 0.0489,0.23283 0.011,0.50623 0.0249,0.74824 0.0164,0.27904 0.0715,0.55386 0.11645,0.82973 l -0.0503,0.0307" />
    <path
       id="path1032"
       style="fill:#f2527e;fill-opacity:1;fill-rule:nonzero;stroke:none;stroke-width:0.03527778"
       d="m 136.25239,194.54855 c -0.1094,-0.11395 -0.15018,-0.26882 -0.17981,-0.4191 -0.0398,-0.20179 -0.10887,-0.39406 -0.11233,-0.60643 h 0.007 c 0.058,0.34043 0.25771,0.64841 0.33983,0.9846 l -0.0546,0.0409" />
    <path
       id="path1034"
       style="fill:#731135;fill-opacity:1;fill-rule:nonzero;stroke:none;stroke-width:0.03527778"
       d="m 140.02891,187.60941 c -0.15501,-1.39418 -1.60733,-2.59433 -2.95381,-3.04624 -0.13836,-0.1076 -0.28236,-0.20179 -0.48909,-0.25788 -0.37289,-0.10336 -0.83658,-0.14605 -1.21818,-0.0776 -0.66639,0.11783 -1.25137,0.72954 -1.51458,1.34479 l -0.0564,0.0296 c -0.75653,0.22613 -1.42505,0.60008 -1.79007,1.37195 -0.25096,0.53411 -0.4706,1.19486 -0.33637,1.78577 0.0966,0.42721 0.39409,0.69673 0.68351,0.98001 0.0897,0.69991 0.23163,1.35925 0.66146,1.9491 0.20408,0.27764 0.56705,0.3743 0.87587,0.48366 0.54568,0.19297 1.08038,0.38664 1.64384,0.52317 0.79943,0.19402 1.7544,0.28363 2.57764,0.25682 0.16507,-0.005 0.3423,0.0145 0.52254,0.0342 0.46552,0.0508 0.9507,0.10195 1.29441,-0.28011 1.17422,-1.30245 0.26525,-3.60574 0.0992,-5.09728" />
    <path
       id="path1036"
       style="fill:#ec314f;fill-opacity:1;fill-rule:nonzero;stroke:none;stroke-width:0.03527778"
       d="m 137.75032,192.71833 c -0.79855,-0.11147 -1.57632,-0.13581 -2.36386,-0.33831 -0.33503,-0.084 -0.77311,-0.1965 -1.1865,-0.34925 -0.56363,-0.13159 -1.05833,-0.37712 -1.27137,-0.92534 -0.23912,-0.38311 -0.38502,-0.84701 -0.49474,-1.28446 0.14538,0.14676 0.2818,0.30515 0.38587,0.49001 -0.0627,-0.22543 -0.133,-0.45332 -0.27012,-0.63535 -0.12661,-0.16687 -0.27683,-0.30304 -0.41547,-0.45756 l -0.057,-0.0811 c -0.0661,-0.0744 -0.12746,-0.15381 -0.17914,-0.24941 -0.2358,-0.45402 -0.10199,-0.92004 0.0157,-1.38571 0.23305,-0.9211 1.19765,-1.42275 2.05342,-1.81822 0.0922,-0.0229 0.18468,-0.042 0.26391,-0.0561 0.31556,-0.055 0.61031,-0.121 0.92879,-0.024 l 0.0296,-0.0399 c -0.31489,-0.27023 -0.80218,-0.20602 -1.21282,-0.0434 0.38531,-0.55281 1.08808,-1.05622 1.72117,-1.07068 l 0.0758,0.001 c 0.5038,-0.0593 1.00679,0.10371 1.46156,0.40428 1.27109,0.31291 2.06981,1.41182 2.49685,2.58374 0.25989,0.62901 0.37895,1.36102 0.47833,2.00449 0.13282,0.87101 0.24444,1.77976 0.005,2.6423 -0.31073,1.12042 -1.69774,0.74084 -2.46532,0.63253" />
    <path
       id="path1038"
       style="fill:#c31c3e;fill-opacity:1;fill-rule:nonzero;stroke:none;stroke-width:0.03527778"
       d="m 139.45565,191.40424 c -0.1826,0.26317 -0.52229,-0.0349 -0.74331,-0.24871 -0.14897,-0.0847 -0.2964,-0.17004 -0.44785,-0.24448 -0.44182,-0.17356 -0.88678,-0.33267 -1.31272,-0.54222 -0.0929,-0.0448 -0.0214,-0.17286 0.0325,-0.21836 0.36382,-0.2914 0.74761,-0.52247 0.84116,-1.028 0.0504,-0.27093 0.089,-0.58843 0.0112,-0.86466 -0.2825,0.62689 -0.64784,1.1677 -1.26862,1.4411 -0.0655,0.0462 -0.133,0.0882 -0.20175,0.127 -0.0718,0.0522 -0.14344,0.10125 -0.2165,0.14393 -0.0427,0.0254 -0.0977,0.0303 -0.1385,0.0102 -0.0544,0.003 -0.10884,-0.0233 -0.10541,-0.0868 0.004,-0.0956 0.009,-0.19085 0.0124,-0.28645 l 0.0241,-0.0635 c -0.0737,-1.05763 -0.3285,-2.25249 -1.50879,-2.3294 0.65511,0.68122 0.94601,1.48132 1.07347,2.44934 0.0853,0.63324 0.23911,1.46473 -0.0958,2.05387 v 0.0208 c -0.003,0.0896 -0.0985,0.18944 -0.19032,0.19156 -0.74553,0.0145 -1.79628,-0.26811 -2.08291,-1.03787 -0.0453,-0.12171 0.1228,-0.2279 0.22186,-0.22437 0.0482,0.002 0.0917,0.0138 0.13727,0.0212 -0.34742,-0.51824 -0.78839,-1.03365 -0.98944,-1.60409 -0.0537,-0.15204 -0.089,-0.29951 -0.109,-0.44697 -0.15971,-0.49212 -0.13988,-1.02058 0.13726,-1.53458 0.0777,-0.14676 0.17075,-0.25012 0.27132,-0.32103 0.59877,-0.68368 1.81021,-0.57114 2.62724,-1.08726 -0.10392,-0.14146 -0.21085,-0.27375 -0.33817,-0.40252 -0.0904,-0.0914 0.0825,-0.24871 0.17142,-0.25153 0.23167,-0.005 0.94135,-0.14993 0.99991,0.20602 0.0818,0.49354 0.16591,0.9331 0.52557,1.32151 0.11109,0.12065 0.23978,0.23989 0.36036,0.36654 0.21375,0.13511 0.45406,0.23565 0.74828,0.29315 0.21085,0.0406 0.46799,0.0783 0.6332,0.22931 0.66435,0.60925 0.97098,1.47602 1.11982,2.34385 0.0839,0.49919 0.10746,1.16452 -0.19928,1.60338 m 0.75462,-1.96074 c -0.0994,-0.64347 -0.21844,-1.37548 -0.47833,-2.00448 -0.42703,-1.17193 -1.22576,-2.27083 -2.49685,-2.58375 -0.45477,-0.30056 -0.95776,-0.46355 -1.46156,-0.40428 l -0.0758,-0.001 c -0.63309,0.0145 -1.33586,0.51787 -1.72117,1.07068 0.41064,-0.16263 0.89793,-0.22684 1.21282,0.0434 l -0.0296,0.0399 c -0.31849,-0.097 -0.61324,-0.031 -0.9288,0.024 -0.0792,0.0141 -0.17173,0.0332 -0.26391,0.0561 -0.85577,0.39547 -1.82037,0.89712 -2.05341,1.81822 -0.11769,0.46567 -0.2515,0.93169 -0.0157,1.38571 0.0517,0.0956 0.11299,0.17498 0.17914,0.24942 l 0.057,0.0811 c 0.13864,0.15451 0.28886,0.29069 0.41547,0.45755 0.13712,0.18203 0.2074,0.40993 0.27012,0.63535 -0.10407,-0.18485 -0.24049,-0.34325 -0.38587,-0.49001 0.10972,0.43745 0.25563,0.90135 0.49474,1.28447 0.21304,0.54821 0.70774,0.79375 1.27137,0.92533 0.41339,0.15276 0.85147,0.26529 1.1865,0.34925 0.78754,0.2025 1.56531,0.22684 2.36386,0.33832 0.76757,0.1083 2.15459,0.48789 2.46532,-0.63253 0.23907,-0.86254 0.12746,-1.7713 -0.005,-2.64231" />
    <path
       id="path1040"
       style="fill:#951e3a;fill-opacity:1;fill-rule:nonzero;stroke:none;stroke-width:0.03527778"
       d="m 135.83773,188.66633 c -0.13998,-0.51082 -0.38858,-0.73731 -0.80214,-1.03928 h -0.003 c 0.80821,0.83608 0.73917,1.79281 0.79773,2.88572 0.001,0.0367 0.0504,0.003 0.0553,-0.018 0.1149,-0.64417 0.12665,-1.19733 -0.0483,-1.82845" />
    <path
       id="path1042"
       style="fill:#951e3a;fill-opacity:1;fill-rule:nonzero;stroke:none;stroke-width:0.03527778"
       d="m 137.7367,188.68608 c -0.0531,0.0752 -0.10696,0.14429 -0.144,0.20215 -0.22395,0.3436 -0.51418,0.58067 -0.8544,0.79974 -0.0324,0.0208 -0.0449,0.10055 0.0122,0.0868 0.43822,-0.11147 0.74774,-0.47131 0.95514,-0.85689 0.0109,-0.0766 0.0207,-0.15452 0.031,-0.23178" />
    <path
       id="path1044"
       style="fill:#f2527e;fill-opacity:1;fill-rule:nonzero;stroke:none;stroke-width:0.03527778"
       d="m 133.67644,190.38894 c -0.009,0 -0.0185,-0.003 -0.0272,-0.01 -0.39123,-0.3277 -0.69522,-0.79902 -0.85852,-1.30984 -0.29545,-0.55598 -0.28304,-1.20897 -0.006,-1.80516 0.20599,-0.44309 0.67328,-0.76588 1.149,-0.76588 0.0983,0 0.19692,0.0138 0.29379,0.043 0.0855,0.0268 0.046,0.15169 0.003,0.19579 -0.8468,0.8315 -0.88056,2.50543 -0.4918,3.56305 0.0139,0.0349 -0.0231,0.0889 -0.0619,0.0889" />
    <path
       id="path1046"
       style="fill:#f2527e;fill-opacity:1;fill-rule:nonzero;stroke:none;stroke-width:0.03527778"
       d="m 136.23475,189.48089 c -0.0457,0 -0.0868,-0.0205 -0.0883,-0.0765 -0.0151,-0.44238 -0.0985,-0.88089 -0.2177,-1.30881 -0.14072,-0.28151 -0.30525,-0.51329 -0.51057,-0.75847 -0.0868,-0.10371 0.0397,-0.25964 0.15667,-0.25964 0.001,0 0.002,0 0.003,0 1.13566,0.0275 1.67996,1.66723 0.75946,2.37031 -0.0246,0.0194 -0.065,0.0332 -0.10255,0.0332" />
    <path
       id="path1048"
       style="fill:#f2527e;fill-opacity:1;fill-rule:nonzero;stroke:none;stroke-width:0.03527778"
       d="m 137.99246,190.0531 c -0.0577,0 -0.11479,-0.004 -0.17046,-0.013 l -0.0267,-0.0152 c 0.0405,-0.0716 0.0792,-0.14323 0.11494,-0.21555 0.1083,-0.11148 0.1688,-0.2928 0.19843,-0.48719 0.08,-0.24659 0.1276,-0.50376 0.12538,-0.77293 -0.001,-0.18838 -0.004,-0.40393 -0.0391,-0.60995 0.34107,0.13511 0.61186,0.40675 0.75022,0.76976 0.14481,0.37218 -0.006,0.75776 -0.21555,1.09396 -0.20574,0.16298 -0.47777,0.25012 -0.73709,0.25012" />
    <path
       id="path1050"
       style="fill:#3b84c8;fill-opacity:1;fill-rule:nonzero;stroke:none;stroke-width:0.03527778"
       d="m 141.83347,187.72088 c 0.0827,0.0296 0.16327,0.0868 0.23301,0.14958 -0.0181,-0.0367 -0.0345,-0.0723 -0.0546,-0.10689 -0.0827,-0.0804 -0.17843,-0.14887 -0.28663,-0.18803 -0.0157,-0.0339 -0.0302,-0.0709 -0.0495,-0.10125 -0.11522,-0.1785 -0.26183,-0.32455 -0.41081,-0.46849 0.1633,0.0586 0.34107,0.0716 0.53467,0.0254 l 0.0718,-0.0476 c 0.0379,-0.0116 0.0667,-0.0325 0.0937,-0.0571 -0.13367,0.042 -0.24888,0.06 -0.35638,0.0635 0.0491,-0.0367 0.0952,-0.0815 0.1421,-0.11501 0.0901,-0.0656 0.20119,-0.0945 0.29143,-0.16192 l -0.003,-0.0127 c -0.0966,0.0547 -0.20546,0.073 -0.30194,0.13053 -0.0743,0.0427 -0.15159,0.0991 -0.21622,0.16051 -0.038,-0.003 -0.073,-0.006 -0.10886,-0.0123 l -0.011,-0.0208 c -0.0841,-0.018 -0.15999,-0.0462 -0.23358,-0.0759 -0.0324,-0.0194 -0.0629,-0.0448 -0.0918,-0.0702 -0.0812,-0.084 -0.15487,-0.17427 -0.21964,-0.27411 -0.0916,-0.16157 -0.16002,-0.35701 -0.21773,-0.56586 0.055,0.0557 0.1294,0.0956 0.20394,0.12736 -0.0491,-0.0625 -0.0937,-0.12736 -0.13452,-0.19403 -0.0441,-0.049 -0.0853,-0.10019 -0.12812,-0.15522 -0.082,-0.33479 -0.14955,-0.68616 -0.24861,-0.98813 0.10802,0.14287 0.24116,0.26599 0.39963,0.35701 0.44993,0.25823 0.63101,0.82409 0.79911,1.28234 l 0.0193,-0.0123 c -0.0827,-0.29422 -0.16535,-0.57962 -0.30233,-0.84561 0.0338,0.0275 0.0653,0.0543 0.10195,0.0787 0.0834,0.055 0.17488,0.11782 0.26861,0.17356 -0.0262,-0.0522 -0.0591,-0.10124 -0.0992,-0.14605 -0.0536,-0.0399 -0.10749,-0.0822 -0.16193,-0.11853 -0.10403,-0.0695 -0.1845,-0.16545 -0.27065,-0.25435 l -0.0117,-0.019 c -0.25297,-0.34114 -0.64643,-0.55704 -0.92533,-0.87948 -0.37412,-0.43039 -0.9095,-0.82091 -1.50481,-0.76694 -0.85041,0.0762 -1.41196,0.86149 -1.67707,1.59809 -0.0256,0.0723 -0.0449,0.14746 -0.0648,0.2226 -0.089,0.43603 -0.0972,0.87559 0.1652,1.16311 0.16553,0.18238 0.48042,0.45685 0.74154,0.29139 0.35814,-0.22683 0.18535,-0.81456 0.2038,-1.1564 0.027,-0.48437 0.28886,-0.98708 0.72277,-1.22132 0.26942,-0.14499 0.59754,-0.13053 0.84201,0.0586 0.35483,0.27482 0.18962,0.59796 0.20807,0.97014 0.008,0.17004 0.0429,0.33126 0.11095,0.48895 -0.0392,-0.15981 -0.0496,-0.31468 -0.0426,-0.47801 0.005,-0.11501 0.0309,-0.22825 0.0496,-0.34255 0.0476,0.14534 0.086,0.2928 0.12732,0.42051 0.0401,0.12171 0.0868,0.24448 0.1392,0.36371 0.098,0.38524 0.0268,0.79305 0.12263,1.18851 -0.02,0.21555 0.0172,0.42439 0.12608,0.6223 0.0682,0.12312 0.18535,0.40922 0.355,0.42369 -0.14414,-0.0367 -0.25922,-0.34396 -0.30952,-0.45755 -0.0625,-0.14253 -0.0949,-0.27411 -0.10802,-0.40923 0.0978,0.18945 0.29834,0.40993 0.46908,0.45932 l 0.006,-0.0109 c -0.28401,-0.11783 -0.40942,-0.46708 -0.46798,-0.78282 l 8.5e-4,-0.0155 -0.007,-0.018 c -0.0179,-0.10337 -0.0296,-0.2025 -0.0372,-0.28752 -0.0112,-0.14181 0.001,-0.28222 -0.005,-0.41804 0.16813,0.28787 0.39066,0.52776 0.69659,0.6477 0.0882,0.0914 0.1917,0.17427 0.29972,0.25471 l 0.0374,0.0332 c -0.0599,0.30938 0.0338,0.79939 0.2975,0.98813 -0.24307,-0.23142 -0.19703,-0.6036 -0.21756,-0.91652 0.25837,0.27517 0.44372,0.76623 0.38707,1.10102 l 0.0427,-0.0529 c 0.0379,-0.20531 0.008,-0.43603 -0.071,-0.64029 l 0.0469,0.0215" />
    <path
       id="path1052"
       style="fill:#7dc2de;fill-opacity:1;fill-rule:nonzero;stroke:none;stroke-width:0.03527778"
       d="m 141.63694,186.98852 c 0.008,-7.2e-4 0.0171,-0.002 0.0258,-0.003 0.0907,-0.008 0.18726,-0.0236 0.29655,-0.0575 -0.11977,0.0374 -0.22448,0.055 -0.32234,0.0603" />
    <path
       id="path1054"
       style="fill:#560f2a;fill-opacity:1;fill-rule:nonzero;stroke:none;stroke-width:0.03527778"
       d="m 137.63334,186.93737 c -0.21541,0 -0.43685,-0.19932 -0.56653,-0.3422 -0.0861,-0.0942 -0.14301,-0.20496 -0.17748,-0.32597 0.0346,0.12136 0.0915,0.23178 0.17748,0.32597 0.12968,0.14288 0.35112,0.3422 0.56653,0.3422 0.0594,0 0.11835,-0.0152 0.17501,-0.0508 0.1874,-0.11889 0.22945,-0.3362 0.22959,-0.56586 -1.4e-4,0.22966 -0.0422,0.44697 -0.22959,0.56586 -0.0567,0.0356 -0.11561,0.0508 -0.17501,0.0508" />
    <path
       id="path1056"
       style="fill:#7dc2de;fill-opacity:1;fill-rule:nonzero;stroke:none;stroke-width:0.03527778"
       d="m 141.96107,186.92784 c 0.001,-7.1e-4 0.003,-0.001 0.004,-0.001 -0.001,3.4e-4 -0.003,7.1e-4 -0.004,0.001" />
    <path
       id="path1058"
       style="fill:#560f2a;fill-opacity:1;fill-rule:nonzero;stroke:none;stroke-width:0.03527778"
       d="m 136.88891,186.26744 c -1.5e-4,-3.4e-4 -1.5e-4,-7.1e-4 -2.5e-4,-7.1e-4 1e-4,0 1e-4,3.4e-4 2.5e-4,7.1e-4" />
    <path
       id="path1060"
       style="fill:#2f66b4;fill-opacity:1;fill-rule:nonzero;stroke:none;stroke-width:0.03527778"
       d="m 141.81485,188.39257 c 0.007,-0.0406 0.0102,-0.0832 0.0102,-0.1277 4.2e-4,-0.32279 -0.17032,-0.73166 -0.39727,-0.97332 v 0 0 c 0.0205,0.31292 -0.0255,0.6851 0.21756,0.91652 -0.21329,-0.15275 -0.31542,-0.50235 -0.31499,-0.7941 1.4e-4,-0.0688 0.006,-0.13476 0.0175,-0.19403 v 0 0 l -0.0374,-0.0332 c -0.10802,-0.0804 -0.21153,-0.16334 -0.29972,-0.25471 -0.30593,-0.11994 -0.52846,-0.35983 -0.6966,-0.6477 v 0 0 c 0.001,0.0296 0.002,0.0596 0.002,0.0896 0,0.0614 -0.002,0.12347 -0.002,0.18627 0,0.0469 0.001,0.0945 0.005,0.14217 0.008,0.085 0.0193,0.18415 0.0372,0.28751 l 0.007,0.018 -8.4e-4,0.0155 v 0 c 0.0586,0.31574 0.18397,0.66499 0.46799,0.78282 l -0.006,0.0109 c -0.1707,-0.0494 -0.37122,-0.26987 -0.46905,-0.45931 v 0 0 c 0.0131,0.13511 0.0455,0.2667 0.10802,0.40922 0.0503,0.11359 0.16539,0.42086 0.30953,0.45755 -0.16965,-0.0145 -0.28677,-0.30057 -0.355,-0.42368 -0.0901,-0.16405 -0.13106,-0.33514 -0.13116,-0.51189 0,-0.0363 0.002,-0.0734 0.005,-0.11041 v 0 0 c -0.009,-0.0399 -0.0175,-0.0797 -0.0241,-0.11995 -0.0553,-0.33479 -0.0162,-0.67627 -0.0834,-1.00295 -0.005,-0.0219 -0.01,-0.0437 -0.0151,-0.0656 -0.0524,-0.11924 -0.0991,-0.24201 -0.13921,-0.36372 -0.0413,-0.1277 -0.0798,-0.27516 -0.12732,-0.42051 -0.0187,0.1143 -0.0449,0.22754 -0.0496,0.34255 -0.001,0.0307 -0.002,0.061 -0.002,0.091 0,0.13052 0.0128,0.25717 0.0447,0.38699 -0.0681,-0.15769 -0.10255,-0.31891 -0.11094,-0.48895 -9.6e-4,-0.0212 -0.001,-0.042 -0.001,-0.0628 0,-0.15028 0.0243,-0.29245 0.0241,-0.42651 -1.5e-4,-0.17427 -0.0413,-0.33443 -0.23069,-0.48084 -0.1356,-0.10477 -0.29696,-0.15592 -0.45984,-0.15592 -0.13067,0 -0.26212,0.0328 -0.38217,0.0974 -0.43391,0.23425 -0.69574,0.73696 -0.72277,1.22132 -9.5e-4,0.0187 -0.001,0.0381 -0.001,0.0582 0,0.15487 0.0272,0.34748 0.0272,0.53234 -1.4e-4,0.22966 -0.0422,0.44697 -0.22959,0.56586 -0.0567,0.0356 -0.1156,0.0508 -0.17501,0.0508 -0.2154,0 -0.43684,-0.19932 -0.56652,-0.3422 -0.086,-0.0942 -0.14288,-0.20461 -0.17749,-0.32597 -1.4e-4,-7.1e-4 -2.9e-4,-10e-4 -4.2e-4,-0.002 -1.4e-4,-3.4e-4 -1.4e-4,-7.1e-4 -2.5e-4,-7.1e-4 -0.0477,-0.17004 -0.0515,-0.36089 -0.0298,-0.55774 0.0338,0.25223 0.14126,0.45543 0.39138,0.47554 0.006,3.5e-4 0.0127,7.2e-4 0.019,7.2e-4 0.40513,0 0.53107,-1.11901 0.64159,-1.34162 0.26885,-0.54292 0.63595,-0.75882 1.00348,-0.75882 0.32854,0 0.65733,0.17286 0.91613,0.43885 0.20531,0.21238 0.29834,0.56163 0.39345,0.83326 0.18394,0.5207 0.32932,1.04176 0.74687,1.42346 0.16869,0.15381 0.36188,0.21379 0.55978,0.21379 0.0354,0 0.0708,-0.002 0.10637,-0.006 0.0979,-0.005 0.20256,-0.0229 0.32233,-0.0603 5.5e-4,0 0.001,-3.4e-4 0.002,-3.4e-4 10e-4,-7.2e-4 0.003,-0.001 0.004,-0.001 v 0 c -0.027,0.0247 -0.0558,0.0455 -0.0937,0.0572 l -0.0718,0.0476 c -0.0791,0.0187 -0.15572,0.0279 -0.22955,0.0279 -0.10697,0 -0.2085,-0.0187 -0.30512,-0.0533 v 0 0 c 0.14898,0.14394 0.29559,0.28999 0.41081,0.46849 0.0193,0.0303 0.0338,0.0674 0.0495,0.10125 0.1082,0.0392 0.20394,0.1076 0.28663,0.18803 0.0201,0.0346 0.0365,0.0702 0.0546,0.10689 -0.0697,-0.0628 -0.15035,-0.11994 -0.23301,-0.14958 l -0.0469,-0.0215 v 0 c 0.0564,0.14499 0.0877,0.30374 0.0874,0.4572 0,0.0621 -0.005,0.12382 -0.0164,0.18309 l -0.0427,0.0529" />
    <path
       id="path1062"
       style="fill:#50c4b7;fill-opacity:1;fill-rule:nonzero;stroke:none;stroke-width:0.03527778"
       d="m 138.73164,183.70098 c -1.01561,-0.0134 -1.52979,1.0915 -1.67707,1.94804 l 0.009,-7.1e-4 c 0.23717,-0.90946 0.72983,-1.65171 1.66204,-1.92441 l 0.005,-0.0229" />
  </g>
</svg>
