<?xml version="1.0" encoding="UTF-8" standalone="no"?>
<svg
   xmlns:dc="http://purl.org/dc/elements/1.1/"
   xmlns:cc="http://creativecommons.org/ns#"
   xmlns:rdf="http://www.w3.org/1999/02/22-rdf-syntax-ns#"
   xmlns:svg="http://www.w3.org/2000/svg"
   xmlns="http://www.w3.org/2000/svg"
   id="svg7281"
   version="1.1"
   viewBox="0 0 19.990505 19.99085"
   height="19.99085mm"
   width="19.990505mm">
  <defs
     id="defs7275" />
  <metadata
     id="metadata7278">
    <rdf:RDF>
      <cc:Work
         rdf:about="">
        <dc:format>image/svg+xml</dc:format>
        <dc:type
           rdf:resource="http://purl.org/dc/dcmitype/StillImage" />
        <dc:title></dc:title>
      </cc:Work>
    </rdf:RDF>
  </metadata>
  <g
     transform="translate(-23.266652,-142.61767)"
     id="layer1">
    <path
       id="path518"
       style="fill:#cceef7;fill-opacity:1;fill-rule:nonzero;stroke:none;stroke-width:0.03527778"
       d="m 34.534021,146.22588 c 0.924631,0 1.674283,-0.75107 1.674283,-1.67676 0,-0.92498 -0.749652,-1.67498 -1.674283,-1.67498 -0.926042,0 -1.675694,0.75 -1.675694,1.67498 0,0.92569 0.749652,1.67676 1.675694,1.67676" />
    <path
       id="path560"
       style="fill:#cceef7;fill-opacity:1;fill-rule:nonzero;stroke:none;stroke-width:0.03527778"
       d="m 30.091844,150.99931 c 1.10878,0 2.008011,-0.89923 2.008011,-2.00766 0,-1.10948 -0.899231,-2.00906 -2.008011,-2.00906 -1.108428,0 -2.006953,0.89958 -2.006953,2.00906 0,1.10843 0.898525,2.00766 2.006953,2.00766" />
    <path
       id="path562"
       style="fill:#cceef7;fill-opacity:1;fill-rule:nonzero;stroke:none;stroke-width:0.03527778"
       d="m 34.534021,150.6543 c 0.917928,0 1.662642,-0.74436 1.662642,-1.66265 0,-0.91933 -0.744714,-1.66299 -1.662642,-1.66299 -0.91828,0 -1.663347,0.74366 -1.663347,1.66299 0,0.91829 0.745067,1.66265 1.663347,1.66265" />
    <path
       id="path564"
       style="fill:#cceef7;fill-opacity:1;fill-rule:nonzero;stroke:none;stroke-width:0.03527778"
       d="m 38.974788,150.27259 c 0.707672,0 1.281641,-0.57397 1.281641,-1.28094 0,-0.70837 -0.573969,-1.28093 -1.281641,-1.28093 -0.706967,0 -1.280936,0.57256 -1.280936,1.28093 0,0.70697 0.573969,1.28094 1.280936,1.28094" />
    <path
       id="path602"
       style="fill:#cceef7;fill-opacity:1;fill-rule:nonzero;stroke:none;stroke-width:0.03527778"
       d="m 25.649666,155.68667 c 1.246011,0 2.255308,-1.0093 2.255308,-2.25354 0,-1.24531 -1.009297,-2.2539 -2.255308,-2.2539 -1.244247,0 -2.252839,1.00859 -2.252839,2.2539 0,1.24424 1.008592,2.25354 2.252839,2.25354" />
    <path
       id="path604"
       style="fill:#cceef7;fill-opacity:1;fill-rule:nonzero;stroke:none;stroke-width:0.03527778"
       d="m 30.091844,155.36635 c 1.068564,0 1.933575,-0.86536 1.933575,-1.93322 0,-1.06821 -0.865011,-1.93358 -1.933575,-1.93358 -1.067859,0 -1.933928,0.86537 -1.933928,1.93358 0,1.06786 0.866069,1.93322 1.933928,1.93322" />
    <path
       id="path606"
       style="fill:#cceef7;fill-opacity:1;fill-rule:nonzero;stroke:none;stroke-width:0.03527778"
       d="m 34.534021,155.02098 c 0.877006,0 1.588206,-0.71085 1.588206,-1.58785 0,-0.87807 -0.7112,-1.58891 -1.588206,-1.58891 -0.877711,0 -1.589616,0.71084 -1.589616,1.58891 0,0.877 0.711905,1.58785 1.589616,1.58785" />
    <path
       id="path608"
       style="fill:#cceef7;fill-opacity:1;fill-rule:nonzero;stroke:none;stroke-width:0.03527778"
       d="m 38.974788,154.65268 c 0.673805,0 1.219552,-0.54575 1.219552,-1.21955 0,-0.67346 -0.545747,-1.21991 -1.219552,-1.21991 -0.6731,0 -1.218848,0.54645 -1.218848,1.21991 0,0.6738 0.545748,1.21955 1.218848,1.21955" />
    <path
       id="path650"
       style="fill:#cceef7;fill-opacity:1;fill-rule:nonzero;stroke:none;stroke-width:0.03527778"
       d="m 30.091844,159.7101 c 1.01353,0 1.834797,-0.82162 1.834797,-1.83656 0,-1.01282 -0.821267,-1.8348 -1.834797,-1.8348 -1.013531,0 -1.835503,0.82198 -1.835503,1.8348 0,1.01494 0.821972,1.83656 1.835503,1.83656" />
    <path
       id="path652"
       style="fill:#cceef7;fill-opacity:1;fill-rule:nonzero;stroke:none;stroke-width:0.03527778"
       d="m 34.534021,159.36473 c 0.822678,0 1.490486,-0.6671 1.490486,-1.49119 0,-0.82197 -0.667808,-1.48872 -1.490486,-1.48872 -0.823383,0 -1.491191,0.66675 -1.491191,1.48872 0,0.82409 0.667808,1.49119 1.491191,1.49119" />
    <path
       id="path654"
       style="fill:#cceef7;fill-opacity:1;fill-rule:nonzero;stroke:none;stroke-width:0.03527778"
       d="m 38.974788,158.99537 c 0.619477,0 1.121127,-0.50235 1.121127,-1.12183 0,-0.61807 -0.50165,-1.12007 -1.121127,-1.12007 -0.618067,0 -1.120423,0.502 -1.120423,1.12007 0,0.61948 0.502356,1.12183 1.120423,1.12183" />
    <path
       id="path1422"
       style="fill:#f477ad;fill-opacity:1;fill-rule:nonzero;stroke:none;stroke-width:0.03527778"
       d="m 43.257157,152.61292 c 0,5.52062 -4.475339,9.9956 -9.995605,9.9956 -5.519914,0 -9.9949,-4.47498 -9.9949,-9.9956 0,-5.51992 4.474986,-9.99525 9.9949,-9.99525 5.520266,0 9.995605,4.47533 9.995605,9.99525" />
    <path
       id="path1424"
       style="fill:#ffffff;fill-opacity:1;fill-rule:nonzero;stroke:none;stroke-width:0.03527778"
       d="m 41.846046,152.61292 c 0,4.74133 -3.843514,8.58449 -8.584494,8.58449 -4.740628,0 -8.583789,-3.84316 -8.583789,-8.58449 0,-4.74098 3.843161,-8.58414 8.583789,-8.58414 4.74098,0 8.584494,3.84316 8.584494,8.58414" />
    <path
       id="path1426"
       style="fill:#bb214f;fill-opacity:1;fill-rule:nonzero;stroke:none;stroke-width:0.03527778"
       d="m 39.550168,151.80082 c -0.124883,-0.46743 0.01305,-0.69179 0.08396,-1.12959 0.0095,-0.055 -0.0035,-0.11289 -0.02011,-0.16581 -0.09913,-0.33513 -0.170742,-0.5782 -0.08114,-0.93168 0.07585,-0.29775 -0.03104,-0.56233 -0.1524,-0.82621 -0.159808,-0.34713 0.104069,-0.78246 -0.05786,-1.16099 -0.08114,-0.19156 -0.247297,-0.25329 -0.405694,-0.3242 -0.169686,-0.10584 -0.227542,-0.2981 -0.402519,-0.40005 -0.22472,-0.12982 -0.432506,-0.12982 -0.68192,-0.0967 -0.229658,0.0303 -0.398286,0.15839 -0.550686,0.33267 -0.04974,0.0568 -0.07938,0.11782 -0.100542,0.18132 -0.04339,0.0787 -0.07514,0.16158 -0.08678,0.26071 l -0.0021,0.0303 c -0.04269,0.0995 -0.117827,0.18132 -0.289277,0.2233 -0.164748,0.0392 -0.373592,0.0268 -0.510117,0.15523 -0.08819,0.0833 -0.152753,0.18168 -0.216958,0.27975 -0.03246,0.0356 -0.05856,0.0748 -0.08114,0.11959 -0.119945,0.1778 -0.259292,0.33514 -0.542925,0.37359 -0.149578,0.0208 -0.270228,0.0688 -0.352072,0.21026 -0.131234,0.22507 0.08255,0.40569 -0.356306,0.47307 l -0.0085,7.2e-4 h -0.0032 c -0.04833,0.008 -0.102305,0.0145 -0.166863,0.0187 -0.05891,0.004 -0.121709,-0.01 -0.184856,-0.024 -0.08573,-0.0187 -0.172508,-0.0378 -0.251178,-0.0117 -0.332316,0.10936 -0.612775,0.41275 -0.977899,0.41381 -0.134409,3.5e-4 -0.265289,-0.0568 -0.395464,-0.1143 -0.155164,-0.0681 -0.309327,-0.13617 -0.467725,-0.10724 -0.142169,0.0254 -0.270933,0.0667 -0.407811,0.11289 -0.424744,0.14111 -0.687916,-0.19156 -0.990952,-0.40182 l -0.05433,-0.0296 c -0.03104,-0.006 -0.06138,-0.0159 -0.09384,-0.0219 -0.0695,-0.0113 -0.149578,-0.0152 -0.226837,-0.0243 -0.04339,-0.0102 -0.08749,-0.0176 -0.131586,-0.0261 l -0.06456,-0.0201 c -0.124177,-0.0572 -0.201789,-0.15275 -0.26035,-0.26564 l -0.02858,-0.0332 c -0.15628,-0.22966 -0.335491,-0.39335 -0.583494,-0.49213 -0.140758,-0.0572 -0.270228,-0.0508 -0.390878,-0.0445 -0.04269,0.002 -0.08396,0.005 -0.12453,0.004 -0.07232,0.0159 -0.141817,0.0261 -0.226484,0.018 -0.03316,-0.003 -0.0635,-0.0173 -0.09172,-0.0367 -0.04974,-0.15417 -0.126647,-0.26176 -0.235655,-0.36089 l -0.03316,-0.0677 c -0.300919,-0.24095 -0.678744,-0.0508 -1.044575,0.0402 -0.209902,0.004 -0.415219,0.073 -0.540808,0.2219 -0.462844,0.33408 -0.263172,0.95567 -0.323144,1.52329 -0.03528,0.33267 -0.334081,0.68227 -0.299156,1.02588 0.04233,0.40922 0.172508,0.6858 0.0078,1.09008 -0.126647,0.3115 -0.172861,0.56162 -0.07444,0.889 0.122061,0.40217 -0.08608,0.86113 0.09313,1.26012 0.156281,0.34573 0.61842,0.64982 0.700617,0.9906 0.08043,0.34114 0.393347,0.37218 0.572558,0.60043 0.161925,0.42157 -0.09031,0.77435 -7.14e-4,1.20156 0.0441,0.20744 0.289277,0.20885 0.41275,0.1136 0.195791,-0.1517 0.117122,-0.59514 0.117122,-0.79869 7.14e-4,-0.2794 -0.215547,-0.4572 0.141816,-0.62971 0.0829,-0.0392 0.123473,-0.12876 0.161925,-0.20673 0.13582,-0.27058 -0.170744,-0.55033 -0.02822,-0.79551 0.05997,-0.10337 0.119944,-0.25718 0.103363,-0.38312 -0.05292,-0.40675 -0.217663,-0.67522 -0.1143,-1.11548 0.05786,-0.24765 0.183798,-0.44168 0.216959,-0.69956 0.0173,-0.14465 -0.09489,-0.40994 -0.119229,-0.54223 -0.03775,-0.21025 0.140758,-0.60007 0.150989,-0.83714 0.0035,-0.0854 -0.0042,-0.17498 -0.02011,-0.26317 0.08149,0.0917 0.18415,0.17004 0.280459,0.19226 0.374297,0.0826 0.735189,-0.0332 1.038577,0.2921 0.175684,0.18944 0.464256,0.2734 0.703439,0.33408 0.133703,0.0339 0.274814,-0.0384 0.392642,-0.0903 0.389467,-0.17074 0.900642,0.133 1.296811,0.19368 0.227894,0.0339 0.382411,-0.0543 0.596547,-0.12665 0.366536,-0.12347 0.76835,0.0653 1.142647,0.084 0.14605,0.006 0.309033,0.002 0.43815,-0.0811 0.118533,-0.0765 0.219075,-0.16263 0.324556,-0.25858 0.27058,-0.24519 0.555272,-0.20038 0.870655,-0.19227 0.1778,0.004 0.33902,-0.0413 0.494242,-0.12947 0.249414,-0.1397 0.305153,-0.52176 0.644172,-0.50976 0.167569,0.007 0.359833,-0.0773 0.485069,-0.21379 l 0.0049,0.0222 -0.02011,0.037 c -0.02963,0.20673 -0.05045,0.36442 -0.03316,0.56974 0.02222,0.25294 0.296333,0.53199 0.159103,0.79869 -0.03634,0.0695 -0.06174,0.23354 -0.07832,0.31503 -0.07444,0.37324 0.117828,0.73519 0.180975,1.09114 0.05927,0.34114 -0.207081,0.69532 -0.201083,1.05445 0.01164,0.66287 -0.401109,0.80187 -0.738011,1.18004 -0.04586,0.0526 -0.0882,0.12771 -0.09984,0.20003 -0.08396,0.45402 -0.169333,0.83079 -0.691091,0.85231 -0.297039,0.0123 -0.512586,0.0688 -0.615245,0.25082 -0.09631,0.0653 -0.191558,0.133 -0.287161,0.19756 -0.402166,0.19403 -0.89288,0.18168 -1.3716,0.16933 -0.862541,-0.0226 -1.684866,-0.0448 -1.871838,1.14194 -0.04692,0.30198 0.0702,0.54081 0.244827,0.77118 0.05503,0.0716 0.571147,0.15275 0.331259,0.41592 7.14e-4,-0.002 -0.07937,0.0822 -0.08326,0.12065 -0.01588,0.1337 0.07832,0.18204 0.18803,0.22119 0.02752,0.0208 0.05856,0.0399 0.09313,0.0565 0.08467,0.0406 0.149225,0.0847 0.196145,0.17039 l 0.0187,0.084 c -0.0085,0.0543 -0.02611,0.11713 -0.06491,0.1965 -0.03775,0.0825 -0.06103,0.19262 -0.02752,0.27693 l 0.0014,0.0173 0.03528,0.0406 0.0046,0.008 h 0.0021 c 0.101953,0.0854 0.263172,0.0607 0.390878,0.0332 0.01658,-0.0208 0.0254,-0.0469 0.01376,-0.0847 -0.02152,-0.0737 -0.05786,-0.14076 -0.06914,-0.21696 l 0.0028,-0.0173 c -0.06244,-0.19932 0.359833,-0.28398 0.448733,-0.33549 0.182385,-0.10548 0.21343,-0.36865 0.129469,-0.5528 -0.04198,-0.0931 -0.371475,-0.3997 -0.05574,-0.45332 0.132997,-0.0222 0.210608,-0.0512 0.292805,-0.16122 0.121709,-0.16404 -0.122061,-0.4004 -0.216252,-0.53058 0.163689,0.055 0.323497,0.0998 0.456494,0.0716 0.148872,-0.0317 0.288925,-0.0759 0.431447,-0.13088 0.347134,-0.13229 0.680861,0.0268 1.025173,0.0723 0.668513,0.0882 1.555397,-0.16263 2.02318,-0.70908 0.05151,-0.002 0.102658,-0.005 0.149578,-0.0159 0.620536,-0.13899 0.526344,-0.86924 1.106311,-1.0608 0.637469,-0.20955 0.551392,-0.80222 0.5969,-1.38148 0.02399,-0.30268 0.305858,-0.55563 0.35948,-0.85584 0.08819,-0.49742 -0.225072,-0.90064 0.01164,-1.41534 0.119944,-0.25894 0.0829,-0.514 0.0099,-0.78529" />
    <path
       id="path1428"
       style="fill:#f16479;fill-opacity:1;fill-rule:nonzero;stroke:none;stroke-width:0.03527778"
       d="m 39.402707,152.66196 c -0.04904,0.10477 -0.06279,0.24659 -0.08008,0.3623 -0.0695,0.45826 0.281164,0.68368 0.05115,1.19838 -0.07585,0.11924 -0.158397,0.23566 -0.250825,0.34185 -0.04833,0.0564 -0.101247,0.10936 -0.153105,0.16439 l -0.103364,0.127 -0.0088,0.004 -0.0028,0.018 0.01023,0.005 c 0.09031,-0.0677 0.184855,-0.14182 0.271639,-0.22331 -0.03175,0.0663 -0.05997,0.13653 -0.07938,0.22119 -0.136172,0.62371 0.128411,1.00189 -0.61595,1.23825 -0.135114,0.0434 -0.254706,0.097 -0.325967,0.23883 -0.178153,0.35172 -0.239536,0.80434 -0.72143,0.81457 -0.117828,0.003 -0.324909,0.0152 -0.416631,0.10407 l -0.02293,0.0215 c 0.106186,0.0123 0.211666,0.0169 0.317852,0.0205 h 0.0095 c -0.482247,0.42227 -1.171222,0.52634 -1.768122,0.56832 -0.131939,0.01 -0.290336,-0.0138 -0.452614,-0.0378 -0.244475,-0.0356 -0.497416,-0.0716 -0.67945,0.008 -0.30233,0.13406 -0.577144,0.19615 -0.905227,0.10866 -0.153106,-0.0413 -0.402519,-0.23213 -0.548569,-0.2226 -0.19297,0.0109 -0.279753,0.0988 -0.385587,0.26811 l 0.01976,0.0138 c 0.09313,-0.1136 0.213784,-0.14394 0.346075,-0.13582 -0.0049,0.049 -0.0014,0.10195 -0.0187,0.15028 -0.02082,0.0621 -0.140758,0.22401 -0.219075,0.20179 l -0.0021,0.004 c 0.05856,0.0476 0.153812,-0.0413 0.198967,-0.0797 0.07726,-0.0628 0.119945,-0.16193 0.132997,-0.26353 0.115359,0.0215 0.236361,0.0628 0.3556,0.10231 0.02434,0.10054 0.08467,0.16192 0.147461,0.25329 0.297744,0.43286 -0.310091,0.34396 -0.404283,0.46673 -0.126294,0.16263 0.02399,0.23565 0.125942,0.35595 l 0.0081,0.006 0.0092,0.0152 0.01305,0.0152 c 0.07373,0.10795 0.0889,0.18944 0.0702,0.25682 -0.006,0.1069 -0.05785,0.20532 -0.170744,0.26811 -0.134408,0.0723 -0.349956,0.10055 -0.432858,0.23284 l -0.006,0.0367 c -7.15e-4,0.0868 0.09701,0.40146 0.08608,0.40499 -0.07303,0.0166 -0.243417,0 -0.319617,-0.0455 -0.139347,-0.14888 0.08114,-0.35208 0.05927,-0.51788 l -0.02857,-0.0635 -0.0088,-0.0247 c -0.08749,-0.11042 -0.214136,-0.18415 -0.336197,-0.2413 -0.05574,-0.0268 -0.110772,-0.0759 -0.09172,-0.14887 0.0187,-0.073 0.07161,-0.11642 0.103364,-0.18239 l 0.02434,-0.0318 c 0.07479,-0.1778 -0.05821,-0.26458 -0.282575,-0.35066 -0.420511,-0.16122 -0.377825,-0.70767 -0.295628,-1.05375 0.110772,-0.4706 0.490714,-0.70979 0.922514,-0.73166 0.378178,-0.0201 0.770467,0.0208 1.150056,0.0346 0.323144,0.0102 0.628297,-0.0303 0.896408,-0.16122 0.07585,-0.0346 0.150284,-0.0744 0.219781,-0.11783 0.06738,-0.042 0.125236,-0.091 0.180622,-0.14146 -0.02893,0.0974 -0.03739,0.21661 -0.01517,0.37712 l 0.02117,0.0162 c 0.0099,-0.17498 0.06632,-0.30021 0.158045,-0.38982 0.05644,-0.0656 0.129469,-0.10901 0.214136,-0.13794 0.144639,-0.06 0.319616,-0.0892 0.497416,-0.11359 0.493889,-0.0674 0.517525,-0.50095 0.54857,-0.88336 0.006,-0.0709 0.05151,-0.14393 0.09278,-0.19826 0.23107,-0.29492 0.557389,-0.37571 0.786342,-0.65616 0.01728,-0.0384 0.03104,-0.0769 0.04127,-0.11642 0.05256,0.0889 0.126647,0.16969 0.230364,0.23213 l 0.01235,-0.004 0.01376,-0.0208 -0.0056,-0.007 c -0.03528,0.0275 -0.148167,-0.27658 -0.161925,-0.30621 -0.0501,-0.10372 -0.07161,-0.22437 -0.0889,-0.3422 -0.05856,-0.43074 0.08396,-0.62583 0.129469,-1.01776 0.04551,-0.4057 -0.237419,-0.75671 -0.21978,-1.16734 0,0.0187 0.16898,-0.36019 0.171802,-0.46779 7.15e-4,-0.0399 0.0018,-0.0716 0.0025,-0.0977 0.07056,0.10795 0.162631,0.20461 0.282575,0.28399 l 0.0187,-0.0194 -0.0063,-0.0236 -0.01093,0.004 c 0.0095,-0.0441 -0.1143,-0.21978 -0.131586,-0.26599 -0.04974,-0.12665 -0.119239,-0.23707 -0.16122,-0.36865 -0.110066,-0.3422 -0.09525,-0.67452 -0.131586,-1.028 0.02752,-0.0875 0.07444,-0.16263 0.150989,-0.20814 0.06385,-0.0385 0.105481,-0.0907 0.136172,-0.14922 l 0.01517,-0.009 c 0.0381,-0.0296 0.05785,-0.0861 0.07726,-0.13018 0.0441,-0.0977 0.05997,-0.21555 0.09737,-0.3175 0.02822,-0.0773 0.0762,-0.1277 0.132291,-0.1711 0.149225,-0.0688 0.359481,-0.10054 0.331964,-0.32984 -0.0063,-0.049 -0.01235,-0.0967 -0.01799,-0.14323 0.04128,0.007 0.08819,-0.005 0.125589,-0.0286 0.08184,-0.0508 0.121708,-0.1143 0.14605,-0.2106 l -0.0021,-0.001 c -0.03316,0.0646 -0.06879,0.11571 -0.131586,0.14816 -0.05327,0.0282 -0.09666,0.0205 -0.14605,0.0123 -0.0056,-0.0663 -0.0063,-0.133 7.14e-4,-0.20249 0.0067,-0.0614 0.02611,-0.11325 0.05574,-0.15805 -0.07514,0.06 -0.129469,0.14288 -0.143228,0.25929 -0.02223,0.18592 0.17145,0.48155 -0.1524,0.51965 -0.07938,0.008 -0.150989,0.0624 -0.202494,0.12311 -0.04904,0.055 -0.06844,0.12559 -0.07726,0.19721 l -0.01658,0.0349 c -0.03634,0.10054 -0.0448,0.23178 -0.104069,0.31997 -0.02399,0.0176 -0.05503,0.0321 -0.0949,0.0406 -0.164041,0.0349 -0.217311,0.22578 -0.274461,0.39829 -0.243769,0.39476 -0.768702,0.12241 -0.974725,0.53128 -0.333022,0.65864 -0.835025,0.25894 -1.319741,0.51576 l -0.02963,0.0166 c 0.05821,-0.0723 0.106187,-0.15346 0.13582,-0.254 l -0.006,-0.001 c -0.07302,0.139 -0.220486,0.24377 -0.335139,0.34361 -0.0702,0.0614 -0.132292,0.12947 -0.186619,0.2032 l -0.05503,0.0455 c -0.3032,0.25574 -0.809789,0.0903 -1.133639,0.0113 -0.218017,-0.0533 -0.431095,0.007 -0.644878,0.0674 -0.190147,0.0536 -0.381,0.10724 -0.576792,0.0815 -0.402519,-0.0533 -0.801864,-0.35772 -1.200856,-0.15452 -0.254352,0.12806 -0.675216,0.0208 -0.92463,-0.16933 l -0.07937,-0.085 c -0.09419,-0.11007 -0.310797,-0.381 -0.262467,-0.54645 h -0.0035 c -0.0515,0.1016 -0.01658,0.24271 0.03175,0.36406 -0.03563,-0.0215 -0.07303,-0.0381 -0.109713,-0.0413 -0.09842,-0.01 -0.197203,-0.006 -0.294217,-0.002 -0.280455,0.0116 -0.54645,0.0233 -0.744005,-0.29316 -0.08749,-0.13864 -0.09984,-0.37007 -0.217664,-0.48331 -0.158397,-0.15205 -0.463197,-0.19156 -0.562328,-0.38347 -0.131586,-0.25294 -0.03775,-0.55809 0.01058,-0.82268 l -0.0071,3.5e-4 c -0.04833,0.16263 -0.143225,0.42933 -0.146047,0.6611 -0.03739,-0.0332 -0.07303,-0.0663 -0.09737,-0.11712 -0.05433,-0.11465 -0.08855,-0.27305 -0.01693,-0.38947 l -0.0035,-7.1e-4 c -0.06738,0.0794 -0.102658,0.24059 -0.07232,0.34325 0.03034,0.10478 0.08326,0.24095 0.195792,0.25683 0.01164,0.0938 0.04128,0.1778 0.105833,0.242 0.07796,0.0766 0.16898,0.0917 0.265289,0.11783 0.254353,0.0702 0.307269,0.32314 0.401814,0.52352 0.0187,0.0392 0.04621,0.0829 0.07937,0.12488 0.0321,0.27411 -0.07056,0.54081 -0.136525,0.81069 -0.0254,0.0519 -0.04763,0.10266 -0.07232,0.15522 -0.03951,0.0825 -0.145345,0.29563 -0.258587,0.26529 l -0.0028,0.004 c 0.08643,0.0522 0.192264,-0.0642 0.244828,-0.12488 l 0.04692,-0.0653 c -0.0071,0.0819 0.04198,0.21343 0.06315,0.28646 0.110419,0.35842 -0.04198,0.72566 -0.175683,1.05974 l -0.0053,0.0173 c -0.06844,0.0759 -0.131586,0.1584 -0.150989,0.26317 -0.01093,0.0621 -0.02611,0.20532 0.02328,0.25612 l 0.01447,-0.0123 c -0.0314,-0.0751 0.04092,-0.25153 0.07303,-0.3108 -0.01693,0.31433 0.186266,0.55139 0.167569,0.85302 -0.01376,0.21519 -0.117828,0.41628 -0.143228,0.6223 0.08184,0.2219 0.29845,0.65334 -0.108302,0.77787 -0.03246,0.0109 -0.07444,0.0275 -0.09631,0.0557 -0.06773,0.0836 -0.07867,0.22331 -0.05927,0.32668 0.02469,0.13017 0.04269,0.25294 0.05292,0.37676 0.03845,0.21943 0.05256,0.48401 -0.125942,0.5715 -0.139347,0.0688 -0.283281,-0.0455 -0.285397,-0.20284 -0.0014,-0.12877 0.04339,-0.2466 0.07938,-0.36654 l 0.0053,-0.0183 c 0.01658,-0.0579 0.03034,-0.11712 0.03387,-0.17851 l 0.0095,-0.0332 v -0.006 c 0.01058,-0.0921 -0.0067,-0.1916 -0.04128,-0.28297 -0.01023,-0.16404 -0.06668,-0.2406 -0.21343,-0.36654 -0.162631,-0.14005 -0.359128,-0.18062 -0.424392,-0.45826 -0.02223,-0.096 0.02611,-0.11923 -0.06632,-0.19226 -0.21837,-0.17216 -0.385233,-0.34784 -0.494595,-0.55598 -0.111125,-0.12982 -0.182738,-0.29104 -0.190147,-0.49883 -0.0056,-0.18838 0.04057,-0.41768 0.03351,-0.62582 l 0.01658,0.0339 c 0.04269,0.0889 0.139348,0.25541 0.119239,0.35807 l 0.0063,-3.5e-4 c 0.03246,-0.0924 -0.02011,-0.21166 -0.0381,-0.30339 -0.02752,-0.13899 -0.09701,-0.28716 -0.172155,-0.40569 l -0.0088,-0.006 c -0.0441,-0.10196 -0.07373,-0.18381 -0.07127,-0.28399 -0.03563,-0.31327 0.262114,-0.68545 0.286103,-1.00577 v -7.2e-4 c 0.03986,0.0483 0.08396,0.091 0.139347,0.12206 l 0.01835,-0.0272 c -0.06738,-0.0674 -0.124531,-0.15417 -0.172861,-0.25012 -0.04128,-0.19156 -0.158397,-0.37818 -0.126647,-0.60325 0.03563,-0.24942 0.147461,-0.47061 0.250119,-0.69462 0.05151,-0.23107 0.0956,-0.45755 0.08819,-0.71191 -0.0085,-0.22789 -0.02575,-0.51047 0.08608,-0.71931 0.06138,-0.1136 0.134409,-0.19826 0.215547,-0.26176 0.03387,-0.0353 0.0702,-0.0716 0.115006,-0.1083 v -0.001 c 0.07232,-0.0254 0.150283,-0.0328 0.228953,-0.0328 0.201789,-0.0325 0.42298,0 0.638528,0.0473 -0.124531,-0.0797 -0.2921,-0.12806 -0.46355,-0.13406 0.307269,-0.0416 0.60078,-0.19649 0.890763,0.0667 0.05397,0.0483 0.134409,0.17145 0.221192,0.27834 l 0.01235,0.024 c 0.03034,0.0628 0.05927,0.12841 0.08678,0.19297 0.02223,0.0476 0.06421,0.10901 0.06138,0.16334 l 0.0194,0.002 c 0.03634,-0.0565 0.0194,-0.14464 -0.0049,-0.2219 l 0.04198,0.0152 c 0.412044,0.0557 0.689328,-0.0667 1.047397,0.248 0.1778,0.15522 0.246592,0.33549 0.400403,0.46108 -0.05433,-7.1e-4 -0.109714,7.2e-4 -0.162631,0.01 l -0.0056,0.0222 c 0.142875,0.0317 0.278342,0.0681 0.415573,0.0928 0.297038,0.0959 0.547863,0.12841 0.818444,0.33831 0.206022,0.15875 0.429331,0.17639 0.667103,0.133 0.263877,-0.0473 0.320322,-0.14993 0.6477,-0.0688 0.157691,0.0385 0.290689,0.13652 0.456141,0.16122 0.239889,0.0374 0.417689,0.0324 0.628297,-0.10055 0.26035,-0.16545 0.484364,-0.28469 0.795867,-0.23212 0.0702,0.0116 0.177094,0.0212 0.25153,0.005 0.207434,0.0137 0.451203,-0.055 0.550687,-0.23883 l -0.0071,-0.004 c -0.04974,0.0557 -0.133702,0.073 -0.21343,0.0868 l 0.05644,-0.067 c 0.0755,-0.12524 0.06103,-0.0949 0.10795,-0.23495 0.104775,-0.31468 0.379589,-0.2099 0.581731,-0.29527 0.07514,-0.0318 0.135819,-0.0692 0.192264,-0.11254 0,0.0607 0.0018,0.12947 -0.0127,0.17921 l 0.02716,0.0116 c 0.0702,-0.0737 0.107245,-0.19473 0.140406,-0.29139 0.03387,-0.10125 0.101247,-0.18662 0.138642,-0.28575 0.182386,-0.2787 0.383822,-0.3295 0.693208,-0.40393 0.06526,-0.0159 0.142522,-0.0628 0.192617,-0.12206 0.01129,0.0709 0.02963,0.14076 0.05609,0.18944 l 0.01517,-0.008 c -0.01799,-0.1136 0.01834,-0.24871 0.02681,-0.3616 l 0.01023,-0.0579 c 0.01305,-0.0416 0.0254,-0.0822 0.03704,-0.12842 0.139348,-0.58384 1.042812,-0.72919 1.336323,-0.26281 0.08678,0.13864 0.183797,0.20461 0.319616,0.24341 0.112889,0.0917 0.233539,0.18133 0.315384,0.30551 0.228247,0.34219 -0.08925,0.66498 0.01376,1.01071 0.109008,0.36371 0.359128,0.30727 0.191558,0.88829 -0.03563,0.12241 -0.06738,0.21273 -0.08537,0.32314 -0.106186,0.18239 -0.135114,0.40852 -0.10795,0.61878 l 0.02999,-0.01 c 0.01658,-0.11219 0.04833,-0.21908 0.08573,-0.32315 l 0.01658,0.0504 c 0.162631,0.2981 0.14605,0.59725 0.0321,0.92604 -0.07302,0.2099 -0.09278,0.31891 -0.01764,0.53375 0.12947,0.36336 0.194734,0.61207 0.02681,0.97649" />
    <path
       id="path1430"
       style="fill:#b71d43;fill-opacity:1;fill-rule:nonzero;stroke:none;stroke-width:0.03527778"
       d="m 32.730621,160.32252 c -0.0014,0 -0.0028,0 -0.0039,0 0.0011,0 0.0025,0 0.0039,0 v 0 m 3.44e-4,0 c 0.0254,0 0.04833,-0.002 0.06597,-0.005 -0.01764,0.004 -0.04057,0.005 -0.06597,0.005 m 0.06844,-0.006 c 7.15e-4,-3.4e-4 0.0018,-3.4e-4 0.0025,-7.1e-4 7.15e-4,0 7.15e-4,-0.001 7.15e-4,-0.003 0,0.002 0,0.003 -7.15e-4,0.003 -7.14e-4,3.4e-4 -0.0018,3.4e-4 -0.0025,7.1e-4 m -0.305505,-0.0399 c -0.0035,-0.001 -0.0067,-0.003 -0.0099,-0.005 0.0032,0.002 0.0063,0.004 0.0099,0.005 m 0.21343,-2.01824 c 0,0 -3.44e-4,0 -7.14e-4,0 3.44e-4,0 7.14e-4,0 7.14e-4,0 v 0 m 0.0081,-3.5e-4 c 0.04762,-0.005 0.102658,-0.0512 0.138642,-0.0822 -0.03598,0.031 -0.09102,0.0773 -0.138642,0.0822 m -0.04445,-0.0113 c 0,0 0,0 -3.44e-4,0 3.44e-4,0 3.44e-4,0 3.44e-4,0 m -0.0011,-7.1e-4 v 0 0 m -0.0011,-7.2e-4 c -3.44e-4,-3.4e-4 -3.44e-4,-3.4e-4 -7.14e-4,-7.1e-4 3.44e-4,3.4e-4 3.44e-4,3.4e-4 7.14e-4,7.1e-4 m 0.01658,-0.002 v 0 0 0 m 0.0018,0 c 0.07796,-0.002 0.182739,-0.14605 0.202142,-0.2039 0.01729,-0.0483 0.01376,-0.10125 0.0187,-0.15029 v 0 c -0.0049,0.049 -0.0014,0.10196 -0.0187,0.15029 -0.0194,0.0579 -0.124178,0.20179 -0.202142,0.2039 m 0.168275,-0.0684 c 3.44e-4,-3.4e-4 0.0011,-7.1e-4 0.0014,-0.001 -3.44e-4,3.5e-4 -0.0011,7.2e-4 -0.0014,0.001 m 0.0032,-0.002 c 3.44e-4,-3.4e-4 7.14e-4,-7.1e-4 0.0011,-0.001 -3.44e-4,3.5e-4 -7.14e-4,7.2e-4 -0.0011,0.001 m 0.0018,-0.002 c 0.0018,-10e-4 0.0032,-0.002 0.0046,-0.004 -0.0014,0.001 -0.0028,0.002 -0.0046,0.004 m -0.29845,-0.1457 c 0.08361,-0.10195 0.189089,-0.13687 0.305153,-0.13687 -0.116064,0 -0.221545,0.0349 -0.305153,0.13687 m -0.01976,-0.0138 v 0 c 0.105833,-0.16933 0.192617,-0.25717 0.385586,-0.26811 0.0035,0 0.0074,-3.4e-4 0.01094,-3.4e-4 -0.0035,0 -0.0074,3.4e-4 -0.01094,3.4e-4 -0.192969,0.0109 -0.279753,0.0988 -0.385586,0.26811 m 1.23437,-0.005 c -3.44e-4,0 -3.44e-4,0 -7.14e-4,0 3.43e-4,0 3.43e-4,0 7.14e-4,0 v 0 m 0.0014,0 c 0.189442,-3.4e-4 0.367948,-0.0494 0.555625,-0.12841 -0.187677,0.079 -0.366183,0.12806 -0.555625,0.12841 m -0.301625,-0.0406 v 0 c -0.0053,-0.001 -0.01023,-0.003 -0.01588,-0.005 0.0056,0.002 0.01058,0.003 0.01588,0.005 v 0 m -0.01658,-0.005 c -0.0021,-7.1e-4 -0.0042,-0.001 -0.0063,-0.002 0.0021,7.2e-4 0.0042,0.001 0.0063,0.002 m -0.0081,-0.002 c -0.149937,-0.0518 -0.373245,-0.21553 -0.512945,-0.21553 v 0 c 0.1397,0 0.363008,0.16369 0.512939,0.21555 m 1.997075,-0.0695 c -0.0011,0 -0.0018,0 -0.0028,0 0.0011,0 0.0018,0 0.0028,0 v 0 m 3.44e-4,0 c 0.01799,0 0.03528,-3.4e-4 0.05256,-0.001 -0.01729,0.001 -0.03457,0.001 -0.05256,0.001 m -2.580922,-7.1e-4 v 0 0 0 m 1.465791,-0.0106 c 0.0032,-10e-4 0.006,-0.002 0.0092,-0.004 -0.0032,0.001 -0.006,0.002 -0.0092,0.004 m 0.02011,-0.008 c 0.0018,-7.2e-4 0.0032,-0.001 0.0049,-0.002 -0.0018,7.1e-4 -0.0032,0.001 -0.0049,0.002 m 0.01199,-0.005 c 7.15e-4,-3.5e-4 0.0014,-7.2e-4 0.0025,-0.001 -0.0011,3.4e-4 -0.0018,7.1e-4 -0.0025,0.001 m 0.775053,-0.004 c -7.14e-4,0 -0.0014,0 -0.0021,0 7.15e-4,0 0.0014,0 0.0021,0 m -0.765881,-7.2e-4 c 0.0021,-7.1e-4 0.0042,-0.002 0.0063,-0.002 0.0011,-7.1e-4 0.0021,-0.001 0.0028,-0.001 -7.14e-4,3.5e-4 -0.0018,7.2e-4 -0.0028,0.001 -0.0021,7.2e-4 -0.0042,0.002 -0.0063,0.002 m 0.754945,-7.1e-4 c -0.0085,-0.001 -0.01728,-0.002 -0.02611,-0.004 0.0088,0.001 0.01764,0.003 0.02611,0.004 m -0.744361,-0.004 c 0.0018,-7.2e-4 0.0035,-0.001 0.0049,-0.002 -0.0014,7.1e-4 -0.0032,0.001 -0.0049,0.002 m 0.0056,-0.002 c 0.07832,-0.0325 0.169333,-0.0441 0.267053,-0.0441 -0.09772,0 -0.188736,0.0116 -0.267053,0.0441 m 0.695325,-3.5e-4 c -3.44e-4,0 -7.14e-4,0 -7.14e-4,0 0,0 3.44e-4,0 7.14e-4,0 m -0.0042,-7.1e-4 c -0.0071,-0.001 -0.01446,-0.002 -0.02152,-0.003 -0.0085,-0.001 -0.01729,-0.002 -0.02575,-0.004 0.0085,0.001 0.01729,0.002 0.02575,0.004 0.0071,10e-4 0.01446,0.002 0.02152,0.003 m -0.422628,-0.043 c -3.44e-4,0 -0.0011,0 -0.0014,0 v 0 c 3.44e-4,0 0.0011,0 0.0014,0 m -0.867481,-0.84878 c -3.43e-4,0 -3.43e-4,0 -3.43e-4,0 0,0 0,0 3.43e-4,0 v 0 m 0.0014,0 c 0.280458,0 0.545394,-0.0427 0.782108,-0.15381 -0.236714,0.11112 -0.50165,0.15381 -0.782108,0.15381 m -0.0956,-10e-4 c -0.0028,-3.5e-4 -0.006,-3.5e-4 -0.0088,-3.5e-4 0.0028,0 0.006,0 0.0088,3.5e-4 m -0.04092,-0.002 c -0.01517,-7.2e-4 -0.03034,-0.001 -0.04516,-0.002 0.01482,7.1e-4 0.02999,0.001 0.04516,0.002 m -0.04798,-0.002 c -0.0046,0 -0.0092,-3.5e-4 -0.01376,-7.2e-4 0.0046,3.5e-4 0.0092,7.2e-4 0.01376,7.2e-4 m -0.07161,-0.004 c -0.03175,-0.001 -0.06315,-0.003 -0.0949,-0.005 0.03175,0.002 0.06315,0.004 0.0949,0.005 m -0.989541,-0.0272 c 0.07232,-0.004 0.144991,-0.005 0.217664,-0.005 -0.07267,0 -0.145345,10e-4 -0.217664,0.005 m 0.21978,-0.005 c -7.14e-4,0 -0.0011,0 -0.0018,0 h 3.44e-4 c 3.44e-4,0 7.15e-4,0 0.0014,0 m 1.812572,-0.11466 c 0.0046,-0.002 0.0095,-0.005 0.01411,-0.007 -0.0046,0.002 -0.0095,0.005 -0.01411,0.007 m -6.902755,-0.0744 c -7.14e-4,0 -0.0011,0 -0.0018,0 7.14e-4,0 0.0011,0 0.0018,0 v 0 m 3.44e-4,0 c 0.02752,0 0.05609,-0.007 0.08431,-0.0205 0.115005,-0.0565 0.14993,-0.18662 0.150283,-0.33055 -3.44e-4,0.14393 -0.03528,0.27411 -0.150283,0.33055 -0.02822,0.0138 -0.0568,0.0205 -0.08431,0.0205 m -0.08255,-0.78669 0.0095,-0.036 v 0.003 l -0.0095,0.0332 m 10.000543,-1.29963 -0.0056,-0.007 c -0.0014,0.001 -0.0032,0.002 -0.0049,0.002 0.0018,0 0.0035,-7.2e-4 0.0049,-0.002 l 0.0056,0.007 m -0.01058,-0.005 c -0.03528,0 -0.121708,-0.22155 -0.149578,-0.29034 0.02787,0.0688 0.1143,0.29034 0.149578,0.29034 v 0 m -0.150989,-0.29387 c -0.0011,-0.002 -0.0018,-0.004 -0.0025,-0.006 7.14e-4,0.002 0.0014,0.004 0.0025,0.006 m -0.0032,-0.007 c 0,-3.4e-4 0,-3.4e-4 0,-3.4e-4 0,0 0,0 0,3.4e-4 m -11.373877,-2.07436 c 0,-0.30162 0.266347,-0.64981 0.288925,-0.95285 v 7.2e-4 c -0.02258,0.30233 -0.288925,0.65052 -0.288925,0.95214 m 11.192227,-0.45896 v 0 0 0 m -9.261475,-0.0349 c 0,0 0,0 -3.44e-4,0 3.44e-4,0 3.44e-4,0 3.44e-4,0 v 0 m 0.0028,0 c 0.07091,-0.002 0.14605,-0.0815 0.189442,-0.13158 -0.04339,0.0501 -0.118533,0.12947 -0.189442,0.13158 m -0.04586,-0.0113 v 0 0 m -0.0028,-0.001 c -3.44e-4,0 -7.14e-4,-3.4e-4 -0.0011,-3.4e-4 3.44e-4,0 7.15e-4,3.4e-4 0.0011,3.4e-4 m 0.02399,-0.002 v 0 0 0 m 0.0014,0 c 0.09525,-0.001 0.182386,-0.16086 0.22472,-0.24694 -0.04233,0.0861 -0.12947,0.24553 -0.22472,0.24694 m 0.213785,-0.11818 c 0.0011,-0.001 0.0021,-0.002 0.0028,-0.004 -7.14e-4,0.001 -0.0018,0.002 -0.0028,0.004 m 0.01341,-0.1337 c 0,-3.5e-4 3.44e-4,-0.001 3.44e-4,-0.001 0,3.4e-4 -3.44e-4,0.001 -3.44e-4,0.001 m 0.0014,-0.003 c 7.15e-4,-0.001 0.0014,-0.003 0.0021,-0.004 -7.14e-4,0.001 -0.0014,0.003 -0.0021,0.004 m 0.0039,-0.008 c 7.15e-4,-0.002 0.0014,-0.004 0.0025,-0.005 0.02469,-0.0526 0.04692,-0.10337 0.07232,-0.15523 0.0575,-0.23495 0.142875,-0.46778 0.142523,-0.7052 3.44e-4,0.23742 -0.08502,0.47025 -0.142523,0.7052 -0.0254,0.0519 -0.04763,0.10266 -0.07232,0.15523 -0.0011,0.002 -0.0018,0.004 -0.0025,0.005 m 3.967696,-0.11007 c -3.44e-4,0 -7.14e-4,0 -0.0011,0 3.44e-4,0 7.14e-4,0 0.0011,0 v 0 m 0.0056,0 c 0.07796,-7.1e-4 0.155575,-0.0116 0.232833,-0.0279 -0.07726,0.0162 -0.154869,0.0272 -0.232833,0.0279 m -0.09878,-0.005 c -0.0039,-7.1e-4 -0.0078,-0.001 -0.01164,-0.001 -0.0018,-3.4e-4 -0.0035,-7.1e-4 -0.0053,-7.1e-4 0.0018,0 0.0035,3.4e-4 0.0053,7.1e-4 0.0039,3.5e-4 0.0078,7.2e-4 0.01164,0.001 m -0.02117,-0.003 c -0.0088,-0.001 -0.01729,-0.002 -0.02575,-0.004 0.0085,0.002 0.01693,0.003 0.02575,0.004 m -0.02611,-0.004 c -0.112179,-0.0187 -0.22401,-0.055 -0.33584,-0.0931 0.11183,0.0381 0.223661,0.0744 0.335844,0.0931 m 5.391855,-0.0152 c 0,-0.001 3.44e-4,-0.002 3.44e-4,-0.003 0,10e-4 -3.44e-4,0.002 -3.44e-4,0.003 m -3.437819,-0.002 c -3.44e-4,0 -7.15e-4,0 -0.0014,0 7.15e-4,0 0.0011,0 0.0014,0 v 0 m 7.14e-4,0 c 0.156281,0 0.305153,-0.0328 0.424392,-0.12736 -0.119239,0.0945 -0.268111,0.12736 -0.424392,0.12736 m 3.438172,-0.008 c 3.44e-4,-0.002 3.44e-4,-0.005 3.44e-4,-0.007 0,0.002 0,0.005 -3.44e-4,0.007 m -6.824469,-0.0681 c -7.14e-4,0 -0.0018,0 -0.0025,0 7.15e-4,0 0.0018,0 0.0025,0 v 0 m 7.15e-4,0 c 0.09278,0 0.180622,-0.0155 0.254705,-0.0504 -0.07444,0.0349 -0.161925,0.0504 -0.254705,0.0504 m 2.755194,-0.0335 c -0.0018,-3.4e-4 -0.0039,-7.1e-4 -0.0056,-10e-4 0.0018,7.1e-4 0.0039,10e-4 0.0056,10e-4 m -0.03034,-0.008 c -0.0014,-3.4e-4 -0.0032,-7.1e-4 -0.0046,-0.001 0.0014,3.4e-4 0.0028,7.1e-4 0.0046,0.001 m -0.01058,-0.002 c -7.15e-4,0 -0.0011,-3.4e-4 -0.0018,-3.4e-4 7.14e-4,0 0.0011,3.4e-4 0.0018,3.4e-4 m -0.0078,-0.002 c -0.0014,-3.4e-4 -0.0028,-7.1e-4 -0.0046,-10e-4 0.0018,3.4e-4 0.0032,7.1e-4 0.0046,10e-4 m -0.417335,0 c 0.07126,-0.0145 0.142522,-0.024 0.214136,-0.0247 -0.07161,7.1e-4 -0.142875,0.0102 -0.214136,0.0247 m 0.412749,-10e-4 c -0.0014,-3.4e-4 -0.0032,-7.1e-4 -0.0046,-0.001 0.0014,3.4e-4 0.0032,7.1e-4 0.0046,0.001 m -0.0046,-0.001 c -0.0014,-3.4e-4 -0.0032,-7.1e-4 -0.0046,-0.001 0.0014,3.4e-4 0.0032,7.1e-4 0.0046,0.001 m -0.0046,-0.001 c -0.0018,-3.4e-4 -0.0032,-7.1e-4 -0.0046,-0.001 v 0 0 c 0.0014,3.4e-4 0.0028,7.1e-4 0.0046,0.001 m -0.0081,-0.002 c -7.14e-4,0 -0.0014,-3.4e-4 -0.0025,-3.4e-4 0.0011,0 0.0018,3.4e-4 0.0025,3.4e-4 m 1.130653,-0.005 c 7.14e-4,-3.4e-4 0.0011,-0.001 0.0018,-0.001 -7.15e-4,3.4e-4 -0.0011,0.001 -0.0018,0.001 m -3.541536,-0.004 c 0.0949,-0.0466 0.189794,-0.0649 0.284692,-0.0649 -0.0949,0 -0.189795,0.0183 -0.284692,0.0649 m 2.24155,-0.0109 c -0.0014,0 -0.0025,0 -0.0035,0 v 0 c 0.0011,0 0.0021,0 0.0035,0 m -1.955042,-0.054 c -3.44e-4,0 -7.15e-4,0 -0.0014,0 v 0 c 7.14e-4,0 0.0011,0 0.0014,0 m -1.209675,-0.0931 c -7.15e-4,-3.5e-4 -0.0014,-10e-4 -0.0021,-10e-4 7.14e-4,3.4e-4 0.0014,10e-4 0.0021,10e-4 m -0.0056,-0.004 v 0 0 m -0.317504,-0.27024 c -0.03563,-0.0215 -0.07303,-0.0381 -0.109713,-0.0413 -0.0063,-7.1e-4 -0.01305,-0.001 -0.01976,-0.002 0.0067,3.4e-4 0.01341,10e-4 0.01976,0.002 0.03669,0.003 0.07408,0.0198 0.109713,0.0413 v 0 m -0.559858,-0.0388 c -0.01693,0 -0.03387,0 -0.0508,-7.2e-4 0.01693,7.2e-4 0.03387,7.2e-4 0.0508,7.2e-4 v 0 m 0.4191,-0.005 c -0.03457,-0.002 -0.0695,-0.003 -0.104069,-0.003 v 0 c 0.03457,0 0.0695,7.1e-4 0.104069,0.003 m -0.118886,-0.003 c 0.0025,0 0.0053,0 0.0078,0 -0.0025,0 -0.0053,0 -0.0078,0 m -0.873125,-0.26564 c -0.0011,-10e-4 -0.0021,-0.003 -0.0028,-0.005 7.14e-4,0.001 0.0018,0.003 0.0028,0.005 m -0.0042,-0.006 c -0.0035,-0.006 -0.0074,-0.0113 -0.01094,-0.0169 -0.08749,-0.13864 -0.09984,-0.37007 -0.217664,-0.48331 -0.158397,-0.15205 -0.463197,-0.19156 -0.562327,-0.38347 -0.04974,-0.096 -0.06738,-0.19932 -0.06738,-0.30515 0,0.10583 0.01764,0.2092 0.06738,0.30515 0.09913,0.19191 0.403931,0.23142 0.562328,0.38347 0.117828,0.11324 0.130175,0.34467 0.217664,0.48331 0.0035,0.006 0.0074,0.0113 0.01093,0.0169 m 4.710641,-0.59161 c -3.44e-4,0 -3.44e-4,0 -7.14e-4,0 3.44e-4,0 3.44e-4,0 7.14e-4,0 v 0 m 7.15e-4,0 c 0.137583,-3.4e-4 0.261761,-0.0307 0.399697,-0.11641 -0.137936,0.0857 -0.262114,0.11606 -0.399697,0.11641 m -0.19932,-0.0166 c -3.44e-4,-3.4e-4 -7.14e-4,-3.4e-4 -0.0011,-3.4e-4 3.44e-4,0 7.15e-4,0 0.0011,3.4e-4 m -0.0063,-0.001 c -0.0039,-7.1e-4 -0.0078,-0.001 -0.01199,-0.002 0.0042,7.2e-4 0.0081,0.001 0.01199,0.002 m -1.327502,-0.0744 c -3.44e-4,0 -0.0011,0 -0.0014,0 3.43e-4,0 0.0011,0 0.0014,0 v 0 m 7.14e-4,0 c 0.06773,0 0.136878,-0.007 0.20708,-0.0205 -0.0702,0.013 -0.139347,0.0205 -0.20708,0.0205 m 0.20708,-0.0205 c 0.0021,-3.5e-4 0.0042,-7.2e-4 0.006,-0.001 -0.0018,3.4e-4 -0.0039,7.1e-4 -0.006,0.001 m 0.0194,-0.004 c 0.0014,-3.5e-4 0.0032,-7.2e-4 0.0046,-0.001 -0.0014,3.4e-4 -0.0032,7.1e-4 -0.0046,0.001 m 0.01129,-0.002 c 7.15e-4,-3.5e-4 0.0014,-3.5e-4 0.0021,-7.2e-4 -7.14e-4,3.5e-4 -0.0014,3.5e-4 -0.0021,7.2e-4 m 0.0056,-0.001 c 0.0011,0 0.0021,-3.5e-4 0.0032,-7.2e-4 -0.0011,3.5e-4 -0.0021,7.2e-4 -0.0032,7.2e-4 m 1.695803,-0.001 c 0.0021,-0.001 0.0042,-0.002 0.006,-0.004 -0.0018,0.001 -0.0039,0.002 -0.006,0.004 m -1.690158,0 c 0.0018,-3.5e-4 0.0035,-0.001 0.0056,-0.001 -0.0021,3.4e-4 -0.0039,0.001 -0.0056,0.001 m 0.01552,-0.004 c 0,0 0,0 3.44e-4,0 -3.44e-4,0 -3.44e-4,0 -3.44e-4,0 m 0.0025,-7.2e-4 c 0.0085,-0.002 0.01693,-0.004 0.02505,-0.006 -0.0081,0.002 -0.01658,0.004 -0.02505,0.006 m 1.680985,-0.001 c 0.0011,-7.1e-4 0.0025,-0.001 0.0035,-0.002 -0.0011,7.2e-4 -0.0025,0.001 -0.0035,0.002 m -1.64853,-0.007 c 0,0 0,0 3.44e-4,0 -3.44e-4,0 -3.44e-4,0 -3.44e-4,0 m 0.0042,-0.001 c 0.129117,-0.0346 0.207433,-0.0773 0.33655,-0.0776 -0.129117,3.5e-4 -0.207433,0.043 -0.33655,0.0776 m 1.666875,-0.006 c 0.0011,-7.1e-4 0.0021,-10e-4 0.0032,-0.002 -0.0011,7.2e-4 -0.0021,0.001 -0.0032,0.002 m 0.0088,-0.006 c 0.201788,-0.12559 0.38488,-0.21907 0.6096,-0.21943 -0.22472,3.5e-4 -0.407812,0.0938 -0.6096,0.21943 m -1.133096,-0.0374 c -0.0011,-3.4e-4 -0.0021,-3.4e-4 -0.0032,-7.1e-4 0.0011,3.4e-4 0.0021,3.4e-4 0.0032,7.1e-4 m -0.0049,-0.001 c -7.15e-4,-3.4e-4 -0.0014,-3.4e-4 -0.0018,-7.1e-4 3.44e-4,3.4e-4 0.0011,3.4e-4 0.0018,7.1e-4 m -0.0032,-7.1e-4 c -0.0014,-3.5e-4 -0.0025,-7.2e-4 -0.0039,-0.001 0.0014,3.4e-4 0.0025,7.1e-4 0.0039,0.001 m -0.196497,-0.0265 c -3.44e-4,0 -3.44e-4,0 -7.15e-4,0 v 0 c 3.44e-4,0 3.44e-4,0 7.15e-4,0 m -1.083376,-0.0201 c -0.0011,-7.1e-4 -0.0018,-0.001 -0.0028,-0.002 0.0011,7.2e-4 0.0018,0.001 0.0028,0.002 m 3.334455,-0.10724 c -3.43e-4,0 -7.14e-4,0 -0.0011,0 3.44e-4,0 7.15e-4,0 0.0011,0 v 0 m 0.0011,0 c 0.03281,0 0.06526,-0.002 0.09278,-0.008 -0.02752,0.006 -0.05997,0.008 -0.09278,0.008 m 0.144286,-0.007 v 0 0 0 m 0.0025,0 c 0.194028,-3.5e-4 0.405695,-0.0727 0.496712,-0.2406 -0.09102,0.16792 -0.302684,0.24024 -0.496712,0.2406 m -0.05045,-0.001 c -0.0014,0 -0.0025,0 -0.0035,-3.5e-4 0.0011,3.5e-4 0.0021,3.5e-4 0.0035,3.5e-4 m -0.242005,-0.004 c -7.15e-4,-3.5e-4 -0.0014,-3.5e-4 -0.0021,-3.5e-4 7.14e-4,0 0.0014,0 0.0021,3.5e-4 m -0.02152,-0.004 c -3.44e-4,0 -7.14e-4,-3.5e-4 -0.0014,-3.5e-4 7.14e-4,0 0.0011,3.5e-4 0.0014,3.5e-4 m -0.136525,-0.0113 c 0,0 0,0 -3.44e-4,0 v 0 c 3.44e-4,0 3.44e-4,0 3.44e-4,0 m -4.273285,-0.3341 c 0.04374,-0.007 0.08855,-0.009 0.13335,-0.009 -0.0448,3.4e-4 -0.08961,0.002 -0.13335,0.009 m 0.157339,-0.009 c -0.0039,0 -0.0078,0 -0.01129,0 0.0035,0 0.0074,0 0.01129,0 v 0 m -0.02222,-3.5e-4 h -3.44e-4 v 0 h 3.44e-4 m -2.290938,-1.09537 c -0.0014,-3.5e-4 -0.0032,-7.2e-4 -0.0046,-0.001 0.0014,3.4e-4 0.0032,7.1e-4 0.0046,0.001 m -0.03034,-0.006 c -0.0014,-3.5e-4 -0.0025,-7.2e-4 -0.0039,-0.001 0.0014,3.4e-4 0.0025,7.1e-4 0.0039,0.001 m -0.836789,-0.008 3.43e-4,-0.002 c 0.0695,-0.0229 0.144639,-0.0307 0.220839,-0.031 -0.07585,3.5e-4 -0.150989,0.008 -0.221191,0.0328 m 0.2286,-0.0328 c 0.05645,-0.009 0.1143,-0.0131 0.172861,-0.0131 -0.05856,0 -0.116417,0.004 -0.172861,0.0131 m 0.17533,-0.0131 c -7.14e-4,0 -0.0014,0 -0.0018,0 v 0 c 3.44e-4,0 0.0011,0 0.0018,0 m 0.887942,-0.009 c -3.44e-4,-3.4e-4 -7.14e-4,-7.1e-4 -0.0011,-0.001 3.44e-4,7.2e-4 7.14e-4,0.001 0.0011,0.001 m -0.0028,-0.003 c -7.14e-4,-3.4e-4 -0.0014,-0.001 -0.0018,-0.001 3.44e-4,3.5e-4 0.0011,0.001 0.0018,0.001 m -0.0021,-0.002 c -0.0032,-0.003 -0.006,-0.005 -0.0092,-0.008 0.0032,0.002 0.006,0.005 0.0092,0.008 m -0.883345,-0.06 c 0.0025,-3.4e-4 0.0046,-7.1e-4 0.0071,-0.001 -0.0025,3.5e-4 -0.0046,7.2e-4 -0.0071,0.001 m 0.01693,-0.002 c 0.0049,-7.1e-4 0.0099,-0.001 0.01482,-0.002 -0.0049,0.001 -0.0099,0.002 -0.01482,0.002 m 0.02293,-0.004 c 3.44e-4,-3.4e-4 7.14e-4,-3.4e-4 0.0011,-3.4e-4 -3.44e-4,0 -7.15e-4,0 -0.0011,3.4e-4 m 0.103716,-0.0201 c 0.123473,-0.0257 0.244475,-0.0568 0.364773,-0.0571 -0.120298,3.5e-4 -0.2413,0.0314 -0.364773,0.0571 m 0.366537,-0.0571 c 0,0 -3.44e-4,0 -7.15e-4,0 v 0 c 3.44e-4,0 7.15e-4,0 7.15e-4,0 m 9.373658,-0.47518 c 0.08502,-0.34432 0.436739,-0.53482 0.769408,-0.53517 -0.332669,3.5e-4 -0.684389,0.19085 -0.769408,0.53517 m 1.334911,-0.25789 c -0.0011,-0.001 -0.0021,-0.003 -0.0032,-0.005 0.0011,10e-4 0.0021,0.003 0.0032,0.005 M 38.018126,146.843 h -3.43e-4 v 0 h 3.43e-4" />
    <path
       id="path1432"
       style="fill:#e94e62;fill-opacity:1;fill-rule:nonzero;stroke:none;stroke-width:0.03527778"
       d="m 32.730621,160.32252 c -0.0014,0 -0.0028,0 -0.0039,0 -0.07655,-3.4e-4 -0.174625,-0.0162 -0.232833,-0.0455 -0.0035,-0.001 -0.0067,-0.003 -0.0099,-0.005 -7.14e-4,-3.4e-4 -0.0014,-7.1e-4 -0.0018,-0.001 v 0 c -0.03387,-0.036 -0.04657,-0.0751 -0.04657,-0.11641 -3.44e-4,-0.1203 0.107244,-0.25682 0.107244,-0.37712 0,-0.008 -3.44e-4,-0.0162 -0.0014,-0.0243 l -0.02858,-0.0635 -0.0088,-0.0247 c -0.08749,-0.11042 -0.214136,-0.18415 -0.336197,-0.2413 -0.04798,-0.0233 -0.09525,-0.0624 -0.0956,-0.11959 0,-0.009 0.0014,-0.0191 0.0039,-0.0293 0.0187,-0.073 0.07161,-0.11642 0.103364,-0.18239 l 0.02434,-0.0318 c 0.01411,-0.0342 0.02081,-0.0649 0.02081,-0.0928 0,-0.11818 -0.121708,-0.18838 -0.303389,-0.25788 -0.270227,-0.10372 -0.348897,-0.36653 -0.34925,-0.63253 0,-0.14817 0.02434,-0.29739 0.05362,-0.42122 0.110772,-0.4706 0.490714,-0.70978 0.922514,-0.73166 v 0 c 0.07232,-0.004 0.144992,-0.005 0.217664,-0.005 3.44e-4,0 3.44e-4,0 3.44e-4,0 7.14e-4,0 0.0011,0 0.0018,0 0.223661,0 0.450144,0.0148 0.674863,0.0275 0.03175,0.002 0.06315,0.004 0.0949,0.005 0.0194,0.001 0.03845,0.002 0.05785,0.003 0.0046,3.5e-4 0.0092,7.2e-4 0.01376,7.2e-4 0.0011,0 0.0018,3.4e-4 0.0028,3.4e-4 0.01482,7.2e-4 0.02999,0.001 0.04515,0.002 0.01058,3.5e-4 0.02117,0.001 0.0321,0.001 0.0028,0 0.006,0 0.0088,3.5e-4 v 0 c 0.0314,0.001 0.06279,0.001 0.09384,0.001 0,0 0,0 3.44e-4,0 v 0 0 c 3.44e-4,0 0.0011,0 0.0014,0 0.280458,0 0.545394,-0.0427 0.782108,-0.15381 0.0018,-7.2e-4 0.0032,-0.001 0.0046,-0.002 0.0046,-0.002 0.0095,-0.005 0.01411,-0.007 v 0 c 0.07585,-0.0346 0.150284,-0.0744 0.219781,-0.11783 0.06738,-0.042 0.125236,-0.091 0.180622,-0.14147 -0.01764,0.0593 -0.02787,0.12665 -0.02787,0.20673 0,0.0511 0.0039,0.1076 0.0127,0.17039 l 0.02117,0.0162 c 0.0099,-0.17497 0.06632,-0.30021 0.158045,-0.38982 0.05644,-0.0656 0.129469,-0.109 0.214136,-0.13793 0.144639,-0.06 0.319616,-0.0892 0.497416,-0.1136 0.493889,-0.0674 0.517525,-0.50094 0.54857,-0.88335 0.006,-0.0709 0.05151,-0.14394 0.09278,-0.19826 0.23107,-0.29493 0.557389,-0.37571 0.786342,-0.65617 0.01728,-0.0385 0.03104,-0.0769 0.04127,-0.11642 0.05256,0.0889 0.126647,0.16969 0.230364,0.23213 l 0.01235,-0.004 0.01376,-0.0208 -0.0056,-0.007 c -0.0014,0.001 -0.0032,0.002 -0.0049,0.002 v 0 c -0.03528,0 -0.121708,-0.22154 -0.149578,-0.29034 -3.43e-4,-0.001 -0.0011,-0.002 -0.0014,-0.004 -0.0011,-0.002 -0.0018,-0.004 -0.0025,-0.006 -3.44e-4,-7.1e-4 -3.44e-4,-0.001 -7.15e-4,-0.002 0,-3.4e-4 0,-3.4e-4 0,-3.4e-4 -0.0011,-0.002 -0.0018,-0.004 -0.0025,-0.005 0,-7.1e-4 -3.44e-4,-0.001 -3.44e-4,-0.001 -0.0501,-0.10372 -0.07161,-0.22437 -0.0889,-0.34219 -0.0095,-0.0709 -0.01376,-0.13512 -0.01376,-0.19509 -7.14e-4,-0.3048 0.105481,-0.49495 0.143228,-0.82268 0.0035,-0.03 0.0049,-0.06 0.0049,-0.0896 3.44e-4,-0.3563 -0.225073,-0.67522 -0.225425,-1.03928 0,-0.0127 3.44e-4,-0.0254 7.14e-4,-0.0384 0,7.1e-4 3.44e-4,7.1e-4 3.44e-4,7.1e-4 v 0 0 0 c 0.0074,0 0.152047,-0.32597 0.169686,-0.44979 0,-0.001 3.44e-4,-0.002 3.44e-4,-0.003 3.44e-4,-0.002 3.44e-4,-0.005 7.14e-4,-0.007 3.44e-4,-0.002 3.44e-4,-0.005 3.44e-4,-0.007 0,-3.5e-4 3.44e-4,-0.001 3.44e-4,-0.002 7.15e-4,-0.0399 0.0018,-0.0716 0.0025,-0.0977 0.07056,0.10795 0.162631,0.20461 0.282575,0.28398 l 0.0187,-0.0194 -0.0064,-0.0236 -0.01093,0.004 c 3.44e-4,-0.002 7.14e-4,-0.004 7.14e-4,-0.006 -7.14e-4,-0.0519 -0.115711,-0.2159 -0.132291,-0.26035 -0.04974,-0.12665 -0.119239,-0.23707 -0.16122,-0.36866 -0.08573,-0.26634 -0.0956,-0.52634 -0.112889,-0.79516 0.0042,0.0656 0.0085,0.13053 0.01376,0.19579 0.01587,-0.091 0.04833,-0.17709 0.112889,-0.25682 0.179916,-0.22613 0.309386,-0.67733 0.5588,-0.82832 0.290689,-0.17427 0.281869,-0.39546 0.428625,-0.68157 0.07655,-0.14605 0.303741,-0.2226 0.385939,-0.34854 0.09137,-0.14182 0.151341,-0.2914 0.202494,-0.4445 -0.170392,0.22613 -0.372886,0.4378 -0.623006,0.43815 -0.08749,0 -0.141816,-0.0307 -0.174977,-0.0826 l -0.0074,0.0346 c -0.0035,0.0346 -0.0049,0.0688 -0.0049,0.10266 v 0 c 0,-0.0339 0.0014,-0.0681 0.0049,-0.10266 0.0067,-0.0614 0.02611,-0.11324 0.05574,-0.15804 v 0 0 c -0.07514,0.06 -0.129469,0.14287 -0.143228,0.25929 -0.0014,0.0106 -0.0018,0.0215 -0.0018,0.0324 0,0.0938 0.03916,0.20744 0.03916,0.30163 0,0.0931 -0.0381,0.16757 -0.189795,0.18556 -0.07938,0.008 -0.150988,0.0624 -0.202494,0.12312 -0.04904,0.055 -0.06844,0.12559 -0.07726,0.1972 l -0.01658,0.0349 c -0.03634,0.10054 -0.0448,0.23177 -0.104069,0.31997 -0.02399,0.0176 -0.05503,0.0321 -0.0949,0.0406 -0.164041,0.0349 -0.217311,0.22577 -0.274461,0.39828 -0.243769,0.39476 -0.768702,0.12242 -0.974725,0.53128 -0.333022,0.65864 -0.835025,0.25894 -1.319741,0.51577 l -0.02963,0.0166 c 0.05821,-0.0723 0.106187,-0.15346 0.13582,-0.254 v 0 0 l -0.006,-10e-4 c -0.07302,0.13899 -0.220486,0.24377 -0.335139,0.3436 -0.0702,0.0614 -0.132292,0.12947 -0.186619,0.2032 l -0.05503,0.0455 v 0 c -0.0014,0.001 -0.0032,0.002 -0.0046,0.004 -7.14e-4,3.4e-4 -0.0011,0.001 -0.0018,0.001 -0.0018,0.001 -0.0035,0.003 -0.0053,0.005 -0.119239,0.0945 -0.268111,0.12735 -0.424392,0.12735 0,0 -3.44e-4,0 -7.14e-4,0 -3.44e-4,0 -7.15e-4,0 -0.0014,0 -0.214841,-3.4e-4 -0.443794,-0.0621 -0.628297,-0.10936 -0.0018,-3.4e-4 -0.0039,-7.1e-4 -0.0056,-0.001 -0.0085,-0.002 -0.01658,-0.004 -0.02469,-0.006 -0.0018,-3.4e-4 -0.0032,-7.1e-4 -0.0046,-0.001 -0.0018,-3.4e-4 -0.0039,-10e-4 -0.006,-10e-4 -7.15e-4,0 -0.0011,-3.4e-4 -0.0018,-3.4e-4 -0.0021,-7.2e-4 -0.0042,-10e-4 -0.006,-0.002 -0.0014,-3.5e-4 -0.0028,-7.2e-4 -0.0046,-0.001 v 0 c -0.0014,-3.5e-4 -0.0032,-7.2e-4 -0.0046,-0.001 v 0 c -0.0014,-3.5e-4 -0.0032,-7.2e-4 -0.0046,-0.001 v 0 c -0.0018,-3.5e-4 -0.0032,-7.2e-4 -0.0046,-0.001 v 0 c -0.0011,-3.5e-4 -0.0025,-7.2e-4 -0.0035,-10e-4 -7.14e-4,0 -0.0014,-3.5e-4 -0.0025,-3.5e-4 -0.05574,-0.0134 -0.111477,-0.0191 -0.166863,-0.0194 -0.0014,0 -0.0025,0 -0.0035,0 v 0 0 c -0.0028,0 -0.0056,0 -0.0085,3.5e-4 -0.07161,7.1e-4 -0.142875,0.0102 -0.214136,0.0247 -0.0822,0.0169 -0.164042,0.0399 -0.246239,0.0631 -0.07726,0.0219 -0.155222,0.0437 -0.233186,0.0603 -0.07726,0.0162 -0.154869,0.0272 -0.232833,0.0279 -0.0021,0 -0.0039,0 -0.0056,0 -3.44e-4,0 -7.15e-4,0 -0.0011,0 -0.03069,-3.4e-4 -0.06138,-0.002 -0.09208,-0.005 -0.0039,-7.1e-4 -0.0078,-0.001 -0.01164,-0.001 -0.0018,-3.4e-4 -0.0035,-7.1e-4 -0.0053,-7.1e-4 -0.0014,-3.5e-4 -0.0028,-7.2e-4 -0.0042,-7.2e-4 -0.0088,-0.001 -0.01729,-0.002 -0.02575,-0.004 -3.44e-4,0 -3.44e-4,0 -3.44e-4,0 -0.111976,-0.0187 -0.223806,-0.055 -0.335637,-0.0931 -0.178506,-0.0607 -0.357011,-0.12453 -0.534811,-0.12488 -3.44e-4,0 -7.14e-4,0 -0.0014,0 v 0 0 h -3.44e-4 c -0.0949,0 -0.189794,0.0183 -0.284691,0.0649 -0.0028,0.001 -0.0053,0.003 -0.0081,0.004 v 0 0 c -0.0035,0.002 -0.0074,0.004 -0.01093,0.005 -0.07408,0.0349 -0.161925,0.0504 -0.254706,0.0504 -3.44e-4,0 -3.44e-4,0 -7.15e-4,0 -7.14e-4,0 -0.0018,0 -0.0025,0 -0.221544,-7.1e-4 -0.472722,-0.0896 -0.646288,-0.21801 -7.15e-4,-3.5e-4 -0.0014,-0.001 -0.0021,-0.001 -0.0011,-10e-4 -0.0021,-0.002 -0.0035,-0.003 v 0 c -0.0014,-0.001 -0.0025,-0.002 -0.0039,-0.003 v 0 l -0.07938,-0.085 c -0.08502,-0.0995 -0.269522,-0.32949 -0.269522,-0.49494 0,-0.018 0.0025,-0.0353 0.0071,-0.0515 v 0 0 h -0.0035 c -0.01799,0.0353 -0.0254,0.0755 -0.0254,0.11783 -3.44e-4,0.0794 0.02575,0.16686 0.05715,0.24624 -0.03563,-0.0215 -0.07303,-0.0381 -0.109714,-0.0413 -0.0064,-7.1e-4 -0.01305,-0.001 -0.01976,-0.002 -0.0039,-3.4e-4 -0.0078,-7.1e-4 -0.01129,-0.001 -0.03457,-0.002 -0.0695,-0.003 -0.104069,-0.003 v 0 0 c -0.0021,0 -0.0046,0 -0.0071,0 -0.0025,0 -0.0053,0 -0.0078,0 -0.04833,3.5e-4 -0.09666,0.002 -0.144286,0.004 -0.05256,0.002 -0.104775,0.004 -0.155928,0.004 -0.01693,0 -0.03387,0 -0.0508,-7.1e-4 -0.195437,-0.006 -0.376412,-0.0561 -0.522109,-0.27339 -0.0011,-0.001 -0.0021,-0.003 -0.0028,-0.005 -7.14e-4,-7.2e-4 -0.0011,-10e-4 -0.0014,-0.002 -0.0035,-0.006 -0.0074,-0.0113 -0.01093,-0.0169 -0.08749,-0.13864 -0.09984,-0.37006 -0.217669,-0.4833 -0.158398,-0.15205 -0.463198,-0.19156 -0.562328,-0.38347 -0.04974,-0.096 -0.06738,-0.19932 -0.06738,-0.30515 3.44e-4,-0.17322 0.04798,-0.35349 0.07796,-0.51753 v 0 0 l -0.0071,3.5e-4 c -0.04833,0.16263 -0.143228,0.42933 -0.14605,0.6611 -0.03739,-0.0332 -0.07302,-0.0663 -0.09737,-0.11712 -0.03248,-0.0684 -0.05788,-0.15274 -0.05752,-0.23423 0,-0.0547 0.01164,-0.10831 0.04057,-0.15522 v 0 0 l -0.0035,-7.2e-4 c -7.14e-4,10e-4 -0.0018,0.002 -0.0025,0.003 0.03598,-0.14675 0.09278,-0.27446 0.166511,-0.40499 -0.482257,0.23849 -0.546462,0.82163 -0.17922,1.2178 0.05045,0.0543 0.13723,0.12947 0.141111,0.21414 0.01023,0.22436 0.06597,0.27975 0.148519,0.27975 0.01693,0 0.03528,-0.002 0.05433,-0.006 -0.03634,0.0282 -0.06985,0.0646 -0.100189,0.10513 -0.02681,0.036 -0.02822,0.0635 -0.01834,0.084 -0.176036,0.33937 -0.318206,0.98284 0.0441,0.98284 0.01517,0 0.03104,-0.001 0.04798,-0.004 0.323144,-0.0441 0.456847,-0.46532 0.480483,-0.75601 0.01235,-0.14993 -0.0381,-0.35277 -0.170391,-0.43391 -0.01376,-0.008 -0.02716,-0.0155 -0.04057,-0.0212 l 0.05856,0.003 c 0.100188,0.0166 0.174272,0.0677 0.230716,0.13899 0.01164,0.0272 0.02293,0.054 0.03528,0.0801 0.0187,0.0391 0.04621,0.0829 0.07938,0.12488 0.0039,0.0353 0.006,0.0705 0.006,0.10548 3.44e-4,0.23742 -0.08502,0.47025 -0.142522,0.7052 -0.0254,0.0519 -0.04763,0.10266 -0.07232,0.15522 -0.0011,0.002 -0.0018,0.004 -0.0025,0.005 -7.14e-4,0.001 -0.0014,0.002 -0.0018,0.004 -7.14e-4,0.001 -0.0014,0.003 -0.0021,0.004 -3.44e-4,7.2e-4 -7.14e-4,0.001 -0.0011,0.002 0,3.5e-4 -3.44e-4,0.001 -3.44e-4,0.001 -0.0011,0.002 -0.0018,0.003 -0.0025,0.005 -0.04233,0.0861 -0.129469,0.24554 -0.224719,0.24695 -7.15e-4,0 -0.0011,0 -0.0014,0 v 0 c -0.0074,0 -0.01482,-0.001 -0.02222,-0.003 v 0 l -0.0028,0.004 v 0 0 c 3.44e-4,0 7.14e-4,3.4e-4 0.0011,3.4e-4 7.14e-4,7.2e-4 0.0018,0.001 0.0028,0.001 v 0 c 0.01376,0.008 0.02822,0.0113 0.04269,0.0113 3.44e-4,0 3.44e-4,0 3.44e-4,0 v 0 0 c 0.0011,0 0.0018,0 0.0028,0 0.07091,-0.002 0.14605,-0.0815 0.189441,-0.13158 3.44e-4,-3.5e-4 7.15e-4,-7.2e-4 0.0011,-0.001 0.0011,-10e-4 0.0021,-0.002 0.0028,-0.004 7.15e-4,-3.5e-4 0.0011,-0.001 0.0018,-0.002 l 0.04692,-0.0653 c -7.14e-4,0.005 -7.14e-4,0.0102 -7.14e-4,0.0159 -3.44e-4,0.0822 0.0441,0.20214 0.06385,0.27058 0.02681,0.0868 0.0381,0.17392 0.0381,0.26141 -3.44e-4,0.27269 -0.112536,0.54504 -0.213783,0.79833 l -0.0053,0.0173 c -0.06844,0.0759 -0.131586,0.1584 -0.150989,0.26317 -0.0053,0.0289 -0.01129,0.0751 -0.01129,0.12171 0,0.0536 0.0081,0.10725 0.03457,0.13441 l 0.01447,-0.0123 v 0 c -0.0053,-0.0127 -0.0078,-0.0286 -0.0078,-0.0466 0,-0.0857 0.05398,-0.21484 0.08079,-0.26423 -3.44e-4,0.0123 -7.15e-4,0.0247 -0.0011,0.0367 -3.44e-4,0.28293 0.170039,0.50588 0.169686,0.77788 0,0.0127 -3.44e-4,0.0257 -0.0011,0.0384 -0.01376,0.21519 -0.117828,0.41627 -0.143228,0.6223 v 0 0 c 0.04516,0.12206 0.130881,0.30797 0.131233,0.47095 0,0.133 -0.0568,0.25083 -0.239536,0.30692 -0.03246,0.0109 -0.07444,0.0275 -0.09631,0.0557 -0.04868,0.06 -0.06809,0.14923 -0.06773,0.23283 0,0.0328 0.0028,0.0649 0.0085,0.0938 0.02469,0.13018 0.04269,0.25295 0.05292,0.37677 0.01376,0.078 0.02434,0.16157 0.02434,0.24095 -3.44e-4,0.14393 -0.03528,0.27411 -0.150283,0.33055 -0.02822,0.0138 -0.0568,0.0205 -0.08431,0.0205 h -3.74e-4 c -7.15e-4,0 -0.0011,0 -0.0018,0 -0.106892,-0.001 -0.197203,-0.0988 -0.198967,-0.22331 v 0 c 0,-0.002 0,-0.004 0,-0.006 0,-0.12629 0.0441,-0.24236 0.07937,-0.36054 l 0.0053,-0.0183 c 0.01658,-0.0579 0.03034,-0.11712 0.03387,-0.1785 v 0 l 0.0095,-0.0332 v -0.003 -0.003 c 0.0021,-0.018 0.0032,-0.0363 0.0032,-0.0547 0,-0.0759 -0.01658,-0.15452 -0.04445,-0.22825 -0.01023,-0.16407 -0.06667,-0.24063 -0.213425,-0.36657 -0.16263,-0.14005 -0.359128,-0.18062 -0.424392,-0.45826 -0.0056,-0.0243 -0.0067,-0.0441 -0.0067,-0.061 0,-0.0106 3.44e-4,-0.0205 3.44e-4,-0.0296 0,-0.0332 -0.006,-0.0589 -0.05997,-0.1016 -0.218371,-0.17216 -0.385235,-0.34784 -0.494596,-0.55598 -0.111125,-0.12982 -0.182739,-0.29104 -0.190147,-0.49883 -3.44e-4,-0.0106 -7.15e-4,-0.0208 -7.15e-4,-0.0314 0,-0.16827 0.03493,-0.36583 0.03493,-0.55033 0,-0.0148 0,-0.0293 -7.14e-4,-0.0441 l 0.01658,0.0339 c 0.03881,0.0804 0.121708,0.22507 0.122061,0.32773 0,0.0106 -0.0011,0.0208 -0.0028,0.0303 v 0 0 l 0.0064,-3.4e-4 c 0.0074,-0.0212 0.01023,-0.0434 0.01023,-0.0663 0,-0.0787 -0.03422,-0.16616 -0.04833,-0.23707 -0.02752,-0.13899 -0.09702,-0.28716 -0.172158,-0.40569 l -0.0088,-0.006 c -0.04233,-0.097 -0.0709,-0.17604 -0.07126,-0.26988 0,-0.005 0,-0.009 0,-0.0141 v 0 0 c -7.14e-4,-0.008 -0.0014,-0.0159 -0.0018,-0.024 -7.14e-4,-0.01 -0.0011,-0.0198 -0.0011,-0.0296 0,-0.30162 0.266347,-0.64981 0.288925,-0.95214 v -7.2e-4 0 c 0.03986,0.0483 0.08396,0.091 0.139347,0.12206 l 0.01835,-0.0272 v 0 c -0.06738,-0.0674 -0.124532,-0.15417 -0.172862,-0.25012 -0.03634,-0.16898 -0.131939,-0.33444 -0.132292,-0.52564 0,-0.0254 0.0018,-0.0515 0.0056,-0.0776 0.03563,-0.24942 0.147461,-0.47061 0.250119,-0.69462 0.04763,-0.21273 0.08855,-0.42228 0.0889,-0.65264 0,-0.0198 -3.44e-4,-0.0392 -7.14e-4,-0.0593 -0.0028,-0.072 -0.0063,-0.14957 -0.0063,-0.2286 0,-0.17074 0.01587,-0.34784 0.09243,-0.49071 0.06139,-0.1136 0.134412,-0.19826 0.215551,-0.26176 0.03387,-0.0353 0.0702,-0.0716 0.115005,-0.1083 l 3.44e-4,-0.001 c 0.0702,-0.0247 0.145345,-0.0325 0.221192,-0.0328 0.0025,0 0.0049,0 0.0074,0 v 0 c 0.05645,-0.009 0.1143,-0.0131 0.172861,-0.0131 3.44e-4,0 3.44e-4,0 7.14e-4,0 3.44e-4,0 0.0011,0 0.0018,0 0.140053,0 0.285398,0.0226 0.428978,0.0529 0.0014,3.5e-4 0.0025,7.2e-4 0.0039,0.001 0.0085,0.002 0.01693,0.004 0.02575,0.005 0.0014,3.5e-4 0.0032,7.2e-4 0.0046,0.001 v 0 0 0 c -0.124531,-0.0797 -0.2921,-0.12806 -0.46355,-0.13405 v 0 c 0.0025,-3.5e-4 0.0046,-7.2e-4 0.0071,-0.001 0.0032,-7.2e-4 0.0064,-0.001 0.0099,-0.001 0.0049,-7.2e-4 0.0099,-10e-4 0.01482,-0.002 0.0028,-3.5e-4 0.0053,-7.2e-4 0.0081,-0.001 3.44e-4,-3.5e-4 7.14e-4,-3.5e-4 0.0011,-3.5e-4 0.03422,-0.006 0.06844,-0.0123 0.102658,-0.0197 0.123473,-0.0257 0.244475,-0.0568 0.364773,-0.0572 3.44e-4,0 7.14e-4,0 0.0011,0 3.44e-4,0 7.14e-4,0 7.14e-4,0 0.122767,3.4e-4 0.243769,0.0325 0.364067,0.13546 0.0032,0.002 0.006,0.005 0.0092,0.008 0,0 0,0 3.44e-4,3.5e-4 3.44e-4,3.4e-4 0.0011,10e-4 0.0018,10e-4 3.44e-4,7.1e-4 0.0011,0.001 0.0018,0.001 3.44e-4,7.1e-4 7.14e-4,0.001 0.0011,0.001 0.0011,7.1e-4 0.0018,0.001 0.0025,0.002 0.05398,0.0483 0.134408,0.17145 0.221191,0.27834 l 0.01235,0.024 c 0.03034,0.0628 0.05927,0.12841 0.08678,0.19297 0.02152,0.0462 0.06174,0.10513 0.06174,0.1584 0,0.002 0,0.003 -3.44e-4,0.005 v 0 0 l 0.0194,0.002 c 0.01517,-0.0233 0.02117,-0.0522 0.02117,-0.0833 0,-0.0445 -0.01199,-0.0935 -0.02611,-0.13864 l 0.04198,0.0152 c 0.412045,0.0557 0.689328,-0.0667 1.047398,0.248 0.1778,0.15522 0.246591,0.33549 0.400402,0.46108 -0.0039,0 -0.0078,0 -0.01129,0 -0.0035,-3.4e-4 -0.0074,-3.4e-4 -0.01093,-3.4e-4 H 30.1178 v 0 0 c -3.44e-4,0 -7.14e-4,0 -0.0014,0 -0.0448,3.4e-4 -0.0896,0.002 -0.13335,0.009 -0.0018,3.4e-4 -0.0035,3.4e-4 -0.0053,7.1e-4 v 0 l -0.0056,0.0222 v 0 c 0.142875,0.0317 0.278342,0.0681 0.415573,0.0928 0.297038,0.0959 0.547863,0.12841 0.818444,0.33831 0.0053,0.004 0.01058,0.008 0.01552,0.0116 0.0011,7.2e-4 0.0018,0.001 0.0028,0.002 0.138995,0.1009 0.28575,0.1397 0.439561,0.1397 3.44e-4,0 0.0011,0 0.0014,0 v 0 0 c 3.44e-4,0 3.44e-4,0 7.15e-4,0 0.06773,0 0.136877,-0.007 0.20708,-0.0205 v 0 0 c 0.0021,-3.4e-4 0.0042,-7.1e-4 0.006,-0.001 0.0046,-7.1e-4 0.0088,-0.002 0.01341,-0.002 0.0014,-3.4e-4 0.0032,-7.1e-4 0.0046,-0.001 0.0025,-3.4e-4 0.0046,-7.1e-4 0.0067,-0.001 7.14e-4,-3.4e-4 0.0014,-3.4e-4 0.0021,-7.1e-4 0.0011,-3.5e-4 0.0025,-3.5e-4 0.0035,-7.2e-4 0.0011,0 0.0021,-3.4e-4 0.0032,-7.1e-4 7.14e-4,0 0.0014,-3.4e-4 0.0025,-3.4e-4 0.0018,-3.5e-4 0.0035,-0.001 0.0056,-0.001 0.0032,-7.2e-4 0.0067,-0.001 0.0099,-0.002 0,0 0,0 3.44e-4,0 7.14e-4,-3.5e-4 0.0014,-3.5e-4 0.0021,-7.2e-4 0.0085,-0.002 0.01693,-0.004 0.02505,-0.006 0.0025,-7.1e-4 0.0049,-0.001 0.0074,-0.002 0,0 0,0 3.44e-4,0 0.0011,-3.4e-4 0.0025,-7.1e-4 0.0039,-0.001 0.129116,-0.0346 0.207433,-0.0773 0.33655,-0.0776 3.44e-4,0 7.14e-4,0 7.14e-4,0 3.44e-4,0 3.44e-4,0 7.14e-4,0 0.05327,0 0.115006,0.007 0.192617,0.0254 0.0014,3.4e-4 0.0025,7.2e-4 0.0039,0.001 3.44e-4,0 7.14e-4,0 0.0014,0 3.44e-4,3.4e-4 0.0011,3.4e-4 0.0018,7.2e-4 7.14e-4,0 0.0011,0 0.0018,3.4e-4 0.0011,3.4e-4 0.0021,3.4e-4 0.0032,7.1e-4 0.0028,7.2e-4 0.0056,0.001 0.0085,0.002 0.157692,0.0385 0.290689,0.13653 0.456142,0.16122 0.0014,3.5e-4 0.0028,3.5e-4 0.0039,7.2e-4 0.0042,7.1e-4 0.0081,0.001 0.01199,0.002 0.0018,3.4e-4 0.0035,3.4e-4 0.0053,7.1e-4 3.44e-4,0 7.14e-4,0 0.0011,3.5e-4 0.07056,0.0102 0.135466,0.0166 0.197908,0.0166 3.44e-4,0 3.44e-4,0 7.14e-4,0 v 0 0 c 3.44e-4,0 7.15e-4,0 7.15e-4,0 0.137583,-3.5e-4 0.26176,-0.0307 0.399697,-0.11642 0.0025,-0.001 0.0049,-0.003 0.0071,-0.004 v 0 c 0.0021,-0.001 0.0042,-0.002 0.006,-0.004 0.0011,-7.1e-4 0.0018,-0.001 0.0028,-0.002 0.0011,-7.1e-4 0.0025,-0.001 0.0035,-0.002 0.0064,-0.004 0.0127,-0.008 0.01905,-0.012 0.0011,-7.2e-4 0.0021,-0.001 0.0032,-0.002 0.0018,-0.001 0.0039,-0.002 0.0056,-0.004 0.201788,-0.12559 0.38488,-0.21908 0.6096,-0.21943 3.44e-4,0 7.14e-4,0 7.14e-4,0 3.44e-4,0 3.44e-4,0 3.44e-4,0 0.04339,0 0.08855,0.004 0.135114,0.0109 7.14e-4,0 0.0011,3.5e-4 0.0014,3.5e-4 0.0028,3.4e-4 0.0056,7.1e-4 0.0085,0.001 0.0035,3.4e-4 0.0074,0.001 0.01093,0.002 7.14e-4,0 0.0014,0 0.0021,3.4e-4 0.04198,0.006 0.09384,0.0116 0.14358,0.0116 3.44e-4,0 7.15e-4,0 0.0011,0 v 0 0 c 3.44e-4,0 7.15e-4,0 0.0011,0 0.03281,0 0.06526,-0.002 0.09278,-0.008 v 0 0 c 0.0011,3.5e-4 0.0021,3.5e-4 0.0035,3.5e-4 0.01552,0.001 0.03175,0.001 0.04798,0.001 v 0 0 0 c 0.0011,0 0.0018,0 0.0025,0 0.194028,-3.5e-4 0.405695,-0.0727 0.496712,-0.2406 v 0 0 l -0.0071,-0.004 c -0.04974,0.0557 -0.133702,0.073 -0.21343,0.0868 l 0.05644,-0.067 c 0.0755,-0.12524 0.06103,-0.0949 0.10795,-0.23495 0.104775,-0.31468 0.379589,-0.2099 0.581731,-0.29528 0.07514,-0.0317 0.135819,-0.0691 0.192264,-0.11253 0,0.0134 0,0.0272 0,0.0409 0,0.049 -0.0011,0.0995 -0.0127,0.13829 v 0 0 l 0.02716,0.0116 c 0.0702,-0.0737 0.107245,-0.19473 0.140406,-0.29139 0.03387,-0.10125 0.101247,-0.18662 0.138642,-0.28575 0.182386,-0.2787 0.383822,-0.3295 0.693208,-0.40394 0.06526,-0.0159 0.142522,-0.0628 0.192617,-0.12206 0.01129,0.0709 0.02963,0.14076 0.05609,0.18945 l 0.01517,-0.008 v 0 c -0.0035,-0.0222 -0.0049,-0.0452 -0.0049,-0.0688 0,-0.0967 0.02505,-0.20214 0.03175,-0.2928 l 0.01023,-0.0579 c 0.01305,-0.0416 0.0254,-0.0822 0.03704,-0.12841 7.15e-4,-0.002 0.0011,-0.003 0.0014,-0.005 0.08502,-0.34431 0.436739,-0.53481 0.769409,-0.53516 3.44e-4,0 7.14e-4,0 0.0011,0 h 3.44e-4 c 0.225425,3.4e-4 0.441678,0.0875 0.560917,0.27269 0.0011,0.001 0.0021,0.003 0.0032,0.005 v 0 c 0.08678,0.13865 0.183797,0.20462 0.319616,0.24342 0.112889,0.0917 0.233539,0.18133 0.315384,0.30551 0.0635,0.0949 0.08467,0.18838 0.08467,0.28116 -3.44e-4,0.19226 -0.09208,0.38171 -0.09208,0.57679 0,0.0504 0.006,0.10125 0.02117,0.15276 0.08325,0.27693 0.248003,0.31044 0.248003,0.56726 -3.44e-4,0.0801 -0.01623,0.18239 -0.05645,0.32103 -0.03563,0.12241 -0.06738,0.21272 -0.08537,0.32314 -0.08114,0.1397 -0.117122,0.3048 -0.117475,0.46885 0,0.0504 0.0032,0.10054 0.0095,0.14993 l 0.02999,-0.01 c 0.01658,-0.11219 0.04833,-0.21908 0.08573,-0.32315 l 0.01658,0.0505 c 0.08361,0.15381 0.119944,0.30762 0.119591,0.46602 0,0.14852 -0.0321,0.30056 -0.08749,0.46002 -0.04092,0.11818 -0.06526,0.20426 -0.06526,0.29528 0,0.0709 0.01446,0.14463 0.04763,0.23847 0.07408,0.20849 0.127352,0.37959 0.127705,0.55598 0,0.13123 -0.02928,0.26529 -0.100894,0.42051 -0.04904,0.10478 -0.0628,0.24659 -0.08008,0.3623 -0.0064,0.043 -0.0092,0.084 -0.0092,0.12312 3.44e-4,0.27341 0.139347,0.46885 0.1397,0.73061 0,0.10195 -0.02117,0.21378 -0.07937,0.34466 -0.07585,0.11924 -0.158397,0.23566 -0.250825,0.34184 -0.04833,0.0564 -0.101247,0.10936 -0.153106,0.1644 l -0.103364,0.127 -0.0088,0.004 -0.0028,0.018 0.01023,0.005 c 0.09031,-0.0677 0.184856,-0.14182 0.271639,-0.22331 -0.03175,0.0663 -0.05997,0.13652 -0.07937,0.22119 -0.136172,0.62371 0.128411,1.00189 -0.61595,1.23825 -0.135114,0.0434 -0.254705,0.097 -0.325966,0.23883 -0.178153,0.35172 -0.239536,0.80433 -0.721431,0.81456 -0.117828,0.003 -0.324908,0.0152 -0.41663,0.10407 l -0.02293,0.0215 v 0 c 0.106186,0.0123 0.211667,0.0169 0.317853,0.0205 h 0.0095 c -0.48239,0.42232 -1.171365,0.52639 -1.768265,0.56837 v 0 c -0.0039,3.4e-4 -0.0081,7.1e-4 -0.01199,0.001 -0.01728,0.001 -0.03457,0.001 -0.05256,0.001 h -3.44e-4 c -0.0011,0 -0.0018,0 -0.0028,0 -0.09384,-3.5e-4 -0.197556,-0.0131 -0.3048,-0.0286 -7.14e-4,0 -0.0014,0 -0.0021,0 -0.0032,-7.2e-4 -0.006,-0.001 -0.0088,-0.001 -0.0085,-0.001 -0.01729,-0.002 -0.02611,-0.004 -0.0056,-7.2e-4 -0.01164,-0.001 -0.01729,-0.002 -3.44e-4,0 -7.14e-4,0 -7.14e-4,0 -0.0014,-3.5e-4 -0.0025,-3.5e-4 -0.0035,-7.2e-4 -0.0071,-10e-4 -0.01446,-0.002 -0.02152,-0.003 -0.0085,-0.001 -0.01728,-0.002 -0.02575,-0.004 -0.127353,-0.0187 -0.256117,-0.0363 -0.375356,-0.0363 -3.44e-4,0 -0.0011,0 -0.0014,0 v 0 0 0 c -0.09772,0 -0.188736,0.0116 -0.267053,0.0441 -3.44e-4,0 -3.44e-4,0 -7.14e-4,0 -0.0014,7.2e-4 -0.0032,0.001 -0.0049,0.002 -3.44e-4,3.5e-4 -7.15e-4,3.5e-4 -0.0014,7.2e-4 -7.14e-4,3.4e-4 -0.0018,7.1e-4 -0.0028,0.001 -0.0021,7.1e-4 -0.0042,0.002 -0.0063,0.002 -0.0021,10e-4 -0.0046,0.002 -0.0067,0.003 -0.0011,3.4e-4 -0.0018,7.1e-4 -0.0025,0.001 -0.0025,0.001 -0.0049,0.002 -0.0071,0.003 -0.0018,7.1e-4 -0.0032,0.001 -0.0049,0.002 -0.0039,0.001 -0.0074,0.003 -0.01094,0.005 -0.0032,0.001 -0.006,0.002 -0.0092,0.004 0,0 -3.44e-4,0 -3.44e-4,3.4e-4 -0.187677,0.079 -0.366183,0.12806 -0.555625,0.12841 -3.44e-4,0 -0.0011,0 -0.0014,0 -3.44e-4,0 -3.44e-4,0 -7.14e-4,0 -0.09631,0 -0.195086,-0.0127 -0.299509,-0.0406 v 0 c -0.0053,-0.001 -0.01023,-0.003 -0.01587,-0.005 0,0 -3.44e-4,-3.4e-4 -7.14e-4,-3.4e-4 -0.0021,-7.2e-4 -0.0042,-0.001 -0.0064,-0.002 -7.14e-4,0 -0.0011,-3.5e-4 -0.0018,-3.5e-4 -0.14993,-0.0519 -0.373238,-0.21554 -0.512938,-0.21554 v 0 0 0 c -0.0035,0 -0.0074,3.4e-4 -0.01094,3.4e-4 -0.19297,0.0109 -0.279753,0.0988 -0.385587,0.26811 v 0 0 l 0.01976,0.0138 v 0 c 0.08361,-0.10195 0.189089,-0.13688 0.305153,-0.13688 3.44e-4,0 7.14e-4,0 0.0011,0 v 0 c 0.01305,0 0.02646,3.5e-4 0.03986,10e-4 -0.0049,0.049 -0.0014,0.10196 -0.0187,0.15029 -0.0194,0.0579 -0.124178,0.20179 -0.202142,0.2039 -3.44e-4,0 -0.0011,0 -0.0018,0 v 0 c -0.0053,0 -0.01023,-7.1e-4 -0.01517,-0.002 v 0 l -0.0021,0.004 v 0 0 c 3.44e-4,3.5e-4 3.44e-4,3.5e-4 7.15e-4,7.2e-4 3.44e-4,3.4e-4 7.14e-4,3.4e-4 0.0011,7.1e-4 v 0 c 3.43e-4,3.5e-4 7.14e-4,3.5e-4 7.14e-4,7.2e-4 3.44e-4,0 3.44e-4,0 3.44e-4,0 0.01093,0.008 0.02293,0.0113 0.03563,0.0116 3.44e-4,0 7.14e-4,0 7.14e-4,0 v 0 0 c 0.0028,0 0.0053,-3.5e-4 0.0081,-3.5e-4 0.04762,-0.005 0.102658,-0.0512 0.138642,-0.0822 3.44e-4,-3.4e-4 0.0011,-7.1e-4 0.0014,-0.001 3.44e-4,-3.4e-4 0.0011,-7.1e-4 0.0014,-0.001 7.14e-4,-7.1e-4 0.0011,-0.001 0.0018,-0.001 3.44e-4,-3.4e-4 7.14e-4,-7.1e-4 0.0011,-10e-4 3.44e-4,-3.4e-4 7.14e-4,-3.4e-4 7.14e-4,-7.1e-4 0.0018,-10e-4 0.0032,-0.002 0.0046,-0.004 7.15e-4,-7.2e-4 0.0014,-0.001 0.0021,-0.002 0.07726,-0.0628 0.119945,-0.16193 0.132998,-0.26353 0.115358,0.0215 0.236361,0.0628 0.355599,0.10231 0.02434,0.10054 0.08467,0.16192 0.147461,0.25329 0.0575,0.0836 0.08114,0.14782 0.08149,0.19791 3.44e-4,0.20849 -0.409927,0.16969 -0.485775,0.26882 -0.03422,0.0437 -0.04798,0.0811 -0.04833,0.11465 -3.44e-4,0.0907 0.09984,0.15346 0.174272,0.2413 l 0.0081,0.006 0.0092,0.0152 0.01305,0.0152 c 0.05539,0.0811 0.07761,0.14711 0.07761,0.20355 0,0.0187 -0.0028,0.0367 -0.0074,0.0533 -0.006,0.1069 -0.05785,0.20532 -0.170744,0.26811 -0.134408,0.0723 -0.349956,0.10055 -0.432858,0.23284 l -0.006,0.0367 c 0,3.4e-4 0,7.1e-4 0,0.001 0,0.0836 0.08714,0.3683 0.08678,0.40111 0,0.002 0,0.003 -7.15e-4,0.003 -7.14e-4,3.4e-4 -0.0018,3.4e-4 -0.0025,7.1e-4 -7.14e-4,0 -0.0014,3.5e-4 -0.0025,3.5e-4 -0.01764,0.003 -0.04057,0.005 -0.06597,0.005 -3.44e-4,0 -3.44e-4,0 -3.44e-4,0 m -0.166511,-1.50848 c -0.02011,0 -0.04304,0.009 -0.06738,0.031 -0.10548,0.0981 -0.230363,0.2413 -0.203905,0.40322 0.01834,0.11289 0.117475,0.17357 0.214136,0.20038 0.03457,0.0102 0.06985,0.0152 0.105481,0.0152 0.209902,0 0.418394,-0.16933 0.375355,-0.41275 -0.02187,-0.121 -0.09278,-0.29316 -0.225778,-0.29316 -0.01199,0 -0.02469,0.001 -0.0381,0.005 -0.04621,0.01 -0.08467,0.0353 -0.119944,0.066 -0.01093,-0.009 -0.02434,-0.0145 -0.03986,-0.0145 m -0.127,-0.3937 c -0.02046,0 -0.04445,0.009 -0.0695,0.03 -0.0448,0.0388 -0.08255,0.0709 -0.09419,0.13441 l 0.02258,0.0716 0.02611,0.013 c 0.01023,0.006 0.02117,0.008 0.03246,0.008 0.0441,0 0.09313,-0.0378 0.109714,-0.0762 l 0.01305,-0.0194 c 0.02822,-0.0349 0.03175,-0.066 0.02082,-0.0889 0.0053,-0.0402 -0.02152,-0.0727 -0.06103,-0.0727 m -0.165511,-0.78392 c -0.09031,0 -0.182386,0.0614 -0.252589,0.12559 -0.119944,0.0663 -0.215547,0.1838 -0.244475,0.31962 -0.03245,0.15275 0.06033,0.31291 0.203906,0.31291 0.01588,0 0.03246,-0.002 0.04939,-0.006 0.154516,-0.0385 0.275872,-0.18662 0.352777,-0.32526 0.06209,-0.11359 0.113948,-0.34008 -0.0321,-0.40993 -0.02505,-0.0113 -0.05115,-0.0166 -0.0769,-0.0166 m 0.04339,-0.20108 c 0.412045,0 0.765528,0.27763 1.164167,0.39229 0.05468,0.0159 0.111125,0.0222 0.168628,0.0222 0.168628,0 0.343606,-0.0572 0.498122,-0.10443 0.310797,-0.0931 0.865717,-0.3376 0.734484,-0.77646 -0.0081,-0.0261 -0.02575,-0.0353 -0.04621,-0.0353 -0.01447,0 -0.03069,0.005 -0.04586,0.0113 l -0.06915,0.0183 c -0.283986,0.20849 -0.572911,0.26494 -0.864658,0.26494 -0.171097,0 -0.3429,-0.0194 -0.515409,-0.0388 -0.172508,-0.019 -0.345369,-0.0384 -0.518583,-0.0384 -0.224719,0 -0.450144,0.0325 -0.674864,0.1397 -0.05609,0.0265 -0.101953,0.16333 -0.02046,0.16333 0.0053,-3.4e-4 0.01129,-7.1e-4 0.01799,-0.002 0.05856,-0.0113 0.115711,-0.0166 0.171803,-0.0166 m 3.867149,-0.38629 c -0.1397,0 -0.285397,0.0561 -0.388761,0.13617 -0.191558,0.14817 -0.13088,0.43216 0.09102,0.49283 0.06315,0.0176 0.130881,0.0261 0.200025,0.0261 0.178858,0 0.366536,-0.0572 0.506236,-0.15698 0.160514,-0.11607 0.220486,-0.34396 -0.0063,-0.41134 -0.05292,-0.0159 -0.115005,-0.0243 -0.179564,-0.0272 -0.06668,-0.0416 -0.14358,-0.0596 -0.222603,-0.0596 m -4.221392,0.44595 c -0.02999,0 -0.06456,0.0145 -0.08784,0.0508 l -0.0088,0.0116 -0.01446,0.10548 0.0018,0.003 c 0.01552,0.0138 0.03246,0.0194 0.04904,0.0194 0.02681,0 0.05362,-0.0145 0.07514,-0.0328 l 0.01658,-0.0162 c 0.07549,-0.0628 0.04269,-0.14076 -0.0194,-0.14076 -0.0014,0 -0.0028,0 -0.0039,0 -0.0028,0 -0.0053,-3.5e-4 -0.0081,-3.5e-4 m 5.540726,-0.98104 c -0.07691,0 -0.157692,0.0473 -0.213431,0.10442 -0.07232,0.0759 -0.174625,0.27976 -0.04974,0.35948 0.02117,0.0138 0.04374,0.0198 0.06668,0.0198 0.08114,0 0.168628,-0.0716 0.222603,-0.12029 0.0889,-0.079 0.189088,-0.19227 0.220486,-0.31398 0.0099,-0.0346 -0.0025,-0.0737 -0.04057,-0.0787 -0.0127,-0.002 -0.0254,-0.002 -0.03775,-0.002 -0.04974,0 -0.09772,0.0127 -0.142875,0.0335 -0.0085,-0.001 -0.01693,-0.002 -0.0254,-0.002 m -1.404059,-0.17843 c -0.100541,0 -0.217311,0.0617 -0.281163,0.11394 -0.131587,0.1069 -0.141464,0.3362 0.06244,0.33691 0.0021,0 0.0039,0 0.0056,0 0.08961,0 0.179917,-0.0332 0.255764,-0.0818 0.06385,-0.0406 0.165805,-0.14676 0.130175,-0.23778 l -0.01799,-0.0275 -0.0049,-0.0173 c -0.03281,-0.0631 -0.08855,-0.0864 -0.14993,-0.0864 m 1.15958,-1.39594 c -0.03598,0 -0.07691,0.01 -0.12065,0.03 -0.167569,0.0751 -0.321733,0.21167 -0.442383,0.35349 -0.140406,0.16686 -0.208844,0.46355 -0.07938,0.6544 0.05256,0.0773 0.123119,0.10689 0.198614,0.10689 0.134408,0 0.284339,-0.0949 0.371475,-0.18168 0.164394,-0.16404 0.314678,-0.42792 0.338314,-0.66851 0.01376,-0.14676 -0.07056,-0.23425 -0.176389,-0.26741 -0.02434,-0.018 -0.05468,-0.0272 -0.08961,-0.0272 m 1.209675,0.32738 c -0.183444,0 -0.329141,0.21872 -0.388408,0.37853 -0.02611,0.0674 -0.04128,0.16686 0.0095,0.22401 0.02434,0.0282 0.05609,0.0388 0.09066,0.0388 0.06668,0 0.143228,-0.0395 0.191911,-0.0663 0.117122,-0.0663 0.259644,-0.15592 0.309386,-0.29562 0.03105,-0.0868 -0.0014,-0.16898 -0.08114,-0.20744 l -0.03739,-0.0116 c 7.14e-4,-0.025 -0.01023,-0.0469 -0.04339,-0.0547 -0.01728,-0.004 -0.03457,-0.006 -0.05115,-0.006 m 0.52705,-1.82421 c -0.09596,0 -0.221191,0.0783 -0.298097,0.1404 -0.169686,0.13724 -0.249414,0.33761 -0.263878,0.55951 -0.01235,0.19226 0.07514,0.32068 0.231423,0.32068 0.02893,0 0.05997,-0.004 0.09313,-0.0134 0.198967,-0.0543 0.331258,-0.2727 0.409222,-0.45862 0.05927,-0.14216 0.133703,-0.38064 -0.01446,-0.48859 l -0.07726,-0.0332 c -0.02187,-0.0187 -0.04939,-0.0268 -0.08008,-0.0268 m -12.207198,-0.13167 c -0.06632,0 -0.13335,0.0289 -0.192264,0.0928 l -0.02469,0.0402 c -0.04763,0.0392 -0.08678,0.0956 -0.112536,0.17145 -0.07338,0.21766 0.07796,0.52987 0.237772,0.66216 0.0568,0.0473 0.123472,0.0695 0.189089,0.0695 0.127353,0 0.251883,-0.0833 0.297392,-0.22719 0.0695,-0.21907 -0.02258,-0.47766 -0.144639,-0.65617 -0.06632,-0.0963 -0.157692,-0.15275 -0.250119,-0.15275 m 1.102077,0.39581 c -0.0187,0 -0.0381,0.006 -0.05468,0.0176 l -0.0028,0.002 -0.0628,0.0473 -0.0081,0.0173 c -0.0628,0.0744 -0.09525,0.17145 -0.07373,0.26459 l -0.0021,0.0208 c 0.0018,0.0847 0.05715,0.16686 0.136878,0.16686 0.01517,0 0.0314,-0.003 0.04833,-0.01 0.101953,-0.0406 0.142169,-0.13864 0.140053,-0.2473 -7.15e-4,-0.0787 -0.01658,-0.2032 -0.07373,-0.26035 -0.01341,-0.0134 -0.02999,-0.019 -0.04727,-0.019 m 9.895416,-0.57679 c -0.01482,0 -0.03281,0.006 -0.05433,0.0212 -0.182739,0.12594 -0.249414,0.34925 -0.260703,0.57044 -0.01023,0.1838 0.05397,0.46038 0.261407,0.4893 0.01058,10e-4 0.02082,0.002 0.03105,0.002 0.331963,0 0.399343,-0.7687 0.262466,-0.9786 -0.03669,-0.055 -0.07867,-0.0766 -0.121708,-0.0766 -0.02434,0 -0.04939,0.007 -0.07338,0.0187 -0.0039,-0.0268 -0.01905,-0.0466 -0.0448,-0.0466 m -11.219044,-1.55323 c -0.112536,0 -0.208844,0.067 -0.251883,0.24236 -0.04798,0.0649 -0.08396,0.14605 -0.0956,0.24342 -0.04304,0.34995 0.05433,0.9218 0.453319,0.9218 0.02893,0 0.05997,-0.003 0.09243,-0.01 0.396876,-0.078 0.516114,-0.68582 0.340078,-1.01179 -0.100541,-0.18626 -0.343958,-0.38629 -0.538339,-0.38629 m 1.396295,0.29422 c -0.03528,0 -0.06738,0.0159 -0.0956,0.0399 -0.182739,0.0801 -0.259292,0.30939 -0.286808,0.50095 -0.02399,0.17286 0.02363,0.39652 0.206022,0.39652 0.01588,0 0.03316,-0.001 0.05115,-0.005 0.240241,-0.0487 0.398991,-0.41521 0.366536,-0.65299 -0.01658,-0.12206 -0.08749,-0.23283 -0.200731,-0.27234 -0.01376,-0.005 -0.02716,-0.007 -0.04057,-0.007 m 9.786408,-0.0448 c -0.0099,0 -0.02082,0.001 -0.03175,0.004 -0.106187,0.024 -0.168275,0.11888 -0.206023,0.21907 -0.0642,0.17286 0,0.37536 0.07973,0.52846 0.05045,0.0949 0.125236,0.16651 0.210608,0.16651 0.03845,0 0.07938,-0.0145 0.121003,-0.048 0.143228,-0.11571 0.130881,-0.36935 0.08467,-0.52987 -0.01587,-0.0547 -0.04551,-0.12559 -0.08749,-0.18133 l -0.0014,-0.0116 c -0.0381,-0.0755 -0.08784,-0.14675 -0.169334,-0.14675 m 1.331031,0.23495 c -0.04974,0 -0.106186,0.0279 -0.139347,0.0557 l -0.01235,0.0131 c -0.141817,0.0773 -0.226484,0.29704 -0.182386,0.45261 0.0078,0.0275 0.03034,0.0356 0.05327,0.0356 0.01129,0 0.02293,-0.002 0.03281,-0.005 0.159103,-0.0434 0.384528,-0.28998 0.340784,-0.4759 -0.01376,-0.0568 -0.0508,-0.0765 -0.09278,-0.0765 m -0.02963,-1.28235 c -0.0095,0 -0.02117,0.002 -0.03457,0.006 -0.201789,0.0646 -0.310798,0.28717 -0.363009,0.48825 -0.04269,0.16475 -0.05503,0.47343 0.144639,0.53763 0.02187,0.007 0.04339,0.0106 0.06456,0.0106 0.292806,0 0.476956,-0.6664 0.353131,-0.88301 -0.03104,-0.0533 -0.06879,-0.0723 -0.110419,-0.0723 -0.0049,0 -0.0099,3.5e-4 -0.01517,7.2e-4 0.01587,-0.0445 0.0074,-0.0882 -0.03916,-0.0882 m -7.024523,-0.0984 c -0.03986,0 -0.07937,0.006 -0.117828,0.0166 -0.0388,0.002 -0.07585,0.0109 -0.111125,0.0321 -0.06526,0.0395 -0.126647,0.11606 -0.106538,0.20143 0.03457,0.14993 0.216252,0.20461 0.363361,0.20461 0.03951,0 0.07655,-0.004 0.10795,-0.0109 0.154869,-0.0346 0.262466,-0.20214 0.130175,-0.33655 -0.07303,-0.0734 -0.168981,-0.10725 -0.265995,-0.10725 m -5.062723,-0.91194 c -0.05503,0 -0.110772,0.0233 -0.164394,0.0603 -0.373944,0.11571 -0.490361,0.6357 -0.398286,0.9906 0.05539,0.21343 0.212019,0.31185 0.378178,0.31185 0.147814,0 0.302683,-0.0776 0.40005,-0.22084 0.185914,-0.27411 0.158397,-0.70979 -0.0028,-0.98954 -0.06421,-0.10936 -0.137584,-0.1524 -0.212725,-0.1524 m 6.99558,0.77717 c -0.01517,0 -0.02928,7.2e-4 -0.04304,0.002 -0.07937,0.005 -0.164748,0.0427 -0.225425,0.10266 -0.09631,0.0356 -0.194028,0.1143 -0.175684,0.23142 0.01588,0.10125 0.126295,0.16475 0.207434,0.19579 0.0515,0.0194 0.104775,0.03 0.157691,0.03 0.06879,0 0.137231,-0.0176 0.19932,-0.0561 0.107597,-0.067 0.20955,-0.22754 0.161219,-0.36266 -0.03916,-0.11289 -0.174272,-0.14287 -0.281516,-0.14287 m -3.866091,-0.42757 c -0.10795,0 -0.201436,0.0617 -0.233186,0.21238 -0.03916,0.18944 0.03316,0.44097 0.170745,0.56903 0.108655,0.10089 0.285044,0.16157 0.446969,0.16157 0.23495,0 0.439914,-0.12806 0.361244,-0.44485 -0.04657,-0.18662 -0.246591,-0.33056 -0.398638,-0.41734 -0.07338,-0.0423 -0.152753,-0.0702 -0.227189,-0.0702 -0.01058,0 -0.02152,7.1e-4 -0.0321,0.002 -0.02963,-0.008 -0.05927,-0.0123 -0.08784,-0.0123 m 7.804149,-0.39829 c -0.02046,0 -0.04339,0.005 -0.06809,0.0159 l -0.04904,0.001 c -0.36442,0.10901 -0.36442,0.59337 -0.25012,0.89923 0.03986,0.10513 0.120297,0.25047 0.242358,0.25047 0.0046,0 0.0088,0 0.01341,-3.4e-4 0.148166,-0.0123 0.247297,-0.17286 0.28328,-0.3108 0.04233,-0.15875 0.0702,-0.85584 -0.171803,-0.85584 m -4.974865,0.7613 c -0.0025,0 -0.0053,0 -0.0081,0 l -0.06456,0.0201 c -0.04621,0.0268 -0.08608,0.0882 -0.05644,0.14252 l 0.0046,0.009 c 0.0099,0.018 0.0254,0.0254 0.04269,0.0254 0.03316,0 0.07408,-0.0279 0.09948,-0.0642 0.04374,-0.0526 0.06033,-0.13299 -0.01764,-0.13299 m 2.867729,-0.58985 c -0.05186,0 -0.105833,0.0109 -0.156986,0.0265 -0.168627,0.0356 -0.347133,0.14464 -0.442383,0.29281 -0.103364,0.16122 -0.0321,0.3556 0.157339,0.37253 0.01129,0.001 0.02258,0.002 0.03387,0.002 0.169686,0 0.34925,-0.1076 0.474486,-0.21661 0.09842,-0.0868 0.229658,-0.31432 0.09384,-0.4258 -0.04551,-0.037 -0.1016,-0.0512 -0.160162,-0.0512 m -7.001593,-0.59901 c -0.404283,0 -0.351719,0.67804 -0.215547,0.94297 0.06844,0.1323 0.203553,0.21026 0.337256,0.21026 0.08678,0 0.172861,-0.0328 0.239889,-0.10478 0.213783,-0.22965 0.11183,-0.57961 -0.03563,-0.82056 -0.05433,-0.0882 -0.137936,-0.16122 -0.22613,-0.18626 l -0.0448,-0.0377 c -0.01905,-0.002 -0.03739,-0.004 -0.05503,-0.004 m 3.376083,0.46108 c -0.177447,0 -0.363714,0.16333 -0.404284,0.33584 l 0.02328,0.0723 c 0.04868,0.0187 0.113948,0.0289 0.185209,0.0289 0.211314,0 0.472369,-0.0882 0.487186,-0.29633 0.0067,-0.10055 -0.0448,-0.13618 -0.119592,-0.13618 -0.02505,0 -0.05256,0.004 -0.08149,0.0109 -0.02928,-0.0106 -0.05962,-0.0155 -0.09031,-0.0155 m 6.837539,-0.89147 c -0.01341,0 -0.02963,0.004 -0.04868,0.0141 -0.267759,0.14252 -0.352778,0.47519 -0.355953,0.76941 -0.0021,0.12664 0.03881,0.51011 0.214489,0.51011 0.01905,0 0.03986,-0.005 0.06244,-0.0148 0.201788,-0.0892 0.292099,-0.35313 0.358774,-0.55456 0.05997,-0.18168 0.14605,-0.55951 -0.04727,-0.68757 -0.03492,-0.0229 -0.0702,-0.0324 -0.104422,-0.0324 -0.01588,0 -0.03175,0.002 -0.04727,0.006 -0.0085,-0.006 -0.01905,-0.01 -0.0321,-0.01 m -4.916664,0.76376 c -0.03845,0 -0.07549,0.006 -0.112889,0.0183 -0.144638,0.0332 -0.381705,0.15804 -0.297038,0.34537 0.03175,0.0702 0.08925,0.0963 0.155575,0.0963 0.129822,0 0.293863,-0.10054 0.362655,-0.1658 0.122767,-0.11465 0.100542,-0.27517 -0.07161,-0.29245 -0.01235,-0.001 -0.02469,-0.002 -0.03669,-0.002 m 2.816931,-0.52035 -0.07655,0.0261 -0.0028,7.2e-4 c -0.154164,0.055 -0.287161,0.16263 -0.379589,0.30515 -0.07514,0.11853 -0.0889,0.34608 0.06068,0.40746 0.02752,0.0113 0.05644,0.0162 0.08537,0.0162 0.10407,0 0.213431,-0.0628 0.293511,-0.12101 0.137936,-0.10336 0.240595,-0.26599 0.22472,-0.4519 -0.01023,-0.12418 -0.08396,-0.17604 -0.170039,-0.17851 l -0.03528,-0.004 m -6.434701,0.29563 c -0.06209,0 -0.12312,0.0141 -0.186973,0.0476 -0.04057,0.0219 -0.09278,0.0942 -0.05644,0.14323 0.08502,0.11183 0.230717,0.17569 0.371123,0.17569 0.05927,0 0.117475,-0.0113 0.170038,-0.0353 0.04727,-0.0219 0.123825,-0.0921 0.08043,-0.15346 -0.0448,-0.0628 -0.106186,-0.10195 -0.172861,-0.12488 l -0.03246,-0.0212 c -0.05997,-0.0201 -0.11677,-0.0317 -0.172861,-0.0317 m -2.459211,-0.65443 c -0.04022,0 -0.09031,0.024 -0.112183,0.0674 -0.07726,0.15416 -0.155222,0.34501 -0.118533,0.52493 0.02963,0.14005 0.10795,0.26035 0.252941,0.26035 0.125236,0 0.231422,-0.14817 0.264936,-0.26106 0.03034,-0.0991 0.01058,-0.22119 -0.0074,-0.31891 -0.01587,-0.0931 -0.05044,-0.20073 -0.13229,-0.25153 -0.01764,-0.0109 -0.03669,-0.0155 -0.0568,-0.0155 -0.01588,0 -0.03246,0.003 -0.04868,0.007 -0.01023,-0.008 -0.02505,-0.0127 -0.04198,-0.0127 m 7.608358,0.20743 c -0.0042,0 -0.0088,7.2e-4 -0.01341,0.002 -0.10407,0.0236 -0.183797,0.0663 -0.231422,0.17039 -0.02646,0.0579 -0.0011,0.1016 0.04868,0.1016 0.0085,0 0.01799,-0.001 0.02787,-0.004 0.05786,-0.0166 0.106186,-0.049 0.138995,-0.0977 l 0.0085,-0.009 c 0.03246,-0.0173 0.05927,-0.0441 0.0702,-0.0825 0.0092,-0.0384 -0.01199,-0.0804 -0.04939,-0.0804 m -6.201504,-0.29917 c -0.04833,0 -0.09419,0.0265 -0.125942,0.0893 -0.05856,0.11676 0.0568,0.18485 0.150636,0.18485 0.0011,0 0.0021,0 0.0028,0 0.0568,0 0.131234,-0.078 0.112536,-0.14111 l -7.14e-4,-0.002 -0.0085,-0.0706 c -0.03986,-0.0377 -0.08642,-0.0603 -0.130874,-0.0603 m -2.285286,-0.47484 c -0.01411,0 -0.0314,0.005 -0.05186,0.0159 -0.174273,0.097 -0.248003,0.30586 -0.189442,0.50165 0.03104,0.10477 0.09701,0.15099 0.168628,0.15099 0.06985,0 0.144991,-0.0445 0.197908,-0.12206 0.0829,-0.11995 0.166158,-0.46779 -0.05221,-0.49354 l -0.02082,0.002 c -0.0025,-0.0307 -0.01976,-0.055 -0.05221,-0.055 m 9.448094,-0.0677 c -0.02822,0 -0.05821,0.0169 -0.07902,0.0325 -0.121708,0.0903 -0.383116,0.43497 -0.117122,0.52317 0.01447,0.005 0.02893,0.007 0.0441,0.007 0.09596,0 0.199673,-0.091 0.257175,-0.15487 0.08114,-0.0896 0.162631,-0.20179 0.180623,-0.32809 0.01235,-0.0878 -0.03492,-0.11606 -0.09737,-0.11606 -0.05327,0 -0.117475,0.0201 -0.165806,0.0409 -0.0074,-0.003 -0.01482,-0.004 -0.02258,-0.004 m 1.057981,-0.042 c -0.02046,0 -0.04445,0.01 -0.06879,0.0332 -0.08431,0.0815 -0.141464,0.17639 -0.107597,0.29986 0.0074,0.0265 0.02822,0.0356 0.05115,0.0356 0.02046,0 0.04269,-0.007 0.05856,-0.0166 0.08396,-0.0494 0.210608,-0.16721 0.120297,-0.26176 0.01588,-0.0483 -0.01129,-0.0903 -0.05362,-0.0903 m 1.004005,-0.62301 c -0.02046,0 -0.04445,0.009 -0.06914,0.03 -0.07373,0.0639 -0.132997,0.14676 -0.123119,0.25153 0.0039,0.0406 0.02752,0.0557 0.05539,0.0557 0.02681,0 0.0575,-0.0138 0.07832,-0.0325 0.04692,-0.0406 0.08396,-0.0938 0.111478,-0.15098 0.01658,-0.0335 0.01587,-0.0572 0.0056,-0.073 0.01093,-0.0437 -0.01658,-0.0808 -0.05856,-0.0808 m -0.795161,-0.50165 c -0.168275,0.0681 -0.660047,0.31292 -0.447322,0.57574 0.03034,0.0377 0.07267,0.0515 0.118181,0.0515 0.07973,0 0.170039,-0.042 0.227894,-0.0723 0.12065,-0.0621 0.238478,-0.16157 0.292806,-0.29315 0.05362,-0.13159 0.0042,-0.23778 -0.121356,-0.25083 l -0.0702,-0.0109 m -9.580004,3.28894 c -0.06668,-0.15699 -0.144639,-0.31009 -0.333023,-0.3623 -0.09631,-0.0261 -0.187325,-0.0413 -0.265288,-0.11783 -0.06456,-0.0642 -0.09419,-0.14817 -0.105834,-0.24201 -0.112536,-0.0159 -0.165453,-0.15204 -0.195791,-0.25682 v 0 0 c 0.03034,0.10478 0.08325,0.24095 0.195791,0.25682 0.01164,0.0938 0.04127,0.1778 0.105834,0.24201 0.07796,0.0765 0.16898,0.0917 0.265288,0.11783 0.188737,0.0522 0.2667,0.20496 0.333023,0.3623" />
    <path
       id="path1434"
       style="fill:#ca3c5a;fill-opacity:1;fill-rule:nonzero;stroke:none;stroke-width:0.03527778"
       d="m 38.136235,148.68439 c -0.127353,0.0328 -0.252236,0.03 -0.347839,0.13899 -0.107597,0.12206 -0.144286,0.30727 -0.171097,0.46567 -0.02752,0.16192 -0.221192,0.18697 -0.299509,0.31785 -0.08079,0.13899 -0.09031,0.2734 -0.115711,0.4325 l 0.0095,-7.1e-4 c 0.06456,-0.15416 0.106186,-0.43392 0.286456,-0.48613 0.08008,-0.0243 0.117828,-0.031 0.177094,-0.0945 0.06068,-0.0649 0.0635,-0.20602 0.07655,-0.2861 0.04198,-0.25471 0.219781,-0.32174 0.388761,-0.45262 l -0.0042,-0.0349" />
    <path
       id="path1436"
       style="fill:#b71d43;fill-opacity:1;fill-rule:nonzero;stroke:none;stroke-width:0.03527778"
       d="m 28.297616,150.31669 c 0,-3.5e-4 -3.44e-4,-7.2e-4 -7.14e-4,-0.001 -0.01129,-0.0268 -0.02222,-0.054 -0.03351,-0.0811 0.01164,0.0272 0.02293,0.055 0.03422,0.0822 m -0.934146,-1.06116 c -0.0074,-0.0254 -0.01093,-0.0543 -0.01093,-0.0843 -3.44e-4,-0.0914 0.0314,-0.19579 0.08079,-0.25577 -3.44e-4,0.001 -7.15e-4,0.002 -0.0011,0.004 -0.06456,0.0811 -0.09842,0.23566 -0.06879,0.3362" />
    <path
       id="path1438"
       style="fill:#e94e62;fill-opacity:1;fill-rule:nonzero;stroke:none;stroke-width:0.03527778"
       d="m 27.764569,150.21615 c 0.04798,-0.0374 0.100894,-0.0603 0.157692,-0.0603 0.02752,0 0.05609,0.005 0.08537,0.0176 l -0.0042,-3.4e-4 c -0.02822,-0.0113 -0.05574,-0.0162 -0.0822,-0.0162 -0.05609,0 -0.108303,0.0226 -0.155575,0.0589 -3.44e-4,3.5e-4 -7.14e-4,3.5e-4 -0.0011,3.5e-4" />
    <path
       id="path1440"
       style="fill:#e43f52;fill-opacity:1;fill-rule:nonzero;stroke:none;stroke-width:0.03527778"
       d="m 28.296911,150.31563 c -0.05645,-0.0713 -0.130528,-0.12241 -0.230717,-0.13899 l -0.05856,-0.003 c -0.02928,-0.0124 -0.05786,-0.0177 -0.08537,-0.0177 -0.0568,0 -0.109714,0.0229 -0.157692,0.0603 -0.01905,0.004 -0.0374,0.006 -0.05433,0.006 -0.08255,0 -0.138289,-0.0554 -0.148519,-0.27976 -0.0039,-0.0847 -0.09066,-0.15981 -0.141111,-0.21413 -0.367242,-0.39617 -0.303037,-0.97932 0.179211,-1.21779 -0.07373,0.13052 -0.130528,0.25823 -0.166511,0.40499 -0.04939,0.06 -0.08114,0.16439 -0.08079,0.25576 0,0.03 0.0035,0.0589 0.01093,0.0843 v 0 c 0.03034,0.10478 0.08326,0.24095 0.195791,0.25683 0.01164,0.0938 0.04127,0.1778 0.105834,0.242 0.07796,0.0765 0.16898,0.0917 0.265288,0.11783 0.188384,0.0522 0.266348,0.20532 0.333023,0.3623 0.01129,0.0272 0.02222,0.0543 0.03351,0.0811" />
    <path
       id="path1442"
       style="fill:#b71d43;fill-opacity:1;fill-rule:nonzero;stroke:none;stroke-width:0.03527778"
       d="m 37.301915,150.05316 c -0.0053,-0.0741 -0.01058,-0.14887 -0.01799,-0.22472 v 0 c 0.0078,0.0759 0.01305,0.15064 0.01799,0.22472" />
    <path
       id="path1444"
       style="fill:#b21b38;fill-opacity:1;fill-rule:nonzero;stroke:none;stroke-width:0.03527778"
       d="m 38.231485,148.36406 c 0,0 0,0 -3.44e-4,0 3.44e-4,0 3.44e-4,0 3.44e-4,0 v 0 m 0.0035,0 c 0.02822,-7.1e-4 0.05786,-0.009 0.08361,-0.0229 -0.02575,0.0138 -0.05539,0.0222 -0.08361,0.0229 m -0.02399,-0.001 c 0,0 -3.44e-4,-3.4e-4 -7.14e-4,-3.4e-4 3.44e-4,0 7.14e-4,3.4e-4 7.14e-4,3.4e-4 m 0.110067,-0.0229 c 7.14e-4,0 0.0011,-3.4e-4 0.0014,-7.1e-4 -3.44e-4,3.4e-4 -7.14e-4,7.1e-4 -0.0014,7.1e-4 m -0.05609,-0.0504 c -3.44e-4,0 -7.14e-4,0 -0.0011,0 3.44e-4,0 7.14e-4,0 0.0011,0 v 0 m 0.0025,0 c 0.02469,-3.5e-4 0.04939,-0.005 0.07691,-0.0198 0.0025,-0.001 0.0049,-0.002 0.0071,-0.004 -0.0021,0.001 -0.0046,0.002 -0.0071,0.004 -0.02752,0.0145 -0.05221,0.0194 -0.07691,0.0198 m -0.06315,-0.006 c -0.0021,-3.5e-4 -0.0042,-7.2e-4 -0.006,-0.001 -0.0028,-0.0332 -0.0042,-0.0663 -0.0042,-0.0998 v 0 c 0,0.0335 0.0014,0.0667 0.0042,0.0998 0.0018,3.4e-4 0.0039,7.1e-4 0.006,0.001 m 0.149225,-0.0183 c 0.05715,-0.0328 0.09102,-0.0818 0.122413,-0.14323 l 0.0021,0.001 v 0 h -0.0028 c -0.03069,0.06 -0.06456,0.10901 -0.121708,0.14182" />
    <path
       id="path1446"
       style="fill:#e43f52;fill-opacity:1;fill-rule:nonzero;stroke:none;stroke-width:0.03527778"
       d="m 37.315674,150.24895 c -0.0053,-0.0653 -0.0095,-0.13017 -0.01376,-0.19579 -0.0049,-0.0741 -0.01023,-0.14887 -0.01799,-0.22472 0.01411,-0.0399 0.02999,-0.0797 0.04833,-0.11606 0.02611,-0.0406 0.05927,-0.0748 0.101953,-0.10019 0.03069,-0.0183 0.05609,-0.0399 0.07761,-0.0639 0.07091,-0.0212 0.107597,-0.0307 0.163336,-0.0903 0.06068,-0.0649 0.0635,-0.20603 0.07655,-0.28611 0.04198,-0.2547 0.219781,-0.32173 0.388761,-0.45261 v 0 c 0.05151,-0.0392 0.08678,-0.0928 0.08643,-0.17604 v 0 c 0,-0.012 -7.15e-4,-0.0247 -0.0025,-0.0381 -0.0064,-0.049 -0.01235,-0.0967 -0.01799,-0.14322 0.0014,0 0.0028,3.4e-4 0.0039,3.4e-4 3.44e-4,0 7.14e-4,3.4e-4 7.14e-4,3.4e-4 0.0067,7.2e-4 0.01341,10e-4 0.02011,10e-4 3.44e-4,0 3.44e-4,0 3.44e-4,0 v 0 0 c 0.0014,0 0.0025,0 0.0035,0 0.02822,-7.1e-4 0.05786,-0.009 0.08361,-0.0229 0.0011,-3.4e-4 0.0018,-7.1e-4 0.0025,-0.001 7.15e-4,0 0.0011,-3.4e-4 0.0014,-7.1e-4 0.0032,-0.002 0.0064,-0.004 0.0095,-0.006 0.08184,-0.0508 0.121708,-0.1143 0.14605,-0.21061 v 0 0 0 l -0.0021,-10e-4 c -0.0314,0.0614 -0.06526,0.11042 -0.122414,0.14323 -7.14e-4,3.4e-4 -0.0014,7.1e-4 -0.0021,0.001 -0.0021,0.001 -0.0046,0.002 -0.0071,0.004 -0.02752,0.0145 -0.05221,0.0194 -0.07691,0.0198 -7.15e-4,0 -0.0014,0 -0.0025,0 -3.44e-4,0 -7.14e-4,0 -0.0011,0 -0.0194,0 -0.03916,-0.003 -0.05962,-0.006 -0.0021,-3.4e-4 -0.0042,-7.1e-4 -0.006,-0.001 -0.0028,-0.0332 -0.0042,-0.0663 -0.0042,-0.0998 0,-0.0339 0.0014,-0.0681 0.0049,-0.10266 l 0.0074,-0.0346 c 0.03316,0.0519 0.08749,0.0825 0.174978,0.0825 0.250119,-3.5e-4 0.452614,-0.21202 0.623005,-0.43815 -0.05115,0.1531 -0.111125,0.30268 -0.202494,0.4445 -0.0822,0.12594 -0.309386,0.20249 -0.385939,0.34854 -0.146756,0.28611 -0.137936,0.5073 -0.428625,0.68157 -0.249414,0.15099 -0.378883,0.60219 -0.5588,0.82832 -0.06456,0.0797 -0.09701,0.16581 -0.112889,0.25682" />
    <path
       id="path1448"
       style="fill:#c6314b;fill-opacity:1;fill-rule:nonzero;stroke:none;stroke-width:0.03527778"
       d="m 37.283924,149.82844 c -3.44e-4,-0.003 -3.44e-4,-0.005 -7.15e-4,-0.008 0.01235,-0.0388 0.02822,-0.0755 0.04904,-0.10795 -0.01834,0.0363 -0.03422,0.0762 -0.04833,0.11607 v 0 0 m 0.227894,-0.28011 c 0.02364,-0.0261 0.04269,-0.055 0.05856,-0.0854 l 0.01517,-0.009 c 0.0381,-0.0296 0.05786,-0.0861 0.07726,-0.13017 0.0441,-0.0977 0.05997,-0.21555 0.09737,-0.3175 0.02822,-0.0773 0.0762,-0.12771 0.132292,-0.1711 0.08043,-0.037 0.178858,-0.0635 0.248003,-0.11571 v 0 c -0.168981,0.13088 -0.346781,0.19791 -0.388762,0.45261 -0.01305,0.0801 -0.01587,0.22119 -0.07655,0.2861 -0.05574,0.0596 -0.09243,0.0691 -0.163336,0.0903" />
    <path
       id="path1450"
       style="fill:#f7a9b5;fill-opacity:1;fill-rule:nonzero;stroke:none;stroke-width:0.03527778"
       d="m 26.526319,150.78165 c -0.182033,-0.39688 0.03634,-0.74824 0.378883,-0.92816 l 0.0021,0.007 c -0.27305,0.22578 -0.40393,0.5401 -0.359833,0.90805 l -0.02117,0.0131" />
    <path
       id="path1452"
       style="fill:#f7a9b5;fill-opacity:1;fill-rule:nonzero;stroke:none;stroke-width:0.03527778"
       d="m 26.389794,152.66125 c -0.216253,-0.31962 -0.137936,-0.61454 0.06738,-0.90805 l 0.0035,7.1e-4 c -0.124533,0.30586 -0.136175,0.57256 -0.0501,0.8943 l -0.02081,0.013" />
    <path
       id="path1454"
       style="fill:#f7a9b5;fill-opacity:1;fill-rule:nonzero;stroke:none;stroke-width:0.03527778"
       d="m 26.783847,154.23005 c -0.104775,-0.0624 -0.206023,-0.13899 -0.236361,-0.27128 -0.03775,-0.16757 -0.02117,-0.29845 0.04692,-0.45473 h 0.0049 c -0.06209,0.28222 0.07161,0.47519 0.20955,0.69779 l -0.02505,0.0282" />
    <path
       id="path1456"
       style="fill:#f7a9b5;fill-opacity:1;fill-rule:nonzero;stroke:none;stroke-width:0.03527778"
       d="m 27.996697,149.54693 c -0.09031,-0.0392 -0.158398,-0.11995 -0.158398,-0.22825 0,-0.0653 0.0032,-0.13088 0.01693,-0.19332 0.01446,-0.0607 0.04692,-0.1016 0.06773,-0.15805 h 0.006 c -0.0032,0.0388 -0.02681,0.073 -0.02681,0.11466 0,0.0593 0.0042,0.121 0.0092,0.18097 0.01023,0.10125 0.07303,0.16122 0.12312,0.2406 l -0.03775,0.0434" />
    <path
       id="path1458"
       style="fill:#f7a9b5;fill-opacity:1;fill-rule:nonzero;stroke:none;stroke-width:0.03527778"
       d="m 28.808438,150.27435 c -0.08714,0 -0.167569,-0.0603 -0.200025,-0.15416 -0.04833,-0.13864 -0.02117,-0.27411 0.01799,-0.40852 h 0.006 c -0.0053,0.10937 0.0042,0.21132 0.05997,0.30798 0.05256,0.0903 0.132998,0.12876 0.203553,0.19897 l -0.01447,0.0413 c -0.02434,0.01 -0.04904,0.0145 -0.07302,0.0145" />
    <path
       id="path1460"
       style="fill:#f7a9b5;fill-opacity:1;fill-rule:nonzero;stroke:none;stroke-width:0.03527778"
       d="m 30.398408,150.97603 c -0.109361,0 -0.213784,-0.0296 -0.298098,-0.127 -0.09102,-0.10407 -0.158044,-0.27623 -0.1524,-0.42157 h 0.0042 c 0.06244,0.30057 0.387703,0.44379 0.638528,0.49177 l -0.0074,0.036 c -0.06174,0.0116 -0.124178,0.0208 -0.184855,0.0208" />
    <path
       id="path1462"
       style="fill:#f7a9b5;fill-opacity:1;fill-rule:nonzero;stroke:none;stroke-width:0.03527778"
       d="m 37.66069,150.66664 c -0.18168,-0.22189 -0.129469,-0.51399 0.01517,-0.73801 l 0.0049,7.2e-4 c -0.04339,0.11924 -0.06068,0.24871 -0.05292,0.37606 0.006,0.1143 0.05221,0.21907 0.07232,0.3309 l -0.03951,0.0303" />
    <path
       id="path1464"
       style="fill:#f7a9b5;fill-opacity:1;fill-rule:nonzero;stroke:none;stroke-width:0.03527778"
       d="m 37.670568,152.53601 c -0.166158,-0.0988 -0.144286,-0.41769 -0.02893,-0.54857 l 0.0067,0.003 c -0.07832,0.16863 0.03104,0.34361 0.06703,0.50342 l -0.0448,0.0423" />
    <path
       id="path1466"
       style="fill:#f7a9b5;fill-opacity:1;fill-rule:nonzero;stroke:none;stroke-width:0.03527778"
       d="m 37.623649,153.94712 c -0.131586,-0.12065 -0.124884,-0.31714 -0.05503,-0.47272 0.03422,-0.078 0.125942,-0.18344 0.214137,-0.19226 v 0.0109 c -0.08396,0.0476 -0.130175,0.20179 -0.140053,0.29422 -0.01023,0.10971 0.01058,0.21625 0.02858,0.32243 l -0.04763,0.0374" />
    <path
       id="path1468"
       style="fill:#f7a9b5;fill-opacity:1;fill-rule:nonzero;stroke:none;stroke-width:0.03527778"
       d="m 36.700429,155.58754 c -0.0381,-0.23142 0.24765,-0.46249 0.45332,-0.46249 0.0067,0 0.01341,3.4e-4 0.01976,7.1e-4 l -0.0011,0.008 c -0.09243,0.0275 -0.210256,0.11713 -0.276578,0.19086 -0.06738,0.0765 -0.09631,0.17215 -0.148166,0.25823 l -0.04727,0.004" />
    <path
       id="path1470"
       style="fill:#f7a9b5;fill-opacity:1;fill-rule:nonzero;stroke:none;stroke-width:0.03527778"
       d="m 31.882544,158.28982 c -0.167217,-0.18062 0.04692,-0.44309 0.211666,-0.51188 l 7.15e-4,0.006 c -0.06879,0.0586 -0.136525,0.14464 -0.148167,0.24236 -0.01023,0.0773 0,0.1524 -0.01023,0.2293 l -0.05398,0.0346" />
    <path
       id="path1472"
       style="fill:#f7a9b5;fill-opacity:1;fill-rule:nonzero;stroke:none;stroke-width:0.03527778"
       d="m 33.826702,157.39235 c -0.05962,0 -0.119592,-0.003 -0.178859,-0.008 -0.272344,-0.0272 -0.54363,-0.12982 -0.819149,-0.12982 -0.01376,0 -0.02716,3.4e-4 -0.04057,7.1e-4 l 0.0021,-0.002 c 0.06421,-0.0116 0.128411,-0.0166 0.191911,-0.0166 0.195086,0 0.387702,0.0437 0.583141,0.0621 0.08396,0.008 0.167217,0.012 0.25012,0.012 0.215194,0 0.427566,-0.0275 0.639939,-0.0833 v 0.0353 c -0.195792,0.0917 -0.41275,0.13053 -0.62865,0.13053" />
    <path
       id="path1474"
       style="fill:#f7a9b5;fill-opacity:1;fill-rule:nonzero;stroke:none;stroke-width:0.03527778"
       d="m 34.636327,157.18598 c -0.01482,0 -0.02893,-0.006 -0.03951,-0.0198 l 0.0028,-0.007 0.08996,-0.0607 c 0.0049,-0.002 0.0092,-0.003 0.01305,-0.003 0.02117,0 0.02328,0.0303 0.0092,0.049 -0.01658,0.0212 -0.04727,0.0413 -0.07549,0.0413" />
    <path
       id="path1476"
       style="fill:#f78f75;fill-opacity:1;fill-rule:nonzero;stroke:none;stroke-width:0.03527778"
       d="m 27.90568,155.14798 c 0.06279,-0.0931 0.117122,-0.19579 0.168275,-0.30268 l -0.0042,0.004 c -0.08008,0.14605 -0.1778,0.21625 -0.311503,0.24482 -0.278345,-0.23703 -0.02752,-0.557 -0.26882,-0.83605 -0.0074,-0.009 -0.01799,-0.15063 -0.02963,-0.32314 0.04339,-0.16651 0.128411,-0.33126 0.106892,-0.49459 -0.03634,-0.27482 -0.217664,-0.4251 -0.153812,-0.74154 0.06138,-0.31186 0.125589,-0.46638 0.08431,-0.76588 -0.0092,-0.0656 -0.03034,-0.13653 -0.05715,-0.20885 -0.04551,-0.34748 -0.129822,-0.61277 0.0095,-0.99624 0.0441,-0.12065 0.05045,-0.24836 0.05045,-0.37571 0.04339,-0.22931 0.08255,-0.49953 0.04339,-0.7112 v -0.0596 l -0.02293,-0.0423 -7.14e-4,0.004 -0.0074,-0.0173 -0.06491,-0.0716 c 0.02681,0.0938 0.01517,0.21978 -0.01023,0.34819 l -0.0014,0.004 c -0.02822,0.14146 -0.0702,0.28328 -0.08961,0.38453 -0.05115,0.26599 -0.0056,0.51682 -0.147461,0.7627 -0.09631,0.16828 -0.03986,0.40781 0.02893,0.61595 0.0064,0.10054 0.02328,0.20214 0.04692,0.30868 0.06456,0.29563 -0.05256,0.58173 -0.05045,0.88054 -0.01376,0.0723 -0.01729,0.14217 -0.0032,0.19508 0.01552,0.0572 0.04939,0.14394 0.08255,0.23919 0.04339,0.18732 0.06279,0.34431 0.03704,0.58208 -0.01376,0.13229 -0.05221,0.33972 0.03881,0.45544 0.221191,0.28186 0.03245,0.65687 0.277636,0.87735 l -0.02822,0.004 c -0.164754,0.006 -0.310804,-0.048 -0.411345,-0.18946 l -0.0071,0.008 c 0.128411,0.26247 0.467077,0.34502 0.695325,0.21837" />
    <path
       id="path1478"
       style="fill:#f78f75;fill-opacity:1;fill-rule:nonzero;stroke:none;stroke-width:0.03527778"
       d="m 38.43786,152.01214 c -0.01517,-0.0639 -0.01834,-0.12877 -0.01834,-0.19438 0.06809,-0.32491 0.176388,-0.64806 0.164394,-0.98319 -0.01834,-0.50412 -0.264583,-0.88477 -0.240947,-1.40829 0.01023,-0.22472 -0.01093,-0.43321 -0.107597,-0.62548 -0.03422,-0.0339 -0.07373,-0.0642 -0.117828,-0.0889 0.115711,0.23813 0.107597,0.43886 0.09525,0.65299 -0.02611,0.12559 -0.09737,0.26388 -0.0889,0.39018 0.01658,0.26846 0.152753,0.50482 0.261055,0.75106 0.04692,0.17286 0.08326,0.35137 0.07655,0.54963 -0.01447,0.40534 -0.246592,0.8008 -0.21978,1.21003 0.03916,0.55738 0.175683,1.02446 0.04127,1.59032 -0.09525,0.4004 -0.324556,0.72213 -0.467078,1.0982 -0.182739,0.47942 -0.197203,0.9338 -0.588434,1.29257 -0.409927,0.37571 -0.865363,0.48789 -1.355372,0.67381 -0.168275,0.0656 -0.363714,0.12418 -0.51823,0.23283 0.02293,-0.13758 0.08149,-0.26317 0.172861,-0.34078 l -0.0018,-0.007 c -0.202142,0.11571 -0.445206,0.55139 -0.259292,0.78211 0.10407,0.12806 0.221192,0.28504 0.389467,0.31538 l 0.07832,0.009 c 0.15875,0.003 0.309386,-0.0275 0.460375,-0.0737 -0.226484,0.0138 -0.474134,0.0152 -0.65652,-0.11324 -0.154517,-0.10936 -0.208844,-0.32315 -0.187325,-0.52564 0.68192,-0.23424 1.623131,-0.36513 2.082095,-1.01635 l 0.02117,-0.0335 c 0.189795,-0.14358 0.406047,-0.32244 0.472722,-0.56939 0.100542,-0.36865 0.101953,-0.74824 0.216959,-1.11054 0.110419,-0.24871 0.222603,-0.49883 0.286808,-0.77047 0.02399,-0.10054 0.03775,-0.2039 0.04621,-0.30797 0.08114,-0.26847 0.150989,-0.52211 0.145344,-0.81351 -0.0042,-0.19154 -0.137907,-0.38522 -0.183415,-0.56584" />
    <path
       id="path1480"
       style="fill:#f78f75;fill-opacity:1;fill-rule:nonzero;stroke:none;stroke-width:0.03527778"
       d="m 38.447032,146.96565 c -0.09842,0.0254 -0.197908,0.0991 -0.244828,0.17145 -0.05221,0.0804 -0.09207,0.16934 -0.135466,0.25471 -0.06491,0.12453 -0.184856,0.13546 -0.294923,0.18238 -0.04551,0.0194 -0.09525,0.0434 -0.143227,0.0695 -0.229659,0.0995 -0.352425,0.34184 -0.470253,0.57397 -0.115711,0.22684 -0.19685,0.37712 -0.381706,0.49742 -0.210608,0.0325 -0.344311,0.0988 -0.494594,0.30762 -0.02963,0.0406 -0.05645,0.0847 -0.08114,0.12665 -0.295627,0.30585 -0.676627,0.47272 -1.078441,0.5408 -0.150283,0.0247 -0.274108,0.0854 -0.403225,0.16475 -0.504119,0.3115 -0.940505,0.39053 -1.436511,0.4004 -0.128763,-0.0236 -0.259644,-0.0572 -0.393347,-0.10618 -0.274813,-0.0998 -0.553861,0.037 -0.826205,0.14323 -0.101953,0.055 -0.195086,0.0991 -0.312914,0.12206 -0.190147,0.0363 -0.386997,-0.14535 -0.53728,-0.32032 l -0.03845,-0.0222 c -0.512234,-0.27975 -1.1303,-0.24659 -1.571625,-0.68615 -0.128411,-0.12736 -0.275167,-0.34749 -0.437797,-0.42369 l -0.006,-0.003 c -0.07937,-0.0656 -0.165451,-0.11924 -0.256468,-0.13159 l -0.04939,0.0109 c -0.09313,0.0233 -0.217311,0.0483 -0.307622,-0.006 -0.148167,-0.0885 -0.208492,-0.23601 -0.265642,-0.39053 -0.158044,-0.22931 -0.359833,-0.38523 -0.640997,-0.40781 l -0.0014,0.005 c 0.285397,0.0554 0.427214,0.26141 0.567972,0.46461 0.04339,0.14605 0.06597,0.28504 0.173567,0.41733 0.09349,0.11466 0.353483,0.127 0.473428,0.11466 0.396169,-0.0409 0.615244,0.42227 0.865364,0.63711 0.1143,0.0981 0.247297,0.14005 0.383116,0.17039 0.113595,0.0646 0.231423,0.12595 0.345723,0.15064 0.172861,0.0353 0.342547,0.0765 0.51188,0.12347 0.122061,0.0462 0.277636,0.20885 0.401108,0.28258 0.324556,0.19508 0.580673,0.12276 0.853723,0.0325 0.168627,-0.0882 0.336197,-0.15734 0.532694,-0.16968 0.178858,-0.0123 0.354894,0.0374 0.531635,0.078 0.394406,0.0289 0.7747,0.0751 1.101373,-0.13935 0.03422,-0.0131 0.06456,-0.031 0.09631,-0.0473 0.1397,-0.1457 0.295628,-0.27834 0.473428,-0.3489 0.325261,-0.13017 0.677333,-0.0653 1.0033,-0.19085 h 0.06315 l 0.07937,-0.0529 c 0.104775,-0.091 0.179917,-0.18344 0.252942,-0.30374 0.02117,-0.036 0.04269,-0.0699 0.06315,-0.10477 0.150283,-0.12771 0.305505,-0.24942 0.490008,-0.33302 0.456142,-0.20673 0.285397,-0.90664 0.755297,-1.13207 0.07161,-0.0102 0.148167,-10e-4 0.223661,0.003 0.08431,0.007 0.177095,-0.078 0.237773,-0.13088 0.165452,-0.14393 0.155927,-0.54892 0.392289,-0.5461 l -0.06279,-0.048" />
  </g>
</svg>
