<?xml version="1.0" encoding="UTF-8" standalone="no"?>
<svg
   xmlns:dc="http://purl.org/dc/elements/1.1/"
   xmlns:cc="http://creativecommons.org/ns#"
   xmlns:rdf="http://www.w3.org/1999/02/22-rdf-syntax-ns#"
   xmlns:svg="http://www.w3.org/2000/svg"
   xmlns="http://www.w3.org/2000/svg"
   id="svg4330"
   version="1.1"
   viewBox="0 0 19.99033 19.990511"
   height="19.990511mm"
   width="19.99033mm">
  <defs
     id="defs4324" />
  <metadata
     id="metadata4327">
    <rdf:RDF>
      <cc:Work
         rdf:about="">
        <dc:format>image/svg+xml</dc:format>
        <dc:type
           rdf:resource="http://purl.org/dc/dcmitype/StillImage" />
        <dc:title></dc:title>
      </cc:Work>
    </rdf:RDF>
  </metadata>
  <g
     transform="translate(-178.23698,-173.61189)"
     id="layer1">
    <path
       id="path266"
       style="fill:#cceef7;fill-opacity:1;fill-rule:nonzero;stroke:none;stroke-width:0.03527778"
       d="m 181.55323,179.72024 c 0.82268,0 1.48964,-0.66746 1.48964,-1.49014 0,-0.82267 -0.66696,-1.49013 -1.48964,-1.49013 -0.82338,0 -1.49034,0.66746 -1.49034,1.49013 0,0.82268 0.66696,1.49014 1.49034,1.49014" />
    <path
       id="path268"
       style="fill:#cceef7;fill-opacity:1;fill-rule:nonzero;stroke:none;stroke-width:0.03527778"
       d="m 185.99506,180.02786 c 0.99247,0 1.79793,-0.80398 1.79793,-1.79776 0,-0.99377 -0.80546,-1.79846 -1.79793,-1.79846 -0.99329,0 -1.79878,0.80469 -1.79878,1.79846 0,0.99378 0.80549,1.79776 1.79878,1.79776" />
    <path
       id="path270"
       style="fill:#cceef7;fill-opacity:1;fill-rule:nonzero;stroke:none;stroke-width:0.03527778"
       d="m 190.43603,180.29915 c 1.14311,0 2.06915,-0.9264 2.06915,-2.06905 0,-1.14335 -0.92604,-2.06939 -2.06915,-2.06939 -1.14264,0 -2.06869,0.92604 -2.06869,2.06939 0,1.14265 0.92605,2.06905 2.06869,2.06905" />
    <path
       id="path316"
       style="fill:#cceef7;fill-opacity:1;fill-rule:nonzero;stroke:none;stroke-width:0.03527778"
       d="m 181.55323,184.34692 c 0.92467,0 1.67457,-0.75001 1.67457,-1.67534 0,-0.92534 -0.7499,-1.67499 -1.67457,-1.67499 -0.92537,0 -1.67502,0.74965 -1.67502,1.67499 0,0.92533 0.74965,1.67534 1.67502,1.67534" />
    <path
       id="path318"
       style="fill:#cceef7;fill-opacity:1;fill-rule:nonzero;stroke:none;stroke-width:0.03527778"
       d="m 185.99506,184.65419 c 1.09512,0 1.98215,-0.88724 1.98215,-1.98261 0,-1.09503 -0.88703,-1.98332 -1.98215,-1.98332 -1.09598,0 -1.98343,0.88829 -1.98343,1.98332 0,1.09537 0.88745,1.98261 1.98343,1.98261" />
    <path
       id="path320"
       style="fill:#cceef7;fill-opacity:1;fill-rule:nonzero;stroke:none;stroke-width:0.03527778"
       d="m 190.43603,184.92512 c 1.24482,0 2.2538,-1.00894 2.2538,-2.25354 0,-1.24531 -1.00898,-2.2539 -2.2538,-2.2539 -1.24502,0 -2.25375,1.00859 -2.25375,2.2539 0,1.2446 1.00873,2.25354 2.25375,2.25354" />
    <path
       id="path322"
       style="fill:#cceef7;fill-opacity:1;fill-rule:nonzero;stroke:none;stroke-width:0.03527778"
       d="m 194.87747,185.15972 c 1.37432,0 2.48871,-1.11372 2.48871,-2.48814 0,-1.37407 -1.11439,-2.48779 -2.48871,-2.48779 -1.37389,0 -2.48736,1.11372 -2.48736,2.48779 0,1.37442 1.11347,2.48814 2.48736,2.48814" />
    <path
       id="path366"
       style="fill:#cceef7;fill-opacity:1;fill-rule:nonzero;stroke:none;stroke-width:0.03527778"
       d="m 181.55323,188.93585 c 1.00665,0 1.82245,-0.81597 1.82245,-1.8228 0,-1.00718 -0.8158,-1.8228 -1.82245,-1.8228 -1.00736,0 -1.82316,0.81562 -1.82316,1.8228 0,1.00683 0.8158,1.8228 1.82316,1.8228" />
    <path
       id="path368"
       style="fill:#cceef7;fill-opacity:1;fill-rule:nonzero;stroke:none;stroke-width:0.03527778"
       d="m 185.99506,189.24383 c 1.1764,0 2.13028,-0.95427 2.13028,-2.13078 0,-1.17652 -0.95388,-2.13078 -2.13028,-2.13078 -1.17726,0 -2.13089,0.95426 -2.13089,2.13078 0,1.17651 0.95363,2.13078 2.13089,2.13078" />
    <path
       id="path370"
       style="fill:#cceef7;fill-opacity:1;fill-rule:nonzero;stroke:none;stroke-width:0.03527778"
       d="m 190.43603,189.51441 c 1.32638,0 2.40193,-1.07421 2.40193,-2.40136 0,-1.32574 -1.07555,-2.40136 -2.40193,-2.40136 -1.32633,0 -2.40121,1.07562 -2.40121,2.40136 0,1.32715 1.07488,2.40136 2.40121,2.40136" />
    <path
       id="path372"
       style="fill:#cceef7;fill-opacity:1;fill-rule:nonzero;stroke:none;stroke-width:0.03527778"
       d="m 194.87747,189.73666 c 1.449,0 2.62382,-1.1744 2.62382,-2.62361 0,-1.44886 -1.17482,-2.62326 -2.62382,-2.62326 -1.449,0 -2.62311,1.1744 -2.62311,2.62326 0,1.44921 1.17411,2.62361 2.62311,2.62361" />
    <path
       id="path1394"
       style="fill:#f477ad;fill-opacity:1;fill-rule:nonzero;stroke:none;stroke-width:0.03527778"
       d="m 198.22731,183.60714 c 0,5.52027 -4.47502,9.99526 -9.99473,9.99526 -5.52044,0 -9.9956,-4.47499 -9.9956,-9.99526 0,-5.52026 4.47516,-9.99525 9.9956,-9.99525 5.51971,0 9.99473,4.47499 9.99473,9.99525" />
    <path
       id="path1396"
       style="fill:#ffffff;fill-opacity:1;fill-rule:nonzero;stroke:none;stroke-width:0.03527778"
       d="m 196.81637,183.60714 c 0,4.74098 -3.84333,8.58414 -8.58379,8.58414 -4.74115,0 -8.58449,-3.84316 -8.58449,-8.58414 0,-4.74098 3.84334,-8.58414 8.58449,-8.58414 4.74046,0 8.58379,3.84316 8.58379,8.58414" />
    <path
       id="path1398"
       style="fill:#641a29;fill-opacity:1;fill-rule:nonzero;stroke:none;stroke-width:0.03527778"
       d="m 193.6152,180.2494 c -0.4498,0.0356 -0.89091,0.0261 -1.34634,0.0166 -0.22769,-0.005 -0.4589,-0.009 -0.6966,-0.008 -0.81996,0.003 -1.6764,-0.18768 -2.48049,-0.34537 -0.95497,-0.18698 -1.91202,-0.19227 -2.8794,-0.0931 -0.63253,0.0663 -1.18788,0.2854 -1.6812,0.66393 -0.47682,0.5207 -0.83372,1.18533 -1.15136,1.84855 -0.18122,0.48542 -0.3066,1.00401 -0.40513,1.5307 -0.0717,0.39018 -0.12337,0.77788 -0.15918,1.16664 -0.0455,0.47484 -0.12057,0.95956 -0.0834,1.43722 0.0324,0.42227 0.15364,1.01247 0.50158,1.2954 0.17847,0.14499 0.51195,0.20778 0.73452,0.14005 0.93017,-0.28116 1.44417,-0.96943 2.15731,-1.58715 0.74619,-0.64629 1.81419,-0.85196 2.78225,-1.13136 0.0661,0.018 0.13917,0.0198 0.19156,0.008 0.37412,-0.0836 0.71794,-0.25435 1.07004,-0.40922 0.87161,-0.30797 1.71496,-0.68615 2.47012,-1.17828 0.35556,-0.23248 0.72485,-0.51823 1.06867,-0.84525 0.27908,-0.30762 0.5595,-0.635 0.67179,-1.01141 l -0.0344,0.0452 c 0.0469,-0.11112 0.0785,-0.22825 0.0958,-0.35207 0.0579,-0.57432 -0.22807,-1.01353 -0.82613,-1.19098" />
    <path
       id="path1400"
       style="fill:#9d2943;fill-opacity:1;fill-rule:nonzero;stroke:none;stroke-width:0.03527778"
       d="m 188.20708,185.17242 c -0.41067,0.16898 -0.83235,0.30868 -1.24231,0.48013 -0.48574,0.25858 -0.94188,0.55351 -1.37047,0.95391 -0.41339,0.38453 -1.01628,1.01882 -1.61022,1.11831 -0.89849,0.14922 -1.17341,-0.79834 -1.09142,-1.56387 -0.0158,-0.53163 0.0717,-1.07174 0.14746,-1.59067 0.15021,-1.03258 0.34106,-2.07786 0.85852,-2.99756 0.14471,-0.25682 0.31764,-0.49918 0.51883,-0.71472 0.48023,-0.51577 1.08726,-0.81175 1.77973,-0.91052 1.06937,-0.15381 2.06294,0.0148 3.0758,0.17991 -0.62978,0.40323 -0.79375,2.12161 -0.84406,2.56152 -0.0903,0.78352 -0.073,1.63195 0.29834,2.34174 -0.17293,0.042 -0.34656,0.09 -0.5202,0.14182" />
    <path
       id="path1402"
       style="fill:#9d2943;fill-opacity:1;fill-rule:nonzero;stroke:none;stroke-width:0.03527778"
       d="m 194.08164,182.12018 c -0.52917,0.63712 -1.13411,1.19804 -1.88239,1.56881 -0.95913,0.47625 -1.97954,0.91122 -3.01999,1.23648 l -0.0875,0.0194 c -0.43889,-0.11112 -0.52295,-0.75318 -0.57464,-1.28834 -0.0758,-0.77964 -0.002,-3.34081 1.14445,-3.46745 0.31489,0.0487 0.63115,0.0945 0.9543,0.12523 1.04041,0.0995 2.16972,0.26494 3.21426,0.0945 0.35624,0.15522 0.53125,0.61595 0.51333,1.02658 -0.01,0.25471 -0.11987,0.47696 -0.26183,0.68474" />
    <path
       id="path1404"
       style="fill:#51101c;fill-opacity:1;fill-rule:nonzero;stroke:none;stroke-width:0.03527778"
       d="m 183.80219,187.74029 c -2.9e-4,0 -5.6e-4,0 -8.5e-4,0 2.9e-4,0 5.6e-4,0 8.5e-4,0 v 0 m 1.4e-4,0 c 0.0562,0 0.11561,-0.005 0.17787,-0.0148 -0.0623,0.01 -0.12153,0.0148 -0.17787,0.0148 m -0.91186,-1.55787 c 1.4e-4,-0.001 2.9e-4,-0.003 4.2e-4,-0.005 -1.4e-4,10e-4 -2.9e-4,0.003 -4.2e-4,0.005 m 5.3e-4,-0.005 v 0 0 m 4.2e-4,-0.005 c 4.3e-4,-0.004 8.5e-4,-0.008 10e-4,-0.0116 -3.9e-4,0.004 -8.2e-4,0.008 -10e-4,0.0116 m 10e-4,-0.0116 c -6.6e-4,-0.0233 -10e-4,-0.0466 -0.002,-0.0702 2.9e-4,0.0236 8.5e-4,0.0469 0.002,0.0702 v 0 m 5.83463,-1.1303 c -0.20518,-0.39229 -0.30233,-0.82656 -0.33281,-1.26929 8.5e-4,0 0.002,-3.5e-4 0.003,-7.2e-4 0.0303,0.44239 0.12471,0.87701 0.33002,1.27" />
    <path
       id="path1406"
       style="fill:#7c192c;fill-opacity:1;fill-rule:nonzero;stroke:none;stroke-width:0.03527778"
       d="m 183.80219,187.74029 c -2.9e-4,0 -5.6e-4,0 -8.5e-4,0 -0.74552,-7.2e-4 -0.98005,-0.85126 -0.91087,-1.55787 1.4e-4,-0.001 2.9e-4,-0.003 4.2e-4,-0.005 1.1e-4,0 1.1e-4,0 1.1e-4,-3.4e-4 v 0 c 1.4e-4,-0.002 2.9e-4,-0.003 4.2e-4,-0.005 4.3e-4,-0.004 8.5e-4,-0.008 10e-4,-0.0116 v 0 0 0 c -6.6e-4,-0.0233 -10e-4,-0.0466 -0.002,-0.0702 -0.002,-0.20073 0.0106,-0.40288 0.0298,-0.60466 0.0582,0.0406 0.12294,0.0727 0.19678,0.0938 0.0128,0.54962 0.12925,1.06292 0.41783,1.43651 l 0.0289,-0.0254 c -0.22367,-0.39233 -0.28816,-0.87705 -0.26113,-1.37835 0.0444,0.004 0.0882,0.006 0.13158,0.006 0.34082,0 0.65045,-0.13017 0.96601,-0.29774 0.7159,-0.38312 1.34497,-0.79163 2.12909,-1.05375 0.60205,-0.20073 1.23486,-0.34784 1.86446,-0.50623 0.0305,0.44273 0.12764,0.877 0.33281,1.26929 v 0 c -0.17293,0.042 -0.34656,0.09 -0.5202,0.14182 -0.41067,0.16898 -0.83235,0.30868 -1.24231,0.48013 -0.48574,0.25858 -0.94188,0.55351 -1.37047,0.95391 -0.41339,0.38453 -1.01628,1.01882 -1.61022,1.11831 v 0 c -0.001,0 -0.003,3.4e-4 -0.004,7.1e-4 -0.0623,0.01 -0.12167,0.0148 -0.17787,0.0148 -1.4e-4,0 -1.4e-4,0 -1.4e-4,0" />
    <path
       id="path1408"
       style="fill:#51101c;fill-opacity:1;fill-rule:nonzero;stroke:none;stroke-width:0.03527778"
       d="m 184.41334,180.86218 c 0.001,-0.001 0.003,-0.003 0.004,-0.004 -0.001,0.001 -0.003,0.003 -0.004,0.004 m 4.48,-0.248 c -1.4e-4,-3.5e-4 -2.9e-4,-3.5e-4 -4.3e-4,-3.5e-4 0.0553,-0.11536 0.11716,-0.21907 0.18606,-0.30586 -0.0689,0.0868 -0.13039,0.1905 -0.18563,0.30622 m 0.34604,-0.49213 c -4.3e-4,0 -9.8e-4,-3.4e-4 -0.001,-3.4e-4 3.9e-4,0 9.5e-4,3.4e-4 0.001,3.4e-4 m -3.04218,-0.17462 c 0.009,-0.001 0.0178,-0.002 0.0267,-0.004 -0.009,10e-4 -0.0178,0.002 -0.0267,0.004 m 0.0284,-0.004 c 0.28649,-0.0399 0.56761,-0.0568 0.84529,-0.0568 -0.27753,0 -0.5588,0.0169 -0.84529,0.0568 m 0.84723,-0.0568 c -4.3e-4,0 -9.8e-4,0 -0.001,0 v 0 c 4.2e-4,0 9.8e-4,0 0.001,0" />
    <path
       id="path1410"
       style="fill:#7c192c;fill-opacity:1;fill-rule:nonzero;stroke:none;stroke-width:0.03527778"
       d="m 184.32377,180.9726 c 0.0305,-0.0367 0.0576,-0.0755 0.0896,-0.11042 0.001,-0.001 0.003,-0.003 0.004,-0.004 v 0 c 0.48023,-0.51577 1.08726,-0.81175 1.77973,-0.91052 v 0 c 0.009,-0.001 0.0178,-0.002 0.0267,-0.004 5.5e-4,0 10e-4,0 0.002,0 0.28649,-0.0399 0.56776,-0.0568 0.84529,-0.0568 1.4e-4,0 2.9e-4,0 5.3e-4,0 4.2e-4,0 9.8e-4,0 0.001,0 0.73515,3.4e-4 1.44568,0.11747 2.16517,0.23495 4e-4,0 9.5e-4,3.4e-4 0.001,3.4e-4 0.0113,0.002 0.0224,0.004 0.0336,0.005 v 0 c -0.0706,0.0452 -0.13504,0.10654 -0.19403,0.18063 -0.0689,0.0868 -0.13077,0.1905 -0.18605,0.30585 -0.62135,-0.0875 -1.24065,-0.17603 -1.87233,-0.20567 -0.1166,-0.005 -0.23315,-0.008 -0.34947,-0.008 -0.8322,0 -1.64786,0.14747 -2.34734,0.57256" />
    <path
       id="path1412"
       style="fill:#51101c;fill-opacity:1;fill-rule:nonzero;stroke:none;stroke-width:0.03527778"
       d="m 188.85474,184.80588 c -0.11215,-0.115 -0.18464,-0.28469 -0.2341,-0.4759 0.0496,0.19121 0.12206,0.3609 0.2341,0.4759 m 3.97909,-4.32329 c -4e-4,0 -9.5e-4,0 -0.001,0 4.2e-4,0 9.8e-4,0 0.001,0 v 0 m 7.1e-4,0 c 0.32865,0 0.65455,-0.0198 0.97275,-0.0698 -0.3182,0.0501 -0.6441,0.0698 -0.97275,0.0698 m 0.97702,-0.0705 c 0.001,-3.5e-4 0.002,-3.5e-4 0.003,-7.2e-4 -0.001,3.4e-4 -0.002,3.4e-4 -0.003,7.2e-4 m -3.13186,-0.0917 c -0.003,0 -0.006,-3.4e-4 -0.009,-7.1e-4 0.003,3.4e-4 0.006,7.1e-4 0.009,7.1e-4 m -0.0196,-0.002 c -0.001,0 -0.002,-3.4e-4 -0.004,-3.4e-4 0.001,0 0.003,3.4e-4 0.004,3.4e-4 m -0.021,-0.002 c -0.003,-3.4e-4 -0.007,-7.1e-4 -0.0102,-7.1e-4 0.004,0 0.007,3.4e-4 0.0102,7.1e-4 m -1.02206,-0.121 c 3.9e-4,0 6.6e-4,0 0.001,0 -4.3e-4,0 -7.2e-4,0 -0.001,0 m 0.002,-3.4e-4 c 0.0141,-0.002 0.0283,-0.004 0.0427,-0.006 -0.0145,0.002 -0.0286,0.004 -0.0427,0.006" />
    <path
       id="path1414"
       style="fill:#7c192c;fill-opacity:1;fill-rule:nonzero;stroke:none;stroke-width:0.03527778"
       d="m 189.09177,184.94488 v 0 c -0.0944,-0.024 -0.1724,-0.0723 -0.23703,-0.139 -0.11204,-0.115 -0.1845,-0.28469 -0.2341,-0.4759 -0.0492,-0.19014 -0.0757,-0.4011 -0.0959,-0.60183 1.43178,-0.36442 2.82564,-0.8061 3.73722,-2.08457 0.32248,-0.45332 0.35073,-0.72954 -0.20602,-0.83114 -0.20006,-0.0363 -0.50518,-0.0737 -0.74729,-0.0737 -0.0638,0 -0.12333,0.003 -0.1753,0.008 -0.18838,0.0226 -0.37454,0.0321 -0.56003,0.0321 -0.32452,0 -0.64714,-0.0293 -0.97511,-0.0699 -0.1929,-0.0247 -0.38584,-0.0515 -0.57807,-0.078 0.1535,-0.23107 0.34837,-0.3937 0.59698,-0.43604 3.9e-4,0 6.6e-4,0 0.001,0 2.9e-4,-3.4e-4 4.2e-4,-3.4e-4 6.6e-4,-3.4e-4 0.0141,-0.002 0.0283,-0.004 0.0427,-0.006 v 0 c 0.31489,0.0487 0.63115,0.0945 0.9543,0.12523 0.004,3.5e-4 0.009,7.2e-4 0.0131,10e-4 0.004,0 0.007,3.5e-4 0.0102,7.2e-4 0.006,7.1e-4 0.0115,0.001 0.0172,0.002 10e-4,0 0.003,3.4e-4 0.004,3.4e-4 0.004,3.5e-4 0.007,7.2e-4 0.0105,0.001 0.003,3.5e-4 0.006,7.2e-4 0.009,7.2e-4 0.69687,0.0684 1.4315,0.16192 2.15275,0.16228 4.3e-4,0 9.8e-4,0 0.001,0 v 0 0 c 2.9e-4,0 4.2e-4,0 7.2e-4,0 0.32864,0 0.65454,-0.0198 0.97275,-0.0699 0.001,-3.5e-4 0.003,-3.5e-4 0.004,-7.2e-4 0.001,-3.4e-4 0.002,-3.4e-4 0.003,-7.1e-4 0.005,-7.2e-4 0.0102,-0.001 0.0153,-0.002 0.33954,0.14781 0.51442,0.57326 0.51456,0.96837 0,0.0194 -4e-4,0.0388 -0.001,0.0582 -0.01,0.2547 -0.11988,0.47695 -0.26183,0.68474 -0.52917,0.63712 -1.13411,1.19803 -1.88239,1.5688 -0.95913,0.47625 -1.97954,0.91123 -3.01999,1.23649 l -0.0875,0.0194" />
    <path
       id="path1416"
       style="fill:#df4971;fill-opacity:1;fill-rule:nonzero;stroke:none;stroke-width:0.03527778"
       d="m 183.30333,185.61268 c -0.0463,-0.005 -0.093,-0.0116 -0.14055,-0.0215 -0.0154,-0.003 -0.0305,-0.007 -0.0451,-0.0113 -0.0201,-0.86536 0.21665,-1.82068 0.44334,-2.46238 0.21357,-0.60184 0.53396,-1.43475 1.10931,-1.78576 0.54363,-0.33267 1.10931,-0.47837 1.7315,-0.5775 l -10e-4,0.0145 c -0.73035,0.21731 -1.52272,0.67663 -1.93889,1.32892 -0.3011,0.47166 -0.48991,0.98319 -0.68697,1.50283 -0.21318,0.56409 -0.43324,1.30493 -0.47127,2.01225" />
    <path
       id="path1418"
       style="fill:#d33d61;fill-opacity:1;fill-rule:nonzero;stroke:none;stroke-width:0.03527778"
       d="m 183.53552,187.01639 c -0.28857,-0.37359 -0.40498,-0.88689 -0.41783,-1.43651 0.0146,0.004 0.0296,0.008 0.0451,0.0113 0.0475,0.01 0.0942,0.0169 0.14055,0.0215 -0.027,0.50129 0.0375,0.98601 0.26112,1.3783 l -0.0289,0.0254" />
    <path
       id="path1420"
       style="fill:#df4971;fill-opacity:1;fill-rule:nonzero;stroke:none;stroke-width:0.03527778"
       d="m 188.68044,182.36819 c 0.0221,-0.25612 0.0813,-0.5207 0.19843,-0.75389 0.10404,-0.21025 0.24458,-0.46284 0.4589,-0.58455 0.19222,-0.10901 0.43063,-0.1083 0.64008,-0.1464 -0.36037,0.0649 -0.75516,0.44062 -1.01629,0.84031 -0.14538,0.22472 -0.24807,0.45579 -0.28112,0.64453" />
  </g>
</svg>
