<?xml version="1.0" encoding="UTF-8" standalone="no"?>
<svg
   xmlns:dc="http://purl.org/dc/elements/1.1/"
   xmlns:cc="http://creativecommons.org/ns#"
   xmlns:rdf="http://www.w3.org/1999/02/22-rdf-syntax-ns#"
   xmlns:svg="http://www.w3.org/2000/svg"
   xmlns="http://www.w3.org/2000/svg"
   id="svg2713"
   version="1.1"
   viewBox="0 0 19.990511 20.45512"
   height="20.45512mm"
   width="19.990511mm">
  <defs
     id="defs2707" />
  <metadata
     id="metadata2710">
    <rdf:RDF>
      <cc:Work
         rdf:about="">
        <dc:format>image/svg+xml</dc:format>
        <dc:type
           rdf:resource="http://purl.org/dc/dcmitype/StillImage" />
        <dc:title></dc:title>
      </cc:Work>
    </rdf:RDF>
  </metadata>
  <g
     transform="translate(-160.09403,-197.57006)"
     id="layer1">
    <path
       id="path296"
       style="fill:#cceef7;fill-opacity:1;fill-rule:nonzero;stroke:none;stroke-width:0.03527778"
       d="m 167.98532,203.99803 c 1.00118,0 1.81151,-0.80963 1.81151,-1.80975 0,-1.00013 -0.81033,-1.81011 -1.81151,-1.81011 -0.99977,0 -1.80975,0.80998 -1.80975,1.81011 0,1.00012 0.80998,1.80975 1.80975,1.80975" />
    <path
       id="path298"
       style="fill:#cceef7;fill-opacity:1;fill-rule:nonzero;stroke:none;stroke-width:0.03527778"
       d="m 172.4275,203.7031 c 0.83714,0 1.51518,-0.67839 1.51518,-1.51482 0,-0.83679 -0.67804,-1.51518 -1.51518,-1.51518 -0.83644,0 -1.51518,0.67839 -1.51518,1.51518 0,0.83643 0.67874,1.51482 1.51518,1.51482" />
    <path
       id="path300"
       style="fill:#cceef7;fill-opacity:1;fill-rule:nonzero;stroke:none;stroke-width:0.03527778"
       d="m 176.86967,203.37079 c 0.65264,0 1.18252,-0.52987 1.18252,-1.18251 0,-0.65264 -0.52988,-1.18322 -1.18252,-1.18322 -0.65334,0 -1.18251,0.53058 -1.18251,1.18322 0,0.65264 0.52917,1.18251 1.18251,1.18251" />
    <path
       id="path344"
       style="fill:#cceef7;fill-opacity:1;fill-rule:nonzero;stroke:none;stroke-width:0.03527778"
       d="m 163.54491,208.89599 c 1.25095,0 2.26589,-1.01459 2.26589,-2.26624 0,-1.25166 -1.01494,-2.26589 -2.26589,-2.26589 -1.25201,0 -2.26625,1.01423 -2.26625,2.26589 0,1.25165 1.01424,2.26624 2.26625,2.26624" />
    <path
       id="path346"
       style="fill:#cceef7;fill-opacity:1;fill-rule:nonzero;stroke:none;stroke-width:0.03527778"
       d="m 167.98532,208.62506 c 1.10314,0 1.99637,-0.89323 1.99637,-1.99531 0,-1.10208 -0.89323,-1.99531 -1.99637,-1.99531 -1.10102,0 -1.99461,0.89323 -1.99461,1.99531 0,1.10208 0.89359,1.99531 1.99461,1.99531" />
    <path
       id="path348"
       style="fill:#cceef7;fill-opacity:1;fill-rule:nonzero;stroke:none;stroke-width:0.03527778"
       d="m 172.4275,208.31708 c 0.93239,0 1.68733,-0.75529 1.68733,-1.68733 0,-0.93204 -0.75494,-1.68734 -1.68733,-1.68734 -0.93134,0 -1.68734,0.7553 -1.68734,1.68734 0,0.93204 0.756,1.68733 1.68734,1.68733" />
    <path
       id="path350"
       style="fill:#cceef7;fill-opacity:1;fill-rule:nonzero;stroke:none;stroke-width:0.03527778"
       d="m 176.86967,207.98441 c 0.74825,0 1.35397,-0.60607 1.35397,-1.35466 0,-0.74824 -0.60572,-1.35502 -1.35397,-1.35502 -0.74894,0 -1.35537,0.60678 -1.35537,1.35502 0,0.74859 0.60643,1.35466 1.35537,1.35466" />
    <path
       id="path386"
       style="fill:#cceef7;fill-opacity:1;fill-rule:nonzero;stroke:none;stroke-width:0.03527778"
       d="m 163.54491,213.48493 c 1.33314,0 2.41335,-1.07986 2.41335,-2.41371 0,-1.3335 -1.08021,-2.41406 -2.41335,-2.41406 -1.3335,0 -2.41442,1.08056 -2.41442,2.41406 0,1.33385 1.08092,2.41371 2.41442,2.41371" />
    <path
       id="path388"
       style="fill:#cceef7;fill-opacity:1;fill-rule:nonzero;stroke:none;stroke-width:0.03527778"
       d="m 167.98532,213.21435 c 1.18392,0 2.14383,-0.95991 2.14383,-2.14313 0,-1.18286 -0.95991,-2.14348 -2.14383,-2.14348 -1.18286,0 -2.14277,0.96062 -2.14277,2.14348 0,1.18322 0.95991,2.14313 2.14277,2.14313" />
    <path
       id="path390"
       style="fill:#cceef7;fill-opacity:1;fill-rule:nonzero;stroke:none;stroke-width:0.03527778"
       d="m 172.4275,212.90637 c 1.01353,0 1.83479,-0.82162 1.83479,-1.83515 0,-1.01353 -0.82126,-1.8355 -1.83479,-1.8355 -1.01353,0 -1.83551,0.82197 -1.83551,1.8355 0,1.01353 0.82198,1.83515 1.83551,1.83515" />
    <path
       id="path392"
       style="fill:#cceef7;fill-opacity:1;fill-rule:nonzero;stroke:none;stroke-width:0.03527778"
       d="m 176.86967,212.56135 c 0.82268,0 1.49049,-0.6671 1.49049,-1.49013 0,-0.82374 -0.66781,-1.48978 -1.49049,-1.48978 -0.82338,0 -1.49119,0.66604 -1.49119,1.48978 0,0.82303 0.66781,1.49013 1.49119,1.49013" />
    <path
       id="path1502"
       style="fill:#f477ad;fill-opacity:1;fill-rule:nonzero;stroke:none;stroke-width:0.03527778"
       d="m 180.08454,207.56531 c 0,5.52027 -4.47499,9.99526 -9.9949,9.99526 -5.52027,0 -9.99561,-4.47499 -9.99561,-9.99526 0,-5.52026 4.47534,-9.99525 9.99561,-9.99525 5.51991,0 9.9949,4.47499 9.9949,9.99525" />
    <path
       id="path1504"
       style="fill:#ffffff;fill-opacity:1;fill-rule:nonzero;stroke:none;stroke-width:0.03527778"
       d="m 178.67343,207.56531 c 0,4.74099 -3.84316,8.58415 -8.58379,8.58415 -4.74098,0 -8.5845,-3.84316 -8.5845,-8.58415 0,-4.74098 3.84352,-8.58414 8.5845,-8.58414 4.74063,0 8.58379,3.84316 8.58379,8.58414" />
    <path
       id="path1506"
       style="fill:#d64175;fill-opacity:1;fill-rule:nonzero;stroke:none;stroke-width:0.03527778"
       d="m 174.51735,205.35728 c -0.99906,-0.62548 -2.20345,-0.86748 -3.35491,-0.57997 -0.43674,0.10901 -0.8562,0.27446 -1.18498,0.52741 -1.29399,-0.54258 -1.46368,-2.13749 -1.3582,-3.68653 -0.24306,0.11253 -0.4766,0.25082 -0.69991,0.41416 -0.0716,1.55892 0.12065,3.29424 1.47849,4.07635 -0.22648,0.49 -0.21343,1.05656 -0.0455,1.58291 -0.10407,0.0557 -0.20849,0.11677 -0.30938,0.18697 -0.70803,0.49036 -1.29576,1.21144 -1.33386,2.10185 l 7.2e-4,0.002 c -0.73237,0.1009 -1.46262,0.248 -2.00025,0.77682 -0.85513,0.8389 0.59055,1.645 1.22449,1.8803 2.17593,0.80716 4.86163,0.21696 6.53521,-1.38888 0.8897,-0.85231 1.50918,-1.86761 1.8094,-3.06811 0.21731,-0.86889 0.0924,-2.29235 -0.7613,-2.82575" />
    <path
       id="path1508"
       style="fill:#f4799d;fill-opacity:1;fill-rule:nonzero;stroke:none;stroke-width:0.03527778"
       d="m 168.53389,201.66228 c -0.17357,0.085 -0.34325,0.18063 -0.50553,0.29175 -0.0593,1.60232 0.13758,3.25614 1.39171,4.11163 0.0882,-0.26282 0.23918,-0.47837 0.4318,-0.65546 -1.38677,-0.46638 -1.43299,-2.34033 -1.31798,-3.74792" />
    <path
       id="path1510"
       style="fill:#d23667;fill-opacity:1;fill-rule:nonzero;stroke:none;stroke-width:0.03527778"
       d="m 169.55306,205.78202 c -10e-4,-7.1e-4 -0.002,-10e-4 -0.003,-0.002 0.0787,-0.13405 0.17674,-0.25293 0.28928,-0.35842 -0.11254,0.10549 -0.20814,0.22614 -0.28646,0.36054 m 0.28963,-0.36336 c 3.5e-4,-3.4e-4 7.2e-4,-3.4e-4 7.2e-4,-7.1e-4 0,3.4e-4 -3.5e-4,3.4e-4 -7.2e-4,7.1e-4 m -1.41217,-3.70416 c 0.0342,-0.0176 0.0688,-0.0353 0.10337,-0.0522 -0.0346,0.0169 -0.0692,0.0346 -0.10337,0.0522" />
    <path
       id="path1512"
       style="fill:#ed6187;fill-opacity:1;fill-rule:nonzero;stroke:none;stroke-width:0.03527778"
       d="m 169.85187,205.4102 c -0.009,-0.003 -0.0176,-0.006 -0.0265,-0.01 0.009,0.003 0.0176,0.006 0.0265,0.01 v 0 0 m -0.0286,-0.01 c 0,-3.5e-4 0,-3.5e-4 0,-3.5e-4 0,0 0,0 0,3.5e-4 m -0.77893,-0.10513 c -0.74436,-0.91228 -0.8576,-2.19639 -0.81845,-3.46639 0.0674,-0.0402 0.13547,-0.0783 0.20461,-0.1143 0.0342,-0.0176 0.0688,-0.0353 0.10337,-0.0522 v 0 c -0.0233,0.28751 -0.0402,0.59407 -0.0402,0.90417 0,0.9398 0.15381,1.91205 0.74013,2.47297 -0.0653,0.084 -0.12841,0.16933 -0.18944,0.25576" />
    <path
       id="path1514"
       style="fill:#c92750;fill-opacity:1;fill-rule:nonzero;stroke:none;stroke-width:0.03527778"
       d="m 169.42007,206.06566 c -0.0561,-0.0381 -0.10972,-0.0776 -0.16122,-0.11889 0.0519,0.0413 0.10548,0.0808 0.16122,0.11889 0.0342,-0.10231 0.078,-0.19721 0.13017,-0.28575 v 0 c -0.0522,0.0885 -0.096,0.18344 -0.13017,0.28575 m 0.40534,-0.66499 c -7.2e-4,0 -0.001,-3.4e-4 -0.002,-3.4e-4 7.1e-4,0 0.001,3.4e-4 0.002,3.4e-4 m -0.002,-7.1e-4 c -0.23354,-0.0825 -0.42792,-0.20603 -0.58949,-0.36054 10e-4,-0.002 0.002,-0.003 0.004,-0.005 0.16157,0.15522 0.35242,0.28257 0.58596,0.36548" />
    <path
       id="path1516"
       style="fill:#e64269;fill-opacity:1;fill-rule:nonzero;stroke:none;stroke-width:0.03527778"
       d="m 169.42007,206.06566 c -0.0557,-0.0381 -0.10936,-0.0776 -0.16122,-0.11889 -0.14676,-0.11712 -0.27658,-0.24694 -0.39229,-0.387 0.0572,-0.0892 0.11641,-0.17744 0.1778,-0.26458 0.14393,0.17639 0.31115,0.33902 0.50588,0.48472 -0.0522,0.0885 -0.096,0.18344 -0.13017,0.28575 m 0.41945,-0.64418 c 0.001,-0.001 0.002,-0.002 0.003,-0.003 -0.001,0.001 -0.002,0.002 -0.003,0.003 m 0.004,-0.004 c 0.003,-0.003 0.006,-0.005 0.008,-0.008 v 0 c -0.003,0.002 -0.006,0.005 -0.008,0.008" />
    <path
       id="path1518"
       style="fill:#df375b;fill-opacity:1;fill-rule:nonzero;stroke:none;stroke-width:0.03527778"
       d="m 169.55024,205.77991 c -0.19473,-0.1457 -0.36195,-0.30833 -0.50588,-0.48472 0.061,-0.0864 0.12418,-0.1718 0.18944,-0.25576 0.16157,0.15451 0.35595,0.27799 0.58949,0.36054 0,0 0,0 0,3.4e-4 7.2e-4,0 0.001,3.4e-4 0.002,3.4e-4 0.009,0.003 0.0176,0.006 0.0265,0.01 -0.003,0.002 -0.006,0.005 -0.008,0.008 0,3.5e-4 -3.4e-4,3.5e-4 -7.2e-4,7.2e-4 -0.001,0.001 -0.002,0.002 -0.003,0.003 -0.11253,0.10548 -0.2106,0.22436 -0.28927,0.35842" />
    <path
       id="path1520"
       style="fill:#f4799d;fill-opacity:1;fill-rule:nonzero;stroke:none;stroke-width:0.03527778"
       d="m 175.00313,208.73901 c -0.34714,0.95885 -1.00119,1.83797 -1.76742,2.50154 -1.37054,1.18569 -3.29953,1.72967 -5.08635,1.52259 -0.68545,-0.0787 -2.98203,-0.60325 -2.37137,-1.75824 0.21484,-0.40499 0.9211,-0.63994 1.3215,-0.80539 0.47449,-0.19615 0.9899,-0.19121 1.48132,-0.29351 0.0557,-0.0219 0.11289,-0.0437 0.16863,-0.0695 -0.32244,0.06 -0.66393,0.0984 -1.00648,0.14358 l 0.004,-0.007 c 0.0804,-0.8636 0.82127,-1.58292 1.49084,-2.05388 0.35278,-0.248 0.75741,-0.369 1.17263,-0.46954 0.0607,-0.0155 0.12206,-0.0229 0.18415,-0.0293 0.0751,-0.0258 0.1517,-0.0462 0.2286,-0.0646 -0.20179,0.001 -0.40499,0.006 -0.60889,0.0399 -0.28469,0.048 -0.54645,0.13834 -0.79375,0.26357 0.0123,-0.0716 -0.0497,-0.21554 -0.0441,-0.1972 -0.0434,-0.1718 -0.0483,-0.41063 -0.0289,-0.58879 0.0296,-0.27904 0.0639,-0.54998 0.15204,-0.80398 0.13723,-0.29386 0.35137,-0.52387 0.60996,-0.70273 0.62829,-0.49742 1.54834,-0.68897 2.34315,-0.55598 0.81244,0.0247 1.66476,0.25753 2.24437,0.8375 0.78281,0.78422 0.64558,2.15018 0.30586,3.09104" />
    <path
       id="path1522"
       style="fill:#d03362;fill-opacity:1;fill-rule:nonzero;stroke:none;stroke-width:0.03527778"
       d="m 168.90219,212.80618 v 0 0 0 m 0.002,0 c 1.53599,-3.4e-4 3.10409,-0.52881 4.27743,-1.51941 -1.17334,0.9906 -2.74144,1.51906 -4.27743,1.51941 m -0.74295,-0.0416 c -0.004,-3.4e-4 -0.008,-7.1e-4 -0.0116,-0.001 -0.60643,-0.0699 -2.47403,-0.48824 -2.47368,-1.38395 -3.5e-4,0.89571 1.86725,1.3141 2.47368,1.38395 0.004,7.2e-4 0.008,0.001 0.0116,0.001 m 5.06483,-1.51553 c 0.004,-0.003 0.007,-0.006 0.01,-0.008 0.76623,-0.66358 1.42028,-1.5427 1.76742,-2.50155 0.15663,-0.43356 0.27022,-0.95779 0.27022,-1.4732 0,0.51541 -0.11359,1.03964 -0.27022,1.4732 -0.34714,0.95885 -1.00119,1.83797 -1.76742,2.50155 -0.003,0.003 -0.006,0.006 -0.01,0.008 m -6.12635,-1.04951 c 0.001,-7.2e-4 0.003,-0.001 0.004,-0.002 -0.001,3.4e-4 -0.003,0.001 -0.004,0.002 m 0.007,-0.003 c 3.5e-4,0 3.5e-4,-3.5e-4 7.2e-4,-3.5e-4 -3.5e-4,0 -3.5e-4,3.5e-4 -7.2e-4,3.5e-4 m 0.63606,-0.21626 v 0 c 0.0406,-0.005 0.0811,-0.0106 0.12136,-0.0159 -0.0402,0.005 -0.0808,0.0106 -0.12136,0.0159 m 1.67922,-2.33327 c 0,-0.003 0,-0.006 0,-0.009 0,0.003 0,0.006 0,0.009 m 0,-0.0141 c -0.002,-0.0702 -0.0444,-0.17248 -0.0459,-0.17248 v 3.4e-4 0 -3.4e-4 c 0.001,0 0.0441,0.1023 0.0459,0.17251" />
    <path
       id="path1524"
       style="fill:#ed5c82;fill-opacity:1;fill-rule:nonzero;stroke:none;stroke-width:0.03527778"
       d="m 168.90219,212.80618 v 0 c -0.24836,0 -0.49636,-0.0138 -0.74119,-0.0416 -0.004,-3.4e-4 -0.008,-7.1e-4 -0.0116,-0.001 -0.60642,-0.0699 -2.47403,-0.48824 -2.47368,-1.38395 0,-0.11641 0.0317,-0.2413 0.10231,-0.37429 0.21484,-0.40499 0.9211,-0.63994 1.3215,-0.80539 v 0 c 0.001,-7.2e-4 0.003,-0.001 0.004,-0.002 0.001,-7.2e-4 0.002,-0.001 0.003,-0.001 3.5e-4,0 3.5e-4,-3.5e-4 7.2e-4,-3.5e-4 0.16686,-0.0681 0.33902,-0.11112 0.51117,-0.14287 -0.1785,0.0586 -0.35207,0.12911 -0.52352,0.21449 -0.34713,0.17391 -0.82832,0.61277 -0.72637,1.05762 0.13159,0.57821 0.87948,0.71932 1.37972,0.82092 0.27446,0.0561 0.55456,0.0804 0.83537,0.0804 0.39935,0 0.79975,-0.0494 1.18745,-0.12841 1.27036,-0.26035 2.46063,-0.97014 3.26602,-1.9865 0.37183,-0.46919 1.03258,-1.72966 0.6029,-2.34914 -0.0145,-0.0377 -0.0346,-0.0759 -0.0621,-0.11501 -0.31645,-0.43497 -0.85161,-0.43885 -1.34903,-0.44132 -0.0106,0 -0.0212,0 -0.0317,0 -0.36794,0 -0.72319,0.0409 -1.06856,0.12417 -0.58385,0.0945 -1.13489,0.26424 -1.64147,0.58491 -0.32456,0.20602 -0.76765,0.59514 -0.82057,1.00789 -0.0145,0.11782 -0.004,0.21907 0.0268,0.30409 10e-4,0.16898 0.0621,0.33585 0.21448,0.48719 0.0363,0.0363 0.0752,0.0695 0.11783,0.0995 -0.34748,0.0152 -0.6918,0.055 -1.02693,0.13264 -0.0444,0.006 -0.0896,0.0116 -0.13477,0.0176 -0.0402,0.005 -0.0808,0.0106 -0.12135,0.0159 l 0.004,-0.007 c 0.0804,-0.8636 0.82127,-1.58291 1.49084,-2.05387 0.35278,-0.248 0.75741,-0.36901 1.17263,-0.46955 0.0607,-0.0155 0.12206,-0.0229 0.18415,-0.0293 0.0751,-0.0257 0.1517,-0.0462 0.2286,-0.0646 v 0 0 c -0.20179,0.001 -0.40499,0.006 -0.60889,0.0399 -0.28469,0.048 -0.54646,0.13829 -0.79375,0.26352 7.1e-4,-0.004 0.001,-0.008 0.001,-0.0123 0,-0.003 0,-0.006 0,-0.009 0,-0.002 0,-0.003 0,-0.005 -0.002,-0.0701 -0.0444,-0.17245 -0.0459,-0.17245 v 3.5e-4 c -0.0275,-0.10972 -0.0395,-0.24695 -0.0395,-0.37783 0,-0.0737 0.004,-0.1457 0.0109,-0.20955 0.0296,-0.27905 0.0639,-0.54998 0.15204,-0.80398 0.13723,-0.29386 0.35137,-0.52387 0.60996,-0.70273 0.10618,-0.0836 0.22189,-0.15452 0.34254,-0.2219 -0.50165,0.38276 -0.86571,0.9271 -0.61736,1.49966 0.13688,0.31609 0.53552,0.36583 0.89288,0.36583 0.15523,0 0.30269,-0.01 0.41734,-0.0106 0.60043,-0.005 1.20121,-0.14076 1.74343,-0.40076 0.57326,-0.27552 1.29399,-0.97684 0.80116,-1.56633 0.37641,0.13335 0.72495,0.33337 1.00753,0.61559 0.42192,0.42263 0.57644,1.01459 0.57608,1.61784 0,0.51541 -0.11359,1.03964 -0.27022,1.4732 -0.34714,0.95885 -1.00119,1.83798 -1.76742,2.50155 -0.003,0.003 -0.006,0.006 -0.01,0.008 -0.0148,0.0127 -0.0293,0.0254 -0.0444,0.0378 -1.17334,0.9906 -2.74144,1.51906 -4.27743,1.51941 -7.1e-4,0 -0.001,0 -0.002,0 m 0.47415,-5.34567 v 0 0 0 0" />
    <path
       id="path1526"
       style="fill:#ed5c82;fill-opacity:1;fill-rule:nonzero;stroke:none;stroke-width:0.03527778"
       d="m 169.37667,207.46195 v 0 -3.4e-4 c -3.4e-4,0 -3.4e-4,-3.5e-4 -3.4e-4,-3.5e-4 0,-3.4e-4 0,-7.1e-4 0,-7.1e-4 0,3.4e-4 0,10e-4 3.4e-4,10e-4" />
    <path
       id="path1528"
       style="fill:#f89bba;fill-opacity:1;fill-rule:nonzero;stroke:none;stroke-width:0.03527778"
       d="m 170.09528,206.69572 c -0.46566,-1.18604 0.89041,-1.73637 1.86902,-1.73637 0.006,0 0.012,0 0.018,0 l -0.002,0.008 c -0.8449,0.0695 -2.07116,0.69885 -1.87149,1.72085 l -0.0138,0.007" />
    <path
       id="path1530"
       style="fill:#f89bba;fill-opacity:1;fill-rule:nonzero;stroke:none;stroke-width:0.03527778"
       d="m 169.37738,209.49642 -0.0166,-0.0109 c -0.34996,-0.49001 -0.0829,-1.00719 0.29774,-1.37584 0.39264,-0.37923 1.06716,-0.50482 1.58398,-0.57573 v 0.0233 l -0.0159,0.005 c -0.28681,0.091 -0.56903,0.19791 -0.82339,0.34608 l -0.0173,0.008 -0.0794,0.0483 c -0.12947,0.079 -0.24941,0.16862 -0.34854,0.27234 -0.0469,0.049 -0.0882,0.097 -0.12594,0.14464 -0.26,0.31644 -0.39476,0.69391 -0.45473,1.11442" />
    <path
       id="path1532"
       style="fill:#f89bba;fill-opacity:1;fill-rule:nonzero;stroke:none;stroke-width:0.03527778"
       d="m 166.7065,211.42611 c -0.0942,-0.13758 -0.15064,-0.27975 -0.0748,-0.45684 0.10125,-0.23813 0.25894,-0.41311 0.48295,-0.54399 0.54434,-0.31926 1.20015,-0.248 1.79282,-0.26528 l -10e-4,0.012 c -0.11501,0.0399 -0.25718,0.0776 -0.41487,0.11888 -0.42227,0.0896 -0.83784,0.19756 -1.22237,0.44274 -0.23636,0.15028 -0.52917,0.41134 -0.56233,0.6925" />
    <path
       id="path1534"
       style="fill:#ffffff;fill-opacity:1;fill-rule:nonzero;stroke:none;stroke-width:0.03527778"
       d="m 167.98955,201.98225 c 0,-0.001 0,-0.003 0,-0.004 0.0275,-0.019 0.055,-0.0367 0.0829,-0.054 -0.0148,0.01 -0.0296,0.0198 -0.0441,0.03 -3.5e-4,3.4e-4 -3.5e-4,0.001 -3.5e-4,0.001 -0.0127,0.009 -0.0257,0.0176 -0.0384,0.0268" />
    <path
       id="path1536"
       style="fill:#ec6b9d;fill-opacity:1;fill-rule:nonzero;stroke:none;stroke-width:0.03527778"
       d="m 168.04317,203.13654 c -0.0434,-0.37712 -0.0586,-0.76376 -0.0536,-1.15429 0.0127,-0.009 0.0257,-0.018 0.0385,-0.0268 -0.0145,0.39476 -0.0134,0.79269 0.0152,1.1811" />
    <path
       id="path1538"
       style="fill:#f89bba;fill-opacity:1;fill-rule:nonzero;stroke:none;stroke-width:0.03527778"
       d="m 168.51061,204.89232 c -0.25154,-0.54575 -0.39688,-1.13842 -0.46744,-1.75578 -0.0286,-0.38841 -0.0296,-0.78634 -0.0152,-1.1811 0,-3.4e-4 0,-0.001 3.4e-4,-0.001 0.0145,-0.0102 0.0293,-0.0201 0.0441,-0.03 0.0321,-0.0198 0.0639,-0.0388 0.0956,-0.0586 -0.018,1.03469 0.0723,2.05352 0.381,2.9979 l -0.0384,0.0289" />
  </g>
</svg>
