<?xml version="1.0" encoding="UTF-8" standalone="no"?>
<!-- Created with Inkscape (http://www.inkscape.org/) -->

<svg
   xmlns:dc="http://purl.org/dc/elements/1.1/"
   xmlns:cc="http://creativecommons.org/ns#"
   xmlns:rdf="http://www.w3.org/1999/02/22-rdf-syntax-ns#"
   xmlns:svg="http://www.w3.org/2000/svg"
   xmlns="http://www.w3.org/2000/svg"
   xmlns:sodipodi="http://sodipodi.sourceforge.net/DTD/sodipodi-0.dtd"
   xmlns:inkscape="http://www.inkscape.org/namespaces/inkscape"
   width="13.684686mm"
   height="12.294412mm"
   viewBox="0 0 13.684686 12.294412"
   version="1.1"
   id="svg1596"
   inkscape:version="0.92.3 (2405546, 2018-03-11)"
   sodipodi:docname="intestine.svg">
  <defs
     id="defs1590" />
  <sodipodi:namedview
     id="base"
     pagecolor="#ffffff"
     bordercolor="#666666"
     borderopacity="1.0"
     inkscape:pageopacity="0.0"
     inkscape:pageshadow="2"
     inkscape:zoom="5.6"
     inkscape:cx="18.705169"
     inkscape:cy="26.517648"
     inkscape:document-units="mm"
     inkscape:current-layer="layer1"
     showgrid="false"
     inkscape:window-width="1280"
     inkscape:window-height="614"
     inkscape:window-x="1280"
     inkscape:window-y="27"
     inkscape:window-maximized="1" />
  <metadata
     id="metadata1593">
    <rdf:RDF>
      <cc:Work
         rdf:about="">
        <dc:format>image/svg+xml</dc:format>
        <dc:type
           rdf:resource="http://purl.org/dc/dcmitype/StillImage" />
        <dc:title></dc:title>
      </cc:Work>
    </rdf:RDF>
  </metadata>
  <g
     inkscape:label="Layer 1"
     inkscape:groupmode="layer"
     id="layer1"
     transform="translate(-114.11004,-171.41235)">
    <path
       d="m 118.70356,173.20799 c 0,0 -0.11501,0.0245 -0.11501,0.28293 0,0.25841 0.0383,0.35683 0.42175,0.36918 0.38364,0.0122 0.68086,0.0369 1.21779,0.44291 0.53692,0.40587 0.67116,-1.08267 0.0958,-1.09502 -0.57521,-0.0123 -1.62031,0 -1.62031,0"
       style="fill:#a9a287;fill-opacity:1;fill-rule:nonzero;stroke:none;stroke-width:0.01763889"
       id="path120"
       inkscape:connector-curvature="0" />
    <path
       d="m 123.28085,173.20799 c 0,0 0.11501,0.0245 0.11501,0.28293 0,0.25841 -0.0385,0.35683 -0.42193,0.36918 -0.38347,0.0122 -0.68068,0.0369 -1.21761,0.44291 -0.53693,0.40587 -0.67116,-1.08267 -0.096,-1.09502 0.57539,-0.0123 1.62049,0 1.62049,0"
       style="fill:#a9a287;fill-opacity:1;fill-rule:nonzero;stroke:none;stroke-width:0.01763889"
       id="path122"
       inkscape:connector-curvature="0" />
    <path
       d="m 122.07911,173.33922 c -0.30691,0.0984 -0.71631,0.15575 -1.08691,0.15575 -0.37077,0 -0.78016,-0.0573 -1.0869,-0.15575 -0.30692,-0.0984 -0.15346,0.14764 -0.15346,0.14764 0,0 0.23018,0.27887 0.19173,0.72178 -0.0383,0.44292 -0.19173,0.47572 -0.0256,0.67257 0.0991,0.11748 0.57556,0.20373 1.07421,0.22155 0.49848,0.0176 0.9749,-0.10407 1.07403,-0.22155 0.16634,-0.19685 0.0129,-0.22965 -0.0256,-0.67257 -0.0383,-0.44291 0.19191,-0.72178 0.19191,-0.72178 0,0 0.15328,-0.24606 -0.15346,-0.14764"
       style="fill:#bbb394;fill-opacity:1;fill-rule:nonzero;stroke:none;stroke-width:0.01763889"
       id="path126"
       inkscape:connector-curvature="0" />
    <path
       d="m 124.47677,175.27738 -0.22966,-0.23001 c -1.07315,0.8121 -2.02424,1.99584 -1.911,3.28807 0.0665,0.92233 0.54028,1.76688 0.6724,2.67811 0.0892,0.61666 0.1277,1.34444 -0.3385,1.86002 0,0 0.0711,0.0517 0.16158,0.12189 1.04545,-1.34409 -0.0468,-3.0734 -0.18204,-4.41149 -0.20249,-1.30263 0.72884,-2.49837 1.82722,-3.30659"
       style="fill:#cd8535;fill-opacity:1;fill-rule:nonzero;stroke:none;stroke-width:0.01763889"
       id="path258"
       inkscape:connector-curvature="0" />
    <path
       d="m 117.64117,175.04737 -0.22948,0.23001 c 1.09837,0.80822 2.0297,2.00396 1.82721,3.30659 -0.13547,1.33809 -1.22749,3.0674 -0.18221,4.41149 0.0907,-0.0702 0.16175,-0.12189 0.16175,-0.12189 -0.4662,-0.51558 -0.42792,-1.24336 -0.33849,-1.86002 0.13194,-0.91123 0.60589,-1.75578 0.67239,-2.67811 0.11324,-1.29223 -0.83802,-2.47597 -1.91117,-3.28807"
       style="fill:#cd8535;fill-opacity:1;fill-rule:nonzero;stroke:none;stroke-width:0.01763889"
       id="path260"
       inkscape:connector-curvature="0" />
    <path
       d="m 115.54179,173.77966 v 0.64629 h 10.50096 v -0.64629 h -10.50096"
       style="fill:#3458b0;fill-opacity:1;fill-rule:nonzero;stroke:none;stroke-width:0.01763889"
       id="path266"
       inkscape:connector-curvature="0" />
    <path
       d="m 115.54179,174.58753 v 0.64611 h 10.50096 v -0.64611 h -10.50096"
       style="fill:#c02b2b;fill-opacity:1;fill-rule:nonzero;stroke:none;stroke-width:0.01763889"
       id="path268"
       inkscape:connector-curvature="0" />
    <path
       d="m 125.9385,176.09371 c 0.0566,0.51417 0.12735,0.95303 -0.26899,1.3492 -0.31133,0.3115 -0.74066,0.36336 -1.17934,0.20285 -0.49001,-0.17904 -0.75953,-0.73114 -0.75953,-1.21232 0,-0.70768 0.50959,-1.23138 0.50959,-1.96727 0,-0.76429 -0.54257,-1.45785 -0.34449,-2.21721 0.19809,-0.7597 1.12395,-1.01335 1.75472,-0.635 0.48119,0.28311 0.58067,1.10155 0.55245,1.63936 0.53781,1.0474 0.64135,1.90624 -0.26441,2.84039"
       style="fill:#d3841a;fill-opacity:1;fill-rule:nonzero;stroke:none;stroke-width:0.01763889"
       id="path270"
       inkscape:connector-curvature="0" />
    <path
       d="m 117.4833,175.51498 c 0.40887,-0.45173 0.45896,-1.39665 0.22983,-1.89195 0.29087,-0.35895 0.3452,-0.94456 0.21079,-1.40688 -0.19526,-0.58896 -0.88935,-0.94756 -1.65418,-0.63658 -0.46849,0.19067 -0.73254,0.94809 -0.51823,1.43122 -1.15975,0.74224 -0.94809,2.39412 -0.0683,2.98679 -0.54328,1.05992 0.69709,2.14806 1.63319,1.65594 0.85725,-0.45085 0.72337,-1.62525 0.16686,-2.13854"
       style="fill:#d3841a;fill-opacity:1;fill-rule:nonzero;stroke:none;stroke-width:0.01763889"
       id="path274"
       inkscape:connector-curvature="0" />
    <path
       d="m 118.31656,179.78147 c -0.081,0 -0.15646,-0.0512 -0.18344,-0.13211 -0.60519,-1.80146 -0.28064,-4.40179 1.51288,-5.67285 0.0873,-0.0619 0.20814,-0.0413 0.26988,0.0459 0.0619,0.0873 0.0413,0.20813 -0.0459,0.27005 -1.58151,1.12077 -1.93852,3.54118 -1.37001,5.23381 0.034,0.10125 -0.0205,0.21096 -0.12189,0.24518 -0.0203,0.007 -0.0411,0.0101 -0.0616,0.0101"
       style="fill:#c02b2b;fill-opacity:1;fill-rule:nonzero;stroke:none;stroke-width:0.01763889"
       id="path280"
       inkscape:connector-curvature="0" />
    <path
       d="m 114.11004,179.27894 c 0.77576,0.17639 1.5554,0.39776 2.35356,0.44238 0.41698,0.0233 0.8202,-0.005 1.2266,-0.10018 0.17551,-0.0411 0.34043,-0.11448 0.50342,-0.1898 0.11289,-0.0522 0.2517,-0.07 0.31556,0.0679 0.14164,0.30657 -0.52388,0.40922 -0.69833,0.43797 -0.42492,0.07 -0.84296,0.0669 -1.26947,0.0125 -0.8292,-0.10584 -1.61978,-0.40799 -2.41053,-0.66411 -0.007,-0.002 -0.0139,-0.004 -0.0208,-0.007"
       style="fill:#c02b2b;fill-opacity:1;fill-rule:nonzero;stroke:none;stroke-width:0.01763889"
       id="path286"
       inkscape:connector-curvature="0" />
    <path
       d="m 116.63628,173.44364 c -0.67151,0.4752 -1.18622,1.27194 -1.35731,2.07116 0.11518,-0.83273 0.59055,-1.68187 1.24142,-2.21932 0.096,-0.0815 0.21696,0.0725 0.11589,0.14816"
       style="fill:#c02b2b;fill-opacity:1;fill-rule:nonzero;stroke:none;stroke-width:0.01763889"
       id="path288"
       inkscape:connector-curvature="0" />
    <path
       d="m 116.20095,172.40683 c 0.11554,0.18715 0.30427,0.33973 0.48789,0.45597 0.11783,0.0746 0.24818,0.14093 0.38682,0.1651 0.01,0.002 0.27041,-0.006 0.24713,-0.0457 0.12929,-0.085 0.24235,0.12312 0.1016,0.19491 -0.16704,0.0859 -0.35754,0.0427 -0.517,-0.0381 -0.28628,-0.14834 -0.57873,-0.43162 -0.70644,-0.73219"
       style="fill:#c02b2b;fill-opacity:1;fill-rule:nonzero;stroke:none;stroke-width:0.01763889"
       id="path292"
       inkscape:connector-curvature="0" />
    <path
       d="m 115.42731,178.47355 c 0.002,0.30198 0.23936,0.63024 0.42034,0.85443 0.10671,0.13229 0.23089,0.2667 0.38205,0.34872 0.0716,0.0388 0.3205,0.048 0.24571,0.18944 -0.0601,0.11395 -0.24941,0.007 -0.31697,-0.0385 -0.1494,-0.0993 -0.2667,-0.24465 -0.36653,-0.39194 -0.17234,-0.2547 -0.39882,-0.64047 -0.3646,-0.9622"
       style="fill:#c02b2b;fill-opacity:1;fill-rule:nonzero;stroke:none;stroke-width:0.01763889"
       id="path294"
       inkscape:connector-curvature="0" />
    <path
       d="m 126.31827,179.64848 c -0.0233,-0.005 -0.0707,-0.009 -0.14623,0.0407 -0.0755,0.0496 -0.38982,0.20514 -0.44415,0.22472 -0.19808,0.0716 -0.40516,0.0695 -0.61171,0.0473 0.22278,-0.025 0.44256,-0.0746 0.62494,-0.2129 0.1166,-0.0885 0.21537,-0.2189 0.34167,-0.29245 0.0557,-0.0325 0.28857,0.21026 0.23548,0.19262"
       style="fill:#c02b2b;fill-opacity:1;fill-rule:nonzero;stroke:none;stroke-width:0.01763889"
       id="path350"
       inkscape:connector-curvature="0" />
    <path
       d="m 124.16914,179.11278 c -0.30127,0.3997 -0.32243,0.92287 -0.72619,1.25501 0.28751,-0.34413 0.27746,-0.78387 0.4064,-1.18851 0.0229,-0.0718 0.31979,-0.0665 0.31979,-0.0665"
       style="fill:#c02b2b;fill-opacity:1;fill-rule:nonzero;stroke:none;stroke-width:0.01763889"
       id="path352"
       inkscape:connector-curvature="0" />
    <path
       d="m 122.74833,177.01376 c 0.30163,0.20178 0.62142,0.33196 0.98884,0.33072 0.36406,-0.001 0.68897,-0.1628 0.98266,-0.36318 -0.28205,0.23742 -0.60007,0.43233 -0.9749,0.47219 -0.39776,0.0423 -0.76182,-0.0646 -1.11019,-0.24976 l 0.11359,-0.18997"
       style="fill:#c02b2b;fill-opacity:1;fill-rule:nonzero;stroke:none;stroke-width:0.01763889"
       id="path404"
       inkscape:connector-curvature="0" />
    <path
       d="m 124.53974,175.55131 c 0.36724,0.0699 0.71473,0.0572 1.06151,-0.0914 0.3242,-0.13882 0.55544,-0.42016 0.74065,-0.70891 -0.16668,0.32896 -0.38347,0.63253 -0.71278,0.81562 -0.34978,0.19438 -0.72655,0.23813 -1.11954,0.20391 l 0.0302,-0.21925"
       style="fill:#c02b2b;fill-opacity:1;fill-rule:nonzero;stroke:none;stroke-width:0.01763889"
       id="path406"
       inkscape:connector-curvature="0" />
    <path
       d="m 123.98217,174.60852 c -0.2323,0.51611 -0.31397,1.12395 -0.20443,1.68186 -0.0732,0.0101 -0.14623,0.0201 -0.21925,0.0302 -0.0314,-0.59479 0.11253,-1.20368 0.42368,-1.71203"
       style="fill:#c02b2b;fill-opacity:1;fill-rule:nonzero;stroke:none;stroke-width:0.01763889"
       id="path408"
       inkscape:connector-curvature="0" />
    <path
       d="m 124.62758,173.16795 c 0.0307,0.3967 0.0871,1.14917 0.5782,1.25148 -0.0166,0.072 -0.0332,0.14375 -0.0497,0.21572 -0.56832,-0.22154 -0.56109,-0.95285 -0.52846,-1.4672"
       style="fill:#c02b2b;fill-opacity:1;fill-rule:nonzero;stroke:none;stroke-width:0.01763889"
       id="path410"
       inkscape:connector-curvature="0" />
    <path
       d="m 125.52928,173.59481 c 0.55792,-0.0981 1.07068,-0.48066 1.18198,-1.05886 -0.0404,0.62988 -0.55527,1.09608 -1.13012,1.27388 l -0.0519,-0.21502"
       style="fill:#c02b2b;fill-opacity:1;fill-rule:nonzero;stroke:none;stroke-width:0.01763889"
       id="path412"
       inkscape:connector-curvature="0" />
    <path
       d="m 119.6072,180.87526 c -0.0783,-0.53869 -0.511,-1.18233 -1.09591,-1.19786 0.0963,-0.49829 -0.14693,-1.07667 -0.60466,-1.28375 0.40146,-0.40005 0.3071,-1.10861 -0.13564,-1.48202 -0.072,-0.0607 -0.14923,-0.10548 -0.22825,-0.13759 0.007,-0.005 0.0138,-0.0102 0.0205,-0.0159 0.30163,-0.25612 0.32138,-0.74136 0.22472,-1.0922 -0.0864,-0.3138 -0.27269,-0.55545 -0.58526,-0.66005 -0.002,-7.1e-4 -0.004,-0.001 -0.006,-0.002 0.12118,-0.0894 0.2249,-0.21255 0.30075,-0.35083 0.18397,-0.33426 0.17709,-0.73837 -0.0529,-1.01653 0.4094,-0.15734 0.60696,-0.63271 0.47396,-1.07404 -0.14023,-0.46425 -0.57221,-0.79357 -1.02711,-0.57026 -0.48137,-0.30321 -1.15323,-0.16951 -1.41164,0.35772 -0.18504,0.37729 -0.0974,0.79339 0.16668,1.07544 -0.37906,0.0646 -0.7149,0.3115 -0.8546,0.69938 -0.1778,0.49336 0.0875,0.95779 0.51629,1.17387 -0.29986,0.21096 -0.46461,0.56074 -0.47184,0.94844 -0.009,0.4819 0.31609,0.87207 0.74683,1.01671 -0.25523,0.242 -0.378,0.62036 -0.32367,0.97137 0.064,0.41399 0.38788,0.67257 0.76588,0.73731 -0.36548,0.4071 -0.33938,1.06045 0.0268,1.49736 0.24077,0.28734 0.61789,0.39741 0.97261,0.34943 -0.0549,0.0792 -0.0993,0.16686 -0.12983,0.26158 -0.10354,0.32156 0.0168,0.68175 0.21291,0.94051 0.44167,0.58208 1.34743,0.64594 1.70091,-0.0494 0.57838,-0.0127 0.87401,-0.55263 0.79852,-1.09714"
       style="fill:#cb5043;fill-opacity:1;fill-rule:nonzero;stroke:none;stroke-width:0.01763889"
       id="path472"
       inkscape:connector-curvature="0" />
    <path
       d="m 117.84754,180.32246 c 0.45579,-1.06557 1.52965,-0.32385 1.63989,0.58579 0.13794,0.82691 -0.68898,1.26788 -1.32292,0.66145 -0.33073,-0.30321 -0.43973,-0.96026 -0.31697,-1.24724"
       style="fill:#db7468;fill-opacity:1;fill-rule:nonzero;stroke:none;stroke-width:0.01763889"
       id="path474"
       inkscape:connector-curvature="0" />
    <path
       d="m 117.88317,180.34345 c 0.20126,-0.44521 0.58861,-0.64435 1.02006,-0.35807 0.39423,0.26158 0.62459,0.82021 0.53993,1.28217 -0.096,0.52458 -0.66411,0.65493 -1.07686,0.40905 -0.40816,-0.24342 -0.65052,-0.89165 -0.47889,-1.34303 0.0189,-0.0499 -0.061,-0.0714 -0.0797,-0.0221 -0.19844,0.52194 0.10513,1.1908 0.56321,1.46403 0.44714,0.2667 0.9906,0.0519 1.1407,-0.43921 0.15611,-0.51064 -0.1568,-1.12571 -0.56656,-1.4224 -0.45825,-0.33161 -0.92128,-0.0813 -1.13329,0.38771 -0.0217,0.0481 0.0496,0.0903 0.0714,0.0418"
       style="fill:#cb5043;fill-opacity:1;fill-rule:nonzero;stroke:none;stroke-width:0.01763889"
       id="path476"
       inkscape:connector-curvature="0" />
    <path
       d="m 117.0448,178.85808 c 0.27216,-0.72337 1.22996,-0.45808 1.3402,0.42404 0.0552,0.35824 0,0.68897 -0.35825,0.82673 -0.63394,0.24818 -1.25412,-0.52758 -0.98195,-1.25077"
       style="fill:#db7468;fill-opacity:1;fill-rule:nonzero;stroke:none;stroke-width:0.01763889"
       id="path478"
       inkscape:connector-curvature="0" />
    <path
       d="m 117.08466,178.86901 c 0.1337,-0.32808 0.44873,-0.47237 0.77646,-0.32367 0.3482,0.15804 0.47661,0.55122 0.49971,0.90364 0.033,0.508 -0.44326,0.81721 -0.8957,0.57926 -0.40922,-0.21537 -0.51982,-0.75283 -0.38047,-1.15923 0.0173,-0.0506 -0.0626,-0.0721 -0.0797,-0.0219 -0.16792,0.48966 0.0138,1.07668 0.5073,1.2954 0.45014,0.19967 0.89623,-0.12612 0.93115,-0.58649 0.0321,-0.42245 -0.16598,-0.93804 -0.58543,-1.10208 -0.37095,-0.14517 -0.70732,0.0353 -0.85302,0.39317 -0.0201,0.0494 0.0598,0.0706 0.0797,0.0219"
       style="fill:#cb5043;fill-opacity:1;fill-rule:nonzero;stroke:none;stroke-width:0.01763889"
       id="path480"
       inkscape:connector-curvature="0" />
    <path
       d="m 116.67262,177.3713 c 0.13405,-0.79852 1.14441,-0.68686 1.35413,0.20178 0.17216,0.73043 -0.72337,1.32257 -1.12659,0.5962 -0.16828,-0.30304 -0.2757,-0.51065 -0.22754,-0.79798"
       style="fill:#db7468;fill-opacity:1;fill-rule:nonzero;stroke:none;stroke-width:0.01763889"
       id="path482"
       inkscape:connector-curvature="0" />
    <path
       d="m 116.71248,177.38223 c 0.064,-0.32932 0.30427,-0.5595 0.65229,-0.49336 0.35436,0.0676 0.56638,0.42016 0.63253,0.74719 0.0753,0.37218 -0.20091,0.79251 -0.58755,0.8225 -0.21379,0.0166 -0.37324,-0.14129 -0.47396,-0.31027 -0.14411,-0.24148 -0.25876,-0.49089 -0.22172,-0.77699 0.007,-0.0527 -0.076,-0.0522 -0.0827,0 -0.0399,0.30744 0.0882,0.55633 0.23301,0.81879 0.0951,0.17216 0.26017,0.33073 0.46567,0.34767 0.43074,0.0358 0.73713,-0.36213 0.75953,-0.76059 0.0238,-0.42334 -0.29351,-0.86625 -0.70291,-0.96803 -0.38718,-0.0961 -0.68386,0.19121 -0.75389,0.55122 -0.0101,0.052 0.0697,0.0743 0.0797,0.0219"
       style="fill:#cb5043;fill-opacity:1;fill-rule:nonzero;stroke:none;stroke-width:0.01763889"
       id="path484"
       inkscape:connector-curvature="0" />
    <path
       d="m 116.24858,175.59012 c 0.0494,-0.41469 0.35366,-0.67116 0.76729,-0.58702 0.39158,0.11024 0.55016,0.34061 0.65581,0.73395 0.10231,0.38118 0.0323,0.78828 -0.1785,1.0026 -0.21837,0.22207 -0.82674,0.51258 -1.09608,0.0944 l -0.14852,-1.24389"
       style="fill:#db7468;fill-opacity:1;fill-rule:nonzero;stroke:none;stroke-width:0.01763889"
       id="path486"
       inkscape:connector-curvature="0" />
    <path
       d="m 116.28844,175.60123 c 0.0432,-0.28998 0.20602,-0.52969 0.51347,-0.57009 0.28698,-0.0376 0.56409,0.14888 0.70397,0.38612 0.16616,0.28187 0.20778,0.64999 0.13388,0.96379 -0.0686,0.29227 -0.30269,0.46937 -0.56939,0.57167 -0.127,0.0487 -0.2637,0.0654 -0.39722,0.0374 -0.0792,-0.0168 -0.22737,-0.0951 -0.23795,-0.18256 -0.0157,-0.13194 -0.0314,-0.26388 -0.0473,-0.39582 -0.0326,-0.27376 -0.0654,-0.54769 -0.0981,-0.82162 -0.006,-0.0522 -0.0891,-0.0527 -0.0827,0 0.0464,0.38876 0.0929,0.77752 0.13934,1.16628 0.0639,0.53481 0.81263,0.29263 1.08127,0.0944 0.49935,-0.3683 0.39881,-1.25518 0.007,-1.66564 -0.18591,-0.19473 -0.48207,-0.27375 -0.74048,-0.21854 -0.28839,0.0617 -0.44485,0.34342 -0.48524,0.61259 -0.008,0.0522 0.072,0.0746 0.0799,0.022"
       style="fill:#cb5043;fill-opacity:1;fill-rule:nonzero;stroke:none;stroke-width:0.01763889"
       id="path488"
       inkscape:connector-curvature="0" />
    <path
       d="m 116.78621,173.44735 c 1.51306,0.19879 0.29545,2.48126 -0.49601,1.34796 -0.3376,-0.48348 -0.0765,-1.42328 0.49601,-1.34796"
       style="fill:#db7468;fill-opacity:1;fill-rule:nonzero;stroke:none;stroke-width:0.01763889"
       id="path490"
       inkscape:connector-curvature="0" />
    <path
       d="m 116.7751,173.48721 c 0.37482,0.0554 0.67469,0.26794 0.69021,0.6694 0.0116,0.30145 -0.14517,0.62688 -0.38665,0.80662 -0.30762,0.22896 -0.63165,0.0298 -0.79886,-0.26458 -0.22437,-0.39476 -0.0732,-1.26153 0.50641,-1.21003 0.0531,0.005 0.0526,-0.078 0,-0.0825 -0.57309,-0.051 -0.74965,0.67222 -0.65952,1.11231 0.0783,0.384 0.46637,0.75512 0.87031,0.58614 0.3369,-0.14111 0.52934,-0.54239 0.55015,-0.88882 0.028,-0.46144 -0.32402,-0.74524 -0.75,-0.80822 -0.0522,-0.008 -0.0746,0.072 -0.0221,0.0797"
       style="fill:#cb5043;fill-opacity:1;fill-rule:nonzero;stroke:none;stroke-width:0.01763889"
       id="path492"
       inkscape:connector-curvature="0" />
    <path
       d="m 116.64863,172.36379 c 0.44097,-0.57873 1.0197,-0.35824 1.18515,0.35842 0.0746,0.38788 -0.16598,0.71138 -0.45896,0.81263 -0.24836,0.0857 -0.63253,0.0519 -0.79692,-0.27693 l 0.0707,-0.89412"
       style="fill:#db7468;fill-opacity:1;fill-rule:nonzero;stroke:none;stroke-width:0.01763889"
       id="path494"
       inkscape:connector-curvature="0" />
    <path
       d="m 116.67791,172.39307 c 0.13035,-0.16281 0.2891,-0.30321 0.50606,-0.3182 0.22101,-0.0152 0.38911,0.16351 0.49089,0.3369 0.27499,0.46761 0.061,1.08338 -0.51788,1.1213 -0.10495,0.007 -0.2092,-0.0171 -0.3048,-0.0589 -0.0545,-0.0236 -0.23848,-0.1464 -0.23266,-0.21855 0.007,-0.0889 0.0139,-0.17762 0.021,-0.26634 0.0164,-0.2085 0.033,-0.41699 0.0494,-0.62548 0.004,-0.0531 -0.0785,-0.0527 -0.0827,0 -0.0233,0.29492 -0.0466,0.58985 -0.0699,0.88459 -0.0106,0.13388 0.22189,0.28434 0.32755,0.32085 0.21008,0.0725 0.42704,0.0561 0.62618,-0.0406 0.50624,-0.24588 0.46284,-0.89711 0.17039,-1.28658 -0.30233,-0.40252 -0.76905,-0.24818 -1.0421,0.0926 -0.033,0.0411 0.025,0.10001 0.0586,0.0584"
       style="fill:#cb5043;fill-opacity:1;fill-rule:nonzero;stroke:none;stroke-width:0.01763889"
       id="path496"
       inkscape:connector-curvature="0" />
    <path
       d="m 118.37036,181.72122 c -0.12594,0 -0.24871,-0.0639 -0.31856,-0.17939 -2.79947,-4.61927 -2.33945,-7.75335 -1.8161,-9.21049 0.0695,-0.19333 0.28275,-0.29369 0.47607,-0.22455 0.19333,0.0697 0.29387,0.28258 0.22437,0.47608 -0.38523,1.07279 -0.98584,4.05553 1.75207,8.57338 0.10654,0.17568 0.0503,0.40446 -0.12541,0.511 -0.0603,0.0365 -0.12682,0.054 -0.19244,0.054"
       style="fill:#ec8378;fill-opacity:1;fill-rule:nonzero;stroke:none;stroke-width:0.01763889"
       id="path498"
       inkscape:connector-curvature="0" />
    <path
       d="m 117.29474,180.6135 c -0.86484,0.75442 0.40605,2.34103 1.25571,1.50742 0.73043,-0.71649 -0.39105,-2.26201 -1.25571,-1.50742"
       style="fill:#e97a6c;fill-opacity:1;fill-rule:nonzero;stroke:none;stroke-width:0.01763889"
       id="path500"
       inkscape:connector-curvature="0" />
    <path
       d="m 117.26546,180.58422 c -0.4057,0.37147 -0.36689,0.96291 -0.0402,1.37601 0.30745,0.38894 0.86237,0.61172 1.28464,0.25241 0.8786,-0.74806 -0.30056,-2.413 -1.24442,-1.62842 -0.0411,0.0342 0.0178,0.0923 0.0584,0.0586 0.87048,-0.72372 1.95386,0.87507 1.10049,1.53211 -0.39934,0.30745 -0.89517,0.0579 -1.15834,-0.29739 -0.28187,-0.38064 -0.30586,-0.9017 0.0579,-1.23472 0.0395,-0.0362 -0.0192,-0.0945 -0.0584,-0.0586"
       style="fill:#cb5043;fill-opacity:1;fill-rule:nonzero;stroke:none;stroke-width:0.01763889"
       id="path502"
       inkscape:connector-curvature="0" />
    <path
       d="m 115.94237,179.34068 c -0.3041,0.79728 0.55456,1.81733 1.51923,1.26612 0.68915,-0.41346 0.37218,-1.57286 -0.34448,-1.79335 -0.38594,-0.13776 -0.96467,-0.0242 -1.17475,0.52723"
       style="fill:#e97a6c;fill-opacity:1;fill-rule:nonzero;stroke:none;stroke-width:0.01763889"
       id="path504"
       inkscape:connector-curvature="0" />
    <path
       d="m 115.90233,179.32957 c -0.19015,0.54221 0.0896,1.14635 0.60307,1.38818 0.51541,0.24271 1.19927,-0.03 1.35167,-0.58579 0.13899,-0.5073 -0.16598,-1.1079 -0.635,-1.32327 -0.51559,-0.23689 -1.10596,0.005 -1.31974,0.52088 -0.0203,0.0492 0.0598,0.0705 0.0797,0.022 0.20603,-0.49741 0.76218,-0.67186 1.23878,-0.45296 0.42087,0.19332 0.64206,0.72866 0.56586,1.1691 -0.0993,0.57344 -0.80363,0.78387 -1.28358,0.55792 -0.46496,-0.21907 -0.68792,-0.79834 -0.52106,-1.27406 0.0178,-0.0504 -0.0621,-0.072 -0.0797,-0.022"
       style="fill:#cb5043;fill-opacity:1;fill-rule:nonzero;stroke:none;stroke-width:0.01763889"
       id="path506"
       inkscape:connector-curvature="0" />
    <path
       d="m 115.63563,177.34184 c -0.34449,0.37006 -0.46567,1.2573 0.38929,1.53635 0.16192,0.0529 0.32067,0.0356 0.45473,-0.007 0.55721,-0.17833 0.91634,-0.94122 0.47219,-1.44093 -0.35842,-0.39475 -0.97173,-0.45825 -1.31621,-0.0882"
       style="fill:#e97a6c;fill-opacity:1;fill-rule:nonzero;stroke:none;stroke-width:0.01763889"
       id="path508"
       inkscape:connector-curvature="0" />
    <path
       d="m 115.60635,177.31256 c -0.25559,0.28716 -0.36442,0.75212 -0.19262,1.10878 0.2473,0.51364 0.89253,0.67345 1.3529,0.34643 0.41646,-0.29598 0.56198,-0.89341 0.257,-1.31516 -0.32561,-0.4505 -1.02253,-0.53446 -1.41728,-0.14005 -0.0378,0.0378 0.0208,0.0963 0.0586,0.0586 0.38611,-0.38594 1.01511,-0.25312 1.31956,0.16774 0.29651,0.41029 0.0402,0.9705 -0.34325,1.21356 -0.43021,0.2727 -1.01618,0.0203 -1.18198,-0.44009 -0.11254,-0.31221 -0.0106,-0.69832 0.20567,-0.94121 0.0353,-0.0397 -0.0229,-0.0984 -0.0586,-0.0586"
       style="fill:#cb5043;fill-opacity:1;fill-rule:nonzero;stroke:none;stroke-width:0.01763889"
       id="path510"
       inkscape:connector-curvature="0" />
    <path
       d="m 115.45994,175.34247 c -0.57238,0.28346 -0.79586,1.45733 0.1136,1.82157 0.88212,0.36424 1.59879,-0.8128 1.04739,-1.51342 -0.248,-0.3362 -0.6477,-0.5625 -1.16099,-0.30815"
       style="fill:#e97a6c;fill-opacity:1;fill-rule:nonzero;stroke:none;stroke-width:0.01763889"
       id="path512"
       inkscape:connector-curvature="0" />
    <path
       d="m 115.43913,175.30666 c -0.41169,0.2182 -0.57662,0.73801 -0.49865,1.17599 0.0949,0.53252 0.67751,0.89447 1.19556,0.75794 0.51171,-0.13476 0.78458,-0.73025 0.69991,-1.22026 -0.0474,-0.27393 -0.24412,-0.51064 -0.46161,-0.67133 -0.28257,-0.20885 -0.63112,-0.18221 -0.93521,-0.0423 -0.0485,0.0222 -0.006,0.0937 0.0416,0.0714 0.32614,-0.14993 0.64805,-0.12894 0.92815,0.10178 0.19491,0.16086 0.32826,0.39088 0.35913,0.64117 0.0563,0.45561 -0.25206,0.9338 -0.6962,1.05093 -0.49478,0.13035 -0.97579,-0.28593 -1.05887,-0.7523 -0.0688,-0.38682 0.11377,-0.8539 0.46779,-1.04158 0.0471,-0.025 0.005,-0.0963 -0.0416,-0.0714"
       style="fill:#cb5043;fill-opacity:1;fill-rule:nonzero;stroke:none;stroke-width:0.01763889"
       id="path514"
       inkscape:connector-curvature="0" />
    <path
       d="m 115.85276,173.52302 c -0.64082,-0.0497 -1.35061,0.7874 -0.80275,1.43175 0.51771,0.60889 1.67446,0.39264 1.65365,-0.5237 -0.0113,-0.49901 -0.21008,-0.85831 -0.8509,-0.90805"
       style="fill:#e97a6c;fill-opacity:1;fill-rule:nonzero;stroke:none;stroke-width:0.01763889"
       id="path516"
       inkscape:connector-curvature="0" />
    <path
       d="m 115.85276,173.48174 c -0.54927,-0.0238 -1.05886,0.46955 -1.03805,1.02112 0.0199,0.53199 0.5835,0.85337 1.06345,0.83502 0.48278,-0.0185 0.84332,-0.3787 0.86678,-0.85672 0.0111,-0.2233 -0.036,-0.48912 -0.17622,-0.66939 -0.17586,-0.22631 -0.44026,-0.30357 -0.71596,-0.33003 -0.0531,-0.005 -0.0527,0.0776 0,0.0827 0.24024,0.0229 0.46778,0.0871 0.63235,0.2734 0.15029,0.17022 0.17745,0.42651 0.17728,0.64329 -5.3e-4,0.44521 -0.36442,0.74154 -0.78423,0.77417 -0.45614,0.0353 -0.92957,-0.28028 -0.98072,-0.75247 -0.055,-0.50782 0.47642,-0.9592 0.95532,-0.93839 0.0533,0.002 0.0531,-0.0804 0,-0.0827"
       style="fill:#cb5043;fill-opacity:1;fill-rule:nonzero;stroke:none;stroke-width:0.01763889"
       id="path518"
       inkscape:connector-curvature="0" />
    <path
       d="m 116.02668,172.04523 c -0.65723,0.30551 -0.68756,1.52647 0.2503,1.63654 0.69779,0.0817 1.13506,-0.88406 0.69356,-1.47408 -0.22172,-0.27252 -0.61101,-0.31715 -0.94386,-0.16246"
       style="fill:#e97a6c;fill-opacity:1;fill-rule:nonzero;stroke:none;stroke-width:0.01763889"
       id="path520"
       inkscape:connector-curvature="0" />
    <path
       d="m 116.00587,172.00943 c -0.82109,0.40887 -0.54064,1.89494 0.46549,1.70956 0.48965,-0.0901 0.75141,-0.60149 0.71261,-1.06751 -0.0513,-0.61542 -0.64594,-0.8696 -1.1781,-0.64205 -0.0489,0.021 -0.007,0.0922 0.0416,0.0714 0.27217,-0.11624 0.57486,-0.11641 0.81404,0.0736 0.18503,0.14711 0.2473,0.41381 0.24483,0.638 -0.005,0.43127 -0.32932,0.85989 -0.78211,0.85178 -0.84737,-0.015 -0.96485,-1.22061 -0.27676,-1.56334 0.0478,-0.0238 0.006,-0.0951 -0.0416,-0.0714"
       style="fill:#cb5043;fill-opacity:1;fill-rule:nonzero;stroke:none;stroke-width:0.01763889"
       id="path522"
       inkscape:connector-curvature="0" />
    <path
       d="m 121.07915,180.58446 c 0.60237,-0.009 1.0183,0.18097 1.23561,0.6223 0.56462,-0.26688 1.08303,0.0499 1.30369,0.57061 0.18521,-0.13335 0.39934,-0.19014 0.63077,-0.17638 0.0803,-0.31415 0.30285,-0.5424 0.60025,-0.66711 1.7e-4,-0.35771 0.13917,-0.72143 0.43744,-0.92622 -0.21167,-0.50288 -0.10689,-1.12024 0.35137,-1.43633 -0.16722,-0.39388 -0.13529,-0.8793 0.16633,-1.1871 -0.36071,-0.37976 -0.31714,-1.00242 0.0131,-1.3977 -0.23636,-0.36989 -0.1852,-0.86202 0.0402,-1.23367 -0.21396,-0.20673 -0.32385,-0.48771 -0.32173,-0.77417 -0.30004,0.19738 -0.69515,0.2099 -1.02482,0.0259 -0.29651,0.58332 -1.10473,0.8128 -1.62349,0.39494 -0.1852,0.34378 -0.53463,0.62776 -0.9398,0.60713 -0.363,-0.0185 -0.67927,-0.20532 -0.82673,-0.52035 -0.59302,0.47942 -1.56651,0.28504 -1.87325,-0.4288 -0.33532,0.24606 -0.78617,0.36054 -1.15746,0.11342 -0.22825,-0.15188 -0.39106,-0.3833 -0.45385,-0.64277 -0.0575,0.0443 -0.12136,0.0817 -0.19227,0.10884 0.23001,0.27816 0.23689,0.68227 0.0529,1.01653 -0.0759,0.13828 -0.17956,0.2614 -0.30074,0.35083 0.002,5.3e-4 0.004,8.8e-4 0.006,0.002 0.31256,0.1046 0.49882,0.34625 0.58525,0.66005 0.0967,0.35084 0.0769,0.83608 -0.22471,1.0922 -0.007,0.006 -0.0136,0.0106 -0.0205,0.0159 0.079,0.0321 0.15628,0.0769 0.22824,0.13758 0.44274,0.37341 0.53711,1.08197 0.13565,1.48202 0.45772,0.20708 0.70097,0.78546 0.60466,1.28376 0.5849,0.0155 1.01758,0.65916 1.0959,1.19785 0.0293,0.21096 0.002,0.42087 -0.075,0.60008 0.18838,0.0889 0.37835,0.13564 0.59372,0.15434 0.0993,-0.57397 0.32473,-1.03593 0.95321,-1.04528"
       style="fill:#a7433a;fill-opacity:1;fill-rule:nonzero;stroke:none;stroke-width:0.01763889"
       id="path524"
       inkscape:connector-curvature="0" />
    <path
       d="m 118.8676,177.42509 c -0.2794,0.002 -0.56092,-0.0774 -0.82127,-0.23442 -0.48983,-0.29527 -0.84173,-0.83467 -0.87559,-1.34073 -0.0397,-0.55739 0.44979,-1.21267 1.04581,-1.40229 0.44467,-0.14129 0.8823,-0.002 1.143,0.36283 0.075,0.10531 0.1374,0.22208 0.18168,0.34414 0.0572,-0.21291 0.21431,-0.45368 0.70167,-0.5454 0.41152,-0.0898 0.80557,0.0483 1.05957,0.37095 0.25841,0.3048 0.20673,0.71331 0.1651,1.04316 -0.0111,0.0884 -0.0279,0.22066 -0.0275,0.30798 0.007,-5.3e-4 0.0143,-0.001 0.0224,-0.002 0.2286,-0.0298 0.26052,-0.0725 0.33478,-0.45491 0.0379,-0.19509 0.0808,-0.41593 0.21484,-0.61613 0.005,-0.008 0.0113,-0.0162 0.0175,-0.0242 0.257,-0.33002 0.53146,-0.32209 0.67221,-0.28804 0.4244,0.10265 0.46444,0.55262 0.50677,1.03028 0.005,0.0586 0.012,0.13512 0.0191,0.19615 0.0944,-0.13988 0.20585,-0.41293 0.24289,-0.64806 0.003,-0.0228 0.005,-0.0511 0.008,-0.0832 0.0272,-0.31062 0.0727,-0.82903 0.4983,-1.04228 0.1621,-0.0811 0.42986,-0.14076 0.78616,0.0349 0.40093,0.19738 0.34678,0.72214 0.23372,1.39012 l -0.006,0.0397 c -0.002,0.14094 0.0423,0.22772 0.0734,0.263 0.0279,-0.0214 0.0792,-0.0721 0.1367,-0.18556 0.10389,-0.20514 0.36812,-0.29475 0.5902,-0.20056 0.22225,0.094 0.31873,0.33673 0.21554,0.54205 -0.30233,0.60148 -0.78987,0.73413 -1.14476,0.65722 -0.33393,-0.0725 -0.58793,-0.32332 -0.69994,-0.66023 -0.1404,0.32121 -0.37323,0.66005 -0.74542,0.75795 -0.19102,0.0504 -0.56744,0.0716 -0.93662,-0.3519 -0.01,-0.0109 -0.0183,-0.0222 -0.0266,-0.0337 -0.15416,0.23178 -0.41733,0.43533 -0.88635,0.49724 -0.34325,0.0404 -0.60731,-0.0247 -0.79146,-0.19191 -0.2995,-0.27164 -0.24835,-0.66657 -0.20337,-1.01388 0.0178,-0.13741 0.0508,-0.39282 0.0118,-0.45826 -0.006,-0.007 -0.008,-0.01 -0.0138,-0.0166 -0.0605,-0.0789 -0.10478,-0.0686 -0.13406,-0.0619 -0.007,0.002 -0.0139,0.003 -0.0208,0.004 -0.002,3.4e-4 -0.004,7.1e-4 -0.006,0.001 -3.5e-4,0.006 -8.8e-4,0.012 -0.001,0.0176 -0.005,0.0617 -0.0113,0.13723 -0.0272,0.22419 -0.0335,0.4355 -0.12312,1.40617 -1.09855,1.70762 -0.13529,0.0418 -0.27429,0.0628 -0.41381,0.0637 z m -0.3302,-2.21156 c -0.0226,0 -0.0944,0.0196 -0.18803,0.0938 -0.16052,0.12735 -0.27852,0.33196 -0.26864,0.46602 0.0178,0.25488 0.22595,0.56338 0.48419,0.71914 0.10936,0.066 0.27569,0.13352 0.44608,0.0813 0.18486,-0.0566 0.30516,-0.1905 0.38065,-0.44221 -0.0497,0.0549 -0.10865,0.10619 -0.17762,0.15346 -0.2032,0.139 -0.48772,0.10442 -0.635,-0.0773 -0.14729,-0.18168 -0.1016,-0.44132 0.1016,-0.57961 0.0679,-0.0462 -0.0146,-0.26141 -0.0848,-0.36036 -0.0325,-0.0455 -0.0538,-0.054 -0.054,-0.054 -0.001,-1.7e-4 -0.003,-3.4e-4 -0.004,-3.4e-4"
       style="fill:#d0764f;fill-opacity:1;fill-rule:nonzero;stroke:none;stroke-width:0.01763889"
       id="path526"
       inkscape:connector-curvature="0" />
    <path
       d="m 120.96345,179.39042 c -0.25911,0.002 -0.47272,-0.0614 -0.63782,-0.19103 -0.39176,-0.30745 -0.32879,-0.81968 -0.28734,-1.15764 0.006,-0.0485 0.0134,-0.10971 0.0168,-0.15293 -0.11554,-0.0822 -0.51894,-0.0191 -0.74524,0.0164 -0.0767,0.012 -0.14958,0.0235 -0.21643,0.0319 -0.0106,0.001 -0.0212,0.002 -0.0319,0.003 -0.45949,0.0295 -0.74701,0.15081 -0.80416,0.22772 -0.0136,0.018 0.006,0.0755 0.0102,0.087 0.0474,0.13194 0.12788,0.19544 0.84137,-0.0349 0.0746,-0.024 0.14517,-0.0467 0.20937,-0.0656 0.24183,-0.0707 0.49548,0.0504 0.56621,0.27075 0.0707,0.22067 -0.0681,0.45739 -0.31062,0.52882 -0.0561,0.0166 -0.11765,0.0367 -0.18291,0.0579 -0.48895,0.15893 -1.63901,0.53305 -1.99743,-0.47131 -0.13635,-0.38171 -0.0145,-0.66252 0.11148,-0.83062 0.34272,-0.4572 1.08073,-0.57344 1.50142,-0.60148 0.0541,-0.007 0.11271,-0.0162 0.17392,-0.0259 0.48542,-0.075 1.38588,-0.21449 1.72826,0.47378 0.001,0.003 0.003,0.005 0.004,0.008 0.0764,0.16263 0.0549,0.34202 0.03,0.54998 -0.0138,0.115 -0.0414,0.3459 -0.0113,0.43462 0.0323,0.004 0.10989,0.007 0.25894,-0.0273 0.0432,-0.067 0.14393,-0.3138 0.0975,-1.1236 -0.013,-0.2286 0.17833,-0.42739 0.42739,-0.44397 0.24836,-0.0171 0.46161,0.15487 0.47537,0.3833 0.0318,0.52775 0.10636,1.77059 -0.7396,1.98402 -0.17674,0.0445 -0.33955,0.0676 -0.48736,0.069"
       style="fill:#d0764f;fill-opacity:1;fill-rule:nonzero;stroke:none;stroke-width:0.01763889"
       id="path528"
       inkscape:connector-curvature="0" />
    <path
       d="m 123.89027,179.39077 c -0.14076,0.001 -0.28469,-0.0134 -0.42968,-0.0445 -0.6133,-0.13194 -1.11443,-0.52687 -1.276,-1.00524 -0.0739,-0.21872 0.0596,-0.45438 0.29792,-0.52652 0.2383,-0.072 0.49089,0.0464 0.56515,0.26458 0.0672,0.19756 0.33267,0.38788 0.6313,0.45227 0.16069,0.0344 0.46602,0.0593 0.70644,-0.16405 0.11606,-0.10777 0.1591,-0.27375 0.11042,-0.41804 -0.0139,0.005 -0.0275,0.01 -0.0402,0.0141 -0.10178,0.036 -0.22878,0.0806 -0.38153,0.11007 -0.005,8.7e-4 -0.01,0.002 -0.0143,0.002 -0.45544,0.0734 -0.80169,0.001 -1.02764,-0.21431 -0.21978,-0.20955 -0.28593,-0.51382 -0.1972,-0.90347 0.051,-0.22401 0.28839,-0.37041 0.53163,-0.32649 0.24236,0.0434 0.39811,0.25982 0.34802,0.48366 -0.0176,0.0781 -0.0198,0.12805 -0.0183,0.15681 0.036,0.004 0.10283,0.005 0.21378,-0.0118 0.0794,-0.0157 0.1554,-0.0423 0.23583,-0.0704 0.24906,-0.0873 0.83079,-0.29052 1.17563,0.42845 0.004,0.009 0.008,0.0175 0.0115,0.0264 0.17639,0.44997 0.0536,0.96273 -0.31432,1.30652 -0.30339,0.28328 -0.70027,0.43532 -1.12836,0.43938"
       style="fill:#d0764f;fill-opacity:1;fill-rule:nonzero;stroke:none;stroke-width:0.01763889"
       id="path530"
       inkscape:connector-curvature="0" />
    <path
       d="m 123.68302,181.32593 c -0.1016,0.001 -0.21396,-0.0113 -0.33602,-0.0445 -0.45262,-0.12647 -0.61578,-0.54751 -0.75954,-0.9181 -0.0213,-0.0549 -0.0496,-0.12788 -0.0804,-0.19932 -0.0663,0.17551 -0.17921,0.36442 -0.41857,0.45438 -0.21625,0.0813 -0.45173,0.0485 -0.70026,-0.0974 -0.22366,-0.13141 -0.38506,-0.28275 -0.51471,-0.40446 -0.22119,-0.20743 -0.31326,-0.29386 -0.59549,-0.2794 -0.007,3.5e-4 -0.0129,5.3e-4 -0.0192,5.3e-4 -0.20444,0.002 -0.45173,0.0466 -0.64223,0.10143 0.12118,-0.006 0.24218,-0.0201 0.32226,-0.0409 0.24536,-0.0638 0.49442,0.0663 0.55686,0.29122 0.0626,0.22525 -0.0855,0.4602 -0.33126,0.52476 -0.012,0.003 -1.23225,0.28328 -1.65047,-0.25876 -0.0868,-0.11219 -0.25365,-0.42087 0.066,-0.86025 0.003,-0.004 0.006,-0.008 0.009,-0.0116 0.40816,-0.52423 1.50847,-0.58315 1.6667,-0.58879 v 0 c 0.68474,-0.0325 1.01229,0.27446 1.27564,0.52105 0.0614,0.0575 0.12118,0.11342 0.18503,0.16545 0.0579,-0.18467 0.14976,-0.4004 0.38188,-0.52475 0.10954,-0.0587 0.29034,-0.11571 0.52829,-0.0549 0.49054,0.12559 0.67081,0.58791 0.81615,0.96026 0.0517,0.13247 0.1367,0.35031 0.19826,0.41169 0.0356,0.008 0.063,0.008 0.0792,-0.001 0.16439,-0.0885 0.29827,-0.58296 0.36248,-0.81985 l 0.007,-0.0249 c 0.0612,-0.22543 0.30621,-0.36495 0.54786,-0.31168 0.24113,0.0531 0.38788,0.27869 0.32738,0.50412 l -0.006,0.0247 c -0.12226,0.45667 -0.29036,1.08497 -0.79466,1.35784 -0.11253,0.0612 -0.27481,0.12065 -0.48013,0.12312"
       style="fill:#d0764f;fill-opacity:1;fill-rule:nonzero;stroke:none;stroke-width:0.01763889"
       id="path532"
       inkscape:connector-curvature="0" />
    <path
       d="m 127.50466,175.98788 c 0.38223,-0.43586 0.40481,-1.10014 -0.0409,-1.49208 0.12982,-0.20055 0.20778,-0.43162 0.1718,-0.67504 -0.048,-0.3242 -0.26441,-0.5491 -0.53093,-0.71225 0.0889,-0.3452 -0.10248,-0.63783 -0.37941,-0.85673 -0.31398,-0.24853 -0.67857,-0.25135 -1.016,-0.0501 -0.0176,0.0104 -0.0303,0.0243 -0.0397,0.0399 -0.0441,0.0316 -0.0843,0.0672 -0.12189,0.10619 -0.52087,-0.34396 -1.20967,-0.14905 -1.45732,0.42898 -0.23971,-0.14182 -0.50606,-0.18292 -0.79252,-0.1143 -0.30709,0.0734 -0.54133,0.26634 -0.66939,0.5364 -0.42916,-0.29316 -1.03117,-0.20285 -1.35908,0.19632 -0.3623,-0.52106 -1.16452,-0.76765 -1.69721,-0.40164 -0.17763,-0.37571 -0.57503,-0.6193 -0.9899,-0.64982 -0.47431,-0.0349 -0.90505,0.35578 -0.96537,0.8158 -0.0526,0.40005 0.14111,0.79022 0.47378,1.01142 0.37129,0.24712 0.82214,0.13264 1.15746,-0.11342 0.30674,0.71384 1.28023,0.90822 1.87325,0.4288 0.14746,0.31503 0.46373,0.50183 0.82673,0.52035 0.40517,0.0206 0.7546,-0.26335 0.93981,-0.60713 0.51875,0.41786 1.32697,0.18838 1.62348,-0.39494 0.32967,0.18397 0.72478,0.17145 1.02482,-0.0259 -0.002,0.28646 0.10777,0.56744 0.32173,0.77417 -0.22542,0.37165 -0.27658,0.86378 -0.0402,1.23367 -0.3302,0.39528 -0.37377,1.01794 -0.0131,1.3977 -0.30162,0.3078 -0.33355,0.79322 -0.16633,1.1871 -0.45826,0.31609 -0.56303,0.93345 -0.35137,1.43633 -0.29827,0.20479 -0.43727,0.56851 -0.43744,0.92622 -0.29739,0.12471 -0.52,0.35296 -0.60025,0.66711 -0.23143,-0.0138 -0.44556,0.043 -0.63077,0.17638 -0.2219,-0.52352 -0.74471,-0.84155 -1.31304,-0.56691 -0.19262,0.0931 -0.21026,0.16369 -0.23583,0.34696 -0.0321,0.22948 -0.064,0.45878 -0.096,0.68809 -0.0279,0.19967 -0.0557,0.39917 -0.0834,0.59884 -0.005,0.0337 -0.01,0.0674 -0.0141,0.10107 -0.0199,0.14235 0.15363,0.29916 0.25065,0.38453 0.40305,0.35454 0.9405,0.19085 1.27547,-0.15399 0.18997,0.33514 0.53234,0.57521 0.9368,0.52388 0.40834,-0.0517 0.7583,-0.3713 0.88477,-0.75724 0.67803,0.0914 1.28587,-0.47784 1.22413,-1.16576 0.44468,-0.31256 0.69233,-0.90981 0.46038,-1.41763 0.42069,-0.36283 0.58349,-0.96397 0.25876,-1.42946 0.24536,-0.19385 0.42016,-0.46567 0.47343,-0.77893 0.0542,-0.31891 -0.0709,-0.57327 -0.2891,-0.77417 0.40904,-0.37218 0.53199,-0.95391 0.15328,-1.38871"
       style="fill:#cb5043;fill-opacity:1;fill-rule:nonzero;stroke:none;stroke-width:0.01763889"
       id="path534"
       inkscape:connector-curvature="0" />
    <path
       d="m 122.21334,181.41748 c 0.68651,-0.53111 1.45997,0.0961 1.3843,1.04387 -0.0654,0.81721 -1.10384,1.36843 -1.60196,0.517 l 0.21766,-1.56087"
       style="fill:#e97a6c;fill-opacity:1;fill-rule:nonzero;stroke:none;stroke-width:0.01763889"
       id="path536"
       inkscape:connector-curvature="0" />
    <path
       d="m 122.23416,181.45329 c 0.64294,-0.47237 1.25642,0.0785 1.32291,0.76359 0.0564,0.58472 -0.41416,1.2827 -1.06821,1.1243 -0.15663,-0.0379 -0.46954,-0.2353 -0.44467,-0.41452 0.0242,-0.17268 0.0481,-0.34537 0.0723,-0.51787 0.0455,-0.32685 0.091,-0.65352 0.13652,-0.9802 0.007,-0.0522 -0.0723,-0.0746 -0.0797,-0.022 -0.0605,0.43391 -0.12082,0.86765 -0.18132,1.30157 -0.0279,0.1995 -0.064,0.26458 0.0653,0.43198 0.16898,0.21889 0.45014,0.3466 0.72655,0.29686 0.68262,-0.12259 0.95585,-0.83838 0.81879,-1.45697 -0.14852,-0.66975 -0.83485,-1.02059 -1.41023,-0.59814 -0.0425,0.0312 -0.001,0.10301 0.0418,0.0714"
       style="fill:#cb5043;fill-opacity:1;fill-rule:nonzero;stroke:none;stroke-width:0.01763889"
       id="path538"
       inkscape:connector-curvature="0" />
    <path
       d="m 123.4306,182.18301 c 0.41875,-0.81651 1.57216,-0.47431 1.70568,0.36124 0.10672,0.63394 -0.64099,1.23896 -1.20156,0.97967 -0.40058,-0.20162 -0.58085,-0.57803 -0.5558,-1.01565 l 0.0517,-0.32526"
       style="fill:#e97a6c;fill-opacity:1;fill-rule:nonzero;stroke:none;stroke-width:0.01763889"
       id="path540"
       inkscape:connector-curvature="0" />
    <path
       d="m 123.46623,182.20382 c 0.5006,-0.91916 1.91894,-0.21696 1.58627,0.73872 -0.0827,0.23707 -0.28751,0.42033 -0.50712,0.52775 -0.2891,0.14164 -0.58649,0.0633 -0.82056,-0.13881 -0.3459,-0.29845 -0.31873,-0.73308 -0.25435,-1.13754 0.008,-0.0522 -0.0713,-0.0744 -0.0797,-0.0219 -0.079,0.49707 -0.0644,0.96062 0.37147,1.29558 0.4759,0.36601 1.11126,0.0386 1.34585,-0.44556 0.22966,-0.47395 -0.0603,-1.01564 -0.49618,-1.24072 -0.45544,-0.23495 -0.97596,-0.0617 -1.21691,0.38065 -0.0256,0.0469 0.0459,0.0887 0.0713,0.0418"
       style="fill:#cb5043;fill-opacity:1;fill-rule:nonzero;stroke:none;stroke-width:0.01763889"
       id="path542"
       inkscape:connector-curvature="0" />
    <path
       d="m 125.14299,180.98057 c -1.06522,0.15628 -1.06451,1.509 -0.0266,1.81433 0.79357,0.24412 1.51853,-0.64876 1.09114,-1.35078 -0.27464,-0.38912 -0.56727,-0.5364 -1.06451,-0.46355"
       style="fill:#e97a6c;fill-opacity:1;fill-rule:nonzero;stroke:none;stroke-width:0.01763889"
       id="path544"
       inkscape:connector-curvature="0" />
    <path
       d="m 125.13205,180.9407 c -0.48524,0.081 -0.84825,0.43992 -0.83097,0.94792 0.0176,0.52122 0.4759,0.90593 0.9652,0.98072 0.56251,0.0857 1.06222,-0.39141 1.10825,-0.93257 0.0261,-0.30815 -0.14358,-0.57538 -0.35965,-0.77735 -0.2406,-0.22489 -0.55827,-0.26088 -0.87189,-0.22013 -0.052,0.007 -0.0527,0.0894 0,0.0827 0.26687,-0.0346 0.51523,-0.0162 0.74259,0.13864 0.24078,0.16369 0.39847,0.43744 0.40746,0.7269 0.018,0.57608 -0.57555,0.99695 -1.11178,0.88229 -0.43868,-0.0937 -0.78352,-0.46743 -0.79886,-0.91916 -0.0155,-0.45649 0.35172,-0.76006 0.77152,-0.83026 0.0526,-0.009 0.0303,-0.0884 -0.0219,-0.0797"
       style="fill:#cb5043;fill-opacity:1;fill-rule:nonzero;stroke:none;stroke-width:0.01763889"
       id="path546"
       inkscape:connector-curvature="0" />
    <path
       d="m 125.41692,180.0711 c -0.69638,0.38118 -0.59619,1.79494 0.43744,1.7743 0.88177,-0.0176 1.39894,-1.22661 0.68916,-1.73655 -0.30092,-0.21608 -0.62971,-0.31009 -1.1266,-0.0377"
       style="fill:#e97a6c;fill-opacity:1;fill-rule:nonzero;stroke:none;stroke-width:0.01763889"
       id="path548"
       inkscape:connector-curvature="0" />
    <path
       d="m 125.39593,180.0353 c -0.42051,0.2443 -0.54663,0.78599 -0.41346,1.23119 0.1554,0.51982 0.70838,0.72919 1.20015,0.55792 0.50254,-0.1748 0.82092,-0.75794 0.70979,-1.27265 -0.0587,-0.27234 -0.26846,-0.46055 -0.50394,-0.58719 -0.32808,-0.17604 -0.67892,-0.0926 -0.99254,0.0707 -0.0473,0.0247 -0.006,0.0959 0.0418,0.0714 0.31679,-0.1651 0.63006,-0.22049 0.95373,-0.0466 0.24501,0.13141 0.40799,0.34713 0.43974,0.62459 0.0556,0.48225 -0.30639,0.95427 -0.75706,1.08779 -0.47219,0.13988 -0.91246,-0.14023 -1.03223,-0.6006 -0.10107,-0.38876 0.039,-0.85796 0.39582,-1.06522 0.046,-0.0268 0.004,-0.0982 -0.0418,-0.0714"
       style="fill:#cb5043;fill-opacity:1;fill-rule:nonzero;stroke:none;stroke-width:0.01763889"
       id="path550"
       inkscape:connector-curvature="0" />
    <path
       d="m 125.56844,178.78258 c -0.44097,0.43057 -0.34802,1.48132 0.39617,1.67429 0.96467,0.27569 1.75718,-1.07139 0.88212,-1.67094 -0.40481,-0.27746 -0.89588,-0.37694 -1.27829,-0.003"
       style="fill:#e97a6c;fill-opacity:1;fill-rule:nonzero;stroke:none;stroke-width:0.01763889"
       id="path552"
       inkscape:connector-curvature="0" />
    <path
       d="m 125.53916,178.7533 c -0.34573,0.35701 -0.35525,0.95092 -0.10495,1.36278 0.28539,0.46955 0.92851,0.52458 1.35731,0.23337 0.40481,-0.27482 0.59972,-0.83168 0.37412,-1.27777 -0.1337,-0.2644 -0.42792,-0.42739 -0.69603,-0.52105 -0.33514,-0.1173 -0.67275,-0.0325 -0.93045,0.20267 -0.0393,0.036 0.0192,0.0942 0.0586,0.0584 0.45914,-0.41893 1.24319,-0.19897 1.51571,0.33972 0.20867,0.41222 -0.0496,0.91352 -0.39899,1.15076 -0.40852,0.27729 -0.97685,0.15381 -1.23138,-0.26493 -0.22207,-0.36513 -0.18538,-0.91581 0.11466,-1.22555 0.037,-0.0383 -0.0213,-0.0968 -0.0586,-0.0584"
       style="fill:#cb5043;fill-opacity:1;fill-rule:nonzero;stroke:none;stroke-width:0.01763889"
       id="path554"
       inkscape:connector-curvature="0" />
    <path
       d="m 126.04733,177.3526 c -0.58049,0.28787 -0.5237,1.44021 0.24818,1.65382 0.85161,0.23566 1.56404,-0.89852 1.07315,-1.44551 -0.28769,-0.32032 -0.74083,-0.496 -1.32133,-0.20831"
       style="fill:#e97a6c;fill-opacity:1;fill-rule:nonzero;stroke:none;stroke-width:0.01763889"
       id="path556"
       inkscape:connector-curvature="0" />
    <path
       d="m 126.02652,177.31697 c -0.42457,0.22736 -0.48913,0.79128 -0.32438,1.20262 0.19456,0.48595 0.74224,0.67345 1.2102,0.47307 0.44592,-0.19103 0.76783,-0.75759 0.61966,-1.23296 -0.0721,-0.23142 -0.3078,-0.4258 -0.52564,-0.51346 -0.33161,-0.13353 -0.66305,-0.0776 -0.97984,0.0707 -0.0483,0.0226 -0.006,0.0938 0.0416,0.0714 0.30974,-0.145 0.63641,-0.1928 0.95391,-0.0444 0.21237,0.0993 0.39529,0.28504 0.45173,0.51505 0.10566,0.43004 -0.23653,0.88406 -0.60325,1.06222 -0.45561,0.22136 -0.95814,-0.0496 -1.11813,-0.50148 -0.127,-0.35913 -0.0408,-0.84032 0.31574,-1.03134 0.0471,-0.0252 0.005,-0.0967 -0.0416,-0.0714"
       style="fill:#cb5043;fill-opacity:1;fill-rule:nonzero;stroke:none;stroke-width:0.01763889"
       id="path558"
       inkscape:connector-curvature="0" />
    <path
       d="m 126.03887,175.94396 c -0.508,0.3787 -0.57027,1.43633 0.33919,1.60161 0.96467,0.16545 1.76407,-1.04722 0.82691,-1.65365 -0.35824,-0.22048 -0.71049,-0.28769 -1.1661,0.052"
       style="fill:#e97a6c;fill-opacity:1;fill-rule:nonzero;stroke:none;stroke-width:0.01763889"
       id="path560"
       inkscape:connector-curvature="0" />
    <path
       d="m 126.00959,175.91468 c -0.35701,0.28028 -0.47572,0.80168 -0.29016,1.21232 0.2263,0.50077 0.89252,0.56568 1.3372,0.35613 0.42439,-0.20003 0.75618,-0.74613 0.54381,-1.20756 -0.12506,-0.27199 -0.36848,-0.44362 -0.64082,-0.55157 -0.33408,-0.13247 -0.66358,-0.0134 -0.94157,0.18415 -0.043,0.0307 -0.002,0.10248 0.0418,0.0714 0.27147,-0.19315 0.55316,-0.28575 0.87771,-0.17586 0.26141,0.0885 0.50183,0.28469 0.60325,0.54416 0.17851,0.45773 -0.19826,0.92816 -0.60113,1.09749 -0.42968,0.1808 -0.99607,0.0326 -1.1751,-0.42228 -0.1427,-0.3623 0.004,-0.81456 0.30356,-1.05004 0.042,-0.0328 -0.0171,-0.0908 -0.0586,-0.0584"
       style="fill:#cb5043;fill-opacity:1;fill-rule:nonzero;stroke:none;stroke-width:0.01763889"
       id="path562"
       inkscape:connector-curvature="0" />
    <path
       d="m 126.14029,174.6034 c -0.44609,0.37024 -0.64417,1.59156 0.45826,1.64677 0.88212,0.0275 1.43334,-0.99219 0.82691,-1.62613 -0.33073,-0.33073 -0.94756,-0.30092 -1.28517,-0.0206"
       style="fill:#e97a6c;fill-opacity:1;fill-rule:nonzero;stroke:none;stroke-width:0.01763889"
       id="path564"
       inkscape:connector-curvature="0" />
    <path
       d="m 126.11119,174.57412 c -0.31221,0.27146 -0.43727,0.76341 -0.32932,1.15658 0.14834,0.54046 0.81421,0.65917 1.27511,0.47749 0.49354,-0.19474 0.81862,-0.80857 0.59567,-1.31392 -0.26652,-0.60361 -1.04281,-0.70785 -1.54146,-0.32015 -0.0422,0.0326 0.0169,0.0907 0.0584,0.0584 0.48471,-0.37659 1.24442,-0.2293 1.43809,0.38189 0.16228,0.51205 -0.23495,1.02376 -0.71243,1.16152 -0.45738,0.13211 -0.96643,-0.0854 -1.05745,-0.5708 -0.063,-0.33584 0.0739,-0.74824 0.33179,-0.97261 0.0404,-0.0351 -0.0183,-0.0933 -0.0584,-0.0584"
       style="fill:#cb5043;fill-opacity:1;fill-rule:nonzero;stroke:none;stroke-width:0.01763889"
       id="path566"
       inkscape:connector-curvature="0" />
    <path
       d="m 125.84748,173.42847 c -0.43744,0.52194 -0.10336,1.47109 0.69604,1.47109 0.7717,0 1.44533,-1.08867 0.55121,-1.65365 -0.42774,-0.2704 -0.80962,-0.33937 -1.24725,0.18256"
       style="fill:#e97a6c;fill-opacity:1;fill-rule:nonzero;stroke:none;stroke-width:0.01763889"
       id="path568"
       inkscape:connector-curvature="0" />
    <path
       d="m 125.8182,173.39919 c -0.29386,0.37095 -0.25717,0.88742 0.0437,1.24302 0.34149,0.40393 0.93469,0.36054 1.31886,0.0536 0.38947,-0.3115 0.50659,-0.86378 0.19227,-1.26506 -0.17445,-0.22296 -0.48842,-0.38612 -0.76518,-0.42757 -0.32438,-0.0487 -0.59002,0.16757 -0.78969,0.39599 -0.0349,0.04 0.0235,0.0988 0.0586,0.0586 0.20073,-0.22983 0.43744,-0.41557 0.75812,-0.36759 0.23636,0.0354 0.48189,0.19403 0.64629,0.36107 0.34184,0.34696 0.19244,0.85795 -0.12524,1.15693 -0.33866,0.31874 -0.86977,0.33373 -1.20614,0.007 -0.30886,-0.29986 -0.33726,-0.82426 -0.073,-1.15764 0.0328,-0.0413 -0.0254,-0.10036 -0.0586,-0.0586"
       style="fill:#cb5043;fill-opacity:1;fill-rule:nonzero;stroke:none;stroke-width:0.01763889"
       id="path570"
       inkscape:connector-curvature="0" />
    <path
       d="m 125.90957,172.25355 c -0.66145,0.22048 -0.66145,1.32309 0.0825,1.40582 0.68916,0.11024 1.37831,-0.63394 0.7994,-1.18534 -0.30321,-0.30303 -0.63394,-0.41327 -1.01988,-0.16527 l 0.13793,-0.0552"
       style="fill:#e97a6c;fill-opacity:1;fill-rule:nonzero;stroke:none;stroke-width:0.01763889"
       id="path572"
       inkscape:connector-curvature="0" />
    <path
       d="m 125.89864,172.21368 c -0.36848,0.13547 -0.5558,0.50853 -0.50747,0.88971 0.0538,0.42598 0.42121,0.62936 0.82303,0.60431 0.41081,-0.0254 0.91934,-0.41099 0.82761,-0.87048 -0.0536,-0.26917 -0.26299,-0.46408 -0.48895,-0.60325 -0.26088,-0.16069 -0.55156,-0.11042 -0.80204,0.0392 -0.0457,0.0272 -0.004,0.0986 0.0418,0.0713 0.23883,-0.14235 0.46849,-0.17057 0.71843,-0.039 0.21873,0.11518 0.4274,0.33778 0.45474,0.59019 0.0487,0.45103 -0.48296,0.73272 -0.86202,0.7329 -0.76464,3.5e-4 -0.84737,-1.09079 -0.18327,-1.33491 0.0496,-0.0183 0.0282,-0.0983 -0.0219,-0.0799 v 0"
       style="fill:#cb5043;fill-opacity:1;fill-rule:nonzero;stroke:none;stroke-width:0.01763889"
       id="path574"
       inkscape:connector-curvature="0" />
    <path
       d="m 124.20513,172.80864 c -0.41028,0.99642 0.96714,1.69986 1.524,0.79128 0.58614,-0.93786 -0.87912,-1.96373 -1.524,-0.79128"
       style="fill:#e97a6c;fill-opacity:1;fill-rule:nonzero;stroke:none;stroke-width:0.01763889"
       id="path576"
       inkscape:connector-curvature="0" />
    <path
       d="m 124.16526,172.79753 c -0.1852,0.48154 0.0141,0.98178 0.49001,1.18992 0.46426,0.20302 0.98954,-0.037 1.17881,-0.49918 0.18203,-0.44397 -0.024,-0.91211 -0.43409,-1.13912 -0.48172,-0.2667 -0.97808,-1.8e-4 -1.23049,0.4385 -0.0266,0.0464 0.0448,0.088 0.0713,0.0418 0.23795,-0.41328 0.66639,-0.635 1.1176,-0.40887 0.37112,0.18591 0.54998,0.61507 0.41275,1.00471 -0.16316,0.46355 -0.67063,0.66728 -1.11037,0.47501 -0.43057,-0.18838 -0.57785,-0.65951 -0.41575,-1.08073 0.0192,-0.0497 -0.0609,-0.0711 -0.0797,-0.0221"
       style="fill:#cb5043;fill-opacity:1;fill-rule:nonzero;stroke:none;stroke-width:0.01763889"
       id="path578"
       inkscape:connector-curvature="0" />
    <path
       d="m 122.82259,173.0824 c -0.38594,0.57891 -0.0827,1.40564 0.68898,1.40564 0.71666,0.0277 1.26788,-0.7717 0.79939,-1.35061 -0.41345,-0.55121 -1.07491,-0.46849 -1.48837,-0.055"
       style="fill:#e97a6c;fill-opacity:1;fill-rule:nonzero;stroke:none;stroke-width:0.01763889"
       id="path580"
       inkscape:connector-curvature="0" />
    <path
       d="m 122.78696,173.06159 c -0.25047,0.39581 -0.23142,0.92004 0.11995,1.24989 0.37253,0.34978 0.98936,0.25541 1.33879,-0.0697 0.41504,-0.38629 0.32226,-0.95638 -0.0713,-1.31109 -0.41417,-0.37342 -1.01089,-0.23196 -1.38113,0.12241 -0.0386,0.037 0.0199,0.0954 0.0584,0.0586 0.35224,-0.33726 0.86342,-0.44344 1.26435,-0.12259 0.41557,0.33285 0.41434,0.87507 0.0346,1.2282 -0.3279,0.30532 -0.89129,0.31185 -1.21726,0.006 -0.31062,-0.29175 -0.28804,-0.78299 -0.0751,-1.1199 0.0286,-0.0451 -0.043,-0.0866 -0.0713,-0.0416"
       style="fill:#cb5043;fill-opacity:1;fill-rule:nonzero;stroke:none;stroke-width:0.01763889"
       id="path582"
       inkscape:connector-curvature="0" />
    <path
       d="m 121.37638,173.44647 c -0.30163,0.35277 -0.40058,1.26029 0.45385,1.42557 0.66146,0.11024 1.26788,-0.66146 0.99236,-1.26788 -0.30321,-0.60643 -1.09731,-0.56568 -1.44621,-0.15769"
       style="fill:#e97a6c;fill-opacity:1;fill-rule:nonzero;stroke:none;stroke-width:0.01763889"
       id="path584"
       inkscape:connector-curvature="0" />
    <path
       d="m 121.3471,173.41736 c -0.24977,0.30657 -0.30904,0.77541 -0.11025,1.12201 0.26141,0.45579 0.93116,0.48489 1.30511,0.16493 0.42792,-0.36584 0.54698,-1.01054 0.0914,-1.40582 -0.36936,-0.32068 -0.97155,-0.22843 -1.28623,0.11888 -0.0356,0.0393 0.0228,0.0981 0.0586,0.0584 0.28981,-0.3198 0.78175,-0.3833 1.14,-0.14129 0.49777,0.33637 0.31274,1.02253 -0.0952,1.33685 -0.37606,0.28981 -0.9615,0.18997 -1.17898,-0.242 -0.14711,-0.29228 -0.0672,-0.70627 0.13423,-0.95356 0.0333,-0.0409 -0.0249,-0.0998 -0.0586,-0.0584"
       style="fill:#cb5043;fill-opacity:1;fill-rule:nonzero;stroke:none;stroke-width:0.01763889"
       id="path586"
       inkscape:connector-curvature="0" />
    <path
       d="m 119.54264,173.1743 c -0.82003,0.75371 0.55121,1.99372 1.48837,1.22943 0.93715,-0.73484 -0.66834,-1.98314 -1.48837,-1.22943"
       style="fill:#e97a6c;fill-opacity:1;fill-rule:nonzero;stroke:none;stroke-width:0.01763889"
       id="path588"
       inkscape:connector-curvature="0" />
    <path
       d="m 119.51336,173.14502 c -0.40376,0.38982 -0.2891,0.9308 0.11747,1.26929 0.45791,0.38135 1.11267,0.34396 1.53106,-0.073 0.37483,-0.37359 0.13988,-0.886 -0.21872,-1.16435 -0.41505,-0.32208 -1.0183,-0.39211 -1.42981,-0.0319 -0.0402,0.0353 0.0185,0.0935 0.0586,0.0586 0.3653,-0.31979 0.86889,-0.25541 1.25483,-0.009 0.37377,0.23936 0.61489,0.71437 0.27658,1.08796 -0.35631,0.3937 -0.93433,0.39741 -1.35502,0.11677 -0.4221,-0.28151 -0.56251,-0.82338 -0.17639,-1.19609 0.0384,-0.0372 -0.0201,-0.0956 -0.0586,-0.0586"
       style="fill:#cb5043;fill-opacity:1;fill-rule:nonzero;stroke:none;stroke-width:0.01763889"
       id="path590"
       inkscape:connector-curvature="0" />
    <path
       d="m 118.04386,172.64301 c -0.78898,0.64418 0.0438,2.0193 1.05093,1.3746 1.16205,-0.74383 -0.26194,-2.01894 -1.05093,-1.3746"
       style="fill:#e97a6c;fill-opacity:1;fill-rule:nonzero;stroke:none;stroke-width:0.01763889"
       id="path592"
       inkscape:connector-curvature="0" />
    <path
       d="m 118.01458,172.61373 c -0.39564,0.34008 -0.41522,0.8913 -0.0997,1.29346 0.36513,0.46567 0.98249,0.35543 1.3836,0.007 0.86166,-0.74753 -0.48031,-1.92228 -1.28394,-1.30087 -0.042,0.0326 0.0169,0.0907 0.0586,0.0584 0.72496,-0.56056 1.91365,0.4736 1.16682,1.1841 -0.36989,0.35189 -0.92358,0.39282 -1.26665,-0.007 -0.30498,-0.35578 -0.24712,-0.87824 0.0998,-1.17669 0.0406,-0.0348 -0.0182,-0.093 -0.0586,-0.0584"
       style="fill:#cb5043;fill-opacity:1;fill-rule:nonzero;stroke:none;stroke-width:0.01763889"
       id="path594"
       inkscape:connector-curvature="0" />
    <path
       d="m 123.10534,171.76636 c 0,-0.0986 -0.0799,-0.1785 -0.1785,-0.1785 -0.0984,0 -0.17833,0.0799 -0.17833,0.1785 0,0.0984 0.0799,0.17833 0.17833,0.17833 0.0986,0 0.1785,-0.0799 0.1785,-0.17833"
       style="fill:#fbc964;fill-opacity:1;fill-rule:nonzero;stroke:none;stroke-width:0.01763889"
       id="path610"
       inkscape:connector-curvature="0" />
    <path
       d="m 122.92684,171.55487 c -0.1166,0 -0.21149,0.0949 -0.21149,0.21149 0,0.1166 0.0949,0.21132 0.21149,0.21132 0.11659,0 0.21149,-0.0947 0.21149,-0.21132 0,-0.11659 -0.0949,-0.21149 -0.21149,-0.21149 z m -0.17833,0.21149 c 0,-0.0986 0.0799,-0.1785 0.17833,-0.1785 0.0986,0 0.1785,0.0799 0.1785,0.1785 0,0.0984 -0.0799,0.17833 -0.1785,0.17833 -0.0984,0 -0.17833,-0.0799 -0.17833,-0.17833"
       style="fill:#e99249;fill-opacity:1;fill-rule:nonzero;stroke:none;stroke-width:0.01763889"
       id="path612"
       inkscape:connector-curvature="0" />
    <path
       d="m 122.53173,171.45186 c -0.0986,0 -0.17833,0.0797 -0.17833,0.17833 0,0.0984 0.0797,0.17833 0.17833,0.17833 0.0984,0 0.17833,-0.0799 0.17833,-0.17833 0,-0.0986 -0.0799,-0.17833 -0.17833,-0.17833"
       style="fill:#fbc964;fill-opacity:1;fill-rule:nonzero;stroke:none;stroke-width:0.01763889"
       id="path630"
       inkscape:connector-curvature="0" />
    <path
       d="m 122.53173,171.4187 c -0.1166,0 -0.21149,0.0949 -0.21149,0.21149 0,0.11659 0.0949,0.21149 0.21149,0.21149 0.11659,0 0.21149,-0.0949 0.21149,-0.21149 0,-0.11659 -0.0949,-0.21149 -0.21149,-0.21149 z m 0,0.38982 c -0.0986,0 -0.17833,-0.0799 -0.17833,-0.17833 0,-0.0986 0.0797,-0.17833 0.17833,-0.17833 0.0984,0 0.17833,0.0797 0.17833,0.17833 0,0.0984 -0.0799,0.17833 -0.17833,0.17833"
       style="fill:#e99249;fill-opacity:1;fill-rule:nonzero;stroke:none;stroke-width:0.01763889"
       id="path632"
       inkscape:connector-curvature="0" />
    <path
       d="m 122.27261,171.60109 c -0.0984,0 -0.17833,0.0799 -0.17833,0.17832 0,0.0986 0.0799,0.17851 0.17833,0.17851 0.0984,0 0.17851,-0.0799 0.17851,-0.17851 0,-0.0984 -0.0801,-0.17832 -0.17851,-0.17832"
       style="fill:#fbc964;fill-opacity:1;fill-rule:nonzero;stroke:none;stroke-width:0.01763889"
       id="path634"
       inkscape:connector-curvature="0" />
    <path
       d="m 122.27261,171.56792 c -0.11659,0 -0.21149,0.0949 -0.21149,0.21149 0,0.1166 0.0949,0.2115 0.21149,0.2115 0.11659,0 0.21149,-0.0949 0.21149,-0.2115 0,-0.11659 -0.0949,-0.21149 -0.21149,-0.21149 z m 0,0.39 c -0.0984,0 -0.17833,-0.0799 -0.17833,-0.17851 0,-0.0984 0.0799,-0.17832 0.17833,-0.17832 0.0984,0 0.17851,0.0799 0.17851,0.17832 0,0.0986 -0.0801,0.17851 -0.17851,0.17851"
       style="fill:#e99249;fill-opacity:1;fill-rule:nonzero;stroke:none;stroke-width:0.01763889"
       id="path636"
       inkscape:connector-curvature="0" />
    <path
       d="m 122.192,171.85844 c 0,-0.0984 -0.0799,-0.17833 -0.1785,-0.17833 -0.0984,0 -0.17833,0.0799 -0.17833,0.17833 0,0.0986 0.0799,0.1785 0.17833,0.1785 0.0986,0 0.1785,-0.0799 0.1785,-0.1785"
       style="fill:#fbc964;fill-opacity:1;fill-rule:nonzero;stroke:none;stroke-width:0.01763889"
       id="path638"
       inkscape:connector-curvature="0" />
    <path
       d="m 122.0135,171.64695 c -0.1166,0 -0.21132,0.0949 -0.21132,0.21149 0,0.11677 0.0947,0.21149 0.21132,0.21149 0.11659,0 0.21149,-0.0947 0.21149,-0.21149 0,-0.1166 -0.0949,-0.21149 -0.21149,-0.21149 z m -0.17833,0.21149 c 0,-0.0984 0.0799,-0.17833 0.17833,-0.17833 0.0986,0 0.1785,0.0799 0.1785,0.17833 0,0.0986 -0.0799,0.1785 -0.1785,0.1785 -0.0984,0 -0.17833,-0.0799 -0.17833,-0.1785"
       style="fill:#e99249;fill-opacity:1;fill-rule:nonzero;stroke:none;stroke-width:0.01763889"
       id="path640"
       inkscape:connector-curvature="0" />
    <path
       d="m 121.90219,171.9551 c 0,-0.0986 -0.0799,-0.17833 -0.1785,-0.17833 -0.0984,0 -0.17833,0.0797 -0.17833,0.17833 0,0.0984 0.0799,0.17833 0.17833,0.17833 0.0986,0 0.1785,-0.0799 0.1785,-0.17833"
       style="fill:#fbc964;fill-opacity:1;fill-rule:nonzero;stroke:none;stroke-width:0.01763889"
       id="path642"
       inkscape:connector-curvature="0" />
    <path
       d="m 121.72369,171.74361 c -0.11659,0 -0.21149,0.0949 -0.21149,0.21149 0,0.11659 0.0949,0.21149 0.21149,0.21149 0.11677,0 0.21149,-0.0949 0.21149,-0.21149 0,-0.11659 -0.0947,-0.21149 -0.21149,-0.21149 z m -0.17833,0.21149 c 0,-0.0986 0.0799,-0.17833 0.17833,-0.17833 0.0986,0 0.1785,0.0797 0.1785,0.17833 0,0.0984 -0.0799,0.17833 -0.1785,0.17833 -0.0984,0 -0.17833,-0.0799 -0.17833,-0.17833"
       style="fill:#e99249;fill-opacity:1;fill-rule:nonzero;stroke:none;stroke-width:0.01763889"
       id="path644"
       inkscape:connector-curvature="0" />
    <path
       d="m 121.26984,172.05176 c 0,-0.0986 -0.0799,-0.17851 -0.17833,-0.17851 -0.0986,0 -0.17851,0.0799 -0.17851,0.17851 0,0.0984 0.0799,0.17833 0.17851,0.17833 0.0984,0 0.17833,-0.0799 0.17833,-0.17833"
       style="fill:#fbc964;fill-opacity:1;fill-rule:nonzero;stroke:none;stroke-width:0.01763889"
       id="path646"
       inkscape:connector-curvature="0" />
    <path
       d="m 121.09151,171.84027 c -0.11677,0 -0.21149,0.0949 -0.21149,0.21149 0,0.11642 0.0947,0.21131 0.21149,0.21131 0.11659,0 0.21149,-0.0949 0.21149,-0.21131 0,-0.11659 -0.0949,-0.21149 -0.21149,-0.21149 z m -0.17851,0.21149 c 0,-0.0986 0.0799,-0.17851 0.17851,-0.17851 0.0984,0 0.17833,0.0799 0.17833,0.17851 0,0.0984 -0.0799,0.17833 -0.17833,0.17833 -0.0986,0 -0.17851,-0.0799 -0.17851,-0.17833"
       style="fill:#e99249;fill-opacity:1;fill-rule:nonzero;stroke:none;stroke-width:0.01763889"
       id="path648"
       inkscape:connector-curvature="0" />
    <path
       d="m 120.48544,171.82069 c -0.0984,0 -0.17833,0.0799 -0.17833,0.17833 0,0.0984 0.0799,0.17833 0.17833,0.17833 0.0986,0 0.1785,-0.0799 0.1785,-0.17833 0,-0.0984 -0.0799,-0.17833 -0.1785,-0.17833"
       style="fill:#fbc964;fill-opacity:1;fill-rule:nonzero;stroke:none;stroke-width:0.01763889"
       id="path650"
       inkscape:connector-curvature="0" />
    <path
       d="m 120.48544,171.78753 c -0.11659,0 -0.21149,0.0949 -0.21149,0.21149 0,0.11659 0.0949,0.21149 0.21149,0.21149 0.11659,0 0.21149,-0.0949 0.21149,-0.21149 0,-0.11659 -0.0949,-0.21149 -0.21149,-0.21149 z m 0,0.38982 c -0.0984,0 -0.17833,-0.0799 -0.17833,-0.17833 0,-0.0984 0.0799,-0.17833 0.17833,-0.17833 0.0986,0 0.1785,0.0799 0.1785,0.17833 0,0.0984 -0.0799,0.17833 -0.1785,0.17833"
       style="fill:#e99249;fill-opacity:1;fill-rule:nonzero;stroke:none;stroke-width:0.01763889"
       id="path652"
       inkscape:connector-curvature="0" />
    <path
       d="m 120.62761,172.15089 c -0.0984,0 -0.17833,0.0799 -0.17833,0.17833 0,0.0986 0.0799,0.1785 0.17833,0.1785 0.0986,0 0.17833,-0.0799 0.17833,-0.1785 0,-0.0984 -0.0797,-0.17833 -0.17833,-0.17833"
       style="fill:#fbc964;fill-opacity:1;fill-rule:nonzero;stroke:none;stroke-width:0.01763889"
       id="path658"
       inkscape:connector-curvature="0" />
    <path
       d="m 120.62761,172.11791 c -0.1166,0 -0.21149,0.0947 -0.21149,0.21131 0,0.11659 0.0949,0.21149 0.21149,0.21149 0.11659,0 0.21149,-0.0949 0.21149,-0.21149 0,-0.11659 -0.0949,-0.21131 -0.21149,-0.21131 z m 0,0.38981 c -0.0984,0 -0.17833,-0.0799 -0.17833,-0.1785 0,-0.0984 0.0799,-0.17833 0.17833,-0.17833 0.0986,0 0.17833,0.0799 0.17833,0.17833 0,0.0986 -0.0797,0.1785 -0.17833,0.1785"
       style="fill:#e99249;fill-opacity:1;fill-rule:nonzero;stroke:none;stroke-width:0.01763889"
       id="path660"
       inkscape:connector-curvature="0" />
    <path
       d="m 121.37867,172.15089 c -0.0984,0 -0.17833,0.0799 -0.17833,0.17833 0,0.0986 0.0799,0.1785 0.17833,0.1785 0.0986,0 0.17851,-0.0799 0.17851,-0.1785 0,-0.0984 -0.0799,-0.17833 -0.17851,-0.17833"
       style="fill:#fbc964;fill-opacity:1;fill-rule:nonzero;stroke:none;stroke-width:0.01763889"
       id="path662"
       inkscape:connector-curvature="0" />
    <path
       d="m 121.37867,172.11791 c -0.11659,0 -0.21131,0.0947 -0.21131,0.21131 0,0.11659 0.0947,0.21149 0.21131,0.21149 0.11677,0 0.21167,-0.0949 0.21167,-0.21149 0,-0.11659 -0.0949,-0.21131 -0.21167,-0.21131 z m 0,0.38981 c -0.0984,0 -0.17833,-0.0799 -0.17833,-0.1785 0,-0.0984 0.0799,-0.17833 0.17833,-0.17833 0.0986,0 0.17851,0.0799 0.17851,0.17833 0,0.0986 -0.0799,0.1785 -0.17851,0.1785"
       style="fill:#e99249;fill-opacity:1;fill-rule:nonzero;stroke:none;stroke-width:0.01763889"
       id="path664"
       inkscape:connector-curvature="0" />
    <path
       d="m 120.4267,171.84538 c 0,-0.0986 -0.0797,-0.1785 -0.17833,-0.1785 -0.0984,0 -0.17833,0.0799 -0.17833,0.1785 0,0.0984 0.0799,0.17833 0.17833,0.17833 0.0986,0 0.17833,-0.0799 0.17833,-0.17833"
       style="fill:#fbc964;fill-opacity:1;fill-rule:nonzero;stroke:none;stroke-width:0.01763889"
       id="path670"
       inkscape:connector-curvature="0" />
    <path
       d="m 120.24837,171.63389 c -0.11659,0 -0.21149,0.0949 -0.21149,0.21149 0,0.1166 0.0949,0.21132 0.21149,0.21132 0.11659,0 0.21149,-0.0947 0.21149,-0.21132 0,-0.11659 -0.0949,-0.21149 -0.21149,-0.21149 z m -0.17833,0.21149 c 0,-0.0986 0.0799,-0.1785 0.17833,-0.1785 0.0986,0 0.17833,0.0799 0.17833,0.1785 0,0.0984 -0.0797,0.17833 -0.17833,0.17833 -0.0984,0 -0.17833,-0.0799 -0.17833,-0.17833"
       style="fill:#e99249;fill-opacity:1;fill-rule:nonzero;stroke:none;stroke-width:0.01763889"
       id="path672"
       inkscape:connector-curvature="0" />
    <path
       d="m 120.88514,171.53953 c -0.0986,0 -0.17851,0.0799 -0.17851,0.1785 0,0.0984 0.0799,0.17833 0.17851,0.17833 0.0984,0 0.17832,-0.0799 0.17832,-0.17833 0,-0.0986 -0.0799,-0.1785 -0.17832,-0.1785"
       style="fill:#fbc964;fill-opacity:1;fill-rule:nonzero;stroke:none;stroke-width:0.01763889"
       id="path674"
       inkscape:connector-curvature="0" />
    <path
       d="m 120.88514,171.50654 c -0.1166,0 -0.21149,0.0949 -0.21149,0.21149 0,0.11659 0.0949,0.21149 0.21149,0.21149 0.11659,0 0.21149,-0.0949 0.21149,-0.21149 0,-0.11659 -0.0949,-0.21149 -0.21149,-0.21149 z m 0,0.38982 c -0.0986,0 -0.17851,-0.0799 -0.17851,-0.17833 0,-0.0986 0.0799,-0.1785 0.17851,-0.1785 0.0984,0 0.17832,0.0799 0.17832,0.1785 0,0.0984 -0.0799,0.17833 -0.17832,0.17833"
       style="fill:#e99249;fill-opacity:1;fill-rule:nonzero;stroke:none;stroke-width:0.01763889"
       id="path676"
       inkscape:connector-curvature="0" />
    <path
       d="m 121.66936,171.68734 c 0,-0.0986 -0.0797,-0.17851 -0.17833,-0.17851 -0.0986,0 -0.17833,0.0799 -0.17833,0.17851 0,0.0984 0.0797,0.17833 0.17833,0.17833 0.0986,0 0.17833,-0.0799 0.17833,-0.17833"
       style="fill:#fbc964;fill-opacity:1;fill-rule:nonzero;stroke:none;stroke-width:0.01763889"
       id="path678"
       inkscape:connector-curvature="0" />
    <path
       d="m 121.49103,171.47585 c -0.11659,0 -0.21149,0.0947 -0.21149,0.21149 0,0.11642 0.0949,0.21131 0.21149,0.21131 0.11659,0 0.21149,-0.0949 0.21149,-0.21131 0,-0.11677 -0.0949,-0.21149 -0.21149,-0.21149 z m -0.17833,0.21149 c 0,-0.0986 0.0797,-0.17851 0.17833,-0.17851 0.0986,0 0.17833,0.0799 0.17833,0.17851 0,0.0984 -0.0797,0.17833 -0.17833,0.17833 -0.0986,0 -0.17833,-0.0799 -0.17833,-0.17833"
       style="fill:#e99249;fill-opacity:1;fill-rule:nonzero;stroke:none;stroke-width:0.01763889"
       id="path680"
       inkscape:connector-curvature="0" />
    <path
       d="m 121.78525,171.44745 c -0.0986,0 -0.17833,0.0799 -0.17833,0.17833 0,0.0984 0.0797,0.17833 0.17833,0.17833 0.0986,0 0.17833,-0.0799 0.17833,-0.17833 0,-0.0984 -0.0797,-0.17833 -0.17833,-0.17833"
       style="fill:#fbc964;fill-opacity:1;fill-rule:nonzero;stroke:none;stroke-width:0.01763889"
       id="path682"
       inkscape:connector-curvature="0" />
    <path
       d="m 121.78525,171.41429 c -0.1166,0 -0.21149,0.0949 -0.21149,0.21149 0,0.11659 0.0949,0.21149 0.21149,0.21149 0.11659,0 0.21149,-0.0949 0.21149,-0.21149 0,-0.11659 -0.0949,-0.21149 -0.21149,-0.21149 z m 0,0.38982 c -0.0986,0 -0.17833,-0.0799 -0.17833,-0.17833 0,-0.0984 0.0797,-0.17833 0.17833,-0.17833 0.0986,0 0.17833,0.0799 0.17833,0.17833 0,0.0984 -0.0797,0.17833 -0.17833,0.17833"
       style="fill:#e99249;fill-opacity:1;fill-rule:nonzero;stroke:none;stroke-width:0.01763889"
       id="path684"
       inkscape:connector-curvature="0" />
    <path
       d="m 120.27077,172.03253 c -0.0984,0 -0.17833,0.0799 -0.17833,0.17833 0,0.0984 0.0799,0.17833 0.17833,0.17833 0.0986,0 0.17851,-0.0799 0.17851,-0.17833 0,-0.0984 -0.0799,-0.17833 -0.17851,-0.17833"
       style="fill:#fbc964;fill-opacity:1;fill-rule:nonzero;stroke:none;stroke-width:0.01763889"
       id="path726"
       inkscape:connector-curvature="0" />
    <path
       d="m 120.27077,171.99937 c -0.11641,0 -0.21131,0.0949 -0.21131,0.21149 0,0.1166 0.0949,0.21149 0.21131,0.21149 0.1166,0 0.21149,-0.0949 0.21149,-0.21149 0,-0.11659 -0.0949,-0.21149 -0.21149,-0.21149 z m 0,0.38982 c -0.0984,0 -0.17833,-0.0799 -0.17833,-0.17833 0,-0.0984 0.0799,-0.17833 0.17833,-0.17833 0.0986,0 0.17851,0.0799 0.17851,0.17833 0,0.0984 -0.0799,0.17833 -0.17851,0.17833"
       style="fill:#e99249;fill-opacity:1;fill-rule:nonzero;stroke:none;stroke-width:0.01763889"
       id="path728"
       inkscape:connector-curvature="0" />
    <path
       d="m 121.02201,172.18493 c -0.0986,0 -0.17833,0.0799 -0.17833,0.17851 0,0.0984 0.0797,0.17833 0.17833,0.17833 0.0986,0 0.17833,-0.0799 0.17833,-0.17833 0,-0.0986 -0.0797,-0.17851 -0.17833,-0.17851"
       style="fill:#fbc964;fill-opacity:1;fill-rule:nonzero;stroke:none;stroke-width:0.01763889"
       id="path730"
       inkscape:connector-curvature="0" />
    <path
       d="m 121.02201,172.15195 c -0.11659,0 -0.21149,0.0949 -0.21149,0.21149 0,0.11659 0.0949,0.21149 0.21149,0.21149 0.1166,0 0.21149,-0.0949 0.21149,-0.21149 0,-0.11659 -0.0949,-0.21149 -0.21149,-0.21149 z m 0,0.38982 c -0.0986,0 -0.17833,-0.0799 -0.17833,-0.17833 0,-0.0986 0.0797,-0.17851 0.17833,-0.17851 0.0986,0 0.17833,0.0799 0.17833,0.17851 0,0.0984 -0.0797,0.17833 -0.17833,0.17833"
       style="fill:#e99249;fill-opacity:1;fill-rule:nonzero;stroke:none;stroke-width:0.01763889"
       id="path732"
       inkscape:connector-curvature="0" />
    <path
       d="m 122.21969,172.15089 c 0,-0.0986 -0.0799,-0.17833 -0.17833,-0.17833 -0.0986,0 -0.1785,0.0797 -0.1785,0.17833 0,0.0986 0.0799,0.17833 0.1785,0.17833 0.0984,0 0.17833,-0.0797 0.17833,-0.17833"
       style="fill:#fbc964;fill-opacity:1;fill-rule:nonzero;stroke:none;stroke-width:0.01763889"
       id="path734"
       inkscape:connector-curvature="0" />
    <path
       d="m 122.04136,171.9394 c -0.11659,0 -0.21149,0.0949 -0.21149,0.21149 0,0.11659 0.0949,0.21149 0.21149,0.21149 0.1166,0 0.21132,-0.0949 0.21132,-0.21149 0,-0.11659 -0.0947,-0.21149 -0.21132,-0.21149 z m -0.1785,0.21149 c 0,-0.0986 0.0799,-0.17833 0.1785,-0.17833 0.0984,0 0.17833,0.0797 0.17833,0.17833 0,0.0986 -0.0799,0.17833 -0.17833,0.17833 -0.0986,0 -0.1785,-0.0797 -0.1785,-0.17833"
       style="fill:#e99249;fill-opacity:1;fill-rule:nonzero;stroke:none;stroke-width:0.01763889"
       id="path736"
       inkscape:connector-curvature="0" />
    <path
       d="m 122.64585,171.7459 c -0.0986,0 -0.17833,0.0799 -0.17833,0.17851 0,0.0984 0.0797,0.17833 0.17833,0.17833 0.0986,0 0.17833,-0.0799 0.17833,-0.17833 0,-0.0986 -0.0797,-0.17851 -0.17833,-0.17851"
       style="fill:#fbc964;fill-opacity:1;fill-rule:nonzero;stroke:none;stroke-width:0.01763889"
       id="path738"
       inkscape:connector-curvature="0" />
    <path
       d="m 122.64585,171.71292 c -0.11659,0 -0.21149,0.0949 -0.21149,0.21149 0,0.11659 0.0949,0.21149 0.21149,0.21149 0.11659,0 0.21149,-0.0949 0.21149,-0.21149 0,-0.1166 -0.0949,-0.21149 -0.21149,-0.21149 z m 0,0.38982 c -0.0986,0 -0.17833,-0.0799 -0.17833,-0.17833 0,-0.0986 0.0797,-0.17851 0.17833,-0.17851 0.0986,0 0.17833,0.0799 0.17833,0.17851 0,0.0984 -0.0797,0.17833 -0.17833,0.17833"
       style="fill:#e99249;fill-opacity:1;fill-rule:nonzero;stroke:none;stroke-width:0.01763889"
       id="path740"
       inkscape:connector-curvature="0" />
    <path
       d="m 121.58152,172.01225 c 0,-0.0986 -0.0797,-0.17851 -0.17833,-0.17851 -0.0984,0 -0.17833,0.0799 -0.17833,0.17851 0,0.0984 0.0799,0.17833 0.17833,0.17833 0.0986,0 0.17833,-0.0799 0.17833,-0.17833"
       style="fill:#fbc964;fill-opacity:1;fill-rule:nonzero;stroke:none;stroke-width:0.01763889"
       id="path750"
       inkscape:connector-curvature="0" />
    <path
       d="m 121.40319,171.80076 c -0.11659,0 -0.21149,0.0947 -0.21149,0.21149 0,0.11659 0.0949,0.21149 0.21149,0.21149 0.11659,0 0.21149,-0.0949 0.21149,-0.21149 0,-0.11677 -0.0949,-0.21149 -0.21149,-0.21149 z m -0.17833,0.21149 c 0,-0.0986 0.0799,-0.17851 0.17833,-0.17851 0.0986,0 0.17833,0.0799 0.17833,0.17851 0,0.0984 -0.0797,0.17833 -0.17833,0.17833 -0.0984,0 -0.17833,-0.0799 -0.17833,-0.17833"
       style="fill:#e99249;fill-opacity:1;fill-rule:nonzero;stroke:none;stroke-width:0.01763889"
       id="path752"
       inkscape:connector-curvature="0" />
    <path
       d="m 120.11943,171.63901 c 0,-0.0986 -0.0799,-0.17851 -0.17833,-0.17851 -0.0986,0 -0.1785,0.0799 -0.1785,0.17851 0,0.0984 0.0799,0.17833 0.1785,0.17833 0.0984,0 0.17833,-0.0799 0.17833,-0.17833"
       style="fill:#fbc964;fill-opacity:1;fill-rule:nonzero;stroke:none;stroke-width:0.01763889"
       id="path754"
       inkscape:connector-curvature="0" />
    <path
       d="m 120.15242,171.63901 c 0,-0.11677 -0.0949,-0.21149 -0.21132,-0.21149 -0.11659,0 -0.21149,0.0947 -0.21149,0.21149 0,0.11659 0.0949,0.21149 0.21149,0.21149 0.11642,0 0.21132,-0.0949 0.21132,-0.21149 z m -0.38982,0 c 0,-0.0986 0.0799,-0.17851 0.1785,-0.17851 0.0984,0 0.17833,0.0799 0.17833,0.17851 0,0.0984 -0.0799,0.17833 -0.17833,0.17833 -0.0986,0 -0.1785,-0.0799 -0.1785,-0.17833"
       style="fill:#e99249;fill-opacity:1;fill-rule:nonzero;stroke:none;stroke-width:0.01763889"
       id="path756"
       inkscape:connector-curvature="0" />
    <path
       d="m 119.97462,171.80217 c -0.0984,0 -0.17833,0.0801 -0.17833,0.1785 0,0.0984 0.0799,0.17833 0.17833,0.17833 0.0986,0 0.17833,-0.0799 0.17833,-0.17833 0,-0.0984 -0.0797,-0.1785 -0.17833,-0.1785"
       style="fill:#fbc964;fill-opacity:1;fill-rule:nonzero;stroke:none;stroke-width:0.01763889"
       id="path794"
       inkscape:connector-curvature="0" />
    <path
       d="m 119.97462,171.76918 c -0.1166,0 -0.21149,0.0949 -0.21149,0.21149 0,0.1166 0.0949,0.21149 0.21149,0.21149 0.11659,0 0.21149,-0.0949 0.21149,-0.21149 0,-0.11659 -0.0949,-0.21149 -0.21149,-0.21149 z m 0,0.38982 c -0.0984,0 -0.17833,-0.0799 -0.17833,-0.17833 0,-0.0984 0.0799,-0.1785 0.17833,-0.1785 0.0986,0 0.17833,0.0801 0.17833,0.1785 0,0.0984 -0.0797,0.17833 -0.17833,0.17833"
       style="fill:#e99249;fill-opacity:1;fill-rule:nonzero;stroke:none;stroke-width:0.01763889"
       id="path796"
       inkscape:connector-curvature="0" />
    <path
       d="m 121.91401,172.26872 c 0,-0.0986 -0.0799,-0.17833 -0.1785,-0.17833 -0.0984,0 -0.17833,0.0797 -0.17833,0.17833 0,0.0986 0.0799,0.17833 0.17833,0.17833 0.0986,0 0.1785,-0.0797 0.1785,-0.17833"
       style="fill:#fbc964;fill-opacity:1;fill-rule:nonzero;stroke:none;stroke-width:0.01763889"
       id="path798"
       inkscape:connector-curvature="0" />
    <path
       d="m 121.73551,172.05723 c -0.1166,0 -0.21132,0.0949 -0.21132,0.21149 0,0.11659 0.0947,0.21149 0.21132,0.21149 0.11659,0 0.21149,-0.0949 0.21149,-0.21149 0,-0.1166 -0.0949,-0.21149 -0.21149,-0.21149 z m -0.17833,0.21149 c 0,-0.0986 0.0799,-0.17833 0.17833,-0.17833 0.0986,0 0.1785,0.0797 0.1785,0.17833 0,0.0986 -0.0799,0.17833 -0.1785,0.17833 -0.0984,0 -0.17833,-0.0797 -0.17833,-0.17833"
       style="fill:#e99249;fill-opacity:1;fill-rule:nonzero;stroke:none;stroke-width:0.01763889"
       id="path800"
       inkscape:connector-curvature="0" />
    <path
       d="m 122.54266,172.06569 c 0,-0.0984 -0.0799,-0.17833 -0.17833,-0.17833 -0.0984,0 -0.17833,0.0799 -0.17833,0.17833 0,0.0986 0.0799,0.17851 0.17833,0.17851 0.0984,0 0.17833,-0.0799 0.17833,-0.17851"
       style="fill:#fbc964;fill-opacity:1;fill-rule:nonzero;stroke:none;stroke-width:0.01763889"
       id="path802"
       inkscape:connector-curvature="0" />
    <path
       d="m 122.36433,171.8542 c -0.11659,0 -0.21149,0.0949 -0.21149,0.21149 0,0.1166 0.0949,0.21149 0.21149,0.21149 0.1166,0 0.21149,-0.0949 0.21149,-0.21149 0,-0.11659 -0.0949,-0.21149 -0.21149,-0.21149 z m -0.17833,0.21149 c 0,-0.0984 0.0799,-0.17833 0.17833,-0.17833 0.0984,0 0.17833,0.0799 0.17833,0.17833 0,0.0986 -0.0799,0.17851 -0.17833,0.17851 -0.0984,0 -0.17833,-0.0799 -0.17833,-0.17851"
       style="fill:#e99249;fill-opacity:1;fill-rule:nonzero;stroke:none;stroke-width:0.01763889"
       id="path804"
       inkscape:connector-curvature="0" />
    <path
       d="m 123.38633,171.59068 c 0,-0.0986 -0.0799,-0.17833 -0.17833,-0.17833 -0.0986,0 -0.1785,0.0797 -0.1785,0.17833 0,0.0984 0.0799,0.17833 0.1785,0.17833 0.0984,0 0.17833,-0.0799 0.17833,-0.17833"
       style="fill:#fbc964;fill-opacity:1;fill-rule:nonzero;stroke:none;stroke-width:0.01763889"
       id="path806"
       inkscape:connector-curvature="0" />
    <path
       d="m 120.96257,172.05176 c 0,-0.0986 -0.0801,-0.17851 -0.17851,-0.17851 -0.0984,0 -0.17832,0.0799 -0.17832,0.17851 0,0.0984 0.0799,0.17833 0.17832,0.17833 0.0984,0 0.17851,-0.0799 0.17851,-0.17833"
       style="fill:#fbc964;fill-opacity:1;fill-rule:nonzero;stroke:none;stroke-width:0.01763889"
       id="path818"
       inkscape:connector-curvature="0" />
    <path
       d="m 120.78406,171.84027 c -0.11659,0 -0.21149,0.0949 -0.21149,0.21149 0,0.11642 0.0949,0.21131 0.21149,0.21131 0.1166,0 0.21149,-0.0949 0.21149,-0.21131 0,-0.11659 -0.0949,-0.21149 -0.21149,-0.21149 z m -0.17832,0.21149 c 0,-0.0986 0.0799,-0.17851 0.17832,-0.17851 0.0984,0 0.17851,0.0799 0.17851,0.17851 0,0.0984 -0.0801,0.17833 -0.17851,0.17833 -0.0984,0 -0.17832,-0.0799 -0.17832,-0.17833"
       style="fill:#e99249;fill-opacity:1;fill-rule:nonzero;stroke:none;stroke-width:0.01763889"
       id="path820"
       inkscape:connector-curvature="0" />
    <path
       d="m 120.56023,171.49578 c -0.0986,0 -0.17851,0.0797 -0.17851,0.17833 0,0.0984 0.0799,0.17833 0.17851,0.17833 0.0984,0 0.17833,-0.0799 0.17833,-0.17833 0,-0.0986 -0.0799,-0.17833 -0.17833,-0.17833"
       style="fill:#fbc964;fill-opacity:1;fill-rule:nonzero;stroke:none;stroke-width:0.01763889"
       id="path826"
       inkscape:connector-curvature="0" />
    <path
       d="m 120.77154,171.67411 c 0,-0.11659 -0.0947,-0.21149 -0.21131,-0.21149 -0.11677,0 -0.21167,0.0949 -0.21167,0.21149 0,0.11659 0.0949,0.21149 0.21167,0.21149 0.11659,0 0.21131,-0.0949 0.21131,-0.21149 z m -0.21131,0.17833 c -0.0986,0 -0.17851,-0.0799 -0.17851,-0.17833 0,-0.0986 0.0799,-0.17833 0.17851,-0.17833 0.0984,0 0.17833,0.0797 0.17833,0.17833 0,0.0984 -0.0799,0.17833 -0.17833,0.17833"
       style="fill:#e99249;fill-opacity:1;fill-rule:nonzero;stroke:none;stroke-width:0.01763889"
       id="path828"
       inkscape:connector-curvature="0" />
    <path
       d="m 121.34445,171.70921 c 0,-0.0984 -0.0799,-0.17833 -0.17833,-0.17833 -0.0986,0 -0.17833,0.0799 -0.17833,0.17833 0,0.0984 0.0797,0.17833 0.17833,0.17833 0.0984,0 0.17833,-0.0799 0.17833,-0.17833"
       style="fill:#fbc964;fill-opacity:1;fill-rule:nonzero;stroke:none;stroke-width:0.01763889"
       id="path830"
       inkscape:connector-curvature="0" />
    <path
       d="m 121.16612,171.49772 c -0.11659,0 -0.21149,0.0949 -0.21149,0.21149 0,0.1166 0.0949,0.21149 0.21149,0.21149 0.1166,0 0.21149,-0.0949 0.21149,-0.21149 0,-0.11659 -0.0949,-0.21149 -0.21149,-0.21149 z m -0.17833,0.21149 c 0,-0.0984 0.0797,-0.17833 0.17833,-0.17833 0.0984,0 0.17833,0.0799 0.17833,0.17833 0,0.0984 -0.0799,0.17833 -0.17833,0.17833 -0.0986,0 -0.17833,-0.0799 -0.17833,-0.17833"
       style="fill:#e99249;fill-opacity:1;fill-rule:nonzero;stroke:none;stroke-width:0.01763889"
       id="path832"
       inkscape:connector-curvature="0" />
  </g>
</svg>
