<?xml version="1.0" encoding="UTF-8" standalone="no"?>
<!-- Created with Inkscape (http://www.inkscape.org/) -->

<svg
   xmlns:dc="http://purl.org/dc/elements/1.1/"
   xmlns:cc="http://creativecommons.org/ns#"
   xmlns:rdf="http://www.w3.org/1999/02/22-rdf-syntax-ns#"
   xmlns:svg="http://www.w3.org/2000/svg"
   xmlns="http://www.w3.org/2000/svg"
   xmlns:sodipodi="http://sodipodi.sourceforge.net/DTD/sodipodi-0.dtd"
   xmlns:inkscape="http://www.inkscape.org/namespaces/inkscape"
   width="30.498335mm"
   height="30.489531mm"
   viewBox="0 0 365.98002 365.87438"
   version="1.1"
   id="svg4338"
   inkscape:version="0.92.3 (2405546, 2018-03-11)"
   sodipodi:docname="taste.svg">
  <defs
     id="defs4332" />
  <sodipodi:namedview
     id="base"
     pagecolor="#ffffff"
     bordercolor="#666666"
     borderopacity="1.0"
     inkscape:pageopacity="0.0"
     inkscape:pageshadow="2"
     inkscape:zoom="0.35"
     inkscape:cx="-571.24134"
     inkscape:cy="-567.60866"
     inkscape:document-units="mm"
     inkscape:current-layer="layer1"
     showgrid="false"
     inkscape:window-width="1366"
     inkscape:window-height="662"
     inkscape:window-x="0"
     inkscape:window-y="27"
     inkscape:window-maximized="1"
     fit-margin-top="0"
     fit-margin-left="0"
     fit-margin-right="0"
     fit-margin-bottom="0" />
  <metadata
     id="metadata4335">
    <rdf:RDF>
      <cc:Work
         rdf:about="">
        <dc:format>image/svg+xml</dc:format>
        <dc:type
           rdf:resource="http://purl.org/dc/dcmitype/StillImage" />
        <dc:title></dc:title>
      </cc:Work>
    </rdf:RDF>
  </metadata>
  <g
     inkscape:label="Layer 1"
     inkscape:groupmode="layer"
     id="layer1"
     transform="translate(31.043586,31.835997)">
    <g
       id="g262"
       transform="matrix(0.06940973,0,0,-0.06940973,-814.15243,621.49918)">
      <path
         d="m 16300,6460.23 c -0.3,-2.19 -0.6,-4.32 -0.9,-6.45 0.2,1.93 0.6,4.37 0.9,6.45"
         style="fill:#ffffff;fill-opacity:1;fill-rule:nonzero;stroke:none"
         id="path264"
         inkscape:connector-curvature="0" />
    </g>
    <g
       id="g266"
       transform="matrix(0.06950534,0,0,-0.06950534,-814.15243,621.49918)">
      <path
         d="m 15867.9,6894.82 c 0,-0.36 -0.1,-0.76 -0.1,-1.17 -0.1,-0.56 -0.1,-1.11 -0.2,-1.67 0.2,-21.37 -7.6,-43.5 -24.7,-62.94 -106.5,-121.71 -223.8,-234.18 -349.9,-335.44 -189.8,-152.37 -404.7,-290.73 -638.8,-366.76 -3.8,-150.9 -27,-300.37 -83.3,-441.52 -78.9,-197.75 -205.3,-371.23 -379.6,-495.27 -160.6,-114.31 -363.7,-174.15 -560.8,-156.28 -205.9,18.68 -395.4,110.34 -544.3,253.12 -152,145.82 -257.6,339.86 -308.2,543.64 -24.6,98.92 -33.1,198.35 -35.9,298.69 -100.2,33.2 -197.2,77.36 -288.6,127.75 -263.3,145.12 -499.6,346.41 -697.2,572.07 -0.4,0.35 -0.6,0.76 -1,1.12 -9.9,9.99 -17.6,22.68 -21.7,37.81 -2.8,10.15 -3.4,20.91 -2.3,31.52 0,0.4 0.1,0.76 0.1,1.17 0.1,0.55 0.1,1.11 0.2,1.67 -0.2,21.37 7.6,43.55 24.7,62.94 106.6,121.71 223.8,234.18 350,335.44 235.2,188.81 508.9,356.15 809.9,410 146.7,26.24 297.9,26.29 441.9,-15.33 127.2,-36.74 242.2,-103.64 341.5,-189.72 111.2,96.38 242.5,169.12 387.1,201.45 296.3,66.23 599.7,-26.8 859,-169.78 263.3,-145.11 499.6,-346.35 697.2,-572.06 0.4,-0.36 0.6,-0.76 1,-1.12 9.9,-10 17.6,-22.69 21.7,-37.81 2.8,-10.15 3.4,-20.91 2.3,-31.52 z m 412.6,164.4 c -1.1,8.93 -2.2,17.81 -3.2,26.74 -0.1,0.76 -0.2,1.42 -0.3,2.08 -2.2,15.54 -4.5,31.02 -6.9,46.5 -10,62.88 -22.4,125.36 -37.1,187.33 -29.4,123.44 -68.2,244.65 -116,362.25 -0.9,2.13 -8,19.08 -9.3,22.28 -1.2,2.79 -2.3,5.23 -2.4,5.58 -5.8,13.25 -11.7,26.44 -17.7,39.54 -13.1,28.83 -26.8,57.45 -41,85.73 -27.8,55.17 -57.5,109.27 -89.3,162.21 -31.5,52.79 -65.1,104.35 -100.4,154.65 -19.2,27.31 -39.1,54.11 -59.3,80.75 -4.9,6.24 -9.8,12.49 -14.7,18.73 -9,11.12 -18,22.18 -27,33.19 -79.9,96.59 -166.9,187.24 -260.2,270.99 -41.9,37.61 -85.2,73.7 -129.5,108.51 -4.3,3.2 -15.7,12.03 -18.6,14.16 -5.7,4.27 -11.4,8.53 -17.1,12.74 -12.7,9.34 -25.4,18.53 -38.2,27.62 -23.3,16.49 -46.9,32.63 -70.8,48.31 -87.1,57.36 -177.8,109.18 -271.3,155.21 -317.6,147.75 -671.7,230.28 -1045.1,230.28 -467.9,0 -905.5,-129.53 -1278.9,-354.68 -64.5,-40.6 -127.1,-84.05 -188.3,-129.83 -1.1,-0.86 -2.1,-1.57 -2.9,-2.23 -2.4,-1.83 -4.8,-3.71 -7.1,-5.53 -5.7,-4.42 -11.2,-8.89 -16.8,-13.35 -12.2,-9.8 -24.4,-19.7 -36.4,-29.75 -21.9,-18.22 -43.5,-36.79 -64.8,-55.78 -46.8,-41.67 -92,-85.11 -135.6,-130.18 -43.5,-45.08 -85.4,-91.72 -125.5,-139.89 -10.9,-13.14 -21.7,-26.44 -32.5,-39.79 -2.9,-3.7 -19.9,-25.83 -19.8,-25.48 -15.8,-21.01 -31.5,-42.07 -46.7,-63.49 -72.3,-101.56 -136.9,-208.5 -193.3,-319.66 -14.3,-28.27 -28.1,-56.8 -41.3,-85.57 -7.3,-15.74 -14.4,-31.52 -21.3,-47.41 -2.2,-5.23 -4.9,-10.56 -6.8,-15.94 0.4,1.27 0.8,2.34 1.2,3.35 -1.1,-2.99 -2.2,-5.88 -2.8,-7.25 -23.7,-57.76 -45.3,-116.39 -64.6,-175.77 -39.6,-121.76 -69.8,-246.57 -90.4,-373 -2.8,-17.66 -5.5,-35.33 -8,-53.04 -0.1,-0.36 -0.1,-0.61 -0.2,-0.97 -0.1,-0.96 -0.2,-2.08 -0.4,-3.4 -0.7,-5.93 -1.4,-11.87 -2.1,-17.81 -4,-32.89 -7.2,-65.83 -9.8,-98.87 -5.3,-66.8 -7.8,-133.79 -7.9,-200.84 0.1,-64 2.4,-128.01 7.2,-191.81 2.5,-33.04 5.6,-66.03 9.4,-98.97 0.3,-2.84 1.6,-13.96 2.6,-22.64 1.7,-14.67 4.1,-29.28 6.4,-43.85 19.9,-128.11 49.7,-254.69 89.2,-378.18 19.4,-60.85 41.3,-121 65.3,-180.23 2.9,-6.95 5.7,-13.96 8.7,-20.86 1.2,-2.95 2.5,-5.69 3,-7.01 5.8,-13.24 11.7,-26.39 17.7,-39.53 11.9,-26.24 24.3,-52.23 37.2,-78.01 56.3,-112.88 121,-221.45 193.5,-324.59 18.1,-25.68 36.8,-50.9 55.6,-76.03 0.7,-0.81 1.2,-1.57 1.7,-2.23 0.3,-0.36 0.6,-0.66 0.9,-1.07 3.5,-4.46 7,-8.98 10.6,-13.45 10.6,-13.4 21.3,-26.69 32.2,-39.89 38.2,-46.09 77.9,-90.85 119.2,-134.15 84.4,-88.52 175.4,-170.53 271.6,-246.11 4.1,-3.2 11.5,-8.93 14,-10.81 5.8,-4.26 11.4,-8.53 17.2,-12.79 11.4,-8.48 23,-16.85 34.6,-25.18 25.6,-18.22 51.6,-36.03 77.8,-53.29 51.4,-33.85 104.1,-65.83 157.9,-95.83 54,-30.15 109.1,-58.26 165.2,-84.3 15.7,-7.31 31.5,-14.41 47.3,-21.37 7.9,-3.5 15.8,-7.36 23.9,-10.35 -0.8,0.3 -1.6,0.56 -2.3,0.86 2.6,-1.01 5,-1.93 6.2,-2.44 26.8,-10.96 53.8,-21.52 81,-31.62 119.5,-44.25 242.3,-79.33 367.1,-104.91 33.4,-6.8 67,-12.99 100.6,-18.42 14.8,-2.39 29.5,-4.67 44.3,-6.8 1.4,-0.21 2.9,-0.41 4.4,-0.61 1.4,0.56 15.1,-1.98 17.7,-2.29 65.9,-8.07 132.2,-13.55 198.5,-16.39 133.7,-5.74 267.9,-1.07 400.9,14.26 8.9,1.02 17.8,2.18 26.8,3.25 1.1,0.1 2,0.2 2.9,0.3 0.5,0.11 0.9,0.16 1.4,0.21 14.7,2.13 29.5,4.31 44.2,6.65 29.4,4.61 58.6,9.79 87.7,15.53 63.7,12.38 126.8,27.3 189.2,44.61 61.9,17.21 123,36.75 183.4,58.62 29.9,10.87 59.7,22.34 89.3,34.37 6.3,2.58 12.7,5.12 19.1,7.81 1.8,0.82 3.5,1.57 4.8,2.13 14.5,6.45 29,12.79 43.5,19.39 112.3,51.21 220.8,110.75 324.4,177.95 52.8,34.21 103.9,70.7 154.2,108.42 1.2,0.91 2.2,1.62 3,2.18 1,0.86 2.3,1.82 3.7,2.94 5.6,4.47 11.2,8.83 16.8,13.3 11.1,8.88 22.2,17.86 33.1,26.95 24.2,20 48,40.4 71.4,61.26 91.4,81.51 177,169.68 255.6,263.52 11,13.15 21.9,26.35 32.6,39.7 5.4,6.64 10.7,13.34 16,20.04 1.3,1.68 4.8,6.25 7.5,9.75 15.6,20.6 31,41.31 46,62.32 36.5,51.22 71.1,103.8 103.7,157.6 32.7,54.01 63.4,109.28 92,165.56 14.3,28.28 28.1,56.8 41.3,85.58 6.1,13.09 12,26.24 17.8,39.49 2.3,5.22 4.8,10.45 7.1,15.78 0.5,1.42 1,2.9 1.5,3.96 48.5,118.92 89.1,240.63 119.5,365.44 15.4,63.24 28.3,127.09 38.8,191.35 2.9,17.66 5.5,35.37 8,53.04 0.7,4.67 1.1,7.2 1.3,8.42 0.5,4.62 0.9,9.24 1.4,13.76 3.6,29.89 6.6,59.84 9.1,89.83 11,133.59 11.5,268.04 1.4,401.68 -2.5,33.05 -5.6,66.04 -9.4,98.98"
         style="fill:#ffffff;fill-opacity:1;fill-rule:nonzero;stroke:none"
         id="path268"
         inkscape:connector-curvature="0" />
    </g>
    <g
       id="g270"
       transform="matrix(0.06624637,0,0,-0.06624637,-814.15243,621.49918)">
      <path
         d="m 15585.6,6880.57 c 0,-85.04 0,-170.14 0,-255.18 10.6,3.94 21.1,7.98 31.5,12.14 53.5,21.3 134.7,61.18 197.6,96.65 178.5,100.7 338.3,221.9 485.3,361.69 -236.5,-45.16 -474.7,-82.86 -713.8,-112.15 -0.2,-34.45 -0.6,-68.85 -0.6,-103.15"
         style="fill:#ffffff;fill-opacity:1;fill-rule:nonzero;stroke:none"
         id="path272"
         inkscape:connector-curvature="0" />
    </g>
    <g
       id="g274"
       transform="matrix(0.05518079,0,0,-0.05518079,-814.15243,621.49918)">
      <path
         d="m 15482.1,8485.32 c 201,-186.17 422.5,-344.72 672.9,-466.64 52.9,-25.76 96.2,-45 145,-63.35 0,132.08 0,264.23 0,396.37 -137.3,15.09 -274.3,33.44 -410.7,55.37 -136.4,21.92 -272.4,47.56 -407.2,78.25"
         style="fill:#ffffff;fill-opacity:1;fill-rule:nonzero;stroke:none"
         id="path276"
         inkscape:connector-curvature="0" />
    </g>
    <g
       id="g278"
       transform="matrix(0.06259089,0,0,-0.06259089,-814.15243,621.49918)">
      <path
         d="m 15538.3,7318.4 c 0,-54.9 0,-109.8 0,-164.75 0,-43.06 0,-86.12 0,-129.24 0,-40.13 0,-80.26 0,-120.45 0,-215.47 0,-430.94 0,-646.42 0,-126.25 -195.9,-126.02 -195.9,0 0,217.84 0,435.68 0,653.58 0,40.53 0,81.05 0,121.63 0,43.63 0,87.25 0,130.93 0,50.39 0,100.83 0,151.28 -163.8,-1.18 -327.6,2.03 -491.3,10.03 -95.1,4.68 -190.2,10.99 -285.2,19 0.2,-17.14 0.3,-34.27 0.3,-51.35 0,-112.56 0,-225.17 0,-337.78 0,-28.58 0,-57.15 0,-85.78 0,-4.79 0,-9.47 0.1,-14.21 0.2,-34.15 0.9,-67.13 2.6,-99.42 6.1,-116.05 23.7,-223.14 65.6,-342.35 5.7,-16 11.8,-31.79 17.9,-47.62 0.3,-0.91 2.5,-6.26 3.4,-8.51 2.1,-4.85 4.2,-9.76 6.4,-14.55 10.2,-22.82 21.1,-45.31 32.7,-67.41 25.1,-47.79 53.4,-93.78 84.9,-137.63 4.8,-6.54 9.6,-13.02 14.4,-19.45 0.4,-0.45 0.6,-0.79 0.9,-1.12 0.4,-0.57 0.9,-1.13 1.5,-1.92 8,-9.92 16,-19.84 24.3,-29.54 15.5,-18.09 31.5,-35.67 48.2,-52.64 19.7,-20.18 40.2,-39.56 61.6,-58 9.4,-8.17 19,-16 28.6,-23.89 0.9,-0.74 3.7,-2.88 5.6,-4.4 2.6,-1.92 5.2,-3.83 7.8,-5.75 41.1,-29.59 83.8,-56.59 129.1,-79.53 12.2,-6.2 24.6,-12 37.1,-17.69 1.1,-0.51 5.8,-2.54 9.2,-4.01 3.3,-1.29 8.3,-3.32 9.5,-3.77 22.8,-8.63 45.7,-16.63 69.1,-23.45 24.9,-7.27 50.1,-13.41 75.6,-18.32 10.2,-1.97 20.5,-3.72 30.8,-5.35 -4,0.79 21.8,-2.48 25.3,-2.82 49.7,-4.51 99.8,-4.51 149.4,0 7.7,0.73 15.4,1.58 23,2.42 0.5,0.12 0.9,0.17 1.4,0.23 12.1,2.03 24.2,4 36.3,6.43 23.9,4.73 47.6,10.59 71,17.41 24.9,7.27 49.1,16.12 73.4,25.14 1.2,0.45 4.4,1.75 6.6,2.65 4,1.75 8,3.49 12,5.3 11.1,5.07 22.1,10.37 32.9,15.83 43.8,22.21 85.7,47.97 125.4,76.83 -0.3,-0.29 9.1,6.76 12.7,9.47 3,2.31 7.1,5.57 8,6.31 9.7,7.89 19.2,15.83 28.6,24.01 18.9,16.51 37.2,33.76 54.7,51.57 19,19.16 37.2,39.06 54.6,59.63 7.4,8.79 14.7,17.7 21.9,26.72 -1.4,-1.47 14.6,19.72 16.1,21.7 30.5,42.44 58.1,87.02 82.6,133.24 50.1,94.46 83.3,188.14 107.1,301.99 13.1,62.39 20,118.64 22.6,181.99 0.8,21.03 1.3,42.78 1.3,65.83 0,11.22 0,22.44 0,33.65 0,32.19 0,64.31 0,96.49 0,1.13 0,2.32 0,3.44 0,138.43 0,276.91 0,415.4 -111.4,-11.62 -222.9,-21.53 -334.5,-29.54 -142.2,-10.26 -284.6,-17.41 -427.2,-21.47"
         style="fill:#ffffff;fill-opacity:1;fill-rule:nonzero;stroke:none"
         id="path280"
         inkscape:connector-curvature="0" />
    </g>
    <g
       id="g282"
       transform="matrix(0.06656564,0,0,-0.06656564,-814.15243,621.49918)">
      <path
         d="m 16192.7,7369.44 c -166.6,154.32 -350.3,285.75 -557.8,386.82 -67.3,32.75 -115.5,52.84 -190.7,76.9 -35.5,11.34 -71.4,21.25 -107.7,29.52 -17.9,4.08 -36,7.74 -54,10.97 -6,1.06 -12,2.07 -18,3.07 -0.9,0.11 -15.3,2.23 -17.7,2.6 -65.9,8.27 -133,9.8 -199.2,3.71 -2.6,-0.21 -24,-2.81 -25.1,-2.81 -7,-1.01 -13.9,-2.12 -20.9,-3.34 -14.6,-2.6 -29.2,-5.62 -43.6,-9.01 -35.2,-8.27 -69.7,-18.87 -103.4,-31.85 -0.2,-0.05 -14.1,-5.83 -16,-6.52 -7.1,-3.12 -14.2,-6.36 -21.2,-9.7 -16.9,-8.16 -33.6,-16.85 -50,-26.18 -31.1,-17.59 -61.1,-37.15 -89.6,-58.56 -8.7,-6.46 -22.7,-17.91 -36.9,-30.31 -16,-13.89 -31.5,-28.3 -46.6,-43.14 -54.5,-53.74 -107.2,-53.74 -161.8,0 -104.7,103.23 -222.4,173.09 -363.6,206.26 -117.8,27.72 -257.7,22.26 -378.5,-5.19 -70.2,-15.95 -138.9,-38.21 -205.8,-64.87 -53.2,-21.2 -133.9,-60.89 -196.5,-96.19 -177.7,-100.22 -336.7,-220.84 -483,-359.96 -29.9,-28.4 -59.3,-57.71 -88.2,-87.65 16,-4.77 32,-9.33 48.2,-13.62 4.6,-1.22 9.2,-2.49 13.8,-3.66 69.6,-17.7 139.7,-33.49 210.1,-47.86 100.6,-20.56 201.9,-38.1 303.5,-53.15 14.5,-2.17 29,-4.24 43.5,-6.31 6.3,-0.9 12.7,-1.8 19,-2.65 1.9,-0.26 9.8,-1.32 14.5,-1.96 4.6,-0.63 10.9,-1.48 12.9,-1.69 7.6,-1.01 15.4,-2.02 23.1,-2.97 14.6,-1.86 29.2,-3.66 43.8,-5.41 22.1,-2.65 44.2,-5.14 66.3,-7.58 29.7,-3.28 59.5,-6.36 89.3,-9.27 11.2,-1.06 22.4,-2.18 33.6,-3.24 19.3,-1.74 38.5,-3.44 57.7,-5.03 126.4,-10.7 253,-18.07 379.7,-22.52 356.1,-12.4 713,-1.43 1068,29.04 60.5,5.19 121,11.02 181.3,17.38 30.7,3.24 61.3,6.63 91.9,10.13 30.4,3.49 60.8,7.15 91.1,10.91 177.2,22.05 353.8,48.86 529.7,80.08 75.8,13.46 151.4,27.77 227,42.87 11.7,2.34 23.4,4.62 35.1,7 -35,36.04 -70.7,71.02 -107.3,104.94"
         style="fill:#ffffff;fill-opacity:1;fill-rule:nonzero;stroke:none"
         id="path284"
         inkscape:connector-curvature="0" />
    </g>
    <g
       id="g286"
       transform="matrix(0.07064199,0,0,-0.07064199,-814.15243,621.49918)">
      <path
         d="m 12541.8,8728.52 c 54.6,30.01 110.3,58.03 166.9,83.89 12.9,5.85 25.9,11.64 38.9,17.33 1.2,0.55 3.8,1.65 6.5,2.9 4.3,1.85 8.7,3.59 13,5.39 31.7,12.99 63.6,25.32 95.8,37.01 116.6,42.29 236.4,75.71 358,99.92 31.5,6.25 63.1,11.94 94.9,16.93 14.3,2.3 28.7,4.35 43,6.5 0.1,0 0.2,0 0.3,0 10.3,1.2 20.6,2.59 30.8,3.74 65,7.49 130.4,12.44 195.8,14.73 128.5,4.6 257.4,-0.6 385.2,-15.73 6.4,-0.8 13.1,-1.35 19.6,-2.24 2.4,-0.4 4.9,-0.85 6.5,-1.1 16,-2.25 32,-4.7 47.9,-7.24 31.7,-5.2 63.3,-10.94 94.8,-17.33 62.4,-12.64 124.3,-27.72 185.6,-45.2 59.3,-16.93 118,-36.05 175.8,-57.43 28.1,-10.34 56,-21.22 83.7,-32.56 1.3,-0.55 4.1,-1.6 6.9,-2.69 -0.9,0.34 -1.9,0.74 -3,1.14 5.3,-1.94 10.5,-4.54 15.7,-6.74 15.6,-6.79 31.1,-13.78 46.6,-20.87 19.7,-9.09 39.2,-18.53 58.7,-28.12 92,-45.29 181.2,-96.28 266.9,-152.71 23.5,-15.43 46.7,-31.31 69.7,-47.54 12.6,-8.94 25.1,-17.98 37.5,-27.17 5.7,-4.14 11.3,-8.34 16.9,-12.53 2.8,-2.1 14.1,-10.79 18.2,-13.94 43.6,-34.26 86.2,-69.76 127.5,-106.77 91.8,-82.4 177.4,-171.59 256,-266.62 8.9,-10.84 17.8,-21.72 26.5,-32.66 4.9,-6.14 9.7,-12.29 14.6,-18.43 19.8,-26.21 39.4,-52.58 58.3,-79.45 34.8,-49.49 67.8,-100.23 98.8,-152.16 31.2,-52.09 60.5,-105.32 87.8,-159.61 14,-27.81 27.5,-55.98 40.4,-84.35 5.9,-12.88 11.7,-25.86 17.4,-38.9 0.1,-0.35 1.2,-2.75 2.4,-5.49 1.2,-3.15 8.2,-19.83 9.1,-21.92 47,-115.71 85.2,-234.97 114.2,-356.42 14.4,-60.97 26.6,-122.45 36.5,-184.32 2.4,-15.23 4.6,-30.46 6.7,-45.75 0.1,-0.65 0.2,-1.29 0.3,-2.04 1,-8.79 2.1,-17.53 3.2,-26.32 3.7,-32.41 6.8,-64.87 9.2,-97.38 10,-131.49 9.5,-263.78 -1.4,-395.22 -2.4,-29.51 -5.4,-58.98 -8.9,-88.39 -0.5,-4.45 -0.9,-8.99 -1.4,-13.53 -0.2,-1.2 -0.6,-3.7 -1.3,-8.29 -2.5,-17.38 -5,-34.81 -7.8,-52.19 -10.3,-63.22 -23,-126.05 -38.2,-188.27 -29.9,-122.8 -69.9,-242.55 -117.6,-359.56 -0.5,-1.05 -1,-2.5 -1.5,-3.9 -2.2,-5.24 -4.7,-10.38 -6.9,-15.53 -5.7,-13.03 -11.6,-25.96 -17.5,-38.85 -13.1,-28.31 -26.6,-56.38 -40.7,-84.2 -28.1,-55.38 -58.3,-109.76 -90.5,-162.89 -32.1,-52.94 -66.1,-104.68 -102.1,-155.07 -14.7,-20.67 -29.9,-41.05 -45.2,-61.32 -2.7,-3.45 -6.1,-7.94 -7.4,-9.59 -5.2,-6.59 -10.5,-13.18 -15.8,-19.72 -10.5,-13.14 -21.2,-26.12 -32,-39.06 -77.4,-92.33 -161.5,-179.08 -251.5,-259.28 -23,-20.53 -46.4,-40.6 -70.2,-60.28 -10.8,-8.94 -21.7,-17.77 -32.6,-26.51 -5.5,-4.4 -11.1,-8.69 -16.6,-13.09 -1.4,-1.1 -2.6,-2.05 -3.6,-2.89 -0.8,-0.55 -1.8,-1.25 -2.9,-2.15 -49.5,-37.11 -99.8,-73.01 -151.7,-106.67 -101.9,-66.12 -208.7,-124.7 -319.2,-175.09 -14.3,-6.49 -28.6,-12.73 -42.9,-19.07 -1.2,-0.55 -2.9,-1.3 -4.7,-2.1 -6.2,-2.65 -12.5,-5.14 -18.8,-7.69 -29.1,-11.84 -58.4,-23.12 -87.8,-33.81 -59.4,-21.52 -119.6,-40.75 -180.5,-57.68 -61.4,-17.03 -123.5,-31.71 -186.1,-43.89 -28.7,-5.65 -57.4,-10.74 -86.3,-15.29 -14.5,-2.29 -29,-4.44 -43.5,-6.54 -0.5,-0.05 -0.9,-0.1 -1.3,-0.2 -0.9,-0.1 -1.9,-0.2 -3,-0.3 -8.8,-1.05 -17.5,-2.2 -26.3,-3.19 -130.8,-15.09 -262.9,-19.68 -394.4,-14.04 -65.3,2.8 -130.5,8.19 -195.4,16.13 -2.5,0.3 -15.9,2.8 -17.4,2.25 -1.4,0.2 -2.9,0.4 -4.3,0.6 -14.5,2.1 -29.1,4.35 -43.5,6.69 -33.1,5.35 -66.2,11.44 -99.1,18.13 -122.8,25.17 -243.6,59.68 -361.2,103.22 -26.7,9.94 -53.3,20.33 -79.7,31.12 -1.1,0.49 -3.5,1.39 -6,2.39 0.7,-0.3 1.4,-0.55 2.2,-0.85 -8,2.95 -15.7,6.74 -23.5,10.19 -15.6,6.84 -31.1,13.83 -46.5,21.03 -55.2,25.61 -109.5,53.28 -162.6,82.94 -52.9,29.52 -104.8,60.98 -155.3,94.29 -25.9,16.98 -51.4,34.51 -76.6,52.43 -11.4,8.19 -22.8,16.43 -34.1,24.77 -5.6,4.2 -11.2,8.39 -16.8,12.59 -2.5,1.85 -9.8,7.49 -13.9,10.63 -94.6,74.36 -184.1,155.06 -267.1,242.16 -40.7,42.6 -79.8,86.64 -117.3,131.99 -10.7,12.98 -21.3,26.07 -31.8,39.25 -3.5,4.39 -6.9,8.84 -10.4,13.23 -0.3,0.4 -0.6,0.7 -0.9,1.05 -0.5,0.65 -1,1.4 -1.6,2.2 -18.5,24.72 -36.9,49.54 -54.7,74.81 -71.3,101.47 -135.1,208.29 -190.4,319.36 -12.7,25.37 -24.9,50.93 -36.7,76.75 -5.8,12.94 -11.6,25.87 -17.3,38.9 -0.5,1.3 -1.8,4 -3,6.9 -3,6.79 -5.7,13.68 -8.5,20.52 -23.7,58.28 -45.2,117.46 -64.3,177.33 -38.8,121.51 -68.2,246.05 -87.7,372.1 -2.3,14.33 -4.7,28.71 -6.3,43.15 -1,8.54 -2.3,19.47 -2.6,22.27 -3.7,32.41 -6.8,64.87 -9.3,97.38 -4.7,62.77 -7,125.75 -7.1,188.72 0.1,65.97 2.6,131.89 7.8,197.61 2.6,32.51 5.8,64.92 9.6,97.28 0.7,5.84 1.5,11.68 2.2,17.53 0.1,1.3 0.3,2.39 0.4,3.34 0,0.35 0.1,0.6 0.1,0.95 2.5,17.43 5.1,34.81 7.9,52.19 20.2,124.4 50,247.2 89,367 19,58.43 40.2,116.11 63.5,172.94 0.6,1.34 1.7,4.19 2.8,7.14 -0.4,-1 -0.8,-2.05 -1.2,-3.3 1.9,5.3 4.5,10.54 6.7,15.68 6.8,15.63 13.7,31.16 20.9,46.65 13,28.31 26.6,56.38 40.7,84.19 55.5,109.37 119,214.59 190.1,314.52 15,21.07 30.4,41.8 46,62.47 -0.1,-0.35 16.6,21.42 19.5,25.07 10.6,13.13 21.2,26.22 31.9,39.15 39.5,47.39 80.7,93.29 123.6,137.63 42.8,44.35 87.3,87.1 133.4,128.1 20.9,18.67 42.2,36.95 63.7,54.88 11.8,9.89 23.8,19.63 35.9,29.26 5.4,4.4 10.9,8.79 16.4,13.14 2.3,1.8 4.7,3.64 7,5.44 0.9,0.65 1.8,1.35 2.9,2.2 60.2,45.04 121.8,87.79 185.2,127.74 38.9,24.47 78.4,47.89 118.8,70.17 z m 2210.5,287.19 c -501.1,226.43 -1062.3,290 -1601.5,180.63 -511.2,-103.62 -987.8,-370.09 -1347.6,-747.23 -361.2,-378.69 -607,-867.09 -685.4,-1385.21 -20.3,-133.98 -31.9,-268.77 -32.2,-404.35 1,-531.7 165.3,-1060.5 474.6,-1493.92 307,-430.48 736.4,-759.67 1233.1,-941.75 506.7,-185.77 1074.9,-203.8 1593.5,-55.93 499.5,142.47 954.8,438.96 1284.6,840.57 340.5,414.79 546.1,922.47 587.5,1457.87 41.1,532.29 -88.3,1075.43 -365,1532.02 -267.9,442.16 -670,804.22 -1141.6,1017.3"
         style="fill:#0092f4;fill-opacity:1;fill-rule:nonzero;stroke:none"
         id="path288"
         inkscape:connector-curvature="0" />
    </g>
    <g
       id="g290"
       transform="matrix(0.06766771,0,0,-0.06766771,-814.15243,621.49918)">
      <path
         d="m 15258.2,6736.05 c 0,33.58 0.4,67.25 0.6,100.98 234.1,28.68 467.3,65.59 698.8,109.8 -143.9,-136.85 -300.4,-255.51 -475.1,-354.09 -61.6,-34.72 -141,-73.77 -193.4,-94.63 -10.2,-4.06 -20.5,-8.03 -30.9,-11.88 0,83.26 0,166.56 0,249.82 z m -2084.3,-197.06 c -204.2,99.42 -384.9,228.71 -548.8,380.52 110,-25.02 220.9,-45.93 332.1,-63.81 111.3,-17.88 223,-32.85 334.9,-45.15 0,-107.76 0,-215.52 0,-323.23 -39.7,14.96 -75,30.66 -118.2,51.67 z M 15077,6308.71 c 0,-21.32 -0.4,-41.44 -1.2,-60.89 -2.4,-58.6 -8.8,-110.63 -20.9,-168.34 -22,-105.31 -52.7,-191.96 -99,-279.33 -22.7,-42.75 -48.2,-83.99 -76.4,-123.25 -1.4,-1.82 -16.2,-21.42 -15,-20.07 -6.6,-8.34 -13.3,-16.58 -20.2,-24.71 -16.1,-19.03 -32.9,-37.43 -50.4,-55.16 -16.3,-16.47 -33.2,-32.43 -50.7,-47.7 -8.7,-7.56 -17.5,-14.91 -26.4,-22.21 -0.8,-0.68 -4.7,-3.7 -7.4,-5.84 -3.3,-2.5 -12.1,-9.02 -11.8,-8.76 -36.7,-26.69 -75.5,-50.51 -115.9,-71.06 -10.1,-5.05 -20.3,-9.95 -30.5,-14.64 -3.7,-1.67 -7.4,-3.29 -11.1,-4.91 -2,-0.83 -5,-2.03 -6.1,-2.45 -22.5,-8.34 -44.9,-16.52 -67.9,-23.25 -21.6,-6.31 -43.6,-11.73 -65.7,-16.11 -11.2,-2.24 -22.3,-4.06 -33.5,-5.94 -0.5,-0.05 -0.9,-0.11 -1.3,-0.21 -7.1,-0.78 -14.2,-1.56 -21.3,-2.24 -45.9,-4.17 -92.3,-4.17 -138.2,0 -3.2,0.31 -27.1,3.34 -23.4,2.61 -9.6,1.51 -19,3.13 -28.5,4.95 -23.6,4.54 -46.9,10.22 -69.9,16.94 -21.7,6.31 -42.9,13.71 -64,21.69 -1,0.42 -5.6,2.3 -8.8,3.49 -3.1,1.36 -7.4,3.23 -8.5,3.71 -11.5,5.26 -23,10.63 -34.3,16.36 -41.8,21.22 -81.3,46.2 -119.4,73.57 -2.4,1.77 -4.8,3.54 -7.1,5.31 -1.9,1.41 -4.4,3.39 -5.3,4.07 -8.8,7.3 -17.7,14.54 -26.4,22.1 -19.8,17.05 -38.8,34.99 -57,53.65 -15.4,15.69 -30.3,31.96 -44.5,48.69 -7.7,8.97 -15.2,18.15 -22.6,27.32 -0.5,0.73 -1,1.25 -1.4,1.77 -0.2,0.32 -0.5,0.63 -0.8,1.05 -4.4,5.94 -8.9,11.93 -13.3,17.98 -29.1,40.56 -55.3,83.1 -78.5,127.31 -10.8,20.44 -20.9,41.24 -30.3,62.36 -2,4.43 -4,8.96 -5.9,13.45 -0.8,2.08 -2.8,7.03 -3.1,7.87 -5.7,14.65 -11.3,29.25 -16.6,44.05 -38.7,110.26 -55.1,209.32 -60.6,316.66 -1.6,29.87 -2.3,60.37 -2.5,91.97 0,4.37 0,8.7 0,13.13 0,26.49 0,52.92 0,79.35 0,104.16 0,208.33 0,312.44 0,15.8 -0.2,31.64 -0.4,47.49 87.9,-7.4 175.9,-13.24 263.9,-17.56 151.3,-7.41 302.9,-10.38 454.4,-9.29 0,-46.66 0,-93.32 0,-139.92 0,-40.41 0,-80.76 0,-121.11 0,-37.54 0,-75.02 0,-112.51 0,-201.54 0,-403.04 0,-604.54 0,-116.57 181.2,-116.78 181.2,0 0,199.31 0,398.62 0,597.92 0,37.18 0,74.29 0,111.42 0,39.88 0,79.71 0,119.54 0,50.83 0,101.61 0,152.38 131.9,3.76 263.6,10.38 395.1,19.87 103.3,7.4 206.4,16.57 309.4,27.31 0,-128.09 0,-256.18 0,-384.22 0,-1.04 0,-2.14 0,-3.18 0,-29.77 0,-59.49 0,-89.25 0,-10.38 0,-20.75 0,-31.13 z m -879.5,1228.12 c 53.6,-52.87 105.5,-52.87 159.2,0 14.8,14.59 30,28.77 45.7,42.44 14.1,12.19 27.8,23.46 36.3,29.82 28.1,21.06 57.6,40.3 88.2,57.6 16.1,9.18 32.5,17.73 49.2,25.76 6.8,3.28 13.8,6.46 20.8,9.54 1.9,0.68 15.6,6.36 15.7,6.41 33.2,12.77 67.2,23.2 101.7,31.33 14.3,3.34 28.6,6.31 43,8.87 6.8,1.19 13.7,2.29 20.5,3.28 1.1,0 22.2,2.55 24.7,2.76 65.2,6 131.1,4.49 196,-3.65 2.3,-0.36 16.6,-2.45 17.4,-2.55 5.9,-0.99 11.8,-1.98 17.7,-3.02 17.7,-3.18 35.5,-6.78 53.1,-10.8 35.7,-8.13 71,-17.88 105.9,-29.03 74,-23.67 121.5,-43.43 187.7,-75.65 204.1,-99.42 384.8,-228.71 548.7,-380.52 36,-33.37 71.1,-67.78 105.5,-103.23 -11.4,-2.35 -23,-4.59 -34.5,-6.88 -74.3,-14.86 -148.8,-28.94 -223.3,-42.18 -173.1,-30.71 -346.7,-57.08 -521,-78.77 -29.9,-3.7 -59.7,-7.3 -89.7,-10.74 -30,-3.44 -60.2,-6.78 -90.4,-9.96 -59.3,-6.26 -118.8,-11.99 -178.4,-17.1 -349.2,-29.98 -700.2,-40.77 -1050.6,-28.57 -124.6,4.38 -249.2,11.63 -373.5,22.16 -18.9,1.56 -37.7,3.23 -56.7,4.95 -11,1.04 -22,2.14 -33.1,3.18 -29.3,2.87 -58.6,5.89 -87.8,9.12 -21.8,2.4 -43.5,4.85 -65.2,7.46 -14.4,1.72 -28.8,3.49 -43.1,5.32 -7.6,0.94 -15.2,1.93 -22.8,2.92 -1.9,0.2 -8.1,1.04 -12.7,1.66 -4.6,0.63 -12.3,1.67 -14.2,1.93 -6.2,0.84 -12.4,1.72 -18.7,2.61 -14.3,2.03 -28.5,4.07 -42.8,6.2 -99.9,14.81 -199.6,32.07 -298.6,52.29 -69.2,14.13 -138.1,29.67 -206.6,47.08 -4.6,1.15 -9.1,2.4 -13.6,3.6 -15.9,4.22 -31.6,8.71 -47.4,13.4 28.4,29.45 57.3,58.28 86.7,86.23 144,136.85 300.4,255.5 475.2,354.09 61.5,34.72 141,73.77 193.3,94.62 65.8,26.22 133.4,48.12 202.5,63.81 118.7,27.01 256.4,32.38 372.3,5.11 138.8,-32.63 254.6,-101.35 357.7,-202.9 z M 12281,7154.43 c -17.5,-19.92 -25.5,-42.7 -25.4,-64.65 0,-0.57 -0.1,-1.15 -0.1,-1.72 -0.1,-0.42 -0.1,-0.78 -0.1,-1.2 -1.2,-10.9 -0.6,-21.95 2.3,-32.37 4.2,-15.54 12.1,-28.57 22.3,-38.84 0.4,-0.37 0.6,-0.79 1,-1.15 203,-231.79 445.7,-438.55 716.1,-587.6 94,-51.77 193.5,-97.13 296.4,-131.22 3,-103.07 11.7,-205.2 37,-306.81 51.9,-209.32 160.4,-408.62 316.6,-558.41 152.9,-146.65 347.5,-240.8 559,-259.99 202.5,-18.35 411,43.12 576,160.53 179.1,127.41 308.9,305.6 389.9,508.72 57.9,144.98 81.7,298.51 85.6,453.51 240.4,78.1 461.2,220.21 656.1,376.72 129.6,104 250,219.53 359.5,344.55 17.5,19.97 25.5,42.7 25.3,64.65 0.1,0.57 0.1,1.14 0.2,1.72 0,0.41 0,0.83 0.1,1.19 1.2,10.9 0.6,21.95 -2.3,32.38 -4.3,15.54 -12.1,28.57 -22.4,38.84 -0.3,0.36 -0.6,0.78 -0.9,1.15 -203.1,231.84 -445.7,438.54 -716.2,587.6 -266.4,146.86 -577.9,242.42 -882.3,174.38 -148.5,-33.2 -283.4,-107.91 -397.6,-206.91 -102,88.41 -220.1,157.13 -350.8,194.87 -147.9,42.75 -303.2,42.7 -453.9,15.74 -309.2,-55.31 -590.3,-227.19 -831.9,-421.13 -129.6,-104.01 -250,-219.54 -359.5,-344.55"
         style="fill:#0092f4;fill-opacity:1;fill-rule:nonzero;stroke:none"
         id="path292"
         inkscape:connector-curvature="0" />
    </g>
  </g>
</svg>
