<?xml version="1.0" encoding="UTF-8" standalone="no"?>
<svg
   xmlns:dc="http://purl.org/dc/elements/1.1/"
   xmlns:cc="http://creativecommons.org/ns#"
   xmlns:rdf="http://www.w3.org/1999/02/22-rdf-syntax-ns#"
   xmlns:svg="http://www.w3.org/2000/svg"
   xmlns="http://www.w3.org/2000/svg"
   viewBox="0 0 1849.1067 1187.4399"
   height="1187.4399"
   width="1849.1067"
   xml:space="preserve"
   id="svg2"
   version="1.1"><metadata
     id="metadata8"><rdf:RDF><cc:Work
         rdf:about=""><dc:format>image/svg+xml</dc:format><dc:type
           rdf:resource="http://purl.org/dc/dcmitype/StillImage" /><dc:title></dc:title></cc:Work></rdf:RDF></metadata><defs
     id="defs6" /><g
     transform="matrix(1.3333333,0,0,-1.3333333,0,1187.44)"
     id="g10"><g
       transform="scale(0.1)"
       id="g12"><path
         id="path14"
         style="fill:#7b481b;fill-opacity:1;fill-rule:nonzero;stroke:none"
         d="m 13690,8877.31 c 31.7,9.1 63.9,16.9 95,28.5 27.7,-20.8 74.6,-28.6 80.5,-68.5 8.8,-37.5 -3.5,-77.3 -29.7,-104.9 -156.1,-184.5 -305.2,-374.7 -459.1,-561 -629.8,-763.7 -1262.9,-1524.8 -1885.3,-2294.6 -107,-136.3 -214.7,-271.8 -324.8,-405.6 -103.3,-138 -215.2,-269.2 -322.3,-404.2 -30.6,-3.9 -61.1,-9.1 -91.5,-13.5 55.3,68.6 109.5,138.1 164.6,207 62.9,79.7 136.2,150.7 197.6,231.8 478.1,594.9 965.4,1182.3 1443.1,1777.5 282.9,349.8 573.1,693.6 856.4,1043 67.1,78.2 130.6,159.8 182.1,249.2 65.8,86.4 134.7,170.7 206.1,252.7 -20,4.4 -39.7,8.8 -59.5,13.1 -129.2,-125.9 -245,-264.3 -361.2,-402 -589.2,-690.9 -1179.3,-1381.2 -1761.4,-2078.2 -111.7,-131.9 -225,-262.5 -333.4,-397.2 -175.5,-217.4 -363.4,-424.7 -534.2,-645.9 -28.3,-37.9 -61.5,-71.6 -94.8,-105 -49.2,-48.7 -82.5,-110 -126.1,-163.2 -64.5,-84.8 -143.1,-157.3 -211.3,-238.8 -180.1,-204.1 -349.55,-417.3 -527.85,-622.9 -65.4,-78.4 -132.9,-155.7 -190.5,-240 -38,-55.8 1.8,-136.6 66.9,-146.3 56.1,-14.2 94.4,37.2 123.1,76.6 198.3,289.8 440.85,545 658.15,820 -4,-36 -8.7,-72 -10.8,-108.3 -27.1,-27.6 -50.1,-58.7 -75,-88.2 -46.4,-33.8 -79.7,-81.7 -104.4,-132.9 -34.2,-41.4 -66.9,-84 -99.6,-126.6 -26.7,-31.6 -55.2,-61.7 -78,-96.3 -100.75,-133.9 -196.15,-273.7 -319.95,-387.8 -25.8,-27.8 -67.8,-27.3 -102.4,-21.9 -62,12.5 -120.3,55.4 -141.8,116.1 -16.4,65 11.3,135.6 60.2,179.6 73.4,68.3 130.1,151.9 201,222.4 18.8,18 36.4,37.3 53.1,57.3 42.1,50.4 87.7,97.7 129.1,148.6 89.55,106.7 177.75,214.3 269.95,318.6 58.9,67.6 110.6,141 166,211.4 128.6,53 229.6,170.3 256.9,307.5 62,76.9 132.6,147 192.6,225.6 51.6,77 124.5,135.8 182.5,207.5 134.5,165 275.1,324.9 412.3,487.7 495.1,591.4 990,1183.1 1487.9,1772.3 240.2,283.4 478.3,568.7 717.3,853.1 13.8,15.8 25.4,34 42.5,46.7" /><path
         id="path16"
         style="fill:#7b481b;fill-opacity:1;fill-rule:nonzero;stroke:none"
         d="m 10512.7,4761.91 c 54.7,67.9 110.8,134.8 165.3,202.9 -5.5,-40.4 -8.9,-81 -11.8,-121.7 -22.4,-15.8 -41.3,-35.9 -54.1,-60.2 -33,-7.7 -66.4,-13.6 -99.4,-21" /><path
         id="path18"
         style="fill:#dc9a39;fill-opacity:1;fill-rule:nonzero;stroke:none"
         d="m 13743.2,8827.81 c 19.8,-4.3 39.5,-8.7 59.5,-13.1 -71.4,-82 -140.3,-166.3 -206.1,-252.7 -51.5,-89.4 -115,-171 -182.1,-249.2 -283.3,-349.4 -573.5,-693.2 -856.4,-1043 -477.7,-595.2 -965,-1182.6 -1443.1,-1777.5 -61.4,-81.1 -134.7,-152.1 -197.6,-231.8 -55.1,-68.9 -109.3,-138.4 -164.6,-207 -29.4,-25.5 -54.1,-55.9 -74.8,-88.7 -54.5,-68.1 -110.6,-135 -165.3,-202.9 -24.1,-22.7 -45.1,-48.5 -62.1,-77 -217.3,-275 -459.85,-530.2 -658.15,-820 -28.7,-39.4 -67,-90.8 -123.1,-76.6 -65.1,9.7 -104.9,90.5 -66.9,146.3 57.6,84.3 125.1,161.6 190.5,240 178.3,205.6 347.75,418.8 527.85,622.9 68.2,81.5 146.8,154 211.3,238.8 43.6,53.2 76.9,114.5 126.1,163.2 33.3,33.4 66.5,67.1 94.8,105 170.8,221.2 358.7,428.5 534.2,645.9 108.4,134.7 221.7,265.3 333.4,397.2 582.1,697 1172.2,1387.3 1761.4,2078.2 116.2,137.7 232,276.1 361.2,402" /><path
         id="path20"
         style="fill:#be1a60;fill-opacity:1;fill-rule:nonzero;stroke:none"
         d="m 5318.65,7508.91 c 144.9,54 304.4,67.5 456,35.7 201.2,-39.4 391.4,-122.5 568.2,-224.7 154,-94.4 295.7,-208.8 421.9,-338 146.7,-150.5 258.3,-337.9 305.4,-543.8 28.9,-131.1 34.7,-266.7 21.2,-400.2 180.2,-11.3 362.7,-77.5 490.2,-208.8 97.2,-96.3 155,-223.8 199,-351.3 40.2,-121.7 56.2,-251.5 40.3,-378.9 -10.7,-54.6 -25.7,-108.4 -45.8,-160.3 -11.4,-26.9 -23.3,-53.6 -32.3,-81.4 48.3,-49.9 79.1,-112.6 111.4,-173.3 7.8,-44.1 1.7,-91 21.1,-132.7 10.7,-29.4 44.9,-37.1 70.5,-48.5 70.5,-26.3 138.9,-62.4 190.3,-118.4 89,-96.7 148.4,-219.4 179.2,-346.7 32.5,-149 9.5,-303.2 -21.6,-450.4 -36,-139.5 -84.6,-288 -199.4,-383.2 -75.7,-62 -168.8,-96.9 -249.3,-151.7 -18.1,-12.7 -25.5,-34.6 -31.3,-54.9 -78.3,-282.7 -261.5,-535.7 -509.9,-692.9 -141,-90.2 -305.7,-147.7 -474,-150.3 -122,-0.9 -240.3,38.8 -350.2,88.8 -118.4,52.7 -225.5,141.9 -277.6,262.8 -110.6,-121.6 -249.5,-217.5 -402.7,-277.2 -204.2,-81.1 -427.6,-114.2 -646.4,-96.4 -61.1,10.3 -122.3,19.3 -182.8,32.4 -127.6,34.8 -251.8,83.7 -371,141 -79.5,40.8 -156.8,88.3 -220.8,151.2 l -10.8,-10.3 c -63.1,-58.5 -127.1,-116.3 -195.8,-168.2 -132.1,-113.1 -288.8,-193.2 -451.2,-253.1 -201.1,-71.3 -417.2,-105.3 -630.3,-87.1 -107.7,11.7 -217.9,38.7 -305.8,104.9 -73,55.4 -114.3,140.9 -185.3,198.2 -126,-22.2 -266.1,-22.8 -378.3,46.9 -89.1,-61.1 -194.8,-92 -300.3,-110.4 -148.1,-28.3 -300.5,-25 -449.6,-7.2 28.6,25.6 54,54.7 74.7,87.1 74.1,-16.2 150.1,-8.4 225,-4.3 129.6,7.2 261,27.8 379.5,82.7 -5.2,11.9 -10.5,23.7 -16.1,35.2 -62.5,108.2 -116.5,228.6 -109.2,356.4 45.9,-81.3 68.7,-174.8 126.4,-249.5 25.7,-33.2 49.3,-72.9 92.3,-85.5 34.4,-19.2 66.5,-43.3 104.3,-56 61.3,-23.8 128,-27 193.1,-25 -21,71.3 -72.9,137.8 -60.8,215.5 1,5.3 3,16 4,21.3 28.7,-48.8 67.4,-90.2 101.8,-134.8 42.3,-60.3 96.7,-110.5 147.3,-163.6 121.6,-119.1 288.7,-179.7 455.4,-198.6 200.5,-23.4 404.9,16.9 588.3,99 141.5,63.3 275.6,143.6 398.3,238.4 11.6,1.2 24.2,1.6 33.1,10.5 60.1,49.4 112.3,107.4 166,163.6 36.5,36.8 73.1,75.8 121.5,97.2 4.2,-45.8 -27.7,-83.2 -47.9,-121.4 145.5,-114.8 307.7,-211.9 485.9,-266 205,-62.1 426.1,-72.6 635.7,-27.2 135.9,27.6 266.6,82.4 380.3,162.1 85.4,59.4 161.1,131.9 229.6,210.1 24,26 40.8,60.7 75,75.4 -0.9,-43.9 -9.8,-90.6 10.5,-131.9 31,-68.2 97.6,-108.7 148.7,-160.4 117.4,-118.6 289.8,-179.3 455.5,-165.7 141.7,10.5 272,76.8 387.6,155.7 186.3,128 349.8,297.4 443.7,505.1 64.9,143.1 55.3,304.6 92.9,454.7 4.5,0.6 13.4,1.8 17.9,2.4 43.6,-66.4 22.3,-151.4 25.4,-226.2 133.1,60.3 236.6,175 297.3,306.5 62,129.1 95.4,271.3 102.4,414.2 4.9,162 -63.8,315.4 -145.2,451.7 -39.9,70.3 -110.9,120.8 -190.9,133.5 -11.8,-62.9 -14.6,-130.4 -48.6,-186.4 -9.5,-17.4 -26.8,-27.8 -46.7,-26.6 16.4,143 19.3,292.6 -33.2,429 -16.7,45.6 -45.1,85.4 -76.5,121.9 -42.6,-48.6 -65.6,-127.7 -138,-138.5 2.2,78.8 51,143.2 87.9,209.1 55.8,96.4 102.6,203.1 101.1,316.6 -1.5,177.2 -72.3,345.3 -161.1,495.6 -69.1,115.3 -172.1,211.8 -297.6,262.4 -67.9,30.9 -142.3,41.6 -215.8,48.8 l 4.7,-18.4 c -22,1.9 -43.9,3.3 -65.8,4.5 18.2,225.3 -19.9,456.2 -117.9,660.4 -57.9,118.3 -135.3,227.3 -229.7,319.4 -140.8,139.2 -313.5,239.2 -485,335.2 -38.4,21.6 -83,27.7 -122.5,46.8 -176.1,79.4 -371.8,130.1 -565.8,105.3 -72.2,-6.6 -141.7,-28.4 -213.5,-36.5 -145.3,-48.5 -275.3,-138.2 -379.4,-249.8 -25.7,-24.8 -54,-46.7 -79.4,-71.8 -39.2,5.1 -78.7,7.2 -118.1,8.8 8.4,-19.2 15.6,-39 20.8,-59.4 -63,7.3 -108.2,55.9 -152.7,96.1 -87.3,83.2 -197.5,136.5 -308.8,179.6 10,-58.2 22.4,-116.9 19.4,-176.3 -15.6,-14.1 -38.4,-15.6 -58,-20.4 -121.1,-19.4 -246.1,-36.3 -355.8,-94.6 -39.7,-20.4 -79.3,-41.1 -117.9,-63.6 -37.4,-21.2 -66,-55.3 -106.4,-71.5 -28.5,188.5 89.6,355.9 214,484 8.2,8.5 16.3,16.9 24.5,25.2 -122.5,8.4 -245.1,-10.7 -363,-43.4 -166.3,-46.2 -325.3,-115.2 -479.4,-192.3 -177.2,-89.4 -345.5,-202.8 -475.2,-354.6 -226.9,-255.7 -338.2,-589 -414.9,-916.3 -11.4,-0.2 -22.8,-0.4 -34.2,-0.6 -6.6,15.4 -13.4,30.7 -19.9,46 -68.9,-12.4 -135.7,-35.3 -195.7,-71.6 -38.4,7.3 -76.4,16.6 -114.6,24.4 84.7,67 186.6,110.5 292.2,132.1 50.2,251.2 114.9,507.3 259.6,722.6 143.3,213.7 352.9,373.4 576.3,496.1 258.7,147.9 551.4,242.6 850.7,250 93.7,4.8 187.7,-2.3 280,-18.8 57,0.6 109.9,29.5 167.3,28.6 8.2,-29.1 17.4,-58 25.5,-87.2 85.1,-38.2 168.5,-81.6 243.3,-137.6 52.9,-37.6 107,-81.8 174.2,-88.1 53.7,-5.9 110.5,-2.6 160.6,18.8 41.3,31.7 72.6,74.7 114.6,105.9 115,99.9 249.2,176.8 392.9,227.3" /><path
         id="path22"
         style="fill:#be1a60;fill-opacity:1;fill-rule:nonzero;stroke:none"
         d="m 5282.95,7358.31 c 122.5,-56.7 259.1,-102.4 348.8,-208.9 60.1,-77.8 100,-176.2 89.8,-275.9 -60.2,30.3 -112.5,74.2 -173.8,102.3 -36.7,14.2 -74.5,25.2 -112.2,35.9 -90.2,20.3 -184.8,20.9 -272.7,51.7 24.3,60.3 43.8,122.2 62.5,184.3 13.2,39.4 23.7,83.2 57.6,110.6" /><path
         id="path24"
         style="fill:#be1a60;fill-opacity:1;fill-rule:nonzero;stroke:none"
         d="m 3941.35,6825.51 c 161.3,56.9 345.5,32.5 492.1,-53.1 186.6,-106.2 322.8,-286.5 400.7,-484.3 34.6,84.8 78.5,166 136.3,237.4 13.6,16.3 28,31.8 42.7,47.2 71.5,76.3 159.6,138.4 258,174.7 140.2,50 302,47.6 435.6,-21.2 142,-72.7 251.6,-199.9 316.8,-344.2 68,-143 93.7,-302.7 87.1,-460.2 -30.1,-4.1 -60.1,-8.1 -90,-12.4 3.4,0.8 10.3,2.5 13.7,3.3 12.9,198.9 -23.2,408.5 -138.3,574.9 -88.4,138.9 -240,244 -407.4,252.2 -117.3,8.5 -233.9,-33.4 -327.2,-103.1 -127.8,-94.2 -216,-233.8 -267.9,-382.3 -10.4,-31.6 -26.7,-64.9 -16.3,-98.7 21.2,-78.6 33.4,-159.3 40.6,-240.4 0.3,-3.4 0.8,-10.4 1,-13.8 3.3,-74.6 0.6,-149.2 -7.4,-223.4 -25.3,-2.6 -50.4,-6.6 -75.6,-9.7 32.7,226.2 -4.5,460.7 -97.3,668.9 -67.8,149.8 -170.1,287.9 -308.5,379.2 -69.9,46.6 -149.9,79.2 -233.6,89.2 -112,16.1 -227.9,-11.4 -323,-71.9 -133,-82.3 -223.2,-219.3 -276,-364.1 -69.1,-191.4 -75.9,-401.2 -40.4,-600.4 -28.3,-1 -56.6,-2.7 -85,-2.7 -36.9,253.7 -10.6,524.7 119.2,749.8 79.4,136.5 199.8,254.6 350.1,309.1" /><path
         id="path26"
         style="fill:#be1a60;fill-opacity:1;fill-rule:nonzero;stroke:none"
         d="m 6016.75,5787.41 c 27.5,4.6 55,9.4 82.5,14.9 -8,-76.9 -39.3,-148 -65.2,-220 -63.8,-136.4 -154.7,-262.7 -276,-353.7 -123.2,-83.7 -275,-129.1 -424.2,-109.1 -8.4,19.6 -17.3,38.9 -26,58.2 107.2,-22.9 222,-9.5 319.3,41.9 103.9,52.8 191.4,135.7 254.2,233.4 68.6,100.3 109.4,216.5 135.4,334.4" /><path
         id="path28"
         style="fill:#be1a60;fill-opacity:1;fill-rule:nonzero;stroke:none"
         d="m 1706.75,5765.41 c 29.6,-8.9 58.1,-21.3 86.1,-34.4 -60.7,-65.6 -112.2,-143.7 -130,-232.5 -100.5,20.9 -199.3,-19.8 -286.4,-66.3 -114.3,-63.9 -215.8,-151.3 -294.4,-256.2 -45,-56.7 -76.1,-123.2 -95.597,-192.6 -27.801,-97.9 -46.101,-198.3 -60.301,-299 -32.199,-24.9 -64.898,-49.3 -96.898,-74.5 -4.102,131.1 -2.602,266.8 47.898,390.1 27.399,75.4 70.5,143.2 105.602,215 35.496,62.7 66.596,129.9 120.496,179.5 94.9,84.9 216.5,130.5 336.3,167.9 110.7,31.7 196.5,115.8 267.2,203" /><path
         id="path30"
         style="fill:#be1a60;fill-opacity:1;fill-rule:nonzero;stroke:none"
         d="m 7194.75,5767.01 c 39.5,-50.3 57,-114 61.3,-176.9 -47.1,10.8 -57.1,68.1 -85.9,101 9.4,10.1 18.7,20.2 28.2,30.3 -1.1,15.2 -2.3,30.4 -3.6,45.6" /><path
         id="path32"
         style="fill:#be1a60;fill-opacity:1;fill-rule:nonzero;stroke:none"
         d="m 3497.25,5655.11 c 28.9,-2 57.9,-1.7 86.9,-2.3 59.2,-209 176.1,-407.8 355.5,-534.9 120,-86.1 275.7,-126.4 420.9,-90.4 100.7,21.5 187.7,81.6 260,152.8 -2.7,-41 -21,-78.3 -33,-117.1 l -1.6,-0.8 c -39.5,-20 -76.1,-45.6 -117.2,-62.5 -93.5,-39.5 -197.9,-51.7 -298.3,-37.6 -107.1,14.6 -207,61.6 -296.6,120.6 -48.7,33.2 -88.5,77.3 -129.3,119.4 -118.6,127.7 -193.6,288.7 -247.3,452.8" /><path
         id="path34"
         style="fill:#be1a60;fill-opacity:1;fill-rule:nonzero;stroke:none"
         d="m 4944.55,5363.91 c 25.5,1.1 51.1,0.8 76.5,-1.9 43,-48 88.9,-98.7 149.3,-124.1 14,-23.4 18.8,-50.6 24.9,-76.8 -100.6,41.9 -186.3,115.6 -250.7,202.8" /><path
         id="path36"
         style="fill:#be1a60;fill-opacity:1;fill-rule:nonzero;stroke:none"
         d="m 2909.15,5065.91 c 101.2,19 214.1,50 310.1,-3.7 -70.4,-27.7 -145.8,-37.5 -219.1,-54 6.9,-34.1 13.4,-68.3 22,-102.1 -49.7,43.1 -84.7,101.1 -113,159.8" /><path
         id="path38"
         style="fill:#be1a60;fill-opacity:1;fill-rule:nonzero;stroke:none"
         d="m 2634.15,4919.81 c 57.2,36.6 113.5,74.7 171.7,109.8 11.8,-21.6 24.7,-42.6 38.2,-63.2 -70.4,-29.2 -131.9,-74.9 -199.8,-109.1 -3.4,20.9 -6.8,41.7 -10.1,62.5" /><path
         id="path40"
         style="fill:#be1a60;fill-opacity:1;fill-rule:nonzero;stroke:none"
         d="m 2967.65,4828.01 c 36.4,-31.2 76.2,-58 117.6,-82.2 32.9,-82.2 69.1,-165.8 131.7,-230.4 44.9,-58.5 104,-103.1 152.6,-158 39.4,-44 93.3,-69.9 146.3,-93.4 174.6,-86.2 362.5,-145.6 554.8,-175.1 68.6,-17.4 138.4,-30.3 208.6,-39.3 239.7,-23.3 483.6,-20.8 720.2,27.5 303.9,64 597.6,173.3 871.2,320.2 92.3,46 184.4,98.2 287.7,114.4 -28.1,-46.5 -78,-70.9 -120.5,-101.7 -121.1,-84.8 -252.6,-154 -388.3,-212.2 -183.7,-78.5 -373.4,-144.2 -569,-185.6 -49.2,-11.1 -100.1,-14.3 -148.5,-29 -22.3,-6.1 -45.2,-9.4 -68.1,-11.5 -57.9,-5.4 -116.2,-6.4 -174,-13.4 -79.6,-9.1 -159.5,1.1 -239.1,3.6 -26,1.2 -52,2.6 -77.9,4.6 -150.1,10.3 -297.4,42.6 -444.1,74.3 -78.6,16 -152.8,47.3 -230.4,67 -18.9,4.5 -37.6,10 -55.9,16.4 -89.1,28.7 -174,67.7 -259.9,104.4 12.8,-67.8 40.3,-131.4 70.1,-193.2 52.1,-116.4 104.8,-233.2 170.9,-342.5 21.9,-28.6 44.7,-56.7 61.6,-88.7 25.1,-52.4 64.8,-95.3 103.2,-138.1 20.2,-19.4 35.2,-49.1 64.3,-55.7 73.5,-73.1 142.5,-151.3 224.6,-215.1 58.3,-49.2 124.1,-88.1 189.3,-127.3 19.7,-11.4 40.7,-20.5 61.6,-29.7 111.2,-55.7 236.2,-98.4 362.2,-79.1 78,10.3 159.2,25.4 224.6,72.1 14.8,7.2 30.7,11.9 46.7,16.2 49.1,8.9 96.9,58 147.9,30.5 36.6,-36.9 29.9,-94.6 39.9,-142.2 -13.2,-3.7 -26.3,-7.3 -39.4,-11.1 -5.6,29.8 -11.3,59.6 -16.7,89.4 -22.7,-0.8 -46.7,0.3 -66.8,-12.1 -63.2,-34.2 -123.2,-79.1 -195.6,-91.8 -60.5,-10 -120.7,-21.8 -181.8,-27.6 -69.8,-6.8 -138.9,11.7 -205.2,31.5 -175.2,55.7 -331.5,159.3 -467.6,281.3 -106,90.4 -203.3,191.3 -287.1,302.6 -117.5,151.7 -203.1,324.9 -278.2,500.6 -38.9,97 -70.3,196.8 -105.9,295 -16.6,46.1 -57.1,76.5 -90.7,109.7 -61.3,56.5 -117.7,120.9 -150.8,198.4 -31.7,75.6 -67,149.6 -96.1,226.3" /><path
         id="path42"
         style="fill:#be1a60;fill-opacity:1;fill-rule:nonzero;stroke:none"
         d="m 842.652,4447.31 c 25.102,21.5 50,43.5 77.801,61.7 27.098,-134.9 69,-267.5 129.497,-391.3 41.8,-83.7 109.8,-151.8 187.9,-202.2 14.2,-9 28,-19 40.1,-30.9 54.3,-54.3 144.1,-80.1 167.9,-160.4 -41.3,-2.3 -82.8,7.3 -116,32.6 -36.8,21.7 -68.2,63.6 -115.1,58.9 -38.8,-8.3 -84.4,-20.7 -103.1,-59.8 -23.1,-44.9 -64.4,-75.7 -93.5,-116.2 -85.099,-111.3 -147.396,-242 -170.896,-380.6 -31,-4.9 -61.801,-11.3 -92.102,-19.7 -11.398,18.7 -22.8,37.3 -34.398,55.8 34.297,149.2 110.5,286.4 210.199,401.8 53.5,72.5 130.297,120.5 196.497,179.7 -38.3,47.6 -81.5,91.2 -115.7,141.9 -48.398,72.4 -86.496,151.4 -115.496,233.4 -20.102,64.4 -46.402,127.6 -53.602,195.3" /><path
         id="path44"
         style="fill:#be1a60;fill-opacity:1;fill-rule:nonzero;stroke:none"
         d="m 4681.55,3554.31 c 28.2,2.4 56.5,3.2 84.8,4.7 -67.7,-83 -81,-196.1 -73.5,-299.6 -17.1,-3.1 -33.9,-7.4 -50.3,-12.8 -5.4,50 -11.4,100.5 -4.5,150.7 5,54.6 26.7,105.4 43.5,157" /><path
         id="path46"
         style="fill:#f796cb;fill-opacity:1;fill-rule:nonzero;stroke:none"
         d="m 5282.95,7358.31 c -33.9,-27.4 -44.4,-71.2 -57.6,-110.6 -18.7,-62.1 -38.2,-124 -62.5,-184.3 87.9,-30.8 182.5,-31.4 272.7,-51.7 37.7,-10.7 75.5,-21.7 112.2,-35.9 61.3,-28.1 113.6,-72 173.8,-102.3 10.2,99.7 -29.7,198.1 -89.8,275.9 -89.7,106.5 -226.3,152.2 -348.8,208.9 z m -6.8,23 c 71.8,8.1 141.3,29.9 213.5,36.5 194,24.8 389.7,-25.9 565.8,-105.3 39.5,-19.1 84.1,-25.2 122.5,-46.8 171.5,-96 344.2,-196 485,-335.2 94.4,-92.1 171.8,-201.1 229.7,-319.4 98,-204.2 136.1,-435.1 117.9,-660.4 -160.3,7.6 -320.8,6 -481.3,6 -66.6,0.2 -132.3,-12.5 -198.8,-14.6 -73.7,-2.1 -146.8,-11.6 -219.8,-20.3 6.6,157.5 -19.1,317.2 -87.1,460.2 -65.2,144.3 -174.8,271.5 -316.8,344.2 -133.6,68.8 -295.4,71.2 -435.6,21.2 -98.4,-36.3 -186.5,-98.4 -258,-174.7 -19.6,17.3 -36.9,36.9 -52.3,58 21.3,98.1 51.2,195.6 52,296.9 -0.6,50.6 -14.1,105.1 -52.2,140.8 -21.9,20.4 -44.1,40.6 -63.9,63.1 104.1,111.6 234.1,201.3 379.4,249.8" /><path
         id="path48"
         style="fill:#f796cb;fill-opacity:1;fill-rule:nonzero;stroke:none"
         d="m 3699.65,7318.61 c 50.8,11.1 101.7,25.4 154.2,23.8 -124.4,-128.1 -242.5,-295.5 -214,-484 40.4,16.2 69,50.3 106.4,71.5 38.6,22.5 78.2,43.2 117.9,63.6 109.7,58.3 234.7,75.2 355.8,94.6 19.6,4.8 42.4,6.3 58,20.4 3,59.4 -9.4,118.1 -19.4,176.3 111.3,-43.1 221.5,-96.4 308.8,-179.6 44.5,-40.2 89.7,-88.8 152.7,-96.1 -5.2,20.4 -12.4,40.2 -20.8,59.4 39.4,-1.6 78.9,-3.7 118.1,-8.8 54.3,-20.6 93.8,-68.9 112.2,-122.9 35.4,-93.7 16.6,-202 -37.9,-284.5 -37.6,4.3 -75.9,11.2 -113.4,2.6 55.9,-54.8 132.9,-79 192.2,-129.4 -57.8,-71.4 -101.7,-152.6 -136.3,-237.4 -77.9,197.8 -214.1,378.1 -400.7,484.3 -146.6,85.6 -330.8,110 -492.1,53.1 -150.3,-54.5 -270.7,-172.6 -350.1,-309.1 -129.8,-225.1 -156.1,-496.1 -119.2,-749.8 -178.5,4.8 -355.2,-26 -531.9,-46.5 -107.3,-12.5 -213.5,-32.8 -320.2,-48.7 -84.7,15.2 -166.9,42.3 -251.3,59.1 -89.6,22.2 -181.3,33.7 -270.5,57.5 65.2,72.8 142.7,133.4 220.8,191.6 25,19.2 27.3,53.3 37.2,81 117.8,412.9 393.1,775.2 751.9,1009.1 180.4,116.8 381.2,203.5 591.6,248.9" /><path
         id="path50"
         style="fill:#f796cb;fill-opacity:1;fill-rule:nonzero;stroke:none"
         d="m 6826.85,3260.91 c -67.9,-86.5 -170.7,-141.5 -276.8,-165.4 -86.9,-17.5 -184,-18.3 -261.5,30.4 -66.4,38 -112,101.6 -173.4,145.8 12.2,-70.3 55.7,-133.7 114.4,-173.8 76,-51.4 169.5,-64.9 259.1,-71.4 65.3,-102.6 146.5,-212 271.7,-241.3 104.5,-22.7 218.8,-18.7 318.3,22 -107,14.9 -219.5,-14.2 -322.9,25 -97.9,41.3 -152.8,137.4 -214.6,217.9 106.9,29.9 214.3,72.7 295.1,151.4 48.3,45.3 80.7,108.1 80.8,175.2 -54.8,-14 -59.3,-77.8 -90.2,-115.8 z m -4771.5,89.7 c -65.8,-47.6 -131.2,-107.2 -150,-189.7 -5.7,-31.6 -10.6,-68.8 9.4,-96.7 33.1,81.9 49.4,192 144.5,225.4 37.9,-77.5 58.6,-163.4 107.3,-235.5 23.3,-35.7 54.8,-67.9 95.7,-82.6 -13.7,62.9 -45.6,119.5 -68.7,179.1 -38.1,90.8 -67.8,187.9 -62.3,287.5 1.1,145.6 68.3,287.5 177.4,383.4 -5.1,18.8 -10.7,37.5 -16.4,56 -160.8,-123.9 -226,-331.2 -236.9,-526.9 z m 5435.8,930.5 c 47.3,-50.7 97.1,-101.1 128.4,-163.9 49.6,-94.9 47.7,-208.4 21.9,-309.9 -18.6,-71 -68.5,-126.2 -108.2,-185.8 41.4,10.3 77.6,35.9 104,69 30,33.1 40.5,78.6 64.8,114.3 69.9,-3.6 134,-50.2 161.4,-114.4 42.5,-95.8 30.9,-203 35.1,-304.8 35.7,20.9 44.4,63.7 42.9,102.1 -2.6,96.9 -12.3,199.9 -69.2,281.9 -36,56.2 -95.2,93.2 -158.8,110.7 -0.3,99.4 -8.8,201.3 -47.9,293.8 -19.3,43.8 -49.6,87.4 -95.9,105.1 -25.1,10.1 -52.7,6.8 -78.5,1.9 z m -5532.5,857 c -57.1,-65.5 -73.1,-155.9 -76.6,-240.2 0.2,-94.2 14.6,-193 65.1,-274.2 6.8,-14.1 30.2,-31.3 11.2,-45.6 -97.7,-112.4 -199.7,-236 -217,-389.6 -8.6,-85.2 -10.7,-187.1 56.4,-251 17.6,141.1 21.7,286.2 72.6,420.7 26.6,69.7 71.9,132.5 131.6,177.8 82.5,66.1 183.6,101.3 280.2,141 2.6,14.3 5.3,28.4 7.9,42.6 -101.2,-14.8 -193.3,-61.1 -286,-101.1 -66.1,132.1 -79.1,290.6 -38.3,432.3 14.3,56.8 55,99.8 95.2,139.8 -39.9,-1.9 -75.9,-23.6 -102.3,-52.5 z m 5113,826.5 c 73.5,-7.2 147.9,-17.9 215.8,-48.8 125.5,-50.6 228.5,-147.1 297.6,-262.4 88.8,-150.3 159.6,-318.4 161.1,-495.6 1.5,-113.5 -45.3,-220.2 -101.1,-316.6 -36.9,-65.9 -85.7,-130.3 -87.9,-209.1 72.4,10.8 95.4,89.9 138,138.5 31.4,-36.5 59.8,-76.3 76.5,-121.9 52.5,-136.4 49.6,-286 33.2,-429 19.9,-1.2 37.2,9.2 46.7,26.6 34,56 36.8,123.5 48.6,186.4 80,-12.7 151,-63.2 190.9,-133.5 81.4,-136.3 150.1,-289.7 145.2,-451.7 -7,-142.9 -40.4,-285.1 -102.4,-414.2 -60.7,-131.5 -164.2,-246.2 -297.3,-306.5 -3.1,74.8 18.2,159.8 -25.4,226.2 -4.5,-0.6 -13.4,-1.8 -17.9,-2.4 -37.6,-150.1 -28,-311.6 -92.9,-454.7 -93.9,-207.7 -257.4,-377.1 -443.7,-505.1 -115.6,-78.9 -245.9,-145.2 -387.6,-155.7 -165.7,-13.6 -338.1,47.1 -455.5,165.7 -51.1,51.7 -117.7,92.2 -148.7,160.4 -20.3,41.3 -11.4,88 -10.5,131.9 -34.2,-14.7 -51,-49.4 -75,-75.4 -68.5,-78.2 -144.2,-150.7 -229.6,-210.1 -113.7,-79.7 -244.4,-134.5 -380.3,-162.1 -209.6,-45.4 -430.7,-34.9 -635.7,27.2 -178.2,54.1 -340.4,151.2 -485.9,266 20.2,38.2 52.1,75.6 47.9,121.4 -48.4,-21.4 -85,-60.4 -121.5,-97.2 -53.7,-56.2 -105.9,-114.2 -166,-163.6 -8.9,-8.9 -21.5,-9.3 -33.1,-10.5 -17.4,-0.3 -33.8,-6.6 -48.4,-15.9 -102.9,-59.9 -213.6,-107.9 -331.1,-130.3 -114.2,-20.1 -230.3,-41.9 -346.8,-29.6 -87.6,3.2 -175.4,10.2 -260.5,32.7 -74.2,14 -142.7,46.4 -214.9,67.2 -82,26.2 -160.9,61.4 -237.2,101.2 -62.8,28.3 -123.5,61.2 -180.3,100.1 -31,22.6 -57,51.2 -86.7,75.3 4.8,-13.6 9.8,-27.3 14.8,-41.1 -1,-5.3 -3,-16 -4,-21.3 -66.4,-64.5 -157.8,-89.9 -236.6,-134.5 -43,12.6 -66.6,52.3 -92.3,85.5 -57.7,74.7 -80.5,168.2 -126.4,249.5 -7.3,-127.8 46.7,-248.2 109.2,-356.4 -176.7,-32.3 -363.1,-18.8 -529.8,50.2 10.2,105.2 16.3,211 11.1,316.7 -4.2,38.6 -13,78.1 -33.6,111.4 -63,85.7 -152.2,147.7 -246.5,194.7 -22.1,75 -62.3,144.8 -119.7,198.3 -26.1,19.4 -31.9,55.7 -13.1,82.3 45.7,66 118.6,105.4 186.2,145.1 -3.9,13 -7.8,26 -11.7,38.8 -85,-36.5 -163.1,-93.8 -214.3,-171.8 -7.2,-9.7 -13.5,-20.5 -23,-28.2 -34.3,9.1 -65.6,26.2 -99,37.9 18,148.8 63,297.1 148.8,421.3 9.5,15.4 17.4,31.7 25.4,47.8 46.9,4.7 78.3,-37.2 115.1,-58.9 33.2,-25.3 74.7,-34.9 116,-32.6 -23.8,80.3 -113.6,106.1 -167.9,160.4 10.6,10.5 21.3,21 32,31.4 -115.4,170.6 -182.4,375.1 -181.5,581.6 -0.8,57.3 3.9,114.5 10.8,171.3 40.9,28.6 79,61.7 123.4,85.1 85.2,44.4 158.6,107.4 232.5,168 28.3,23.8 56,56 48.8,95.9 3.4,24.1 -15.6,53.1 -42.4,44.8 -62,-21.8 -116.3,-60.6 -170.8,-96.6 -38.5,-25.9 -79.3,-48.3 -116.7,-76 -2.9,39.5 18.9,74 37,107.2 112.1,204.1 292.5,372.7 509.2,460.4 33.8,16.1 73.5,22 103.3,45.4 32.9,43.8 63.5,89.3 96.2,133.3 179.3,-99.5 386.1,-124.1 579.5,-183.7 64.6,-37.9 129.6,-82.3 167.1,-149.4 34.8,-46.8 33.3,-107.4 50,-161.1 12.4,-39.2 30.9,-76 49.5,-112.6 -58.2,-35.1 -114.5,-73.2 -171.7,-109.8 3.3,-20.8 6.7,-41.6 10.1,-62.5 67.9,34.2 129.4,79.9 199.8,109.1 36.5,-50 77.3,-97.2 123.6,-138.4 29.1,-76.7 64.4,-150.7 96.1,-226.3 33.1,-77.5 89.5,-141.9 150.8,-198.4 33.6,-33.2 74.1,-63.6 90.7,-109.7 35.6,-98.2 67,-198 105.9,-295 75.1,-175.7 160.7,-348.9 278.2,-500.6 83.8,-111.3 181.1,-212.2 287.1,-302.6 136.1,-122 292.4,-225.6 467.6,-281.3 66.3,-19.8 135.4,-38.3 205.2,-31.5 61.1,5.8 121.3,17.6 181.8,27.6 72.4,12.7 132.4,57.6 195.6,91.8 20.1,12.4 44.1,11.3 66.8,12.1 5.4,-29.8 11.1,-59.6 16.7,-89.4 13.1,3.8 26.2,7.4 39.4,11.1 -10,47.6 -3.3,105.3 -39.9,142.2 -51,27.5 -98.8,-21.6 -147.9,-30.5 -25.2,54.1 -43.3,113.5 -83.5,158.9 -47.4,49.1 -120.9,55.8 -185.4,53 -7.5,103.5 5.8,216.6 73.5,299.6 65.4,5 130.1,16.3 195.4,22.8 23.4,4.2 49.2,3.6 70.3,15.7 7,47.4 -11.6,92.8 -26.9,136.5 -29,81.7 -50.5,165.7 -73.1,249.2 48.4,14.7 99.3,17.9 148.5,29 195.6,41.4 385.3,107.1 569,185.6 135.7,58.2 267.2,127.4 388.3,212.2 42.5,30.8 92.4,55.2 120.5,101.7 -103.3,-16.2 -195.4,-68.4 -287.7,-114.4 -273.6,-146.9 -567.3,-256.2 -871.2,-320.2 -236.6,-48.3 -480.5,-50.8 -720.2,-27.5 -70.2,9 -140,21.9 -208.6,39.3 -192.3,29.5 -380.2,88.9 -554.8,175.1 -53,23.5 -106.9,49.4 -146.3,93.4 -48.6,54.9 -107.7,99.5 -152.6,158 -62.6,64.6 -98.8,148.2 -131.7,230.4 185.9,-117.4 406,-175.1 624.6,-184.6 92.6,-0.1 186.7,-13.5 278.2,7.5 102.7,17.2 206.7,35.4 302.9,76.9 118.3,49.4 219,132.6 305.8,225.6 54.3,71.1 102,149.1 126.1,236 76.3,57.6 94.4,159.3 148.3,234.3 38.1,-52.6 67.3,-112 115.1,-157.1 75.4,-84.4 172.7,-152.2 284.4,-177.1 83,-114.6 204.6,-199.6 339.8,-240.9 112.5,-38.5 232.3,-43.8 349.9,-51.7 124.6,-4.1 247.3,20.7 369.3,42.5 200.3,36.6 399,111.2 552.2,248.8 42.6,45.1 84.2,93.7 104.7,153.3 36.7,77.9 57.4,162 68.3,247.1 3.9,51.8 3.3,105.4 24.5,153.9 24,47.6 51.6,94 90.8,130.8 28.8,-32.9 38.8,-90.2 85.9,-101 -4.3,62.9 -21.8,126.6 -61.3,176.9 -12.7,55.7 -19.6,112.6 -29.5,168.9 -29.6,3.8 -59.3,7.1 -88.9,10.3 l -4.7,18.4" /><path
         id="path52"
         style="fill:#f796cb;fill-opacity:1;fill-rule:nonzero;stroke:none"
         d="m 6409.35,5835.81 c 83.1,4.9 166.9,18.1 250,5.4 108.8,-17.9 211.2,-89.1 254.4,-192.3 44.7,-136.1 40.5,-286.3 -4.9,-421.7 -59.2,-171.9 -212.3,-296.6 -379.4,-357.4 -214.2,-75 -445,-101.3 -670.7,-79.8 -96.9,7.9 -186.6,47.1 -275.7,82.7 -53.3,32.1 -111,61.1 -150.7,110.6 37.4,17.9 79.9,18.6 118.6,33 46.5,16.9 91.3,39.2 132.3,67.2 56.8,39.1 115.9,76.3 163.7,126.6 79.5,84.1 135.8,187.7 174.2,296.3 8.9,24.4 10.6,50.4 12.9,75.9 25.9,72 57.2,143.1 65.2,220 102.7,16.7 206.5,24.1 310.1,33.5" /><path
         id="path54"
         style="fill:#f796cb;fill-opacity:1;fill-rule:nonzero;stroke:none"
         d="m 2930.55,5517.11 c 84.9,86.4 209.4,122.3 327.8,125.5 77.8,1.5 155.7,10.7 233.5,5.2 11.4,-134.5 50.6,-266.9 111.3,-387.4 77.8,-150.5 196.1,-283.1 347,-362.6 132,-65.9 288.2,-85.5 430.4,-42.5 24.8,8.1 50.2,15.9 76.7,16.2 -133.9,-143.4 -328.2,-212.9 -519.2,-235.4 -137.4,-14.4 -277.9,-15.6 -413.3,15.2 -79,18.2 -157.9,38.6 -233.9,66.9 -92.9,56.8 -200.1,99.8 -268.7,187.9 -8.6,33.8 -15.1,68 -22,102.1 73.3,16.5 148.7,26.3 219.1,54 -96,53.7 -208.9,22.7 -310.1,3.7 -24.5,58 -59.3,116.2 -52.1,181.7 -5.3,94.2 5.4,198 73.5,269.5" /><path
         id="path56"
         style="fill:#f796cb;fill-opacity:1;fill-rule:nonzero;stroke:none"
         d="m 1037.05,3255.71 c 2.6,14.3 5.2,28.4 7.8,42.6 2.7,-3.9 8,-11.9 10.7,-15.8 43.1,-17.8 89.9,-31.8 123.8,-65.6 38.8,-39.4 64.4,-89.5 86,-139.8 -20,8.7 -40.4,16.4 -60.8,24 -32.1,72.5 -97.7,121.6 -167.5,154.6" /><path
         id="path58"
         style="fill:#f579bb;fill-opacity:1;fill-rule:nonzero;stroke:none"
         d="m 3515.35,7324.21 c 117.9,32.7 240.5,51.8 363,43.4 -8.2,-8.3 -16.3,-16.7 -24.5,-25.2 -52.5,1.6 -103.4,-12.7 -154.2,-23.8 -210.4,-45.4 -411.2,-132.1 -591.6,-248.9 -358.8,-233.9 -634.1,-596.2 -751.9,-1009.1 -9.9,-27.7 -12.2,-61.8 -37.2,-81 -78.1,-58.2 -155.6,-118.8 -220.8,-191.6 -67.5,15.1 -134.1,34.2 -202.1,46.8 60,36.3 126.8,59.2 195.7,71.6 6.5,-15.3 13.3,-30.6 19.9,-46 11.4,0.2 22.8,0.4 34.2,0.6 76.7,327.3 188,660.6 414.9,916.3 129.7,151.8 298,265.2 475.2,354.6 154.1,77.1 313.1,146.1 479.4,192.3" /><path
         id="path60"
         style="fill:#f579bb;fill-opacity:1;fill-rule:nonzero;stroke:none"
         d="m 1792.85,5731.01 c 58.1,-27.1 111.6,-62.4 166.9,-94.6 -32.7,-44 -63.3,-89.5 -96.2,-133.3 -29.8,-23.4 -69.5,-29.3 -103.3,-45.4 -216.7,-87.7 -397.1,-256.3 -509.2,-460.4 -18.1,-33.2 -39.9,-67.7 -37,-107.2 -97.4,-66.5 -195.2,-132.5 -287.898,-205.7 14.2,100.7 32.5,201.1 60.301,299 19.497,69.4 50.597,135.9 95.597,192.6 78.6,104.9 180.1,192.3 294.4,256.2 87.1,46.5 185.9,87.2 286.4,66.3 17.8,88.8 69.3,166.9 130,232.5" /><path
         id="path62"
         style="fill:#f579bb;fill-opacity:1;fill-rule:nonzero;stroke:none"
         d="m 3491.85,5647.81 5.4,7.3 c 53.7,-164.1 128.7,-325.1 247.3,-452.8 40.8,-42.1 80.6,-86.2 129.3,-119.4 89.6,-59 189.5,-106 296.6,-120.6 100.4,-14.1 204.8,-1.9 298.3,37.6 41.1,16.9 77.7,42.5 117.2,62.5 -29.8,-71.1 -76.3,-132.7 -126.1,-190.8 l -2.6,-0.1 c -26.5,-0.3 -51.9,-8.1 -76.7,-16.2 -142.2,-43 -298.4,-23.4 -430.4,42.5 -150.9,79.5 -269.2,212.1 -347,362.6 -60.7,120.5 -99.9,252.9 -111.3,387.4" /><path
         id="path64"
         style="fill:#f579bb;fill-opacity:1;fill-rule:nonzero;stroke:none"
         d="m 5758.05,5228.61 c 121.3,91 212.2,217.3 276,353.7 -2.3,-25.5 -4,-51.5 -12.9,-75.9 -38.4,-108.6 -94.7,-212.2 -174.2,-296.3 -47.8,-50.3 -106.9,-87.5 -163.7,-126.6 -41,-28 -85.8,-50.3 -132.3,-67.2 -38.7,-14.4 -81.2,-15.1 -118.6,-33 l -4.2,-1.7 c -35.9,42.7 -70.4,87.2 -94.3,137.9 149.2,-20 301,25.4 424.2,109.1" /><path
         id="path66"
         style="fill:#f579bb;fill-opacity:1;fill-rule:nonzero;stroke:none"
         d="m 4767.65,5282.11 c 38.7,58.1 112,74.5 176.9,81.8 64.4,-87.2 150.1,-160.9 250.7,-202.8 16,-55.2 42.9,-106.7 75.4,-153.8 -111.7,24.9 -209,92.7 -284.4,177.1 -47.8,45.1 -77,104.5 -115.1,157.1 -53.9,-75 -72,-176.7 -148.3,-234.3 18.6,57.6 4.2,125.4 44.8,174.9" /><path
         id="path68"
         style="fill:#f579bb;fill-opacity:1;fill-rule:nonzero;stroke:none"
         d="m 920.453,4509.01 c 76.098,48.8 149.597,101.7 218.797,159.9 -6.9,-56.8 -11.6,-114 -10.8,-171.3 -0.9,-206.5 66.1,-411 181.5,-581.6 -10.7,-10.4 -21.4,-20.9 -32,-31.4 -12.1,11.9 -25.9,21.9 -40.1,30.9 -78.1,50.4 -146.1,118.5 -187.9,202.2 -60.497,123.8 -102.399,256.4 -129.497,391.3" /><path
         id="path70"
         style="fill:#f579bb;fill-opacity:1;fill-rule:nonzero;stroke:none"
         d="m 1111.65,3755.91 c 18.7,39.1 64.3,51.5 103.1,59.8 -8,-16.1 -15.9,-32.4 -25.4,-47.8 -85.8,-124.2 -130.8,-272.5 -148.8,-421.3 -5.8,2 -17.4,6.1 -23.2,8.2 8.6,-19.1 17.2,-38.2 27.5,-56.5 -2.6,-14.2 -5.2,-28.3 -7.8,-42.6 -62.198,14.9 -126.898,12.3 -189.796,3.4 23.5,138.6 85.797,269.3 170.896,380.6 29.1,40.5 70.4,71.3 93.5,116.2" /><path
         id="path72"
         style="fill:#f579bb;fill-opacity:1;fill-rule:nonzero;stroke:none"
         d="m 2469.25,2589.51 c 29.7,-24.1 55.7,-52.7 86.7,-75.3 56.8,-38.9 117.5,-71.8 180.3,-100.1 76.3,-39.8 155.2,-75 237.2,-101.2 72.2,-20.8 140.7,-53.2 214.9,-67.2 85.1,-22.5 172.9,-29.5 260.5,-32.7 116.5,-12.3 232.6,9.5 346.8,29.6 117.5,22.4 228.2,70.4 331.1,130.3 14.6,9.3 31,15.6 48.4,15.9 -122.7,-94.8 -256.8,-175.1 -398.3,-238.4 -183.4,-82.1 -387.8,-122.4 -588.3,-99 -166.7,18.9 -333.8,79.5 -455.4,198.6 -50.6,53.1 -105,103.3 -147.3,163.6 -34.4,44.6 -73.1,86 -101.8,134.8 -5,13.8 -10,27.5 -14.8,41.1" /><path
         id="path74"
         style="fill:#f579bb;fill-opacity:1;fill-rule:nonzero;stroke:none"
         d="m 2243.45,2392.61 c 78.8,44.6 170.2,70 236.6,134.5 -12.1,-77.7 39.8,-144.2 60.8,-215.5 -65.1,-2 -131.8,1.2 -193.1,25 -37.8,12.7 -69.9,36.8 -104.3,56" /><path
         id="path76"
         style="fill:#f579bb;fill-opacity:1;fill-rule:nonzero;stroke:none"
         d="m 1545.55,2257.61 c 32.3,48.9 53.6,105.1 58.6,163.8 166.7,-69 353.1,-82.5 529.8,-50.2 5.6,-11.5 10.9,-23.3 16.1,-35.2 -118.5,-54.9 -249.9,-75.5 -379.5,-82.7 -74.9,-4.1 -150.9,-11.9 -225,4.3" /><path
         id="path78"
         style="fill:#e4348c;fill-opacity:1;fill-rule:nonzero;stroke:none"
         d="m 4817.35,7059.71 c 25.4,25.1 53.7,47 79.4,71.8 19.8,-22.5 42,-42.7 63.9,-63.1 38.1,-35.7 51.6,-90.2 52.2,-140.8 -0.8,-101.3 -30.7,-198.8 -52,-296.9 15.4,-21.1 32.7,-40.7 52.3,-58 -14.7,-15.4 -29.1,-30.9 -42.7,-47.2 -59.3,50.4 -136.3,74.6 -192.2,129.4 37.5,8.6 75.8,1.7 113.4,-2.6 54.5,82.5 73.3,190.8 37.9,284.5 -18.4,54 -57.9,102.3 -112.2,122.9" /><path
         id="path80"
         style="fill:#e4348c;fill-opacity:1;fill-rule:nonzero;stroke:none"
         d="m 1958.65,5138.11 c 26.4,28.9 62.4,50.6 102.3,52.5 -40.2,-40 -80.9,-83 -95.2,-139.8 -40.8,-141.7 -27.8,-300.2 38.3,-432.3 92.7,40 184.8,86.3 286,101.1 -2.6,-14.2 -5.3,-28.3 -7.9,-42.6 -96.6,-39.7 -197.7,-74.9 -280.2,-141 -59.7,-45.3 -105,-108.1 -131.6,-177.8 -50.9,-134.5 -55,-279.6 -72.6,-420.7 -67.1,63.9 -65,165.8 -56.4,251 17.3,153.6 119.3,277.2 217,389.6 19,14.3 -4.4,31.5 -11.2,45.6 -50.5,81.2 -64.9,180 -65.1,274.2 3.5,84.3 19.5,174.7 76.6,240.2" /><path
         id="path82"
         style="fill:#e4348c;fill-opacity:1;fill-rule:nonzero;stroke:none"
         d="m 7491.15,4281.11 c 25.8,4.9 53.4,8.2 78.5,-1.9 46.3,-17.7 76.6,-61.3 95.9,-105.1 39.1,-92.5 47.6,-194.4 47.9,-293.8 63.6,-17.5 122.8,-54.5 158.8,-110.7 56.9,-82 66.6,-185 69.2,-281.9 1.5,-38.4 -7.2,-81.2 -42.9,-102.1 -4.2,101.8 7.4,209 -35.1,304.8 -27.4,64.2 -91.5,110.8 -161.4,114.4 -24.3,-35.7 -34.8,-81.2 -64.8,-114.3 -26.4,-33.1 -62.6,-58.7 -104,-69 39.7,59.6 89.6,114.8 108.2,185.8 25.8,101.5 27.7,215 -21.9,309.9 -31.3,62.8 -81.1,113.2 -128.4,163.9" /><path
         id="path84"
         style="fill:#e4348c;fill-opacity:1;fill-rule:nonzero;stroke:none"
         d="m 2055.35,3350.61 c 10.9,195.7 76.1,403 236.9,526.9 5.7,-18.5 11.3,-37.2 16.4,-56 -109.1,-95.9 -176.3,-237.8 -177.4,-383.4 -5.5,-99.6 24.2,-196.7 62.3,-287.5 23.1,-59.6 55,-116.2 68.7,-179.1 -40.9,14.7 -72.4,46.9 -95.7,82.6 -48.7,72.1 -69.4,158 -107.3,235.5 -95.1,-33.4 -111.4,-143.5 -144.5,-225.4 -20,27.9 -15.1,65.1 -9.4,96.7 18.8,82.5 84.2,142.1 150,189.7" /><path
         id="path86"
         style="fill:#e4348c;fill-opacity:1;fill-rule:nonzero;stroke:none"
         d="m 1162.55,3336.91 c 51.2,78 129.3,135.3 214.3,171.8 3.9,-12.8 7.8,-25.8 11.7,-38.8 -67.6,-39.7 -140.5,-79.1 -186.2,-145.1 -18.8,-26.6 -13,-62.9 13.1,-82.3 57.4,-53.5 97.6,-123.3 119.7,-198.3 -23.3,11 -46.4,22.1 -69.8,32.9 -21.6,50.3 -47.2,100.4 -86,139.8 -33.9,33.8 -80.7,47.8 -123.8,65.6 -2.7,3.9 -8,11.9 -10.7,15.8 -10.3,18.3 -18.9,37.4 -27.5,56.5 5.8,-2.1 17.4,-6.2 23.2,-8.2 33.4,-11.7 64.7,-28.8 99,-37.9 9.5,7.7 15.8,18.5 23,28.2" /><path
         id="path88"
         style="fill:#e4348c;fill-opacity:1;fill-rule:nonzero;stroke:none"
         d="m 6826.85,3260.91 c 30.9,38 35.4,101.8 90.2,115.8 -0.1,-67.1 -32.5,-129.9 -80.8,-175.2 -80.8,-78.7 -188.2,-121.5 -295.1,-151.4 61.8,-80.5 116.7,-176.6 214.6,-217.9 103.4,-39.2 215.9,-10.1 322.9,-25 -99.5,-40.7 -213.8,-44.7 -318.3,-22 -125.2,29.3 -206.4,138.7 -271.7,241.3 -89.6,6.5 -183.1,20 -259.1,71.4 -58.7,40.1 -102.2,103.5 -114.4,173.8 61.4,-44.2 107,-107.8 173.4,-145.8 77.5,-48.7 174.6,-47.9 261.5,-30.4 106.1,23.9 208.9,78.9 276.8,165.4" /><path
         id="path90"
         style="fill:#d7f2fb;fill-opacity:1;fill-rule:nonzero;stroke:none"
         d="m 3873.45,6733.81 c 95.1,60.5 211,88 323,71.9 -84.2,-36.2 -170.3,-69.1 -249.7,-115.4 -94.6,-57.2 -168.9,-144.9 -213.5,-245.8 -52.3,-98.4 -90.5,-205.4 -99.7,-317 -6.4,-116.9 -15.8,-238.3 27.8,-349.7 13.4,-3.1 26.9,-6.4 40.5,-9.1 -48.3,1.7 -96.6,2.4 -144.8,0.6 -35.5,199.2 -28.7,409 40.4,600.4 52.8,144.8 143,281.8 276,364.1" /><path
         id="path92"
         style="fill:#d7f2fb;fill-opacity:1;fill-rule:nonzero;stroke:none"
         d="m 5161.45,6636.71 c 93.3,69.7 209.9,111.6 327.2,103.1 167.4,-8.2 319,-113.3 407.4,-252.2 -19,13.1 -37.7,26.8 -54.9,42 -106.7,92.6 -251.4,138.9 -392.1,126.8 -163.2,-11.9 -317,-105.4 -404.9,-243 -34.3,-54.9 -67.8,-111.4 -86.1,-174 -35,-104.7 -18.4,-216.9 -40.2,-324.1 -7.2,81.1 -19.4,161.8 -40.6,240.4 -10.4,33.8 5.9,67.1 16.3,98.7 51.9,148.5 140.1,288.1 267.9,382.3" /><path
         id="path94"
         style="fill:#d7f2fb;fill-opacity:1;fill-rule:nonzero;stroke:none"
         d="m 4918.85,5901.51 c 21.8,-69.9 16.9,-143.8 31.7,-214.9 16.7,-1.4 33.5,-3 50.4,-4 -29.9,-0.6 -59.8,-1.5 -89.5,-4.5 8,74.2 10.7,148.8 7.4,223.4" /><path
         id="path96"
         style="fill:#d7f2fb;fill-opacity:1;fill-rule:nonzero;stroke:none"
         d="m 3584.15,5652.81 c 37,0 74.1,0.3 111.3,0.1 22.4,-93 67.6,-179.2 121.2,-257.9 91.1,-128.2 242.6,-198 394,-223.9 148.8,-22.5 306.7,20.2 421.4,118.2 2.7,-36 -2.5,-71.8 -9.5,-107.1 l -2,-1.9 c -72.3,-71.2 -159.3,-131.3 -260,-152.8 -145.2,-36 -300.9,4.3 -420.9,90.4 -179.4,127.1 -296.3,325.9 -355.5,534.9" /><path
         id="path98"
         style="fill:#d7f2fb;fill-opacity:1;fill-rule:nonzero;stroke:none"
         d="m 5788.55,5378.61 c 31.2,24.5 59.4,52.7 92.8,74.4 -62.8,-97.7 -150.3,-180.6 -254.2,-233.4 -97.3,-51.4 -212.1,-64.8 -319.3,-41.9 -15,42.5 -25.3,86.4 -30,131.2 62.4,-18.5 126.4,-35.2 192.1,-33.8 113.9,-1.5 226.5,37.2 318.6,103.5" /><path
         id="path100"
         style="fill:#d7f2fb;fill-opacity:1;fill-rule:nonzero;stroke:none"
         d="m 5021.05,5362.01 c 63.3,-6.6 126.8,-38.6 154.9,-98.4 -1.4,-6.4 -4.2,-19.3 -5.6,-25.7 -60.4,25.4 -106.3,76.1 -149.3,124.1" /><path
         id="path102"
         style="fill:#ffffff;fill-opacity:1;fill-rule:nonzero;stroke:none"
         d="m 3946.75,6690.31 c 79.4,46.3 165.5,79.2 249.7,115.4 83.7,-10 163.7,-42.6 233.6,-89.2 138.4,-91.3 240.7,-229.4 308.5,-379.2 92.8,-208.2 130,-442.7 97.3,-668.9 -95.5,-5.1 -192.3,-13.2 -287.1,4.5 -49.5,8.9 -98.1,21.7 -147.6,30.4 17.5,108 10.8,222.2 -33.1,323.3 -20.2,45.3 -48.9,89.6 -92.1,115.9 -37.8,23.2 -89.8,21.1 -124.8,-6.3 -50.2,-37.6 -76.5,-98.2 -92.1,-157.2 -18.6,-74.5 -22.6,-152.8 -9.2,-228.5 -115.2,16.4 -232,15.8 -348,18.2 -13.6,2.7 -27.1,6 -40.5,9.1 -43.6,111.4 -34.2,232.8 -27.8,349.7 9.2,111.6 47.4,218.6 99.7,317 44.6,100.9 118.9,188.6 213.5,245.8" /><path
         id="path104"
         style="fill:#ffffff;fill-opacity:1;fill-rule:nonzero;stroke:none"
         d="m 5044.15,6413.41 c 87.9,137.6 241.7,231.1 404.9,243 140.7,12.1 285.4,-34.2 392.1,-126.8 17.2,-15.2 35.9,-28.9 54.9,-42 115.1,-166.4 151.2,-376 138.3,-574.9 -3.4,-0.8 -10.3,-2.5 -13.7,-3.3 -211.5,-34.4 -421.1,-84.1 -622.8,-156.9 16.5,120.9 6.9,251 -55.9,358.3 -28,46.3 -73,93.1 -131.5,90.8 -58.6,-0.2 -101.2,-49.9 -126.1,-98 -62.5,-129.8 -60.2,-285.3 -11.5,-419.3 -24,-1.1 -48,-1.7 -71.9,-1.7 -16.9,1 -33.7,2.6 -50.4,4 -14.8,71.1 -9.9,145 -31.7,214.9 -0.2,3.4 -0.7,10.4 -1,13.8 21.8,107.2 5.2,219.4 40.2,324.1 18.3,62.6 51.8,119.1 86.1,174" /><path
         id="path106"
         style="fill:#ffffff;fill-opacity:1;fill-rule:nonzero;stroke:none"
         d="m 5115.15,6033.01 c 14.2,25.9 45.5,21.6 69.9,17.7 11.1,-20.6 25.7,-46.5 9.2,-68.7 -10.8,-19.8 -35.1,-20.1 -54.5,-22.7 -24.4,15 -43.8,46.7 -24.6,73.7" /><path
         id="path108"
         style="fill:#ffffff;fill-opacity:1;fill-rule:nonzero;stroke:none"
         d="m 4118.25,5989.41 c 14.4,28.4 49.7,27.3 74.6,14.6 11.3,-18.8 20.9,-44.3 5.7,-64 -12.1,-20.7 -37.5,-19.4 -58.2,-20.4 -20.4,16.3 -38.1,44.1 -22.1,69.8" /><path
         id="path110"
         style="fill:#ffffff;fill-opacity:1;fill-rule:nonzero;stroke:none"
         d="m 5097.95,5927.51 c 6.1,10.7 16,18.5 26.3,24.8 13.5,-7.8 32.7,-14.5 31.7,-33.8 -0.1,-22.1 -24.3,-26 -40.3,-32 -7.5,12.8 -20.3,24.9 -17.7,41" /><path
         id="path112"
         style="fill:#ffffff;fill-opacity:1;fill-rule:nonzero;stroke:none"
         d="m 4105.25,5886.31 c 6.9,8.8 14.5,17.1 22.7,24.8 12.3,-9.1 33,-14.3 33.2,-33.2 2.9,-24.8 -25.4,-29.2 -42.9,-33.8 -5.2,13.5 -18.8,26.8 -13,42.2" /><path
         id="path114"
         style="fill:#ffffff;fill-opacity:1;fill-rule:nonzero;stroke:none"
         d="m 5498.55,5641.71 c 164,75 341.4,114.7 518.2,145.7 -26,-117.9 -66.8,-234.1 -135.4,-334.4 -33.4,-21.7 -61.6,-49.9 -92.8,-74.4 -92.1,-66.3 -204.7,-105 -318.6,-103.5 -65.7,-1.4 -129.7,15.3 -192.1,33.8 -12.5,96.7 25.7,197.1 99.5,260.8 35.1,32 78.3,52.7 121.2,72" /><path
         id="path116"
         style="fill:#ffffff;fill-opacity:1;fill-rule:nonzero;stroke:none"
         d="m 3695.45,5652.91 c 130.1,0.8 260.9,-6.1 389.3,-27.5 l 1.4,-2.7 c 26.5,-60.3 73.5,-124.1 144.4,-130.5 54.4,-1.5 97.8,39.3 123.7,83.3 89.8,-25.9 180.8,-68 238.8,-144.1 27,-41.4 44.1,-92.5 39,-142.1 -114.7,-98 -272.6,-140.7 -421.4,-118.2 -151.4,25.9 -302.9,95.7 -394,223.9 -53.6,78.7 -98.8,164.9 -121.2,257.9" /><path
         id="path118"
         style="fill:#ffffff;fill-opacity:1;fill-rule:nonzero;stroke:none"
         d="m 10250.7,5369.51 c 68.8,9.9 132.5,40.3 200.5,53.9 28.3,7.9 55.1,-9.9 73.2,-30.1 47.5,-53.7 55.2,-137.4 20.6,-199.9 -51.8,-94.6 -157.5,-155.9 -265,-157.1 -61.7,-0.3 -118.8,26.1 -174.6,49.2 -7.1,-15.7 -14,-31.6 -20.9,-47.4 31.8,-22.8 68,-43.7 86.5,-79.9 17.2,-33.4 27.5,-69.8 41.3,-104.7 30.1,32.2 45.5,73.9 57.3,115.6 42.7,2.7 85.6,3.9 128.4,7.8 -55.4,-70.4 -107.1,-143.8 -166,-211.4 -92.2,-104.3 -180.4,-211.9 -269.95,-318.6 -97.1,9.6 -195.1,53.2 -247.4,139.1 2.7,8.2 8,24.7 10.7,32.9 -25.1,-14.2 -50.2,-28.6 -73.2,-46 -39.5,0.9 -79.7,-0.1 -118.2,9.7 -33.5,9.6 -64.7,25 -96.7,38.1 -7.1,74.5 7.5,154.9 54.6,214.7 26.1,25.8 59.2,50.7 96.3,55.4 26.8,-21 46.9,-49.3 73.3,-70.9 29.6,-24.5 65.5,-39.1 100.4,-54.4 -43.5,76.2 -98,149.1 -116.5,236.6 -15.2,74.7 11.9,149.8 45.4,215.5 41,77 109.9,148 199.2,162.5 120.45,21.4 240.25,-29.3 360.75,-10.6" /><path
         id="path120"
         style="fill:#ffffff;fill-opacity:1;fill-rule:nonzero;stroke:none"
         d="m 10843.5,4973.41 c 137.6,11.9 264.2,-105 289.3,-236.2 2.7,-64.7 -47.5,-117.4 -93.1,-156.4 -56.3,-1 -120.1,3.5 -162.6,45 -30,31.1 -51.2,69.3 -78.6,102.5 -26.3,34.5 -56.5,73.2 -52,119.2 9.4,53.9 45,105.8 97,125.9" /><path
         id="path122"
         style="fill:#ffffff;fill-opacity:1;fill-rule:nonzero;stroke:none"
         d="m 10612.1,4782.91 c 12.8,24.3 31.7,44.4 54.1,60.2 3.9,-33.1 -21.2,-59.3 -54.1,-60.2" /><path
         id="path124"
         style="fill:#ffffff;fill-opacity:1;fill-rule:nonzero;stroke:none"
         d="m 10537.8,4668.31 c 31,49.7 103.9,58.9 152.4,30.5 42.9,-27 66.1,-74 101.3,-109.1 29,-28.9 68.3,-43.4 105.8,-58.1 -2.6,-57 -16.4,-121 -64.9,-156.9 -42.9,-33.1 -103.1,-25.2 -148.9,-2.8 -64.5,28.7 -108.5,88.3 -137.4,150.7 -21.3,44.8 -27.7,99.3 -8.3,145.7" /><path
         id="path126"
         style="fill:#ffffff;fill-opacity:1;fill-rule:nonzero;stroke:none"
         d="m 10375.7,4389.81 c 22.7,36 64.3,47.5 104.8,45.9 33.4,-32.5 71.1,-62.5 94,-103.9 20.7,-41.6 26.2,-88.4 36,-133.4 -13.7,-12.1 -27.3,-24.3 -40.4,-36.8 -60.8,16.3 -116.6,52 -150.8,105.6 -25,36.4 -32.2,80.9 -43.6,122.6" /><path
         id="path128"
         style="fill:#ffffff;fill-opacity:1;fill-rule:nonzero;stroke:none"
         d="m 3452.75,4035.41 c 60.6,-15.6 117.7,-41.5 177.2,-60.5 5.9,-66.3 -1.1,-132.9 3.1,-199.3 -1.9,-27.6 -5.6,-55.2 -9.4,-82.7 -66.1,109.3 -118.8,226.1 -170.9,342.5" /><path
         id="path130"
         style="fill:#ffffff;fill-opacity:1;fill-rule:nonzero;stroke:none"
         d="m 4689.95,3958.31 c 57.8,7 116.1,8 174,13.4 38.4,-107.5 79.1,-214.4 108.5,-324.8 -76.5,-19.9 -155.2,-28 -233.1,-39.9 -95.2,-11.8 -189.7,-29.3 -285.1,-39.5 -11.9,130.9 -17,263.5 -3.4,394.4 79.6,-2.5 159.5,-12.7 239.1,-3.6" /><path
         id="path132"
         style="fill:#ffffff;fill-opacity:1;fill-rule:nonzero;stroke:none"
         d="m 3690.05,3958.51 c 111.9,-23.3 225.1,-45.3 339.9,-43.4 113.6,-4.7 227,4.1 339,23 2.3,-5.3 6.8,-15.9 9.1,-21.2 12.1,-120 7,-240.9 13.9,-361.2 -126.5,-24.8 -255.2,-36.6 -381.7,-61 -73.3,-14.3 -147.6,-21.2 -221.8,-28.6 -38.4,42.8 -78.1,85.7 -103.2,138.1 8.7,67.5 -0.3,135.4 1.6,203.2 1.2,50.4 2.6,100.7 3.2,151.1" /><path
         id="path134"
         style="fill:#ffffff;fill-opacity:1;fill-rule:nonzero;stroke:none"
         d="m 612.953,3005.11 c 61.801,110 179.598,187.6 306.699,193.2 19.899,-38.4 36.801,-78.1 50.102,-119.2 -51.703,-15.4 -103.5,-32.7 -148.902,-62.7 -63.5,-39.4 -131.801,-70.7 -201.098,-98.7 -5.801,28.2 -19.801,59.4 -6.801,87.4" /><path
         id="path136"
         style="fill:#ffffff;fill-opacity:1;fill-rule:nonzero;stroke:none"
         d="m 929.254,3014.41 c 41.5,7.8 83.496,11.8 125.496,15.5 43.9,-48.6 94.6,-91.2 131.2,-146.1 159.5,-214.6 180,-520.4 54.1,-755.8 -23.8,-47.2 -56.4,-89 -82.3,-135 -40.2,-34.1 -96.4,-43.9 -147.7,-39.2 -56.796,4.3 -115.597,-3.2 -166.796,-29.1 -32.102,-16.5 -40.402,-69.7 -83.301,-63.2 -58.801,-1.5 -115,20.7 -163.5,52.4 -72.5,46 -169,37.4 -234.902,95.7 -116.899,102.6 -233.5,222 -273.3987,376.9 -12.8984,51 -21.8984,109.5 5.1016,157.4 32.0001,39.1 97.8981,63.7 140.6991,27.5 52.399,-39.1 110.801,-81.6 129.699,-147.7 18.102,-63.6 32.5,-128.3 51.399,-191.7 8.801,-52.2 9.402,-105.6 21.801,-157.3 13.5,-1.4 27.101,-2.8 40.699,-4.5 7.101,13.3 14.203,26.6 21.402,39.6 24.801,-29.8 46.801,-62 71.598,-92 6.203,2.3 18.402,7.1 24.601,9.4 -38,70.5 -89.101,134.5 -113,212 -21.5,71.5 -55.199,142.5 -49.101,219 5.902,97.7 25.101,200.3 86.703,279.1 49.898,50.3 100.098,100.7 156.5,143.6 38.898,30.4 85.199,48.3 126.898,74.2 39.5,24.4 80.301,49 126.102,59.3" /><path
         id="path138"
         style="fill:#ffffff;fill-opacity:1;fill-rule:nonzero;stroke:none"
         d="m 293.754,2657.61 c -1,97.3 104.598,166.8 195,149.1 -52.5,-84.4 -106.902,-173.4 -112.902,-275.4 -31.399,38.7 -85.399,70 -82.098,126.3" /><path
         id="path140"
         style="fill:#ffffff;fill-opacity:1;fill-rule:nonzero;stroke:none"
         d="m 5517.65,962.109 c 67.7,53.101 133.9,108.001 203.6,158.601 49.9,0.1 99.8,1.8 149.8,2.2 -75.6,-62.4 -147.6,-129.601 -229.9,-183.301 -41.3,6.903 -82.4,14.602 -123.5,22.5" /><path
         id="path142"
         style="fill:#ffffff;fill-opacity:1;fill-rule:nonzero;stroke:none"
         d="m 5707.25,920.809 c 78.6,70.5 165.9,131.201 254.3,188.601 48.5,-2.3 96,-15.4 144,-23.4 -93.7,-62.2 -184.3,-129.901 -262.7,-210.901 -45,16 -90,31.7 -135.6,45.7" /><path
         id="path144"
         style="fill:#ffffff;fill-opacity:1;fill-rule:nonzero;stroke:none"
         d="m 3339.25,1096.21 c 47.4,0.6 94.9,1.8 142.3,0.1 11.9,-0.7 20.5,-10.3 30.3,-16.2 60.9,-44.3 121,-89.801 179.7,-137.001 -40.2,-7.097 -80,-15.699 -120.1,-22.898 -83.3,50.598 -154.3,117.899 -232.2,175.999" /><path
         id="path146"
         style="fill:#ffffff;fill-opacity:1;fill-rule:nonzero;stroke:none"
         d="m 3105.85,1056.11 c 41.7,9 83.4,18.4 125.6,25.3 14.8,5.7 26.7,-6.1 38.6,-13 81.3,-52 159.2,-109.199 235.8,-168 -45.7,-15.5 -90.8,-32.301 -136.2,-48.301 -78.3,79.602 -169.9,144.301 -263.8,204.001" /><path
         id="path148"
         style="fill:#ffffff;fill-opacity:1;fill-rule:nonzero;stroke:none"
         d="m 5891.05,855.91 c 85.5,85.399 186.5,153.1 287.9,218 24.2,-9.1 48.4,-18.6 72.5,-28.5 -71.4,-44.8 -143.2,-89 -210.3,-140.199 -25.2,-17.301 -48.4,-37.801 -75.4,-52.5 -24,-9.703 -50.2,0.5 -74.7,3.199" /><path
         id="path150"
         style="fill:#ffffff;fill-opacity:1;fill-rule:nonzero;stroke:none"
         d="m 2959.05,1012.61 c 23.7,10.3 47.5,20.2 71.6,29.6 101.9,-62.901 203.1,-128.698 290.7,-210.999 -28.2,-3.902 -60.8,-17.402 -85.9,3.098 -90.2,62.402 -179.6,126.402 -276.4,178.301" /><path
         id="path152"
         style="fill:#ffffff;fill-opacity:1;fill-rule:nonzero;stroke:none"
         d="m 6167.45,930.711 c 51.4,39.199 112,63 169.9,90.599 162.2,-57.798 312.5,-150.298 432.9,-273.802 24.5,-20.996 40.1,-58.797 20.4,-88.199 -42.3,-64.7 -116.1,-100.797 -189.4,-117.899 -153.5,-38 -311.9,-69.801 -470.7,-55.902 -143.6,15.301 -287.6,31.703 -428.1,66.004 85,90.699 187,162.398 281.9,241.898 62.1,44.399 121.8,91.899 183.1,137.301" /><path
         id="path154"
         style="fill:#ffffff;fill-opacity:1;fill-rule:nonzero;stroke:none"
         d="m 2440.25,697.809 c 119.3,129.601 270.8,228.902 436.4,288.5 64.4,-31.301 132.4,-57.297 189.1,-102.098 75.6,-58 156.1,-109.402 229.5,-170.301 77.1,-56.699 152.9,-115.801 219.9,-184.398 -169.2,-39.403 -341.2,-71.203 -515.1,-78.5 -135.7,-1.403 -269.6,25.297 -400.7,57.699 -68,16.898 -135.2,52.5 -174.1,112.699 -16,25 -3.7,56.899 15,76.399" /><path
         id="path156"
         style="fill:#ffffff;fill-opacity:1;fill-rule:nonzero;stroke:none"
         d="m 4745.05,861.512 c 147.4,-60 295.1,-119.102 439.2,-186.801 160.3,-62.801 317,-137.102 484.5,-179.5 134.7,-37 273.3,-57.602 412.2,-70.5 188.9,-13.699 381.3,8.297 560.3,71.598 44.7,16.203 91.5,30.3 129.3,60.402 34.9,25.699 60.9,60.699 89.6,92.5 30.7,-66 60.5,-132.801 79.7,-203.199 -71,-137.903 -213,-232.903 -365.5,-254.403 -134,-19.597 -270.3,-29.199 -405.5,-17.597 -119.2,10.398 -234.7,43.199 -348.7,77.699 -155.3,49.699 -307.4,110 -453,183.598 -89.8,47.3 -182.6,88.5 -270.8,139 -97.8,56.199 -200,104.8 -296,164.101 -27.1,36.199 -39.1,81.399 -55.3,123.102" /><path
         id="path158"
         style="fill:#ffffff;fill-opacity:1;fill-rule:nonzero;stroke:none"
         d="m 4294.45,782.711 c 58.4,23.098 115.1,50.098 172.8,74.797 -13.9,-40.199 -27.4,-81.098 -47.2,-118.899 -77.8,-54.3 -164.4,-94.699 -245.7,-143.3 -307.2,-177.098 -626.8,-342.5 -973.5,-426.2 -127.7,-33.199 -260.9,-35.597 -391.9,-30.097 -102.4,5.199 -207.6,13.097 -302,56.597 -90.9,42.7 -175.2,110.403 -219.8,201.903 7.2,73.097 43,140.199 71.5,207.097 41.2,-51.398 88.9,-101.3 152,-125 192.9,-74.5 403.1,-102.097 609.1,-85.8 88.3,5.703 175.1,23.5 262.2,38.101 191,34.699 372,108.199 548.8,186.5 123.3,50.199 240.8,113.199 363.7,164.301" /><path
         id="path160"
         style="fill:#2b53a9;fill-opacity:1;fill-rule:nonzero;stroke:none"
         d="m 5084.35,6103.61 c 24.9,48.1 67.5,97.8 126.1,98 58.5,2.3 103.5,-44.5 131.5,-90.8 62.8,-107.3 72.4,-237.4 55.9,-358.3 -4.5,-1.8 -13.5,-5.2 -18,-6.9 10.1,96.4 11.9,196.8 -24.5,288.4 -19.9,51 -49.3,103.4 -99.4,129.7 -43.8,21.9 -96.8,0.3 -125.1,-36.5 -60.3,-74.9 -75.6,-175.6 -72.1,-269.1 0.8,-59.3 17.4,-116.6 34.8,-172.8 -5.2,-0.2 -15.5,-0.7 -20.7,-1 -48.7,134 -51,289.5 11.5,419.3" /><path
         id="path162"
         style="fill:#2b53a9;fill-opacity:1;fill-rule:nonzero;stroke:none"
         d="m 4151.15,6136.21 c 35,27.4 87,29.5 124.8,6.3 43.2,-26.3 71.9,-70.6 92.1,-115.9 43.9,-101.1 50.6,-215.3 33.1,-323.3 -4.8,0.9 -14.3,2.6 -19,3.4 20.1,110.9 10.6,230.2 -43,330.8 -20.8,36.8 -49.4,73.1 -90.2,88.1 -48.1,14.9 -97.1,-14.5 -122.9,-54.2 -65,-93.4 -70.7,-214 -56.8,-323.5 -4.8,0.6 -14.5,1.9 -19.4,2.6 -13.4,75.7 -9.4,154 9.2,228.5 15.6,59 41.9,119.6 92.1,157.2" /><path
         id="path164"
         style="fill:#2b53a9;fill-opacity:1;fill-rule:nonzero;stroke:none"
         d="m 5185.05,6050.71 c 32.9,6.5 69.4,1 90,-28.2 65.3,-83.4 63.8,-202.6 26.5,-297.8 4.8,0.2 14.3,0.4 19.1,0.5 -49,-15.2 -99.5,-24.6 -150.2,-31.9 -40.2,55.9 -59.4,124.5 -54.8,193.2 16,6 40.2,9.9 40.3,32 1,19.3 -18.2,26 -31.7,33.8 3.9,1.8 11.6,5.3 15.5,7 19.4,2.6 43.7,2.9 54.5,22.7 16.5,22.2 1.9,48.1 -9.2,68.7" /><path
         id="path166"
         style="fill:#2b53a9;fill-opacity:1;fill-rule:nonzero;stroke:none"
         d="m 4192.85,6004.01 c 32.1,13.8 68,2.7 88.4,-25.3 56.9,-73.4 59,-174.3 39.2,-261.5 -63.5,10.4 -127.3,19.4 -191.3,25.2 -5.5,33.7 -8.4,67.7 -10.9,101.7 17.5,4.6 45.8,9 42.9,33.8 -0.2,18.9 -20.9,24.1 -33.2,33.2 3.1,2.1 9.3,6.4 12.4,8.5 20.7,1 46.1,-0.3 58.2,20.4 15.2,19.7 5.6,45.2 -5.7,64" /><path
         id="path168"
         style="fill:#468ad0;fill-opacity:1;fill-rule:nonzero;stroke:none"
         d="m 5130.85,6127.21 c 28.3,36.8 81.3,58.4 125.1,36.5 50.1,-26.3 79.5,-78.7 99.4,-129.7 36.4,-91.6 34.6,-192 24.5,-288.4 -19.6,-7.4 -39.1,-14.7 -59.2,-20.4 -4.8,-0.1 -14.3,-0.3 -19.1,-0.5 37.3,95.2 38.8,214.4 -26.5,297.8 -20.6,29.2 -57.1,34.7 -90,28.2 -24.4,3.9 -55.7,8.2 -69.9,-17.7 -19.2,-27 0.2,-58.7 24.6,-73.7 -3.9,-1.7 -11.6,-5.2 -15.5,-7 -10.3,-6.3 -20.2,-14.1 -26.3,-24.8 -2.6,-16.1 10.2,-28.2 17.7,-41 -4.6,-68.7 14.6,-137.3 54.8,-193.2 -25.6,-3.4 -51.3,-6 -76.9,-8 -17.4,56.2 -34,113.5 -34.8,172.8 -3.5,93.5 11.8,194.2 72.1,269.1" /><path
         id="path170"
         style="fill:#468ad0;fill-opacity:1;fill-rule:nonzero;stroke:none"
         d="m 4126.05,6071.41 c 25.8,39.7 74.8,69.1 122.9,54.2 40.8,-15 69.4,-51.3 90.2,-88.1 53.6,-100.6 63.1,-219.9 43,-330.8 -20.6,3.6 -41.1,7.1 -61.7,10.5 19.8,87.2 17.7,188.1 -39.2,261.5 -20.4,28 -56.3,39.1 -88.4,25.3 -24.9,12.7 -60.2,13.8 -74.6,-14.6 -16,-25.7 1.7,-53.5 22.1,-69.8 -3.1,-2.1 -9.3,-6.4 -12.4,-8.5 -8.2,-7.7 -15.8,-16 -22.7,-24.8 -5.8,-15.4 7.8,-28.7 13,-42.2 2.5,-34 5.4,-68 10.9,-101.7 -20,1.8 -40,3.4 -59.9,5.5 -13.9,109.5 -8.2,230.1 56.8,323.5" /><path
         id="path172"
         style="fill:#468ad0;fill-opacity:1;fill-rule:nonzero;stroke:none"
         d="m 4086.15,5622.71 c 90.6,-4.9 181.4,-19.6 268.1,-47.2 -25.9,-44 -69.3,-84.8 -123.7,-83.3 -70.9,6.4 -117.9,70.2 -144.4,130.5" /><path
         id="path174"
         style="fill:#100f0d;fill-opacity:1;fill-rule:nonzero;stroke:none"
         d="m 2618.05,5548.71 c 53,-30.9 119.5,-28.4 177.3,-14.8 11.3,3 35.8,15.5 19,28.2 -33.7,20.7 -75.9,19.4 -114.1,18.8 -29.1,-3.3 -66.1,-2.8 -82.2,-32.2 z m 312.5,-31.6 c -68.1,-71.5 -78.8,-175.3 -73.5,-269.5 -7.2,-65.5 27.6,-123.7 52.1,-181.7 28.3,-58.7 63.3,-116.7 113,-159.8 68.6,-88.1 175.8,-131.1 268.7,-187.9 76,-28.3 154.9,-48.7 233.9,-66.9 135.4,-30.8 275.9,-29.6 413.3,-15.2 191,22.5 385.3,92 519.2,235.4 l 2.6,0.1 c 49.8,58.1 96.3,119.7 126.1,190.8 l 1.6,0.8 c 12,38.8 30.3,76.1 33,117.1 l 2,1.9 c 7,35.3 12.2,71.1 9.5,107.1 5.1,49.6 -12,100.7 -39,142.1 -58,76.1 -149,118.2 -238.8,144.1 -86.7,27.6 -177.5,42.3 -268.1,47.2 l -1.4,2.7 c -128.4,21.4 -259.2,28.3 -389.3,27.5 -37.2,0.2 -74.3,-0.1 -111.3,-0.1 -29,0.6 -58,0.3 -86.9,2.3 l -5.4,-7.3 c -77.8,5.5 -155.7,-3.7 -233.5,-5.2 -118.4,-3.2 -242.9,-39.1 -327.8,-125.5 z m 4060.4,308 c -24.9,-5 -54.6,-10.4 -65.6,-36.7 37.5,-23.9 84,-22.6 126.4,-16 24.4,4.3 52.2,10.8 64.1,35.4 -36.6,24.6 -83.1,23.5 -124.9,17.3 z m -581.6,10.7 c -103.6,-9.4 -207.4,-16.8 -310.1,-33.5 -27.5,-5.5 -55,-10.3 -82.5,-14.9 -176.8,-31 -354.2,-70.7 -518.2,-145.7 -42.9,-19.3 -86.1,-40 -121.2,-72 -73.8,-63.7 -112,-164.1 -99.5,-260.8 4.7,-44.8 15,-88.7 30,-131.2 8.7,-19.3 17.6,-38.6 26,-58.2 23.9,-50.7 58.4,-95.2 94.3,-137.9 l 4.2,1.7 c 39.7,-49.5 97.4,-78.5 150.7,-110.6 89.1,-35.6 178.8,-74.8 275.7,-82.7 225.7,-21.5 456.5,4.8 670.7,79.8 167.1,60.8 320.2,185.5 379.4,357.4 45.4,135.4 49.6,285.6 4.9,421.7 -43.2,103.2 -145.6,174.4 -254.4,192.3 -83.1,12.7 -166.9,-0.5 -250,-5.4 z m -78.9,106.3 c 66.5,2.1 132.2,14.8 198.8,14.6 160.5,0 321,1.6 481.3,-6 21.9,-1.2 43.8,-2.6 65.8,-4.5 29.6,-3.2 59.3,-6.5 88.9,-10.3 9.9,-56.3 16.8,-113.2 29.5,-168.9 1.3,-15.2 2.5,-30.4 3.6,-45.6 -9.5,-10.1 -18.8,-20.2 -28.2,-30.3 -39.2,-36.8 -66.8,-83.2 -90.8,-130.8 -21.2,-48.5 -20.6,-102.1 -24.5,-153.9 -10.9,-85.1 -31.6,-169.2 -68.3,-247.1 -20.5,-59.6 -62.1,-108.2 -104.7,-153.3 -153.2,-137.6 -351.9,-212.2 -552.2,-248.8 -122,-21.8 -244.7,-46.6 -369.3,-42.5 -117.6,7.9 -237.4,13.2 -349.9,51.7 -135.2,41.3 -256.8,126.3 -339.8,240.9 -32.5,47.1 -59.4,98.6 -75.4,153.8 -6.1,26.2 -10.9,53.4 -24.9,76.8 1.4,6.4 4.2,19.3 5.6,25.7 -28.1,59.8 -91.6,91.8 -154.9,98.4 -25.4,2.7 -51,3 -76.5,1.9 -64.9,-7.3 -138.2,-23.7 -176.9,-81.8 -40.6,-49.5 -26.2,-117.3 -44.8,-174.9 -24.1,-86.9 -71.8,-164.9 -126.1,-236 -86.8,-93 -187.5,-176.2 -305.8,-225.6 -96.2,-41.5 -200.2,-59.7 -302.9,-76.9 -91.5,-21 -185.6,-7.6 -278.2,-7.5 -218.6,9.5 -438.7,67.2 -624.6,184.6 -41.4,24.2 -81.2,51 -117.6,82.2 -46.3,41.2 -87.1,88.4 -123.6,138.4 -13.5,20.6 -26.4,41.6 -38.2,63.2 -18.6,36.6 -37.1,73.4 -49.5,112.6 -16.7,53.7 -15.2,114.3 -50,161.1 -37.5,67.1 -102.5,111.5 -167.1,149.4 -193.4,59.6 -400.2,84.2 -579.5,183.7 -55.3,32.2 -108.8,67.5 -166.9,94.6 -28,13.1 -56.5,25.5 -86.1,34.4 -74.3,17.6 -151.4,22.3 -227.5,19.7 -65.4,-4.7 -133.4,-12.2 -191.7,-44.7 -92.1,-46.7 -170.2,-115.8 -240.7,-190.4 -49.397,-49.7 -103.096,-107.8 -177.397,-114.2 -21.801,-4.1 -44.601,6.8 -52.801,27.8 -18.8,43.6 -33.199,98.2 -3.3,140.4 60.699,90.8 162,144 262.098,180.5 127.8,45.3 259.6,80.8 394,99.2 104.6,14.7 209.4,-5.1 312,-24.5 38.2,-7.8 76.2,-17.1 114.6,-24.4 68,-12.6 134.6,-31.7 202.1,-46.8 89.2,-23.8 180.9,-35.3 270.5,-57.5 84.4,-16.8 166.6,-43.9 251.3,-59.1 106.7,15.9 212.9,36.2 320.2,48.7 176.7,20.5 353.4,51.3 531.9,46.5 28.4,0 56.7,1.7 85,2.7 48.2,1.8 96.5,1.1 144.8,-0.6 116,-2.4 232.8,-1.8 348,-18.2 4.9,-0.7 14.6,-2 19.4,-2.6 19.9,-2.1 39.9,-3.7 59.9,-5.5 64,-5.8 127.8,-14.8 191.3,-25.2 20.6,-3.4 41.1,-6.9 61.7,-10.5 4.7,-0.8 14.2,-2.5 19,-3.4 49.5,-8.7 98.1,-21.5 147.6,-30.4 94.8,-17.7 191.6,-9.6 287.1,-4.5 25.2,3.1 50.3,7.1 75.6,9.7 29.7,3 59.6,3.9 89.5,4.5 23.9,0 47.9,0.6 71.9,1.7 5.2,0.3 15.5,0.8 20.7,1 25.6,2 51.3,4.6 76.9,8 50.7,7.3 101.2,16.7 150.2,31.9 20.1,5.7 39.6,13 59.2,20.4 4.5,1.7 13.5,5.1 18,6.9 201.7,72.8 411.3,122.5 622.8,156.9 29.9,4.3 59.9,8.3 90,12.4 73,8.7 146.1,18.2 219.8,20.3" /><path
         id="path176"
         style="fill:#c8c6de;fill-opacity:1;fill-rule:nonzero;stroke:none"
         d="m 6990.95,5825.11 c 41.8,6.2 88.3,7.3 124.9,-17.3 -11.9,-24.6 -39.7,-31.1 -64.1,-35.4 -42.4,-6.6 -88.9,-7.9 -126.4,16 11,26.3 40.7,31.7 65.6,36.7" /><path
         id="path178"
         style="fill:#c8c6de;fill-opacity:1;fill-rule:nonzero;stroke:none"
         d="m 2618.05,5548.71 c 16.1,29.4 53.1,28.9 82.2,32.2 38.2,0.6 80.4,1.9 114.1,-18.8 16.8,-12.7 -7.7,-25.2 -19,-28.2 -57.8,-13.6 -124.3,-16.1 -177.3,14.8" /><path
         id="path180"
         style="fill:#7ebee8;fill-opacity:1;fill-rule:nonzero;stroke:none"
         d="m 10249.5,5455.51 c 68,1.4 123.3,49.2 189.5,58.8 55.1,5.5 112.9,-16.7 148.5,-59.6 40.5,-47.2 62.1,-108.8 67.4,-170.3 -27.3,-137.2 -128.3,-254.5 -256.9,-307.5 -42.8,-3.9 -85.7,-5.1 -128.4,-7.8 -11.8,-41.7 -27.2,-83.4 -57.3,-115.6 -13.8,34.9 -24.1,71.3 -41.3,104.7 -18.5,36.2 -54.7,57.1 -86.5,79.9 6.9,15.8 13.8,31.7 20.9,47.4 55.8,-23.1 112.9,-49.5 174.6,-49.2 107.5,1.2 213.2,62.5 265,157.1 34.6,62.5 26.9,146.2 -20.6,199.9 -18.1,20.2 -44.9,38 -73.2,30.1 -68,-13.6 -131.7,-44 -200.5,-53.9 -120.5,-18.7 -240.3,32 -360.75,10.6 -89.3,-14.5 -158.2,-85.5 -199.2,-162.5 -33.5,-65.7 -60.6,-140.8 -45.4,-215.5 18.5,-87.5 73,-160.4 116.5,-236.6 -34.9,15.3 -70.8,29.9 -100.4,54.4 -26.4,21.6 -46.5,49.9 -73.3,70.9 -37.1,-4.7 -70.2,-29.6 -96.3,-55.4 -47.1,-59.8 -61.7,-140.2 -54.6,-214.7 7.2,-60.4 29,-120.3 68.5,-167.2 33.9,-39.2 86.8,-52.1 136,-59.7 -10.9,34.3 -27.1,67.6 -29.4,103.8 -1.1,30.3 20.4,54.5 39.8,75.3 23,17.4 48.1,31.8 73.2,46 -2.7,-8.2 -8,-24.7 -10.7,-32.9 -15,-45.1 -38,-94.6 -19.9,-142.2 26.6,-63.9 87,-102.8 138.2,-145.5 -16.7,-20 -34.3,-39.3 -53.1,-57.3 -38.4,17 -71.3,43.4 -102.4,70.9 -35.9,-6.1 -73.3,-16.6 -109.4,-6.7 -87.2,23.3 -151.9,101.4 -177.5,185.4 -18.2,58.5 -20.4,119.7 -23.4,180.3 -3.9,121.6 67.4,249.2 184.1,293.4 -5.3,77.9 -7.8,159.5 23.1,232.9 21.3,49 49.2,94.8 76,140.8 23.2,39.5 63.7,63.5 101.1,87.7 52.2,36 114.9,54.2 178.3,52.9 106.85,-2.5 212.55,-26.9 319.75,-23.1" /><path
         id="path182"
         style="fill:#7ebee8;fill-opacity:1;fill-rule:nonzero;stroke:none"
         d="m 10375.7,4389.81 c -24.9,-32.4 -53.3,-68 -45.4,-112 -0.4,-59.7 55.4,-94.1 101.9,-118.7 41.8,-21 102.1,-38.1 137.9,2.5 13.1,12.5 26.7,24.7 40.4,36.8 -9.8,45 -15.3,91.8 -36,133.4 -22.9,41.4 -60.6,71.4 -94,103.9 -40.5,1.6 -82.1,-9.9 -104.8,-45.9 z m 162.1,278.5 c -19.4,-46.4 -13,-100.9 8.3,-145.7 28.9,-62.4 72.9,-122 137.4,-150.7 45.8,-22.4 106,-30.3 148.9,2.8 48.5,35.9 62.3,99.9 64.9,156.9 -37.5,14.7 -76.8,29.2 -105.8,58.1 -35.2,35.1 -58.4,82.1 -101.3,109.1 -48.5,28.4 -121.4,19.2 -152.4,-30.5 z m 305.7,305.1 c -52,-20.1 -87.6,-72 -97,-125.9 -4.5,-46 25.7,-84.7 52,-119.2 27.4,-33.2 48.6,-71.4 78.6,-102.5 42.5,-41.5 106.3,-46 162.6,-45 45.6,39 95.8,91.7 93.1,156.4 -25.1,131.2 -151.7,248.1 -289.3,236.2 z m -90.7,80.1 c 30.4,4.4 60.9,9.6 91.5,13.5 95.6,-18.1 197.6,-45 267.4,-117.6 46.4,-47.7 92.2,-102.5 103.3,-170.3 10.6,-67.8 -0.5,-145 -49.7,-196.3 -45.7,-51.1 -113,-77.5 -179.6,-87.2 -3,-39.3 -5,-82.2 -31.3,-114.1 -35.8,-41.1 -78.8,-76.3 -126.6,-102.5 -50.3,-26.5 -107.8,-6.5 -159.9,3.1 5.5,-41.4 10.5,-82.7 16.1,-124.1 -55.1,-47.8 -116.5,-101.3 -193.9,-101.1 -89.2,0.1 -160.6,61.1 -222.1,118.6 -58.1,-25.8 -121,-44.8 -185.2,-42.9 22.8,34.6 51.3,64.7 78,96.3 28.6,6.2 57.1,12.9 85.7,19.8 6.9,35.3 11,71 13.9,106.8 24.7,51.2 58,99.1 104.4,132.9 28.3,6.1 56.7,12.3 84.8,19.8 -3.5,22.8 -7.2,45.6 -9.8,68.4 2.1,36.3 6.8,72.3 10.8,108.3 17,28.5 38,54.3 62.1,77 33,7.4 66.4,13.3 99.4,21 32.9,0.9 58,27.1 54.1,60.2 2.9,40.7 6.3,81.3 11.8,121.7 20.7,32.8 45.4,63.2 74.8,88.7" /><path
         id="path184"
         style="fill:#7ebee8;fill-opacity:1;fill-rule:nonzero;stroke:none"
         d="m 293.754,2657.61 c -3.301,-56.3 50.699,-87.6 82.098,-126.3 6,102 60.402,191 112.902,275.4 -90.402,17.7 -196,-51.8 -195,-149.1 z m 760.996,372.3 c -42,-3.7 -83.996,-7.7 -125.496,-15.5 -45.801,-10.3 -86.602,-34.9 -126.102,-59.3 -41.699,-25.9 -88,-43.8 -126.898,-74.2 -56.402,-42.9 -106.602,-93.3 -156.5,-143.6 -61.602,-78.8 -80.801,-181.4 -86.703,-279.1 -6.098,-76.5 27.601,-147.5 49.101,-219 23.899,-77.5 75,-141.5 113,-212 -6.199,-2.3 -18.398,-7.1 -24.601,-9.4 -24.797,30 -46.797,62.2 -71.598,92 -7.199,-13 -14.301,-26.3 -21.402,-39.6 -13.598,1.7 -27.199,3.1 -40.699,4.5 -12.399,51.7 -13,105.1 -21.801,157.3 -18.899,63.4 -33.297,128.1 -51.399,191.7 -18.898,66.1 -77.3,108.6 -129.699,147.7 -42.801,36.2 -108.699,11.6 -140.6991,-27.5 -27,-47.9 -18,-106.4 -5.1016,-157.4 39.8987,-154.9 156.4997,-274.3 273.3987,-376.9 65.902,-58.3 162.402,-49.7 234.902,-95.7 48.5,-31.7 104.699,-53.9 163.5,-52.4 42.899,-6.5 51.199,46.7 83.301,63.2 51.199,25.9 110,33.4 166.796,29.1 51.3,-4.7 107.5,5.1 147.7,39.2 79,37.1 129.9,115.8 166.2,192.4 32.1,4.3 72.6,-7.1 96,21.4 48.3,52.3 88.1,114.6 106.2,184 30.6,128.9 44.7,267.5 0.5,395 -21.7,50.1 -56.6,95.5 -102.7,125.3 -70.6,48.8 -150.5,81.2 -230.2,111.5 -44.2,17.5 -92.9,12.5 -139,7.3 z m -441.797,-24.8 c -13,-28 1,-59.2 6.801,-87.4 69.297,28 137.598,59.3 201.098,98.7 45.402,30 97.199,47.3 148.902,62.7 53.496,12.3 108.496,12 162.996,9 -44.1,72.8 -128.2,115.9 -213.098,110.2 -127.101,-5.6 -244.898,-83.2 -306.699,-193.2 z m 234.301,254 c 62.898,8.9 127.598,11.5 189.796,-3.4 69.8,-33 135.4,-82.1 167.5,-154.6 20.4,-7.6 40.8,-15.3 60.8,-24 23.4,-10.8 46.5,-21.9 69.8,-32.9 94.3,-47 183.5,-109 246.5,-194.7 20.6,-33.3 29.4,-72.8 33.6,-111.4 5.2,-105.7 -0.9,-211.5 -11.1,-316.7 -5,-58.7 -26.3,-114.9 -58.6,-163.8 -20.7,-32.4 -46.1,-61.5 -74.7,-87.1 -27.3,-29.7 -64.9,-44.9 -99.8,-63.5 -36.6,-20.2 -51.5,-61.9 -80.1,-90.5 -36.6,-38.2 -75.3,-77.6 -125.9,-96.5 -67.3,-27.8 -141.2,-40.2 -213.796,-34.3 -59.301,-44.5 -123.902,-90.3 -200.602,-94 -43.699,-6.2 -90.5,3.5 -124.101,33.2 -63.797,62.8 -159.399,65.2 -235.297,105.4 -108.203,67.6 -203.902,155.3 -280,257.7 -60.4024,92.1 -117.50009,197.6 -110.703219,311 18.203119,97.8 123.000219,156.4 216.402219,158.2 5.399,41 15.399,81 27.899,120.3 38.8,54.5 98.402,99.2 167,103.9 47.199,4.6 93.199,-11.7 137.699,-25.5 -5.797,47.3 -26,95.4 -10.098,142.8 20.699,59.3 64.301,106.1 101.098,155.8 29.902,37.5 70,67.4 114.601,84.9 30.301,8.4 61.102,14.8 92.102,19.7" /><path
         id="path186"
         style="fill:#871641;fill-opacity:1;fill-rule:nonzero;stroke:none"
         d="m 7820.85,5098.91 1.3,6.8 c 328.5,-145.7 666.4,-273.9 1017.5,-353.2 173.4,-41.2 350.2,-65.8 527.5,-81.6 3,-60.6 5.2,-121.8 23.4,-180.3 -346.1,10.4 -686.4,92.7 -1013.1,203.8 -204.7,71.2 -406.3,152.1 -602.4,244.2 20.1,51.9 35.1,105.7 45.8,160.3" /><path
         id="path188"
         style="fill:#871641;fill-opacity:1;fill-rule:nonzero;stroke:none"
         d="m 1330.75,4966.11 c 54.5,36 108.8,74.8 170.8,96.6 26.8,8.3 45.8,-20.7 42.4,-44.8 7.2,-39.9 -20.5,-72.1 -48.8,-95.9 -73.9,-60.6 -147.3,-123.6 -232.5,-168 -44.4,-23.4 -82.5,-56.5 -123.4,-85.1 -69.2,-58.2 -142.699,-111.1 -218.797,-159.9 -27.801,-18.2 -52.699,-40.2 -77.801,-61.7 -59.5,-52 -127.898,-92.9 -184.199,-148.4 -60.301,-56.8 -129.902,-102.4 -190.902,-158.4 -40.699,-37.7 -81,-75.7 -123.699,-111.1 84.699,-263.5 228.101,-502.6 376.902,-734.2 11.598,-18.5 23,-37.1 34.398,-55.8 -44.601,-17.5 -84.699,-47.4 -114.601,-84.9 -145.899,206.1 -281.899,419.8 -397.797,644.3 -32.902,69.9 -71.801,140.9 -72.703,220.2 7.801,47 44,80.9 76,113.1 58.402,61.9 127.301,112.3 190.402,169.1 135.399,97.2 259.5,208.7 392.801,308.7 32,25.2 64.699,49.6 96.898,74.5 92.698,73.2 190.498,139.2 287.898,205.7 37.4,27.7 78.2,50.1 116.7,76" /><path
         id="path190"
         style="fill:#871641;fill-opacity:1;fill-rule:nonzero;stroke:none"
         d="m 4171.65,2278.31 c 68.7,51.9 132.7,109.7 195.8,168.2 2.7,-490.8 18.3,-981.5 18.9,-1472.299 -77.3,40.899 -155,81.599 -236.9,112.899 6.8,143.6 5.8,287.2 8.8,430.8 7,120 0.9,240.2 8.5,360.2 -4.4,133.5 10.6,266.8 4.9,400.2" /><path
         id="path192"
         style="fill:#871641;fill-opacity:1;fill-rule:nonzero;stroke:none"
         d="m 4970.05,2164.61 c 60.5,-13.1 121.7,-22.1 182.8,-32.4 -5.5,-258.5 9.5,-516.9 11,-775.3 4.6,-72.6 5.2,-145.3 6.2,-218 -75.6,-28.6 -149.4,-61.6 -222.9,-95.2 7.5,373.6 14.2,747.3 22.9,1120.9" /><path
         id="path194"
         style="fill:#d8f2fb;fill-opacity:1;fill-rule:nonzero;stroke:none"
         d="m 9437.25,4620.71 c 32,-13.1 63.2,-28.5 96.7,-38.1 38.5,-9.8 78.7,-8.8 118.2,-9.7 -19.4,-20.8 -40.9,-45 -39.8,-75.3 2.3,-36.2 18.5,-69.5 29.4,-103.8 -49.2,7.6 -102.1,20.5 -136,59.7 -39.5,46.9 -61.3,106.8 -68.5,167.2" /><path
         id="path196"
         style="fill:#d8f2fb;fill-opacity:1;fill-rule:nonzero;stroke:none"
         d="m 9694.75,4443.81 c -18.1,47.6 4.9,97.1 19.9,142.2 52.3,-85.9 150.3,-129.5 247.4,-139.1 -41.4,-50.9 -87,-98.2 -129.1,-148.6 -51.2,42.7 -111.6,81.6 -138.2,145.5" /><path
         id="path198"
         style="fill:#d8f2fb;fill-opacity:1;fill-rule:nonzero;stroke:none"
         d="m 10330.3,4277.81 c -7.9,44 20.5,79.6 45.4,112 11.4,-41.7 18.6,-86.2 43.6,-122.6 34.2,-53.6 90,-89.3 150.8,-105.6 -35.8,-40.6 -96.1,-23.5 -137.9,-2.5 -46.5,24.6 -102.3,59 -101.9,118.7" /><path
         id="path200"
         style="fill:#d8f2fb;fill-opacity:1;fill-rule:nonzero;stroke:none"
         d="m 10160.8,4228.91 c 32.7,42.6 65.4,85.2 99.6,126.6 -2.9,-35.8 -7,-71.5 -13.9,-106.8 -28.6,-6.9 -57.1,-13.6 -85.7,-19.8" /><path
         id="path202"
         style="fill:#d8f2fb;fill-opacity:1;fill-rule:nonzero;stroke:none"
         d="m 919.652,3198.31 c 84.898,5.7 168.998,-37.4 213.098,-110.2 -54.5,3 -109.5,3.3 -162.996,-9 -13.301,41.1 -30.203,80.8 -50.102,119.2" /><path
         id="path204"
         style="fill:#d8f2fb;fill-opacity:1;fill-rule:nonzero;stroke:none"
         d="m 1054.75,3029.91 c 46.1,5.2 94.8,10.2 139,-7.3 79.7,-30.3 159.6,-62.7 230.2,-111.5 46.1,-29.8 81,-75.2 102.7,-125.3 44.2,-127.5 30.1,-266.1 -0.5,-395 -18.1,-69.4 -57.9,-131.7 -106.2,-184 -23.4,-28.5 -63.9,-17.1 -96,-21.4 -36.3,-76.6 -87.2,-155.3 -166.2,-192.4 25.9,46 58.5,87.8 82.3,135 125.9,235.4 105.4,541.2 -54.1,755.8 -36.6,54.9 -87.3,97.5 -131.2,146.1" /><path
         id="path206"
         style="fill:#eff0f2;fill-opacity:1;fill-rule:nonzero;stroke:none"
         d="m 10364.8,4488.41 c 24.9,29.5 47.9,60.6 75,88.2 2.6,-22.8 6.3,-45.6 9.8,-68.4 -28.1,-7.5 -56.5,-13.7 -84.8,-19.8" /><path
         id="path208"
         style="fill:#e2f6fc;fill-opacity:1;fill-rule:nonzero;stroke:none"
         d="m 3382.65,4228.61 c 85.9,-36.7 170.8,-75.7 259.9,-104.4 -8,-116.1 0.4,-232.6 -9.5,-348.6 -4.2,66.4 2.8,133 -3.1,199.3 -59.5,19 -116.6,44.9 -177.2,60.5 -29.8,61.8 -57.3,125.4 -70.1,193.2" /><path
         id="path210"
         style="fill:#e2f6fc;fill-opacity:1;fill-rule:nonzero;stroke:none"
         d="m 3698.45,4107.81 c 77.6,-19.7 151.8,-51 230.4,-67 146.7,-31.7 294,-64 444.1,-74.3 1.8,-16.4 3.4,-32.9 5.1,-49.6 -2.3,5.3 -6.8,15.9 -9.1,21.2 -112,-18.9 -225.4,-27.7 -339,-23 -114.8,-1.9 -228,20.1 -339.9,43.4 0.9,49.9 4.3,99.6 8.4,149.3" /><path
         id="path212"
         style="fill:#a7daf5;fill-opacity:1;fill-rule:nonzero;stroke:none"
         d="m 3642.55,4124.21 c 18.3,-6.4 37,-11.9 55.9,-16.4 -4.1,-49.7 -7.5,-99.4 -8.4,-149.3 -0.6,-50.4 -2,-100.7 -3.2,-151.1 -1.9,-67.8 7.1,-135.7 -1.6,-203.2 -16.9,32 -39.7,60.1 -61.6,88.7 3.8,27.5 7.5,55.1 9.4,82.7 9.9,116 1.5,232.5 9.5,348.6" /><path
         id="path214"
         style="fill:#a7daf5;fill-opacity:1;fill-rule:nonzero;stroke:none"
         d="m 4863.95,3971.71 c 22.9,2.1 45.8,5.4 68.1,11.5 22.6,-83.5 44.1,-167.5 73.1,-249.2 15.3,-43.7 33.9,-89.1 26.9,-136.5 -21.1,-12.1 -46.9,-11.5 -70.3,-15.7 -65.3,-6.5 -130,-17.8 -195.4,-22.8 -28.3,-1.5 -56.6,-2.3 -84.8,-4.7 -108.3,-6.3 -213.9,-30.4 -320.3,-49.8 -169.6,-30.5 -340.9,-53.7 -508.5,-94.1 -29.1,6.6 -44.1,36.3 -64.3,55.7 74.2,7.4 148.5,14.3 221.8,28.6 126.5,24.4 255.2,36.2 381.7,61 -6.9,120.3 -1.8,241.2 -13.9,361.2 -1.7,16.7 -3.3,33.2 -5.1,49.6 25.9,-2 51.9,-3.4 77.9,-4.6 -13.6,-130.9 -8.5,-263.5 3.4,-394.4 95.4,10.2 189.9,27.7 285.1,39.5 77.9,11.9 156.6,20 233.1,39.9 -29.4,110.4 -70.1,217.3 -108.5,324.8" /><path
         id="path216"
         style="fill:#ae3679;fill-opacity:1;fill-rule:nonzero;stroke:none"
         d="m 4361.25,3504.51 c 106.4,19.4 212,43.5 320.3,49.8 -16.8,-51.6 -38.5,-102.4 -43.5,-157 -6.9,-50.2 -0.9,-100.7 4.5,-150.7 -56.6,-29.6 -120.5,-15.7 -181.1,-24 31.2,101.2 -5.3,228.2 -100.2,281.9" /><path
         id="path218"
         style="fill:#8d265c;fill-opacity:1;fill-rule:nonzero;stroke:none"
         d="m 3852.75,3410.41 c 167.6,40.4 338.9,63.6 508.5,94.1 94.9,-53.7 131.4,-180.7 100.2,-281.9 -85.4,-17.4 -154,-79.6 -194.8,-154.6 -65.2,39.2 -131,78.1 -189.3,127.3 -82.1,63.8 -151.1,142 -224.6,215.1" /><path
         id="path220"
         style="fill:#d63a6a;fill-opacity:1;fill-rule:nonzero;stroke:none"
         d="m 4642.55,3246.61 c 16.4,5.4 33.2,9.7 50.3,12.8 64.5,2.8 138,-3.9 185.4,-53 40.2,-45.4 58.3,-104.8 83.5,-158.9 -16,-4.3 -31.9,-9 -46.7,-16.2 -19.3,73.9 -64.7,156 -146.1,171.8 -43.1,11.1 -85.1,-6.7 -120.4,-30.1 23.2,-28.2 45.5,-58.5 53.2,-95 -58.4,-3 -95.7,47.7 -147.5,64.6 -59.5,22.6 -132.7,16.2 -180.9,-28 -23.8,-19.2 -34.4,-48.7 -45.1,-76.3 -20.9,9.2 -41.9,18.3 -61.6,29.7 40.8,75 109.4,137.2 194.8,154.6 60.6,8.3 124.5,-5.6 181.1,24" /><path
         id="path222"
         style="fill:#f686c8;fill-opacity:1;fill-rule:nonzero;stroke:none"
         d="m 4648.55,3173.01 c 35.3,23.4 77.3,41.2 120.4,30.1 81.4,-15.8 126.8,-97.9 146.1,-171.8 -65.4,-46.7 -146.6,-61.8 -224.6,-72.1 -126,-19.3 -251,23.4 -362.2,79.1 10.7,27.6 21.3,57.1 45.1,76.3 48.2,44.2 121.4,50.6 180.9,28 51.8,-16.9 89.1,-67.6 147.5,-64.6 -7.7,36.5 -30,66.8 -53.2,95" /><path
         id="path224"
         style="fill:#8a181d;fill-opacity:1;fill-rule:nonzero;stroke:none"
         d="m 4745.05,861.512 c 16.2,-41.703 28.2,-86.903 55.3,-123.102 96,-59.301 198.2,-107.902 296,-164.101 88.2,-50.5 181,-91.7 270.8,-139 145.6,-73.598 297.7,-133.899 453,-183.598 114,-34.5 229.5,-67.301 348.7,-77.699 135.2,-11.602 271.5,-2 405.5,17.597 152.5,21.5 294.5,116.5 365.5,254.403 -19.2,70.398 -49,137.199 -79.7,203.199 -28.7,-31.801 -54.7,-66.801 -89.6,-92.5 -37.8,-30.102 -84.6,-44.199 -129.3,-60.402 -179,-63.301 -371.4,-85.297 -560.3,-71.598 -138.9,12.898 -277.5,33.5 -412.2,70.5 -167.5,42.398 -324.2,116.699 -484.5,179.5 -144.1,67.699 -291.8,126.801 -439.2,186.801 z m 1422.4,69.199 c -61.3,-45.402 -121,-92.902 -183.1,-137.301 -94.9,-79.5 -196.9,-151.199 -281.9,-241.898 140.5,-34.301 284.5,-50.703 428.1,-66.004 158.8,-13.899 317.2,17.902 470.7,55.902 73.3,17.102 147.1,53.199 189.4,117.899 19.7,29.402 4.1,67.203 -20.4,88.199 -120.4,123.504 -270.7,216.004 -432.9,273.802 -57.9,-27.599 -118.5,-51.4 -169.9,-90.599 z m -276.4,-74.801 c 24.5,-2.699 50.7,-12.902 74.7,-3.199 27,14.699 50.2,35.199 75.4,52.5 67.1,51.199 138.9,95.399 210.3,140.199 -24.1,9.9 -48.3,19.4 -72.5,28.5 -101.4,-64.9 -202.4,-132.601 -287.9,-218 z m -183.8,64.899 c 45.6,-14 90.6,-29.7 135.6,-45.7 78.4,81 169,148.701 262.7,210.901 -48,8 -95.5,21.1 -144,23.4 -88.4,-57.4 -175.7,-118.101 -254.3,-188.601 z m -189.6,41.3 c 41.1,-7.898 82.2,-15.597 123.5,-22.5 82.3,53.7 154.3,120.901 229.9,183.301 -50,-0.4 -99.9,-2.1 -149.8,-2.2 -69.7,-50.6 -135.9,-105.5 -203.6,-158.601 z m -187.1,126.401 c -177.1,-42.8 -348.4,-107.299 -513.4,-183.901 16,-21.898 41.8,-32.101 65.3,-43.8 167.3,-79.899 336.6,-156.399 511.1,-219.297 81,-30.801 161.3,-64.403 245.3,-86.5 85.9,87.199 187.2,158.097 271.2,247.199 -166.7,61.301 -340.5,98.898 -512.7,141.199 -13.5,4.5 -30.6,4.801 -38.2,18.602 36.9,3.597 74.2,0.996 110.9,7.199 28.3,16.898 51.2,41.399 76.4,62.399 35,32.7 75.3,61 101.4,101.9 -107.2,-0.8 -213.2,-21 -317.3,-45 z m 154,122.2 c 68,7.8 136.4,22.2 205.1,12.7 262.2,-12.5 527.8,-49.9 771,-153.2 199.7,-84.702 372.7,-230.3 489.8,-412.999 49.2,-77.402 107.8,-163.699 88.1,-260.5 -25.8,-110 -116,-195.902 -216.5,-241 -68.2,-31.902 -136.2,-66.6993 -210.1,-83.1016 -55.8,-9.6992 -110.6,-24.6016 -166.8,-31.8985 -128.9,-12.4023 -259.9,-0.5 -384.5,34.8985 -205.6,61.6016 -420.9,104.3006 -606.9,216.4026 -217,117.5 -443.2,216.597 -663.5,327.297 -36.8,22.601 -46.6,68.3 -65.3,104.402 -18.1,47.898 -52.5,91.598 -53.9,144.297 -1.8,22.402 20.6,31.801 36.2,41.703 80.1,44.398 157.3,93.999 239.9,133.999 73.5,33.6 147.3,66.6 222.9,95.2 100.9,38.5 207.8,57.3 314.5,71.8" /><path
         id="path226"
         style="fill:#8a181d;fill-opacity:1;fill-rule:nonzero;stroke:none"
         d="m 4294.45,782.711 c -122.9,-51.102 -240.4,-114.102 -363.7,-164.301 -176.8,-78.301 -357.8,-151.801 -548.8,-186.5 -87.1,-14.601 -173.9,-32.398 -262.2,-38.101 -206,-16.297 -416.2,11.3 -609.1,85.8 -63.1,23.7 -110.8,73.602 -152,125 -28.5,-66.898 -64.3,-134 -71.5,-207.097 44.6,-91.5 128.9,-159.203 219.8,-201.903 94.4,-43.5 199.6,-51.398 302,-56.597 131,-5.5 264.2,-3.102 391.9,30.097 346.7,83.7 666.3,249.102 973.5,426.2 81.3,48.601 167.9,89 245.7,143.3 19.8,37.801 33.3,78.7 47.2,118.899 -57.7,-24.699 -114.4,-51.699 -172.8,-74.797 z m -1854.2,-84.902 c -18.7,-19.5 -31,-51.399 -15,-76.399 38.9,-60.199 106.1,-95.801 174.1,-112.699 131.1,-32.402 265,-59.102 400.7,-57.699 173.9,7.297 345.9,39.097 515.1,78.5 -67,68.597 -142.8,127.699 -219.9,184.398 -73.4,60.899 -153.9,112.301 -229.5,170.301 -56.7,44.801 -124.7,70.797 -189.1,102.098 -165.6,-59.598 -317.1,-158.899 -436.4,-288.5 z m 518.8,314.801 c 96.8,-51.899 186.2,-115.899 276.4,-178.301 25.1,-20.5 57.7,-7 85.9,-3.098 -87.6,82.301 -188.8,148.098 -290.7,210.999 -24.1,-9.4 -47.9,-19.3 -71.6,-29.6 z m 146.8,43.5 c 93.9,-59.7 185.5,-124.399 263.8,-204.001 45.4,16 90.5,32.801 136.2,48.301 -76.6,58.801 -154.5,116 -235.8,168 -11.9,6.9 -23.8,18.7 -38.6,13 -42.2,-6.9 -83.9,-16.3 -125.6,-25.3 z m 233.4,40.1 c 77.9,-58.1 148.9,-125.401 232.2,-175.999 40.1,7.199 79.9,15.801 120.1,22.898 -58.7,47.2 -118.8,92.701 -179.7,137.001 -9.8,5.9 -18.4,15.5 -30.3,16.2 -47.4,1.7 -94.9,0.5 -142.3,-0.1 z m 225.2,15.4 c 39.4,-56.6 99,-94.1 150.4,-138.801 38.6,-39.7 98,-17.801 146.6,-27.598 -13.7,-6.402 -27.5,-12.801 -42.2,-16.699 -170.9,-50 -347.5,-83.102 -511.3,-154.903 86.8,-82.398 183.5,-154.3 272.1,-234.8 89,19.101 171.4,61.3 256.5,92.902 190,76.598 377.6,160.5 556.8,260 -19.5,23.199 -51.1,29.199 -77.2,41.801 -240.2,93.398 -491.7,174.898 -751.7,178.098 z m -834,-84.8 c 259.5,120 547,163.4 830,182.1 200.7,-10.2 403.8,-40.5 589,-121.8 81.9,-31.3 159.6,-72 236.9,-112.899 51.6,-29.602 103.9,-57.902 156.8,-85 5.9,-70.602 -37.2,-129.102 -60.5,-192.199 -13,-33.703 -26.3,-72.602 -62.3,-87.903 -219.9,-114.199 -444.4,-219.597 -660.2,-341.597 -174.6,-107.403 -376.3,-155.301 -570.6,-214.0003 -144.3,-47.30076 -299.6,-67.2031 -450.3,-43.5 -63,13.5977 -127.4,20.8985 -188.9,40.5977 -68.6,24.5 -135.2,54.6996 -200.1,87.6016 -74.9,45.898 -137.5,115.699 -166.3,199.398 -28,99.102 31.4,193.301 81.6,274.102 110.2,179.801 273.7,326 464.9,415.099" /><path
         id="path228"
         style="fill:#e51d25;fill-opacity:1;fill-rule:nonzero;stroke:none"
         d="m 5330.55,1088.51 c 104.1,24 210.1,44.2 317.3,45 -26.1,-40.9 -66.4,-69.2 -101.4,-101.9 -25.2,-21 -48.1,-45.501 -76.4,-62.399 -36.7,-6.203 -74,-3.602 -110.9,-7.199 7.6,-13.801 24.7,-14.102 38.2,-18.602 172.2,-42.301 346,-79.898 512.7,-141.199 -84,-89.102 -185.3,-160 -271.2,-247.199 -84,22.097 -164.3,55.699 -245.3,86.5 -174.5,62.898 -343.8,139.398 -511.1,219.297 -23.5,11.699 -49.3,21.902 -65.3,43.8 165,76.602 336.3,141.101 513.4,183.901" /><path
         id="path230"
         style="fill:#e51d25;fill-opacity:1;fill-rule:nonzero;stroke:none"
         d="m 3564.45,1111.61 c 260,-3.2 511.5,-84.7 751.7,-178.098 26.1,-12.602 57.7,-18.602 77.2,-41.801 -179.2,-99.5 -366.8,-183.402 -556.8,-260 -85.1,-31.602 -167.5,-73.801 -256.5,-92.902 -88.6,80.5 -185.3,152.402 -272.1,234.8 163.8,71.801 340.4,104.903 511.3,154.903 14.7,3.898 28.5,10.297 42.2,16.699 -48.6,9.797 -108,-12.102 -146.6,27.598 -51.4,44.701 -111,82.201 -150.4,138.801" /></g></g></svg>