<?xml version="1.0" encoding="UTF-8" standalone="no"?>
<svg
   xmlns:dc="http://purl.org/dc/elements/1.1/"
   xmlns:cc="http://creativecommons.org/ns#"
   xmlns:rdf="http://www.w3.org/1999/02/22-rdf-syntax-ns#"
   xmlns:svg="http://www.w3.org/2000/svg"
   xmlns="http://www.w3.org/2000/svg"
   viewBox="0 0 1266.6667 1372"
   height="1372"
   width="1266.6667"
   xml:space="preserve"
   id="svg2"
   version="1.1"><metadata
     id="metadata8"><rdf:RDF><cc:Work
         rdf:about=""><dc:format>image/svg+xml</dc:format><dc:type
           rdf:resource="http://purl.org/dc/dcmitype/StillImage" /><dc:title></dc:title></cc:Work></rdf:RDF></metadata><defs
     id="defs6" /><g
     transform="matrix(1.3333333,0,0,-1.3333333,0,1372)"
     id="g10"><g
       transform="scale(0.1)"
       id="g12"><path
         id="path14"
         style="fill:#010101;fill-opacity:1;fill-rule:nonzero;stroke:none"
         d="m 2338.2,9801.2 c 42.9,25.9 80.4,65 132,73 44.8,-3.2 81,-33.1 104.4,-69.6 15.4,-26.4 46.9,-34.4 75.6,-32.8 259.6,2.1 519,-18.4 778.6,-9.7 303.6,-1.2 607.3,3.8 911,-1.3 363.5,-9.2 727,-20.5 1090.7,-22.3 51.6,-0.7 112.8,-9.7 142.5,-57.7 35.2,-53.7 65.2,-115.6 66.6,-180.8 -18.4,-117.3 -108.2,-203.6 -170.9,-299.1 -72,-113.3 -143.7,-226.7 -218.8,-338 9.5,-12.1 18.9,-24.2 28.6,-36.4 -20.8,-4.1 -41.4,-8.3 -62,-12.5 -11.2,-15.8 -22.4,-31.7 -33.4,-47.6 33.4,-28.1 66.7,-57.3 106.4,-76.5 42.6,-19.2 66.1,-61.5 94.9,-95.8 37.5,-45.5 45.4,-105.7 52.5,-162.1 -50,-0.3 -102.1,-3.9 -148.9,17.1 -86.7,39.2 -183.4,41.2 -274.3,66.1 -74.2,-101.6 -135.6,-211.9 -209.2,-313.9 183.8,19.2 373,-9 541.2,-86.3 164.3,-74.3 308.7,-192 413.6,-338.7 48.8,27.6 96.3,58.4 135.6,98.7 40.7,38.9 85,84.8 144.4,89.2 76.9,-6.8 141.8,-63.3 174.6,-131 53.4,-106.3 60.4,-227 82,-342.1 17.6,-92.7 15.6,-187.6 13,-281.5 0.1,-28.6 -3.7,-61.1 16.8,-84.4 59.3,-76.5 109.2,-159.6 155.9,-244.2 30.4,-55.8 64,-110.6 83.7,-171.5 28,-85.9 70.4,-166.8 90.9,-255.2 16.1,-67.4 11.1,-137.4 22.3,-205.5 28.9,-171.2 30.5,-345.8 23.3,-518.9 -4.2,-87.2 1.2,-175.6 -16.7,-261.7 -37.5,-192.2 -73.5,-392.5 -185.2,-557.9 -65.5,-95.2 -118.5,-198.9 -193.1,-287.7 C 6225.4,4515.2 6133,4417 6038.6,4321 c -56.5,-57 -115.6,-111.5 -178.9,-160.8 -62.1,-48 -117.8,-104.7 -186.1,-144.1 -115.5,-65.6 -230.5,-133.7 -355.9,-179.2 46.2,-33.4 98.8,-59 137.7,-101.7 19.4,-20 38.6,-44.4 68.1,-49 138.2,-24.6 276.2,-57.4 417.3,-58.6 133.3,-1.8 266.3,8.2 399.4,14.8 119.1,7.3 247.6,35.8 335.2,122.2 54.3,51.4 42.2,130.1 51.9,196.9 24.8,98.9 54.3,198 102.8,288.2 28.3,54.6 82.6,95.4 143.7,105 117.6,18 237.7,-9.9 344.3,-59.9 25.3,47.1 57.3,90.8 75.8,141.3 15,40.9 30.2,81.7 47,121.9 -80.7,59 -157.8,125.4 -214.3,208.6 -43.3,51.2 -60.3,117.9 -72.4,182.2 -13.7,77.6 -49.3,151.2 -46.9,231.2 0.8,157.9 5.7,317.4 45.6,471 44.5,205.9 101.8,408.8 142.7,615.5 45.1,16.5 91.4,29.8 138.6,39.2 152.5,7.8 306.4,-0.9 455.9,-33.8 181.1,-33.7 345.1,-122.5 522.6,-168.7 47.8,-13.8 87.8,-46.7 137.2,-56.2 60.2,26.7 129.1,34.8 192.8,16.1 83.5,-22.3 152.3,-91.4 175.1,-174.6 9.3,-31.2 9.9,-63.9 13,-96.1 53.8,-27.3 108.6,-60.8 140.1,-114.1 8,-65.4 -36.9,-121 -62.3,-177.8 -66.2,-149.7 -157,-286.6 -250.5,-420.4 -74.5,-101.1 -139.4,-209.5 -221.7,-304.7 -49.8,-60.5 -98.3,-122.7 -156.6,-175.4 -48.7,-45.4 -106.7,-78.7 -159.4,-119 -66.5,-50.1 -150.7,-63.7 -230.1,-80.5 -75.8,-15.5 -152.1,4.4 -228.2,5.3 -16.4,-51.2 -33.6,-102 -51.7,-152.6 111.3,-22.1 226.7,-73.7 284.3,-177.1 42.7,-64.7 32.7,-147.5 9.2,-217.4 -14.6,-44.2 -43.8,-81.9 -79.5,-111.2 23.3,-32 54.1,-64.5 52.9,-107 0.6,-43.7 3.2,-90.9 -19.5,-130.2 -42.2,-73.7 -116.1,-123.3 -193.8,-153.6 33.5,-38.9 44.3,-99.6 13.5,-143.3 -29.3,-40 -48.6,-91 -93.6,-116.5 -99.9,-52.3 -230.4,-60.1 -325.9,6.2 -19.2,-59.5 -35,-120.6 -64.7,-176.1 -38.8,-76.4 -68.7,-168.3 -148.8,-211.6 -52.6,-17.1 -109.2,-9.2 -163.6,-10.1 -51.7,-0.4 -85.9,43.2 -109.4,83.5 -62.6,-60.9 -135.7,-112.2 -218.6,-141.3 -52.8,-23.8 -111.1,-31.9 -163.2,-57.2 -76.8,-34.4 -159.7,-51.5 -241.5,-69.1 -77,-19.1 -154.2,-39.3 -233.6,-45.2 7,-91.9 24.4,-183 22.9,-275.4 -1.1,-60 7.9,-120.3 -1.9,-180 -15.1,-89.9 -23.3,-181.3 -47.7,-269.4 47.9,-33.2 103.2,-58.1 140.3,-104.5 51.5,-64 90.4,-142.7 90.8,-226.3 0.7,-55.7 -28.3,-115.4 -81.6,-137.8 -79.3,-36.4 -169.3,-23.1 -251.2,-3.7 37.6,-40 81.6,-75.8 106.9,-125.7 33.4,-60.6 61.9,-133.2 39.1,-202.399 -29.4,-84.801 -107.4,-140.602 -185.3,-177.5 -72.1,-33.5 -158.1,-1.301 -210.3,53.301 -43.5,47 -95.7,85.796 -133.6,137.898 -2.2,-70.199 -20,-139.102 -41.6,-205.602 -20.7,-60.898 -75.3,-109.199 -140.4,-115 -77.6,-6.097 -164.5,-0.097 -226.7,52.301 -23.5,20 -52.2,41 -55.9,74.102 -18.6,95 21.9,187 60.4,271.399 -96.2,-33.1 -196.9,-52.598 -298.5,-58.302 -99.8,-2.296 -199,-14.296 -298.5,-20.796 -91.8,-12.903 -184.3,-23.704 -277.2,-18.5 37,-142.602 -24.6,-312.801 -160.9,-378.704 -69.2,-32.699 -148.9,-2.597 -204.4,43 -52.1,35.5 -76.2,95.5 -109.5,146.403 -13.4,-58.199 -11.2,-120.602 -38.1,-175.301 -30.9,-67.199 -82,-132.898 -156.4,-153 -92.3,-20.898 -189.4,-3 -275.7,32.5 -62.3,24.801 -90.6,97.301 -85.8,160.5 5.6,69.699 9.6,139.602 19.4,208.898 -59.5,-42.699 -123,-79.398 -186.6,-115.597 -57,-31 -127.3,-54.301 -190.5,-27.801 -68.1,25.602 -121.8,90.801 -121.3,165.602 -10.3,67.699 28.9,127.097 65.9,179.598 39.7,54.9 106.9,78.1 153.1,126 -31.4,24.8 -61.4,51.4 -93.8,74.8 -36,26 -78.9,39.6 -115.7,64.1 -43.2,28 -84.2,59.8 -131.1,81.7 -64.5,-40.7 -129,-84 -202.3,-106.9 -72.3,-23.3 -155.1,14.2 -191.4,79.4 -42.8,70 -35,156.2 -23.3,233.7 -39.8,4 -82.8,3.2 -117.9,25 -38.8,24.4 -65.8,62.4 -95.2,96.7 -40.9,-21.3 -84.4,-44.8 -132.2,-40.5 -112.3,8.2 -231.6,-1.7 -335.2,50.6 -109.5,59.9 -196.4,155.4 -259.5,262 -53.6,92.8 -98.1,194.9 -101.1,303.7 -3.9,94.2 13.6,188.9 47.2,276.8 41.2,101.1 128.5,171.2 202.3,247.8 55.9,59.5 131.2,94.1 195.1,143.5 106.8,83 236.1,128.8 348.2,203.4 57.8,39.4 125.8,59.2 185.9,94.3 75.5,43.4 147.1,93.3 222.2,137.6 65.7,38.7 124.1,88.8 176.5,144 32.5,34.5 48.3,80 65.8,123 15.9,40.3 41.3,75.8 65.3,111.5 -42.1,22.5 -89.7,30 -133.7,47.4 -97.7,37.4 -186.3,94 -279.2,141.3 -125.4,62.1 -221.5,167.3 -339.5,240.8 -116.5,75.3 -196.7,190.1 -285,294.2 -51.7,65.9 -94.3,138.3 -147.4,203.1 -49.3,76.7 -100.1,152.6 -147.3,230.6 -73.6,126 -117.9,266.9 -148.5,408.8 -20.4,139.6 -34,281.9 -17.4,422.7 13.7,129.5 7.1,262.5 45,388.5 28.5,97.4 56.7,196 103.8,286.5 20.7,40.6 41.8,81 60.1,122.8 -65.1,-3 -129.9,-10.4 -195.1,-10.4 -57.6,0.5 -117.4,14.2 -173.201,-6.3 -15.898,-4.7 -13.801,-24.8 -18.699,-37.4 -21.801,-113.4 -24.898,-233.1 -74,-339.3 -106.699,18.7 -206.5,62.5 -307.398,100.4 -56.602,25.6 -115.801,47.6 -166.704,83.8 -30,18.9 -17.699,58.8 -4.199,84.3 65.403,121.4 122.301,247.3 192.903,365.9 38.898,65.9 69.097,136.7 112.5,199.8 14.097,18.8 28.597,39.3 50.398,49.6 125.898,23.8 254.8,8.7 380,-12.1 160.7,-39 326.7,-46.2 488.6,-78.7 11.5,22.4 32.2,43.9 27.8,71 -11.5,105.2 -57.3,204.7 -55.4,311.9 -254.9,42.1 -514.7,48.2 -767.801,102 -14.398,98 -28.398,197.1 -23.398,296.3 0.301,31.8 19,58.8 34,85.4 69.097,111.7 152.999,213 229.999,319.1 227.4,285.6 437.4,584.5 648.1,882.4 114.5,167.2 249.1,319.5 363.6,486.7 73,104.6 135.2,222.5 241.7,297.7 m 47,-151.3 c 22.3,-2.8 44.6,-5.4 67,-8 4.5,46.5 7.6,93.3 5.8,140 -53.1,-21.5 -58.7,-84.1 -72.8,-132 m 123.5,23.2 c -7.9,-41.3 -14.2,-82.8 -21,-124.2 127.2,-12.2 255.1,-9.2 382.7,-9.1 109.8,0.4 219.4,-6 329.2,-6.7 223.6,-3.4 447,4 670.5,8.8 259.8,2.3 519.9,-11.3 779.5,2.6 289.6,9.4 578.9,-13.3 868.4,-9.1 -13.3,42.3 -19.1,113.4 -77.4,114.5 -373.4,10 -747.1,10.7 -1120.6,16 -116.7,0.8 -233.4,6.2 -350.1,1.8 -306.7,-3.4 -613.4,1.4 -919.9,7.8 -180.5,0.3 -361,-11.9 -541.3,-2.4 M 2264,9585.2 C 2130.8,9424 2014.9,9249.6 1885.3,9085.6 1659.9,8789 1449.4,8481.4 1228.1,8181.8 1135,8061.3 1039.7,7942.3 955,7815.6 c -15.801,-24.2 -34.301,-47.6 -42,-75.9 -9.199,-43.6 -2.102,-88.4 6.898,-131.4 41.204,36.3 74.102,80.6 108.602,122.9 104.2,130.4 194.1,271.4 296.6,403.1 100.2,133.5 197,269.4 293.8,405.4 212.6,303.1 440.3,595.3 649.4,900.8 42.5,59.8 51.8,135 52.1,206.4 -20.3,-19.1 -39,-39.9 -56.4,-61.7 m 111.6,22.4 c -8.2,-37.9 -14.6,-76.1 -18.8,-114.6 23.8,-3.1 47.6,-6.1 71.5,-8.8 6.5,36.9 12.3,73.9 17.8,111 -23.5,4.2 -47,8.3 -70.5,12.4 m 110,-120.8 c -17.9,-84.4 -30.6,-169.9 -40.3,-255.6 -17.5,-186.5 -56,-375.1 -22.5,-562.1 11.9,-79.2 59.3,-149 63.2,-229.8 1.1,-58.6 -12,-116.2 -19.2,-174.1 -11.4,-76.4 -25.3,-156.9 -73.5,-219.8 -65.1,-83.9 -175.2,-136.2 -281.9,-118.1 -139.1,22.9 -278.4,69.5 -388.7,160 52.2,70.8 116.9,131.8 163.8,206.6 65.9,97.7 98.5,212.4 152,316.5 21.7,42.4 75.7,44.1 110.2,70.8 24.2,41.3 36.2,88.5 59.9,130 18.1,35 49.3,66.8 44.8,109.2 -0.9,134.6 5.6,269.1 8.5,403.7 -30.9,-31.4 -56.2,-67.5 -83.6,-101.8 -187,-241.3 -361.4,-492 -541.3,-738.5 -223.5,-313.2 -457.4,-619.1 -672.801,-938.1 -7.199,-11.4 -14,-23.1 -20.699,-35 224.6,-31.8 449.3,-63 674.9,-86.9 6.2,62.1 15.2,124 18.2,186.4 3.7,68.5 25.3,135.1 57.5,195.4 21,39.9 61.3,68.5 105.5,76.5 45,1.2 90,-18.8 120.6,-51.7 61.4,-66.5 109.6,-144.2 171.3,-210.4 113.2,118.1 244.5,222.7 397.1,285.1 -1.2,22.7 -3.6,45.3 -5.5,67.9 -26,0.4 -52,0.6 -77.9,1.8 6,66.3 21,134.3 61.3,188.8 50.6,75.9 116.2,140.9 191.6,192.1 -37.7,30.5 -82.9,48.5 -128.3,63.6 2.5,23.3 -0.3,53.6 25.7,64.7 73,40.2 159.4,43.4 240.5,52.9 48.7,-6.3 96.8,-16.3 144.9,-26.2 -39.7,28.3 -76.6,61 -103.3,102.1 4.1,5.8 8.5,11.3 13.2,16.7 91.4,0.8 182.9,-0.5 274.2,-7.1 78.6,-9.8 152.7,-40.2 230,-56.3 37.9,-6.5 68.7,-29 94.7,-56.1 107.1,1.5 216,-5.5 317.5,-42.7 84.7,-30.1 178.9,-35.3 256.6,-83.8 22.7,-13.7 28.8,-41.3 39.9,-63.6 42.6,8.8 87.9,19.7 130.5,5.4 43.5,-15.7 81.2,-57.3 80.7,-105.2 -7.3,-47.6 -47.6,-79 -80.9,-109.4 41.4,-27.9 75.5,-64.5 105.7,-103.9 82.6,51.7 166.1,103.4 258.7,135.7 41,17.4 85.8,23.9 126.9,40.9 87.2,109.3 157.1,231 238.2,344.7 -57.7,7.9 -115.2,19.4 -173.5,20.4 -84.1,2.2 -167.2,-12.3 -250.6,-20 -26,-1.9 -60.3,-1.5 -73.8,25.3 -29.7,64.1 -39,136.2 -36.6,206.3 1.5,16.4 -0.3,35.4 12.3,48.1 42.4,56.1 108.5,84.4 160.8,129.1 53.5,43.5 109.1,89.9 178.2,104.9 35.2,11.3 70.1,-5 103.7,-14.1 3.3,-40.6 -15.7,-77.2 -30,-113.8 122.4,23.8 252.5,39.8 372.6,-3.9 125.6,184.2 257.1,365.6 360.7,563.5 -118.7,13.5 -238.5,6.7 -357.7,6.8 -153.2,-4.4 -306.5,-3.9 -459.7,1.6 -385.6,8.3 -771.4,8.8 -1157.1,7.8 -362.4,0.9 -725.1,16.8 -1087.2,-3.3 m -134.6,-36 c -3.3,-32.4 -6.9,-64.7 -10,-97.1 20.7,-3.2 41.6,-6.2 62.4,-9.1 5.3,31.5 10.7,62.9 16.3,94.3 -22.8,4.3 -45.8,8.2 -68.7,11.9 m -21.7,-234.4 c 17.3,-1.9 34.7,-3.7 52.1,-5.6 5.4,29.6 10.5,59.3 14.8,89 -19.7,3.6 -39.5,7.1 -59.2,10.6 -3.6,-31.3 -5.9,-62.6 -7.7,-94 M 2316,9081.1 c 16.6,-1.9 33.1,-3.9 49.7,-5.9 3,30 6.3,59.9 9.3,89.8 -16.5,2.8 -33,5.7 -49.4,8.5 -3.8,-30.8 -6.8,-61.5 -9.6,-92.4 m -5.5,-44.3 c -5.1,-56.2 -7.8,-117.3 23.5,-167.1 14.1,52.2 21.1,105.8 26.8,159.4 -16.8,2.6 -33.5,5.2 -50.3,7.7 m 2410,-57.5 C 4614,8923 4514.3,8853 4425.4,8771.7 c 19.1,-65.8 30.5,-133.5 43.9,-200.7 73.5,6.6 146.8,16.7 220.6,18.1 107.7,-0.8 213.8,-21.4 320.9,-29.7 121.3,-8.9 238.8,-46.5 360.9,-49 -13.7,25.9 -28.1,51.8 -48,73.5 -34.8,40.3 -86.5,59.1 -126,93.9 -42.7,36.8 -86.4,72.5 -134,102.8 29.8,27.8 62.2,52.6 93.2,79 -26.5,16.6 -54.1,36.2 -86.8,35 -80.2,-1.1 -161.2,-5.9 -238.9,-27.3 -34.3,-9.3 -69.2,-15.9 -104.4,-20 6.8,46.3 27.5,88.4 44.6,131.5 -16.8,5.1 -35.1,12.1 -50.9,0.5 M 2215.2,8707.2 c 50.3,-14.2 101.6,-23.9 152.8,-34 -6.2,51.1 -17.1,102 -40.3,148.4 -56.4,-13.9 -90,-64.7 -112.5,-114.4 m -133.5,-149.1 c -50.7,-90.7 -76.4,-192.9 -126.4,-283.9 -37.6,-66.8 -97.8,-116.1 -145.9,-174.8 37.2,-22.4 78.6,-36.1 120.3,-47.8 39.2,66.2 74.2,137.2 133.9,187.9 -14.6,-63.1 -44.3,-121 -64.9,-182.1 31.7,15.6 61.6,34.8 88.8,57.4 -9.9,-38.2 -25.5,-74.5 -36.4,-112.3 27.9,-5.8 55.8,-11.6 83.6,-17.9 65.9,85.4 109.7,185.4 175.4,270.7 -24,-98.7 -86.7,-181.8 -116.7,-278.4 80.6,14.9 147.6,73.8 184.3,145.5 25.6,48.7 31.2,104.2 42.2,157.3 15.3,88.4 20.4,182.6 -13.2,267.6 -12.5,41.2 -45.4,71.7 -86.1,84.3 -40.1,6 -81.3,6.1 -120.4,-5.7 -43.8,-11.9 -95.3,-24.4 -118.5,-67.8 m 870.8,5.5 c 23.2,-40 45.7,-80.9 59.2,-125.5 -59,12.5 -114.9,36.1 -173.9,48 -78.5,15.7 -158.8,-6.7 -230.1,-38.9 49.9,-24.9 93.8,-62 122.6,-110.2 -111.6,-37.6 -186.4,-135.9 -242.9,-234.1 -17.6,-29.4 -23,-63.9 -22.8,-97.7 93.2,34.3 179.6,84.6 273.6,116.7 146.8,49.9 295.4,96.9 448.8,122.1 82.3,13.2 161.3,41 242.5,59.3 -6.6,50.3 -8.5,102.1 -26,150.2 -23.4,49.9 -81.8,63.8 -129,81.5 -101.8,38.7 -215.2,56.5 -322,28.6 m 512,-113.4 c 15.2,-60.4 23,-122.4 23.9,-184.6 -33.8,-8.8 -67.4,-17.9 -100.9,-27.2 -51.9,-14 -104.4,-26.3 -157.7,-33.2 -99.8,-13.9 -196.3,-44.3 -291.6,-76 -72.4,-24.4 -144.6,-50.1 -218.3,-70.5 -58.7,-15.1 -114.9,-39.6 -167.5,-69.5 -1.9,-18.7 -0.7,-37.4 0.1,-56.2 123.1,48.5 255.1,66.6 386.3,76.1 78,0.6 155.5,-10.8 232.2,-23.9 43.3,-6.4 84.8,-24.2 128.5,-26.6 35.2,11.3 68.3,30.1 106,32.9 l -0.6,1.9 c 42.7,7.2 85.4,15.1 128.1,22.6 22,3.9 44.1,7.9 66.1,12.1 15.7,99.9 60,198.1 136.9,265.6 32.3,27.5 78.3,44.7 120.4,32.8 27.6,-21.3 33.7,-57.9 45,-88.9 31.7,18.5 63.6,36.6 96,54 -3.4,17.1 -6.7,34.3 -10,51.4 -155,43.5 -309.5,93.2 -470.8,107.2 -17.4,-0.1 -34.7,-0.1 -52.1,0 m 261.4,-235.3 c -47.9,-69.3 -85.4,-153.1 -69.4,-239.2 -87.1,-15.2 -180,-16.7 -259.7,-58.4 75.7,-32.9 148.1,-72.9 216.2,-119.6 125.1,-88.1 232.9,-200.7 315,-329.9 38.9,127.9 103.4,246.3 183.3,353 -62.6,17.7 -130.1,34.3 -175.9,83.9 -28.4,26.5 -36.5,65.8 -37.4,103.1 43.2,-21.2 80.3,-52 114.2,-85.8 45.3,-49.4 120.8,-33 176.3,-12.3 24.3,16.4 68,41.7 47.4,76.3 -14.4,30.9 -34.2,62.8 -66.8,76.9 -47.2,5.3 -95,-6.3 -142.1,3.1 65.4,45.4 150,72.5 191.1,145.6 12.2,20.7 -7.4,40 -21.5,52.9 l 2.5,1.7 c -55.1,2 -110.9,0.9 -164.8,-11.2 -56.1,-17 -99.7,-58.5 -144.3,-94.5 -35.5,-28.5 -52,-72.9 -84.8,-103.9 -4.5,30.7 -4.5,62.2 6.5,91.5 15.2,42.3 16.1,87.4 15.3,131.7 -37.4,-14.6 -77.4,-30.8 -101.1,-64.9 m 1099.6,-222.2 c -180.8,-22 -352.6,-107.8 -480.6,-237.2 C 4213,7624.1 4126.8,7447 4108,7261.6 c -21.2,-193.2 28.7,-393.8 140.4,-553.1 82.4,-120.7 200.1,-215.9 332.8,-276.4 171,-78.8 369.8,-93.5 551.3,-44.7 275.6,71.5 503.1,297.2 580.1,570.7 50.9,179.9 39.5,377.6 -35.3,549.3 -69.9,163.9 -196,302.8 -351.7,389.2 -150.8,84.5 -328.9,117.7 -500.1,96.1 m 1130.7,-148.4 c -49,-48.1 -97.7,-96.5 -148.4,-142.8 21.9,-42.9 43.7,-85.9 64.1,-129.7 21.3,-44.2 37,-92.7 72.7,-128.1 43.7,-36 89,-69.9 135.3,-102.6 55.5,-38.8 103.2,-87.5 158.2,-126.9 10.4,150.8 -6.8,302.2 -35.9,450.1 -15.5,77.7 -46.5,153.8 -101.8,211.8 -22.4,9.9 -46.4,20.4 -71.4,14.5 -30.1,-3.7 -51.9,-26.5 -72.8,-46.3 m -4170.2,-55 c -45.7,-53 -65.6,-121.5 -83.2,-187.7 -22.6,-119.3 -14.8,-241.4 -8.4,-361.8 3.9,-59.5 12.1,-119.9 37,-174.7 29.3,27.5 60.8,52.7 88.5,81.9 42.9,26.5 50.1,80.4 64.2,124.5 3.2,40.3 -12.1,79.6 -21.2,118.3 -16.7,61.6 -36.6,122.4 -50.3,184.8 9.2,-1.7 27.7,-5.1 36.9,-6.8 3.2,-20.5 16.8,-37.5 23.5,-57 18.9,-52.8 29.2,-108.2 42.9,-162.5 40.4,73.2 82.9,145.4 132.6,212.7 -71.1,90 -145.2,179.9 -237.8,249 -7.9,-7.2 -16.2,-14.1 -24.7,-20.7 m 1060.4,-18 c -187.3,-27.6 -365.2,-114.8 -501.7,-246.1 -145.6,-138.6 -243.5,-326.2 -273.8,-524.9 -32.8,-209.7 7.6,-430.4 115.9,-613.2 116.2,-200.6 311.7,-352.7 533.8,-418.3 171.9,-51.8 358.6,-49.3 530.1,2.6 15.2,2.5 22,17.6 31.3,27.9 46.1,61.8 109.6,107.9 176.6,144.7 74,40.2 158.6,60.8 226.8,111.4 194.8,219.1 269,536.2 198.5,820.2 -59.9,255 -235.6,478.9 -467.6,600 -173.4,91.5 -376.2,124.8 -569.9,95.7 m 3087.9,-406.1 c 44.5,-240.9 2.1,-497.3 -121.2,-709.4 -158.5,-277.6 -453.2,-473.4 -771.3,-508.3 32.5,-21.6 53.5,-57.6 49.3,-97.5 -5.3,-113.9 -92.3,-196.7 -159.8,-279.7 l -1.7,0.6 c -75.8,-94.4 -140,-198.9 -228.5,-282.5 -87.5,-83.7 -174.3,-175.1 -289.1,-220.5 -62.3,-23.1 -123.2,13.9 -182.6,28.6 -119.5,30.2 -229.7,86.7 -345.3,128.1 -105.1,35.6 -208.5,76.2 -310.9,119 -78.1,32.6 -159,59.5 -234,99 -16.8,0.1 -31.5,-8.2 -46.1,-15.1 -119,-59.8 -243.7,-109.9 -373.9,-139 -14,-3.3 -30.6,-7.1 -37.5,-21.5 -16.9,-33 -26,-69.5 -38.9,-104.2 l -2.2,-0.2 c -46.6,-173.4 -43.9,-355.6 -20.1,-532.4 13.9,-92.5 58.9,-176.1 102.9,-257.4 59.9,0 123.7,-27.3 180.6,1.7 57.8,25.4 127.2,33.1 186.2,7 48.3,-20.3 84.4,-60.2 111.8,-103.7 41.6,20.7 81.3,48.6 128.1,56.1 52.2,9.7 111.7,-39.5 98.4,-94.5 -12.5,-60.4 -22.8,-125.8 -64,-174.6 -7.2,21 -20.4,42.7 -12.6,65.4 12.8,52.2 28.1,104.5 25,158.9 -204.2,-40.5 -355.5,-218 -567.2,-234.2 -77.8,1.2 -160.7,-1.9 -232.4,32.9 -113.2,63.9 -199.5,167.7 -259.2,281.7 -28.4,56.2 -74.9,101.1 -99.9,159.2 -35.4,79 -66.6,159.9 -95.1,241.6 -48,146.9 -103.7,291.1 -150.1,438.4 -17.9,56.6 -40.8,111.9 -51.5,170.5 -4.5,12.3 -1.5,30.1 -15.1,36.9 -82.5,51.5 -162.6,109.6 -225,185.1 -57.5,72 -117.3,142.4 -167.1,220.2 -19.4,-74.8 -27.6,-151.9 -45.1,-227.1 -9.4,-31.8 -20.3,-63.2 -34.6,-93.2 -31.8,49.4 -23.8,110.1 -8.2,163.6 15,71 24.5,144.9 59.3,209.7 34.5,65.5 85.3,127.4 155.9,155.2 29.2,13.7 55.5,-11.4 79.3,-25 -49.7,-31.9 -99.6,-63.7 -145.8,-100.6 -13.5,-10.3 -29,-29.2 -17.8,-46.5 41.7,-75.4 99.3,-140.3 151.3,-208.7 58.2,-76.8 145.6,-121.8 221.2,-178.7 66.5,-39.2 136.8,-72.6 209.2,-99.3 108.9,-41 227.2,-28.6 340.8,-41.2 86.6,-11.1 172.7,7.6 258.4,17.8 72.3,9.1 136.7,45.4 204.4,69.6 44.4,15.9 87.4,35 129.5,56.2 -13,21.2 -24.4,43.5 -33.5,66.7 -301.4,-72.9 -632.5,-23.8 -895.1,142.8 -243.5,151.6 -424.5,398.5 -498.8,675.2 -118.2,8.1 -236.2,-9.1 -354.5,-1.8 -25.5,-1.6 -56.8,0.4 -70.7,-25.9 -52.3,-78.9 -85.9,-169.1 -108.4,-260.6 -29.3,-115.4 -59.3,-230.7 -83.7,-347.3 -14.7,-73.6 -7.1,-149 -10.1,-223.5 -6.9,-143.5 38.7,-281.7 56.2,-422.7 19.4,-77.1 48.6,-151.5 77.1,-225.6 32.1,-85.4 91.9,-155.4 136.9,-233.8 50.4,-84.8 108.8,-164.3 164.6,-245.6 39.4,-58.9 89.7,-109.4 138.2,-160.8 53.1,-53.4 103.1,-110.3 162.2,-157.3 68.9,-55.4 143.5,-103 214.8,-155.2 156.3,-112.6 340.6,-173.8 512.6,-257 181.1,-71.6 373.9,-106.6 560.4,-161.3 77.9,-24.4 159.8,-30.1 239.1,-48.9 124.9,-28.4 254.1,-19.9 380.8,-33.2 56.7,-6 113.8,-6.6 170.6,-2.7 156.6,13.2 315.2,13.6 469,50.1 81.8,21.2 165.1,36.5 246.2,60.6 127.6,37 251.5,85.3 375.3,133 59,23.3 120.2,42.1 174.6,75.6 59.5,36.4 126.8,56.9 187.6,90.8 124.1,66.8 239.8,150 342.7,246 137.9,106.6 255.4,237.7 363.9,373.4 161.7,166.3 266.3,377.9 356.2,589.4 60,170.4 72.8,352 88.4,530.6 3.2,93.1 3,186.8 -9.4,279.2 -2.2,72.4 -11.6,144.4 -17,216.6 -16.3,187.9 -62.6,376 -158.9,539.6 -27.8,44 -47.5,92.6 -77.5,135 -23.5,51.9 -64.1,94.2 -94.4,142.2 -38.2,60.8 -94.2,106.9 -147.4,153.8 -63.2,54.1 -123.7,112.3 -195.8,154.6 M 1704,6938.4 c 34.2,-11.3 68.7,-21.7 103.3,-31.4 2.7,50.3 8.2,100.4 16.4,150.1 -42.3,-37 -83,-76 -119.7,-118.7 m 2367.5,-361.3 c -12.6,-46.7 -25.9,-93.4 -44.3,-138.3 42.2,20.5 89,27.4 135.6,25.6 -32,36.3 -62.1,74.2 -91.3,112.7 M 3984.3,6334 c -106.4,-37.6 -195.8,-108.7 -294.8,-161.1 -58.3,-30.9 -119.3,-56.2 -178.9,-84.2 -63,-29.1 -116,-75.6 -162.5,-126.3 -30.1,-33.2 -54.4,-76.1 -50,-122.4 3.7,-61.7 49,-113.1 101.5,-141.3 101,-53.7 216.8,-69.8 319,-120.5 70.3,-34.6 139.4,-72.2 214.4,-95.9 100,-33.6 192.2,-87.4 294.7,-113.8 68,-22.2 147,-55.8 214.5,-13.6 169.4,107.8 302.1,262.9 415.6,426.4 53,62.1 90.5,135.6 145.1,196.4 35.4,35.3 7.5,92.9 -27.3,117.4 -80.8,49.9 -165.6,94.6 -255.1,126.9 -71.6,23.5 -141.6,51.7 -213.2,75.4 -76.8,27.2 -148.3,68.4 -226.9,90.7 -102,17.7 -201.4,-21.5 -296.1,-54.1 m 3450.6,-106.4 c 73.1,-61.3 149,-119.7 228.8,-172.2 84.6,-48.9 176,-84.6 263,-128.9 155.5,-79.1 325,-123.4 491.3,-173.4 -16.4,83.6 1.6,173.7 59.7,237.8 -175.6,74 -348.5,158.6 -535.1,202.4 -115.1,29.5 -234,37.8 -351.7,51.1 -52.5,4.6 -106.3,2.4 -156,-16.8 m -85,-31.3 c -37.1,-149.5 -75.2,-299.2 -98.6,-451.5 108.6,-66.9 213.2,-141.4 330.2,-193.4 173.2,-79.3 359,-124.7 536.5,-192.6 81.9,-30.4 166.6,-52.6 251.8,-71.3 142.4,-29.6 288.9,-44.5 434.3,-32.9 52.2,115.9 128.3,219.5 176,337.6 -132.8,0.4 -261.8,35.1 -389.7,66.8 -87.2,18.9 -175.3,33.3 -262.3,53.1 -79.6,17.4 -154.8,49.6 -233,71.8 -49.4,15.9 -96.6,37.5 -144.3,57.5 -96.5,35.3 -183.9,90.3 -276.8,133.4 -119.9,56.3 -206.8,161.2 -324.1,221.5 m 1231.2,-197.5 c -91.4,-41.9 -142.4,-163.4 -97.9,-255.5 52.1,-23.3 110.4,-28.2 165.8,-40.3 49.4,-12.3 99.6,-22.5 150.7,-23.6 19,-0.7 28.6,19.1 38.1,32.3 42.6,66.1 40,156.9 -5.8,220.7 -33.7,50.5 -91.8,79.2 -150.8,87.1 -34.2,-1.2 -69.3,-4.6 -100.1,-20.7 m 300.2,-329 c 37.5,0.1 74.9,-0.2 112.4,1.6 -23.2,25.3 -49.8,47 -77.3,67.4 -10.4,-23.6 -22,-46.7 -35.1,-69 m -1650.8,21.3 c -19.1,-53.7 -27.3,-110.5 -25.9,-167.4 60.9,-21.6 114.3,-58.6 172.3,-86.3 188.2,-85.6 380.4,-165.8 582.8,-211.2 156.7,-34.8 304.8,-103.8 465,-123.7 87,-6.9 173.5,-24 261.2,-19.9 22.6,34.6 44,70.1 62.1,107.3 -83.1,3.2 -168.2,-9 -249.3,14.2 -49.9,14.8 -103.4,12 -152.3,30.5 -53.6,19.7 -111.1,23.6 -165.6,39.6 -77.5,22.1 -152.8,50.7 -228.3,78.5 -178,52.9 -351.9,119.3 -518.7,200.9 -72.3,38.9 -135.3,92 -203.3,137.5 M 2184.7,5573.2 c 36.8,-188.7 98.9,-371.2 167.8,-550.3 34.3,-99 67.9,-199.1 120.4,-290.3 36.5,-64 62.2,-134.1 105.2,-194.3 39.9,-56.2 88.2,-105.9 140.4,-150.5 16.8,35.8 32,74.1 61.1,101.9 27.6,25.8 61.3,43.4 93.3,62.8 -36.8,85.5 -84.1,168.6 -96.2,262.2 -17.5,137.7 -21.6,277.5 -5.1,415.5 10.5,85.1 38.2,166.6 65.4,247.5 -112.2,-4.9 -224.1,5.4 -336.2,9.2 -110.3,5.9 -213.9,47.8 -316.1,86.3 m 5008.4,-110.8 c 3.8,-101 -31.3,-200.3 -16,-301.2 9.1,-72.1 39.5,-139.1 52,-210.4 8.9,-45.8 20,-93.5 50.2,-130.5 57.8,-71.9 119.8,-141.6 193.2,-198.1 62,-48.6 135.5,-78.9 206,-112.7 49.5,-24.5 104.6,-31.1 158.8,-37.8 54.1,-8.1 109.8,-15.4 163.8,-2.6 52,12.7 106.8,18.8 154.1,45.5 148.5,86 270.2,211.7 370.5,349.7 39.2,55.2 83.2,107.5 114.2,168 -101.2,-3.9 -201.1,16.2 -301.7,21.3 l -6.7,-2.2 0.7,5.2 c -26.2,6 -53.2,7.7 -78.3,17.6 -64.3,25.1 -132.5,38 -197.5,61 -131.8,45.1 -271.8,64.6 -399.6,121.6 -79,23.9 -157.5,50.5 -230.4,89.6 -56.7,31.4 -120.4,48.9 -174.2,85.7 -18.5,12.4 -38.6,22 -59.1,30.3 M 3121.2,4512.5 c 25.8,-31.5 49.1,-67.3 50.1,-109.5 -59.3,18.1 -91.6,78.8 -149.4,98.7 -62.2,12.8 -128.7,0.6 -184.6,-28.8 -42,-23.1 -60.2,-70.2 -81.3,-110.5 36.1,-27.1 77.4,-49.7 123.6,-51.8 93.2,-8.7 196.3,-22.2 280,30.1 65.5,41.8 132,82.2 201.2,117.6 -27.2,29.7 -54.3,64.7 -95.4,74.7 -49,12 -97.8,-6.5 -144.2,-20.5 M 7428,4372.8 c -20.3,-34 -40.8,-67.9 -57.2,-104 54.3,-23.4 113.3,-23.1 171.1,-18.8 38.4,0.9 76.8,2.3 115.3,-0.1 20.8,57.9 42.5,116.2 49.6,177.8 -35.2,13.7 -69.6,29.1 -103.3,45.8 -34.7,16.1 -70.7,29.3 -107.4,39.9 -28.4,-44.1 -41,-95.9 -68.1,-140.6 m -492.2,-108.7 c -54.9,-38.3 -83.8,-102.4 -102.6,-164.7 -21.3,-75.7 -48.7,-150.9 -53.6,-230.1 -1.4,-54.7 -38.3,-97.8 -67.9,-140.5 -37.6,-56.2 -103.4,-80.4 -161.2,-109.8 -77.5,-39 -165.9,-40.2 -249.9,-52.7 -96.3,-14.4 -193.7,-1.4 -290.4,-7.5 -171.7,-8.2 -340.9,28.7 -508.4,61.7 -5.8,-25.3 -11.9,-50.6 -17.8,-75.9 65.2,-48 113.4,-113.8 167.5,-173.2 115.8,-129.1 185.5,-290.8 247.4,-450.8 12.5,-34 26.4,-67.5 40.4,-101 33.6,-79.2 50.4,-164.1 65.7,-248.4 108.8,-5.2 219.5,5.3 322.7,41.8 101.3,33.8 207.5,52.5 306.3,93.4 69.5,41 135.2,88.9 195.7,142.3 -20,51.3 -21.4,107.5 -9.9,160.9 13.8,80.1 30.3,160.5 68.2,233.3 24.7,44.9 36.6,95.2 58,141.6 52.5,104.8 85.6,222.4 169.6,308.2 -28.6,62.2 -60.5,127.4 -55.5,197.8 5.2,50 22.1,97.8 36.4,145.7 12.2,41.8 45.7,75.3 87.7,87 -30.8,-85 -70.9,-171.6 -62.8,-264.3 14.1,-92.3 63.2,-184.5 147.3,-230.7 66.6,-36.9 154.2,-39.8 218.4,4.1 39.7,24.6 64.2,72.3 59.3,118.9 -9.5,101.3 -25.9,202.5 -56.8,299.7 -13.2,41.5 -36,80.8 -69.5,109 -32.9,27.8 -75.2,39 -113.6,56.5 -68.8,30.4 -138.9,63.4 -215.2,68 -51.9,3.3 -109.8,10.3 -155.5,-20.3 m 552.1,-69.5 c 31,-26.5 72.1,-47.6 86.6,-88.1 14.9,-49.8 12.3,-102.4 14.9,-153.8 5.3,-39.6 -4.2,-93.3 37,-116.6 59.7,-50.4 142.6,-41.7 214.8,-34.4 51,7 82,52.6 103.4,95 12.9,45.8 16.8,97.1 -7.7,139.8 -46.1,81.8 -135.7,132.7 -227.1,145.6 -73.5,9.6 -147.7,15.7 -221.9,12.5 M 4949.2,3684.5 c -204.4,-69.9 -417.8,-106.6 -629.7,-145.3 -95.3,-16.1 -192.3,-29.4 -289.1,-21 -172.7,14.3 -346.9,9.8 -518.4,36.8 -82.9,13.5 -168.5,12.6 -249.3,37.7 -43.5,13.4 -87.7,24.6 -132.2,34 -63.7,13.8 -127.8,26.3 -190,46 -56.3,17.6 -111.1,40.3 -168.8,52.7 -15.9,2 -33.8,10.8 -48.1,-0.5 -58.9,-36.6 -101.9,-105 -92.6,-176.1 1.8,-53.3 42.3,-94.3 83.3,-123.4 37.4,-26.3 86.1,-46.9 131.9,-30.4 50.8,17.6 104.7,35.3 142.4,75.8 43.9,44.8 90.3,88.5 146.4,117.8 0.7,-3.6 2.1,-10.8 2.8,-14.4 4.4,-68.7 14,-136.9 24.1,-205 12.2,-88.7 88.6,-166.4 179.7,-171 58.8,3.9 124.9,16.9 162.2,67.4 43.2,58 77.5,131.3 150.5,157.3 -11.6,-39.1 -36.9,-80.3 -20,-121.9 22.8,-61.4 58.4,-127.6 124.5,-149.9 92,-38.4 195.9,-14.7 282.3,27.1 43.3,19.8 60.7,67.2 86,104.1 25.4,40.5 64.6,69.2 103.6,95.5 -8.8,-51.8 -34,-111.8 -3.5,-160.5 55,-46.4 125.7,-97.4 201.7,-75.1 54.5,16.6 115.8,47.7 130.8,107.8 12.7,46.6 34.4,91.5 35.1,140.6 3.5,38.6 -0.2,83.7 28.6,113.9 18.1,-56.9 14.4,-117.5 24.2,-175.6 39.2,-41.1 84.4,-85 143.4,-92.7 82.9,-14.1 169.2,29.4 213.8,99.3 25,32.2 24.6,75.1 13.3,112.5 -13.8,63.5 -61.9,114.5 -66.3,180.7 44.8,-8.1 83,-38.4 99.2,-81.1 45.9,-12.1 92.1,-22.7 138.1,-34.6 39.4,-10.6 78.6,-34.1 120.7,-24.3 37.6,10.9 76.4,29.9 96.4,65.4 27.5,45.6 30.2,112.3 -10.4,151.3 -45.4,45.2 -108.4,63.7 -164.3,91.8 -89.4,-48.6 -185.9,-81.5 -282.3,-112.7 M 7513,3554.7 c -37.2,-13.8 -75.5,-24.4 -114.5,-31.6 64.6,-74 161,-129.3 261.5,-120.9 72.1,15.2 147.8,40.4 199.6,95.5 40,59.5 49.1,144.7 1,202.5 -21.1,30 -60.9,16.6 -91.4,17.6 -53.4,-4.4 -103,18.2 -150.5,39.2 -8.9,-77.1 -33.5,-161.3 -105.7,-202.3 m -487.9,-150.9 c -39.9,-57.6 -61.6,-124.7 -88.3,-188.8 -38.3,-97.1 -77.7,-199.1 -68.5,-305.5 13.2,-40.1 46.7,-69.7 73.3,-101.5 16.8,-15.4 33.7,-33.8 57.4,-37.9 54.8,-11.6 124.2,-8.7 160.3,40.6 71.6,97.2 115.2,211 166.4,319.4 -44.8,39.8 -86.2,83.4 -120,133 -2.2,58.3 -20,117.8 -6.2,175.7 12.9,52.1 66.2,77.3 112.4,93.6 -65.5,18.8 -123.8,56.7 -173.5,102.6 -27.7,-81.7 -73.6,-155.1 -113.3,-231.2 m -4569.9,-17.5 c -71.7,-57.9 -152.1,-103.4 -230.5,-151.3 -122.2,-73.7 -248.4,-140.3 -375.4,-205.1 -127.2,-68.5 -248.1,-148.5 -363.2,-235.6 -75.4,-72.1 -156.5,-145.5 -196.7,-244.2 -31.8,-75.9 -58.3,-156.6 -55.1,-239.9 3.2,-75 -6,-152.8 19.4,-225.1 35.5,-98.8 107.1,-179.4 183.2,-249.6 40,-35 84.9,-67 137.2,-80 41.2,-9.4 83.5,-12.5 125.6,-14.6 72.8,-4.2 142.5,20.3 213.8,30.2 -3.4,38.5 0.4,77.2 14.7,113.2 34.3,-12.5 60,-39.7 72.3,-74 20.8,-54.2 64.2,-97.1 114.1,-125.4 30.7,-15.3 78.6,-22.3 100.4,10.7 31.8,43.3 59.4,93.6 111.1,116.3 10.8,-11.6 21.7,-23.1 32.6,-34.8 -37.8,-62.8 -96.4,-114.7 -115.4,-187.7 -6.7,-53.4 -11.5,-115.2 24.7,-159.9 35.7,-50.3 100,-81.7 161.7,-65 74.5,16.5 126.9,76.8 169.4,136.1 51,63.8 108,128.1 126.6,210 22.8,89.4 -5.9,179.6 -14.9,268.8 -6.9,72.1 -58.6,126.7 -94.5,185.9 -14.1,19.1 -11.9,43.5 -12.5,65.6 59.4,-54.5 106.7,-120.8 147.3,-190 28.5,-48.8 18.6,-108.7 40.8,-159.7 28.6,-66.4 65.1,-130.8 117,-182 24.8,-25 54.1,-50.5 91.3,-51.9 57.1,-3.4 120.5,7.9 162.1,50.4 41.5,43.9 64.8,102.3 74.4,161.3 13.8,93.5 0,189.5 -31.3,278.1 -24.8,74.4 -57,148.1 -108.8,207.8 -34,39.8 -83.1,60.7 -129.4,82.2 -78,35.4 -151.3,80.6 -221,130.2 -31.2,20.5 -43.8,57.4 -54.1,91.3 131.3,-48 242.8,-139 377.2,-179.6 72.3,-20.3 147.4,-26.3 220.8,-41.2 65.8,-13.2 134.6,-0.1 195.1,27 94.1,47.2 129.7,183.2 68,269.2 -49.9,68.1 -123,116.2 -201,146.7 -77.4,31.8 -161.3,40 -243.3,53.1 -62.5,9.3 -125.8,15.3 -188.9,10.5 -99.9,-6.8 -202.4,-11 -296.6,-48.7 -106.3,-40.6 -194.1,-115.5 -278.8,-189.3 -61.3,-53.1 -107.9,-120.3 -153.6,-186.7 -27,-38.2 -49.7,-82.7 -93.4,-104.7 6.9,95.4 71.8,169.8 120,247.5 48.3,76.9 119.2,135.5 190.8,189.6 79.3,60.5 172.7,98.8 266.1,131.9 65.8,23.9 136.3,29.9 205.8,31.9 141,2.9 283.1,-8.8 419.9,-44.1 71.6,-17.8 136.7,-54 199.4,-91.7 74.3,-47.5 141.5,-120 152.5,-210.9 13.9,-86.2 -18.4,-179.6 -86.3,-235.4 -46.1,-36.4 -103.6,-54.7 -160.3,-66.9 -82,-16.5 -164.1,8.1 -244.8,20.5 63.8,-99.6 114.8,-209.1 135.8,-326.2 18.3,-103.3 15.3,-213.7 -26.2,-311.3 -30.7,-66.7 -79.1,-134.9 -153.8,-154.4 -69.5,-14.3 -143.8,-20.6 -212.3,1.3 -54.4,18.2 -80.8,73.6 -109,118.9 -5.3,-13.3 -10.5,-26.8 -15.6,-40.3 -28.3,-71.5 -67.8,-137.7 -107.8,-203 74.7,-76.8 162.8,-138.4 247.4,-203.4 79.7,-61 173.1,-100.5 267.1,-133.8 -6.6,50.3 -5.7,101.4 6.4,150.8 17.2,96.1 24.7,194.2 52.1,288.2 13,46 34.3,89 49.1,134.4 31.7,93.1 51.6,191.3 100.6,277.6 18.8,32.9 35.3,67.3 45.7,103.8 24.5,87.4 81.7,160 116.6,243 25.2,60.9 74.1,107.7 102.3,166.9 43.8,90.8 108.3,170.9 185.8,235 65.6,53.8 114.9,132.8 199.8,158.7 68.8,19.5 132.4,54.1 202.7,68.4 106.1,23.4 215.6,22.3 323.5,16.9 67.8,-2.7 129.5,-33.2 192.3,-55.8 57.4,-21.3 117.5,-37.3 170.7,-68.5 54.1,-31.3 89.4,-84.6 129,-131.4 49.5,-58.7 82.5,-128.9 130.7,-188.6 55.9,-71.5 112.2,-143.3 159,-221.2 65.4,-136.9 114.5,-281.3 185.3,-415.7 44.1,-88.6 69.3,-185.5 85.9,-282.7 9,-87.6 13.6,-175.7 16.8,-263.8 31.5,20.6 60.7,44.3 87,71.1 74.7,77.4 141.9,168.3 164.6,275.5 18,84 46.9,165.8 56.1,251.5 10.5,83.4 11,167.6 15.9,251.4 5.6,96.6 -13.1,192.2 -22.1,288 -6.9,102.4 -52.3,196.3 -75.5,295.2 -16.4,73.4 -57.2,137.4 -86.3,205.9 -33.9,76.5 -69,153.7 -122.1,219 -71.1,92.6 -115,215.2 -226.7,268.7 -59.2,-22.1 -116.5,-63.5 -182.5,-55 -59.8,13.2 -112,47 -167.9,70.4 7.4,-40.1 20.9,-82.3 6.4,-122.5 -14,-41.3 -36.5,-80 -66.1,-112.2 -66.3,-72.1 -174.3,-97.7 -267.6,-72.1 -45,10.7 -83.2,37.8 -118.8,66.1 -40.1,-101.9 -144.2,-177 -254.5,-175.8 -90.1,6.5 -159,72.1 -223.2,128.8 -18.9,-27.7 -37.7,-58.3 -69.3,-73.2 -104,-54.9 -231.9,-86.2 -345,-39.7 -74.6,27.1 -126.6,92.1 -161.7,160.7 -55.6,-74.2 -151.2,-105.7 -241.2,-102.6 -76,-0.7 -138.4,50.3 -192.6,97.5 -63,64.6 -51.4,162.2 -61.8,244.5 -29.4,-30.3 -53,-65.8 -84.5,-94.1 -25.2,-22.6 -59.7,-27.7 -90.3,-39.4 -32.5,-11 -65.2,-27.7 -100.5,-23.9 -60.3,6.5 -113.7,38.9 -159.6,76.8 -26.5,25.1 -52.2,51.1 -76,78.8 -41.6,-29.2 -79.6,-63 -119.6,-94.2 m 4837.1,72.1 c -39.3,-17.8 -48.1,-65.1 -37.7,-103.4 l 3.7,-2.3 c 19.5,-95.7 94.4,-173.9 182.4,-211.9 52,-23.1 109.7,-5.8 160.4,12.1 l -3.3,1.6 c 29.7,11.1 62.9,19.3 84.9,43.9 30.5,33.8 36.3,88.6 11.9,127.3 -13.9,14.5 -37.1,9.4 -54.9,12.3 -89.6,2.5 -182.6,29.8 -247.4,94.3 -24.7,26.7 -65.4,47.3 -100,26.1 M 4386.1,2918 c -104.9,-10.3 -209.8,-35.4 -305.7,-79.8 -120.5,-75.1 -239,-161 -322,-278.2 -40,-54.4 -58.7,-122.1 -105.5,-172 -52.6,-53.9 -63.9,-132.4 -108.2,-191.9 -54.1,-75.1 -64.5,-170.7 -110.8,-249.8 -59.3,-102.2 -76.6,-221.2 -121.8,-329.2 -49,-119.4 -46.2,-250.6 -68.3,-376 -7.8,-43.6 -5.9,-88.2 -3.5,-132.4 88.9,-29.5 181.4,-46.3 273.8,-60.8 140.3,-28.4 283.3,-33.4 425.6,-43.2 80.4,-9.802 161.2,-0.2 241.2,9.6 96.4,13.3 194.1,7.9 290.8,18.8 180.8,19.2 365,16.1 542.3,60.8 62,17.1 122.7,38.9 185.5,53.6 135,32.1 266.3,84.6 382.2,161.4 -11.4,110.8 -0.1,223.8 -25.6,333 -42.7,154.6 -115.3,298.3 -178.6,445.1 -27.4,57.1 -49.5,116.5 -75.9,173.9 -40.8,88 -105.1,161.7 -161.9,239.3 -42,55.1 -73.3,117.5 -117.8,170.8 -46.1,54.2 -88.7,117.6 -157.8,144.4 -76.9,30.1 -153.7,61 -232.7,85.2 -79.1,25 -163.4,26 -245.3,17.4 M 5980.8,1695.7 c -9.9,-14.8 -19.7,-29.8 -29.4,-44.9 24.4,5 48,12.8 71.6,20.7 -14.2,8.3 -28.1,16.2 -42.2,24.2 m -55.9,-139.5 c -25.7,-56.7 -8,-119.3 3.3,-177.3 1.4,-15.8 3,-31.7 4.5,-47.7 49.8,-9.9 101.9,-21 152.2,-7.6 45.8,13.7 79.8,59.7 72.9,108.2 -12.6,79.2 -43.4,157.6 -102.5,213.7 -49.2,-18 -108.4,-36.5 -130.4,-89.3 m -127.8,-178.1 c 32,-18.2 66.9,-30.6 103,-37.5 -9,43.3 -20.3,86.1 -31.2,128.9 -23.1,-31.1 -47.1,-61.5 -71.8,-91.4 m -129.2,-106.6 c 36.1,8.2 72.2,16.4 108.5,24 -14.3,7.6 -28.6,15.3 -42.7,22.9 -22.2,-15.2 -44.1,-30.9 -65.8,-46.9 m 13.7,-49 c -43.4,-4.2 -74.9,-37.2 -107.6,-62.4 -26.9,-30.3 -46.9,-69.2 -40.8,-111 3.5,-56.901 51.5,-95.299 92.9,-127.702 11.2,29.301 19.5,59.704 22.6,90.902 4,29.1 1.5,62.9 24.2,85.1 54.4,63.3 141,81.3 220.2,89.2 -20.3,21.8 -39.2,52.4 -71.8,54.6 -46.7,-5.8 -92.9,-14.9 -139.7,-18.7 m 35.9,-150.4 c -32.1,-26.8 -20.5,-73.6 -29.9,-109.998 -8,-30.301 -29.3,-65.204 -11.4,-95.704 23.3,-27.898 58.3,-43.796 92.5,-54.199 53.8,-11.199 97.8,29.199 135,61.903 32,28.097 67.4,57.5 79.6,100.097 11.3,46.001 -3.4,93.601 -24.7,134.301 -10.4,23.3 -30,46.6 -58.4,42.4 -66.7,-6.9 -133.4,-32.4 -182.7,-78.8 m -466.4,11.1 c -26.6,-7.5 -52.9,-15.4 -79.2,-23.7 -11,-26.2 -21.5,-52.6 -31.1,-79.5 25.6,5 51.1,10 76.6,15.5 78.2,20.1 156.1,-6.5 228.6,-34.301 -4.6,60.301 -8.4,120.701 -9.8,181.201 -61,-22.1 -122.8,-41.5 -185.1,-59.2 M 2969.9,1101 c 40,-34.3 89.2,-56.7 126.1,-94.9 36.8,-38.998 53.9,-91.1 73.7,-139.901 51.7,49 103.8,97.5 158.6,143.001 -76.3,22.9 -154.3,40.7 -228.2,70.9 -41.1,16.9 -85.6,27.2 -130.2,20.9 m -142,-99.3 c -31.1,-36.598 -46.2,-84.802 -49.5,-132.2 -1.5,-49.301 28.2,-101 73.1,-121.602 l 5.5,1.903 1.1,-6.602 c 23.3,-12.597 52.2,-14.801 77.7,-7.898 64.4,19.801 123.6,53 181,87.699 -2.2,51.898 -23.9,99.898 -48.9,144.301 -26.1,43.199 -72.6,68.099 -118.9,83.999 -44.7,-0.1 -91.1,-15.1 -121.1,-49.6 m 540.3,-43.598 c 60.9,-5.403 123.3,-8.301 181.6,-28.602 50.9,-20.301 92,-57.898 136.8,-88.5 -5.2,29.5 -10.6,58.801 -16.1,88.102 -90,17.5 -178.4,43.597 -269.8,53.597 -10.9,-8.097 -21.7,-16.301 -32.5,-24.597 m 1838.8,-1 c -26,-9.801 -55.8,-16.5 -74.3,-39.102 -27,-31.199 -51.2,-75.801 -32.2,-117.102 20.4,-55.898 74.1,-91.199 129.9,-105.296 50.7,-6.403 109,-0.903 146.2,38 35.7,48.699 53.7,107.699 66.2,166 -68,46.5 -153.4,74.597 -235.8,57.5 M 4111,934.699 c 23.3,-15.5 47.2,-30.301 71.3,-44.597 -3.4,17.296 -6.7,34.398 -10,51.398 -20.5,-2 -40.9,-4.301 -61.3,-6.801 m -348.4,-11.398 c 8.8,-50.5 20.9,-101.102 47.5,-145.602 48.7,50.903 87.1,112.5 146.9,151.801 -64.6,-5.801 -129.5,-6.699 -194.4,-6.199 m -388.4,-18 -1,-3.102 c -46.6,-11.301 -87.8,-46 -102.8,-92.097 -11.3,-31.801 -10.1,-66.102 -10.2,-99.5 25.3,9.398 50.3,19.699 75.3,29.699 l 0.3,3 c 36.7,19 69,55.699 114,50.597 88.4,-1.5 164,-54.699 227.9,-111 3.1,31.102 19.3,71.801 -10.2,95.301 -31.9,28.102 -67.8,51.301 -98.8,80.5 -51.3,48.801 -127.9,51.903 -194.5,46.602 m 616.3,-16.903 c -69.1,-28.199 -108.4,-95.597 -164.4,-141.296 28.2,-43.704 55.6,-91.5 101.3,-119.403 43.4,-27 105.5,-24.597 142.5,12.5 48.3,46.801 88.7,104.301 105.9,170 2.5,14.5 10.9,32 -2.6,43.301 -50.6,38.398 -121.7,61.301 -182.7,34.898 M 3328.9,690.801 c -26.1,-11.801 -54.4,-22.602 -73.9,-44.5 -16.8,-46.199 -1,-103.102 37.4,-134.199 25.9,-20 59.9,-22 90.8,-29 45,-4.801 90.2,-11.704 135.6,-9.204 71.6,7.602 125.9,70.204 143.9,136.801 11.2,30.5 -19.1,55.5 -41.2,71.199 -49.3,30 -102.8,58.602 -161.3,63.301 -50.8,4.301 -85.9,-39.597 -131.3,-54.398 M 4748.3,2708.9 c 21.4,-3.7 42.8,-7.5 64.3,-11.4 -30.3,-110.7 -135.8,-199.6 -252.8,-196.1 -83.3,0.1 -155.6,47.6 -216.9,99.3 -48.2,-50.6 -109.1,-101.9 -183.1,-99.7 -78.1,8.9 -121,83.9 -159,143.9 -8.2,20.8 -13,42.9 -17.6,64.6 18.7,-9.2 37.6,-18.9 53.3,-33 35.4,-48.7 66.1,-115.5 133.1,-124.6 73.5,-4.2 132.2,61.8 146.6,129.6 10,0.9 20.1,1.6 30.3,2.2 17.6,-24.3 35.9,-48.6 58.5,-68.7 81.1,-77.2 221.8,-77.9 305.8,-5.5 29.9,24 31.3,64.7 37.5,99.4 m 376.1,-441.8 c 15.7,15.7 38.7,18.8 59,25 -14.5,-49.1 -46.6,-89.5 -74.8,-131.3 -29.4,-41.6 -67.4,-83.1 -119.2,-94.7 -84.1,-15.6 -168.7,17.9 -236.3,66.1 -77.3,-146.5 -273.2,-215.7 -424.3,-146.5 -52.8,22.7 -78.5,77.3 -107.1,123.3 -54.5,-57.1 -109.1,-127.7 -192.1,-140.8 -85.5,-7.5 -178.1,-8.8 -254.9,35.1 -49.1,26.6 -80.4,74.6 -110.8,119.6 13.1,11 26.2,22 39.3,32.8 34,-45.5 66.8,-99.8 124.3,-117.8 80.4,-23.2 166.3,-7.8 243.7,19.4 69.9,22.4 106.2,92.7 167.7,128.6 28,-59.5 60.8,-124.6 124,-153.2 58.3,-29.3 125,-11.6 185.6,-0.3 62,10.2 102.2,63.7 139.6,109.1 23.1,33.3 12,76.2 11.2,113.6 18.4,-5 45.3,0.4 53.5,-21.8 28.9,-48.5 68.7,-98.8 127.9,-108.7 39.6,-6.4 85.6,-21.9 122.2,2.4 48.5,39.3 77.6,96.4 121.5,140.1 m 67.8,-628.5 c 27.7,37.9 53.6,77.6 89,109 5.2,-13.3 10.4,-26.6 15.7,-40 -25.2,-39.4 -49.1,-80.1 -79.2,-116.1 -53.2,-64.9 -136.1,-97.2 -216.7,-111.2 -85.2,-4.4 -159.9,48 -220.6,102.2 -44.8,-64.7 -94,-130.4 -164,-169.3 -45.1,-24.2 -98.7,-12 -145.4,0.2 -46.2,13.9 -92.1,29.3 -135.9,49.6 -50,24.1 -87.6,66.4 -121.1,109.4 -49,-49.7 -93.5,-106 -155.2,-140.8 -35.7,-21.4 -77.8,-28 -118.6,-31.3 -59.7,-3.2 -121.5,-18.8 -179.3,4 -44.4,17.1 -91.9,35.3 -124.4,71.2 -34.2,48.9 -77.1,100.4 -70,164.3 73.3,-39.8 101.7,-128.8 176.6,-166.2 74.6,-36.4 163.1,-31.4 241.3,-10 108.3,36.9 170.3,138.3 245.5,216.7 20.9,-15.2 38.9,-33.8 55,-54.1 -6.7,-9.1 -13.4,-18.4 -19.9,-27.8 32.7,-38 69.4,-74.8 116.4,-94.7 62.2,-26.6 128.1,-60.9 197.9,-47 26,3.9 43.2,25.5 61.2,42.3 29.7,30.6 60.9,59.6 89.8,90.9 18.6,17.2 16.1,44.1 19.1,66.9 12.7,3.9 25.6,7.6 38.4,11.3 41.5,-72.5 117.2,-128 202.1,-132.6 78.4,0.5 156.6,38.8 202.3,103.1" /><path
         id="path16"
         style="fill:#ffc50f;fill-opacity:1;fill-rule:nonzero;stroke:none"
         d="m 2385.2,9649.9 c 14.1,47.9 19.7,110.5 72.8,132 1.8,-46.7 -1.3,-93.5 -5.8,-140 -22.4,2.6 -44.7,5.2 -67,8 m -74.7,-613.1 c 16.8,-2.5 33.5,-5.1 50.3,-7.7 -5.7,-53.6 -12.7,-107.2 -26.8,-159.4 -31.3,49.8 -28.6,110.9 -23.5,167.1 m 10.1,-405.2 c 40.7,-12.6 73.6,-43.1 86.1,-84.3 33.6,-85 28.5,-179.2 13.2,-267.6 -11,-53.1 -16.6,-108.6 -42.2,-157.3 -36.7,-71.7 -103.7,-130.6 -184.3,-145.5 30,96.6 92.7,179.7 116.7,278.4 -65.7,-85.3 -109.5,-185.3 -175.4,-270.7 -27.8,6.3 -55.7,12.1 -83.6,17.9 10.9,37.8 26.5,74.1 36.4,112.3 31.8,27.4 66.3,51.9 94.9,82.8 62.8,71.4 108.6,158 130.1,250.8 12.9,60.2 7.4,122.1 8.1,183.2" /><path
         id="path18"
         style="fill:#1676bc;fill-opacity:1;fill-rule:nonzero;stroke:none"
         d="m 2508.7,9673.1 c 180.3,-9.5 360.8,2.7 541.3,2.4 306.5,-6.4 613.2,-11.2 919.9,-7.8 116.7,4.4 233.4,-1 350.1,-1.8 373.5,-5.3 747.2,-6 1120.6,-16 58.3,-1.1 64.1,-72.2 77.4,-114.5 -289.5,-4.2 -578.8,18.5 -868.4,9.1 -259.6,-13.9 -519.7,-0.3 -779.5,-2.6 -223.5,-4.8 -446.9,-12.2 -670.5,-8.8 -109.8,0.7 -219.4,7.1 -329.2,6.7 -127.6,-0.1 -255.5,-3.1 -382.7,9.1 6.8,41.4 13.1,82.9 21,124.2 m 955.8,-1222.9 c 17.4,-0.1 34.7,-0.1 52.1,0 6.6,-22.5 9.7,-45.8 7.4,-69.3 -7.7,-121.7 3.6,-243.4 9,-364.9 -42.7,-7.5 -85.4,-15.4 -128.1,-22.6 -24.4,79.1 -14.3,163.5 -17.4,245 33.5,9.3 67.1,18.4 100.9,27.2 -0.9,62.2 -8.7,124.2 -23.9,184.6" /><path
         id="path20"
         style="fill:#035389;fill-opacity:1;fill-rule:nonzero;stroke:none"
         d="m 2264,9585.2 c 17.4,21.8 36.1,42.6 56.4,61.7 -0.3,-71.4 -9.6,-146.6 -52.1,-206.4 -209.1,-305.5 -436.8,-597.7 -649.4,-900.8 -96.8,-136 -193.6,-271.9 -293.8,-405.4 -102.5,-131.7 -192.4,-272.7 -296.6,-403.1 -34.5,-42.3 -67.398,-86.6 -108.602,-122.9 -9,43 -16.097,87.8 -6.898,131.4 7.699,28.3 26.199,51.7 42,75.9 84.7,126.7 180,245.7 273.1,366.2 221.3,299.6 431.8,607.2 657.2,903.8 129.6,164 245.5,338.4 378.7,499.6 m 221.6,-98.4 c 362.1,20.1 724.8,4.2 1087.2,3.3 -53,-61.3 -115.3,-113.7 -167,-176.2 -157.4,-163.6 -303,-338.4 -437.1,-521.6 -41,-53.1 -75.8,-110.7 -117.9,-162.8 -4.7,-5.4 -9.1,-10.9 -13.2,-16.7 -16.8,-23.6 -29,-49.9 -41.6,-75.9 -81.1,-9.5 -167.5,-12.7 -240.5,-52.9 -26,-11.1 -23.2,-41.4 -25.7,-64.7 45.4,-15.1 90.6,-33.1 128.3,-63.6 -75.4,-51.2 -141,-116.2 -191.6,-192.1 -40.3,-54.5 -55.3,-122.5 -61.3,-188.8 25.9,-1.2 51.9,-1.4 77.9,-1.8 1.9,-22.6 4.3,-45.2 5.5,-67.9 -152.6,-62.4 -283.9,-167 -397.1,-285.1 -61.7,66.2 -109.9,143.9 -171.3,210.4 -30.6,32.9 -75.6,52.9 -120.6,51.7 -44.2,-8 -84.5,-36.6 -105.5,-76.5 -32.2,-60.3 -53.8,-126.9 -57.5,-195.4 -3,-62.4 -12,-124.3 -18.2,-186.4 -225.6,23.9 -450.3,55.1 -674.9,86.9 6.699,11.9 13.5,23.6 20.699,35 215.401,319 449.301,624.9 672.801,938.1 179.9,246.5 354.3,497.2 541.3,738.5 27.4,34.3 52.7,70.4 83.6,101.8 -2.9,-134.6 -9.4,-269.1 -8.5,-403.7 4.5,-42.4 -26.7,-74.2 -44.8,-109.2 -23.7,-41.5 -35.7,-88.7 -59.9,-130 -34.5,-26.7 -88.5,-28.4 -110.2,-70.8 -53.5,-104.1 -86.1,-218.8 -152,-316.5 -46.9,-74.8 -111.6,-135.8 -163.8,-206.6 110.3,-90.5 249.6,-137.1 388.7,-160 106.7,-18.1 216.8,34.2 281.9,118.1 48.2,62.9 62.1,143.4 73.5,219.8 7.2,57.9 20.3,115.5 19.2,174.1 -3.9,80.8 -51.3,150.6 -63.2,229.8 -33.5,187 5,375.6 22.5,562.1 9.7,85.7 22.4,171.2 40.3,255.6 m 234.3,-1428.1 c 73.7,20.4 145.9,46.1 218.3,70.5 -0.5,-40 -0.3,-80 0.6,-120.1 -131.2,-9.5 -263.2,-27.6 -386.3,-76.1 -0.8,18.8 -2,37.5 -0.1,56.2 52.6,29.9 108.8,54.4 167.5,69.5" /><path
         id="path22"
         style="fill:#fed30c;fill-opacity:1;fill-rule:nonzero;stroke:none"
         d="m 2375.6,9607.6 c 23.5,-4.1 47,-8.2 70.5,-12.4 -5.5,-37.1 -11.3,-74.1 -17.8,-111 -23.9,2.7 -47.7,5.7 -71.5,8.8 4.2,38.5 10.6,76.7 18.8,114.6 M 2351,9450.8 c 22.9,-3.7 45.9,-7.6 68.7,-11.9 -5.6,-31.4 -11,-62.8 -16.3,-94.3 -20.8,2.9 -41.7,5.9 -62.4,9.1 3.1,32.4 6.7,64.7 10,97.1 m -21.7,-234.4 c 1.8,31.4 4.1,62.7 7.7,94 19.7,-3.5 39.5,-7 59.2,-10.6 -4.3,-29.7 -9.4,-59.4 -14.8,-89 -17.4,1.9 -34.8,3.7 -52.1,5.6 M 2316,9081.1 c 2.8,30.9 5.8,61.6 9.6,92.4 16.4,-2.8 32.9,-5.7 49.4,-8.5 -3,-29.9 -6.3,-59.8 -9.3,-89.8 -16.6,2 -33.1,4 -49.7,5.9 m -100.8,-373.9 c 22.5,49.7 56.1,100.5 112.5,114.4 23.2,-46.4 34.1,-97.3 40.3,-148.4 -51.2,10.1 -102.5,19.8 -152.8,34 m -133.5,-149.1 c 23.2,43.4 74.7,55.9 118.5,67.8 39.1,11.8 80.3,11.7 120.4,5.7 -0.7,-61.1 4.8,-123 -8.1,-183.2 -21.5,-92.8 -67.3,-179.4 -130.1,-250.8 -28.6,-30.9 -63.1,-55.4 -94.9,-82.8 -27.2,-22.6 -57.1,-41.8 -88.8,-57.4 20.6,61.1 50.3,119 64.9,182.1 -59.7,-50.7 -94.7,-121.7 -133.9,-187.9 -41.7,11.7 -83.1,25.4 -120.3,47.8 48.1,58.7 108.3,108 145.9,174.8 50,91 75.7,193.2 126.4,283.9" /><path
         id="path24"
         style="fill:#0060a1;fill-opacity:1;fill-rule:nonzero;stroke:none"
         d="m 3572.8,9490.1 c 385.7,1 771.5,0.5 1157.1,-7.8 153.2,-5.5 306.5,-6 459.7,-1.6 119.2,-0.1 239,6.7 357.7,-6.8 -103.6,-197.9 -235.1,-379.3 -360.7,-563.5 -120.1,43.7 -250.2,27.7 -372.6,3.9 14.3,36.6 33.3,73.2 30,113.8 -33.6,9.1 -68.5,25.4 -103.7,14.1 -69.1,-15 -124.7,-61.4 -178.2,-104.9 -52.3,-44.7 -118.4,-73 -160.8,-129.1 -12.6,-12.7 -10.8,-31.7 -12.3,-48.1 -2.4,-70.1 6.9,-142.2 36.6,-206.3 13.5,-26.8 47.8,-27.2 73.8,-25.3 83.4,7.7 166.5,22.2 250.6,20 58.3,-1 115.8,-12.5 173.5,-20.4 -81.1,-113.7 -151,-235.4 -238.2,-344.7 -41.1,-17 -85.9,-23.5 -126.9,-40.9 -92.6,-32.3 -176.1,-84 -258.7,-135.7 -30.2,39.4 -64.3,76 -105.7,103.9 33.3,30.4 73.6,61.8 80.9,109.4 0.5,47.9 -37.2,89.5 -80.7,105.2 -42.6,14.3 -87.9,3.4 -130.5,-5.4 -11.1,22.3 -17.2,49.9 -39.9,63.6 -77.7,48.5 -171.9,53.7 -256.6,83.8 -101.5,37.2 -210.4,44.2 -317.5,42.7 -26,27.1 -56.8,49.6 -94.7,56.1 -77.3,16.1 -151.4,46.5 -230,56.3 -91.3,6.6 -182.8,7.9 -274.2,7.1 42.1,52.1 76.9,109.7 117.9,162.8 134.1,183.2 279.7,358 437.1,521.6 51.7,62.5 114,114.9 167,176.2 M 2796,8536.9 c 12.6,26 24.8,52.3 41.6,75.9 26.7,-41.1 63.6,-73.8 103.3,-102.1 -48.1,9.9 -96.2,19.9 -144.9,26.2 m 720.6,-86.7 c 161.3,-14 315.8,-63.7 470.8,-107.2 3.3,-17.1 6.6,-34.3 10,-51.4 -32.4,-17.4 -64.3,-35.5 -96,-54 -11.3,31 -17.4,67.6 -45,88.9 -42.1,11.9 -88.1,-5.3 -120.4,-32.8 -76.9,-67.5 -121.2,-165.7 -136.9,-265.6 -22,-4.2 -44.1,-8.2 -66.1,-12.1 -5.4,121.5 -16.7,243.2 -9,364.9 2.3,23.5 -0.8,46.8 -7.4,69.3 m -286.8,-245 c 53.3,6.9 105.8,19.2 157.7,33.2 3.1,-81.5 -7,-165.9 17.4,-245 l 0.6,-1.9 c -37.7,-2.8 -70.8,-21.6 -106,-32.9 -43.7,2.4 -85.2,20.2 -128.5,26.6 -76.7,13.1 -154.2,24.5 -232.2,23.9 -0.9,40.1 -1.1,80.1 -0.6,120.1 95.3,31.7 191.8,62.1 291.6,76" /><path
         id="path26"
         style="fill:#41210a;fill-opacity:1;fill-rule:nonzero;stroke:none"
         d="m 4720.5,8979.3 c 15.8,11.6 34.1,4.6 50.9,-0.5 -17.1,-43.1 -37.8,-85.2 -44.6,-131.5 35.2,4.1 70.1,10.7 104.4,20 77.7,21.4 158.7,26.2 238.9,27.3 32.7,1.2 60.3,-18.4 86.8,-35 -31,-26.4 -63.4,-51.2 -93.2,-79 47.6,-30.3 91.3,-66 134,-102.8 39.5,-34.8 91.2,-53.6 126,-93.9 19.9,-21.7 34.3,-47.6 48,-73.5 -122.1,2.5 -239.6,40.1 -360.9,49 -107.1,8.3 -213.2,28.9 -320.9,29.7 -73.8,-1.4 -147.1,-11.5 -220.6,-18.1 -13.4,67.2 -24.8,134.9 -43.9,200.7 88.9,81.3 188.6,151.3 295.1,207.6 m -1768,-415.7 c 106.8,27.9 220.2,10.1 322,-28.6 47.2,-17.7 105.6,-31.6 129,-81.5 17.5,-48.1 19.4,-99.9 26,-150.2 -81.2,-18.3 -160.2,-46.1 -242.5,-59.3 -153.4,-25.2 -302,-72.2 -448.8,-122.1 -94,-32.1 -180.4,-82.4 -273.6,-116.7 -0.2,33.8 5.2,68.3 22.8,97.7 56.5,98.2 131.3,196.5 242.9,234.1 -28.8,48.2 -72.7,85.3 -122.6,110.2 71.3,32.2 151.6,54.6 230.1,38.9 59,-11.9 114.9,-35.5 173.9,-48 -13.5,44.6 -36,85.5 -59.2,125.5" /><path
         id="path28"
         style="fill:#75625b;fill-opacity:1;fill-rule:nonzero;stroke:none"
         d="m 3725.9,8214.9 c 23.7,34.1 63.7,50.3 101.1,64.9 0.8,-44.3 -0.1,-89.4 -15.3,-131.7 -11,-29.3 -11,-60.8 -6.5,-91.5 32.8,31 49.3,75.4 84.8,103.9 44.6,36 88.2,77.5 144.3,94.5 53.9,12.1 109.7,13.2 164.8,11.2 l -2.5,-1.7 c -44.4,-31.8 -90,-63.4 -142.8,-79.2 -191,-64.4 -350.8,-207.9 -440.8,-387.6 -68.1,46.7 -140.5,86.7 -216.2,119.6 79.7,41.7 172.6,43.2 259.7,58.4 -16,86.1 21.5,169.9 69.4,239.2 m 2230.3,-370.6 c 20.9,19.8 42.7,42.6 72.8,46.3 25,5.9 49,-4.6 71.4,-14.5 -92.4,-124.8 -151.9,-276.2 -155.8,-432.4 -35.7,35.4 -51.4,83.9 -72.7,128.1 -20.4,43.8 -42.2,86.8 -64.1,129.7 50.7,46.3 99.4,94.7 148.4,142.8 m -4170.2,-55 c 8.5,6.6 16.8,13.5 24.7,20.7 92.6,-69.1 166.7,-159 237.8,-249 -49.7,-67.3 -92.2,-139.5 -132.6,-212.7 -13.7,54.3 -24,109.7 -42.9,162.5 -6.7,19.5 -20.3,36.5 -23.5,57 -3.4,26.3 -5.7,53.1 -14.8,78.3 -16.5,47.7 -22.9,99.1 -48.7,143.2 m 76.9,-399.5 c 9.1,-38.7 24.4,-78 21.2,-118.3 -14.1,-44.1 -21.3,-98 -64.2,-124.5 22.2,79 48.3,159.6 43,242.8 m -443.4,-859.6 c 13.9,26.3 45.2,24.3 70.7,25.9 -0.6,-8 -2,-23.9 -2.7,-31.9 -8.1,-23.1 -17.3,-45.9 -22.7,-70 -71,-369.1 -54.2,-755.3 52.5,-1115.9 90.8,-314.9 251.8,-608.2 462.8,-858.4 68.2,-81.3 146.7,-152.9 222,-227.4 278,-249.2 616.2,-430.3 977.9,-523.1 181.6,-49.4 369.7,-65.5 556.3,-84.4 219.7,-16.2 442,-4.7 657.9,40.4 88,16.8 173.3,45.5 261.8,60 66.4,11.3 129.4,35.1 193.2,55.8 141.3,39.5 275.8,99.1 414.5,146.4 161,57.5 313.2,137.9 454.4,234 34.4,25.6 68.5,52.1 108.1,69.2 -102.9,-96 -218.6,-179.2 -342.7,-246 -60.8,-33.9 -128.1,-54.4 -187.6,-90.8 -54.4,-33.5 -115.6,-52.3 -174.6,-75.6 -123.8,-47.7 -247.7,-96 -375.3,-133 -81.1,-24.1 -164.4,-39.4 -246.2,-60.6 -153.8,-36.5 -312.4,-36.9 -469,-50.1 -56.8,-3.9 -113.9,-3.3 -170.6,2.7 -126.7,13.3 -255.9,4.8 -380.8,33.2 -79.3,18.8 -161.2,24.5 -239.1,48.9 -186.5,54.7 -379.3,89.7 -560.4,161.3 -172,83.2 -356.3,144.4 -512.6,257 -71.3,52.2 -145.9,99.8 -214.8,155.2 -59.1,47 -109.1,103.9 -162.2,157.3 -48.5,51.4 -98.8,101.9 -138.2,160.8 -55.8,81.3 -114.2,160.8 -164.6,245.6 -45,78.4 -104.8,148.4 -136.9,233.8 -28.5,74.1 -57.7,148.5 -77.1,225.6 -17.5,141 -63.1,279.2 -56.2,422.7 3,74.5 -4.6,149.9 10.1,223.5 24.4,116.6 54.4,231.9 83.7,347.3 22.5,91.5 56.1,181.7 108.4,260.6 m 5205.8,-506.8 c 12.4,-92.4 12.6,-186.1 9.4,-279.2 -15.6,-178.6 -28.4,-360.2 -88.4,-530.6 -89.9,-211.5 -194.5,-423.1 -356.2,-589.4 11.3,23.1 22.5,46.4 37.4,67.5 144.5,206.6 246.3,441.8 304.4,686.8 28,109.3 55.4,219.2 68.4,331.5 13.9,104 14.4,209.1 25,313.4 m 964.1,-2070.7 c 115.8,-32.6 234.4,-57 355.2,-56 -21.4,-42.4 -52.4,-88 -103.4,-95 -72.2,-7.3 -155.1,-16 -214.8,34.4 -41.2,23.3 -31.7,77 -37,116.6 m -190.9,-429.6 c 39,7.2 77.3,17.8 114.5,31.6 107.6,-50.2 229.7,-54.8 346.6,-57 -51.8,-55.1 -127.5,-80.3 -199.6,-95.5 -100.5,-8.4 -196.9,46.9 -261.5,120.9 M 2455.2,3386.3 c 40,31.2 78,65 119.6,94.2 23.8,-27.7 49.5,-53.7 76,-78.8 -59.3,-38.4 -113.8,-84.2 -176.9,-116.5 -112.5,-58.9 -216.7,-132.9 -310.1,-218.9 -43.9,-41.1 -98,-68.5 -146.2,-103.9 -124.1,-90.8 -236.3,-197.8 -330.9,-319.2 -109.6,-129.2 -216.5,-266.9 -271.1,-429.5 -23.5,-74.3 -44.6,-155.1 -22.7,-232.5 8.7,-35.3 35.4,-61.9 50,-94.5 1.2,-17.2 -3.8,-34 -6,-51.2 -76.1,70.2 -147.7,150.8 -183.2,249.6 -25.4,72.3 -16.2,150.1 -19.4,225.1 -3.2,83.3 23.3,164 55.1,239.9 40.2,98.7 121.3,172.1 196.7,244.2 115.1,87.1 236,167.1 363.2,235.6 127,64.8 253.2,131.4 375.4,205.1 78.4,47.9 158.8,93.4 230.5,151.3 m 4803.1,-33.6 c 48.5,-28.6 90,-67.3 138.1,-96.6 63.7,-40.3 133.2,-69.9 201.4,-101.6 l 3.3,-1.6 c -50.7,-17.9 -108.4,-35.2 -160.4,-12.1 -88,38 -162.9,116.2 -182.4,211.9 m -747.7,-472.4 c 110.8,20.3 222.3,54.4 309.2,129.3 -11.5,-53.4 -10.1,-109.6 9.9,-160.9 -60.5,-53.4 -126.2,-101.3 -195.7,-142.3 -98.8,-40.9 -205,-59.6 -306.3,-93.4 -103.2,-36.5 -213.9,-47 -322.7,-41.8 -15.3,84.3 -32.1,169.2 -65.7,248.4 -14,33.5 -27.9,67 -40.4,101 107.4,-35.9 217.6,-67.8 331.6,-71.9 94.7,-8.6 187.4,16.3 280.1,31.6 m -3731,-1215 c 20,-25.3 39.9,-50.7 59.8,-76.2 97.2,-124.9 218.2,-231 353.3,-313.2 -12.1,-49.4 -13,-100.5 -6.4,-150.8 -94,33.3 -187.4,72.8 -267.1,133.8 -84.6,65 -172.7,126.6 -247.4,203.4 40,65.3 79.5,131.5 107.8,203" /><path
         id="path30"
         style="fill:#88736c;fill-opacity:1;fill-rule:nonzero;stroke:none"
         d="m 4053.8,8185.3 c 52.8,15.8 98.4,47.4 142.8,79.2 14.1,-12.9 33.7,-32.2 21.5,-52.9 -41.1,-73.1 -125.7,-100.2 -191.1,-145.6 47.1,-9.4 94.9,2.2 142.1,-3.1 32.6,-14.1 52.4,-46 66.8,-76.9 20.6,-34.6 -23.1,-59.9 -47.4,-76.3 -55.5,-20.7 -131,-37.1 -176.3,12.3 -33.9,33.8 -71,64.6 -114.2,85.8 0.9,-37.3 9,-76.6 37.4,-103.1 45.8,-49.6 113.3,-66.2 175.9,-83.9 -79.9,-106.7 -144.4,-225.1 -183.3,-353 -82.1,129.2 -189.9,241.8 -315,329.9 90,179.7 249.8,323.2 440.8,387.6 M 6371.9,6914.6 c 30,-42.4 49.7,-91 77.5,-135 96.3,-163.6 142.6,-351.7 158.9,-539.6 5.4,-72.2 14.8,-144.2 17,-216.6 -10.6,-104.3 -11.1,-209.4 -25,-313.4 -13,-112.3 -40.4,-222.2 -68.4,-331.5 -58.1,-245 -159.9,-480.2 -304.4,-686.8 -14.9,-21.1 -26.1,-44.4 -37.4,-67.5 -108.5,-135.7 -226,-266.8 -363.9,-373.4 -39.6,-17.1 -73.7,-43.6 -108.1,-69.2 -141.2,-96.1 -293.4,-176.5 -454.4,-234 -138.7,-47.3 -273.2,-106.9 -414.5,-146.4 -63.8,-20.7 -126.8,-44.5 -193.2,-55.8 -88.5,-14.5 -173.8,-43.2 -261.8,-60 -215.9,-45.1 -438.2,-56.6 -657.9,-40.4 -186.6,18.9 -374.7,35 -556.3,84.4 -361.7,92.8 -699.9,273.9 -977.9,523.1 -75.3,74.5 -153.8,146.1 -222,227.4 -211,250.2 -372,543.5 -462.8,858.4 -106.7,360.6 -123.5,746.8 -52.5,1115.9 5.4,24.1 14.6,46.9 22.7,70 -18.8,-227.2 23,-461.5 138.9,-659.5 -15.6,-53.5 -23.6,-114.2 8.2,-163.6 14.3,30 25.2,61.4 34.6,93.2 124.5,-180.6 302.7,-325 508.8,-401.9 l -5,16.3 c 46.4,-147.3 102.1,-291.5 150.1,-438.4 28.5,-81.7 59.7,-162.6 95.1,-241.6 25,-58.1 71.5,-103 99.9,-159.2 59.7,-114 146,-217.8 259.2,-281.7 71.7,-34.8 154.6,-31.7 232.4,-32.9 211.7,16.2 363,193.7 567.2,234.2 3.1,-54.4 -12.2,-106.7 -25,-158.9 -7.8,-22.7 5.4,-44.4 12.6,-65.4 41.2,48.8 51.5,114.2 64,174.6 13.3,55 -46.2,104.2 -98.4,94.5 -46.8,-7.5 -86.5,-35.4 -128.1,-56.1 -27.4,43.5 -63.5,83.4 -111.8,103.7 -59,26.1 -128.4,18.4 -186.2,-7 -56.9,-29 -120.7,-1.7 -180.6,-1.7 -44,81.3 -89,164.9 -102.9,257.4 -23.8,176.8 -26.5,359 20.1,532.4 l 2.2,0.2 c 43.4,-1 83.1,18.1 123,32.5 139.7,55.2 269.2,138.7 373.4,247.3 75,-39.5 155.9,-66.4 234,-99 102.4,-42.8 205.8,-83.4 310.9,-119 115.6,-41.4 225.8,-97.9 345.3,-128.1 59.4,-14.7 120.3,-51.7 182.6,-28.6 114.8,45.4 201.6,136.8 289.1,220.5 88.5,83.6 152.7,188.1 228.5,282.5 l 1.7,-0.6 c 176.2,-66.6 371.5,-78.7 556.5,-48.3 339.4,58.8 642.2,291.4 786,604.3 87.6,182.2 114.6,388.1 98.1,588.3 m 563.9,-2650.5 c 45.7,30.6 103.6,23.6 155.5,20.3 76.3,-4.6 146.4,-37.6 215.2,-68 38.4,-17.5 80.7,-28.7 113.6,-56.5 33.5,-28.2 56.3,-67.5 69.5,-109 30.9,-97.2 47.3,-198.4 56.8,-299.7 4.9,-46.6 -19.6,-94.3 -59.3,-118.9 -64.2,-43.9 -151.8,-41 -218.4,-4.1 -84.1,46.2 -133.2,138.4 -147.3,230.7 -8.1,92.7 32,179.3 62.8,264.3 -42,-11.7 -75.5,-45.2 -87.7,-87 -14.3,-47.9 -31.2,-95.7 -36.4,-145.7 -5,-70.4 26.9,-135.6 55.5,-197.8 -84,-85.8 -117.1,-203.4 -169.6,-308.2 -21.4,-46.4 -33.3,-96.7 -58,-141.6 -37.9,-72.8 -54.4,-153.2 -68.2,-233.3 -86.9,-74.9 -198.4,-109 -309.2,-129.3 -92.7,-15.3 -185.4,-40.2 -280.1,-31.6 -114,4.1 -224.2,36 -331.6,71.9 -61.9,160 -131.6,321.7 -247.4,450.8 -54.1,59.4 -102.3,125.2 -167.5,173.2 5.9,25.3 12,50.6 17.8,75.9 167.5,-33 336.7,-69.9 508.4,-61.7 96.7,6.1 194.1,-6.9 290.4,7.5 84,12.5 172.4,13.7 249.9,52.7 57.8,29.4 123.6,53.6 161.2,109.8 29.6,42.7 66.5,85.8 67.9,140.5 4.9,79.2 32.3,154.4 53.6,230.1 18.8,62.3 47.7,126.4 102.6,164.7 m 552.1,-69.5 c 74.2,3.2 148.4,-2.9 221.9,-12.5 91.4,-12.9 181,-63.8 227.1,-145.6 24.5,-42.7 20.6,-94 7.7,-139.8 -120.8,-1 -239.4,23.4 -355.2,56 -2.6,51.4 0,104 -14.9,153.8 -14.5,40.5 -55.6,61.6 -86.6,88.1 m 25.1,-639.9 c 72.2,41 96.8,125.2 105.7,202.3 47.5,-21 97.1,-43.6 150.5,-39.2 30.5,-1 70.3,12.4 91.4,-17.6 48.1,-57.8 39,-143 -1,-202.5 -116.9,2.2 -239,6.8 -346.6,57 M 3001.2,3388.2 c 31.5,28.3 55.1,63.8 84.5,94.1 10.4,-82.3 -1.2,-179.9 61.8,-244.5 54.2,-47.2 116.6,-98.2 192.6,-97.5 90,-3.1 185.6,28.4 241.2,102.6 35.1,-68.6 87.1,-133.6 161.7,-160.7 113.1,-46.5 241,-15.2 345,39.7 31.6,14.9 50.4,45.5 69.3,73.2 64.2,-56.7 133.1,-122.3 223.2,-128.8 110.3,-1.2 214.4,73.9 254.5,175.8 35.6,-28.3 73.8,-55.4 118.8,-66.1 93.3,-25.6 201.3,0 267.6,72.1 29.6,32.2 52.1,70.9 66.1,112.2 14.5,40.2 1,82.4 -6.4,122.5 55.9,-23.4 108.1,-57.2 167.9,-70.4 66,-8.5 123.3,32.9 182.5,55 111.7,-53.5 155.6,-176.1 226.7,-268.7 53.1,-65.3 88.2,-142.5 122.1,-219 29.1,-68.5 69.9,-132.5 86.3,-205.9 23.2,-98.9 68.6,-192.8 75.5,-295.2 9,-95.8 27.7,-191.4 22.1,-288 -4.9,-83.8 -5.4,-168 -15.9,-251.4 -9.2,-85.7 -38.1,-167.5 -56.1,-251.5 -22.7,-107.2 -89.9,-198.1 -164.6,-275.5 -26.3,-26.8 -55.5,-50.5 -87,-71.1 -3.2,88.1 -7.8,176.2 -16.8,263.8 -16.6,97.2 -41.8,194.1 -85.9,282.7 -70.8,134.4 -119.9,278.8 -185.3,415.7 -46.8,77.9 -103.1,149.7 -159,221.2 -48.2,59.7 -81.2,129.9 -130.7,188.6 -39.6,46.8 -74.9,100.1 -129,131.4 -53.2,31.2 -113.3,47.2 -170.7,68.5 -62.8,22.6 -124.5,53.1 -192.3,55.8 -107.9,5.4 -217.4,6.5 -323.5,-16.9 -70.3,-14.3 -133.9,-48.9 -202.7,-68.4 -84.9,-25.9 -134.2,-104.9 -199.8,-158.7 -77.5,-64.1 -142,-144.2 -185.8,-235 -28.2,-59.2 -77.1,-106 -102.3,-166.9 -34.9,-83 -92.1,-155.6 -116.6,-243 -10.4,-36.5 -26.9,-70.9 -45.7,-103.8 -49,-86.3 -68.9,-184.5 -100.6,-277.6 -14.8,-45.4 -36.1,-88.4 -49.1,-134.4 -27.4,-94 -34.9,-192.1 -52.1,-288.2 -135.1,82.2 -256.1,188.3 -353.3,313.2 -19.9,25.5 -39.8,50.9 -59.8,76.2 5.1,13.5 10.3,27 15.6,40.3 28.2,-45.3 54.6,-100.7 109,-118.9 68.5,-21.9 142.8,-15.6 212.3,-1.3 74.7,19.5 123.1,87.7 153.8,154.4 41.5,97.6 44.5,208 26.2,311.3 -21,117.1 -72,226.6 -135.8,326.2 80.7,-12.4 162.8,-37 244.8,-20.5 56.7,12.2 114.2,30.5 160.3,66.9 67.9,55.8 100.2,149.2 86.3,235.4 -11,90.9 -78.2,163.4 -152.5,210.9 -62.7,37.7 -127.8,73.9 -199.4,91.7 -136.8,35.3 -278.9,47 -419.9,44.1 -69.5,-2 -140,-8 -205.8,-31.9 -93.4,-33.1 -186.8,-71.4 -266.1,-131.9 -71.6,-54.1 -142.5,-112.7 -190.8,-189.6 -48.2,-77.7 -113.1,-152.1 -120,-247.5 43.7,22 66.4,66.5 93.4,104.7 45.7,66.4 92.3,133.6 153.6,186.7 84.7,73.8 172.5,148.7 278.8,189.3 94.2,37.7 196.7,41.9 296.6,48.7 63.1,4.8 126.4,-1.2 188.9,-10.5 82,-13.1 165.9,-21.3 243.3,-53.1 78,-30.5 151.1,-78.6 201,-146.7 61.7,-86 26.1,-222 -68,-269.2 -60.5,-27.1 -129.3,-40.2 -195.1,-27 -73.4,14.9 -148.5,20.9 -220.8,41.2 -134.4,40.6 -245.9,131.6 -377.2,179.6 10.3,-33.9 22.9,-70.8 54.1,-91.3 69.7,-49.6 143,-94.8 221,-130.2 46.3,-21.5 95.4,-42.4 129.4,-82.2 51.8,-59.7 84,-133.4 108.8,-207.8 31.3,-88.6 45.1,-184.6 31.3,-278.1 -9.6,-59 -32.9,-117.4 -74.4,-161.3 -41.6,-42.5 -105,-53.8 -162.1,-50.4 -37.2,1.4 -66.5,26.9 -91.3,51.9 -51.9,51.2 -88.4,115.6 -117,182 -22.2,51 -12.3,110.9 -40.8,159.7 -40.6,69.2 -87.9,135.5 -147.3,190 0.6,-22.1 -1.6,-46.5 12.5,-65.6 35.9,-59.2 87.6,-113.8 94.5,-185.9 9,-89.2 37.7,-179.4 14.9,-268.8 -18.6,-81.9 -75.6,-146.2 -126.6,-210 -42.5,-59.3 -94.9,-119.6 -169.4,-136.1 -61.7,-16.7 -126,14.7 -161.7,65 -36.2,44.7 -31.4,106.5 -24.7,159.9 19,73 77.6,124.9 115.4,187.7 -10.9,11.7 -21.8,23.2 -32.6,34.8 -51.7,-22.7 -79.3,-73 -111.1,-116.3 -21.8,-33 -69.7,-26 -100.4,-10.7 -49.9,28.3 -93.3,71.2 -114.1,125.4 -12.3,34.3 -38,61.5 -72.3,74 -14.3,-36 -18.1,-74.7 -14.7,-113.2 -71.3,-9.9 -141,-34.4 -213.8,-30.2 -42.1,2.1 -84.4,5.2 -125.6,14.6 -52.3,13 -97.2,45 -137.2,80 2.2,17.2 7.2,34 6,51.2 -14.6,32.6 -41.3,59.2 -50,94.5 -21.9,77.4 -0.8,158.2 22.7,232.5 54.6,162.6 161.5,300.3 271.1,429.5 94.6,121.4 206.8,228.4 330.9,319.2 48.2,35.4 102.3,62.8 146.2,103.9 93.4,86 197.6,160 310.1,218.9 63.1,32.3 117.6,78.1 176.9,116.5 45.9,-37.9 99.3,-70.3 159.6,-76.8 35.3,-3.8 68,12.9 100.5,23.9 30.6,11.7 65.1,16.8 90.3,39.4 m 4291.1,70.2 c 34.6,21.2 75.3,0.6 100,-26.1 64.8,-64.5 157.8,-91.8 247.4,-94.3 17.8,-2.9 41,2.2 54.9,-12.3 24.4,-38.7 18.6,-93.5 -11.9,-127.3 -22,-24.6 -55.2,-32.8 -84.9,-43.9 -68.2,31.7 -137.7,61.3 -201.4,101.6 -48.1,29.3 -89.6,68 -138.1,96.6 l -3.7,2.3 c -10.4,38.3 -1.6,85.6 37.7,103.4" /><path
         id="path32"
         style="fill:#cfe9fa;fill-opacity:1;fill-rule:nonzero;stroke:none"
         d="m 4825.5,7992.7 c 171.2,21.6 349.3,-11.6 500.1,-96.1 155.7,-86.4 281.8,-225.3 351.7,-389.2 74.8,-171.7 86.2,-369.4 35.3,-549.3 -77,-273.5 -304.5,-499.2 -580.1,-570.7 -181.5,-48.8 -380.3,-34.1 -551.3,44.7 -132.7,60.5 -250.4,155.7 -332.8,276.4 -111.7,159.3 -161.6,359.9 -140.4,553.1 18.8,185.4 105,362.5 236.9,493.9 128,129.4 299.8,215.2 480.6,237.2 m 17.9,-136 c -89.7,-18.7 -157.3,-105.2 -157.6,-196.2 -2.7,-75.9 40.8,-151.3 108.7,-185.9 73.4,-39.7 170.8,-29 232.9,27.2 57.7,50.4 83.7,134.4 62.6,208.3 -25.4,104.6 -142.4,174.5 -246.6,146.6 m -458.7,-440.8 c -33.5,-41.1 -25.1,-96.8 -13.7,-144.4 -66.9,-59.4 -101,-155.2 -79,-243 26.4,-129.2 171.3,-218.6 298.8,-183.3 127.5,27.7 214.3,170.7 180.7,296.6 -16.9,78.6 -77.4,142.9 -151,172.4 1.1,39.7 -4.9,82.1 -33.4,112.1 -51,60.8 -158,55.7 -202.4,-10.4 m -1538.3,355.4 c 193.7,29.1 396.5,-4.2 569.9,-95.7 232,-121.1 407.7,-345 467.6,-600 70.5,-284 -3.7,-601.1 -198.5,-820.2 -68.2,-50.6 -152.8,-71.2 -226.8,-111.4 -67,-36.8 -130.5,-82.9 -176.6,-144.7 -9.3,-10.3 -16.1,-25.4 -31.3,-27.9 -171.5,-51.9 -358.2,-54.4 -530.1,-2.6 -222.1,65.6 -417.6,217.7 -533.8,418.3 -108.3,182.8 -148.7,403.5 -115.9,613.2 30.3,198.7 128.2,386.3 273.8,524.9 136.5,131.3 314.4,218.5 501.7,246.1 m -303,-276.3 c -92.3,-1.7 -177.7,-73.7 -194,-164.7 -18.9,-87 25.6,-184.5 106.4,-223.7 87.8,-48 207.6,-19 263.4,64.1 43.5,61.2 50,146.2 14.7,212.7 -34.4,70.5 -112.4,115.4 -190.5,111.6 m 411.3,-382.6 c -87.7,-20.9 -164.8,-86.3 -194.6,-172 -36.4,-100.1 -11.9,-221 67,-294.1 103.5,-102.9 289.5,-100.4 388.6,7.6 73.8,77.3 97.8,199 55.1,297.6 -47.8,120.8 -190.5,192.3 -316.1,160.9 m -581.5,-167.2 c -82.8,-16.7 -111.9,-135.5 -46.3,-188.7 58.5,-58.2 171.6,-20 181.6,62.1 16.6,75.3 -61.1,148.9 -135.3,126.6" /><path
         id="path34"
         style="fill:#a89088;fill-opacity:1;fill-rule:nonzero;stroke:none"
         d="m 5944.6,7443.7 c 3.9,156.2 63.4,307.6 155.8,432.4 55.3,-58 86.3,-134.1 101.8,-211.8 29.1,-147.9 46.3,-299.3 35.9,-450.1 -55,39.4 -102.7,88.1 -158.2,126.9 -46.3,32.7 -91.6,66.6 -135.3,102.6 M 1786,7789.3 c 25.8,-44.1 32.2,-95.5 48.7,-143.2 9.1,-25.2 11.4,-52 14.8,-78.3 -9.2,1.7 -27.7,5.1 -36.9,6.8 13.7,-62.4 33.6,-123.2 50.3,-184.8 5.3,-83.2 -20.8,-163.8 -43,-242.8 -27.7,-29.2 -59.2,-54.4 -88.5,-81.9 -24.9,54.8 -33.1,115.2 -37,174.7 -6.4,120.4 -14.2,242.5 8.4,361.8 17.6,66.2 37.5,134.7 83.2,187.7" /><path
         id="path36"
         style="fill:#ffffff;fill-opacity:1;fill-rule:nonzero;stroke:none"
         d="m 4843.4,7856.7 c 104.2,27.9 221.2,-42 246.6,-146.6 21.1,-73.9 -4.9,-157.9 -62.6,-208.3 -62.1,-56.2 -159.5,-66.9 -232.9,-27.2 -67.9,34.6 -111.4,110 -108.7,185.9 0.3,91 67.9,177.5 157.6,196.2 M 2543.4,7495 c 78.1,3.8 156.1,-41.1 190.5,-111.6 35.3,-66.5 28.8,-151.5 -14.7,-212.7 -55.8,-83.1 -175.6,-112.1 -263.4,-64.1 -80.8,39.2 -125.3,136.7 -106.4,223.7 16.3,91 101.7,163 194,164.7 m 1841.3,-79.1 c 44.4,66.1 151.4,71.2 202.4,10.4 28.5,-30 34.5,-72.4 33.4,-112.1 -82.9,32.8 -182.3,15.9 -249.5,-42.7 -11.4,47.6 -19.8,103.3 13.7,144.4 m 48.5,-210.2 c 43.7,16.3 94.4,-29.7 82.6,-74.8 -7.5,-47.7 -75.3,-68.9 -108.1,-33.2 -35.2,30.7 -19.2,95.9 25.5,108 M 2902.1,6978 c 48.7,29.5 117.4,-22.1 102.2,-77 -8.2,-49.8 -76.8,-73.2 -114,-39.5 -38.4,28.8 -30.8,95.6 11.8,116.5 m -528.9,-32.8 c 74.2,22.3 151.9,-51.3 135.3,-126.6 -10,-82.1 -123.1,-120.3 -181.6,-62.1 -65.6,53.2 -36.5,172 46.3,188.7" /><path
         id="path38"
         style="fill:#f0e3d3;fill-opacity:1;fill-rule:nonzero;stroke:none"
         d="m 5934.3,7365.2 c 72.1,-42.3 132.6,-100.5 195.8,-154.6 53.2,-46.9 109.2,-93 147.4,-153.8 30.3,-48 70.9,-90.3 94.4,-142.2 16.5,-200.2 -10.5,-406.1 -98.1,-588.3 -143.8,-312.9 -446.6,-545.5 -786,-604.3 -185,-30.4 -380.3,-18.3 -556.5,48.3 67.5,83 154.5,165.8 159.8,279.7 4.2,39.9 -16.8,75.9 -49.3,97.5 318.1,34.9 612.8,230.7 771.3,508.3 123.3,212.1 165.7,468.5 121.2,709.4 M 1704,6938.4 c 36.7,42.7 77.4,81.7 119.7,118.7 -8.2,-49.7 -13.7,-99.8 -16.4,-150.1 -34.6,9.7 -69.1,20.1 -103.3,31.4 m 2367.5,-361.3 c 29.2,-38.5 59.3,-76.4 91.3,-112.7 -46.6,1.8 -93.4,-5.1 -135.6,-25.6 18.4,44.9 31.7,91.6 44.3,138.3 m -2581.3,-21 c 118.3,-7.3 236.3,9.9 354.5,1.8 74.3,-276.7 255.3,-523.6 498.8,-675.2 262.6,-166.6 593.7,-215.7 895.1,-142.8 9.1,-23.2 20.5,-45.5 33.5,-66.7 -42.1,-21.2 -85.1,-40.3 -129.5,-56.2 -67.7,-24.2 -132.1,-60.5 -204.4,-69.6 -85.7,-10.2 -171.8,-28.9 -258.4,-17.8 -113.6,12.6 -231.9,0.2 -340.8,41.2 -72.4,26.7 -142.7,60.1 -209.2,99.3 -75.6,56.9 -163,101.9 -221.2,178.7 -52,68.4 -109.6,133.3 -151.3,208.7 -11.2,17.3 4.3,36.2 17.8,46.5 46.2,36.9 96.1,68.7 145.8,100.6 -23.8,13.6 -50.1,38.7 -79.3,25 -70.6,-27.8 -121.4,-89.7 -155.9,-155.2 -34.8,-64.8 -44.3,-138.7 -59.3,-209.7 -115.9,198 -157.7,432.3 -138.9,659.5 0.7,8 2.1,23.9 2.7,31.9 m 224.1,-534.7 c 49.8,-77.8 109.6,-148.2 167.1,-220.2 62.4,-75.5 142.5,-133.6 225,-185.1 13.6,-6.8 10.6,-24.6 15.1,-36.9 10.7,-58.6 33.6,-113.9 51.5,-170.5 l 5,-16.3 c -206.1,76.9 -384.3,221.3 -508.8,401.9 17.5,75.2 25.7,152.3 45.1,227.1 m 1578.8,-393.9 c 14.6,6.9 29.3,15.2 46.1,15.1 -104.2,-108.6 -233.7,-192.1 -373.4,-247.3 -39.9,-14.4 -79.6,-33.5 -123,-32.5 12.9,34.7 22,71.2 38.9,104.2 6.9,14.4 23.5,18.2 37.5,21.5 130.2,29.1 254.9,79.2 373.9,139" /><path
         id="path40"
         style="fill:#086bc8;fill-opacity:1;fill-rule:nonzero;stroke:none"
         d="m 4371,7271.5 c 67.2,58.6 166.6,75.5 249.5,42.7 73.6,-29.5 134.1,-93.8 151,-172.4 33.6,-125.9 -53.2,-268.9 -180.7,-296.6 -127.5,-35.3 -272.4,54.1 -298.8,183.3 -22,87.8 12.1,183.6 79,243 m 62.2,-65.8 c -44.7,-12.1 -60.7,-77.3 -25.5,-108 32.8,-35.7 100.6,-14.5 108.1,33.2 11.8,45.1 -38.9,91.1 -82.6,74.8 m -1478.5,-93.3 c 125.6,31.4 268.3,-40.1 316.1,-160.9 42.7,-98.6 18.7,-220.3 -55.1,-297.6 -99.1,-108 -285.1,-110.5 -388.6,-7.6 -78.9,73.1 -103.4,194 -67,294.1 29.8,85.7 106.9,151.1 194.6,172 M 2902.1,6978 c -42.6,-20.9 -50.2,-87.7 -11.8,-116.5 37.2,-33.7 105.8,-10.3 114,39.5 15.2,54.9 -53.5,106.5 -102.2,77" /><path
         id="path42"
         style="fill:#fcaa1c;fill-opacity:1;fill-rule:nonzero;stroke:none"
         d="m 3984.3,6334 c 94.7,32.6 194.1,71.8 296.1,54.1 78.6,-22.3 150.1,-63.5 226.9,-90.7 71.6,-23.7 141.6,-51.9 213.2,-75.4 89.5,-32.3 174.3,-77 255.1,-126.9 34.8,-24.5 62.7,-82.1 27.3,-117.4 -54.6,-60.8 -92.1,-134.3 -145.1,-196.4 -113.5,-163.5 -246.2,-318.6 -415.6,-426.4 -41.9,15.9 -82.6,34.8 -122.5,55.1 -50.8,26.3 -108.7,33.8 -159.9,59.2 -50.3,24.6 -95.3,58 -141.8,88.8 -48,33.1 -107.8,41.3 -156.3,73.4 -85.7,50.5 -148.8,134.2 -182.6,227 -35.2,102 -24.3,213.9 10.4,314.5 99,52.4 188.4,123.5 294.8,161.1 M 5797.1,1378.1 c 24.7,29.9 48.7,60.3 71.8,91.4 10.9,-42.8 22.2,-85.6 31.2,-128.9 -36.1,6.9 -71,19.3 -103,37.5 m 247.5,7.2 c 39.9,9.6 76.2,29.5 113.2,46.5 6.9,-48.5 -27.1,-94.5 -72.9,-108.2 -50.3,-13.4 -102.4,-2.3 -152.2,7.6 -1.5,16 -3.1,31.9 -4.5,47.7 38.8,-0.2 78.2,-2.2 116.4,6.4 m -511.4,-336.2 c -6.1,41.8 13.9,80.7 40.8,111 12.1,-54.7 32.6,-108.9 74.7,-147.8 -3.1,-31.198 -11.4,-61.601 -22.6,-90.902 -41.4,32.403 -89.4,70.801 -92.9,127.702 m -361.3,10.4 c 26.3,8.3 52.6,16.2 79.2,23.7 -11.1,-29.3 -22.3,-58.5 -33.7,-87.7 -25.5,-5.5 -51,-10.5 -76.6,-15.5 9.6,26.9 20.1,53.3 31.1,79.5 m -2344,-57.8 c 30,34.5 76.4,49.5 121.1,49.6 -41.8,-37.9 -59.1,-92.999 -75.2,-145.3 -15.6,-50.5 -14,-103.898 -16.8,-156.199 l -5.5,-1.903 c -44.9,20.602 -74.6,72.301 -73.1,121.602 3.3,47.398 18.4,95.602 49.5,132.2 M 5676.2,866.398 c -17.9,30.5 3.4,65.403 11.4,95.704 64.8,-45.102 138.5,-74.102 216.1,-88 -37.2,-32.704 -81.2,-73.102 -135,-61.903 -34.2,10.403 -69.2,26.301 -92.5,54.199 M 5132.7,918 c 18.5,22.602 48.3,29.301 74.3,39.102 -15.8,-87.801 -4.4,-177.301 23.4,-261.5 -55.8,14.097 -109.5,49.398 -129.9,105.296 -19,41.301 5.2,85.903 32.2,117.102 M 3270.4,810.102 c 15,46.097 56.2,80.796 102.8,92.097 -17.8,-51.5 -34.5,-104 -37.4,-158.898 l -0.3,-3 c -25,-10 -50,-20.301 -75.3,-29.699 0.1,33.398 -1.1,67.699 10.2,99.5 M 3255,646.301 c 19.5,21.898 47.8,32.699 73.9,44.5 7.2,-71.699 26.3,-141.403 54.3,-207.699 -30.9,7 -64.9,9 -90.8,29 -38.4,31.097 -54.2,88 -37.4,134.199" /><path
         id="path44"
         style="fill:#b27427;fill-opacity:1;fill-rule:nonzero;stroke:none"
         d="m 7434.9,6227.6 c 49.7,19.2 103.5,21.4 156,16.8 117.7,-13.3 236.6,-21.6 351.7,-51.1 186.6,-43.8 359.5,-128.4 535.1,-202.4 -58.1,-64.1 -76.1,-154.2 -59.7,-237.8 -166.3,50 -335.8,94.3 -491.3,173.4 -87,44.3 -178.4,80 -263,128.9 -79.8,52.5 -155.7,110.9 -228.8,172.2 m 1446.4,-557.8 c 13.1,22.3 24.7,45.4 35.1,69 27.5,-20.4 54.1,-42.1 77.3,-67.4 -37.5,-1.8 -74.9,-1.5 -112.4,-1.6" /><path
         id="path46"
         style="fill:#ffc95b;fill-opacity:1;fill-rule:nonzero;stroke:none"
         d="m 7349.9,6196.3 c 117.3,-60.3 204.2,-165.2 324.1,-221.5 92.9,-43.1 180.3,-98.1 276.8,-133.4 47.7,-20 94.9,-41.6 144.3,-57.5 78.2,-22.2 153.4,-54.4 233,-71.8 12.2,-57.2 27.1,-114 34.4,-172.2 11.2,-83.6 6.7,-168.2 7.3,-252.4 -85.2,18.7 -169.9,40.9 -251.8,71.3 -177.5,67.9 -363.3,113.3 -536.5,192.6 -117,52 -221.6,126.5 -330.2,193.4 23.4,152.3 61.5,302 98.6,451.5 m -156.8,-733.9 c 20.5,-8.3 40.6,-17.9 59.1,-30.3 53.8,-36.8 117.5,-54.3 174.2,-85.7 72.9,-39.1 151.4,-65.7 230.4,-89.6 127.8,-57 267.8,-76.5 399.6,-121.6 65,-23 133.2,-35.9 197.5,-61 25.1,-9.9 52.1,-11.6 78.3,-17.6 l -0.7,-5.2 c -49,-129.1 -110.9,-255.4 -205.3,-357.7 -80.3,-92.4 -181.5,-164.4 -288.9,-222 -54.2,6.7 -109.3,13.3 -158.8,37.8 -70.5,33.8 -144,64.1 -206,112.7 -73.4,56.5 -135.4,126.2 -193.2,198.1 -30.2,37 -41.3,84.7 -50.2,130.5 -12.5,71.3 -42.9,138.3 -52,210.4 -15.3,100.9 19.8,200.2 16,301.2" /><path
         id="path48"
         style="fill:#fc921c;fill-opacity:1;fill-rule:nonzero;stroke:none"
         d="m 3510.6,6088.7 c 59.6,28 120.6,53.3 178.9,84.2 -34.7,-100.6 -45.6,-212.5 -10.4,-314.5 33.8,-92.8 96.9,-176.5 182.6,-227 48.5,-32.1 108.3,-40.3 156.3,-73.4 46.5,-30.8 91.5,-64.2 141.8,-88.8 51.2,-25.4 109.1,-32.9 159.9,-59.2 39.9,-20.3 80.6,-39.2 122.5,-55.1 -67.5,-42.2 -146.5,-8.6 -214.5,13.6 -102.5,26.4 -194.7,80.2 -294.7,113.8 -75,23.7 -144.1,61.3 -214.4,95.9 -102.2,50.7 -218,66.8 -319,120.5 -52.5,28.2 -97.8,79.6 -101.5,141.3 -4.4,46.3 19.9,89.2 50,122.4 46.5,50.7 99.5,97.2 162.5,126.3" /><path
         id="path50"
         style="fill:#ffd824;fill-opacity:1;fill-rule:nonzero;stroke:none"
         d="m 8581.1,5998.8 c 30.8,16.1 65.9,19.5 100.1,20.7 22.6,-106.6 -2.2,-214.2 -32.2,-316.5 -55.4,12.1 -113.7,17 -165.8,40.3 -44.5,92.1 6.5,213.6 97.9,255.5" /><path
         id="path52"
         style="fill:#ffca24;fill-opacity:1;fill-rule:nonzero;stroke:none"
         d="m 8681.2,6019.5 c 59,-7.9 117.1,-36.6 150.8,-87.1 45.8,-63.8 48.4,-154.6 5.8,-220.7 -9.5,-13.2 -19.1,-33 -38.1,-32.3 -51.1,1.1 -101.3,11.3 -150.7,23.6 30,102.3 54.8,209.9 32.2,316.5" /><path
         id="path54"
         style="fill:#ffbf36;fill-opacity:1;fill-rule:nonzero;stroke:none"
         d="m 8328.1,5712.1 c 87,-19.8 175.1,-34.2 262.3,-53.1 127.9,-31.7 256.9,-66.4 389.7,-66.8 -47.7,-118.1 -123.8,-221.7 -176,-337.6 -145.4,-11.6 -291.9,3.3 -434.3,32.9 -0.6,84.2 3.9,168.8 -7.3,252.4 -7.3,58.2 -22.2,115 -34.4,172.2 m 3.4,-660.7 6.7,2.2 c 100.6,-5.1 200.5,-25.2 301.7,-21.3 -31,-60.5 -75,-112.8 -114.2,-168 -100.3,-138 -222,-263.7 -370.5,-349.7 -47.3,-26.7 -102.1,-32.8 -154.1,-45.5 -54,-12.8 -109.7,-5.5 -163.8,2.6 107.4,57.6 208.6,129.6 288.9,222 94.4,102.3 156.3,228.6 205.3,357.7 m -728,-577.9 c 33.7,-16.7 68.1,-32.1 103.3,-45.8 -7.1,-61.6 -28.8,-119.9 -49.6,-177.8 -38.5,2.4 -76.9,1 -115.3,0.1 30.1,71.6 48.3,147.3 61.6,223.5 M 7205.7,3263.1 c 33.8,-49.6 75.2,-93.2 120,-133 -51.2,-108.4 -94.8,-222.2 -166.4,-319.4 -36.1,-49.3 -105.5,-52.2 -160.3,-40.6 -23.7,4.1 -40.6,22.5 -57.4,37.9 108.9,138.5 197.5,292.1 264.1,455.1" /><path
         id="path56"
         style="fill:#ffb512;fill-opacity:1;fill-rule:nonzero;stroke:none"
         d="m 7230.5,5691.1 c 68,-45.5 131,-98.6 203.3,-137.5 166.8,-81.6 340.7,-148 518.7,-200.9 75.5,-27.8 150.8,-56.4 228.3,-78.5 54.5,-16 112,-19.9 165.6,-39.6 48.9,-18.5 102.4,-15.7 152.3,-30.5 81.1,-23.2 166.2,-11 249.3,-14.2 -18.1,-37.2 -39.5,-72.7 -62.1,-107.3 -87.7,-4.1 -174.2,13 -261.2,19.9 -160.2,19.9 -308.3,88.9 -465,123.7 -202.4,45.4 -394.6,125.6 -582.8,211.2 -58,27.7 -111.4,64.7 -172.3,86.3 -1.4,56.9 6.8,113.7 25.9,167.4" /><path
         id="path58"
         style="fill:#98394f;fill-opacity:1;fill-rule:nonzero;stroke:none"
         d="m 2184.7,5573.2 c 102.2,-38.5 205.8,-80.4 316.1,-86.3 112.1,-3.8 224,-14.1 336.2,-9.2 -27.2,-80.9 -54.9,-162.4 -65.4,-247.5 -16.5,-138 -12.4,-277.8 5.1,-415.5 12.1,-93.6 59.4,-176.7 96.2,-262.2 -32,-19.4 -65.7,-37 -93.3,-62.8 -29.1,-27.8 -44.3,-66.1 -61.1,-101.9 -52.2,44.6 -100.5,94.3 -140.4,150.5 -43,60.2 -68.7,130.3 -105.2,194.3 -52.5,91.2 -86.1,191.3 -120.4,290.3 -68.9,179.1 -131,361.6 -167.8,550.3" /><path
         id="path60"
         style="fill:#e65b5b;fill-opacity:1;fill-rule:nonzero;stroke:none"
         d="m 3121.2,4512.5 c 46.4,14 95.2,32.5 144.2,20.5 41.1,-10 68.2,-45 95.4,-74.7 -69.2,-35.4 -135.7,-75.8 -201.2,-117.6 -83.7,-52.3 -186.8,-38.8 -280,-30.1 -46.2,2.1 -87.5,24.7 -123.6,51.8 21.1,40.3 39.3,87.4 81.3,110.5 55.9,29.4 122.4,41.6 184.6,28.8 57.8,-19.9 90.1,-80.6 149.4,-98.7 -1,42.2 -24.3,78 -50.1,109.5" /><path
         id="path62"
         style="fill:#ffca5b;fill-opacity:1;fill-rule:nonzero;stroke:none"
         d="m 7428,4372.8 c 27.1,44.7 39.7,96.5 68.1,140.6 36.7,-10.6 72.7,-23.8 107.4,-39.9 -13.3,-76.2 -31.5,-151.9 -61.6,-223.5 -57.8,-4.3 -116.8,-4.6 -171.1,18.8 16.4,36.1 36.9,70 57.2,104 m -402.9,-969 c 39.7,76.1 85.6,149.5 113.3,231.2 49.7,-45.9 108,-83.8 173.5,-102.6 -46.2,-16.3 -99.5,-41.5 -112.4,-93.6 -13.8,-57.9 4,-117.4 6.2,-175.7 -66.6,-163 -155.2,-316.6 -264.1,-455.1 -26.6,31.8 -60.1,61.4 -73.3,101.5 -9.2,106.4 30.2,208.4 68.5,305.5 26.7,64.1 48.4,131.2 88.3,188.8" /><path
         id="path64"
         style="fill:#f8e4c8;fill-opacity:1;fill-rule:nonzero;stroke:none"
         d="m 4949.2,3684.5 c 96.4,31.2 192.9,64.1 282.3,112.7 55.9,-28.1 118.9,-46.6 164.3,-91.8 40.6,-39 37.9,-105.7 10.4,-151.3 -20,-35.5 -58.8,-54.5 -96.4,-65.4 -42.1,-9.8 -81.3,13.7 -120.7,24.3 -46,11.9 -92.2,22.5 -138.1,34.6 -16.2,42.7 -54.4,73 -99.2,81.1 4.4,-66.2 52.5,-117.2 66.3,-180.7 11.3,-37.4 11.7,-80.3 -13.3,-112.5 -44.6,-69.9 -130.9,-113.4 -213.8,-99.3 -59,7.7 -104.2,51.6 -143.4,92.7 -9.8,58.1 -6.1,118.7 -24.2,175.6 -28.8,-30.2 -25.1,-75.3 -28.6,-113.9 -0.7,-49.1 -22.4,-94 -35.1,-140.6 -15,-60.1 -76.3,-91.2 -130.8,-107.8 -76,-22.3 -146.7,28.7 -201.7,75.1 -30.5,48.7 -5.3,108.7 3.5,160.5 -39,-26.3 -78.2,-55 -103.6,-95.5 -25.3,-36.9 -42.7,-84.3 -86,-104.1 -86.4,-41.8 -190.3,-65.5 -282.3,-27.1 -66.1,22.3 -101.7,88.5 -124.5,149.9 -16.9,41.6 8.4,82.8 20,121.9 -73,-26 -107.3,-99.3 -150.5,-157.3 -37.3,-50.5 -103.4,-63.5 -162.2,-67.4 -74.5,121.7 -139.1,248.9 -203.8,376 -0.7,3.6 -2.1,10.8 -2.8,14.4 -1.7,12.7 -3.2,25.4 -4.5,38.1 44.5,-9.4 88.7,-20.6 132.2,-34 80.8,-25.1 166.4,-24.2 249.3,-37.7 171.5,-27 345.7,-22.5 518.4,-36.8 96.8,-8.4 193.8,4.9 289.1,21 211.9,38.7 425.3,75.4 629.7,145.3 M 4386.1,2918 c 81.9,8.6 166.2,7.6 245.3,-17.4 79,-24.2 155.8,-55.1 232.7,-85.2 69.1,-26.8 111.7,-90.2 157.8,-144.4 44.5,-53.3 75.8,-115.7 117.8,-170.8 56.8,-77.6 121.1,-151.3 161.9,-239.3 26.4,-57.4 48.5,-116.8 75.9,-173.9 63.3,-146.8 135.9,-290.5 178.6,-445.1 25.5,-109.2 14.2,-222.2 25.6,-333 -115.9,-76.8 -247.2,-129.3 -382.2,-161.4 -62.8,-14.7 -123.5,-36.5 -185.5,-53.6 -177.3,-44.7 -361.5,-41.6 -542.3,-60.8 -96.7,-10.9 -194.4,-5.5 -290.8,-18.8 -80,-9.8 -160.8,-19.402 -241.2,-9.6 -142.3,9.8 -285.3,14.8 -425.6,43.2 -33.9,118.6 -64.6,238.9 -70.6,362.7 -21.3,322.8 79,652.5 279.5,906.6 44.3,58.7 100.2,107.5 142.9,167.4 40.6,56.9 87.9,108.6 134.9,160.3 38,-60 80.9,-135 159,-143.9 74,-2.2 134.9,49.1 183.1,99.7 61.3,-51.7 133.6,-99.2 216.9,-99.3 117,-3.5 222.5,85.4 252.8,196.1 -21.5,3.9 -42.9,7.7 -64.3,11.4 -6.2,-34.7 -7.6,-75.4 -37.5,-99.4 -84,-72.4 -224.7,-71.7 -305.8,5.5 -22.6,20.1 -40.9,44.4 -58.5,68.7 -10.2,-0.6 -20.3,-1.3 -30.3,-2.2 -14.4,-67.8 -73.1,-133.8 -146.6,-129.6 -67,9.1 -97.7,75.9 -133.1,124.6 61.5,55.2 126.1,107.3 196.7,150.5 49.9,32.3 106.8,52.8 152.9,91 m 738.3,-650.9 c -43.9,-43.7 -73,-100.8 -121.5,-140.1 -36.6,-24.3 -82.6,-8.8 -122.2,-2.4 -59.2,9.9 -99,60.2 -127.9,108.7 -8.2,22.2 -35.1,16.8 -53.5,21.8 0.8,-37.4 11.9,-80.3 -11.2,-113.6 -37.4,-45.4 -77.6,-98.9 -139.6,-109.1 -60.6,-11.3 -127.3,-29 -185.6,0.3 -63.2,28.6 -96,93.7 -124,153.2 -61.5,-35.9 -97.8,-106.2 -167.7,-128.6 -77.4,-27.2 -163.3,-42.6 -243.7,-19.4 -57.5,18 -90.3,72.3 -124.3,117.8 -13.1,-10.8 -26.2,-21.8 -39.3,-32.8 30.4,-45 61.7,-93 110.8,-119.6 76.8,-43.9 169.4,-42.6 254.9,-35.1 83,13.1 137.6,83.7 192.1,140.8 28.6,-46 54.3,-100.6 107.1,-123.3 151.1,-69.2 347,0 424.3,146.5 67.6,-48.2 152.2,-81.7 236.3,-66.1 51.8,11.6 89.8,53.1 119.2,94.7 28.2,41.8 60.3,82.2 74.8,131.3 -20.3,-6.2 -43.3,-9.3 -59,-25 m 67.8,-628.5 c -45.7,-64.3 -123.9,-102.6 -202.3,-103.1 -84.9,4.6 -160.6,60.1 -202.1,132.6 -12.8,-3.7 -25.7,-7.4 -38.4,-11.3 -3,-22.8 -0.5,-49.7 -19.1,-66.9 -28.9,-31.3 -60.1,-60.3 -89.8,-90.9 -18,-16.8 -35.2,-38.4 -61.2,-42.3 -69.8,-13.9 -135.7,20.4 -197.9,47 -47,19.9 -83.7,56.7 -116.4,94.7 6.5,9.4 13.2,18.7 19.9,27.8 -16.1,20.3 -34.1,38.9 -55,54.1 -75.2,-78.4 -137.2,-179.8 -245.5,-216.7 -78.2,-21.4 -166.7,-26.4 -241.3,10 -74.9,37.4 -103.3,126.4 -176.6,166.2 -7.1,-63.9 35.8,-115.4 70,-164.3 32.5,-35.9 80,-54.1 124.4,-71.2 57.8,-22.8 119.6,-7.2 179.3,-4 40.8,3.3 82.9,9.9 118.6,31.3 61.7,34.8 106.2,91.1 155.2,140.8 33.5,-43 71.1,-85.3 121.1,-109.4 43.8,-20.3 89.7,-35.7 135.9,-49.6 46.7,-12.2 100.3,-24.4 145.4,-0.2 70,38.9 119.2,104.6 164,169.3 60.7,-54.2 135.4,-106.6 220.6,-102.2 80.6,14 163.5,46.3 216.7,111.2 30.1,36 54,76.7 79.2,116.1 -5.3,13.4 -10.5,26.7 -15.7,40 -35.4,-31.4 -61.3,-71.1 -89,-109" /><path
         id="path66"
         style="fill:#e8d0ae;fill-opacity:1;fill-rule:nonzero;stroke:none"
         d="m 2723.6,3724.9 c 14.3,11.3 32.2,2.5 48.1,0.5 57.7,-12.4 112.5,-35.1 168.8,-52.7 62.2,-19.7 126.3,-32.2 190,-46 1.3,-12.7 2.8,-25.4 4.5,-38.1 -56.1,-29.3 -102.5,-73 -146.4,-117.8 -37.7,-40.5 -91.6,-58.2 -142.4,-75.8 -45.8,-16.5 -94.5,4.1 -131.9,30.4 -41,29.1 -81.5,70.1 -83.3,123.4 -9.3,71.1 33.7,139.5 92.6,176.1 m 414.2,-150.7 c 64.7,-127.1 129.3,-254.3 203.8,-376 -91.1,4.6 -167.5,82.3 -179.7,171 -10.1,68.1 -19.7,136.3 -24.1,205 m 942.6,-736 c 95.9,44.4 200.8,69.5 305.7,79.8 -46.1,-38.2 -103,-58.7 -152.9,-91 -70.6,-43.2 -135.2,-95.3 -196.7,-150.5 -15.7,14.1 -34.6,23.8 -53.3,33 4.6,-21.7 9.4,-43.8 17.6,-64.6 -47,-51.7 -94.3,-103.4 -134.9,-160.3 -42.7,-59.9 -98.6,-108.7 -142.9,-167.4 -200.5,-254.1 -300.8,-583.8 -279.5,-906.6 6,-123.8 36.7,-244.1 70.6,-362.7 -92.4,14.5 -184.9,31.3 -273.8,60.8 -2.4,44.2 -4.3,88.8 3.5,132.4 22.1,125.4 19.3,256.6 68.3,376 45.2,108 62.5,227 121.8,329.2 46.3,79.1 56.7,174.7 110.8,249.8 44.3,59.5 55.6,138 108.2,191.9 46.8,49.9 65.5,117.6 105.5,172 83,117.2 201.5,203.1 322,278.2" /><path
         id="path68"
         style="fill:#fcbf1c;fill-opacity:1;fill-rule:nonzero;stroke:none"
         d="m 5980.8,1695.7 c 14.1,-8 28,-15.9 42.2,-24.2 -23.6,-7.9 -47.2,-15.7 -71.6,-20.7 9.7,15.1 19.5,30.1 29.4,44.9 m -55.9,-139.5 c 22,52.8 81.2,71.3 130.4,89.3 59.1,-56.1 89.9,-134.5 102.5,-213.7 -37,-17 -73.3,-36.9 -113.2,-46.5 -38.2,-8.6 -77.6,-6.6 -116.4,-6.4 -11.3,58 -29,120.6 -3.3,177.3 m -257,-284.7 c 21.7,16 43.6,31.7 65.8,46.9 14.1,-7.6 28.4,-15.3 42.7,-22.9 -36.3,-7.6 -72.4,-15.8 -108.5,-24 m 13.7,-49 c 46.8,3.8 93,12.9 139.7,18.7 32.6,-2.2 51.5,-32.8 71.8,-54.6 -79.2,-7.9 -165.8,-25.9 -220.2,-89.2 -22.7,-22.2 -20.2,-56 -24.2,-85.1 -42.1,38.9 -62.6,93.1 -74.7,147.8 32.7,25.2 64.2,58.2 107.6,62.4 m 35.9,-150.4 c 49.3,46.4 116,71.9 182.7,78.8 28.4,4.2 48,-19.1 58.4,-42.4 21.3,-40.7 36,-88.3 24.7,-134.301 -12.2,-42.597 -47.6,-72 -79.6,-100.097 -77.6,13.898 -151.3,42.898 -216.1,88 9.4,36.398 -2.2,83.198 29.9,109.998 m -466.4,11.1 c 62.3,17.7 124.1,37.1 185.1,59.2 1.4,-60.5 5.2,-120.9 9.8,-181.201 -72.5,27.801 -150.4,54.401 -228.6,34.301 11.4,29.2 22.6,58.4 33.7,87.7 M 2969.9,1101 c 44.6,6.3 89.1,-4 130.2,-20.9 73.9,-30.2 151.9,-48 228.2,-70.9 -54.8,-45.501 -106.9,-94.001 -158.6,-143.001 -19.8,48.801 -36.9,100.903 -73.7,139.901 -36.9,38.2 -86.1,60.6 -126.1,94.9 m -20.9,-49.7 c 46.3,-15.9 92.8,-40.8 118.9,-83.999 25,-44.403 46.7,-92.403 48.9,-144.301 -57.4,-34.699 -116.6,-67.898 -181,-87.699 -25.5,-6.903 -54.4,-4.699 -77.7,7.898 l -1.1,6.602 c 2.8,52.301 1.2,105.699 16.8,156.199 16.1,52.301 33.4,107.4 75.2,145.3 m 419.2,-93.198 c 10.8,8.296 21.6,16.5 32.5,24.597 91.4,-10 179.8,-36.097 269.8,-53.597 5.5,-29.301 10.9,-58.602 16.1,-88.102 -44.8,30.602 -85.9,68.199 -136.8,88.5 -58.3,20.301 -120.7,23.199 -181.6,28.602 m 1838.8,-1 c 82.4,17.097 167.8,-11 235.8,-57.5 -12.5,-58.301 -30.5,-117.301 -66.2,-166 -37.2,-38.903 -95.5,-44.403 -146.2,-38 -27.8,84.199 -39.2,173.699 -23.4,261.5 M 3374.2,905.301 c 66.6,5.301 143.2,2.199 194.5,-46.602 31,-29.199 66.9,-52.398 98.8,-80.5 29.5,-23.5 13.3,-64.199 10.2,-95.301 -63.9,56.301 -139.5,109.5 -227.9,111 -45,5.102 -77.3,-31.597 -114,-50.597 2.9,54.898 19.6,107.398 37.4,158.898 l 1,3.102 m -45.3,-214.5 c 45.4,14.801 80.5,58.699 131.3,54.398 58.5,-4.699 112,-33.301 161.3,-63.301 22.1,-15.699 52.4,-40.699 41.2,-71.199 -18,-66.597 -72.3,-129.199 -143.9,-136.801 -45.4,-2.5 -90.6,4.403 -135.6,9.204 -28,66.296 -47.1,136 -54.3,207.699" /><path
         id="path70"
         style="fill:#fcc01c;fill-opacity:1;fill-rule:nonzero;stroke:none"
         d="m 4111,934.699 c 20.4,2.5 40.8,4.801 61.3,6.801 3.3,-17 6.6,-34.102 10,-51.398 -24.1,14.296 -48,29.097 -71.3,44.597 m -348.4,-11.398 c 64.9,-0.5 129.8,0.398 194.4,6.199 -59.8,-39.301 -98.2,-100.898 -146.9,-151.801 -26.6,44.5 -38.7,95.102 -47.5,145.602 m 227.9,-34.903 c 61,26.403 132.1,3.5 182.7,-34.898 13.5,-11.301 5.1,-28.801 2.6,-43.301 -17.2,-65.699 -57.6,-123.199 -105.9,-170 -37,-37.097 -99.1,-39.5 -142.5,-12.5 -45.7,27.903 -73.1,75.699 -101.3,119.403 56,45.699 95.3,113.097 164.4,141.296" /></g></g></svg>