<?xml version="1.0" encoding="UTF-8" standalone="no"?>
<!-- Created with Inkscape (http://www.inkscape.org/) -->

<svg
   xmlns:dc="http://purl.org/dc/elements/1.1/"
   xmlns:cc="http://creativecommons.org/ns#"
   xmlns:rdf="http://www.w3.org/1999/02/22-rdf-syntax-ns#"
   xmlns:svg="http://www.w3.org/2000/svg"
   xmlns="http://www.w3.org/2000/svg"
   xmlns:sodipodi="http://sodipodi.sourceforge.net/DTD/sodipodi-0.dtd"
   xmlns:inkscape="http://www.inkscape.org/namespaces/inkscape"
   width="30.498034mm"
   height="30.489668mm"
   viewBox="0 0 365.9764 365.876"
   version="1.1"
   id="svg2184"
   inkscape:version="0.92.3 (2405546, 2018-03-11)"
   sodipodi:docname="hear.svg">
  <defs
     id="defs2178" />
  <sodipodi:namedview
     id="base"
     pagecolor="#ffffff"
     bordercolor="#666666"
     borderopacity="1.0"
     inkscape:pageopacity="0.0"
     inkscape:pageshadow="2"
     inkscape:zoom="0.12374369"
     inkscape:cx="-1429.0499"
     inkscape:cy="-1103.7397"
     inkscape:document-units="mm"
     inkscape:current-layer="layer1"
     showgrid="false"
     inkscape:window-width="1366"
     inkscape:window-height="662"
     inkscape:window-x="0"
     inkscape:window-y="27"
     inkscape:window-maximized="1"
     fit-margin-top="0"
     fit-margin-left="0"
     fit-margin-right="0"
     fit-margin-bottom="0" />
  <metadata
     id="metadata2181">
    <rdf:RDF>
      <cc:Work
         rdf:about="">
        <dc:format>image/svg+xml</dc:format>
        <dc:type
           rdf:resource="http://purl.org/dc/dcmitype/StillImage" />
        <dc:title></dc:title>
      </cc:Work>
    </rdf:RDF>
  </metadata>
  <g
     inkscape:label="Layer 1"
     inkscape:groupmode="layer"
     id="layer1"
     transform="translate(46.916765,12.182057)">
    <g
       id="g18"
       transform="matrix(0.06626084,0,0,-0.06626084,-622.39892,1272.8017)">
      <path
         d="m 13941.1,16300 c -0.3,-2.3 -0.6,-4.5 -1,-6.8 0.3,2.1 0.6,4.6 1,6.8"
         style="fill:#ffffff;fill-opacity:1;fill-rule:nonzero;stroke:none"
         id="path20"
         inkscape:connector-curvature="0" />
    </g>
    <g
       id="g94"
       transform="matrix(0.06092825,0,0,-0.06092825,-622.39892,1272.8017)">
      <path
         d="m 11907,16299.9 c -0.1,0 -0.1,0 -0.2,0 -0.2,0.1 -0.3,0.1 -0.6,0.1 0.3,0 0.6,-0.1 0.8,-0.1"
         style="fill:#ffffff;fill-opacity:1;fill-rule:nonzero;stroke:none"
         id="path96"
         inkscape:connector-curvature="0" />
    </g>
    <g
       id="g98"
       transform="matrix(0.07784959,0,0,-0.07784959,-622.39892,1272.8017)">
      <path
         d="m 9797.19,14220.7 c 0,2.4 0.04,3.7 0.13,4.5 -0.31,0.8 -0.81,2.1 -1.49,4.5 -2.13,7.5 -3.94,15 -6.21,22.4 -1.09,3.7 -1.36,5.1 -1.36,5.5 -0.32,0.3 -1.13,1.5 -3.08,5 -4.67,8.3 -9.47,16.4 -14.55,24.4 -0.81,1.3 -1.27,2.1 -1.58,2.6 -1.27,1.5 -2.59,3 -3.9,4.5 -4.71,5.2 -9.52,10.3 -14.64,15.2 -1.45,1.4 -7.16,6.4 -10.06,9 -2.94,2.1 -9.24,6.8 -9.15,6.7 -2.86,1.9 -5.76,3.8 -8.7,5.6 -5.85,3.6 -11.83,7.1 -17.9,10.3 -6.16,3.3 -12.37,6.3 -18.63,9.4 -2.35,1 -4.71,2.1 -7.11,3.2 -56.74,22 -116.1,35.9 -173.24,56.7 -63.99,23.3 -127.29,54.3 -173.65,105.7 -50.3,55.8 -81.61,126.2 -82.88,201.8 -2.45,142 96.25,270.5 202.79,354.3 125.29,98.7 274.88,147.8 434.89,145.8 166.33,-2.2 335.63,-58.3 459.33,-171.8 112.8,-103.5 174.9,-252.2 173.9,-404.7 -0.6,-101.5 -158.1,-101.3 -157.4,0 0.4,67.5 -14.1,132.2 -45.7,189.4 -30.8,56 -74.9,104.1 -124.4,137.6 -129,87.2 -296.94,112.1 -444.9,77.7 -22.11,-5.1 -43.95,-11.4 -65.34,-19 -5.03,-1.7 -10.02,-3.7 -15.05,-5.5 -0.9,-0.3 -1.63,-0.5 -2.35,-0.8 -0.77,-0.4 -1.68,-0.8 -2.81,-1.4 -23.43,-11.6 -46.31,-23.6 -68.29,-37.8 -8.48,-5.5 -16.77,-11.1 -24.93,-17 -0.22,-0.2 -10.1,-7.6 -11.96,-8.9 -11.1,-8.9 -21.93,-18.2 -32.4,-27.7 -20.25,-18.7 -39.33,-38.7 -56.78,-60 -0.05,-0.4 -9.61,-12.9 -10.83,-14.7 -3.62,-5.3 -7.16,-10.5 -10.56,-15.9 -8.02,-12.7 -14.77,-26 -21.84,-39.2 -0.91,-1.8 -1.63,-3.2 -2.22,-4.2 -0.36,-1 -0.77,-2.3 -1.31,-3.9 -2,-5.7 -4.04,-11.3 -5.81,-17 -3.21,-10.5 -5.93,-21.2 -7.79,-32 0.77,2.6 -0.82,-16.9 -0.82,-19.8 0,-5.9 0.32,-11.8 0.77,-17.8 -0.36,8.3 4.31,-18.8 5.9,-23.8 0.36,-1.2 5.75,-14.1 5.21,-13.6 2.63,-5.3 5.43,-10.6 8.47,-15.6 3.26,-5.5 6.8,-10.9 10.51,-16.1 1.14,-1.5 2.86,-3.6 3.54,-4.4 35.84,-37.3 73.59,-56.6 120.04,-72.6 51.93,-17.8 105.54,-30.7 156.7,-50.8 127.97,-50.2 239.58,-152.6 237.27,-300.8 -1.09,-70.5 -30.5,-140.2 -81.7,-189 -62.31,-59.5 -145.06,-80.6 -225.49,-103.7 -18.85,-5.4 -37.3,-11.7 -55.83,-18.3 -2.08,-0.7 -3.63,-1.2 -4.85,-1.6 -1.09,-0.5 -2.54,-1.2 -4.4,-2.1 -7.02,-3.2 -14.04,-6.5 -20.98,-9.9 -25.06,-12.6 -49.3,-27.1 -71.87,-43.7 0.68,0.2 -15.22,-12.6 -16.94,-14.2 -3.95,-3.5 -7.75,-7.1 -11.51,-10.7 -5.62,-5.4 -11.06,-11.1 -16.32,-16.8 -0.18,-0.2 -9.88,-11.7 -10.15,-11.7 -8.16,-10.9 -15.41,-22.8 -21.66,-34.9 -1.54,-2.9 -2.99,-5.8 -4.44,-8.8 0.36,0 -4.58,-13.7 -4.8,-14.4 -2.41,-7.9 -4.49,-16.1 -5.94,-24.4 0.59,1.5 -0.68,-14.8 -0.68,-15.6 -0.09,-6.8 0.27,-13.5 0.68,-20.2 0.09,-1.6 0.09,-2.6 0.09,-3.2 0.18,-0.8 0.36,-1.5 0.54,-2.5 2.86,-13.5 6.48,-26.4 10.7,-39.6 0.27,-0.8 0.5,-1.5 0.68,-2.2 0.45,-0.7 1,-1.6 1.63,-2.6 3.22,-5.4 5.89,-11.1 9.2,-16.4 1.54,-2.5 7.11,-10 7.02,-10.3 2.18,-2.5 4.4,-5 6.66,-7.4 4.13,-4.3 8.75,-8.2 12.92,-12.4 0.72,-0.8 1.31,-1.4 1.86,-2 0.27,-0.2 0.5,-0.3 0.81,-0.5 8.39,-5.5 16.54,-11 25.38,-15.7 2.9,-1.5 5.8,-3 8.74,-4.4 -2.8,1.5 8.48,-3.4 11.15,-4.3 11.56,-3.9 23.43,-7 35.39,-9.4 3.04,-0.6 16.77,-2.3 11.38,-1.8 3.58,-0.3 7.2,-0.6 10.78,-0.9 12.6,-0.7 25.2,-0.7 37.75,0 4.21,0.3 8.38,0.8 12.6,0.9 0.95,0.1 1.77,0.1 2.49,0.2 0.55,0.1 1.09,0.2 1.72,0.3 14.59,2.9 29.05,5.8 43.28,10.2 3.76,1.1 22.43,8.2 22.29,7.7 9.7,4.4 19.17,9.2 28.37,14.6 5.4,3.2 10.74,6.6 15.95,10.1 2.54,1.7 19.08,14.5 4.17,2.6 33.4,26.6 78.44,32.9 111.34,0 27.69,-27.7 33.31,-84.8 0,-111.3 -24.33,-19.4 -48.89,-37.3 -77.08,-50.5 -113.33,-53.5 -250.55,-60 -362.43,1.5 -122.72,67.4 -182.58,221.6 -140.12,355 45.36,142.7 181.26,236.9 317.57,282.7 42.83,14.4 87.37,23.2 129.7,38.9 17.31,6.4 33.3,14.9 48.89,24.8 1.68,1.1 2.72,1.7 3.26,2.1 2.13,1.7 4.22,3.6 6.26,5.5 5.75,5.3 11.1,10.8 16.22,16.7 0.18,0.2 0.32,0.4 0.45,0.5 0.28,0.5 0.64,1.1 1.05,1.7 1.99,3.2 4.12,6.3 6.02,9.6 1.59,2.7 6.57,13 6.48,11.9 2.4,6.8 4.26,13.7 6.07,20.6 0.64,2.5 1.14,5 1.59,7.5 0.05,0.2 0.05,0.4 0.05,0.7 0.36,8.8 0.27,17.3 0.18,26.1 z m 340.91,-1167.6 c -77.9,-65.9 -148.28,-140.3 -222.55,-210.1 -153.03,-144 -335.69,-284.2 -556.52,-280.8 -238.4,3.4 -464.48,154.4 -550.81,376.5 -19.53,50.2 21.76,103.7 67.21,118.4 52.97,17.1 100.19,-20.5 118.36,-67.3 0.59,-1.5 1.09,-2.7 1.5,-3.8 0.13,-0.3 0.27,-0.6 0.45,-0.8 3.35,-6.3 6.12,-12.9 9.42,-19.1 5.26,-10 10.97,-19.8 17,-29.3 4.98,-7.8 10.29,-15.4 15.77,-23 -0.59,1.3 12.01,-14 15.13,-17.4 16.05,-17.6 33.49,-33.6 51.71,-48.8 -4.53,4.1 17.35,-12.4 21.52,-15.1 9.43,-6.3 19.04,-12.2 28.78,-17.8 12.23,-7.1 24.74,-13.6 37.52,-19.7 4.85,-2.3 9.79,-4.5 14.73,-6.8 0.36,-0.1 0.68,-0.2 1.18,-0.4 22.83,-7.5 45.04,-16 68.42,-22 13.87,-3.4 27.83,-6.2 41.87,-8.7 10.29,-0.6 10.52,-0.8 7.89,-0.7 2.67,-0.3 5.34,-0.6 8.06,-0.8 22.62,-1.5 45.32,-1.4 67.93,0.5 3.35,0.4 6.03,0.6 7.8,0.8 2.99,0.5 6.02,1 9.06,1.5 11.37,2.1 22.7,4.7 33.89,7.6 18.99,5 37.53,11.4 55.83,18.3 -4.57,-1.5 17.63,8 22.21,10.2 10.51,5.1 20.89,10.6 31.13,16.3 18.44,10.4 36.43,21.5 53.92,33.3 11.11,7.4 22.07,15.1 32.86,23 2.63,1.9 5.26,3.9 7.93,5.9 -3.08,-2.2 -4.62,-3.2 4.8,3.6 18.08,14.4 35.94,29.2 53.38,44.4 70.56,61.4 135.95,128.4 203.56,192.9 87.16,83.1 182.46,155.3 279.86,225.9 88.9,64.4 166.1,121 245.5,201.7 30.1,30.5 58.7,62.5 85.8,95.8 4.6,5.7 9.1,11.4 13.6,17.1 5.9,7.8 11.7,15.6 17.5,23.5 13.4,18.4 26.3,37.1 38.7,56.1 23.6,35.9 45.5,72.9 65.7,110.8 10.8,20 21.1,40.3 30.9,60.9 4.3,9.1 8.5,18.3 12.7,27.5 2.6,5.7 5.1,11.5 7.7,17.3 0.4,1 1.4,3.4 2.4,5.7 1.5,3.7 3.5,8.6 4,9.7 1.9,4.7 3.8,9.4 5.6,14.1 4.1,10.6 8.2,21.2 12.1,31.9 7.3,20.1 14.2,40.4 20.7,60.9 12.9,40.8 24,82.2 33.4,124 4.9,22 9.3,44.2 13.1,66.4 2,11.1 3.7,22.3 5.4,33.4 0.5,3 0.8,5.1 1,6.5 0.2,1.3 0.4,3 0.6,5.2 5.2,43.4 8.7,86.9 9.9,130.6 1.1,43.4 0.3,86.9 -2.8,130.3 -1.6,22.1 -4.8,44.2 -6.5,66.3 -0.5,3.7 -1.1,7.5 -1.7,11.3 -1.6,11 -3.4,21.9 -5.4,32.8 -7.5,41.3 -17.1,82.2 -28.9,122.4 -6.3,21.3 -13.1,42.4 -20.5,63.3 -3.8,10.5 -7.6,20.9 -11.7,31.3 -1.8,4.5 -3.6,9.1 -5.5,13.7 -0.5,1.2 -1.8,4.3 -2.8,6.8 -1.5,3.2 -3.1,6.8 -3.5,7.8 -2.5,5.7 -5.1,11.3 -7.7,16.9 -4.2,9 -8.6,17.9 -13,26.8 -9.5,18.9 -19.5,37.6 -30.1,55.9 -21.5,37.2 -45.5,72.5 -70.6,107.3 -0.9,1.1 -1.5,2.1 -2.1,2.9 -0.4,0.5 -0.9,1.1 -1.5,1.9 -3.2,3.9 -6.4,8 -9.6,11.9 -7.4,9 -14.8,17.9 -22.4,26.6 -14.5,16.7 -29.5,32.9 -45,48.7 -33.1,33.6 -68.2,66.1 -105.7,94.7 0.8,-0.8 -16.9,12.2 -16.4,11.8 -5.9,4.2 -11.8,8.3 -17.7,12.4 -11.8,8.1 -23.9,15.9 -36.1,23.5 -23.7,14.7 -47.9,28.8 -72.5,42 -13.6,7.3 -27.5,14.2 -41.4,20.8 -5.6,2.7 -11.2,5.2 -16.7,7.8 -1.1,0.4 -6.2,2.7 -9.6,4.2 -3.5,1.3 -8.6,3.5 -9.7,3.9 -7.1,2.8 -14.2,5.5 -21.4,8.1 -11.4,4.2 -22.9,8.2 -34.4,12 -48.7,15.8 -98.7,27.8 -149.3,35.9 -4.61,0.7 -21.88,2.8 -14.99,2.1 -4.35,0.5 -8.66,1 -13,1.5 -11.97,1.2 -23.93,2.2 -35.89,3 -26.97,1.9 -53.98,2.6 -81.03,2.3 -27.1,-0.3 -54.15,-1.6 -81.11,-4 -10.61,-0.9 -21.12,-2.1 -31.68,-3.3 7.61,0.8 -18.26,-2.7 -23.7,-3.6 -52.61,-8.7 -104.59,-21.3 -155.39,-37.6 -26.41,-8.4 -52.52,-17.8 -78.25,-28.1 -1.05,-0.4 -6.03,-2.5 -9.52,-3.9 -5.03,-2.3 -15.68,-7 -14.55,-6.4 -11.33,-5.2 -22.61,-10.5 -33.76,-16 -48.03,-23.6 -94.48,-50.5 -138.89,-80.4 -12.19,-8.2 -24.29,-16.6 -36.16,-25.3 -1.99,-1.5 -4.85,-3.7 -5.67,-4.3 -4.84,-3.9 -9.69,-7.8 -14.49,-11.8 -20.4,-16.7 -40.29,-34.1 -59.5,-52.2 -21.35,-20 -41.92,-40.9 -61.59,-62.7 -8.25,-9.1 -16.31,-18.3 -24.2,-27.7 -3.94,-4.7 -7.75,-9.5 -11.69,-14.2 -0.86,-1 -3.94,-4.9 -5.3,-6.6 -30.95,-40.9 -58.32,-84.6 -81.39,-130.4 -5.25,-10.5 -10.24,-21.1 -15.09,-31.8 -1.08,-2.6 -3.99,-9.4 -4.89,-11.6 -2.22,-5.7 -4.35,-11.4 -6.44,-17.1 -8.88,-24.4 -16.35,-49.3 -22.79,-74.6 -13.28,-52.2 -68.33,-78.6 -118.36,-67.2 -51.34,11.7 -79.62,69.7 -67.21,118.4 14.82,58.3 36.44,114.7 62.58,168.9 103.19,213.9 295.19,387.1 505.54,492.6 217.79,109.3 460.95,154.8 702.81,121.4 442,-60.8 805,-402.6 933.8,-823 113.4,-369.9 51.5,-781.8 -129.2,-1119.7 -94.2,-176.1 -224.1,-333.1 -380.5,-457.3 -56.2,-44.7 -114.5,-86.9 -172.7,-129.2 -53.8,-39.1 -91.9,-66.6 -140.7,-108 z m 342.5,-906.7 c 26.7,9.7 53.3,19.9 79.7,30.7 5.7,2.3 11.4,4.5 17.1,6.9 1.6,0.8 3.2,1.4 4.2,1.9 13,5.8 26,11.5 38.9,17.4 100.3,45.7 197.2,98.8 289.7,158.8 47.1,30.6 92.7,63.2 137.6,96.8 1.1,0.8 2,1.5 2.7,2 0.9,0.7 2,1.6 3.3,2.6 5,4 10,7.9 15,11.9 9.9,7.9 19.8,15.9 29.6,24 21.5,17.9 42.8,36.1 63.7,54.7 81.6,72.8 158,151.5 228.2,235.3 9.8,11.7 19.5,23.5 29.1,35.4 4.8,6 9.5,12 14.3,17.9 1.1,1.5 4.3,5.6 6.7,8.7 13.8,18.4 27.7,36.9 41,55.7 32.7,45.7 63.6,92.7 92.7,140.7 29.2,48.2 56.6,97.5 82.1,147.8 12.7,25.3 25.1,50.7 36.9,76.4 5.4,11.7 10.7,23.4 15.9,35.3 2,4.6 4.2,9.3 6.3,14.1 0.5,1.2 0.9,2.5 1.3,3.5 43.3,106.1 79.6,214.8 106.7,326.3 13.8,56.4 25.4,113.4 34.7,170.8 2.5,15.8 4.8,31.6 7.1,47.4 0.6,4.1 1,6.4 1.1,7.5 0.5,4.1 0.9,8.2 1.4,12.3 3.1,26.7 5.8,53.4 8,80.2 9.9,119.2 10.3,239.3 1.3,358.6 -2.2,29.5 -5,59 -8.4,88.4 -0.9,7.9 -1.9,15.9 -2.9,23.8 -0.1,0.7 -0.1,1.3 -0.2,1.9 -2,13.9 -4,27.7 -6.2,41.5 -8.9,56.2 -19.9,111.9 -33.1,167.3 -26.2,110.2 -60.9,218.4 -103.6,323.4 -0.8,1.9 -7.1,17 -8.3,19.9 -1.1,2.5 -2,4.6 -2.2,5 -5.1,11.8 -10.3,23.6 -15.7,35.3 -11.7,25.7 -24,51.2 -36.7,76.5 -24.7,49.2 -51.3,97.6 -79.6,144.8 -28.2,47.1 -58.2,93.2 -89.7,138.1 -17.2,24.4 -34.9,48.3 -52.9,72.1 -4.4,5.6 -8.8,11.2 -13.2,16.7 -7.9,10 -16,19.8 -24.1,29.7 -71.3,86.2 -149,167.1 -232.3,241.9 -37.4,33.6 -76.1,65.8 -115.6,96.9 -3.8,2.8 -14.1,10.7 -16.6,12.6 -5.1,3.8 -10.2,7.6 -15.3,11.4 -11.3,8.3 -22.7,16.5 -34.1,24.6 -20.8,14.8 -41.9,29.2 -63.2,43.2 -94.2,62 -193,116.9 -295.5,164.1 -14,6.4 -28.1,12.7 -42.3,18.9 -4.6,2 -9.4,4.4 -14.2,6.1 1,-0.3 1.9,-0.7 2.8,-1 -2.7,1 -5.1,1.9 -6.3,2.4 -25.1,10.4 -50.5,20.2 -75.9,29.6 -52.6,19.4 -105.8,36.7 -159.6,52.1 -55.6,15.9 -111.8,29.5 -168.4,41 -28.6,5.8 -57.3,11 -86,15.7 -14.5,2.4 -29,4.6 -43.5,6.6 -1.5,0.2 -3.7,0.6 -5.9,1 -5.9,0.8 -12,1.3 -17.8,2 -115.97,13.8 -232.93,18.5 -349.57,14.3 -59.36,-2.1 -118.63,-6.5 -177.63,-13.3 -9.29,-1.1 -18.58,-2.3 -27.92,-3.4 -0.09,0 -0.13,-0.1 -0.27,-0.1 -13.05,-1.9 -26.05,-3.8 -39.11,-5.8 -28.77,-4.6 -57.5,-9.7 -86.1,-15.4 -110.34,-22 -219,-52.3 -324.77,-90.7 -29.23,-10.6 -58.19,-21.8 -86.92,-33.6 -3.94,-1.6 -7.97,-3.2 -11.87,-4.9 -2.45,-1.1 -4.76,-2.1 -5.84,-2.6 -11.83,-5.1 -23.61,-10.4 -35.35,-15.7 -51.39,-23.5 -101.91,-48.9 -151.44,-76.1 -96.35,-53.1 -187.79,-113.7 -275.84,-179.6 -1.04,-0.8 -1.86,-1.4 -2.63,-2 -2.13,-1.7 -4.26,-3.3 -6.34,-5 -5.03,-3.9 -9.97,-7.9 -14.96,-11.8 -10.92,-8.8 -21.75,-17.7 -32.53,-26.6 -19.53,-16.3 -38.84,-32.9 -57.82,-49.8 -41.79,-37.2 -82.16,-76 -121.04,-116.3 -38.88,-40.2 -76.31,-81.9 -112.11,-124.9 -9.75,-11.7 -19.4,-23.5 -28.91,-35.5 -2.68,-3.3 -17.86,-23 -17.77,-22.7 -14.13,-18.8 -28.14,-37.6 -41.73,-56.7 -64.49,-90.7 -122.17,-186.2 -172.52,-285.4 -12.78,-25.2 -25.1,-50.7 -36.93,-76.4 -6.44,-14 -12.78,-28.2 -18.94,-42.3 -2.04,-4.7 -4.4,-9.5 -6.12,-14.2 0.41,1 0.73,2 1.09,2.9 -1,-2.6 -2,-5.2 -2.5,-6.4 -21.16,-51.6 -40.42,-104 -57.68,-157 -34.26,-105.2 -60.59,-213.1 -78.85,-322.2 -15.36,-105.4 -23.38,-213.2 -23.38,-322.8 0,-543 195.35,-1040.2 519.54,-1425.5 21.57,-24.6 43.64,-48.9 66.25,-72.6 75.41,-79.1 156.56,-152.3 242.44,-219.8 3.71,-2.8 10.33,-7.9 12.55,-9.6 5.12,-3.8 10.19,-7.6 15.32,-11.4 10.24,-7.6 20.57,-15.1 30.95,-22.5 22.83,-16.3 45.99,-32.2 69.42,-47.6 45.95,-30.2 92.94,-58.8 140.98,-85.5 48.21,-27 97.42,-52.1 147.5,-75.3 14,-6.5 28.09,-12.9 42.23,-19.1 7.07,-3.1 14.1,-6.6 21.3,-9.2 -0.68,0.2 -1.36,0.5 -1.99,0.7 2.31,-0.9 4.44,-1.7 5.52,-2.1 23.93,-9.9 48.04,-19.3 72.28,-28.3 106.67,-39.5 216.34,-70.8 327.77,-93.6 29.82,-6.1 59.82,-11.6 89.86,-16.5 13.14,-2.2 26.33,-4.2 39.47,-6.1 1.31,-0.1 2.63,-0.3 3.94,-0.5 1.32,0.5 13.5,-1.8 15.81,-2 58.87,-7.2 118.05,-12.1 177.28,-14.7 119.36,-5.1 239.18,-0.9 357.88,12.8 8,0.9 15.9,1.9 23.9,2.9 1,0 1.9,0.1 2.7,0.2 0.4,0.1 0.7,0.2 1.2,0.2 13.1,1.9 26.3,3.9 39.5,5.9 26.2,4.2 52.3,8.8 78.3,13.9 56.8,11.1 113.1,24.4 168.9,39.8 55.2,15.4 109.8,32.9 163.7,52.4"
         style="fill:#ffffff;fill-opacity:1;fill-rule:nonzero;stroke:none"
         id="path100"
         inkscape:connector-curvature="0" />
    </g>
    <g
       id="g102"
       transform="matrix(0.06149975,0,0,-0.06149975,-622.39892,1272.8017)">
      <path
         d="m 12230.6,16299.7 c 0.2,0.1 0.3,0.2 0.5,0.3 -0.2,-0.1 -0.3,-0.1 -0.3,-0.2 0,0 0,0 -0.1,0 0,0 -0.1,-0.1 -0.1,-0.1"
         style="fill:#ffffff;fill-opacity:1;fill-rule:nonzero;stroke:none"
         id="path104"
         inkscape:connector-curvature="0" />
    </g>
    <g
       id="g106"
       transform="matrix(0.06527306,0,0,-0.06527306,-622.39892,1272.8017)">
      <path
         d="m 12576.2,16286.3 c 10.9,13.7 3.8,4.8 0,0 v 0"
         style="fill:#ffffff;fill-opacity:1;fill-rule:nonzero;stroke:none"
         id="path108"
         inkscape:connector-curvature="0" />
    </g>
    <g
       id="g110"
       transform="matrix(0.06149869,0,0,-0.06149869,-622.39892,1272.8017)">
      <path
         d="m 12224.9,16295.6 c 2,1.4 4.5,3.3 5.9,4.4 -2,-1.5 -4,-2.9 -5.9,-4.4"
         style="fill:#ffffff;fill-opacity:1;fill-rule:nonzero;stroke:none"
         id="path112"
         inkscape:connector-curvature="0" />
    </g>
    <g
       id="g114"
       transform="matrix(0.06092825,0,0,-0.06092825,-622.39892,1272.8017)">
      <path
         d="m 11907.1,16300 c 2.5,-0.5 7.2,-0.8 9.8,-0.9 -3.3,0.4 -6.6,0.7 -9.9,0.9 0.1,0 0.1,0 0.1,0"
         style="fill:#ffffff;fill-opacity:1;fill-rule:nonzero;stroke:none"
         id="path116"
         inkscape:connector-curvature="0" />
    </g>
    <g
       id="g118"
       transform="matrix(0.07908114,0,0,-0.07908114,-622.39892,1272.8017)">
      <path
         d="m 7959.54,12601.7 c -9.59,11.6 -19.05,23.3 -28.37,35.1 -3.12,3.9 -6.2,7.9 -9.32,11.8 -0.27,0.4 -0.49,0.7 -0.76,1 -0.45,0.5 -0.89,1.2 -1.47,1.9 -16.51,22.1 -32.97,44.3 -48.85,66.9 -63.75,90.6 -120.67,186 -170.14,285.2 -11.29,22.7 -22.17,45.5 -32.7,68.6 -5.26,11.5 -10.44,23.1 -15.48,34.7 -0.49,1.2 -1.61,3.6 -2.72,6.2 -2.63,6.1 -5.09,12.2 -7.58,18.3 -21.15,52.1 -40.33,105 -57.42,158.4 -34.7,108.6 -60.93,219.8 -78.38,332.4 -2,12.8 -4.14,25.7 -5.62,38.6 -0.89,7.6 -2,17.4 -2.27,19.9 -3.35,28.9 -6.11,57.9 -8.3,87 -4.24,56 -6.24,112.3 -6.33,168.5 0.09,59 2.32,117.9 6.95,176.6 2.28,29 5.14,57.9 8.57,86.9 0.62,5.2 1.29,10.4 1.92,15.6 0.13,1.2 0.27,2.2 0.36,3 0.04,0.3 0.09,0.5 0.13,0.8 2.23,15.6 4.55,31.1 7.05,46.7 0.58,3.5 1.25,7.1 1.83,10.6 17.98,107.4 43.89,213.6 77.62,317.2 16.99,52.2 35.95,103.7 56.78,154.5 0.5,1.2 1.48,3.7 2.46,6.4 -0.36,-0.9 -0.67,-1.9 -1.07,-3 1.69,4.7 4.01,9.4 6.02,14 6.07,14 12.31,27.9 18.65,41.7 11.64,25.3 23.77,50.4 36.35,75.2 49.56,97.7 106.35,191.7 169.83,280.9 13.39,18.9 27.17,37.4 41.09,55.8 -0.09,-0.2 14.85,19.2 17.49,22.5 9.36,11.7 18.86,23.4 28.46,34.9 35.24,42.3 72.08,83.4 110.36,123 38.27,39.6 78.02,77.7 119.15,114.4 18.69,16.7 37.7,33 56.92,49 10.62,8.8 21.28,17.6 32.03,26.2 4.91,3.9 9.77,7.8 14.72,11.7 2.06,1.6 4.15,3.2 6.25,4.9 0.76,0.5 1.56,1.2 2.59,1.9 86.67,64.9 176.69,124.5 271.53,176.8 48.76,26.8 98.5,51.8 149.09,74.9 11.55,5.3 23.15,10.5 34.8,15.5 1.07,0.5 3.34,1.5 5.75,2.6 3.84,1.7 7.81,3.2 11.69,4.8 28.28,11.6 56.79,22.7 85.56,33.1 104.12,37.8 211.09,67.6 319.72,89.2 28.14,5.6 56.43,10.7 84.75,15.2 12.85,2 25.65,3.9 38.5,5.8 0.13,0 0.18,0 0.27,0 9.19,1.1 18.33,2.3 27.48,3.3 58.08,6.7 116.43,11.1 174.87,13.2 114.82,4.1 229.96,-0.6 344.07,-14.1 5.8,-0.7 11.73,-1.2 17.58,-2 2.14,-0.4 4.32,-0.7 5.84,-0.9 14.23,-2.1 28.51,-4.2 42.74,-6.5 28.32,-4.6 56.52,-9.8 84.62,-15.5 55.8,-11.3 111.1,-24.8 165.9,-40.4 52.9,-15.1 105.3,-32.2 157,-51.3 25.1,-9.2 50,-18.9 74.8,-29.1 1.2,-0.5 3.6,-1.4 6.2,-2.4 -0.9,0.4 -1.8,0.7 -2.8,1.1 4.8,-1.8 9.4,-4.1 14,-6.1 14,-6.1 27.9,-12.3 41.7,-18.6 100.8,-46.4 198.2,-100.5 290.9,-161.5 20.9,-13.8 41.7,-28 62.2,-42.5 11.2,-8 22.4,-16.1 33.5,-24.3 5.1,-3.7 10.1,-7.4 15.1,-11.2 2.5,-1.8 12.6,-9.6 16.3,-12.4 38.9,-30.6 77,-62.3 113.8,-95.4 82,-73.6 158.5,-153.3 228.7,-238.2 8,-9.6 15.9,-19.4 23.7,-29.1 4.4,-5.5 8.7,-11 13,-16.5 17.7,-23.4 35.2,-47 52.1,-71 31.1,-44.2 60.6,-89.5 88.3,-135.9 27.9,-46.5 54.1,-94.1 78.4,-142.6 12.5,-24.8 24.6,-50 36.1,-75.3 5.3,-11.5 10.5,-23.1 15.5,-34.8 0.1,-0.3 1.1,-2.4 2.1,-4.9 1.2,-2.8 7.4,-17.7 8.2,-19.6 42,-103.3 76.1,-209.9 102,-318.3 13,-54.5 23.8,-109.4 32.6,-164.7 2.1,-13.6 4.1,-27.2 6.1,-40.9 0,-0.5 0.1,-1.1 0.2,-1.8 0.9,-7.8 1.9,-15.6 2.8,-23.5 3.3,-28.9 6.1,-57.9 8.3,-87 8.9,-117.4 8.5,-235.6 -1.3,-353 -2.1,-26.4 -4.8,-52.7 -7.9,-79 -0.5,-4 -0.9,-8 -1.3,-12.1 -0.2,-1 -0.5,-3.3 -1.1,-7.4 -2.2,-15.5 -4.5,-31.1 -7.1,-46.6 -9.1,-56.5 -20.5,-112.6 -34,-168.2 -26.8,-109.7 -62.5,-216.7 -105.1,-321.2 -0.4,-0.9 -0.8,-2.2 -1.3,-3.4 -2,-4.7 -4.2,-9.3 -6.2,-13.9 -5.1,-11.7 -10.3,-23.2 -15.6,-34.7 -11.7,-25.3 -23.8,-50.4 -36.4,-75.2 -25.1,-49.5 -52.1,-98.1 -80.8,-145.5 -28.7,-47.3 -59.1,-93.6 -91.2,-138.6 -13.2,-18.4 -26.8,-36.6 -40.4,-54.7 -2.4,-3.1 -5.5,-7.1 -6.6,-8.6 -4.7,-5.9 -9.4,-11.8 -14.1,-17.6 -9.4,-11.8 -18.9,-23.4 -28.6,-34.9 -69.1,-82.5 -144.3,-160 -224.7,-231.6 -20.5,-18.4 -41.5,-36.3 -62.7,-53.9 -9.6,-8 -19.4,-15.8 -29.1,-23.7 -4.9,-3.9 -9.9,-7.7 -14.8,-11.6 -1.3,-1 -2.3,-1.9 -3.3,-2.6 -0.6,-0.5 -1.5,-1.2 -2.5,-1.9 -44.3,-33.2 -89.2,-65.3 -135.6,-95.3 -91,-59.1 -186.4,-111.4 -285.1,-156.4 -12.7,-5.8 -25.5,-11.4 -38.3,-17.1 -1.1,-0.5 -2.6,-1.1 -4.2,-1.9 -5.6,-2.3 -11.2,-4.5 -16.8,-6.8 -26,-10.6 -52.1,-20.7 -78.5,-30.2 -53,-19.2 -106.8,-36.4 -161.1,-51.5 -54.9,-15.3 -110.4,-28.4 -166.26,-39.3 -25.65,-5 -51.34,-9.5 -77.13,-13.6 -12.93,-2.1 -25.91,-4 -38.89,-5.9 -0.41,0 -0.76,0 -1.17,-0.1 -0.8,-0.1 -1.65,-0.2 -2.63,-0.3 -7.85,-0.9 -15.7,-2 -23.55,-2.9 -116.83,-13.4 -234.78,-17.5 -352.28,-12.5 -58.31,2.5 -116.57,7.3 -174.52,14.4 -2.27,0.3 -14.27,2.5 -15.56,2 -1.3,0.2 -2.59,0.4 -3.88,0.6 -12.94,1.8 -25.92,3.8 -38.86,5.9 -29.57,4.8 -59.11,10.3 -88.46,16.2 -109.69,22.5 -217.65,53.3 -322.66,92.2 -23.87,8.9 -47.6,18.2 -71.15,27.8 -1.07,0.5 -3.17,1.3 -5.44,2.2 0.62,-0.3 1.29,-0.5 1.96,-0.8 -7.09,2.6 -14.01,6 -20.97,9.1 -13.92,6.1 -27.79,12.4 -41.57,18.8 -49.3,22.9 -97.74,47.6 -145.21,74.1 -47.28,26.4 -93.55,54.5 -138.78,84.2 -23.06,15.2 -45.86,30.8 -68.34,46.9 -10.22,7.3 -20.39,14.6 -30.47,22.1 -5.04,3.7 -10.04,7.5 -15.08,11.2 -2.18,1.7 -8.7,6.7 -12.35,9.5 -84.54,66.5 -164.43,138.5 -238.66,216.3 -22.26,23.4 -43.99,47.3 -65.22,71.5 -13.34,15.3 -26.59,30.8 -39.53,46.4 z m 3413.96,-140.3 c 304.2,370.5 487.9,824 524.8,1302.3 36.7,475.5 -78.9,960.7 -326.1,1368.5 -239.2,395 -598.4,718.4 -1019.7,908.8 -447.7,202.2 -948.92,259 -1430.61,161.3 -456.63,-92.6 -882.42,-330.6 -1203.79,-667.5 -322.62,-338.2 -542.18,-774.5 -612.27,-1237.4 -18.11,-119.6 -28.5,-240 -28.72,-361.2 0.89,-474.9 147.65,-947.3 423.88,-1334.5 274.3,-384.5 657.9,-678.6 1101.58,-841.2 452.61,-166 960.18,-182.1 1423.43,-50 446.2,127.3 852.9,392.2 1147.5,750.9"
         style="fill:#0092f4;fill-opacity:1;fill-rule:nonzero;stroke:none"
         id="path120"
         inkscape:connector-curvature="0" />
    </g>
    <g
       id="g122"
       transform="matrix(0.07509686,0,0,-0.07509686,-622.39892,1272.8017)">
      <path
         d="m 10931,14155.8 c 3.3,4.2 9.5,11.9 0,0 z m -1783.89,1175.3 c 51.86,-11.8 108.94,15.6 122.7,69.7 6.67,26.2 14.42,52 23.63,77.3 2.16,5.9 4.37,11.8 6.67,17.7 0.94,2.3 3.95,9.4 5.07,12.1 5.03,11.1 10.2,22.1 15.65,32.9 23.91,47.5 52.28,92.8 84.37,135.2 1.41,1.7 4.6,5.8 5.49,6.8 4.09,4.9 8.04,9.9 12.12,14.7 8.18,9.8 16.54,19.4 25.09,28.8 20.39,22.5 41.71,44.2 63.84,65 19.92,18.7 40.54,36.8 61.68,54.1 4.98,4.1 10.01,8.1 15.03,12.2 0.85,0.7 3.81,2.9 5.87,4.4 12.31,9.1 24.85,17.8 37.49,26.3 46.04,30.9 94.19,58.9 143.98,83.3 11.56,5.7 23.26,11.2 35,16.6 -1.17,-0.6 9.87,4.3 15.08,6.6 3.62,1.5 8.79,3.7 9.87,4.1 26.68,10.7 53.74,20.5 81.12,29.2 52.67,16.8 106.54,29.9 161.04,38.9 5.7,1 32.5,4.5 24.6,3.7 11,1.3 21.9,2.5 32.9,3.4 27.9,2.5 55.9,3.9 84,4.3 28.1,0.3 56.1,-0.5 84,-2.4 12.4,-0.9 24.8,-1.9 37.2,-3.2 4.5,-0.5 9,-1 13.5,-1.6 -7.1,0.8 10.8,-1.4 15.5,-2.2 52.5,-8.3 104.3,-20.7 154.8,-37.2 12,-3.9 23.9,-8 35.7,-12.3 7.4,-2.7 14.8,-5.6 22.1,-8.5 1.2,-0.4 6.5,-2.6 10.1,-4 3.5,-1.6 8.8,-3.9 10,-4.4 5.7,-2.6 11.5,-5.3 17.3,-8 14.5,-6.9 28.8,-14.1 42.9,-21.6 25.5,-13.6 50.6,-28.3 75.2,-43.6 12.6,-7.8 25.1,-16 37.4,-24.4 6.1,-4.2 12.2,-8.4 18.3,-12.7 -0.5,0.3 17.8,-13.1 17,-12.3 38.9,-29.7 75.4,-63.3 109.6,-98.2 16.1,-16.4 31.6,-33.2 46.6,-50.5 7.9,-9 15.6,-18.2 23.3,-27.5 3.3,-4.1 6.6,-8.3 9.9,-12.4 0.6,-0.8 1.1,-1.4 1.6,-2 0.6,-0.8 1.3,-1.8 2.1,-3 26,-36 51,-72.6 73.2,-111.1 11,-19.1 21.4,-38.4 31.3,-58 4.6,-9.2 9.1,-18.5 13.4,-27.8 2.8,-5.8 5.4,-11.7 8.1,-17.5 0.4,-1.1 2,-4.8 3.5,-8.1 1.1,-2.6 2.5,-5.8 3,-7 1.9,-4.8 3.8,-9.5 5.6,-14.3 4.3,-10.8 8.3,-21.6 12.2,-32.4 7.7,-21.7 14.8,-43.6 21.2,-65.6 12.2,-41.7 22.2,-84.1 30,-126.9 2,-11.3 3.9,-22.7 5.6,-34 0.7,-4 1.2,-7.9 1.8,-11.8 1.8,-22.9 5.1,-45.7 6.7,-68.7 3.2,-44.9 4.1,-90 2.9,-135.1 -1.3,-45.2 -4.9,-90.3 -10.2,-135.3 -0.3,-2.3 -0.5,-4.1 -0.6,-5.4 -0.3,-1.5 -0.6,-3.6 -1.1,-6.7 -1.8,-11.6 -3.6,-23.1 -5.6,-34.6 -4,-23.1 -8.6,-46.1 -13.6,-69 -9.7,-43.3 -21.2,-86.2 -34.6,-128.5 -6.7,-21.2 -13.9,-42.2 -21.5,-63.1 -4.1,-11.1 -8.2,-22.1 -12.5,-33 -1.9,-4.9 -3.9,-9.8 -5.8,-14.6 -0.5,-1.3 -2.6,-6.3 -4.1,-10.1 -1.1,-2.4 -2.1,-4.9 -2.6,-6 -2.6,-5.9 -5.2,-11.9 -8,-17.9 -4.3,-9.5 -8.6,-19.1 -13.2,-28.5 -10.1,-21.3 -20.8,-42.4 -31.9,-63.2 -21,-39.2 -43.7,-77.6 -68.1,-114.8 -12.9,-19.7 -26.3,-39.1 -40.2,-58.2 -5.9,-8.2 -12,-16.2 -18.1,-24.3 -4.7,-5.9 -9.4,-11.8 -14.2,-17.7 -28,-34.5 -57.6,-67.7 -88.8,-99.4 -82.3,-83.5 -162.4,-142.3 -254.6,-209.1 -100.9,-73.1 -199.7,-147.9 -290.1,-234.1 -70.1,-66.9 -137.9,-136.3 -211,-200 -18.1,-15.8 -36.6,-31.1 -55.3,-46 0,0 0.1,0.1 0.2,0.1 -0.1,0 -0.2,-0.1 -0.4,-0.2 -1.1,-0.9 -3.2,-2.5 -4.8,-3.6 -2.8,-2.1 -5.5,-4.2 -8.2,-6.1 -11.21,-8.3 -22.58,-16.2 -34.09,-23.9 -18.14,-12.3 -36.78,-23.8 -55.9,-34.5 -10.62,-5.9 -21.38,-11.6 -32.28,-16.9 -4.74,-2.3 -27.76,-12.2 -23.01,-10.6 -18.98,-7.2 -38.2,-13.8 -57.88,-18.9 -11.6,-3.1 -23.35,-5.8 -35.14,-7.9 -3.15,-0.6 -6.29,-1.1 -9.39,-1.6 -1.84,-0.2 -4.61,-0.4 -8.08,-0.8 -23.45,-2 -46.98,-2.1 -70.42,-0.5 -2.82,0.2 -5.59,0.5 -8.36,0.8 -2.12,0.1 -5.92,0.3 -7.99,0.7 0,0 0,0 -0.05,0 -0.18,0 -0.42,0 -0.61,0 0.19,0 0.33,0 0.47,0 -14.56,2.6 -29.03,5.5 -43.4,9.1 -24.24,6.1 -47.26,15 -70.94,22.8 -0.51,0.1 -0.84,0.2 -1.22,0.4 -5.12,2.3 -10.24,4.6 -15.27,7 -13.24,6.3 -26.21,13.1 -38.89,20.4 -10.1,5.8 -20.06,12 -29.83,18.4 -4.32,2.9 -27.01,20 -22.32,15.8 -18.88,15.7 -36.97,32.2 -53.6,50.5 -3.24,3.5 -16.3,19.4 -15.69,18.1 -5.68,7.8 -11.18,15.7 -16.35,23.8 -6.24,9.9 -12.16,20 -17.61,30.4 -3.43,6.4 -6.3,13.3 -9.77,19.7 -0.19,0.3 -0.33,0.6 -0.47,0.9 -0.42,1.1 -0.94,2.4 -1.55,4 -18.84,48.5 -67.79,87.5 -122.7,69.7 -47.12,-15.3 -89.92,-70.7 -69.67,-122.8 89.49,-230.2 323.85,-386.7 571,-390.3 228.91,-3.4 418.31,141.9 576.91,291.1 77,72.5 150,149.5 230.8,217.9 50.5,42.8 90,71.4 145.8,111.9 60.3,43.8 120.7,87.6 179,133.9 162.2,128.8 296.7,291.6 394.4,474.1 187.4,350.3 251.6,777.3 134,1160.8 -133.6,435.8 -509.9,790.1 -968.1,853.2 -250.7,34.5 -502.75,-12.6 -728.51,-125.9 -218.07,-109.4 -417.11,-288.9 -524.07,-510.7 -27.11,-56.2 -49.52,-114.6 -64.88,-175.1 -12.87,-50.5 16.44,-110.5 69.67,-122.7"
         style="fill:#0092f4;fill-opacity:1;fill-rule:nonzero;stroke:none"
         id="path124"
         inkscape:connector-curvature="0" />
    </g>
    <g
       id="g126"
       transform="matrix(0.06092825,0,0,-0.06092825,-622.39892,1272.8017)">
      <path
         d="m 11916.9,16299.1 c 3.4,-0.1 3.1,0.2 -10,0.9 0,0 0.1,0 0.1,0 3.3,-0.2 6.6,-0.5 9.9,-0.9"
         style="fill:#182846;fill-opacity:1;fill-rule:nonzero;stroke:none"
         id="path128"
         inkscape:connector-curvature="0" />
    </g>
    <g
       id="g130"
       transform="matrix(0.06149904,0,0,-0.06149904,-622.39892,1272.8017)">
      <path
         d="m 12230.8,16300 c 0.1,0 0.1,0 0.1,0 -11.9,-8.7 -10,-7.3 -6.1,-4.5 2,1.5 3.9,2.9 5.9,4.4 0.1,0 0.1,0 0.1,0.1"
         style="fill:#182846;fill-opacity:1;fill-rule:nonzero;stroke:none"
         id="path132"
         inkscape:connector-curvature="0" />
    </g>
    <g
       id="g134"
       transform="matrix(0.07269056,0,0,-0.07269056,-622.39892,1272.8017)">
      <path
         d="m 10492.2,15201.2 c -0.4,-2.7 -1,-5.3 -1.6,-8 -2,-7.4 -4,-14.8 -6.6,-22 0.1,1.1 -5.2,-9.9 -6.9,-12.8 -2,-3.5 -4.3,-6.8 -6.4,-10.2 -0.5,-0.8 -0.9,-1.3 -1.2,-1.9 -0.1,-0.1 -0.3,-0.3 -0.4,-0.5 -5.5,-6.3 -11.3,-12.3 -17.4,-18 -2.2,-2 -4.4,-4 -6.7,-5.8 -0.6,-0.4 -1.7,-1.1 -3.5,-2.2 -16.7,-10.6 -33.8,-19.8 -52.4,-26.6 -45.3,-16.9 -93,-26.3 -138.9,-41.7 -146,-49.1 -291.5,-149.9 -340.08,-302.7 -45.48,-142.9 18.63,-308.1 150.08,-380.2 119.8,-65.9 266.8,-58.9 388.1,-1.7 30.2,14.2 56.5,33.3 82.6,54.1 35.7,28.4 29.6,89.6 0,119.3 -35.3,35.2 -83.5,28.4 -119.3,0 16,12.7 -1.7,-1 -4.4,-2.9 -5.6,-3.7 -11.3,-7.3 -17.1,-10.7 -9.9,-5.8 -20,-11 -30.4,-15.7 0.2,0.5 -19.8,-7 -23.9,-8.3 -15.2,-4.6 -30.7,-7.8 -46.3,-10.8 -0.7,-0.2 -1.3,-0.3 -1.9,-0.4 -0.7,-0.1 -1.6,-0.1 -2.6,-0.2 -4.5,-0.2 -9,-0.7 -13.5,-0.9 -13.5,-0.8 -27,-0.8 -40.4,0 -3.9,0.2 -7.8,0.5 -11.6,0.9 5.8,-0.5 -8.9,1.3 -12.2,1.9 -12.8,2.6 -25.5,5.9 -37.9,10.1 -2.8,1 -14.9,6.2 -11.9,4.6 -3.2,1.5 -6.3,3.1 -9.4,4.7 -9.4,5.1 -18.2,10.9 -27.2,16.8 -0.3,0.2 -0.5,0.4 -0.8,0.6 -0.6,0.6 -1.3,1.2 -2,2.1 -4.5,4.5 -9.4,8.6 -13.9,13.3 -2.4,2.6 -4.8,5.2 -7.1,7.9 0.1,0.3 -5.9,8.4 -7.5,11 -3.6,5.8 -6.4,11.8 -9.9,17.5 -0.6,1.2 -1.2,2.1 -1.7,2.9 -0.2,0.7 -0.5,1.5 -0.7,2.4 -4.6,14.1 -8.4,27.9 -11.5,42.4 -0.2,1 -0.4,1.8 -0.6,2.6 0,0.7 0,1.8 -0.1,3.4 -0.4,7.3 -0.8,14.4 -0.7,21.7 0,0.8 1.4,18.3 0.7,16.7 1.6,8.8 3.8,17.6 6.4,26.2 0.2,0.7 5.5,15.3 5.1,15.3 1.6,3.2 3.1,6.4 4.8,9.5 6.7,13 14.4,25.6 23.2,37.4 0.3,-0.1 10.7,12.2 10.9,12.5 5.6,6.1 11.4,12.1 17.4,18 4.1,3.8 8.1,7.7 12.4,11.4 1.8,1.7 18.8,15.5 18.1,15.2 24.2,17.8 50.1,33.3 77,46.8 7.4,3.7 14.9,7.2 22.4,10.7 2,0.9 3.6,1.6 4.7,2.2 1.4,0.4 3,1 5.2,1.7 19.9,7 39.6,13.8 59.8,19.6 86.2,24.7 174.8,47.4 241.5,111 54.9,52.4 86.4,127 87.5,202.5 2.5,158.7 -117,268.4 -254.1,322.2 -54.8,21.5 -112.2,35.3 -167.8,54.4 -49.8,17.1 -90.2,37.8 -128.6,77.7 -0.7,0.8 -2.5,3.1 -3.7,4.7 -4,5.6 -7.8,11.3 -11.3,17.2 -3.3,5.4 -6.3,11.1 -9.1,16.8 0.6,-0.6 -5.2,13.3 -5.6,14.5 -1.7,5.4 -6.7,34.4 -6.3,25.5 -0.5,6.4 -0.8,12.7 -0.8,19.1 0,3 1.7,24 0.9,21.2 2,11.5 4.9,23 8.3,34.2 1.9,6.2 4.1,12.1 6.2,18.2 0.6,1.8 1.1,3.1 1.4,4.3 0.7,1 1.4,2.5 2.4,4.4 7.6,14.2 14.8,28.4 23.4,42 3.7,5.8 7.4,11.4 11.3,17 1.3,2 11.6,15.4 11.6,15.8 18.7,22.8 39.1,44.2 60.8,64.2 11.2,10.3 22.8,20.2 34.7,29.7 2,1.4 12.6,9.4 12.8,9.5 8.8,6.3 17.7,12.4 26.7,18.2 23.6,15.2 48.1,28.1 73.2,40.5 1.2,0.6 2.2,1.1 3,1.6 0.8,0.2 1.5,0.5 2.5,0.8 5.4,1.9 10.7,4 16.1,5.9 22.9,8.1 46.3,14.8 70,20.3 158.5,36.9 338.3,10.2 476.5,-83.2 53,-35.9 100.2,-87.4 133.2,-147.4 33.8,-61.3 49.4,-130.5 48.9,-202.8 -0.7,-108.5 168,-108.7 168.7,0 1,163.4 -65.6,322.6 -186.3,433.4 -132.5,121.6 -313.8,181.7 -492,184 -171.3,2.2 -331.5,-50.5 -465.7,-156.1 -114.1,-89.8 -219.82,-227.4 -217.2,-379.5 1.36,-81 34.9,-156.4 88.77,-216.1 49.63,-55 117.43,-88.3 185.93,-113.2 61.2,-22.2 124.8,-37.2 185.6,-60.8 2.5,-1.1 5.1,-2.2 7.6,-3.4 6.7,-3.3 13.3,-6.5 19.9,-10 6.5,-3.5 12.9,-7.2 19.2,-11.1 3.2,-1.9 6.3,-3.9 9.3,-5.9 -0.1,0.1 6.7,-4.9 9.8,-7.2 3.1,-2.8 9.3,-8.2 10.8,-9.6 5.5,-5.3 10.6,-10.8 15.7,-16.4 1.4,-1.5 2.8,-3.1 4.2,-4.7 0.3,-0.6 0.8,-1.5 1.7,-2.9 5.4,-8.6 10.5,-17.2 15.5,-26.1 2.1,-3.8 3,-5 3.3,-5.3 0,-0.5 0.3,-2 1.5,-5.9 2.4,-8 4.4,-16 6.6,-24 0.8,-2.6 1.3,-4 1.6,-4.8 -0.1,-0.9 -0.1,-2.3 -0.1,-4.9 0.1,-9.3 0.2,-18.5 -0.2,-27.9 0,-0.3 0,-0.5 -0.1,-0.8"
         style="fill:#0092f6;fill-opacity:1;fill-rule:nonzero;stroke:none"
         id="path136"
         inkscape:connector-curvature="0" />
    </g>
  </g>
</svg>
