<?xml version="1.0" encoding="UTF-8" standalone="no"?>
<!-- Created with Inkscape (http://www.inkscape.org/) -->

<svg
   xmlns:dc="http://purl.org/dc/elements/1.1/"
   xmlns:cc="http://creativecommons.org/ns#"
   xmlns:rdf="http://www.w3.org/1999/02/22-rdf-syntax-ns#"
   xmlns:svg="http://www.w3.org/2000/svg"
   xmlns="http://www.w3.org/2000/svg"
   xmlns:sodipodi="http://sodipodi.sourceforge.net/DTD/sodipodi-0.dtd"
   xmlns:inkscape="http://www.inkscape.org/namespaces/inkscape"
   width="30.498043mm"
   height="30.489847mm"
   viewBox="0 0 365.97652 365.87818"
   version="1.1"
   id="svg2960"
   inkscape:version="0.92.3 (2405546, 2018-03-11)"
   sodipodi:docname="touch.svg">
  <defs
     id="defs2954" />
  <sodipodi:namedview
     id="base"
     pagecolor="#ffffff"
     bordercolor="#666666"
     borderopacity="1.0"
     inkscape:pageopacity="0.0"
     inkscape:pageshadow="2"
     inkscape:zoom="0.35"
     inkscape:cx="-459.81947"
     inkscape:cy="-459.0434"
     inkscape:document-units="mm"
     inkscape:current-layer="layer1"
     showgrid="false"
     inkscape:window-width="1366"
     inkscape:window-height="662"
     inkscape:window-x="0"
     inkscape:window-y="27"
     inkscape:window-maximized="1"
     fit-margin-top="0"
     fit-margin-left="0"
     fit-margin-right="0"
     fit-margin-bottom="0" />
  <metadata
     id="metadata2957">
    <rdf:RDF>
      <cc:Work
         rdf:about="">
        <dc:format>image/svg+xml</dc:format>
        <dc:type
           rdf:resource="http://purl.org/dc/dcmitype/StillImage" />
        <dc:title></dc:title>
      </cc:Work>
    </rdf:RDF>
  </metadata>
  <g
     inkscape:label="Layer 1"
     inkscape:groupmode="layer"
     id="layer1"
     transform="translate(60.523955,3.1117368)">
    <g
       id="g26"
       transform="matrix(0.07453206,0,0,-0.07453206,-1056.5338,1281.8784)">
      <path
         d="m 15687.9,16292.4 c 0.9,2.5 1.7,5 2.5,7.6 -1.6,-3.2 -2.9,-8.1 -2.5,-7.6"
         style="fill:#ffffff;fill-opacity:1;fill-rule:nonzero;stroke:none"
         id="path28"
         inkscape:connector-curvature="0" />
    </g>
    <g
       id="g30"
       transform="matrix(0.07478007,0,0,-0.07478007,-1056.5338,1281.8784)">
      <path
         d="m 15674.7,16294.4 c 2.1,1.8 4.1,3.7 6.1,5.6 -3.2,-2 -7,-6.2 -6.1,-5.6"
         style="fill:#ffffff;fill-opacity:1;fill-rule:nonzero;stroke:none"
         id="path32"
         inkscape:connector-curvature="0" />
    </g>
    <g
       id="g34"
       transform="matrix(0.07478536,0,0,-0.07478536,-1056.5338,1281.8784)">
      <path
         d="m 15679.8,16298.9 c 0.3,0.4 0.7,0.7 1.1,1.1 -0.4,-0.4 -0.8,-0.8 -1.3,-1.2 0.1,0 0.1,0.1 0.1,0.1 0,0 0.1,0 0.1,0"
         style="fill:#ffffff;fill-opacity:1;fill-rule:nonzero;stroke:none"
         id="path36"
         inkscape:connector-curvature="0" />
    </g>
    <g
       id="g38"
       transform="matrix(0.07454194,0,0,-0.07454194,-1056.5338,1281.8784)">
      <path
         d="m 15689,16300 c -0.2,-0.7 -0.4,-1.5 -0.7,-2.2 0.1,0.1 0.1,0.1 0.1,0.2 0.2,0.6 0.4,1.3 0.6,2"
         style="fill:#ffffff;fill-opacity:1;fill-rule:nonzero;stroke:none"
         id="path40"
         inkscape:connector-curvature="0" />
    </g>
    <g
       id="g138"
       transform="matrix(0.08247062,0,0,-0.08247062,-1056.5338,1281.8784)">
      <path
         d="m 16300,13096.2 c -0.2,-1.8 -0.5,-3.6 -0.8,-5.4 0.3,1.6 0.6,3.6 0.8,5.4"
         style="fill:#ffffff;fill-opacity:1;fill-rule:nonzero;stroke:none"
         id="path140"
         inkscape:connector-curvature="0" />
    </g>
    <g
       id="g142"
       transform="matrix(0.08256658,0,0,-0.08256658,-1056.5338,1281.8784)">
      <path
         d="m 15423.1,12985.4 c -9.8,-195.6 -31.3,-396.3 -101.3,-580.6 -70.7,-186.2 -185.5,-342.4 -347.2,-459.4 -159,-115 -355.5,-181.7 -549.8,-200.8 -48.9,-4.4 -97.9,-6.5 -146.9,-5.7 -386.5,5.7 -761.9,179.2 -973.2,510.5 -109.6,171.8 -164.2,373.3 -176.4,575.5 -0.4,5.8 -0.6,11.7 -0.8,17.5 -4.6,41.8 -1.8,85.2 -1.8,127.1 0,83.2 0,166.4 0,249.5 0,141.6 0,283.2 0,424.8 0,67.6 6,132.5 41.4,192.8 72.5,123.3 231,183.5 365.7,130.8 5.6,-2.2 11,-4.6 16.4,-7 0,148.7 0,297.4 0,446.1 0,49.7 8.1,97 28.4,142.8 44.6,100.5 143.3,164.4 251.1,174.9 50.9,5 101.1,-4.8 146.3,-25.7 10.7,90.1 59.2,169 135.4,221 112.5,76.9 264.1,58.7 365.1,-27.3 33.3,-28.4 58.6,-64.1 75.7,-103.5 68.8,39.3 151.1,52.1 231.2,28.5 123.4,-36.3 206.3,-145.2 217.8,-271.4 0.7,-7.5 0.9,-15 1,-22.5 54.3,23.4 114.3,30.6 175.6,21 146.6,-22.9 247.3,-160.1 247.8,-303.8 0.3,-85.2 0.3,-170.4 0.2,-255.7 1,-133.3 6.1,-266.6 7.4,-399.9 2,-199.8 1,-399.9 -9.1,-599.5 z m 868.4,524 c -2.1,27.8 -4.7,55.6 -7.9,83.3 -0.9,7.5 -1.8,15 -2.7,22.5 -0.1,0.7 -0.2,1.2 -0.2,1.8 -1.9,13.1 -3.8,26.1 -5.9,39.1 -8.3,53 -18.8,105.6 -31.2,157.7 -24.7,103.9 -57.4,206 -97.7,305 -0.7,1.8 -6.7,16 -7.7,18.7 -1.1,2.4 -2,4.4 -2.1,4.7 -4.9,11.2 -9.8,22.3 -14.9,33.3 -11,24.3 -22.5,48.4 -34.5,72.2 -23.4,46.4 -48.4,92 -75.1,136.5 -26.6,44.4 -54.8,87.9 -84.6,130.2 -16.2,23 -32.9,45.6 -49.9,68 -4.1,5.3 -8.3,10.5 -12.4,15.8 -7.5,9.3 -15.1,18.7 -22.7,27.9 -67.3,81.3 -140.6,157.6 -219.1,228.1 -35.3,31.7 -71.7,62 -109,91.4 -3.6,2.7 -13.2,10.1 -15.6,11.9 -4.8,3.6 -9.6,7.2 -14.4,10.7 -10.7,7.9 -21.4,15.6 -32.2,23.2 -19.6,13.9 -39.5,27.5 -59.6,40.7 -88.8,58.5 -182,110.3 -278.6,154.7 -13.2,6.1 -26.5,12.1 -39.9,17.9 -4.3,1.9 -8.9,4.1 -13.4,5.8 1,-0.4 1.8,-0.7 2.7,-1 -2.5,0.9 -4.9,1.8 -6,2.3 -23.7,9.7 -47.5,19 -71.6,27.9 -49.5,18.2 -99.7,34.6 -150.4,49.1 -52.4,14.9 -105.4,27.8 -158.8,38.7 -27,5.4 -54,10.4 -81.1,14.8 -13.7,2.2 -27.3,4.3 -41,6.2 -1.4,0.2 -3.5,0.6 -5.5,0.9 -5.6,0.8 -11.3,1.3 -16.9,1.9 -109.3,13 -219.5,17.4 -329.6,13.5 -55.9,-2 -111.8,-6.2 -167.4,-12.6 -8.8,-1 -17.6,-2.2 -26.3,-3.2 -0.1,0 -0.2,0 -0.3,0 -12.3,-1.8 -24.6,-3.6 -36.8,-5.5 -27.2,-4.4 -54.3,-9.2 -81.3,-14.6 -104,-20.7 -206.5,-49.3 -306.2,-85.4 -27.5,-10 -54.9,-20.6 -81.9,-31.7 -3.8,-1.5 -7.5,-3 -11.2,-4.6 -2.3,-1.1 -4.5,-2 -5.5,-2.5 -11.2,-4.9 -22.3,-9.8 -33.3,-14.8 -48.5,-22.2 -96.2,-46.1 -142.8,-71.8 -90.9,-50.1 -177.1,-107.2 -260.1,-169.3 -1,-0.7 -1.8,-1.3 -2.5,-1.9 -2,-1.6 -4,-3.1 -6,-4.7 -4.7,-3.7 -9.4,-7.4 -14.1,-11.2 -10.3,-8.2 -20.5,-16.6 -30.6,-25 -18.5,-15.4 -36.6,-31 -54.6,-47 -39.3,-35.1 -77.4,-71.7 -114.1,-109.6 -36.7,-37.9 -71.9,-77.2 -105.7,-117.8 -9.2,-11 -18.3,-22.2 -27.3,-33.4 -2.5,-3.2 -16.8,-21.8 -16.7,-21.5 -13.4,-17.7 -26.5,-35.4 -39.4,-53.4 -60.7,-85.5 -115.2,-175.6 -162.6,-269.1 -12.1,-23.8 -23.7,-47.8 -34.8,-72.1 -6.1,-13.2 -12.1,-26.5 -17.9,-39.9 -1.9,-4.4 -4.1,-8.9 -5.8,-13.4 0.4,1.1 0.7,2 1,2.8 -0.9,-2.5 -1.8,-4.9 -2.3,-6.1 -20,-48.6 -38.1,-97.9 -54.4,-147.9 -33.3,-102.5 -58.8,-207.6 -76.1,-314 -2.4,-14.9 -4.6,-29.8 -6.8,-44.7 0,-0.3 0,-0.5 0,-0.8 -0.2,-0.8 -0.3,-1.7 -0.4,-2.9 -0.6,-5 -1.3,-10 -1.8,-15 -3.3,-27.6 -6,-55.4 -8.3,-83.2 -4.4,-56.2 -6.5,-112.6 -6.6,-169.1 0.1,-53.8 2,-107.7 6,-161.4 2.1,-27.8 4.8,-55.6 8,-83.3 0.2,-2.4 1.4,-11.8 2.2,-19.1 1.4,-12.3 3.5,-24.6 5.3,-36.9 16.8,-107.8 41.9,-214.4 75.1,-318.4 16.4,-51.2 34.8,-101.8 55,-151.7 2.4,-5.8 4.7,-11.7 7.3,-17.6 1.1,-2.4 2.1,-4.7 2.6,-5.8 4.8,-11.2 9.8,-22.3 14.8,-33.3 10.1,-22.1 20.6,-44 31.4,-65.7 47.3,-95 101.8,-186.4 162.9,-273.2 15.2,-21.6 31,-42.9 46.8,-64 0.5,-0.7 1,-1.4 1.4,-1.9 0.2,-0.3 0.4,-0.6 0.7,-0.9 3,-3.8 5.9,-7.6 8.9,-11.3 9,-11.3 18.1,-22.5 27.2,-33.6 32.1,-38.8 65.6,-76.5 100.3,-112.9 71.1,-74.6 147.7,-143.6 228.6,-207.2 3.6,-2.7 9.8,-7.5 11.9,-9.1 4.8,-3.6 9.6,-7.2 14.4,-10.8 9.7,-7.1 19.4,-14.2 29.2,-21.2 21.6,-15.3 43.3,-30.3 65.5,-44.8 43.3,-28.5 87.6,-55.5 132.9,-80.7 45.4,-25.4 91.8,-49.1 139,-71 13.2,-6.1 26.5,-12.1 39.9,-18 6.6,-2.9 13.3,-6.2 20.1,-8.7 -0.7,0.3 -1.4,0.5 -2,0.7 2.3,-0.8 4.2,-1.6 5.3,-2 22.5,-9.3 45.3,-18.1 68.2,-26.6 100.5,-37.3 203.9,-66.8 309,-88.3 28.1,-5.8 56.3,-11 84.7,-15.6 12.4,-2 24.8,-3.9 37.2,-5.7 1.3,-0.1 2.5,-0.3 3.8,-0.5 1.1,0.5 12.7,-1.7 14.8,-1.9 55.6,-6.8 111.3,-11.4 167.2,-13.8 112.5,-4.8 225.5,-0.9 337.4,12 7.5,0.8 15,1.8 22.5,2.7 1,0.1 1.8,0.2 2.6,0.3 0.3,0.1 0.7,0.1 1.1,0.2 12.4,1.7 24.8,3.6 37.2,5.6 24.7,3.8 49.4,8.2 73.9,13 53.5,10.5 106.7,23 159.2,37.6 52.1,14.5 103.6,30.9 154.4,49.3 25.2,9.2 50.3,18.8 75.2,29 5.3,2.1 10.7,4.3 16.1,6.5 1.5,0.7 2.9,1.4 4,1.8 12.2,5.5 24.5,10.8 36.6,16.4 94.6,43.1 186,93.2 273.2,149.8 44.3,28.8 87.3,59.5 129.7,91.2 1,0.7 1.9,1.4 2.5,1.9 0.9,0.7 1.9,1.5 3.2,2.4 4.7,3.8 9.4,7.5 14.1,11.2 9.3,7.5 18.6,15.1 27.9,22.7 20.3,16.8 40.4,34 60.1,51.6 76.9,68.6 148.9,142.8 215.1,221.8 9.3,11 18.5,22.2 27.5,33.4 4.5,5.6 8.9,11.3 13.4,16.9 1.1,1.4 4.1,5.3 6.3,8.2 13.1,17.4 26.1,34.8 38.8,52.5 30.7,43.1 59.9,87.4 87.3,132.6 27.6,45.5 53.4,92 77.4,139.4 12.1,23.8 23.7,47.8 34.8,72.1 5.1,11 10.1,22 15,33.2 1.9,4.4 4,8.8 5.9,13.3 0.5,1.2 0.9,2.4 1.3,3.3 40.8,100.1 75,202.6 100.6,307.6 13,53.3 23.9,107 32.7,161.1 2.4,14.9 4.6,29.8 6.7,44.7 0.6,3.9 0.9,6 1.1,7.1 0.4,3.9 0.8,7.7 1.2,11.5 3,25.2 5.5,50.4 7.6,75.7 9.3,112.4 9.7,225.6 1.2,338.1"
         style="fill:#ffffff;fill-opacity:1;fill-rule:nonzero;stroke:none"
         id="path144"
         inkscape:connector-curvature="0" />
    </g>
    <g
       id="g146"
       transform="matrix(0.0684089,0,0,-0.0684089,-1056.5338,1281.8784)">
      <path
         d="m 16297.1,14823.3 c 0.6,-0.9 1.5,-2.1 2.9,-4 -1,1.3 -2,2.7 -2.9,4"
         style="fill:#ffffff;fill-opacity:1;fill-rule:nonzero;stroke:none"
         id="path148"
         inkscape:connector-curvature="0" />
    </g>
    <g
       id="g150"
       transform="matrix(0.0732028,0,0,-0.0732028,-1056.5338,1281.8784)">
      <path
         d="m 15487.8,16287.3 c 0.5,5.5 0.5,12.7 0,0 v 0"
         style="fill:#ffffff;fill-opacity:1;fill-rule:nonzero;stroke:none"
         id="path152"
         inkscape:connector-curvature="0" />
    </g>
    <g
       id="g154"
       transform="matrix(0.0763965,0,0,-0.0763965,-1056.5338,1281.8784)">
      <path
         d="m 16292.1,15518.6 c 6,2 7.9,4.2 0,0 v 0"
         style="fill:#ffffff;fill-opacity:1;fill-rule:nonzero;stroke:none"
         id="path156"
         inkscape:connector-curvature="0" />
    </g>
    <g
       id="g158"
       transform="matrix(0.07697188,0,0,-0.07697188,-1056.5338,1281.8784)">
      <path
         d="m 16300,15386.3 c -0.5,0.4 -1,0.8 -1.4,1.3 0.4,-0.4 0.7,-0.7 1.1,-1.1 0,0 0,0 0.1,0 0,-0.1 0.1,-0.1 0.2,-0.2"
         style="fill:#ffffff;fill-opacity:1;fill-rule:nonzero;stroke:none"
         id="path160"
         inkscape:connector-curvature="0" />
    </g>
    <g
       id="g162"
       transform="matrix(0.07699904,0,0,-0.07699904,-1056.5338,1281.8784)">
      <path
         d="m 16294.2,15380.9 c 1.9,-1.8 3.8,-3.6 5.8,-5.3 -0.4,0.7 -3.2,3.6 -5.8,5.3"
         style="fill:#ffffff;fill-opacity:1;fill-rule:nonzero;stroke:none"
         id="path164"
         inkscape:connector-curvature="0" />
    </g>
    <g
       id="g166"
       transform="matrix(0.07651221,0,0,-0.07651221,-1056.5338,1281.8784)">
      <path
         d="m 16300,15504.6 c -11.7,-0.6 -5.3,-0.5 0,0 v 0"
         style="fill:#ffffff;fill-opacity:1;fill-rule:nonzero;stroke:none"
         id="path168"
         inkscape:connector-curvature="0" />
    </g>
    <g
       id="g170"
       transform="matrix(0.07599292,0,0,-0.07599292,-1056.5338,1281.8784)">
      <path
         d="m 16299.4,15498.6 c 0.5,5.3 0.6,11.7 0,0 v 0"
         style="fill:#ffffff;fill-opacity:1;fill-rule:nonzero;stroke:none"
         id="path172"
         inkscape:connector-curvature="0" />
    </g>
    <g
       id="g174"
       transform="matrix(0.07724422,0,0,-0.07724422,-1056.5338,1281.8784)">
      <path
         d="m 16293.4,14164.7 c 0,8.8 0,17.6 0,26.3 0,188.1 0,376.3 0,564.4 0,51.6 0.2,103.2 0.4,154.9 0,4.1 0,8.2 0,12.3 0.1,21.6 0.2,43.2 0.2,64.8 0.1,12.9 0.1,25.9 0.1,38.8 0.1,34.6 0.1,69.2 -0.1,103.7 -0.1,32.1 -0.3,64.1 -0.6,96.1 0,1 0,1.9 0,2.9 -0.1,6.2 -0.6,12.3 -0.8,18.4 -0.1,0.1 -0.1,0.2 -0.2,0.3 -1.2,3.8 -1.6,7.9 -2.6,11.7 -2,7.8 -12.2,31.9 -3.4,14 -4,8.2 -8,16.2 -12.8,24 -1.3,2.3 -7.8,10.9 -9.5,13.8 -1.5,1.5 -2.8,2.9 -3.4,3.5 -2.7,2.8 -5.3,5.6 -8.1,8.3 -1.4,1.4 -2.9,2.6 -4.3,3.9 0.2,-0.5 -1.2,0.6 -6.1,5.5 -6.6,4 -13,8.4 -19.8,12.1 -3,1.5 -5.9,3 -8.9,4.4 0,0 -0.1,0 -0.1,0.1 -8.9,2.1 -17.8,5.3 -26.7,7.6 -1.5,0.4 -2.6,0.7 -3.5,0.9 -3.6,0.3 -7.2,0.6 -10.8,0.7 -8.3,0.3 -16.5,0 -24.8,-0.4 0,0 -0.1,0 -0.2,0 -3.3,-0.7 -6.6,-1.3 -9.8,-2.1 -8.3,-2 -16.3,-5 -24.4,-7.4 -0.2,-0.1 -0.3,-0.2 -0.4,-0.2 -4.7,-2.5 -9.3,-4.8 -13.7,-7.5 -5,-2.9 -9.7,-6.1 -14.4,-9.3 7.3,4.8 -8.3,-7.5 -11.9,-11 -3.6,-3.6 -11.4,-13.2 -11.7,-13 -4.5,-6.5 -8.7,-13.1 -12.4,-20 -4.1,-7.6 -7.7,-20.9 -3.2,-5.3 -2.6,-8.8 -5.9,-17.4 -8.1,-26.4 -0.7,-3.3 -1.3,-6.6 -2.1,-9.9 0,0 0,-0.1 0,-0.2 -0.1,-4.4 -0.3,-8.8 -0.4,-13.1 -0.1,-6.9 -0.2,-13.7 -0.2,-20.5 0,-4.2 0,-8.4 0,-12.6 0,-23.5 0,-47 0,-70.6 0,-34.5 0,-69.1 0,-103.7 0,-97.2 0,-194.4 0,-291.7 0,-190 2.8,-380.3 0.1,-570.3 -0.1,-5.1 -0.1,-10 -0.1,-15 -0.9,-54.4 -43.8,-94.7 -97,-97 -51.5,-2.3 -97.2,45.5 -97.1,95.9 0,0.3 0,0.7 0,1.1 0.1,5.9 0.1,11.8 0.2,17.6 0.4,215.5 0,431 0,646.5 0,96.5 0,193 0,289.5 0,34.6 0,69.2 0,103.7 0,7.9 0,15.7 0,23.6 0,26.7 0,53.4 0,80.1 0,64.9 0,129.8 0,194.7 0,7.2 0,14.3 0,21.5 -0.1,5 -0.2,9.9 -0.4,14.8 -0.2,2.9 -1.1,8.1 -1.7,10.7 -0.5,2.4 -0.3,1.9 0,0 0.4,-1.5 0.9,-4.1 1.9,-8.3 -1.2,5.2 -2.1,10.4 -3.5,15.6 -1.3,5.1 -3.2,10.1 -4.4,15.2 -0.3,0.8 -0.5,1.6 -0.6,2.3 -6.8,9.5 -11.8,20.4 -18,30.5 0.3,-1.8 -13.6,14.7 -17,18.2 -1.6,1.7 -5,4.5 -7.1,6.3 -2.3,1.5 -4.6,3.2 -6.9,4.6 -5.5,3.5 -11.3,6.4 -16.8,9.7 -1.4,0.8 -3.5,1.7 -5.4,2.5 -9.9,3.1 -19.8,5.5 -29.7,8.1 -1,0.3 -2.2,0.6 -3.6,1 -6.7,0.1 -13.5,0.6 -20.3,0.5 -4.5,-0.1 -8.9,-0.4 -13.4,-0.7 -1.8,-0.3 -3.8,-0.6 -5.1,-1 -6.3,-2 -12.8,-3.2 -19.1,-5.2 -2.7,-0.8 -8.1,-3.1 -10.4,-4 -8.9,-4.6 -17.4,-9.9 -26,-15.1 -0.6,-0.4 -1,-0.6 -1.5,-0.9 -0.1,-0.2 -0.1,-0.3 -0.3,-0.6 -3.3,-4.8 -9.9,-9 -14,-13.3 -1.4,-1.3 -2.6,-2.8 -3.9,-4.3 0.5,0.3 -0.7,-1.2 -5.5,-6.1 -5.2,-8.6 -10.2,-17 -14.9,-25.7 1.3,2 -4.5,-11.3 -5.4,-14.4 -1.4,-5 -2.4,-10.3 -3.9,-15.4 -0.3,-1 -0.6,-1.8 -0.9,-2.6 -0.2,-6.7 -0.8,-13.3 -0.9,-20 0,-0.9 0,-1.8 0,-2.6 0,-21.6 0,-43.1 0,-64.6 0,-16.1 0,-32.1 0,-48.2 0,-34.9 0,-69.8 0,-104.7 0,-34.6 0,-69.2 0,-103.7 0,-151.3 0,-302.5 0,-453.8 0,-198.8 1,-397.6 0,-596.3 0.1,-3.2 0.1,-6.5 0.3,-9.7 0,-0.4 0,-0.7 0,-1.1 2.2,-54.3 -46.2,-94.7 -97,-97 -53.8,-2.4 -94.9,46.4 -97,97 0,1.1 0,2.1 0,3.1 -0.2,2.2 -0.3,4.5 -0.3,6.8 0,0.5 0,1 0,1.6 0,3.6 0,7.3 0,11 0,0.1 0,0.2 0,0.3 0.1,223.8 0,447.5 0,671.3 0,0.5 0,1 0,1.5 0,139.2 0,278.3 0,417.5 0,32.7 0,65.4 0,98.1 0,33.3 0,66.5 0,99.8 0,20.7 0,41.4 0,62.1 0,34.8 0,69.7 0,104.5 0,18.6 0.3,37.1 0,55.7 0,3 0,5.5 -0.1,9 -0.1,2 -0.3,4.1 -0.4,6.1 -0.2,-0.8 -2.3,13 -3.1,16 -1.3,5.1 -3.3,10.1 -4.5,15.2 -0.3,1.3 -0.6,2.4 -0.8,3.3 -0.5,0.7 -0.9,1.5 -1.4,2.5 -5.5,9.4 -12.1,18.8 -17.2,28.4 -2.6,2.9 -5.2,5.9 -7.9,8.7 -3.5,3.7 -7.5,7 -11.1,10.8 -1,1 -1.8,1.9 -2.4,2.6 -0.7,0.4 -1.4,0.8 -2.3,1.4 -4.4,2.7 -8.6,5.6 -13.1,8.3 -5.3,3.1 -11.9,5.4 -17,8.9 -0.7,0.2 -1.5,0.5 -2.5,0.7 -5.1,1.5 -10.1,3.2 -15.2,4.5 -2.8,0.7 -14.9,2.5 -15.9,3 -11.3,0.4 -22.6,0.1 -34.1,-0.3 -0.8,-0.2 -1.8,-0.5 -2.9,-0.8 -5.2,-1.4 -10.4,-2.5 -15.4,-4 -3.2,-0.9 -18.3,-7.3 -14.3,-5.1 -2,-1 -4.1,-2 -6,-3.1 -6.9,-3.7 -13.2,-8 -19.8,-12.1 -3.8,-3.7 -5.5,-5.2 -6,-5.5 -3.4,-3 -6.8,-6 -9.9,-9.3 -1.9,-1.9 -9.3,-11.2 -10.2,-11.8 -5.3,-8.3 -9.9,-16.8 -14.8,-25.3 -0.1,-0.1 -0.1,-0.2 -0.2,-0.4 -1.5,-5.1 -2.3,-7.2 -2.5,-7.5 -1.1,-3.1 -2.1,-6.2 -3,-9.3 -1.8,-6.4 -3,-12.9 -4.5,-19.4 0.9,4 1.5,6.6 1.8,8.1 0.4,2.1 0.6,2.7 0,0 -0.5,-2.7 -1.4,-7.7 -1.6,-10.5 -1.1,-19.3 -0.4,-38.7 -0.4,-58 0,-75.1 0,-150.2 0,-225.3 0,-13.7 0,-27.5 0,-41.2 0,-37.1 0,-74.2 0,-111.3 0,-38.2 0,-76.3 0,-114.5 0,-100.2 0,-200.4 0,-300.6 0,-22.3 0,-44.6 0,-66.8 0,-203.9 0,-407.7 0,-611.6 0,-0.5 0,-1 -0.1,-1.5 -0.8,-53.6 -44.8,-93.1 -96.9,-95.5 -51.8,-2.3 -96,45.3 -96.9,95.4 0,0.6 0,1.1 0,1.6 v 0 c 0,8.2 0,16.3 0,24.5 0,1.2 0,2.3 0,3.5 0,218.8 0,437.6 0,656.4 0,46.9 0,93.8 0,140.6 0,0.6 0,1.2 0,1.8 0,42.3 -0.2,84.7 -0.3,127 -0.1,41.5 -0.2,83 -0.4,124.5 -0.3,64 -0.4,128 -0.5,192 -0.3,3.8 -0.6,7.2 -0.5,8.7 -0.5,1.8 -0.9,3.6 -1.1,4.4 -1.2,5.1 -2.6,10.2 -4.2,15.3 -1.2,3.7 -2.3,6.8 -2.9,8.3 -1.9,3.9 -3.9,7.8 -6,11.5 -2.6,4.5 -5.4,8.9 -8.1,13.3 -0.7,1 -2.5,3.4 -4.1,5.6 -4,4 -13.7,14.2 -15.6,16.1 -0.5,0.5 -1.6,1.4 -2.7,2.5 -3.1,2.1 -11,8.2 -11.3,8.4 -5.5,3.5 -11.2,6.5 -16.9,9.7 -1,0.5 -3.6,1.7 -6,2.8 -5.3,1.4 -19.5,5.9 -22.3,6.6 -0.7,0.2 -2.1,0.5 -3.7,0.9 -4,0.3 -14.1,1.6 -14.5,1.7 -9.5,0.3 -18.9,-0.1 -28.3,-0.8 12,0.7 -15.7,-4.1 -21.8,-6 -1.1,-0.4 -3.9,-1.4 -6.5,-2.2 -2.5,-1.1 -5.4,-2.4 -6.5,-3 -8.2,-4.6 -16.2,-9.3 -23.9,-14.5 3.3,1.9 -11.7,-10.5 -15.3,-14.2 -0.8,-0.9 -4.3,-4.7 -7,-7.7 -1.7,-2.2 -3.7,-4.8 -4.4,-5.9 -5,-8.1 -9.7,-16.2 -14,-24.7 2.6,4.6 -4.9,-14.6 -6.3,-19.9 -1.2,-4.5 -2,-9.1 -3,-13.7 0,-0.1 0,-0.1 0,-0.2 -0.3,-8.1 -0.6,-16.2 -0.6,-24.4 -0.1,-23.6 0,-47.2 0,-70.8 0,-112 0,-224 0,-336 0,-48.2 0,-96.4 0,-144.6 0,-50.1 0,-100.2 0,-150.4 0,-22.3 0,-44.6 0,-66.8 0,-5.5 -0.1,-10.9 -0.1,-16.3 0,-0.3 0.1,-0.5 0.1,-0.7 0.3,-59.8 0,-119.6 0,-179.3 0,-95.7 0,-191.3 0,-286.9 0,-1 0,-1.9 0,-2.8 0,-0.5 0,-1 0,-1.6 0,-0.1 0,-0.2 0,-0.3 0,-107.7 0,-215.4 0,-323.1 178.8,-31.7 360.6,-82.1 458.2,-250.4 51.5,-88.6 -85.7,-168.4 -137,-80.1 -6.4,11 -13.1,21.9 -20.7,32.2 1,-1.6 -11.4,13 -14.1,15.8 -7.9,8.5 -16.4,16.3 -25,23.9 -0.6,0.5 -4.3,3.6 -6.6,5.4 -2.9,2.1 -9.8,7.1 -10.8,7.8 -17.9,12.1 -36.9,22.8 -56.5,32.2 -4.7,2.2 -9.4,4.4 -14.1,6.5 -1.1,0.4 -1.7,0.7 -2,0.9 -0.9,0.3 -2.2,0.7 -4.2,1.5 -9.8,3.5 -19.6,7.2 -29.5,10.5 -87,28.8 -178.3,41 -268.4,55.4 -35.1,5.7 -57,42.8 -57.8,76.8 -1.7,5 -3.1,10.1 -4.1,15.2 -0.9,5.3 -1.4,10.6 -1.4,15.9 0,122 0,244 0,366 0,89.6 0,179.2 0,268.8 0,15.2 0,30.5 0,45.7 0,43.3 0.5,86.7 0.1,130 0,5.7 0,11.4 -0.1,17.1 0,0.2 0,0.4 0,0.6 -0.1,6.1 -0.4,12.3 -0.9,18.3 -0.2,1.6 -0.5,3.3 -0.9,4.5 -2.3,7.4 -4.4,15.3 -6.4,22.9 -0.3,1.3 -0.5,2.4 -0.7,3.4 -0.5,0.6 -0.9,1.4 -1.4,2.4 -2.6,4.5 -4.8,9.2 -7.5,13.7 -2.6,4.4 -5.4,8.7 -8.3,12.9 -1.6,2.1 -4.8,6 -6.6,7.7 -2.5,2.3 -4.9,4.6 -7.3,7 -1.9,1.8 -3.8,3.6 -5.7,5.4 -1.6,1.2 -9.5,7.9 -12,9.4 -4.3,2.8 -8.8,5.4 -13.4,7.9 -2.7,1.5 -13.4,5.5 -14.3,6.1 -7.7,2.3 -15.3,4.2 -23.1,6.2 11.2,-2.9 -7.8,1.3 -12.6,1.5 -6.9,0.3 -13.7,0.1 -20.6,-0.2 -3.1,-0.2 -5.2,-0.3 -6.8,-0.3 -0.8,-0.3 -1.9,-0.6 -3.5,-1.1 -7.4,-2.3 -15.4,-4.5 -22.9,-6.4 -1,-0.2 -2.4,-0.7 -3.7,-1.3 -5.3,-2.6 -10.6,-5.3 -15.8,-8.3 -5.4,-3.2 -10.5,-7.6 -16.1,-10.5 -0.5,-0.5 -1,-1.1 -1.7,-1.8 -5.3,-5.6 -11,-11 -16.4,-16.4 -0.7,-0.7 -1.4,-1.4 -2,-2 -5.1,-7.3 -9.9,-14.8 -14.2,-22.6 -0.1,-0.3 -3.2,-7.3 -5.1,-11.3 -1.4,-4.1 -3,-8.9 -3,-9 -1.4,-4.4 -2.3,-8.9 -3.2,-13.4 0,-0.7 -0.5,-3.1 -2,-8.4 -0.1,-7.4 -0.5,-8.6 -0.6,-16.2 0,-0.6 0,-1.2 0,-1.8 -0.5,-36.7 0,-73.4 0,-110 0,-47 0,-94 0,-141.1 0,-74.4 0,-148.8 0,-223.2 0,-37.3 0,-74.7 0,-112.1 0,-68.6 0,-137.2 0,-205.8 0,-30.9 -1.4,-62.5 0.8,-93.4 l 0.4,0.1 c 0.2,-3.2 0.3,-6.3 0.4,-9.4 0.2,-2.2 0.4,-4.5 0.6,-6.7 0.5,-4.1 0.6,-8.2 0.4,-12.2 1,-16.3 2.1,-32.6 3.7,-48.9 1.1,-12.3 2.6,-24.6 3.9,-37 0.1,-0.9 0.2,-1.7 0.3,-2.5 0,0 0,-0.1 0,-0.1 1.1,-6.6 2,-13.3 3,-20 7.9,-49.3 18.5,-98.2 32.3,-146.2 7.3,-25.5 15.4,-50.9 24.5,-75.9 3.8,-10.6 7.8,-21.1 11.9,-31.5 0.1,-0.2 1.2,-3 2.4,-6 1.6,-3.5 4.9,-11.3 5,-11.8 18.7,-42 40,-82.8 63.9,-122 13,-21.3 26.7,-42 41.1,-62.3 4.7,-6.5 9.5,-13 14.3,-19.4 -4.6,6.4 12.7,-16.1 15.6,-19.6 28.1,-34 58.5,-66.2 90.9,-96.3 17.8,-16.6 36.2,-32.5 55.1,-47.8 3.1,-2.4 6.2,-4.9 9.3,-7.4 0.4,-0.2 0.8,-0.5 1.2,-0.8 9.4,-6.9 18.7,-13.8 28.2,-20.4 36.3,-25.3 74.2,-48.4 113.3,-69 21.8,-11.6 44,-22.3 66.6,-32.4 3.8,-1.7 7.6,-3.4 11.5,-5 0.4,-0.2 0.7,-0.3 1.2,-0.5 11.1,-4.3 22.1,-8.8 33.3,-12.9 42.9,-15.9 86.7,-29.2 131.1,-40.1 25,-6.2 50.2,-11.5 75.5,-16.1 10.9,-2 21.9,-3.8 32.9,-5.5 5.5,-0.9 10.9,-1.6 16.4,-2.5 0.7,0 1.4,-0.1 2.3,-0.2 100.5,-10.5 200.5,-12.5 301.3,-3.5 23,2.3 49.8,6.3 81.8,13 30.1,6.3 59.9,13.9 89.4,22.3 26.5,7.7 52.8,16 78.8,25.4 11.2,4 22.3,8.2 33.5,12.6 1.3,0.5 10.7,4.4 14.5,5.9 1.7,0.7 3.2,1.4 3.5,1.5 45.9,20.6 90.6,43.8 133.3,70.5 21.3,13.3 42,27.4 62.1,42.2 1.9,1.4 10.2,7.8 10.5,8 1.5,1.2 3.2,2.6 4.8,3.9 10.3,8.3 20.5,16.9 30.4,25.7 33.3,29.4 64.4,61.2 92.9,95.2 2.7,3.2 16.6,20.6 15.8,19.3 5.3,7.1 10.6,14.3 15.7,21.6 13.2,18.9 25.7,38.3 37.5,58.1 12.7,21.4 24.5,43.3 35.5,65.6 5.2,10.4 10.1,20.9 14.9,31.4 2.5,5.6 5,11.1 7.3,16.7 0.6,1.6 1.4,3.4 2.4,5.9 18.1,46.4 33.8,93.6 46.7,141.8 13,48.2 23.5,97.2 32,146.5 9.7,56.1 12.1,76.3 17.7,132.5 10,100.4 14.4,201.3 17.6,302.1 1.2,38.4 2.1,76.9 2.7,115.4 -4.2,10.6 -6.5,21.9 -6.6,33.3 0,0.2 0,0.3 0,0.5"
         style="fill:#ffffff;fill-opacity:1;fill-rule:nonzero;stroke:none"
         id="path176"
         inkscape:connector-curvature="0" />
    </g>
    <g
       id="g178"
       transform="matrix(0.0693935,0,0,-0.0693935,-1056.5338,1281.8784)">
      <path
         d="m 15833.5,16298.3 c 0.2,0.5 0.3,1 0.5,1.5 0,0.1 0,0.1 0,0.2 -0.2,-0.6 -0.3,-1.2 -0.5,-1.7"
         style="fill:#ffffff;fill-opacity:1;fill-rule:nonzero;stroke:none"
         id="path180"
         inkscape:connector-curvature="0" />
    </g>
    <g
       id="g182"
       transform="matrix(0.06943866,0,0,-0.06943866,-1056.5338,1281.8784)">
      <path
         d="m 15823.7,16289.6 c 0,-0.1 0,-0.1 0,-0.2 0.8,3 1.5,6.1 2.2,9.2 -0.1,1.4 -2.1,-4.5 -2.2,-9"
         style="fill:#ffffff;fill-opacity:1;fill-rule:nonzero;stroke:none"
         id="path184"
         inkscape:connector-curvature="0" />
    </g>
    <g
       id="g186"
       transform="matrix(0.06988316,0,0,-0.06988316,-1056.5338,1281.8784)">
      <path
         d="m 15810.3,16300 c -4,-1.7 -7.1,-3.4 0,0 v 0"
         style="fill:#ffffff;fill-opacity:1;fill-rule:nonzero;stroke:none"
         id="path188"
         inkscape:connector-curvature="0" />
    </g>
    <g
       id="g190"
       transform="matrix(0.06938398,0,0,-0.06938398,-1056.5338,1281.8784)">
      <path
         d="m 16123.2,16300 c 0.1,-0.9 0,-0.8 0,0 v 0"
         style="fill:#ffffff;fill-opacity:1;fill-rule:nonzero;stroke:none"
         id="path192"
         inkscape:connector-curvature="0" />
    </g>
    <g
       id="g194"
       transform="matrix(0.07439095,0,0,-0.07439095,-1056.5338,1281.8784)">
      <path
         d="m 16299.1,16257 c 0.9,0.1 0.8,0.1 0,0 v 0"
         style="fill:#ffffff;fill-opacity:1;fill-rule:nonzero;stroke:none"
         id="path196"
         inkscape:connector-curvature="0" />
    </g>
    <g
       id="g198"
       transform="matrix(0.07459839,0,0,-0.07459839,-1056.5338,1281.8784)">
      <path
         d="m 16285.7,16211.6 c -0.1,0 -0.1,0 -0.2,0 1.2,-0.4 2.4,-0.7 3.7,-1 10.8,-2.7 2.2,0.8 -3.5,1"
         style="fill:#ffffff;fill-opacity:1;fill-rule:nonzero;stroke:none"
         id="path200"
         inkscape:connector-curvature="0" />
    </g>
    <g
       id="g202"
       transform="matrix(0.07467847,0,0,-0.07467847,-1056.5338,1281.8784)">
      <path
         d="m 16300,16185.7 c -3.7,1.4 -5.7,2 0,0 v 0"
         style="fill:#ffffff;fill-opacity:1;fill-rule:nonzero;stroke:none"
         id="path204"
         inkscape:connector-curvature="0" />
    </g>
    <g
       id="g206"
       transform="matrix(0.07399126,0,0,-0.07399126,-1056.5338,1281.8784)">
      <path
         d="m 16294.6,16292 c 1.8,2 3.6,4 5.4,6.1 -0.6,-0.4 -3.7,-3.4 -5.4,-6.1"
         style="fill:#ffffff;fill-opacity:1;fill-rule:nonzero;stroke:none"
         id="path208"
         inkscape:connector-curvature="0" />
    </g>
    <g
       id="g210"
       transform="matrix(0.07396656,0,0,-0.07396656,-1056.5338,1281.8784)">
      <path
         d="m 16300,16297.5 c -0.5,-0.5 -0.9,-1 -1.3,-1.5 0.3,0.4 0.7,0.8 1.1,1.1 0,0.1 0,0.1 0,0.1 0.1,0.1 0.1,0.2 0.2,0.3"
         style="fill:#ffffff;fill-opacity:1;fill-rule:nonzero;stroke:none"
         id="path212"
         inkscape:connector-curvature="0" />
    </g>
    <g
       id="g214"
       transform="matrix(0.07453206,0,0,-0.07453206,-1056.5338,1281.8784)">
      <path
         d="m 16298.5,16226.4 c 0.5,-0.1 1,-0.2 1.5,-0.4 0,0 0,0 0,0 -0.5,0.2 -1,0.3 -1.5,0.4"
         style="fill:#ffffff;fill-opacity:1;fill-rule:nonzero;stroke:none"
         id="path216"
         inkscape:connector-curvature="0" />
    </g>
    <g
       id="g218"
       transform="matrix(0.08370323,0,0,-0.08370323,-1056.5338,1281.8784)">
      <path
         d="m 16069.2,12992.4 c -2.1,-24.9 -4.6,-49.7 -7.5,-74.6 -0.5,-3.7 -0.9,-7.5 -1.3,-11.4 -0.1,-1 -0.5,-3.1 -1,-7 -2.2,-14.6 -4.3,-29.4 -6.7,-44 -8.7,-53.4 -19.4,-106.4 -32.2,-158.9 -25.3,-103.6 -59,-204.8 -99.3,-303.5 -0.3,-0.8 -0.8,-2.1 -1.2,-3.3 -1.9,-4.4 -4,-8.7 -5.9,-13.1 -4.8,-11 -9.7,-21.9 -14.7,-32.7 -11,-23.9 -22.5,-47.6 -34.3,-71.1 -23.8,-46.8 -49.2,-92.6 -76.4,-137.5 -27.1,-44.7 -55.8,-88.3 -86.2,-130.9 -12.4,-17.4 -25.3,-34.6 -38.2,-51.7 -2.2,-2.9 -5.1,-6.7 -6.2,-8.1 -4.4,-5.6 -8.8,-11.1 -13.3,-16.6 -8.9,-11.1 -17.9,-22.1 -27,-33 -65.3,-77.9 -136.4,-151.1 -212.3,-218.8 -19.4,-17.4 -39.2,-34.3 -59.2,-50.9 -9.2,-7.5 -18.4,-15 -27.6,-22.4 -4.6,-3.7 -9.3,-7.3 -13.9,-11 -1.2,-0.9 -2.2,-1.7 -3.1,-2.5 -0.7,-0.4 -1.5,-1.1 -2.5,-1.8 -41.8,-31.3 -84.2,-61.6 -128,-90 -86,-55.8 -176.1,-105.2 -269.4,-147.8 -12,-5.4 -24.1,-10.7 -36.1,-16.1 -1.1,-0.4 -2.5,-1.1 -4,-1.7 -5.3,-2.3 -10.6,-4.4 -15.9,-6.5 -24.5,-10 -49.2,-19.5 -74.2,-28.6 -50.1,-18.1 -100.9,-34.4 -152.2,-48.6 -51.8,-14.4 -104.3,-26.8 -157.1,-37.1 -24.2,-4.8 -48.5,-9 -72.8,-12.9 -12.3,-1.9 -24.5,-3.7 -36.7,-5.5 -0.5,0 -0.8,-0.1 -1.1,-0.2 -0.8,-0.1 -1.6,-0.1 -2.6,-0.2 -7.4,-0.9 -14.8,-1.9 -22.2,-2.7 -110.4,-12.8 -221.8,-16.6 -332.8,-11.9 -55.1,2.4 -110.1,6.9 -164.9,13.6 -2.1,0.3 -13.5,2.4 -14.7,1.9 -1.2,0.2 -2.4,0.4 -3.7,0.5 -12.2,1.8 -24.4,3.7 -36.7,5.7 -28,4.5 -55.8,9.6 -83.6,15.3 -103.6,21.2 -205.6,50.4 -304.8,87.1 -22.6,8.4 -45,17.1 -67.3,26.3 -1,0.4 -2.9,1.1 -5.1,2 0.6,-0.3 1.2,-0.5 1.9,-0.7 -6.7,2.5 -13.3,5.7 -19.8,8.6 -13.2,5.7 -26.3,11.6 -39.3,17.7 -46.6,21.6 -92.4,45 -137.2,70 -44.7,24.9 -88.4,51.5 -131.1,79.6 -21.8,14.3 -43.3,29.1 -64.6,44.2 -9.7,7 -19.2,13.9 -28.7,21 -4.8,3.5 -9.6,7 -14.3,10.6 -2.1,1.5 -8.2,6.3 -11.7,9 -79.8,62.7 -155.4,130.8 -225.5,204.3 -34.3,36 -67.3,73.1 -99,111.4 -9,11 -17.9,22 -26.8,33.1 -2.9,3.7 -5.8,7.5 -8.8,11.2 -0.2,0.3 -0.4,0.6 -0.6,0.9 -0.5,0.5 -0.9,1.2 -1.4,1.8 -15.7,20.9 -31.2,41.9 -46.2,63.2 -60.2,85.6 -114,175.8 -160.7,269.5 -10.7,21.4 -21,43 -30.9,64.8 -5,10.9 -9.9,21.8 -14.7,32.8 -0.5,1.1 -1.5,3.4 -2.6,5.8 -2.4,5.8 -4.7,11.6 -7.1,17.4 -20,49.1 -38.1,99.1 -54.3,149.6 -32.8,102.6 -57.5,207.7 -74,314 -1.9,12.1 -3.9,24.3 -5.3,36.5 -0.8,7.2 -1.9,16.4 -2.2,18.8 -3.1,27.3 -5.8,54.7 -7.8,82.1 -4,53 -5.9,106.2 -6,159.3 0.1,55.7 2.2,111.3 6.6,166.8 2.2,27.4 4.9,54.8 8.1,82.1 0.6,4.9 1.2,9.9 1.8,14.8 0.1,1.1 0.2,2 0.4,2.8 0,0.3 0,0.5 0,0.8 2.2,14.7 4.3,29.4 6.7,44.1 17.1,104.9 42.2,208.6 75.1,309.7 16,49.3 33.9,98 53.6,145.9 0.5,1.2 1.4,3.6 2.3,6.1 -0.3,-0.9 -0.6,-1.8 -1,-2.8 1.7,4.4 3.8,8.9 5.7,13.2 5.7,13.2 11.6,26.3 17.7,39.4 11,23.9 22.4,47.6 34.3,71 46.8,92.3 100.5,181.1 160.4,265.5 12.7,17.8 25.7,35.3 38.8,52.7 0,-0.3 14.1,18.1 16.6,21.2 8.8,11.1 17.8,22.1 26.9,33 33.3,40 68.1,78.7 104.3,116.2 36.1,37.4 73.7,73.4 112.5,108.1 17.7,15.7 35.6,31.2 53.8,46.3 10,8.3 20.1,16.6 30.2,24.7 4.7,3.7 9.3,7.4 13.9,11 2,1.6 4,3.1 5.9,4.7 0.8,0.5 1.6,1.1 2.5,1.8 81.9,61.3 166.9,117.6 256.6,167 46,25.4 93,49 140.8,70.8 10.9,5 21.9,9.9 32.9,14.7 1,0.4 3.1,1.4 5.4,2.4 3.7,1.6 7.4,3 11,4.5 26.8,11 53.7,21.4 80.9,31.3 98.4,35.7 199.4,63.9 302,84.3 26.6,5.3 53.4,10.1 80.2,14.3 12.1,2 24.2,3.7 36.3,5.5 0.1,0 0.2,0 0.3,0 8.6,1 17.3,2.2 25.9,3.2 54.9,6.3 110.1,10.4 165.2,12.4 108.5,3.9 217.3,-0.5 325.1,-13.3 5.5,-0.7 11.1,-1.1 16.6,-1.9 2,-0.3 4.1,-0.7 5.5,-0.9 13.5,-1.9 27,-4 40.4,-6.1 26.8,-4.4 53.4,-9.3 80,-14.6 52.7,-10.7 105,-23.4 156.7,-38.2 50,-14.3 99.5,-30.4 148.3,-48.4 23.8,-8.8 47.3,-18 70.7,-27.6 1.1,-0.4 3.4,-1.3 5.8,-2.2 -0.8,0.3 -1.6,0.6 -2.6,1 4.5,-1.7 9,-3.9 13.3,-5.7 13.2,-5.8 26.3,-11.7 39.3,-17.7 95.3,-43.8 187.2,-94.9 274.9,-152.6 19.8,-13 39.4,-26.4 58.7,-40.1 10.7,-7.5 21.2,-15.2 31.8,-22.9 4.7,-3.5 9.4,-7.1 14.2,-10.6 2.3,-1.8 11.8,-9.1 15.4,-11.8 36.7,-28.9 72.7,-58.8 107.5,-90.1 77.5,-69.5 149.7,-144.8 216.1,-225 7.5,-9.1 15,-18.3 22.4,-27.5 4.1,-5.2 8.2,-10.4 12.3,-15.6 16.7,-22.1 33.2,-44.4 49.2,-67 29.3,-41.8 57.1,-84.7 83.4,-128.5 26.3,-43.9 51,-88.9 74.1,-134.7 11.8,-23.5 23.1,-47.2 34,-71.1 5.1,-10.9 9.9,-21.9 14.7,-32.9 0.1,-0.3 1,-2.3 2,-4.6 1.1,-2.7 7,-16.8 7.7,-18.5 39.7,-97.7 72,-198.3 96.4,-300.8 12.2,-51.5 22.5,-103.4 30.8,-155.6 2,-12.8 3.9,-25.7 5.7,-38.6 0.1,-0.5 0.2,-1.1 0.3,-1.7 0.8,-7.4 1.8,-14.8 2.6,-22.2 3.2,-27.4 5.8,-54.8 7.8,-82.2 8.4,-111 8,-222.6 -1.1,-333.6 z m -111.9,1304.3 c -226.1,373.1 -565.5,678.7 -963.5,858.5 -422.9,191.1 -896.5,244.8 -1351.6,152.5 -431.4,-87.5 -833.6,-312.4 -1137.3,-630.7 -304.8,-319.6 -512.2,-731.8 -578.4,-1169 -17.2,-113.1 -27,-226.9 -27.2,-341.3 0.8,-448.7 139.5,-895 400.5,-1260.8 259.2,-363.3 621.6,-641.1 1040.8,-794.8 427.5,-156.8 907.1,-172 1344.8,-47.2 421.5,120.3 805.8,370.5 1084.1,709.4 287.4,350.1 461,778.5 495.8,1230.4 34.7,449.2 -74.5,907.6 -308,1293"
         style="fill:#0092f4;fill-opacity:1;fill-rule:nonzero;stroke:none"
         id="path220"
         inkscape:connector-curvature="0" />
    </g>
    <g
       id="g222"
       transform="matrix(0.07818085,0,0,-0.07818085,-1056.5338,1281.8784)">
      <path
         d="m 15569.8,15460.6 c -5.5,1.9 -3.5,1.4 0,0 z m 273.5,-395.7 c 0.5,11.4 0.5,5.1 0,0 z m 76.9,99.4 c 7.8,4.2 5.9,2.1 0,0 z m 31.9,9.3 c -5.2,-0.4 -11.5,-0.5 0,0 z m -443.1,295.3 c 0.8,0.1 0.8,0.1 0,0 z m -1007.4,-218.7 c 0.5,11.9 0.5,5.2 0,0 z m -192.7,-784.3 c 0.1,-0.7 0.1,-0.8 0,0 z m -176.6,104.1 c -6.3,-3 -3.6,-1.5 0,0 z m 1854.8,-1442.5 c -2.4,-5.5 -4.8,-11 -7.3,-16.4 -4.7,-10.5 -9.6,-20.8 -14.7,-31.1 -10.9,-22 -22.6,-43.7 -35.1,-64.8 -11.6,-19.6 -24,-38.8 -37.1,-57.4 -5,-7.2 -10.2,-14.3 -15.5,-21.4 0.8,1.3 -12.8,-15.9 -15.5,-19 -28.2,-33.6 -59,-65.1 -91.9,-94.1 -9.8,-8.7 -19.8,-17.2 -29.9,-25.4 -1.7,-1.3 -3.3,-2.6 -4.9,-3.9 -0.2,-0.1 -8.4,-6.4 -10.3,-7.8 -19.9,-14.7 -40.3,-28.6 -61.3,-41.7 -42.2,-26.4 -86.4,-49.3 -131.7,-69.7 -0.3,-0.1 -1.8,-0.8 -3.5,-1.4 -3.8,-1.6 -13.1,-5.4 -14.4,-5.9 -11,-4.3 -22,-8.5 -33.1,-12.5 -25.6,-9.2 -51.6,-17.4 -77.8,-25 -29.1,-8.4 -58.5,-15.9 -88.3,-22.1 -31.7,-6.7 -58.1,-10.6 -80.8,-12.8 -99.6,-8.9 -198.4,-7 -297.8,3.4 -0.8,0.1 -1.5,0.2 -2.2,0.3 -5.4,0.8 -10.8,1.5 -16.2,2.4 -10.8,1.7 -21.7,3.5 -32.5,5.5 -25,4.5 -49.9,9.8 -74.6,15.8 -43.9,10.8 -87.2,24 -129.5,39.7 -11.1,4 -22,8.4 -32.9,12.7 -0.5,0.2 -0.8,0.3 -1.3,0.5 -3.7,1.6 -7.5,3.3 -11.3,5 -22.3,9.9 -44.2,20.5 -65.8,31.9 -38.6,20.4 -76,43.2 -111.9,68.2 -9.4,6.6 -18.6,13.4 -27.9,20.1 -0.4,0.4 -0.8,0.6 -1.2,0.9 -3,2.4 -6.1,4.9 -9.2,7.3 -18.7,15.1 -36.9,30.8 -54.4,47.2 -32,29.8 -62,61.6 -89.8,95.2 -2.8,3.4 -20,25.7 -15.4,19.3 -4.8,6.4 -9.5,12.7 -14.1,19.2 -14.3,20 -27.8,40.5 -40.7,61.5 -23.6,38.8 -44.6,79.1 -63,120.6 -0.2,0.5 -3.5,8.2 -5,11.7 -1.2,2.9 -2.3,5.6 -2.4,5.9 -4.1,10.3 -8,20.7 -11.8,31.1 -8.9,24.7 -17,49.7 -24.2,75 -13.6,47.4 -24.1,95.7 -31.9,144.4 -1,6.6 -1.9,13.2 -2.9,19.8 0,0 0,0.1 0,0.1 -0.1,0.7 -0.2,1.5 -0.3,2.4 -1.3,12.3 -2.8,24.4 -3.9,36.6 -1.5,16.1 -2.7,32.2 -3.7,48.3 0.3,3.9 0.2,8 -0.3,12.1 -0.3,2.2 -0.4,4.4 -0.6,6.6 -0.2,3 -0.3,6.1 -0.4,9.3 l -0.5,-0.1 c -2.1,30.6 -0.7,61.7 -0.7,92.2 0,67.8 0,135.6 0,203.4 0,36.9 0,73.9 0,110.8 0,73.5 0,147 0,220.5 0,46.5 0,93 0,139.4 0,36.2 -0.5,72.5 0,108.6 0,0.6 0,1.2 0,1.8 0.1,7.5 0.4,8.7 0.6,16.1 -0.2,-0.5 -0.3,-0.9 -0.4,-1.4 0.1,0.5 0.2,1 0.4,1.5 0,0.1 0,0.1 0,0.1 0.1,4 1.9,9.3 1.9,8 1,4.5 1.9,9 3.2,13.3 0,0.1 1.6,4.8 3,8.9 1.8,4 4.9,10.9 5,11.1 4.3,7.8 9,15.2 14.1,22.4 0.6,0.6 1.2,1.2 1.9,2 5.4,5.3 11,10.6 16.2,16.1 0.7,0.7 1.2,1.3 1.7,1.9 5.5,2.8 10.5,7.2 15.9,10.3 5.1,3 10.3,5.6 15.6,8.2 1.3,0.6 2.6,1.1 3.7,1.3 7.4,1.9 15.3,4 22.6,6.3 1.6,0.5 2.6,0.8 3.5,1.2 1.5,0 3.7,0 6.7,0.2 6.7,0.3 13.5,0.5 20.3,0.2 4.7,-0.2 23.6,-4.3 12.4,-1.5 7.8,-1.9 15.3,-3.9 22.9,-6.1 0.9,-0.6 11.5,-4.6 14.1,-6 4.6,-2.5 9,-5.1 13.3,-7.8 2.4,-1.5 10.2,-8.2 11.8,-9.3 1.9,-1.8 3.8,-3.6 5.7,-5.4 2.3,-2.3 4.7,-4.6 7.1,-6.9 1.8,-1.7 5,-5.5 6.6,-7.6 2.9,-4.2 5.6,-8.4 8.2,-12.7 2.6,-4.5 4.8,-9.1 7.4,-13.6 0.5,-0.9 0.9,-1.7 1.4,-2.4 0.1,-0.9 0.4,-2 0.7,-3.3 1.9,-7.5 4,-15.3 6.3,-22.7 0.4,-1.1 0.7,-2.8 0.9,-4.3 0.4,-6 0.8,-12.1 0.9,-18.2 0,-0.2 0,-0.3 0,-0.5 0,-5.7 0,-11.3 0.1,-16.9 0.4,-42.8 -0.1,-85.7 -0.1,-128.5 0,-15 0,-30.1 0,-45.1 0,-88.6 0,-177.1 0,-265.6 0,-120.6 0,-241.1 0,-361.6 0,-5.3 0.5,-10.5 1.4,-15.7 0.9,-5.1 2.3,-10.2 4.1,-15 0.7,-33.7 22.3,-70.3 57,-75.9 89.1,-14.3 179.3,-26.3 265.2,-54.8 9.8,-3.2 19.4,-6.9 29.1,-10.4 2,-0.7 3.3,-1.2 4.2,-1.4 0.3,-0.2 0.9,-0.5 2,-0.9 4.6,-2.1 9.3,-4.2 13.9,-6.4 19.3,-9.3 38.1,-19.8 55.9,-31.9 0.9,-0.6 7.7,-5.6 10.6,-7.6 2.2,-1.9 5.9,-4.9 6.5,-5.4 8.6,-7.5 16.9,-15.2 24.7,-23.6 2.7,-2.7 14.9,-17.2 14,-15.7 7.5,-10.1 14.1,-20.8 20.4,-31.7 50.7,-87.2 186.2,-8.4 135.4,79.1 -96.5,166.3 -276.1,216.1 -452.8,247.4 0,106.4 0,212.8 0,319.3 0,0.1 0,0.2 0,0.3 0,0.5 0,1 0,1.5 0,0.9 0,1.8 0,2.7 0,94.5 0,189 0,283.5 0,59 0.4,118.1 0,177.2 0,0.2 0,0.4 0,0.6 0,5.4 0,10.8 0,16.1 0,22.1 0,44.1 0,66.1 0,49.6 0,99.1 0,148.6 0,47.6 0,95.3 0,142.9 0,110.6 0,221.3 0,331.9 0,23.4 -0.1,46.7 0,70 0,8.1 0.3,16 0.6,24.1 0,0.1 0,0.1 0,0.2 1,4.5 1.8,9.1 3,13.6 1.4,5.2 8.8,24.1 6.2,19.6 4.3,8.4 8.9,16.4 13.9,24.4 0.7,1 2.6,3.7 4.3,5.9 2.7,2.9 6.1,6.7 7,7.5 3.5,3.7 18.3,15.9 15,14.1 7.7,5.1 15.6,9.7 23.6,14.2 1.1,0.6 4,1.9 6.4,3 2.6,0.9 5.5,1.9 6.5,2.2 6,1.9 33.4,6.7 21.5,5.9 9.3,0.8 18.6,1.1 28,0.8 0.4,0 10.4,-1.4 14.3,-1.7 1.6,-0.3 3,-0.7 3.7,-0.8 2.8,-0.7 16.7,-5.1 22,-6.6 2.4,-1 5,-2.2 6,-2.8 5.6,-3.1 11.2,-6.1 16.6,-9.5 0.4,-0.2 8.1,-6.2 11.2,-8.3 1.1,-1 2.2,-2 2.7,-2.5 1.8,-1.9 11.4,-12 15.4,-15.9 1.6,-2.1 3.4,-4.5 4,-5.5 2.7,-4.4 5.5,-8.7 8,-13.1 2.1,-3.7 4.1,-7.5 6,-11.4 0.6,-1.5 1.7,-4.5 2.9,-8.3 1.5,-5 2.9,-10 4.1,-15.1 0.2,-0.8 0.6,-2.5 1,-4.3 0,-1.4 0.3,-4.8 0.6,-8.6 0,-63.2 0.2,-126.4 0.4,-189.7 0.2,-41 0.4,-82 0.5,-123 0.1,-41.8 0.2,-83.6 0.2,-125.5 0,-0.5 0,-1.1 0,-1.7 0,-46.3 0,-92.6 0,-138.9 0,-216.2 0,-432.4 0,-648.6 0,-1.2 0,-2.3 0,-3.5 0,-8.1 0,-16.1 0,-24.1 v 0 c 0,-0.6 0,-1.1 0.1,-1.6 0,-3.1 0.2,-6.2 0.6,-9.3 0.4,-3 0.9,-6 1.6,-9.1 0.4,-1.5 0.7,-2.9 1.1,-4.4 11.4,-40.2 49.2,-73.4 92.4,-71.5 51.5,2.3 94.9,41.4 95.8,94.3 0,0.5 0.1,1 0.1,1.6 0,201.4 0,402.7 0,604.2 0,22 0,44 0,66 0,99 0,198 0,297 0,37.7 0,75.4 0,113.2 0,36.6 0,73.3 0,109.9 0,13.6 0,27.1 0,40.7 0,74.2 0,148.4 0,222.6 0,19 -0.7,38.3 0.3,57.3 0.2,2.8 1.1,7.8 1.6,10.4 -0.3,-1.5 -0.9,-4 -1.8,-8 1.5,6.4 2.7,12.8 4.5,19.2 0.9,3.1 1.9,6.1 2.9,9.2 -0.3,-0.4 0.8,4.2 2.4,7.2 0.3,0.7 0.5,1.4 0.7,2.1 -0.2,-0.7 -0.4,-1.3 -0.6,-1.9 0.1,0.1 0.1,0.2 0.2,0.3 4.8,8.5 9.4,16.9 14.7,25 0.9,0.7 8.2,9.8 10,11.7 3.1,3.2 6.5,6.2 9.8,9.2 -0.9,-0.5 2.7,3.5 5.7,5.4 0.5,0.3 0.9,0.7 1.3,1.1 -0.4,-0.4 -0.8,-0.7 -1.1,-1.1 6.5,4 12.8,8.3 19.6,12 1.9,1.1 3.9,2.1 5.9,3 -4,-2.1 11,4.2 14.1,5.1 5,1.5 10.2,2.5 15.2,3.9 1.1,0.3 2.1,0.6 2.9,0.8 11.4,0.4 22.5,0.8 33.7,0.3 1,-0.5 13,-2.2 15.7,-2.9 5.1,-1.3 10,-3 15.1,-4.5 0.9,-0.2 1.7,-0.4 2.4,-0.6 5,-3.5 11.5,-5.8 16.8,-8.9 4.5,-2.6 8.6,-5.5 13,-8.2 0.8,-0.5 1.5,-1 2.2,-1.3 0.6,-0.8 1.4,-1.6 2.4,-2.7 3.5,-3.6 7.5,-6.9 11,-10.6 2.7,-2.8 5.2,-5.7 7.8,-8.6 5,-9.5 11.6,-18.7 16.9,-28.1 0.5,-0.9 1,-1.7 1.4,-2.4 0.2,-0.9 0.5,-2 0.8,-3.3 1.3,-5.1 3.2,-10 4.5,-15 0.7,-3 2.8,-16.6 3,-15.8 0.2,-2 0.3,-4 0.4,-6.1 0.1,-3.4 0.1,-5.9 0.1,-8.9 0.3,-18.3 0,-36.6 0,-54.9 0,-34.5 0,-68.9 0,-103.3 0,-20.5 0,-40.9 0,-61.4 0,-32.8 0,-65.7 0,-98.5 0,-32.3 0,-64.7 0,-97 0,-137.5 0,-275 0,-412.5 0,-0.5 0,-1 0,-1.5 0,-221.1 0.1,-442.1 0,-663.2 0,-0.1 0,-0.2 0,-0.3 0,-3.7 0,-7.3 0,-10.9 0,-0.6 0,-1.1 0,-1.6 0,-2.2 0.1,-4.5 0.3,-6.7 0,-1 0,-2 0,-3 2.1,-50 42.7,-98.2 95.9,-95.8 50.2,2.2 98,42.1 95.8,95.8 0,0.4 0,0.7 0,1 -0.2,3.2 -0.2,6.4 -0.3,9.6 1,196.4 0,392.8 0,589.2 0,149.4 0,298.9 0,448.3 0,34.2 0,68.3 0,102.5 0,34.5 0,69 0,103.5 0,15.8 0,31.7 0,47.6 0,21.2 0,42.5 0,63.8 0,0.8 0,1.7 0,2.6 0.1,6.6 0.7,13.1 0.9,19.7 0.3,0.8 0.6,1.6 0.9,2.6 1.5,5 2.4,10.2 3.9,15.2 0.9,3.1 6.6,16.2 5.3,14.2 4.6,8.7 9.5,16.9 14.7,25.4 -0.3,-0.3 -0.6,-0.6 -1,-1 0.4,0.4 0.8,0.9 1.3,1.4 1.6,2.5 4.5,5.4 5.1,5.7 1.3,1.4 2.5,2.9 3.8,4.2 4.1,4.2 10.7,8.4 13.9,13.2 0.2,0.2 0.2,0.4 0.4,0.6 0.5,0.3 0.8,0.5 1.4,0.8 8.5,5.2 16.9,10.4 25.7,15 2.2,0.9 7.6,3.1 10.2,3.9 6.2,2 12.7,3.2 18.9,5.1 1.3,0.4 3.3,0.8 5.1,1 4.4,0.3 8.8,0.6 13.2,0.7 6.7,0.1 13.4,-0.4 20.1,-0.5 -0.5,0.1 -0.9,0.2 -1.4,0.4 0.5,-0.2 0.9,-0.3 1.4,-0.4 0.1,0 0.2,0 0.2,0 5.5,-0.1 13.7,-3.5 3.3,-0.9 9.8,-2.6 19.6,-5 29.3,-8 2,-0.9 4,-1.7 5.4,-2.5 5.5,-3.3 11.2,-6.1 16.6,-9.6 2.3,-1.5 4.5,-3.1 6.8,-4.6 2.1,-1.8 5.5,-4.5 7.1,-6.2 3.2,-3.5 17.1,-19.8 16.7,-18 6.1,-10 11.1,-20.7 17.8,-30.1 0.2,-0.7 0.3,-1.5 0.6,-2.3 1.2,-5 3.1,-10 4.4,-15 1.3,-5.1 2.2,-10.3 3.4,-15.4 -1,4.2 -1.5,6.7 -1.8,8.2 0.5,-2.6 1.4,-7.7 1.6,-10.6 0.3,-4.9 0.3,-9.7 0.4,-14.6 0,-7.1 0,-14.2 0,-21.3 0,-64.1 0,-128.2 0,-192.3 0,-26.4 0,-52.8 0,-79.2 0,-7.7 0,-15.5 0,-23.3 0,-34.1 0,-68.3 0,-102.4 0,-95.4 0,-190.7 0,-286.1 0,-212.9 0.4,-425.8 0,-638.7 -0.1,-5.8 -0.1,-11.6 -0.1,-17.4 0,-0.4 0,-0.8 0,-1.1 -0.2,-49.7 45,-97 95.8,-94.8 52.6,2.4 95,42.1 95.8,95.9 0.1,4.9 0.1,9.8 0.2,14.8 2.7,187.7 -0.1,375.7 -0.1,563.5 0,96.1 0,192.1 0,288.2 0,34.2 0,68.3 0,102.5 0,23.2 0,46.5 0,69.7 0,4.2 0,8.3 0,12.4 0,6.8 0.1,13.5 0.2,20.3 0.1,4.3 0.2,8.6 0.4,13 0,0 0,0.1 0,0.2 0.7,3.2 1.3,6.5 2.1,9.7 2.1,8.9 5.4,17.4 8,26.1 -4.5,-15.4 -1,-2.3 3.1,5.3 3.7,6.8 7.8,13.3 12.2,19.7 0.3,-0.2 8.1,9.3 11.7,12.8 3.4,3.5 18.9,15.7 11.7,10.9 4.6,3.2 9.3,6.4 14.2,9.2 4.4,2.6 8.9,4.9 13.5,7.4 0.1,0 0.3,0.1 0.4,0.2 8,2.4 15.9,5.4 24.1,7.3 3.3,0.8 6.5,1.4 9.7,2.1 0.1,0 0.2,0 0.3,0 8.1,0.4 16.2,0.7 24.4,0.4 3.6,-0.1 7.1,-0.4 10.7,-0.7 0.9,-0.2 2,-0.5 3.5,-0.9 8.8,-2.3 17.5,-5.4 26.3,-7.5 0.1,-0.1 0.1,-0.1 0.1,-0.1 3,-1.4 5.9,-2.8 8.8,-4.4 6.8,-3.6 13,-7.9 19.6,-11.9 -0.4,0.3 -0.7,0.6 -1.1,1 0.4,-0.4 0.9,-0.8 1.4,-1.3 2.5,-1.6 5.3,-4.5 5.7,-5.1 1.4,-1.3 2.9,-2.5 4.3,-3.9 2.7,-2.6 5.3,-5.4 8,-8.2 0.6,-0.5 1.9,-2 3.3,-3.5 1.8,-2.8 8.1,-11.3 9.5,-13.6 4.7,-7.7 8.6,-15.6 12.6,-23.7 -8.7,17.7 1.4,-6.1 3.3,-13.8 1,-3.8 1.4,-7.9 2.6,-11.5 0.1,-0.2 0.1,-0.3 0.2,-0.4 0.2,-6 0.7,-12.1 0.8,-18.1 0,-1 0,-2 0,-3 0.3,-31.6 0.5,-63.2 0.6,-94.8 0.1,-34.2 0.1,-68.4 0.1,-102.5 -0.1,-12.8 -0.1,-25.6 -0.1,-38.4 0,-21.3 -0.1,-42.6 -0.2,-64 0,-4 0,-8.1 0,-12.1 -0.2,-51.1 -0.4,-102.1 -0.4,-153.1 0,-185.9 0,-371.7 0,-557.6 0,-8.7 0,-17.3 0,-26 0,-0.2 0,-0.3 0,-0.5 0.1,-11.3 2.4,-22.4 6.5,-32.9 -0.6,-38 -1.4,-76.1 -2.7,-114 -3.1,-99.6 -7.4,-199.3 -17.3,-298.5 -5.6,-55.5 -8,-75.4 -17.5,-130.9 -8.5,-48.7 -18.8,-97.1 -31.6,-144.8 -12.8,-47.6 -28.3,-94.2 -46.2,-140.1 -1,-2.4 -1.7,-4.2 -2.3,-5.8 z m 303,1641.8 c 0.1,90.1 0.1,180 -0.3,270 -0.5,151.8 -106.8,296.7 -261.7,320.9 -64.6,10.1 -128.1,2.6 -185.3,-22.2 -0.2,7.9 -0.4,15.9 -1.1,23.8 -12.2,133.3 -99.7,248.3 -230,286.6 -84.6,24.9 -171.6,11.4 -244.3,-30.1 -18,41.6 -44.7,79.4 -79.8,109.3 -106.7,90.8 -266.8,110 -385.6,28.9 -80.5,-55 -131.7,-138.4 -143.1,-233.4 -47.7,22 -100.7,32.3 -154.4,27.1 -113.9,-11.1 -218.1,-78.6 -265.3,-184.7 -21.4,-48.4 -29.9,-98.4 -29.9,-150.9 0,-157 0,-314 0,-471.1 -5.7,2.6 -11.5,5.1 -17.3,7.4 -142.3,55.7 -309.7,-7.9 -386.2,-138.1 -37.4,-63.7 -43.8,-132.3 -43.8,-203.6 0,-149.5 0,-299.1 0,-448.7 0,-87.8 0,-175.6 0,-263.4 0,-44.3 -2.9,-90.1 1.9,-134.3 0.2,-6.2 0.5,-12.3 0.8,-18.4 12.9,-213.6 70.6,-426.4 186.4,-607.8 223.1,-349.9 619.6,-533.2 1027.8,-539.2 51.7,-0.8 103.5,1.4 155.1,6 205.1,20.2 412.8,90.7 580.6,212.1 170.8,123.6 292,288.6 366.7,485.2 73.9,194.6 96.6,406.6 107,613.2 10.6,210.8 11.7,422.1 9.6,633.1 -1.4,140.8 -6.7,281.5 -7.8,422.3"
         style="fill:#0092f4;fill-opacity:1;fill-rule:nonzero;stroke:none"
         id="path224"
         inkscape:connector-curvature="0" />
    </g>
    <g
       id="g226"
       transform="matrix(0.07820589,0,0,-0.07820589,-1056.5338,1281.8784)">
      <path
         d="m 15019.6,15601 2.2,-4.1 c 1.3,0.9 2.4,3.3 1.4,5.6 z m -415.6,-243.7 c -0.9,-0.8 -1.7,-2.3 -1.4,-4.1 0.2,-1.4 1,-2.4 1.9,-3.1 z m -345.5,-2387.1 c 0.9,-0.8 1.8,-1.9 2.7,-3.1 l 5.8,-7.4 c 3.2,-4.2 6.5,-8.3 7.6,-9.6 27.5,-33.3 57.6,-65.2 89.3,-94.7 17.4,-16.2 35.6,-32 54.2,-47 2.6,-2.1 5.2,-4.1 7.8,-6.2 l 2.4,-1.8 6.1,-4.5 c 7.2,-5.2 14.4,-10.5 21.7,-15.6 35.3,-24.6 72.8,-47.5 111.4,-67.9 21.2,-11.1 43.2,-21.9 65.5,-31.8 3.2,-1.4 6.4,-2.8 9.7,-4.2 l 2.7,-1.2 6.7,-2.6 c 8.6,-3.4 17.3,-6.8 26,-10 41.6,-15.5 85,-28.7 129,-39.5 24.2,-6 49.2,-11.3 74.3,-15.8 10.8,-2 21.7,-3.8 32.4,-5.5 2.6,-0.4 5.3,-0.8 7.9,-1.1 2.7,-0.4 5.5,-0.8 8.3,-1.3 l 2,-0.2 c 103.5,-10.8 200.6,-12 296.7,-3.4 24.8,2.4 51.1,6.6 80.3,12.7 28.3,5.9 57.1,13.1 87.9,22 27.9,8.1 53.3,16.2 77.5,24.9 11.1,4 22.2,8.2 32.9,12.4 0.7,0.3 3,1.3 5.8,2.3 3.1,1.3 6.6,2.8 8.6,3.6 l 3.3,1.4 c 48.5,21.8 91.4,44.5 131.1,69.3 20.9,13.1 41.4,27 61,41.5 1,0.7 3.5,2.6 5.8,4.4 2.7,2 3.9,2.9 4.4,3.4 l 4.8,3.8 c 10.2,8.3 20.2,16.8 29.8,25.2 32.8,29 63.6,60.5 91.3,93.6 1.1,1.3 4,4.9 7,8.6 l 5.8,7.1 c 0.9,1.2 1.8,2.2 2.6,3.1 v 0 c 5.3,7.1 10.5,14.3 15.5,21.3 12.9,18.4 25.3,37.6 36.8,57 12.2,20.6 23.9,42.3 34.9,64.5 5.1,10.3 10,20.7 14.6,30.9 2.5,5.4 4.9,10.9 7.2,16.3 l 2.3,5.8 c 18,45.9 33.5,92.8 46.1,139.5 12.1,45.2 22.7,93.7 31.4,144.3 9.5,54.9 11.9,75 17.5,130.6 10.2,101.9 14.3,203.4 17.3,298 1.2,36 2,73 2.6,113 -4.2,11.1 -6.4,22.4 -6.4,33.7 v 0.6 583.4 c 0,51 0.1,102 0.3,153 l 0.1,12.1 c 0,21.4 0.1,42.7 0.2,64 0,12.8 0,25.6 0,38.3 0.1,34.2 0.1,68.4 0,102.5 -0.2,36.1 -0.3,66.2 -0.6,94.8 v 2.9 c -0.1,3.7 -0.3,7.4 -0.5,11 -0.1,2.1 -0.2,4.2 -0.3,6.3 -0.8,2.4 -1.2,4.8 -1.7,7.1 -0.3,1.6 -0.6,3.1 -1,4.5 -0.7,2.7 -2.5,7.9 -4.1,12.1 -1.4,3.8 -2.4,6.5 -2.7,8.5 -2.6,5.2 -5.4,10.6 -8.6,15.7 -0.7,1.1 -2.6,3.8 -4.6,6.6 -1.8,2.5 -3.6,5 -4.6,6.5 -1.2,1.3 -2.3,2.6 -2.8,3.1 -1.3,1.2 -2.4,2.4 -3.6,3.6 -1.5,1.5 -2.9,3.1 -4.4,4.5 -1.2,1.2 -2.4,2.2 -3.6,3.3 l -1.2,1 -0.4,0.7 c -0.2,0.2 -2.3,2.3 -4,3.5 l -0.4,0.2 c -2.2,1.3 -4.3,2.6 -6.4,4 -4.3,2.8 -8.5,5.4 -12.9,7.7 -2.6,1.5 -5.3,2.8 -8,4.1 -5,1.3 -9.9,2.8 -14.6,4.2 -3.9,1.2 -7.7,2.3 -11.6,3.3 l -3,0.8 c -3.4,0.3 -6.7,0.6 -10.1,0.7 -7.9,0.3 -16,-0.1 -23.8,-0.4 l -3.4,-0.7 c -1.9,-0.4 -3.9,-0.8 -5.8,-1.3 -5.3,-1.2 -10.3,-2.9 -15.7,-4.6 -2.6,-0.9 -5.1,-1.7 -7.8,-2.5 -1.6,-0.9 -3.2,-1.7 -4.8,-2.6 -2.8,-1.5 -5.7,-3 -8.5,-4.7 -4,-2.3 -7.8,-4.8 -11.3,-7.2 -1.3,-1.5 -3.5,-3.3 -6.6,-5.9 -2.7,-2.4 -5.9,-5 -7.1,-6.2 -1.7,-1.7 -4.5,-5 -6.9,-7.7 -1.7,-2 -3.1,-3.6 -4.3,-4.8 -4.9,-7.1 -8.6,-13.1 -11.8,-19 -1.9,-3.6 -3.9,-8.9 -4.6,-10.8 -0.2,-0.6 -0.4,-1.1 -0.7,-1.5 -0.2,-0.8 -0.5,-1.6 -0.7,-2.4 -1.8,-5.3 -3.4,-10.3 -4.6,-15.5 -0.5,-2 -1,-4 -1.4,-6 l -0.6,-3.2 c -0.2,-4.3 -0.3,-8.5 -0.4,-12.7 -0.1,-6.7 -0.2,-13.4 -0.2,-20.1 V 14552 c 0,-63 0.3,-127.2 0.6,-189.2 0.6,-122.7 1.2,-249.5 -0.5,-374.2 l -0.1,-6.7 c -0.1,-2.7 -0.1,-5.4 -0.1,-8.1 -0.9,-54.7 -44,-97.9 -100.3,-100.4 -24.7,-1.1 -49.1,8.6 -68.6,27.4 -20.5,19.6 -32.2,45.9 -32.1,72.1 v 1.2 c 0.1,5.1 0.1,10.4 0.1,15.6 v 1.7 c 0.3,141.9 0.2,286.1 0.1,425.6 -0.1,71 -0.1,141.9 -0.1,212.9 v 690.2 c 0,4.7 0,9.4 0,14.1 v 0.6 c -0.1,4.6 -0.1,9.2 -0.4,13.8 -0.1,1.8 -0.7,5.5 -1.5,9.9 v 0 c -0.5,2.3 -1,4.6 -1.6,6.9 -0.6,2.4 -1.3,4.7 -2.1,7.1 -0.8,2.6 -1.6,5.3 -2.3,7.9 l -0.3,1.5 c -4,5.7 -7.4,11.9 -10.7,17.8 -2,3.5 -4,7.1 -6,10.6 -2.3,1.8 -5.7,5.7 -12.2,13.1 -2,2.4 -3.8,4.4 -4.8,5.4 -1.3,1.5 -5,4.5 -6.6,5.7 l -1.8,1.3 c -1.5,1 -3,2 -4.5,3 -3.1,2 -6.3,3.8 -9.7,5.7 -2.3,1.2 -4.6,2.5 -6.8,3.8 -0.5,0.3 -1.8,1 -4.7,2.2 -7.1,2.2 -14.7,4.2 -22.1,6.1 l -6.6,1.7 0.1,0.5 c -0.8,0.1 -1.6,0.2 -2.3,0.3 h -0.6 c -2.3,0 -4.7,0.1 -7,0.2 -4.1,0.2 -8.4,0.3 -12.6,0.3 -4.6,-0.1 -9.3,-0.4 -12.9,-0.7 -2.4,-0.4 -3.6,-0.7 -4,-0.8 -3.1,-1 -6.2,-1.7 -9.4,-2.5 -3.3,-0.8 -6.4,-1.6 -9.5,-2.6 -1.8,-0.6 -5.2,-1.9 -7.6,-2.9 l -2.1,-0.8 c -8,-4.2 -15.6,-8.9 -23.6,-13.8 l -2.1,-1.2 c -2.3,-3.4 -5.8,-6.3 -9.1,-9 -1.9,-1.6 -3.7,-3.1 -5.1,-4.6 -1.1,-1.1 -2.2,-2.4 -3.2,-3.6 l -1.5,-1.4 c -0.7,-0.6 -2.6,-2.5 -3.7,-4.2 l -0.2,-0.3 c -4.6,-7.5 -9.5,-15.7 -14.2,-24.4 -0.4,-1.7 -1.3,-3.7 -2.4,-6.5 -1.1,-2.6 -2.6,-6.3 -2.9,-7.5 -0.7,-2.3 -1.3,-4.6 -1.8,-7 -0.6,-2.8 -1.3,-5.5 -2.2,-8.3 l -0.6,-2 c -0.1,-2.7 -0.3,-5.3 -0.4,-8 -0.2,-3.7 -0.4,-7.3 -0.5,-11 v -768 c 0,-65.2 0.1,-130.4 0.2,-195.7 0.3,-128.9 0.5,-262.2 -0.2,-393.2 l 0.1,-3.1 c 0,-2.1 0.1,-4.2 0.2,-6.3 v -1.1 c 2.4,-59.3 -50.1,-98.4 -100.3,-100.6 -23.9,-1.1 -47,7.6 -65.5,24.6 -20.9,19.2 -34.1,47.4 -35.2,75.6 l -0.1,3.1 c -0.1,2.2 -0.2,4.5 -0.2,6.9 v 12.4 c 0,147.7 0,295 0,442.3 v 995 c 0,6.1 0,12.2 0,18.3 0.1,12 0.2,24.4 0,36.5 v 2.7 c 0,1.9 0,3.8 -0.2,6.1 0,1.9 -0.2,3.7 -0.3,5.5 -0.4,1.7 -0.9,4.2 -1.5,7.7 -0.5,2.9 -1.2,6.5 -1.4,7.7 -0.7,2.3 -1.4,4.6 -2.1,7 -0.9,2.6 -1.7,5.3 -2.4,8 -0.3,1 -0.4,1.9 -0.6,2.7 -0.4,0.6 -0.7,1.2 -1.1,1.8 -2.3,4 -4.7,7.9 -7.2,11.8 -3.3,5.2 -6.7,10.5 -9.5,16 -2.4,2.7 -4.8,5.4 -7.3,8 -1.7,1.7 -3.4,3.3 -5.1,4.9 -2,1.9 -4.1,3.8 -5.9,5.7 -0.8,0.9 -1.5,1.6 -2,2.2 -0.5,0.3 -1.1,0.6 -1.7,1 -2,1.2 -3.9,2.5 -5.9,3.8 -2.3,1.5 -4.6,3 -7,4.4 -2,1.2 -4.3,2.3 -6.8,3.4 -3.2,1.6 -6.6,3.2 -9.6,5.2 l -1.7,0.4 c -2.2,0.6 -4.3,1.3 -6.4,1.9 -2.8,0.9 -5.6,1.8 -8.5,2.6 -1.2,0.3 -4.9,0.9 -7.8,1.4 -4.5,0.7 -6.4,1.1 -7.5,1.3 -10.3,0.4 -20.3,0.1 -31,-0.2 h -1.2 c -0.8,-0.2 -1.6,-0.5 -2.5,-0.7 -2.2,-0.6 -4.4,-1.2 -6.7,-1.7 -2.8,-0.7 -5.6,-1.4 -8.4,-2.2 -1.1,-0.3 -4.5,-1.7 -7.3,-2.8 -3.1,-1.2 -5.4,-2.1 -7.2,-2.5 -1.5,-0.8 -3.1,-1.6 -4.6,-2.4 -4.4,-2.4 -8.5,-5.1 -13,-7.8 -1.8,-1.2 -3.6,-2.4 -5.5,-3.5 l -6.9,-6.2 c -3,-2.8 -6,-5.4 -8.7,-8.2 -0.8,-0.9 -2.8,-3.2 -4.7,-5.6 -3,-3.5 -4.2,-5.1 -5.1,-5.9 -4.1,-6.4 -7.8,-12.9 -11.6,-19.8 l -2.3,-4 -2.6,-7.4 c -1,-3 -2,-5.9 -2.8,-8.9 -1,-3.6 -1.8,-7.2 -2.6,-10.8 v 0 c -0.9,-4.3 -1.4,-7.9 -1.6,-9.8 -0.7,-13.5 -0.5,-27.4 -0.4,-40.9 0,-5.4 0.1,-10.8 0.1,-16.1 v -1453.2 c 0,-0.4 0,-0.8 -0.1,-1.1 -0.8,-54.4 -43.9,-96.9 -100.2,-99.4 -42.8,-2 -84.5,30.2 -97.1,74.8 -0.4,1.6 -0.8,3.2 -1.2,4.8 -0.7,3.1 -1.3,6.4 -1.7,9.6 -0.4,3.2 -0.6,6.5 -0.7,9.7 v 1.6 816.6 c 0,41.8 -0.1,83.6 -0.2,125.5 -0.2,40.9 -0.3,81.9 -0.4,122.9 -0.3,63.3 -0.5,126.5 -0.5,189.7 -0.4,3.8 -0.5,6.5 -0.6,8 l -0.8,3.8 c -1.2,4.9 -2.6,9.9 -4.1,14.8 -1.2,3.6 -2.3,6.5 -2.8,8 -2.1,4.1 -3.9,7.5 -5.7,10.7 -2,3.5 -4.1,7 -6.3,10.4 l -1.6,2.5 c -0.5,0.8 -2.4,3.4 -3.6,4.9 -2.4,2.5 -6.7,6.9 -10.1,10.5 -2.4,2.4 -4.3,4.5 -5,5.2 -0.5,0.4 -1.4,1.3 -2.4,2.2 -2.2,1.5 -6.3,4.6 -8.8,6.5 -1,0.8 -1.8,1.4 -2,1.5 -4.3,2.7 -8.9,5.3 -13.4,7.7 l -2.9,1.6 c -0.9,0.5 -3.2,1.5 -5.3,2.5 -2.5,0.7 -6.6,2 -10.7,3.2 -4.4,1.3 -9.4,2.9 -10.8,3.2 l -3.3,0.8 c -2.3,0.2 -7.7,0.8 -11.2,1.3 -1.4,0.2 -2.5,0.3 -2.8,0.3 -6.8,0.3 -14.3,0.1 -22.6,-0.4 -2.3,-1.1 -6.3,-1.9 -13,-3.3 -4.7,-1 -10,-2.2 -12,-2.8 -0.8,-0.2 -2.7,-0.9 -4.7,-1.6 l -1.7,-0.5 c -1.1,-0.6 -4.7,-2.1 -5.6,-2.7 -6.6,-3.7 -14.4,-8.1 -22.1,-13.2 -1.4,-1.7 -3.8,-3.8 -7.5,-7 -3.1,-2.7 -6.6,-5.8 -8,-7.3 -0.5,-0.5 -1.9,-2.1 -3.6,-3.9 l -3.2,-3.5 c -1.1,-1.4 -3.3,-4.3 -3.8,-5.2 -5.2,-8.4 -9.3,-15.5 -12.8,-22.3 -0.4,-2.2 -1.5,-5.2 -3.1,-9.7 -1.5,-4.1 -3.1,-8.7 -3.7,-10.7 -0.7,-2.7 -1.2,-5.5 -1.8,-8.3 -0.3,-1.5 -0.6,-3.1 -1,-4.7 -0.4,-9.4 -0.5,-16.7 -0.6,-23.7 0,-15.5 0,-31 0,-46.6 v -23.3 -706 c 0.3,-39.4 0.2,-79.4 0.1,-118.1 0,-19.7 -0.1,-39.4 -0.1,-59 v -603.2 c 178.8,-32 356.7,-84.7 452,-248.8 15.3,-26.3 15.8,-54.3 1.7,-78.9 -15.5,-27 -46.9,-45.2 -78,-45.3 -0.1,0 -0.2,0 -0.2,0 -28.1,0 -51.9,14.3 -67,40.3 -5.5,9.5 -12.2,20.6 -20,31.1 -1.6,1.6 -3.9,4.3 -7.4,8.3 -2.7,3 -5.2,6 -6.3,7.1 -6.7,7.1 -14.5,14.5 -24.4,23.3 -0.3,0.3 -1.6,1.3 -3,2.5 l -3.4,2.8 c -1.3,0.9 -4.2,3 -6.5,4.6 -1.8,1.4 -3.4,2.4 -3.7,2.7 -16.7,11.3 -35.3,21.9 -55.3,31.5 -4.6,2.2 -9.2,4.3 -13.8,6.4 -0.9,0.4 -1.5,0.6 -1.9,0.8 -0.9,0.3 -2.1,0.8 -3.9,1.4 -3.1,1.1 -6.2,2.3 -9.3,3.4 -6.5,2.4 -13.2,4.8 -19.8,7 -74.7,24.7 -153.9,37.2 -230.6,49.2 -11.2,1.8 -22.5,3.5 -33.7,5.3 -38.3,6.2 -60,45.5 -61,79.7 -1.7,4.9 -3.1,10 -4,15 -1,5.6 -1.5,11.2 -1.5,16.6 v 672.1 c 0,15.7 0.1,31.4 0.1,47.1 0.1,26.6 0.3,54.2 0,81.2 v 5.7 c 0,3.7 0,7.4 -0.1,11.2 l 4.7,0.6 h -4.7 c -0.1,5.4 -0.4,11.2 -0.8,17.8 -0.4,1.9 -0.6,2.9 -0.8,3.3 -2,6.7 -4.1,14.1 -6.3,22.9 -0.3,1 -0.5,1.9 -0.7,2.8 -0.3,0.5 -0.6,1.1 -1,1.8 -1.2,2.1 -2.3,4.2 -3.5,6.4 -1.2,2.4 -2.5,4.7 -3.8,7 -2.2,3.7 -4.7,7.7 -8,12.5 -1.3,1.6 -4.4,5.4 -5.9,6.8 -2.2,2.1 -4.3,4.1 -6.4,6.1 l -0.9,0.9 c -1,1 -2.1,2 -3.1,3 l -2.3,2.1 c -0.7,0.6 -1.9,1.6 -3.4,2.8 -2.4,2 -6.5,5.4 -7.9,6.2 -4.2,2.7 -8.6,5.2 -12.9,7.6 -1.4,0.7 -6,2.6 -9,3.8 -2.7,1.1 -4,1.6 -4.7,1.9 -6.3,1.9 -12.6,3.6 -18.3,5 -1.3,0.1 -2.8,0.3 -4.3,0.6 -3.4,0.6 -9.1,1.7 -11.1,1.8 -6.4,0.2 -12.9,0.1 -19.9,-0.3 -2.6,-0.1 -4.6,-0.2 -6,-0.2 -0.8,-0.2 -1.8,-0.6 -3,-0.9 -6.5,-2 -14,-4.1 -22.9,-6.4 -0.8,-0.2 -1.9,-0.6 -3,-1.1 -4.9,-2.4 -10,-5 -15,-7.9 -2.2,-1.3 -4.3,-2.8 -6.5,-4.3 -2.9,-2 -5.8,-4.1 -8.9,-5.8 l -1.1,-1.2 c -3.6,-3.8 -7.4,-7.4 -11.1,-11.1 -1.7,-1.7 -3.5,-3.5 -5.2,-5.2 l -1.7,-1.6 c -5.4,-7.7 -9.8,-14.8 -13.5,-21.6 0,-0.1 -0.4,-0.9 -0.9,-2.1 -1.1,-2.4 -2.7,-6 -3.9,-8.6 -1,-2.9 -2.1,-6.1 -2.6,-7.7 l -0.3,-0.9 c -1.1,-3.7 -2,-7.6 -2.9,-11.8 l -2,-9.6 c -0.1,-2.8 -0.2,-4.7 -0.3,-6.6 -0.1,-2.1 -0.2,-4.3 -0.3,-8.1 v -1.8 c -0.3,-24.1 -0.2,-48.6 -0.1,-72.4 0.1,-12 0.1,-24.1 0.1,-36.2 v -673.8 c 0,-8.6 -0.1,-17.3 -0.2,-26 -0.3,-20 -0.5,-40.6 0.6,-60.8 h 0.2 l 0.7,-5.2 v -3.1 c 0.1,-2.1 0.2,-4.1 0.3,-6.2 l 0.2,-1.9 c 0.1,-1.4 0.2,-2.9 0.4,-4.3 0.5,-4.1 0.6,-8.2 0.4,-12.6 0.9,-16.1 2.1,-32.2 3.6,-47.8 0.8,-8.3 1.7,-16.7 2.6,-25 l 1.6,-14 c 0.4,-3 0.9,-6 1.3,-9.1 0.6,-3.6 1.1,-7 1.6,-10.5 7.9,-49.3 18.5,-97.7 31.7,-143.8 7.2,-25.2 15.4,-50.4 24.2,-74.7 3.7,-10.4 7.7,-20.8 11.7,-31 l 2.4,-5.9 c 0.9,-2 2.4,-5.7 3.6,-8.4 l 1.3,-3.1 c 18.4,-41.5 39.5,-81.8 62.8,-120 12.6,-20.8 26.2,-41.4 40.4,-61.2 4.3,-6.1 8.7,-12 13.2,-18 z m 841.9,-389.5 c -55.1,0 -111.2,3.1 -169.4,9.1 l -2.2,0.3 c -3,0.5 -5.7,0.8 -8.4,1.2 -2.7,0.4 -5.4,0.8 -8,1.2 -10.8,1.7 -21.8,3.5 -32.7,5.5 -25.3,4.6 -50.4,9.9 -74.8,15.9 -44.4,10.9 -88.1,24.3 -130.1,39.8 -8.7,3.3 -17.4,6.7 -26.1,10.1 l -9.8,3.9 c -3.2,1.4 -6.5,2.8 -9.8,4.3 -22.4,10 -44.6,20.8 -66,32.1 -39,20.6 -76.8,43.6 -112.4,68.5 -7.4,5.1 -14.6,10.4 -21.8,15.7 l -8.9,6.5 c -2.6,2.1 -5.2,4.2 -7.8,6.3 -18.8,15.1 -37.2,31.1 -54.7,47.4 -32.1,29.8 -62.4,62 -90.2,95.6 -1.1,1.3 -4.4,5.5 -7.8,9.8 -2.7,3.5 -6.2,8 -7.6,9.8 l -0.2,-0.1 -0.8,1.1 c -4.5,6 -8.9,12 -13.3,18.1 -14.2,20 -28,40.8 -40.8,61.8 -23.4,38.5 -44.7,79.2 -63.3,121.1 -0.1,0.2 -0.7,1.5 -1.4,3.2 -1.2,2.7 -2.7,6.4 -3.6,8.5 l -2.4,6.1 c -4.1,10.2 -8.1,20.7 -11.9,31.2 -8.9,24.6 -17.1,49.9 -24.4,75.3 -13.3,46.5 -24,95.3 -31.9,144.9 -0.5,3.5 -1.1,7 -1.6,10.6 -0.4,3.1 -0.9,6.1 -1.4,9.2 l -1.5,14.2 c -0.9,8.4 -1.9,16.8 -2.7,25.2 -1.5,15.8 -2.7,32.1 -3.6,48.4 l -0.1,0.3 0.1,0.2 c 0.2,4 0.1,7.7 -0.4,11.4 -0.2,1.4 -0.3,2.9 -0.4,4.4 l -0.2,2.2 c -0.1,2 -0.2,3.9 -0.2,5.7 l -0.6,3.6 c -1.6,22.2 -1.3,44.8 -1,66.7 0.1,8.7 0.2,17.3 0.2,25.9 v 673.8 c 0,12.1 0,24.2 -0.1,36.2 -0.1,23.8 -0.2,48.3 0.1,72.5 v 1.8 c 0.1,4 0.2,6.2 0.3,8.5 0.1,2 0.2,4 0.3,7.2 l -0.2,0.1 0.2,1 c 0,1.4 0.3,6.4 2.3,9.6 0.8,4.1 1.8,8.3 3,12.4 l 0.3,1.2 c 0.6,1.6 1.8,4.9 2.7,7.9 l 0.2,0.5 c 0.2,0.4 0.4,0.7 0.6,1.1 l 1.1,4.1 -0.1,-1.7 c 0.9,1.8 1.8,3.7 2.4,5.2 0.7,1.5 1.2,2.6 1.3,2.7 3.9,7.2 8.5,14.7 14.3,22.8 l 0.5,0.6 1.9,1.9 c 1.8,1.8 3.6,3.5 5.3,5.3 3.7,3.6 7.3,7.2 10.8,10.9 l 2,2.1 1,0.6 c 2.8,1.5 5.5,3.4 8.4,5.4 2.4,1.7 4.7,3.4 7.2,4.8 3.5,2.1 7.1,3.9 10.6,5.7 1,0.9 2.6,1.6 5,2.6 v 0 c 0.1,0 0.3,0.1 0.3,0.1 2.1,0.9 3.5,1.4 4.6,1.7 8.8,2.2 16.1,4.2 22.4,6.2 1.4,0.4 2.5,0.8 3.3,1 l 0.7,0.4 h 0.9 c 1.5,0 3.5,0 6.4,0.2 7.3,0.3 14.1,0.4 20.8,0.2 2.4,-0.1 7,-0.9 12.4,-1.9 0.3,0 0.6,-0.1 0.9,-0.2 v 0.4 h 0.1 v 0 c 0,0 0,0 0,0 6.8,-1.7 14.9,-3.7 23,-6.1 l 1.1,-0.5 c 0.3,-0.2 2.1,-0.9 4,-1.7 4.6,-1.8 8.3,-3.3 10,-4.2 4.5,-2.5 9.1,-5.1 13.5,-7.9 1.6,-1.1 4.8,-3.7 8.8,-6.9 1.5,-1.3 2.7,-2.3 3.3,-2.7 l 0.4,-0.4 2.4,-2.2 c 1.1,-1.1 2.2,-2.1 3.3,-3.1 l 0.9,-0.9 c 2.1,-2 4.1,-4 6.2,-5.9 1.9,-1.8 4.6,-5.1 7,-8.1 l 0.3,-0.4 c 3.4,-4.9 6,-9.1 8.3,-13 1.5,-2.5 2.8,-4.9 4.1,-7.4 1.1,-2.1 2.1,-4.1 3.3,-6.2 0.5,-0.9 0.9,-1.6 1.3,-2.3 l 0.4,-0.6 0.2,-0.8 c 0.2,-0.9 0.5,-1.9 0.8,-3.2 2.1,-8.6 4.2,-15.9 6.2,-22.4 0.3,-1.2 0.7,-2.8 1,-5 0.1,-1.4 0.2,-2.8 0.3,-4.1 h 0.2 c 0.1,-0.1 0.1,-0.2 0.1,-0.3 v -0.2 0 c 0,-0.5 0,-1.2 -0.2,-1.9 0.3,-4.5 0.4,-8.5 0.5,-12.3 v -0.6 c 0.1,-3.7 0.1,-7.5 0.1,-11.3 l 0.1,-5.6 c 0.2,-27.1 0.1,-54.7 0,-81.3 -0.1,-15.7 -0.2,-31.4 -0.2,-47.1 v -672.1 c 0,-4.8 0.5,-9.8 1.4,-14.9 0.9,-4.8 2.2,-9.6 3.8,-14.3 l 0.3,-0.7 v -0.8 c 0.7,-31 20.7,-66.1 53.1,-71.3 11.2,-1.7 22.5,-3.5 33.6,-5.3 77.1,-12.1 156.7,-24.5 232.2,-49.5 6.7,-2.3 13.5,-4.8 20,-7.2 3.1,-1.1 6.2,-2.2 9.3,-3.3 1.9,-0.7 3.2,-1.2 4,-1.4 l 0.7,-0.4 c 0.3,-0.1 0.8,-0.3 1.7,-0.7 4.7,-2.1 9.4,-4.3 14,-6.5 20.5,-9.8 39.5,-20.6 56.5,-32.2 0.5,-0.3 2,-1.4 4,-2.8 2.3,-1.7 5.1,-3.7 6.7,-4.8 l 3.7,-3 c 1.5,-1.3 2.9,-2.4 3.2,-2.7 10.2,-9 18.2,-16.6 25.1,-23.9 1.1,-1.1 3.7,-4.2 6.5,-7.4 2.7,-3.1 6.3,-7.4 7.1,-8 l -2.8,-3 3.5,2.3 c 8.1,-10.9 15,-22.4 20.7,-32.2 13.3,-22.9 34.2,-35.6 58.8,-35.6 0,0 0.1,0 0.1,0 28,0.1 56,16.4 70,40.6 12.3,21.6 11.7,46.2 -1.7,69.4 -98.8,170.2 -283.8,215.7 -449.4,245 l -3.9,0.7 v 611.1 c 0,19.6 0,39.3 0.1,59 0.1,38.7 0.2,78.7 -0.1,118.1 v 729.3 c -0.1,15.6 -0.1,31.1 0,46.7 0,7.1 0.2,14.6 0.6,24.2 l 0.1,1.1 c 0.1,0.2 0.1,0.5 0.2,0.8 h -0.2 c 0.3,8.4 0.4,9.3 2.4,10.4 0.2,0.8 0.4,1.7 0.6,2.5 0.7,2.4 2.3,7 3.9,11.4 1.1,3.1 2.6,7.4 2.8,8.3 l 2.8,-0.6 -2.9,1.5 c 3.8,7.5 8.3,15.4 14,24.7 0.8,1.2 2.5,3.4 4.6,6.3 l 3.6,3.8 c 1.7,1.9 3.2,3.6 3.8,4.1 1.6,1.7 5.1,4.8 8.5,7.8 2.6,2.2 6,5.2 6.6,5.9 l 2.8,-2.4 -2.2,3.4 c 8.4,5.6 16.8,10.5 24,14.5 1.1,0.6 3.3,1.6 6.8,3.1 l 2.1,0.8 c 2.1,0.7 4,1.3 4.9,1.6 2.4,0.8 7.5,1.8 12.8,3 3.3,0.7 7.6,1.6 9.8,2.2 l -0.1,0.9 c 10.5,0.9 19.9,1.1 28.5,0.8 0.2,0 1.5,-0.1 3.4,-0.4 3.3,-0.4 8.6,-1.1 11.1,-1.3 l 0.7,-0.1 3.7,-0.8 c 1.6,-0.4 5.3,-1.5 11.4,-3.4 4.1,-1.3 8.4,-2.6 10.8,-3.2 l 0.6,-0.3 c 2.6,-1.1 5.3,-2.3 6.4,-2.9 l 2.8,-1.6 c 4.7,-2.6 9.5,-5.2 14.1,-8.1 0.1,-0.1 1.1,-0.8 2.5,-1.9 2.6,-1.9 6.7,-5.1 8.7,-6.5 l 0.5,-0.4 c 1.3,-1.1 2.4,-2.1 2.9,-2.6 0.8,-0.8 2.8,-2.9 5.2,-5.4 3.5,-3.6 7.8,-8.2 10.2,-10.5 l 0.4,-0.5 c 2,-2.6 3.6,-4.8 4.4,-5.9 l 1.5,-2.4 c 2.2,-3.6 4.5,-7.2 6.5,-10.9 1.9,-3.3 3.8,-6.9 6.1,-11.5 0.8,-2.1 2,-5.2 3.1,-9 1.7,-5.1 3.1,-10.3 4.3,-15.4 l 1.1,-5 v -0.5 c 0,-0.7 0.1,-2.7 0.6,-8.1 0,-63.6 0.2,-126.8 0.5,-190 0.1,-41 0.2,-82 0.4,-123 0.1,-41.8 0.2,-83.7 0.2,-125.5 l 0.1,-818.1 c 0,-2.8 0.2,-5.8 0.6,-8.7 0.3,-2.9 0.8,-5.8 1.5,-8.7 0.3,-1.4 0.7,-2.8 1.1,-4.2 11.4,-40.5 49.1,-69.8 87.6,-68 51.2,2.3 90.4,40.8 91.2,89.6 0,0.4 0.1,0.7 0.1,1 v 0.5 1453.2 c 0,5.3 0,10.7 -0.1,16 -0.2,13.6 -0.3,27.7 0.5,41.5 0,0.9 0.1,2 0.3,3.1 l -0.4,0.1 -1.1,-2 2.7,9.1 c 0.9,4.1 1.8,8.2 2.9,12.3 0.8,3 1.8,5.9 2.8,8.9 0.2,2.5 1.4,5.5 2.7,8.1 l 0.5,1.6 0.3,-0.1 2.3,3.9 c 3.8,6.9 7.8,14 12.3,20.8 v 0.1 l -2.3,-1.4 7.4,7.4 c 0.1,0.1 0.2,0.2 0.2,0.2 2.2,2.6 4.4,5.2 5.2,6.1 3,3.1 6.2,6 9.3,8.7 v 0 c 1.6,2.7 4.8,5 6.8,6.3 l 0.8,0.8 0.1,-0.2 c 2,1.2 4,2.5 5.9,3.7 4.3,2.8 8.8,5.6 13.5,8.2 2.1,1 4.1,2.1 6.1,3.1 l 0.8,-1.5 -0.3,1.4 c 0.7,0.2 3.9,1.5 6.3,2.4 4,1.6 6.7,2.6 8.1,3 2.9,0.9 5.8,1.6 8.8,2.3 2.2,0.6 4.3,1.1 6.5,1.7 1.1,0.3 2,0.5 2.8,0.8 l 1.2,0.2 h 1.9 c 11,0.4 21.3,0.7 32.1,0.2 h 1 l 0.6,-0.3 c 1,-0.2 4.2,-0.7 6.5,-1.1 4.3,-0.8 7.2,-1.3 8.6,-1.6 3,-0.8 6.1,-1.7 9,-2.7 2.1,-0.6 4.1,-1.2 6.1,-1.8 l 3.2,-0.9 0.7,-0.4 c 2.6,-1.8 5.7,-3.3 8.9,-4.8 2.6,-1.2 5.2,-2.5 7.6,-3.9 2.5,-1.5 4.9,-3.1 7.4,-4.6 1.8,-1.3 3.7,-2.5 5.6,-3.7 0.8,-0.5 1.5,-0.9 2.2,-1.2 l 0.6,-0.4 0.5,-0.6 c 0.6,-0.7 1.4,-1.5 2.3,-2.5 1.8,-1.8 3.7,-3.6 5.5,-5.3 1.9,-1.7 3.7,-3.5 5.5,-5.3 2.7,-2.8 5.3,-5.8 7.9,-8.8 l 0.6,-0.9 c 2.8,-5.2 6.2,-10.6 9.5,-15.7 2.5,-4.1 5.1,-8.1 7.4,-12.2 0.5,-0.9 0.9,-1.6 1.3,-2.3 l 0.4,-0.7 0.2,-0.7 c 0.2,-0.9 0.4,-2 0.8,-3.2 0.6,-2.5 1.4,-5 2.1,-7.5 0.7,-1.9 1.2,-3.7 1.8,-5.6 l 2.1,6.6 1.6,-25.1 c 0.1,-2.1 0.3,-4.1 0.3,-6.2 0.1,-2.5 0.2,-4.4 0.2,-6.5 v -2.5 c 0.2,-12.3 0.1,-24.7 0.1,-36.7 -0.1,-6.1 -0.1,-12.2 -0.1,-18.3 v -995 c 0,-147.3 0.1,-294.6 0,-441.9 v -12.8 c 0,-2.2 0.1,-4.3 0.3,-6.4 v -3.2 c 1.1,-25.7 13.1,-51.6 32.2,-69.1 11.7,-10.8 31.4,-23.4 58.7,-22.2 45.8,2.1 93.4,39.1 91.3,90.9 v 1.1 c -0.1,2.2 -0.2,4.3 -0.2,6.4 l -0.1,3.2 c 0.7,131.2 0.4,264.5 0.2,393.4 -0.1,65.2 -0.2,130.5 -0.2,195.7 v 768.2 c 0.1,3.8 0.3,7.5 0.5,11.3 0.2,2.8 0.3,5.7 0.4,8.5 l 0.3,1.3 0.8,2.5 c 0.7,2.5 1.3,5.1 1.9,7.7 0.6,2.5 1.2,5 1.9,7.5 0.5,1.5 1.6,4.3 3.3,8.4 0.8,2.1 2,5 2.2,5.6 l 3.8,-1.1 -3.6,2.1 c 4.9,9.1 10,17.6 14.7,25.4 l -0.1,0.1 c 0.1,0.2 0.3,0.4 0.5,0.6 l 0.3,0.3 c 1.4,2.1 3.9,4.9 5.7,6.3 v 0.1 c 1.2,1.3 2.4,2.7 3.6,4 1.8,1.8 3.8,3.5 5.9,5.2 0.7,0.6 1.4,1.2 2.1,1.8 l 5.2,5.2 c 0.1,0.1 0.1,0.2 0.2,0.3 l 0.9,1.4 1.5,0.9 3.5,3.5 -1.4,-2.2 0.3,0.2 c 7.8,4.8 15.9,9.7 24.3,14.1 l 0.5,0.3 2.2,0.8 c 2.8,1.2 6.2,2.5 8.3,3.2 3.4,1.1 6.9,1.9 10.1,2.7 3,0.8 6,1.5 8.9,2.4 1.3,0.4 3.2,0.8 5.8,1.2 1,0 2.1,0.1 3.3,0.2 v 0.2 c 0,0 0.1,0 0.2,0 l 0.3,0.1 v -0.1 c 0.4,0.1 1,0.1 1.7,-0.1 2.6,0.2 5.4,0.3 8.3,0.4 4.4,0.1 8.8,-0.1 13.1,-0.3 2.2,-0.1 4.6,-0.2 6.9,-0.2 v 0.2 l 0.9,-0.2 c 1.8,-0.2 7.4,-0.6 10.4,-2.8 h 0.1 c 5,-1.3 10.1,-2.6 15.3,-4.1 1.3,0.2 3,-0.5 5.7,-1.5 h -0.1 l 6.8,-1.9 -2.2,0.1 c 1.6,-0.7 2.8,-1.3 3.8,-1.9 2.1,-1.3 4.3,-2.5 6.5,-3.7 3.4,-1.8 6.9,-3.8 10.3,-5.9 1.6,-1.1 3.2,-2.2 4.8,-3.3 l 2.1,-1.4 c 3.2,-2.7 6.2,-5.1 7.8,-6.8 1,-1.1 2.9,-3.2 5,-5.7 0.2,-0.3 0.5,-0.5 0.8,-0.8 l -1.8,9.5 13.3,-21.8 c 2.5,-4 4.8,-8.2 7,-12.2 3.5,-6.3 6.8,-12.2 10.7,-17.7 l 0.5,-0.8 0.7,-3 c 0.7,-2.5 1.4,-5 2.2,-7.5 0.8,-2.5 1.6,-5 2.3,-7.5 0.8,-3.4 1.5,-6.7 2.2,-10 0.4,-1.9 0.8,-3.7 1.2,-5.6 v 0 c 0,0 0,0 0,0 l -0.4,-0.1 c 0.2,-1.1 0.3,-2.1 0.3,-3 0.3,-4.8 0.4,-9.5 0.4,-14.2 v -0.6 c 0,-4.8 0,-9.5 0,-14.3 v -7.1 -683 c 0,-71 0,-141.9 0.1,-212.9 0.1,-139.5 0.2,-283.8 -0.1,-425.6 v -1.7 c 0,-5.3 0,-10.6 -0.1,-15.9 v -1 c -0.1,-23.6 10.6,-47.4 29.2,-65.2 17.6,-17 39.6,-25.8 61.7,-24.8 51.3,2.3 90.5,41.5 91.3,91.2 0,2.7 0.1,5.3 0.1,8 v 6.8 c 1.8,124.5 1.2,251.3 0.6,373.9 -0.3,62.1 -0.6,126.3 -0.6,189.3 v 472.8 c 0,6.7 0,13.5 0.2,20.3 0.1,4.3 0.2,8.7 0.4,13.1 l 0.3,2.1 h -0.2 c 0.3,8.2 0.4,9 2.5,10.2 1.2,5 2.8,9.9 4.4,14.7 1.1,3.2 2.1,6.4 3,9.6 l 0.2,0.5 0.6,-0.1 c 0.8,2.1 1.9,4.3 2.9,6.3 3.4,6.2 7.4,12.6 12.5,20.1 l 2.7,3.9 0.5,-0.4 c 0.6,0.7 1.1,1.3 1.7,1.9 2.5,2.9 5.4,6.2 7.3,8.2 1.5,1.4 4.6,4.1 7.6,6.7 1.8,1.4 3.9,3.2 5,4.2 l -0.3,0.5 c 4.2,2.9 9.2,6.3 14.5,9.4 2.9,1.7 5.9,3.3 8.9,4.9 1.6,0.8 3.2,1.6 4.8,2.5 l 0.5,0.3 v 0 c 4,2.1 6.4,3.4 8.6,2.8 0.1,0 0.2,0 0.2,0 4.8,1.6 9.8,3.2 14.9,4.5 1.1,2.1 2,2.1 10.2,2.5 v -0.3 l 1.8,0.4 c 8.3,0.3 16.7,0.7 25.1,0.4 3.6,-0.1 7.2,-0.4 10.9,-0.7 l 0.8,-0.1 3.5,-0.9 c 3.9,-1.1 7.8,-2.3 11.8,-3.5 4.7,-1.4 9.7,-2.9 14.4,-4.1 l 1.1,-0.4 c 3,-1.4 6,-2.9 9,-4.5 4.6,-2.5 9.1,-5.3 13.3,-8.1 2.1,-1.2 4.1,-2.5 6.1,-3.7 l 0.1,0.1 c 0.2,-0.2 0.4,-0.3 0.6,-0.5 l 0.4,-0.3 c 2.2,-1.5 4.9,-4 6.2,-5.7 l 0.1,-0.1 c 1.4,-1.2 2.7,-2.3 4.1,-3.6 1.5,-1.5 3.1,-3.1 4.6,-4.8 1.1,-1.1 2.3,-2.3 3.4,-3.4 0.6,-0.6 2,-2.1 3.5,-3.7 l 0.4,-0.6 c 0.3,-0.5 0.6,-1 1.1,-1.6 l 4.7,-4.7 -2.5,1.4 c 0.4,-0.5 0.9,-1.1 1.3,-1.6 2.6,-3.7 4.2,-6 5,-7.2 4.9,-8.1 9.1,-16.6 12.8,-24.1 l -1.1,-0.6 c 0.1,-0.4 0.2,-0.8 0.4,-1.2 1.7,-4.6 3.6,-9.8 4.4,-12.9 0.4,-1.7 0.7,-3.4 1.1,-5.1 0.4,-2.2 0.8,-4.3 1.4,-6.2 l 0.4,-1.6 c 0.1,-2.3 0.2,-4.6 0.3,-6.8 0.2,-3.8 0.4,-7.6 0.5,-11.4 v -3 c 0.3,-28.6 0.5,-58.8 0.6,-94.9 0.1,-34.1 0.1,-68.3 0.1,-102.5 0,-12.7 -0.1,-25.5 -0.1,-38.3 -0.1,-21.3 -0.1,-42.6 -0.2,-64 l -0.1,-12.1 c -0.1,-51.1 -0.3,-102 -0.3,-153 v -583.4 l -4.7,-0.5 h 4.7 c 0.1,-10.5 2.1,-21 6.2,-31.2 l 0.3,-0.9 v -0.9 c -0.7,-40.5 -1.5,-77.8 -2.7,-114.1 -3,-94.7 -7.2,-196.4 -17.4,-298.7 -5.6,-55.8 -8,-76 -17.5,-131.2 -8.8,-50.9 -19.4,-99.7 -31.7,-145.1 -12.6,-47.1 -28.2,-94.4 -46.3,-140.6 l -2.4,-5.9 c -2.3,-5.6 -4.8,-11.1 -7.3,-16.6 -4.7,-10.3 -9.6,-20.8 -14.7,-31.1 -11.1,-22.5 -23,-44.4 -35.3,-65.2 -11.7,-19.6 -24.2,-39 -37.2,-57.7 -5,-7 -10.3,-14.3 -15.7,-21.4 l -2.6,1.7 2.3,-2.1 c -0.7,-0.8 -5.1,-6.2 -8.3,-10.1 -3,-3.8 -6,-7.5 -7,-8.8 -28.1,-33.4 -59.2,-65.2 -92.4,-94.5 -9.6,-8.6 -19.8,-17.2 -30.1,-25.6 l -5.4,-4.3 c -0.7,-0.5 -2.2,-1.7 -4,-3 -2.3,-1.8 -4.9,-3.8 -5.9,-4.5 -19.8,-14.6 -40.5,-28.7 -61.6,-41.9 -40.1,-25 -83.3,-47.9 -132.3,-69.9 l -3.4,-1.5 c -2.1,-0.9 -5.7,-2.3 -8.8,-3.6 -2.8,-1.1 -5.1,-2.1 -5.8,-2.3 -10.8,-4.3 -22,-8.5 -33.2,-12.6 -24.4,-8.7 -50,-16.9 -78.1,-25 -31,-9 -60,-16.3 -88.6,-22.2 -29.5,-6.2 -56.1,-10.4 -81.3,-12.9 -42.8,-3.8 -85.6,-5.7 -129.2,-5.7 z m -920.3,2180.7 c -108.7,0 -217.3,-58 -274.7,-155.6 -37.8,-64.5 -43.1,-134.8 -43.1,-201.2 v -711.9 c 0,-12.2 -0.2,-24.7 -0.4,-36.7 -0.6,-32.1 -1.2,-65.2 2.3,-97 0.2,-6.5 0.5,-12.6 0.8,-18.7 13.7,-227.2 77.8,-436.5 185.6,-605.3 210.3,-329.8 593,-530.5 1023.5,-536.8 49.5,-0.8 101.5,1.2 154.6,6 213.6,21 418.9,96 578.1,211.1 166.1,120.1 288.8,282.5 365,482.9 77.1,203.1 97.2,423.1 106.6,611.5 9.2,182.5 12.1,377.6 9.6,632.7 -0.6,67.4 -2.3,136 -3.8,202.3 -1.7,72.1 -3.5,146.6 -4,219.9 v 0 c 0.1,85.6 0.1,177.4 -0.2,269.9 -0.6,157.4 -111.4,293.3 -257.7,316.2 -63.5,9.9 -126.7,2.3 -182.7,-21.9 l -6.5,-2.8 -0.1,7 c -0.1,7 -0.3,15.2 -1,23.4 -12.3,134.8 -101.2,245.7 -226.6,282.5 -80.3,23.6 -165.7,13.1 -240.6,-29.7 l -4.5,-2.6 -2.1,4.8 c -18.5,42.8 -45,79 -78.6,107.6 -110.4,94.1 -266.6,105.8 -379.7,28.6 -79.7,-54.5 -129.8,-136.2 -141,-230 l -0.8,-6.5 -5.9,2.8 c -48.5,22.4 -101.1,31.6 -151.9,26.6 -116.4,-11.3 -216.6,-81 -261.3,-181.8 -19.9,-44.8 -29.6,-93.5 -29.6,-148.9 v -478.3 l -6.6,3 c -6.4,3 -11.9,5.3 -17.1,7.3 -34,13.3 -69.8,19.6 -105.6,19.6 z m 913.8,-2372.8 c -6.7,0 -13.3,0 -19.9,0.1 -433.7,6.4 -819.3,208.7 -1031.4,541.2 -108.6,170.2 -173.2,381.1 -187,609.8 -0.4,6.2 -0.6,12.4 -0.8,18.6 -3.5,32.1 -2.9,65.5 -2.3,97.8 0.2,12.1 0.4,24.5 0.4,36.6 v 711.9 c 0,67.7 5.4,139.5 44.4,205.9 78.6,133.8 250.7,195.4 391.8,140.1 3.5,-1.4 7.1,-2.8 10.9,-4.5 v 463.7 c 0,56.7 9.9,106.7 30.4,152.7 46.1,103.9 149.2,175.7 268.9,187.4 50.5,5 102.6,-3.6 151.1,-24.9 13,94 64,175.6 144.2,230.4 116.6,79.6 277.5,67.6 391.2,-29.2 33.4,-28.5 60,-64.2 79,-106.3 75.9,41.9 162.1,51.9 243.3,28.1 129.1,-38 220.6,-152.1 233.2,-290.7 0.6,-5.9 0.8,-11.8 1,-17.2 56.1,22.8 118.6,29.7 181.5,19.9 150.8,-23.6 265,-163.5 265.6,-325.4 0.4,-92.6 0.3,-184.4 0.2,-269.9 0.6,-73.2 2.3,-147.7 4,-219.7 1.6,-66.4 3.2,-135 3.8,-202.5 2.6,-255.3 -0.4,-450.5 -9.5,-633.2 -9.6,-189.2 -29.7,-410.2 -107.3,-614.5 -76.8,-202.1 -200.7,-365.9 -368.2,-487.1 -160.6,-116.2 -367.6,-191.8 -582.8,-212.9 -46.5,-4.1 -92,-6.2 -135.7,-6.2"
         style="fill:#0092f4;fill-opacity:1;fill-rule:nonzero;stroke:none"
         id="path228"
         inkscape:connector-curvature="0" />
    </g>
    <g
       id="g230"
       transform="matrix(0.07700045,0,0,-0.07700045,-1056.5338,1281.8784)">
      <path
         d="m 16299.7,15375.4 c -1.9,1.7 -3.9,3.4 -5.7,5.2 -0.1,0.1 -0.2,0.1 -0.3,0.2 0,0 -0.1,0 -0.1,0 4.9,-4.8 6.4,-6 6.1,-5.4"
         style="fill:#182846;fill-opacity:1;fill-rule:nonzero;stroke:none"
         id="path232"
         inkscape:connector-curvature="0" />
    </g>
    <g
       id="g234"
       transform="matrix(0.06943266,0,0,-0.06943266,-1056.5338,1281.8784)">
      <path
         d="m 15825.1,16290.9 c 0,-0.1 0,-0.1 0,-0.2 1.6,5.8 2.2,8.6 2.2,9.3 -0.7,-3 -1.4,-6.1 -2.2,-9.1"
         style="fill:#182846;fill-opacity:1;fill-rule:nonzero;stroke:none"
         id="path236"
         inkscape:connector-curvature="0" />
    </g>
    <g
       id="g238"
       transform="matrix(0.074549,0,0,-0.074549,-1056.5338,1281.8784)">
      <path
         d="m 16296.3,16222.3 c 0,0 0,0 0,0 1.4,-0.3 2.7,-0.7 3.7,-0.9 -1.2,0.3 -2.5,0.6 -3.7,0.9"
         style="fill:#182846;fill-opacity:1;fill-rule:nonzero;stroke:none"
         id="path240"
         inkscape:connector-curvature="0" />
    </g>
    <g
       id="g242"
       transform="matrix(0.07505841,0,0,-0.07505841,-1056.5338,1281.8784)">
      <path
         d="m 16300,16003.5 c -0.4,1.9 -0.5,2.5 0,0 v 0"
         style="fill:#182846;fill-opacity:1;fill-rule:nonzero;stroke:none"
         id="path244"
         inkscape:connector-curvature="0" />
    </g>
    <g
       id="g246"
       transform="matrix(0.07399373,0,0,-0.07399373,-1056.5338,1281.8784)">
      <path
         d="m 16299.5,16297.5 c -1.8,-2 -3.6,-4 -5.5,-6 -0.1,-0.1 -0.1,-0.2 -0.2,-0.3 0,0 0,0 0,0 5,5 6.2,6.6 5.7,6.3"
         style="fill:#182846;fill-opacity:1;fill-rule:nonzero;stroke:none"
         id="path248"
         inkscape:connector-curvature="0" />
    </g>
    <g
       id="g250"
       transform="matrix(0.07441247,0,0,-0.07441247,-1056.5338,1281.8784)">
      <path
         d="m 15707.3,16297.2 c 0.6,2.8 0.4,2.1 0,0 v 0"
         style="fill:#182846;fill-opacity:1;fill-rule:nonzero;stroke:none"
         id="path252"
         inkscape:connector-curvature="0" />
    </g>
    <g
       id="g254"
       transform="matrix(0.07478042,0,0,-0.07478042,-1056.5338,1281.8784)">
      <path
         d="m 15680.8,16300 c -0.1,-0.1 -0.1,-0.1 -0.1,-0.1 -2,-1.9 -4,-3.8 -6.1,-5.6 0.6,0.3 2.3,1.9 6.2,5.7 0,0 0,0 0,0"
         style="fill:#182846;fill-opacity:1;fill-rule:nonzero;stroke:none"
         id="path256"
         inkscape:connector-curvature="0" />
    </g>
    <g
       id="g258"
       transform="matrix(0.07453277,0,0,-0.07453277,-1056.5338,1281.8784)">
      <path
         d="m 15690.3,16299.8 c -0.8,-2.5 -1.7,-5.1 -2.5,-7.6 0.2,0.3 0.9,2.4 2.6,7.8 -0.1,-0.1 -0.1,-0.1 -0.1,-0.2"
         style="fill:#182846;fill-opacity:1;fill-rule:nonzero;stroke:none"
         id="path260"
         inkscape:connector-curvature="0" />
    </g>
  </g>
</svg>
