<?xml version="1.0" encoding="UTF-8" standalone="no"?>
<!-- Created with Inkscape (http://www.inkscape.org/) -->

<svg
   xmlns:dc="http://purl.org/dc/elements/1.1/"
   xmlns:cc="http://creativecommons.org/ns#"
   xmlns:rdf="http://www.w3.org/1999/02/22-rdf-syntax-ns#"
   xmlns:svg="http://www.w3.org/2000/svg"
   xmlns="http://www.w3.org/2000/svg"
   xmlns:sodipodi="http://sodipodi.sourceforge.net/DTD/sodipodi-0.dtd"
   xmlns:inkscape="http://www.inkscape.org/namespaces/inkscape"
   width="17.236387mm"
   height="12.827472mm"
   viewBox="0 0 34.472774 25.654944"
   version="1.1"
   id="svg5141"
   inkscape:version="0.92.3 (2405546, 2018-03-11)"
   sodipodi:docname="lungs.svg">
  <defs
     id="defs5135" />
  <sodipodi:namedview
     id="base"
     pagecolor="#ffffff"
     bordercolor="#666666"
     borderopacity="1.0"
     inkscape:pageopacity="0.0"
     inkscape:pageshadow="2"
     inkscape:zoom="0.7"
     inkscape:cx="-404.25309"
     inkscape:cy="-114.61849"
     inkscape:document-units="mm"
     inkscape:current-layer="layer1"
     showgrid="false"
     fit-margin-top="-0.4"
     fit-margin-left="0"
     fit-margin-right="0"
     fit-margin-bottom="0"
     inkscape:window-width="1366"
     inkscape:window-height="662"
     inkscape:window-x="0"
     inkscape:window-y="27"
     inkscape:window-maximized="1" />
  <metadata
     id="metadata5138">
    <rdf:RDF>
      <cc:Work
         rdf:about="">
        <dc:format>image/svg+xml</dc:format>
        <dc:type
           rdf:resource="http://purl.org/dc/dcmitype/StillImage" />
        <dc:title></dc:title>
      </cc:Work>
    </rdf:RDF>
  </metadata>
  <g
     inkscape:label="Layer 1"
     inkscape:groupmode="layer"
     id="layer1"
     transform="translate(-119.96612,-76.285622)">
    <path
       d="m 144.56479,76.304326 c -0.74507,-0.01411 -2.60738,-0.451202 -2.96722,3.83787 -0.35983,4.289072 -1.38818,3.817055 -0.86077,7.82073 0.28328,2.150886 -0.82056,3.665361 -0.1136,6.020858 0.49565,1.652411 -0.18027,3.489325 1.37654,5.887861 0,0 1.20333,2.589385 6.41985,1.974495 5.21653,-0.61489 5.85435,0.15946 5.96336,-2.262362 0.10971,-2.421466 0.18767,-8.368947 -1.08726,-10.459155 -1.27494,-2.090208 -1.72756,-6.096352 -4.42419,-9.157758 -2.20133,-2.499078 -3.24238,-3.642078 -4.30671,-3.662539"
       style="fill:#62a1dd;fill-opacity:1;fill-rule:nonzero;stroke:none;stroke-width:0.03527778"
       id="path358"
       inkscape:connector-curvature="0" />
    <path
       d="m 129.89,76.306539 c 0.74507,-0.01235 2.60809,-0.444852 2.95804,3.845278 0.3496,4.289778 1.37901,3.820231 0.84208,7.822495 -0.28857,2.15018 0.81174,3.667125 0.0991,6.020858 -0.49953,1.651353 0.1718,3.49003 -1.39065,5.885043 0,0 -1.20932,2.585857 -6.42443,1.958967 -5.21476,-0.62724 -5.8547,0.1457 -5.95807,-2.276467 -0.10371,-2.422176 -0.16757,-8.369304 1.11231,-10.45669 1.27988,-2.087033 1.74237,-6.09212 4.44606,-9.147175 2.20733,-2.493786 3.2512,-3.634317 4.31553,-3.652309"
       style="fill:#62a1dd;fill-opacity:1;fill-rule:nonzero;stroke:none;stroke-width:0.03527778"
       id="path356"
       inkscape:connector-curvature="0" />
  </g>
</svg>
