<?xml version="1.0" encoding="UTF-8" standalone="no"?>
<svg
   xmlns:dc="http://purl.org/dc/elements/1.1/"
   xmlns:cc="http://creativecommons.org/ns#"
   xmlns:rdf="http://www.w3.org/1999/02/22-rdf-syntax-ns#"
   xmlns:svg="http://www.w3.org/2000/svg"
   xmlns="http://www.w3.org/2000/svg"
   xmlns:sodipodi="http://sodipodi.sourceforge.net/DTD/sodipodi-0.dtd"
   xmlns:inkscape="http://www.inkscape.org/namespaces/inkscape"
   id="svg5784"
   version="1.1"
   viewBox="0 0 19.99044 19.990499"
   height="19.990499mm"
   width="19.99044mm"
   sodipodi:docname="lungs.svg"
   inkscape:version="0.92.3 (2405546, 2018-03-11)">
  <sodipodi:namedview
     pagecolor="#ffffff"
     bordercolor="#666666"
     borderopacity="1"
     objecttolerance="10"
     gridtolerance="10"
     guidetolerance="10"
     inkscape:pageopacity="0"
     inkscape:pageshadow="2"
     inkscape:window-width="1366"
     inkscape:window-height="662"
     id="namedview113"
     showgrid="false"
     inkscape:zoom="3.1235671"
     inkscape:cx="37.77721"
     inkscape:cy="37.777322"
     inkscape:window-x="0"
     inkscape:window-y="27"
     inkscape:window-maximized="1"
     inkscape:current-layer="layer1" />
  <defs
     id="defs5778" />
  <metadata
     id="metadata5781">
    <rdf:RDF>
      <cc:Work
         rdf:about="">
        <dc:format>image/svg+xml</dc:format>
        <dc:type
           rdf:resource="http://purl.org/dc/dcmitype/StillImage" />
        <dc:title />
      </cc:Work>
    </rdf:RDF>
  </metadata>
  <g
     transform="translate(-123.0524,-181.92737)"
     id="layer1">
    <path
       id="path770"
       style="fill:#cceef7;fill-opacity:1;fill-rule:nonzero;stroke:none;stroke-width:0.03527778"
       d="m 128.5618,187.38025 c 1.14999,0 2.08153,-0.93211 2.08153,-2.08139 0,-1.15009 -0.93154,-2.08181 -2.08153,-2.08181 -1.14998,0 -2.08082,0.93172 -2.08082,2.08181 0,1.14928 0.93084,2.08139 2.08082,2.08139" />
    <path
       id="path772"
       style="fill:#cceef7;fill-opacity:1;fill-rule:nonzero;stroke:none;stroke-width:0.03527778"
       d="m 133.00384,187.56437 c 1.25166,0 2.26589,-1.01357 2.26589,-2.26551 0,-1.25208 -1.01423,-2.26702 -2.26589,-2.26702 -1.25201,0 -2.2661,1.01494 -2.2661,2.26702 0,1.25194 1.01409,2.26551 2.2661,2.26551" />
    <path
       id="path814"
       style="fill:#cceef7;fill-opacity:1;fill-rule:nonzero;stroke:none;stroke-width:0.03527778"
       d="m 128.5618,191.55047 c 1.00045,0 1.81074,-0.80973 1.81074,-1.81017 0,-0.99977 -0.81029,-1.81077 -1.81074,-1.81077 -0.99977,0 -1.81006,0.811 -1.81006,1.81077 0,1.00044 0.81029,1.81017 1.81006,1.81017" />
    <path
       id="path816"
       style="fill:#cceef7;fill-opacity:1;fill-rule:nonzero;stroke:none;stroke-width:0.03527778"
       d="m 133.00384,191.73554 c 1.10172,0 1.99496,-0.89351 1.99496,-1.99524 0,-1.10243 -0.89324,-1.99499 -1.99496,-1.99499 -1.10243,0 -1.99602,0.89256 -1.99602,1.99499 0,1.10173 0.89359,1.99524 1.99602,1.99524" />
    <path
       id="path818"
       style="fill:#cceef7;fill-opacity:1;fill-rule:nonzero;stroke:none;stroke-width:0.03527778"
       d="m 137.44531,191.88314 c 1.18357,0 2.14277,-0.95927 2.14277,-2.14284 0,-1.18389 -0.9592,-2.14341 -2.14277,-2.14341 -1.18357,0 -2.14348,0.95952 -2.14348,2.14341 0,1.18357 0.95991,2.14284 2.14348,2.14284" />
    <path
       id="path858"
       style="fill:#cceef7;fill-opacity:1;fill-rule:nonzero;stroke:none;stroke-width:0.03527778"
       d="m 128.5618,195.69656 c 0.83714,0 1.51585,-0.67839 1.51585,-1.51472 0,-0.83689 -0.67871,-1.51528 -1.51585,-1.51528 -0.83689,0 -1.51447,0.67839 -1.51447,1.51528 0,0.83633 0.67758,1.51472 1.51447,1.51472" />
    <path
       id="path860"
       style="fill:#cceef7;fill-opacity:1;fill-rule:nonzero;stroke:none;stroke-width:0.03527778"
       d="m 133.00384,195.86911 c 0.93169,0 1.68734,-0.756 1.68734,-1.68727 0,-0.93253 -0.75565,-1.68783 -1.68734,-1.68783 -0.93204,0 -1.68769,0.7553 -1.68769,1.68783 0,0.93127 0.75565,1.68727 1.68769,1.68727" />
    <path
       id="path862"
       style="fill:#cceef7;fill-opacity:1;fill-rule:nonzero;stroke:none;stroke-width:0.03527778"
       d="m 137.44531,196.01724 c 1.01353,0 1.8348,-0.82201 1.8348,-1.8354 0,-1.01395 -0.82127,-1.83529 -1.8348,-1.83529 -1.01353,0 -1.8348,0.82134 -1.8348,1.83529 0,1.01339 0.82127,1.8354 1.8348,1.8354" />
    <path
       id="path894"
       style="fill:#cceef7;fill-opacity:1;fill-rule:nonzero;stroke:none;stroke-width:0.03527778"
       d="m 128.5618,199.80618 c 0.65345,0 1.18237,-0.53001 1.18237,-1.18332 0,-0.65292 -0.52892,-1.18209 -1.18237,-1.18209 -0.65249,0 -1.18166,0.52917 -1.18166,1.18209 0,0.65331 0.52917,1.18332 1.18166,1.18332" />
    <path
       id="path896"
       style="fill:#cceef7;fill-opacity:1;fill-rule:nonzero;stroke:none;stroke-width:0.03527778"
       d="m 133.00384,199.97826 c 0.74824,0 1.35502,-0.60713 1.35502,-1.3554 0,-0.74747 -0.60678,-1.35421 -1.35502,-1.35421 -0.74895,0 -1.35502,0.60674 -1.35502,1.35421 0,0.74827 0.60607,1.3554 1.35502,1.3554" />
    <path
       id="path898"
       style="fill:#cceef7;fill-opacity:1;fill-rule:nonzero;stroke:none;stroke-width:0.03527778"
       d="m 137.44531,200.11401 c 0.82339,0 1.49049,-0.66696 1.49049,-1.49115 0,-0.82272 -0.6671,-1.4901 -1.49049,-1.4901 -0.82338,0 -1.49084,0.66738 -1.49084,1.4901 0,0.82419 0.66746,1.49115 1.49084,1.49115" />
    <path
       id="path1064"
       style="fill:#0092f4;fill-opacity:1;fill-rule:nonzero;stroke:none;stroke-width:0.03527778"
       d="m 143.04284,191.92297 c 0,5.52055 -4.47499,9.9949 -9.99561,9.9949 -5.51963,0 -9.99483,-4.47435 -9.99483,-9.9949 0,-5.5203 4.4752,-9.9956 9.99483,-9.9956 5.52062,0 9.99561,4.4753 9.99561,9.9956" />
    <path
       id="path1066"
       style="fill:#ffffff;fill-opacity:1;fill-rule:nonzero;stroke:none;stroke-width:0.03527778"
       d="m 141.63173,191.92297 c 0,4.74126 -3.84317,8.58379 -8.5845,8.58379 -4.74038,0 -8.58372,-3.84253 -8.58372,-8.58379 0,-4.74101 3.84334,-8.58449 8.58372,-8.58449 4.74133,0 8.5845,3.84348 8.5845,8.58449" />
    <path
       id="path1068"
       style="fill:#792132;fill-opacity:1;fill-rule:nonzero;stroke:none;stroke-width:0.03527778"
       d="m 132.49196,192.33361 c -0.0296,-0.59309 0.0709,-1.14872 0.22331,-1.70117 0.037,-0.2183 0.0758,-0.43945 0.11218,-0.66629 0.067,-0.41674 0.0737,-0.7946 -0.17145,-1.13813 -0.43215,-0.60784 -1.95756,0.0579 -2.37578,0.33694 l -0.004,0.005 c -1.14377,0.52987 -1.97612,1.3039 -2.56797,2.51107 -0.62082,1.26365 -0.93017,2.7299 -0.95776,4.14831 -0.0289,1.43909 0.58018,1.82316 1.82936,1.52012 1.00528,-0.24377 2.34873,-0.64481 3.11919,-1.41386 0.3168,-0.31546 0.52847,-0.63927 0.66817,-0.97691 0.14217,-0.88759 0.1718,-1.71592 0.12488,-2.62531" />
    <path
       id="path1070"
       style="fill:#e63c50;fill-opacity:1;fill-rule:nonzero;stroke:none;stroke-width:0.03527778"
       d="m 129.65115,196.91682 c -0.45406,0.15381 -0.94397,0.29327 -1.40424,0.40542 -1.06108,0.25826 -1.4056,-0.48659 -1.39594,-1.51377 0.008,-0.99025 0.17431,-1.983 0.48507,-2.91398 0.39067,-1.17123 0.87228,-2.24896 1.83967,-2.98623 0.26941,-0.20532 0.97843,-0.65582 1.69559,-0.94587 0.61277,-0.22959 1.4291,-0.52035 1.77094,0.0138 0.28328,0.44415 0.0311,1.24922 -0.14675,1.88034 -0.0663,0.3514 -0.11783,0.70351 -0.14676,1.05766 0.10619,1.03297 0.22931,2.25916 -0.19861,3.19606 -0.44627,0.9773 -1.46957,1.45948 -2.49897,1.80661" />
    <path
       id="path1072"
       style="fill:#6c1523;fill-opacity:1;fill-rule:nonzero;stroke:none;stroke-width:0.03527778"
       d="m 127.85445,197.37364 c -1.4e-4,0 -4.3e-4,0 -5.3e-4,0 1e-4,0 4e-4,0 5.3e-4,0 v 0 m 4.2e-4,0 c 0.11631,0 0.24458,-0.0161 0.38531,-0.05 -0.14083,0.0339 -0.269,0.05 -0.38531,0.05 m -1.00404,-1.54408 c 0,-0.007 1.4e-4,-0.0141 1.4e-4,-0.0211 0,0.007 -1.4e-4,0.0141 -1.4e-4,0.0211 m 0.48521,-2.93507 c 0.005,-0.0138 0.009,-0.0272 0.0136,-0.0409 -0.005,0.0138 -0.009,0.0276 -0.0136,0.0409 m 5.28116,-3.95471 c -0.14323,-0.19498 -0.35737,-0.26554 -0.60149,-0.26554 -0.10125,0 -0.20814,0.012 -0.3168,0.0324 0.10901,-0.0204 0.21555,-0.0328 0.31715,-0.0328 0.24377,0 0.45826,0.0705 0.60114,0.26596 v 0" />
    <path
       id="path1074"
       style="fill:#cc2939;fill-opacity:1;fill-rule:nonzero;stroke:none;stroke-width:0.03527778"
       d="m 127.85445,197.37364 c -1.4e-4,0 -4.3e-4,0 -5.3e-4,0 -0.74898,-2.5e-4 -1.00722,-0.66668 -1.00309,-1.54408 0,-0.007 1.4e-4,-0.0141 1.4e-4,-0.0211 v 0 c 0.008,-0.99025 0.17431,-1.983 0.48507,-2.91398 v 0 c 0.005,-0.0134 0.009,-0.0272 0.0136,-0.0409 0.031,-0.0916 0.0634,-0.18094 0.0952,-0.27135 -0.13437,0.44746 -0.24945,0.90067 -0.30526,1.36786 -0.0579,0.47829 -0.1076,1.12211 0.14993,1.57233 -0.0362,0.14993 -0.0652,0.30716 -0.0865,0.47265 l 0.009,-0.002 c 0.0299,-0.14719 0.066,-0.28721 0.10749,-0.4213 0.0551,0.0853 0.12252,0.16263 0.20422,0.22931 -0.008,0.12707 -0.0241,0.25121 -0.0547,0.36435 h 0.008 c 0.0441,-0.10721 0.0718,-0.21869 0.0894,-0.33264 0.1469,0.10171 0.33461,0.14221 0.54268,0.14221 0.0792,0 0.16136,-0.006 0.24515,-0.0165 -0.0558,0.25012 -0.14345,0.47155 -0.28124,0.61556 0.16962,-0.16013 0.27658,-0.37645 0.346,-0.62477 0.0888,-0.0134 0.1789,-0.0317 0.26942,-0.054 0.0781,0.29009 0.1064,0.59175 0.0757,0.89161 l 0.01,-0.001 c 0.0575,-0.30399 0.0445,-0.60953 -0.0171,-0.90731 0.26388,-0.0695 0.52722,-0.16647 0.75709,-0.25936 -0.0124,0.28691 0.0482,0.57796 0.21841,0.87312 l 0.008,-0.006 c -0.15749,-0.32431 -0.20106,-0.61602 -0.17322,-0.88903 0.16866,-0.0692 0.31697,-0.13448 0.43092,-0.18246 0.0761,-0.0321 0.1495,-0.0663 0.22048,-0.10223 7.2e-4,9.5e-4 0.001,0.002 0.002,0.003 0.0329,0.2614 0.0388,0.52172 -0.0126,0.78853 l 0.009,-0.001 c 0.0648,-0.25302 0.082,-0.50109 0.0689,-0.76208 -9.5e-4,-0.0204 -0.002,-0.0409 -0.004,-0.0613 0.15875,-0.0862 0.30427,-0.18355 0.43628,-0.29284 0.01,0.0292 0.0185,0.0586 0.0267,0.0882 -0.001,-0.017 -0.002,-0.0339 -0.004,-0.0508 0.005,0.0169 0.0102,0.0339 0.015,0.0508 v 0 0 c -0.002,-0.0371 -0.006,-0.0741 -0.01,-0.11147 0.22169,-0.18948 0.40513,-0.41342 0.55012,-0.67526 0.0187,0.0801 0.0413,0.15833 0.0649,0.23386 l 0.008,-0.005 c -0.0194,-0.0945 -0.0349,-0.18838 -0.0448,-0.2818 0.0593,-0.1126 0.11148,-0.2322 0.15699,-0.35884 0.14287,0.51579 0.19155,0.92533 0.0822,1.43481 l -0.0138,-0.005 c -0.52106,0.70845 -2.24713,1.55674 -3.46255,1.55674 -0.40432,0 -0.75198,-0.0938 -0.9802,-0.31774 l -0.0152,0.0138 c 0.25827,0.4064 0.67621,0.56899 1.15772,0.56899 1.20247,4.2e-4 2.80207,-1.01423 3.30584,-1.77945 -0.0208,0.0918 -0.0466,0.18701 -0.078,0.2865 l 0.0261,0.001 c 0.23777,-0.53552 0.27834,-1.00613 0.1584,-1.57801 -0.0275,-0.13367 -0.0557,-0.26028 -0.0825,-0.38309 0.0406,0.0593 0.0833,0.11935 0.12559,0.18137 0.23812,0.34572 0.37183,0.73586 0.33196,1.15824 l 0.005,-8.5e-4 c 0.0681,-0.34918 0.0261,-0.6398 -0.13441,-0.95635 -0.0931,-0.18231 -0.2226,-0.33513 -0.32843,-0.50299 0.0508,-0.20009 0.0847,-0.40361 0.10865,-0.60921 0.18839,0.13254 0.39511,0.25601 0.45826,0.47692 l 0.003,-6.6e-4 c -0.0314,-0.18379 -0.18167,-0.34861 -0.32031,-0.46425 -0.0423,-0.0353 -0.0868,-0.0674 -0.13124,-0.0995 0.0427,-0.40721 0.0512,-0.8213 0.0776,-1.23197 0.006,-0.009 0.0113,-0.019 0.0173,-0.0289 l -0.01,-0.003 c -0.002,0.002 -0.004,0.005 -0.006,0.008 0.007,-0.11398 0.0166,-0.22712 0.0279,-0.3404 0.26952,-0.21773 0.54716,-0.42622 0.768,-0.67564 -0.0257,0.0929 -0.0519,0.18384 -0.0765,0.27133 -0.0663,0.3514 -0.11783,0.70351 -0.14676,1.05766 v 0 0 c 0.049,0.47801 0.10196,0.99769 0.10196,1.51059 0,0.59546 -0.0706,1.18248 -0.30057,1.68547 -0.44626,0.9773 -1.46957,1.45948 -2.49897,1.80661 -0.45406,0.15381 -0.94396,0.29326 -1.40423,0.40541 v 0 c -0.002,2.9e-4 -0.005,9.8e-4 -0.007,0.001 -0.14073,0.0339 -0.269,0.05 -0.38531,0.05 -1.4e-4,0 -2.9e-4,0 -4.2e-4,0 m 0.0817,-0.69495 c -0.0317,0.017 -0.0627,0.0335 -0.0979,0.0448 l 7.1e-4,0.0176 c 0.0351,-0.0176 0.0648,-0.0412 0.0971,-0.0624 m 0.0469,-0.0303 -0.0469,0.0303 0.0469,-0.0303 m 0.0662,-0.0518 -0.0662,0.0518 0.0662,-0.0518 m 0.0234,-0.0226 -0.0234,0.0226 0.0234,-0.0226 m 4.10255,-6.69053 c -3.4e-4,-0.001 -0.001,-0.003 -0.001,-0.004 0.11465,-0.36833 0.15593,-0.74443 -0.15593,-0.94273 -0.14181,-0.0896 -0.30303,-0.12375 -0.47025,-0.12375 -0.14464,0 -0.29351,0.0258 -0.4385,0.0631 0.19191,-0.0681 0.3944,-0.13229 0.58984,-0.16936 0.10866,-0.0204 0.21555,-0.0324 0.3168,-0.0324 0.24412,0 0.45826,0.0706 0.60148,0.26554 -0.0183,0.0777 -0.0392,0.15462 -0.0624,0.2304 -0.0811,0.26596 -0.21449,0.49995 -0.37959,0.71328" />
    <path
       id="path1076"
       style="fill:#bf202b;fill-opacity:1;fill-rule:nonzero;stroke:none;stroke-width:0.03527778"
       d="m 128.04918,196.59657 0.0234,-0.0226 -0.0234,0.0226" />
    <path
       id="path1078"
       style="fill:#d82b3a;fill-opacity:1;fill-rule:nonzero;stroke:none;stroke-width:0.03527778"
       d="m 128.35384,195.9584 c 0.11744,-0.52504 0.0944,-1.17616 0.10047,-1.5004 0.006,-0.29711 0.0214,-0.58318 0.1137,-0.84847 -0.37278,0.37222 -0.69522,0.76634 -0.94329,1.23155 -0.0383,0.32357 -0.008,0.66781 -0.0587,0.99166 -0.0121,-0.008 -0.0241,-0.0172 -0.0357,-0.0265 -0.002,-0.002 -0.004,-0.003 -0.007,-0.005 0.0134,-0.2074 0.006,-0.42334 0.007,-0.61348 0,-0.0557 0,-0.1101 0.002,-0.16401 -0.081,0.17254 -0.15268,0.35415 -0.2129,0.54818 -0.0103,-0.0163 -0.0204,-0.0328 -0.0299,-0.0493 0.19431,-0.80821 0.5956,-1.40945 1.13718,-1.94112 -0.16605,0.0689 -0.33348,0.13409 -0.4936,0.21569 0.0433,-0.0579 0.088,-0.11466 0.13433,-0.17075 0.16881,-0.0805 0.34562,-0.14333 0.52533,-0.19762 0.0413,-0.0382 0.0799,-0.0758 0.12195,-0.11328 l 0.031,-0.0487 0.0461,-0.018 c 0.10446,-0.0889 0.21252,-0.17639 0.32399,-0.26349 -9.5e-4,0.004 -0.002,0.007 -0.003,0.0106 -0.0504,0.0789 -0.0992,0.15875 -0.14608,0.2395 -0.0478,0.0434 -0.0951,0.0871 -0.14192,0.13049 l -0.0131,0.0377 -0.0613,0.0296 -0.0269,0.0258 c -0.0674,0.18521 -0.10322,0.40637 -0.12527,0.64587 -0.0489,0.17363 -0.0894,0.3514 -0.11797,0.53029 0.0255,-0.067 0.0496,-0.1337 0.0779,-0.2008 0.007,-0.0229 0.0139,-0.0457 0.021,-0.0688 -0.0158,0.2727 -0.0228,0.5599 -0.0437,0.83852 0.096,0.21706 0.17293,0.44319 0.22063,0.67388 -0.0228,0.006 -0.0455,0.0116 -0.0682,0.0172 -0.002,-0.008 -0.005,-0.0168 -0.007,-0.0253 -0.0476,-0.17036 -0.11162,-0.32248 -0.16192,-0.4837 -0.0208,0.19759 -0.0513,0.38806 -0.10047,0.56307 -0.0216,0.004 -0.0433,0.007 -0.0648,0.009 m -1.22866,-1.29047 -0.008,-6.6e-4 c 0.0678,-0.15946 0.1392,-0.31006 0.2292,-0.44733 -10e-4,0.0353 -0.002,0.0706 -0.003,0.10626 -0.0758,0.10721 -0.14591,0.22214 -0.21897,0.34174 m 0.3514,-0.5122 c 0.0106,-0.048 0.0214,-0.0956 0.0327,-0.14362 0.0594,-0.0635 0.12622,-0.12276 0.20228,-0.17706 0.0283,-0.0204 0.0568,-0.0398 0.0857,-0.0586 -0.0437,0.0617 -0.0855,0.12415 -0.12513,0.18839 -0.0722,0.0586 -0.13642,0.12234 -0.19555,0.19085 m 1.86504,-1.25236 c 0.0346,-0.0593 0.0728,-0.11783 0.11412,-0.17502 0.0683,-0.0504 0.13794,-0.10114 0.20849,-0.15201 l 0.0165,0.0335 c -0.11522,0.0995 -0.22821,0.19692 -0.33916,0.29355" />
    <path
       id="path1080"
       style="fill:#bf202b;fill-opacity:1;fill-rule:nonzero;stroke:none;stroke-width:0.03527778"
       d="m 128.7637,196.78675 c 0.0307,-0.29986 0.002,-0.60152 -0.0757,-0.89161 0.0228,-0.006 0.0455,-0.0111 0.0682,-0.0172 0.0616,0.29778 0.0746,0.60332 0.0171,0.90731 l -0.01,0.001 m -0.69109,-0.21277 c 0.13779,-0.14401 0.22542,-0.36544 0.28123,-0.61556 0.0215,-0.002 0.0431,-0.006 0.0648,-0.009 -0.0694,0.24832 -0.17639,0.46464 -0.346,0.62477 m -0.59602,-0.4086 h -0.008 c 0.0306,-0.11313 0.0466,-0.23728 0.0547,-0.36435 0.002,0.002 0.004,0.004 0.007,0.005 0.0116,0.009 0.0236,0.018 0.0357,0.0265 -0.0176,0.11395 -0.0453,0.22543 -0.0894,0.33264 m -0.27354,-0.17037 c 0.0214,-0.16549 0.0503,-0.32272 0.0865,-0.47265 0.01,0.0165 0.0196,0.0331 0.0299,0.0493 -0.0415,0.13409 -0.0776,0.27411 -0.1075,0.42129 l -0.009,0.002" />
    <path
       id="path1082"
       style="fill:#bf202b;fill-opacity:1;fill-rule:nonzero;stroke:none;stroke-width:0.03527778"
       d="m 127.83903,196.74114 -7.1e-4,-0.0176 c 0.0351,-0.0113 0.0661,-0.0278 0.0979,-0.0448 -0.0324,0.0212 -0.062,0.0448 -0.0972,0.0624" />
    <path
       id="path1084"
       style="fill:#bf202b;fill-opacity:1;fill-rule:nonzero;stroke:none;stroke-width:0.03527778"
       d="m 127.93619,196.6787 0.0469,-0.0303 -0.0469,0.0303" />
    <path
       id="path1086"
       style="fill:#bf202b;fill-opacity:1;fill-rule:nonzero;stroke:none;stroke-width:0.03527778"
       d="m 127.98304,196.64839 0.0661,-0.0518 -0.0661,0.0518" />
    <path
       id="path1088"
       style="fill:#d82b3a;fill-opacity:1;fill-rule:nonzero;stroke:none;stroke-width:0.03527778"
       d="m 127.73278,193.20246 c 0.005,-0.0152 0.01,-0.0303 0.0146,-0.0452 0.27312,-0.25576 0.59323,-0.42831 0.95359,-0.56127 0.14334,-0.0525 0.28829,-0.0751 0.4341,-0.0878 -0.0517,0.0356 -0.10294,0.072 -0.15367,0.10862 -0.45682,0.097 -0.88523,0.29531 -1.24862,0.58565 m 1.44984,-0.61627 c 0.0393,-0.03 0.0788,-0.0596 0.11864,-0.0897 0.0202,-9.5e-4 0.0405,-0.002 0.0608,-0.003 -0.0197,0.028 -0.0385,0.0558 -0.0561,0.0834 -0.0411,0.003 -0.0823,0.006 -0.12333,0.01 m 0.41533,-0.0382 c 0.0234,-0.0271 0.0476,-0.0543 0.0722,-0.0807 0.0605,-0.008 0.12072,-0.0194 0.1808,-0.0346 v 0.0395 c -0.0821,0.0387 -0.1669,0.0613 -0.25301,0.0758" />
    <path
       id="path1090"
       style="fill:#d82b3a;fill-opacity:1;fill-rule:nonzero;stroke:none;stroke-width:0.03527778"
       d="m 128.48807,191.53354 c 0.002,-0.004 0.005,-0.008 0.007,-0.0117 0.12623,-0.0308 0.24476,-0.13258 0.34837,-0.20038 0.14125,-0.0925 0.27767,-0.18881 0.40238,-0.30441 0.0614,-0.0572 0.1192,-0.10831 0.18193,-0.1524 -0.2037,0.0321 -0.4009,0.0843 -0.58621,0.16619 0.0364,-0.0456 0.0732,-0.0907 0.11105,-0.1348 0.26762,-0.11821 0.56046,-0.18767 0.84928,-0.21731 0.0656,-0.007 0.13201,-0.01 0.19914,-0.01 0.36929,0 0.76006,0.0914 1.14459,0.14951 -0.0632,0.0219 -0.127,0.0424 -0.19121,0.0615 -0.30349,-0.0296 -0.61937,-0.0579 -0.93105,-0.0579 -0.14457,0 -0.28829,0.006 -0.42954,0.0208 -0.10544,0.0638 -0.20673,0.12594 -0.30455,0.21481 -0.10887,0.0977 -0.22807,0.18453 -0.35278,0.26183 -0.12859,0.0797 -0.28871,0.199 -0.44856,0.21417 m 2.85948,-0.84818 c -0.0709,-0.0532 -0.139,-0.11219 -0.2032,-0.1735 -0.0938,-0.0896 -0.19862,-0.16619 -0.30727,-0.2329 -0.0473,-0.003 -0.0925,-0.006 -0.13836,-0.006 -0.0365,0 -0.0733,0.003 -0.1119,0.009 -0.0854,0.0138 -0.16193,0.0494 -0.25012,0.0522 -0.0198,6.6e-4 -0.0397,9.5e-4 -0.0594,9.5e-4 -0.15254,0 -0.30096,-0.0218 -0.44496,-0.0769 l 0.005,-0.009 c 0.0943,0.023 0.18507,0.0318 0.27478,0.0318 0.15998,0 0.3164,-0.0287 0.48246,-0.0586 0.0296,-0.006 0.0703,-0.0124 0.11094,-0.0166 -0.22973,-0.11716 -0.48094,-0.18976 -0.73741,-0.21939 0.0182,-0.0127 0.0365,-0.0257 0.055,-0.0384 0.22902,0.0138 0.44785,0.0685 0.68308,0.17998 0.2637,0.12443 0.47608,0.33789 0.70961,0.50186 -0.0226,0.0188 -0.0452,0.0371 -0.0681,0.0554 m -1.77084,-0.71011 0.002,-0.009 c 0.0182,-0.002 0.0361,-0.004 0.054,-0.006 -0.006,0.004 -0.0131,0.009 -0.0196,0.0134 -0.0121,4.2e-4 -0.0244,0.001 -0.0365,0.002" />
    <path
       id="path1092"
       style="fill:#d82b3a;fill-opacity:1;fill-rule:nonzero;stroke:none;stroke-width:0.03527778"
       d="m 131.49571,190.08147 c -0.13899,0 -0.27904,-0.018 -0.41557,-0.0409 -0.24553,-0.0413 -0.4488,-0.19554 -0.59693,-0.38915 0.006,-0.004 0.0128,-0.008 0.0193,-0.0116 0.28131,0.2716 0.63409,0.34851 1.00768,0.34851 0.0843,0 0.16968,-0.004 0.25541,-0.0102 0.054,-0.004 0.1016,-0.007 0.14393,-0.007 0.0684,0 0.12418,0.007 0.17463,0.024 -0.0222,0.026 -0.0452,0.0522 -0.0684,0.0776 -0.0466,-0.01 -0.0946,-0.014 -0.14711,-0.014 -0.0663,0 -0.14041,0.007 -0.22825,0.0154 -0.048,0.005 -0.0963,0.007 -0.14464,0.007 m 0.63112,-0.13724 c -0.0205,-0.0382 -0.0427,-0.0769 -0.0677,-0.11507 -0.22154,-0.34325 -0.51647,-0.54183 -0.86995,-0.57919 0.042,-0.023 0.0843,-0.0459 0.12629,-0.0685 0.15135,0.0183 0.29634,0.0681 0.41452,0.15558 0.16333,0.11987 0.30586,0.25894 0.39758,0.44302 0.0159,0.0321 0.031,0.0658 0.0462,0.0992 -0.001,0.003 -0.002,0.007 -0.004,0.0106 -0.0141,0.0183 -0.0286,0.0362 -0.0434,0.0543 m -1.40289,-0.65719 v -0.0258 c 0.13219,-0.0551 0.28671,-0.0868 0.44193,-0.0882 -0.0603,0.024 -0.11995,0.0483 -0.17886,0.0726 -0.085,0.005 -0.17286,0.019 -0.26307,0.0413" />
    <path
       id="path1094"
       style="fill:#bf202b;fill-opacity:1;fill-rule:nonzero;stroke:none;stroke-width:0.03527778"
       d="m 132.17023,189.88995 c 0.001,-0.004 0.002,-0.007 0.004,-0.0106 3.4e-4,0.001 0.001,0.003 0.001,0.004 -0.001,0.002 -0.003,0.004 -0.005,0.006" />
    <path
       id="path1096"
       style="fill:#d82b3a;fill-opacity:1;fill-rule:nonzero;stroke:none;stroke-width:0.03527778"
       d="m 131.29569,194.28725 c -0.0667,-0.28511 -0.0847,-0.58952 0.0642,-0.84984 -0.0427,-0.18161 -0.0667,-0.35884 -0.0787,-0.56169 -0.025,-0.46274 0.23459,-0.9168 0.49494,-1.27452 -3.4e-4,0.008 -0.001,0.0158 -0.001,0.024 -0.21025,0.355 -0.29739,0.67207 -0.31644,0.98597 0.0265,0.0513 0.0561,0.0981 0.0953,0.13314 0.0452,0.0409 0.0942,0.0769 0.14358,0.11286 -0.003,0.0292 -0.006,0.0582 -0.01,0.0875 -0.0868,-0.0615 -0.17004,-0.12499 -0.23283,-0.20123 -7.2e-4,0.2449 0.0349,0.49005 0.0882,0.7505 0.0116,0.0204 0.0236,0.0401 0.036,0.0599 -0.0219,0.0871 -0.0466,0.17322 -0.0755,0.25852 -0.007,0.0212 -0.0145,0.0427 -0.0222,0.0635 -0.0187,-0.0678 -0.0392,-0.13752 -0.061,-0.20959 -0.0131,-0.0462 -0.024,-0.0903 -0.0367,-0.13367 -0.0734,0.2322 -0.0843,0.46563 -0.0593,0.7021 -0.009,0.0176 -0.0187,0.0353 -0.0282,0.0525" />
    <path
       id="path1098"
       style="fill:#bf202b;fill-opacity:1;fill-rule:nonzero;stroke:none;stroke-width:0.03527778"
       d="m 131.50312,195.63553 -0.0261,-10e-4 c 0.0314,-0.0995 0.0571,-0.19473 0.078,-0.28649 0.007,-0.0105 0.0141,-0.0215 0.0205,-0.0321 l -0.0123,-0.005 c 0.10936,-0.50948 0.0607,-0.91902 -0.0822,-1.43481 0.008,-0.0208 0.0152,-0.0423 0.0222,-0.0635 0.0289,-0.0853 0.0536,-0.17142 0.0755,-0.25852 0.10583,0.16785 0.2353,0.32068 0.32843,0.50299 0.16052,0.31655 0.2025,0.60717 0.13441,0.95635 l -0.005,8.4e-4 c 0.0399,-0.42238 -0.0938,-0.81251 -0.33196,-1.15824 -0.0423,-0.062 -0.085,-0.12209 -0.12559,-0.18136 0.0268,0.1228 0.055,0.24941 0.0825,0.38308 0.11994,0.57189 0.0794,1.04249 -0.1584,1.57801 m -0.14252,-1.11443 c -0.0236,-0.0755 -0.0462,-0.15378 -0.0649,-0.23386 0.01,-0.0172 0.019,-0.0349 0.0282,-0.0525 0.01,0.0934 0.0254,0.18726 0.0448,0.2818 l -0.008,0.005 m 0.78493,-1.09954 c -0.0632,-0.22091 -0.26987,-0.34438 -0.45826,-0.47692 0.004,-0.0294 0.007,-0.0583 0.01,-0.0875 0.0445,0.0321 0.0889,0.0642 0.13124,0.0995 0.13864,0.11564 0.28892,0.28046 0.32032,0.46429 l -0.003,6.7e-4 m -0.37077,-1.79647 c 3.4e-4,-0.008 0.001,-0.0158 0.001,-0.024 0.002,-0.003 0.004,-0.006 0.006,-0.008 l 0.01,0.003 c -0.006,0.01 -0.0116,0.0194 -0.0173,0.0289" />
    <path
       id="path1100"
       style="fill:#d82b3a;fill-opacity:1;fill-rule:nonzero;stroke:none;stroke-width:0.03527778"
       d="m 129.51335,195.61857 c 0.0179,-0.41547 0.18934,-0.82159 0.40266,-1.21709 0.009,0.0622 0.0201,0.12432 0.0329,0.18634 -0.18616,0.32452 -0.34547,0.65084 -0.38212,1.00898 -0.0175,0.007 -0.0354,0.0145 -0.0534,0.0218 m 0.75378,-0.33225 c -0.0228,-0.14538 -0.0397,-0.28896 -0.0507,-0.43035 0.0261,0.14111 0.0533,0.28183 0.0652,0.42266 -0.005,0.002 -0.01,0.005 -0.0145,0.008 m -0.0529,-1.14857 c 0.008,-0.10668 0.0204,-0.21209 0.0367,-0.31655 0.023,-0.0387 0.046,-0.0776 0.0686,-0.11645 0.007,0.0601 0.0168,0.12252 0.0293,0.18838 -0.0429,0.0827 -0.0883,0.16373 -0.13462,0.24462 m 0.18299,-0.34011 c -0.0138,-0.0568 -0.0247,-0.11395 -0.0323,-0.17075 0.0677,-0.11712 0.13244,-0.23329 0.19086,-0.34794 l 0.0365,0.009 c -0.0465,0.17748 -0.11507,0.34643 -0.19515,0.50987" />
    <path
       id="path1102"
       style="fill:#bf202b;fill-opacity:1;fill-rule:nonzero;stroke:none;stroke-width:0.03527778"
       d="m 129.73176,196.49169 c -0.17018,-0.29517 -0.23083,-0.58621 -0.21841,-0.87312 0.018,-0.007 0.0359,-0.0145 0.0534,-0.0218 -0.0278,0.27301 0.0157,0.56472 0.17321,0.88896 l -0.008,0.006 m 0.47611,-0.38827 c 0.0514,-0.26681 0.0455,-0.52712 0.0126,-0.78853 0.0208,0.0287 0.0426,0.0565 0.0653,0.0836 v 0 0 c -0.007,-0.0378 -0.0128,-0.0748 -0.0186,-0.11219 0.005,-0.002 0.01,-0.005 0.0145,-0.008 0.002,0.0204 0.003,0.0409 0.004,0.0613 0.0131,0.26099 -0.004,0.50906 -0.0689,0.76207 l -0.009,0.001" />
    <path
       id="path1104"
       style="fill:#f3637f;fill-opacity:1;fill-rule:nonzero;stroke:none;stroke-width:0.03527778"
       d="m 127.35629,194.5984 c -0.006,0 -0.011,-0.004 -0.0113,-0.0145 -0.002,-0.0857 -0.002,-0.17183 -8.5e-4,-0.25781 0.0421,-0.0594 0.0856,-0.11645 0.13244,-0.17046 -0.0305,0.13794 -0.0581,0.27587 -0.0834,0.41243 -0.002,0.0123 -0.0233,0.0303 -0.0369,0.0303 m -0.009,-0.37853 c 0.0417,-1.30101 0.46591,-2.58865 1.4169,-3.53589 0.2818,-0.28003 0.56166,-0.51153 0.84956,-0.71053 0.0304,-0.001 0.0609,-0.002 0.0913,-0.002 0.088,0 0.176,0.005 0.26335,0.0149 -0.27227,0.19223 -0.53206,0.40361 -0.77294,0.6459 -0.0841,0.0847 -0.16481,0.17251 -0.24225,0.2636 -0.34533,0.15243 -0.64865,0.38586 -0.84776,0.7203 l 0.005,0.002 c 0.20687,-0.27989 0.45642,-0.46605 0.73191,-0.58773 -0.12404,0.15625 -0.2394,0.32064 -0.34647,0.491 -0.0121,0.003 -0.0244,0.005 -0.0368,0.007 l -0.002,0.006 c 0.0106,-2.5e-4 0.0211,-6.6e-4 0.0317,-0.002 -0.0247,0.0394 -0.0488,0.0789 -0.0725,0.11917 -0.0657,0.055 -0.1295,0.11176 -0.19071,0.17102 l 0.022,-0.0172 c 0.0394,-0.0254 0.0798,-0.0491 0.12072,-0.0717 -0.25506,0.44591 -0.45861,0.92851 -0.62026,1.4224 -0.0485,0.0452 -0.0956,0.0936 -0.14125,0.14429 l 0.004,0.004 c 0.04,-0.0356 0.0808,-0.0701 0.12252,-0.10337 -0.0863,0.26818 -0.16027,0.53936 -0.22352,0.80959 -0.061,0.0653 -0.11437,0.13452 -0.16245,0.20782 m 2.286,-4.25983 c 0.42347,-0.29034 0.86444,-0.51111 1.35421,-0.71438 0.0261,-0.001 0.0519,-0.002 0.0776,-0.002 0.0423,0 0.084,0.002 0.12453,0.006 -0.23178,0.12623 -0.46175,0.25397 -0.68665,0.38986 -0.0209,-0.0205 -0.0416,-0.0418 -0.0617,-0.0642 l -0.007,0.007 c 0.0157,0.0237 0.0321,0.0466 0.0494,0.0692 -0.15628,0.0945 -0.31006,0.19294 -0.46027,0.29669 -0.0397,-0.002 -0.0797,-0.004 -0.12002,-0.004 -0.0874,0 -0.17695,0.006 -0.27012,0.0156 m 1.68264,-0.77859 c -0.0459,-0.006 -0.0924,-0.008 -0.13899,-0.008 -0.004,0 -0.007,0 -0.0106,0 0.15663,-0.0621 0.31785,-0.12319 0.48542,-0.18451 l 0.001,0.0109 c -0.11254,0.061 -0.22507,0.12138 -0.33726,0.18203" />
    <path
       id="path1106"
       style="fill:#f2536e;fill-opacity:1;fill-rule:nonzero;stroke:none;stroke-width:0.03527778"
       d="m 127.34416,194.32613 c 7.1e-4,-0.0357 0.002,-0.071 0.003,-0.10626 0.0481,-0.0733 0.10142,-0.14248 0.16245,-0.20782 -0.0113,0.048 -0.022,0.0956 -0.0327,0.14362 -0.0469,0.054 -0.0904,0.11105 -0.13243,0.17046" />
    <path
       id="path1108"
       style="fill:#f2536e;fill-opacity:1;fill-rule:nonzero;stroke:none;stroke-width:0.03527778"
       d="m 127.61026,193.30583 -0.004,-0.004 c 0.0456,-0.0507 0.0927,-0.0991 0.14125,-0.14429 -0.005,0.0149 -0.01,0.03 -0.0146,0.0452 -0.0418,0.0332 -0.0825,0.0678 -0.12252,0.10336" />
    <path
       id="path1110"
       style="fill:#f2536e;fill-opacity:1;fill-rule:nonzero;stroke:none;stroke-width:0.03527778"
       d="m 128.10979,191.61856 -0.005,-0.002 c 0.19911,-0.33444 0.50243,-0.56787 0.84776,-0.7203 -0.0379,0.0441 -0.0747,0.0892 -0.11105,0.13479 -0.27549,0.12168 -0.52504,0.30784 -0.73191,0.58773 m 0.3466,-0.0834 0.002,-0.006 c 0.0124,-0.002 0.0247,-0.004 0.0368,-0.007 -0.002,0.004 -0.005,0.008 -0.007,0.0117 -0.0106,9.5e-4 -0.0211,0.001 -0.0317,0.002 m 1.51154,-1.54862 c -0.0873,-0.01 -0.1754,-0.0149 -0.26335,-0.0149 -0.0304,0 -0.0609,4.3e-4 -0.0913,0.002 0.006,-0.005 0.0131,-0.009 0.0195,-0.0134 0.0932,-0.01 0.18274,-0.0155 0.27013,-0.0155 0.0404,0 0.0803,0.002 0.12001,0.004 -0.0185,0.0127 -0.0368,0.0258 -0.055,0.0384" />
    <path
       id="path1112"
       style="fill:#f2536e;fill-opacity:1;fill-rule:nonzero;stroke:none;stroke-width:0.03527778"
       d="m 130.48321,189.6514 c -0.0173,-0.0226 -0.0336,-0.0455 -0.0494,-0.0692 l 0.007,-0.007 c 0.0201,0.0224 0.0408,0.0437 0.0617,0.0642 -0.006,0.004 -0.013,0.008 -0.0193,0.0116 m 0.70595,-0.40143 c -0.0406,-0.004 -0.0822,-0.006 -0.12453,-0.006 -0.0257,0 -0.0515,7.2e-4 -0.0776,0.002 0.0589,-0.0244 0.11853,-0.0486 0.17886,-0.0726 0.004,0 0.007,0 0.0106,0 0.0466,0 0.0931,0.003 0.13899,0.008 -0.042,0.0226 -0.0843,0.0455 -0.12629,0.0685" />
    <path
       id="path1114"
       style="fill:#f2536e;fill-opacity:1;fill-rule:nonzero;stroke:none;stroke-width:0.03527778"
       d="m 128.24914,197.12711 c -0.48151,0 -0.89945,-0.16259 -1.15771,-0.56899 l 0.0152,-0.0138 c 0.22822,0.22391 0.57588,0.31775 0.9802,0.31775 1.21542,0 2.94149,-0.84829 3.46255,-1.55674 l 0.0137,0.005 c -0.002,0.0123 -0.005,0.0247 -0.008,0.0369 -0.50376,0.76521 -2.10336,1.77987 -3.30584,1.77944" />
    <path
       id="path1116"
       style="fill:#f14a63;fill-opacity:1;fill-rule:nonzero;stroke:none;stroke-width:0.03527778"
       d="m 131.55498,195.34767 c 0.003,-0.0123 0.006,-0.0247 0.008,-0.0369 l 0.0123,0.005 c -0.006,0.0106 -0.0134,0.0216 -0.0205,0.0321" />
    <path
       id="path1118"
       style="fill:#792132;fill-opacity:1;fill-rule:nonzero;stroke:none;stroke-width:0.03527778"
       d="m 133.72809,194.95891 c 0.139,0.33764 0.35137,0.66145 0.66711,0.97691 0.77152,0.76905 2.11455,1.17009 3.12031,1.41386 1.24919,0.30304 1.85773,-0.081 1.82951,-1.52012 -0.0275,-1.41841 -0.33761,-2.88466 -0.95779,-4.14831 -0.59267,-1.20717 -1.42487,-1.9812 -2.56858,-2.51107 l -0.004,-0.005 c -0.41842,-0.27905 -1.94384,-0.94478 -2.37564,-0.33694 -0.24482,0.34353 -0.23847,0.72139 -0.1718,1.13813 0.0367,0.22684 0.0751,0.44799 0.11254,0.66629 0.15205,0.55245 0.25259,1.10808 0.22225,1.70117 -0.0452,0.90939 -0.0169,1.73771 0.12629,2.6253" />
    <path
       id="path1120"
       style="fill:#e63c50;fill-opacity:1;fill-rule:nonzero;stroke:none;stroke-width:0.03527778"
       d="m 133.94435,195.11021 c -0.42722,-0.9369 -0.30445,-2.16309 -0.19827,-3.19606 -0.0289,-0.35415 -0.0808,-0.70626 -0.14675,-1.05766 -0.1778,-0.63112 -0.43004,-1.43619 -0.14605,-1.88034 0.34078,-0.53411 1.15817,-0.24335 1.76988,-0.0138 0.71791,0.29005 1.42629,0.74055 1.69581,0.94587 0.96802,0.73727 1.44886,1.815 1.83973,2.98623 0.3101,0.93098 0.47731,1.92373 0.48578,2.91398 0.01,1.02718 -0.33514,1.77203 -1.39594,1.51377 -0.46038,-0.11215 -0.95039,-0.25161 -1.40371,-0.40542 -1.03011,-0.34713 -2.05387,-0.82931 -2.50048,-1.80661" />
    <path
       id="path1122"
       style="fill:#6c1523;fill-opacity:1;fill-rule:nonzero;stroke:none;stroke-width:0.03527778"
       d="m 138.7587,192.89449 c -0.005,-0.0134 -0.009,-0.0272 -0.0138,-0.0409 0.005,0.0138 0.009,0.0271 0.0138,0.0409 m -5.28108,-3.95429 v 0 c 0.14288,-0.1954 0.35736,-0.26638 0.60113,-0.26638 0.11571,0 0.23778,0.0158 0.36231,0.0416 -0.12453,-0.0258 -0.2466,-0.0412 -0.36195,-0.0412 -0.24413,0 -0.45861,0.0706 -0.60149,0.26596" />
    <path
       id="path1124"
       style="fill:#cc2939;fill-opacity:1;fill-rule:nonzero;stroke:none;stroke-width:0.03527778"
       d="m 138.24083,197.37364 c -0.11818,0 -0.24871,-0.0165 -0.39229,-0.0514 -0.46038,-0.11215 -0.95039,-0.25161 -1.40371,-0.40542 -1.03011,-0.34713 -2.05387,-0.82931 -2.50048,-1.80661 -0.22931,-0.50299 -0.30022,-1.09001 -0.30022,-1.68546 0,-0.51291 0.0526,-1.03258 0.10195,-1.5106 v 0 0 c -0.0289,-0.35415 -0.0808,-0.70626 -0.14675,-1.05766 -0.0254,-0.0896 -0.0522,-0.18313 -0.0787,-0.27795 0.22084,0.25107 0.49953,0.46136 0.77011,0.68117 0.0116,0.11356 0.0205,0.22751 0.0279,0.34188 -0.002,-0.003 -0.004,-0.006 -0.006,-0.009 l -0.01,0.003 c 0.006,0.01 0.0116,0.0198 0.0176,0.0294 0.0261,0.41025 0.0346,0.82434 0.0773,1.23088 -0.0445,0.0324 -0.0885,0.0649 -0.13017,0.10015 -0.1397,0.11564 -0.28999,0.28046 -0.32103,0.46429 l 0.003,6.7e-4 c 0.0632,-0.22091 0.26988,-0.34439 0.45826,-0.47693 0.024,0.2056 0.0582,0.40912 0.10865,0.60922 -0.10653,0.16785 -0.236,0.32067 -0.32843,0.50299 -0.16052,0.31654 -0.20391,0.60716 -0.13512,0.95634 l 0.006,8.5e-4 c -0.0399,-0.42238 0.0931,-0.81252 0.33162,-1.15824 0.042,-0.062 0.0847,-0.1221 0.12523,-0.18136 -0.0268,0.1228 -0.0543,0.24941 -0.0825,0.38308 -0.11924,0.57189 -0.0787,1.04249 0.15769,1.57801 l 0.0268,-0.001 c -0.0314,-0.10019 -0.0575,-0.19583 -0.0783,-0.28787 0.50201,0.76521 2.10291,1.78082 3.30624,1.78082 0.48154,0 0.89958,-0.16259 1.15781,-0.56899 l -0.0152,-0.0138 c -0.22824,0.22391 -0.57573,0.31775 -0.98037,0.31775 -1.21531,0 -2.9411,-0.84829 -3.4618,-1.55674 l -0.0145,0.006 c -0.10901,-0.50977 -0.0603,-0.91998 0.0825,-1.43581 0.0455,0.12665 0.0977,0.24628 0.15663,0.35955 -0.01,0.0934 -0.025,0.18726 -0.0441,0.2818 l 0.007,0.005 c 0.024,-0.0755 0.0466,-0.15377 0.0653,-0.23385 0.14499,0.26211 0.32808,0.48644 0.55033,0.67553 -0.004,0.0375 -0.007,0.0745 -0.01,0.1112 0.009,-0.0318 0.0187,-0.0635 0.0289,-0.0949 0.13441,0.11214 0.28258,0.21166 0.4445,0.29958 -0.002,0.0204 -0.003,0.0409 -0.004,0.0613 -0.013,0.26098 0.004,0.50905 0.0699,0.76207 l 0.007,0.001 v 0 c -0.0508,-0.26639 -0.0444,-0.5267 -0.0116,-0.78811 7.2e-4,-0.001 0.002,-0.002 0.002,-0.003 0.0709,0.0362 0.14429,0.0701 0.22014,0.10224 0.11394,0.048 0.26211,0.11327 0.43074,0.18245 0.0282,0.27302 -0.0152,0.56473 -0.17251,0.88897 l 0.008,0.006 c 0.17004,-0.29517 0.23036,-0.58621 0.21802,-0.87313 0.22965,0.0929 0.49283,0.1899 0.75635,0.25936 -0.0614,0.29778 -0.0741,0.60332 -0.0169,0.90731 l 0.009,10e-4 v 0 c -0.0303,-0.29986 -0.003,-0.60152 0.0762,-0.89161 0.0907,0.0219 0.18062,0.0407 0.26917,0.054 0.0699,0.24804 0.1771,0.46465 0.34713,0.62477 -0.13793,-0.144 -0.22577,-0.36544 -0.28186,-0.61556 0.084,0.0105 0.1658,0.0165 0.24518,0.0165 0.20813,0 0.39581,-0.0405 0.54292,-0.1422 0.0176,0.11394 0.0452,0.22542 0.0889,0.33263 h 0.008 c -0.031,-0.11314 -0.0473,-0.23728 -0.0554,-0.36474 0.0818,-0.0666 0.14923,-0.14389 0.20426,-0.22958 0.0413,0.13433 0.0773,0.27477 0.10724,0.42195 l 0.008,0.002 c -0.0215,-0.16506 -0.0501,-0.32244 -0.0864,-0.47237 0.25788,-0.45007 0.20885,-1.09389 0.15099,-1.57261 -0.0564,-0.46718 -0.17074,-0.9204 -0.30586,-1.36786 0.0317,0.0904 0.0642,0.1797 0.0952,0.27136 0.005,0.0138 0.009,0.0275 0.0138,0.0409 v 0 c 0.31009,0.93098 0.47731,1.92373 0.48578,2.91398 0,0.0138 0,0.0275 0,0.0412 0,0.8679 -0.26,1.52396 -1.00365,1.52396 m -0.0818,-0.69494 c 0.0317,0.0212 0.0621,0.0448 0.0974,0.0624 v -0.0176 c -0.0353,-0.0113 -0.067,-0.0278 -0.0974,-0.0448 m -0.0473,-0.0303 0.0473,0.0303 -0.0473,-0.0303 m -0.0663,-0.0518 0.0663,0.0518 -0.0663,-0.0518 m -0.0226,-0.0226 0.0226,0.0226 -0.0226,-0.0226 m -4.10303,-6.6907 c -0.1651,-0.21304 -0.29845,-0.44704 -0.37994,-0.713 -0.0233,-0.0758 -0.0441,-0.15268 -0.0624,-0.22997 0.14287,-0.1954 0.35736,-0.26596 0.60148,-0.26596 0.11536,0 0.23742,0.0154 0.36195,0.0412 0.18169,0.0382 0.36795,0.0974 0.54505,0.16055 -0.14535,-0.0374 -0.29493,-0.0631 -0.43956,-0.0631 -0.16722,0 -0.32844,0.0342 -0.4699,0.12375 -0.31151,0.1983 -0.27023,0.57478 -0.15523,0.9434 -3.4e-4,0.001 -0.001,0.002 -0.001,0.003" />
    <path
       id="path1126"
       style="fill:#bf202b;fill-opacity:1;fill-rule:nonzero;stroke:none;stroke-width:0.03527778"
       d="m 138.04539,196.59657 -0.0226,-0.0226 0.0226,0.0226" />
    <path
       id="path1128"
       style="fill:#d82b3a;fill-opacity:1;fill-rule:nonzero;stroke:none;stroke-width:0.03527778"
       d="m 137.74094,195.9584 c -0.0215,-0.003 -0.0434,-0.006 -0.0653,-0.009 -0.049,-0.17502 -0.079,-0.36548 -0.0995,-0.56307 -0.0508,0.16122 -0.11501,0.31333 -0.16263,0.48369 -0.002,0.008 -0.005,0.0169 -0.007,0.0253 -0.0226,-0.006 -0.0455,-0.0112 -0.0684,-0.0172 0.048,-0.23068 0.12488,-0.45681 0.22154,-0.67387 -0.0215,-0.27863 -0.0286,-0.56607 -0.0445,-0.83923 0.007,0.023 0.0141,0.0463 0.0212,0.0695 0.0282,0.0671 0.0529,0.13381 0.078,0.2008 v 0 0 c -0.0286,-0.17917 -0.0695,-0.35732 -0.11818,-0.53124 -0.0222,-0.23883 -0.0579,-0.45971 -0.12523,-0.64492 l -0.0275,-0.0258 -0.0607,-0.0296 -0.0138,-0.0378 c -0.0462,-0.043 -0.0928,-0.0857 -0.1397,-0.12844 -0.0473,-0.0814 -0.0963,-0.16189 -0.14676,-0.24155 -0.001,-0.003 -0.002,-0.006 -0.003,-0.01 0.11113,0.0867 0.21872,0.17392 0.32244,0.2624 l 0.0462,0.018 0.0321,0.0487 c 0.0416,0.0375 0.0801,0.0751 0.12136,0.11327 0.18027,0.0543 0.35701,0.11716 0.52528,0.19763 0.0466,0.0561 0.0914,0.11314 0.13476,0.17103 -0.16016,-0.0819 -0.32773,-0.14704 -0.49318,-0.21597 0.54046,0.53167 0.94192,1.13319 1.13595,1.9414 -0.009,0.0163 -0.019,0.0325 -0.0293,0.0484 -0.06,-0.19374 -0.13124,-0.37539 -0.21238,-0.54751 10e-4,0.0539 10e-4,0.10834 0.002,0.16401 3.5e-4,0.19014 -0.007,0.40569 0.006,0.61309 -0.002,0.002 -0.005,0.004 -0.007,0.006 -0.0116,0.009 -0.0233,0.018 -0.0353,0.0265 -0.0501,-0.32413 -0.0201,-0.66809 -0.0586,-0.99166 -0.24871,-0.46521 -0.57044,-0.85933 -0.94368,-1.23155 0.0928,0.26529 0.10795,0.55136 0.11219,0.84847 0.007,0.32424 -0.0159,0.97536 0.10195,1.5004 m 1.22837,-1.29053 c -0.0727,-0.11921 -0.14252,-0.23386 -0.21837,-0.34107 -7.1e-4,-0.0353 -0.001,-0.0709 -0.002,-0.10622 0.0896,0.13681 0.16087,0.28716 0.2279,0.44662 l -0.007,6.6e-4 m -0.35208,-0.51333 c -0.0589,-0.068 -0.12311,-0.13187 -0.19508,-0.19 -0.0399,-0.064 -0.0815,-0.12665 -0.12524,-0.18839 0.0289,0.0186 0.0579,0.0385 0.0861,0.0588 0.0759,0.0543 0.14252,0.11328 0.20179,0.17639 0.0113,0.0479 0.0219,0.0956 0.0325,0.14316 m -1.86408,-1.25085 c -0.11077,-0.0967 -0.22401,-0.19441 -0.33937,-0.29393 l 0.0159,-0.0335 c 0.0709,0.0511 0.14111,0.10199 0.2099,0.15268 0.0413,0.0576 0.079,0.1155 0.1136,0.17473" />
    <path
       id="path1130"
       style="fill:#bf202b;fill-opacity:1;fill-rule:nonzero;stroke:none;stroke-width:0.03527778"
       d="m 137.33031,196.78675 -0.009,-0.002 c -0.0572,-0.30398 -0.0445,-0.60952 0.0169,-0.9073 0.0229,0.006 0.0459,0.0116 0.0684,0.0172 -0.0794,0.29008 -0.10654,0.59174 -0.0762,0.89161 m 0.6925,-0.2128 c -0.17004,-0.16013 -0.27728,-0.37673 -0.34713,-0.62477 0.0219,0.004 0.0437,0.006 0.0653,0.009 0.0561,0.25012 0.14393,0.47156 0.28187,0.61556 m 0.6036,-0.40859 h -0.008 c -0.0437,-0.1072 -0.0713,-0.21868 -0.0889,-0.33263 0.012,-0.008 0.0236,-0.0173 0.0353,-0.0265 0.002,-0.002 0.005,-0.004 0.007,-0.006 0.008,0.12746 0.0243,0.2516 0.0554,0.36474 m 0.26458,-0.17032 -0.008,-0.002 c -0.03,-0.14718 -0.066,-0.28762 -0.10724,-0.42196 0.0102,-0.0158 0.0201,-0.0321 0.0293,-0.0484 0.0363,0.14993 0.0649,0.3073 0.0864,0.47237" />
    <path
       id="path1132"
       style="fill:#bf202b;fill-opacity:1;fill-rule:nonzero;stroke:none;stroke-width:0.03527778"
       d="m 138.25635,196.74114 c -0.0353,-0.0176 -0.0656,-0.0412 -0.0974,-0.0624 0.0303,0.017 0.0621,0.0335 0.0974,0.0448 v 0.0176" />
    <path
       id="path1134"
       style="fill:#bf202b;fill-opacity:1;fill-rule:nonzero;stroke:none;stroke-width:0.03527778"
       d="m 138.15898,196.6787 -0.0473,-0.0303 0.0473,0.0303" />
    <path
       id="path1136"
       style="fill:#bf202b;fill-opacity:1;fill-rule:nonzero;stroke:none;stroke-width:0.03527778"
       d="m 138.11171,196.64839 -0.0663,-0.0518 0.0663,0.0518" />
    <path
       id="path1138"
       style="fill:#d82b3a;fill-opacity:1;fill-rule:nonzero;stroke:none;stroke-width:0.03527778"
       d="m 138.36148,193.20137 c -0.36372,-0.28995 -0.7927,-0.48825 -1.24919,-0.58455 -0.0505,-0.0369 -0.1016,-0.0731 -0.15311,-0.10863 0.1457,0.0127 0.29105,0.0353 0.43463,0.0878 0.35983,0.13268 0.68015,0.30523 0.95285,0.56057 0.005,0.0149 0.01,0.0301 0.0148,0.0448 m -1.44992,-0.61518 c -0.0409,-0.004 -0.0818,-0.007 -0.12241,-0.009 -0.0176,-0.0276 -0.0363,-0.0554 -0.0557,-0.0834 0.0198,0.001 0.0395,0.002 0.0593,0.003 0.0399,0.0296 0.0797,0.0597 0.11889,0.0897 m -0.41487,-0.0382 c -0.0861,-0.0145 -0.17075,-0.037 -0.25294,-0.0758 v -0.0396 c 0.06,0.0152 0.12029,0.0262 0.18062,0.0346 0.0247,0.0265 0.049,0.0536 0.0723,0.0807" />
    <path
       id="path1140"
       style="fill:#d82b3a;fill-opacity:1;fill-rule:nonzero;stroke:none;stroke-width:0.03527778"
       d="m 137.60618,191.53354 c -0.15875,-0.0149 -0.31891,-0.13451 -0.44803,-0.21417 -0.12488,-0.0773 -0.24412,-0.16411 -0.35348,-0.26183 -0.0967,-0.0889 -0.19791,-0.15103 -0.3041,-0.21481 -0.14111,-0.0147 -0.28504,-0.0208 -0.42933,-0.0208 -0.31185,0 -0.62759,0.0282 -0.93063,0.0579 -0.0642,-0.019 -0.12805,-0.0395 -0.1912,-0.0615 0.38453,-0.0581 0.77505,-0.14951 1.14441,-0.14951 0.0674,0 0.1337,0.003 0.19932,0.01 0.28822,0.0296 0.58067,0.0988 0.84772,0.21664 0.0377,0.0444 0.0751,0.0896 0.11148,0.13547 -0.18556,-0.0819 -0.38241,-0.13452 -0.58631,-0.16619 0.0628,0.0441 0.12135,0.0952 0.18273,0.1524 0.12383,0.1156 0.26035,0.21194 0.40217,0.30441 0.10407,0.0678 0.2219,0.16894 0.34784,0.20037 0.002,0.004 0.005,0.008 0.007,0.0117 m -2.8589,-0.84818 c -0.0226,-0.0186 -0.0455,-0.0369 -0.0681,-0.0557 0.23389,-0.16411 0.44626,-0.37715 0.71014,-0.50158 0.2353,-0.11147 0.45367,-0.16619 0.68227,-0.17998 0.0187,0.0131 0.0367,0.0258 0.055,0.0384 -0.25611,0.0296 -0.50765,0.10224 -0.7373,0.21939 0.0413,0.004 0.0811,0.011 0.11077,0.0166 0.16616,0.0299 0.32279,0.0586 0.48295,0.0586 0.0896,0 0.18027,-0.009 0.27446,-0.0319 l 0.005,0.009 c -0.14428,0.0551 -0.2928,0.0769 -0.4452,0.0769 -0.0194,0 -0.0392,-2.9e-4 -0.0589,-9.5e-4 -0.0882,-0.003 -0.16546,-0.0385 -0.25083,-0.0523 -0.0384,-0.007 -0.0751,-0.009 -0.11183,-0.009 -0.0459,0 -0.0914,0.004 -0.13829,0.006 -0.10971,0.0667 -0.21307,0.14333 -0.30727,0.23291 -0.0642,0.0613 -0.13194,0.12029 -0.2032,0.17349 m 1.76989,-0.71011 c -0.012,-7.1e-4 -0.0236,-0.001 -0.0356,-0.002 -0.007,-0.005 -0.013,-0.009 -0.0198,-0.0134 0.018,0.002 0.036,0.004 0.054,0.006 l 0.001,0.009" />
    <path
       id="path1142"
       style="fill:#d82b3a;fill-opacity:1;fill-rule:nonzero;stroke:none;stroke-width:0.03527778"
       d="m 134.59875,190.08147 c -0.0483,0 -0.0963,-0.002 -0.14429,-0.007 -0.0878,-0.009 -0.16157,-0.0154 -0.22825,-0.0154 -0.0522,0 -0.10018,0.004 -0.14675,0.014 -0.0233,-0.0258 -0.0459,-0.0515 -0.0684,-0.078 0.0505,-0.0172 0.10654,-0.0236 0.17462,-0.0236 0.0427,0 0.09,0.003 0.14394,0.007 0.0857,0.006 0.1711,0.0102 0.25506,0.0102 0.37359,0 0.72672,-0.0769 1.00753,-0.3485 0.007,0.004 0.0134,0.008 0.0201,0.012 -0.14887,0.19318 -0.35172,0.34738 -0.59796,0.38873 -0.13652,0.0229 -0.27622,0.0409 -0.41557,0.0409 m -0.63042,-0.13766 c -0.0148,-0.0183 -0.0296,-0.0367 -0.0441,-0.055 -7.1e-4,-0.003 -0.002,-0.006 -0.003,-0.009 0.0155,-0.0341 0.0307,-0.0674 0.0473,-0.0999 0.0907,-0.18408 0.23284,-0.32314 0.39617,-0.44302 0.11818,-0.0875 0.26318,-0.13726 0.41452,-0.15557 0.042,0.0226 0.0843,0.0455 0.12629,0.0685 -0.35383,0.0374 -0.64911,0.23594 -0.86959,0.57919 -0.025,0.0382 -0.0469,0.0766 -0.0677,0.11465 m 1.40299,-0.65676 c -0.0907,-0.0226 -0.1785,-0.0361 -0.26352,-0.0413 -0.0589,-0.0244 -0.11854,-0.0487 -0.17921,-0.0726 0.15557,0.001 0.31044,0.0331 0.44344,0.0882 l -7.2e-4,0.0258" />
    <path
       id="path1144"
       style="fill:#bf202b;fill-opacity:1;fill-rule:nonzero;stroke:none;stroke-width:0.03527778"
       d="m 133.92424,189.88882 c -0.001,-0.002 -0.003,-0.004 -0.004,-0.006 3.4e-4,-0.001 0.001,-0.002 0.001,-0.003 10e-4,0.003 0.002,0.006 0.003,0.009" />
    <path
       id="path1146"
       style="fill:#d82b3a;fill-opacity:1;fill-rule:nonzero;stroke:none;stroke-width:0.03527778"
       d="m 134.79913,194.28725 c -0.01,-0.0172 -0.019,-0.0349 -0.0286,-0.0525 0.0247,-0.23675 0.0141,-0.47032 -0.06,-0.70209 -0.0102,0.0434 -0.0219,0.0875 -0.0356,0.13366 -0.0219,0.0717 -0.0423,0.14111 -0.061,0.20888 -0.007,-0.0208 -0.0148,-0.0416 -0.0219,-0.0628 -0.0286,-0.0853 -0.0536,-0.17183 -0.0759,-0.25851 0.0127,-0.0198 0.0247,-0.0395 0.0367,-0.0599 0.0522,-0.26046 0.0882,-0.5056 0.0875,-0.7505 -0.0632,0.0762 -0.14605,0.13973 -0.23284,0.20122 -0.004,-0.0293 -0.007,-0.0586 -0.01,-0.0882 0.049,-0.0357 0.0977,-0.0717 0.14358,-0.11218 0.0392,-0.035 0.0702,-0.0818 0.0956,-0.13314 -0.0194,-0.31348 -0.10689,-0.6307 -0.31644,-0.98555 -7.1e-4,-0.008 -0.001,-0.0159 -0.002,-0.024 0.26035,0.35775 0.52,0.81167 0.49389,1.27412 -0.0109,0.20285 -0.0356,0.38009 -0.0787,0.5617 0.15028,0.26031 0.13194,0.56472 0.0653,0.84984" />
    <path
       id="path1148"
       style="fill:#bf202b;fill-opacity:1;fill-rule:nonzero;stroke:none;stroke-width:0.03527778"
       d="m 134.59063,195.63553 c -0.23636,-0.53551 -0.27693,-1.00612 -0.15769,-1.57801 0.0282,-0.13366 0.0557,-0.26028 0.0825,-0.38308 -0.0406,0.0593 -0.0832,0.11935 -0.12523,0.18137 -0.23848,0.34572 -0.37148,0.73585 -0.33161,1.15824 l -0.006,-8.5e-4 c -0.0688,-0.34918 -0.0254,-0.6398 0.13511,-0.95635 0.0924,-0.18231 0.2219,-0.33513 0.32844,-0.50299 0.0222,0.0867 0.0473,0.17322 0.0759,0.25852 0.007,0.0212 0.0145,0.0421 0.0219,0.0628 -0.14288,0.51583 -0.19156,0.92604 -0.0825,1.4358 l -0.0116,0.004 c 0.006,0.0103 0.0127,0.0205 0.0194,0.0307 0.0208,0.092 0.0469,0.18768 0.0783,0.28787 l -0.0268,10e-4 m 0.14322,-1.11442 -0.007,-0.005 c 0.019,-0.0945 0.0346,-0.18839 0.0441,-0.2818 0.01,0.0176 0.0191,0.0353 0.0286,0.0525 -0.0187,0.0801 -0.0413,0.15832 -0.0653,0.23385 m -0.78457,-1.09954 -0.003,-6.6e-4 c 0.0311,-0.18383 0.18132,-0.34865 0.32102,-0.46429 0.0416,-0.0353 0.0857,-0.0678 0.13018,-0.10015 0.003,0.0296 0.006,0.0588 0.01,0.0882 -0.18839,0.13254 -0.39511,0.25601 -0.45826,0.47692 m 0.37112,-1.79599 c -0.006,-0.01 -0.0116,-0.0194 -0.0176,-0.0293 l 0.01,-0.003 c 0.002,0.003 0.004,0.006 0.006,0.009 7.2e-4,0.008 10e-4,0.0161 0.002,0.024" />
    <path
       id="path1150"
       style="fill:#d82b3a;fill-opacity:1;fill-rule:nonzero;stroke:none;stroke-width:0.03527778"
       d="m 136.58171,195.61857 c -0.0183,-0.007 -0.036,-0.0147 -0.054,-0.0218 -0.0367,-0.35814 -0.19579,-0.68379 -0.38206,-1.0086 0.0127,-0.0621 0.024,-0.12499 0.0328,-0.18739 0.21343,0.39592 0.38488,0.80186 0.40323,1.21775 m -0.75424,-0.33224 c -0.005,-0.002 -0.01,-0.005 -0.0145,-0.008 0.012,-0.13907 0.0392,-0.2781 0.0649,-0.41741 -0.0113,0.13973 -0.0279,0.28152 -0.0505,0.4251 m 0.0533,-1.14942 c -0.0494,-0.0853 -0.0974,-0.1717 -0.14288,-0.25919 0.0123,-0.0663 0.0222,-0.12887 0.0286,-0.18909 0.0254,0.0437 0.0515,0.0875 0.0776,0.1319 0.0162,0.10404 0.0282,0.20987 0.0367,0.31638 m -0.18309,-0.33899 c -0.0801,-0.16372 -0.14887,-0.33224 -0.19614,-0.51015 l 0.0388,-0.009 c 0.0582,0.11465 0.12241,0.2304 0.18979,0.34727 -0.007,0.057 -0.0187,0.11423 -0.0324,0.1717" />
    <path
       id="path1152"
       style="fill:#bf202b;fill-opacity:1;fill-rule:nonzero;stroke:none;stroke-width:0.03527778"
       d="m 136.3637,196.49169 -0.008,-0.006 c 0.15733,-0.32424 0.20073,-0.61595 0.1725,-0.88896 0.018,0.007 0.0356,0.0145 0.054,0.0218 0.0123,0.28691 -0.048,0.57795 -0.21801,0.87312 m -0.47766,-0.3883 -0.007,-0.001 c -0.0656,-0.25301 -0.0829,-0.50109 -0.0699,-0.76207 0.001,-0.0204 0.002,-0.0409 0.004,-0.0613 0.005,0.003 0.01,0.005 0.0145,0.008 -0.006,0.0374 -0.012,0.0744 -0.0187,0.11218 0.0229,-0.0271 0.0448,-0.0547 0.0656,-0.0832 -0.0328,0.26141 -0.0392,0.52172 0.0116,0.78811" />
    <path
       id="path1154"
       style="fill:#f3637f;fill-opacity:1;fill-rule:nonzero;stroke:none;stroke-width:0.03527778"
       d="m 138.73895,194.5984 c -0.0141,0 -0.036,-0.018 -0.0381,-0.0303 -0.0254,-0.13698 -0.0529,-0.27492 -0.0836,-0.41356 0.0473,0.0547 0.0914,0.11219 0.1337,0.17226 0.001,0.0857 0.001,0.17145 -7.1e-4,0.25714 0,0.0102 -0.005,0.0145 -0.0113,0.0145 m 0.009,-0.37782 c -0.0483,-0.0737 -0.10231,-0.14362 -0.16369,-0.2092 -0.0632,-0.27051 -0.13723,-0.54186 -0.22331,-0.81001 0.042,0.0335 0.0833,0.0685 0.12347,0.10446 l 0.003,-0.004 c -0.0455,-0.0511 -0.0928,-0.0995 -0.14181,-0.145 -0.16158,-0.49388 -0.36513,-0.97645 -0.62019,-1.42197 0.0413,0.0226 0.0818,0.0466 0.12206,0.0719 l 0.0219,0.0172 v 0 c -0.0614,-0.0595 -0.12594,-0.1167 -0.19226,-0.17213 -0.0236,-0.0398 -0.0476,-0.0789 -0.072,-0.11807 0.0106,9.5e-4 0.0208,10e-4 0.0314,0.002 l -7.1e-4,-0.006 c -0.0127,-0.002 -0.0254,-0.004 -0.0381,-0.007 -0.1069,-0.17074 -0.22225,-0.33475 -0.34643,-0.491 0.27587,0.12125 0.52599,0.30784 0.73307,0.58773 l 0.004,-0.002 c -0.19853,-0.3351 -0.50227,-0.56895 -0.84799,-0.72093 -0.0776,-0.0907 -0.15805,-0.17861 -0.24201,-0.26293 -0.24059,-0.24228 -0.50024,-0.45367 -0.77223,-0.6459 0.0875,-0.01 0.17533,-0.0149 0.26317,-0.0149 0.0303,0 0.061,4.2e-4 0.0917,0.002 0.28787,0.199 0.56762,0.43049 0.84879,0.71052 0.9525,0.94753 1.37618,2.23517 1.41816,3.5366 m -2.28668,-4.26049 c -0.0931,-0.01 -0.18239,-0.0156 -0.26988,-0.0156 -0.0406,0 -0.0804,0.002 -0.12029,0.004 -0.14994,-0.10375 -0.30339,-0.20175 -0.45932,-0.29626 0.0173,-0.0226 0.0339,-0.0459 0.0497,-0.0696 l -0.008,-0.007 c -0.0201,0.0224 -0.0406,0.0437 -0.0617,0.0642 -0.22472,-0.13589 -0.45438,-0.26391 -0.68651,-0.38985 0.0409,-0.004 0.0822,-0.006 0.12453,-0.006 0.0257,0 0.0515,7.1e-4 0.0776,0.002 0.48966,0.20327 0.93098,0.42404 1.35396,0.71437 m -1.6824,-0.77857 c -0.11218,-0.0606 -0.22507,-0.121 -0.33761,-0.18203 l 0.001,-0.0109 c 0.16757,0.0613 0.32914,0.12238 0.48542,0.1845 -0.004,0 -0.007,0 -0.0102,0 -0.0466,0 -0.0931,0.003 -0.13899,0.008" />
    <path
       id="path1156"
       style="fill:#f2536e;fill-opacity:1;fill-rule:nonzero;stroke:none;stroke-width:0.03527778"
       d="m 138.75094,194.3268 c -0.0423,-0.0601 -0.0864,-0.11755 -0.1337,-0.17226 -0.0106,-0.0475 -0.0212,-0.0952 -0.0325,-0.14316 0.0614,0.0656 0.11536,0.13547 0.16369,0.2092 10e-4,0.0353 0.002,0.0709 0.002,0.10622" />
    <path
       id="path1158"
       style="fill:#f2536e;fill-opacity:1;fill-rule:nonzero;stroke:none;stroke-width:0.03527778"
       d="m 138.48495,193.30583 c -0.0402,-0.036 -0.0815,-0.071 -0.12347,-0.10446 -0.005,-0.0147 -0.01,-0.0299 -0.0148,-0.0448 0.049,0.0455 0.0963,0.0939 0.14181,0.14499 l -0.004,0.004" />
    <path
       id="path1160"
       style="fill:#f2536e;fill-opacity:1;fill-rule:nonzero;stroke:none;stroke-width:0.03527778"
       d="m 137.98541,191.61856 c -0.20708,-0.27989 -0.4572,-0.46648 -0.73307,-0.58773 -0.0363,-0.0459 -0.0737,-0.0911 -0.11148,-0.13546 0.34573,0.15197 0.64947,0.38583 0.84808,0.72097 l -0.004,0.002 m -0.34784,-0.0834 c -0.0106,-2.5e-4 -0.0208,-6.6e-4 -0.0314,-0.002 -0.002,-0.004 -0.005,-0.008 -0.007,-0.0117 0.0127,0.003 0.0254,0.005 0.0381,0.007 l 7.2e-4,0.006 m -1.51098,-1.54863 c -0.0183,-0.0127 -0.0363,-0.0254 -0.055,-0.0385 0.0399,-0.002 0.0797,-0.004 0.1203,-0.004 0.0875,0 0.17674,0.006 0.26987,0.0156 0.007,0.004 0.013,0.009 0.0198,0.0134 -0.0307,-10e-4 -0.0614,-0.002 -0.0917,-0.002 -0.0878,0 -0.17568,0.005 -0.26317,0.0149" />
    <path
       id="path1162"
       style="fill:#f2536e;fill-opacity:1;fill-rule:nonzero;stroke:none;stroke-width:0.03527778"
       d="m 135.61228,189.65182 c -0.007,-0.004 -0.0134,-0.008 -0.0201,-0.012 0.0212,-0.0205 0.0416,-0.0418 0.0617,-0.0642 l 0.008,0.007 c -0.0159,0.0237 -0.0325,0.047 -0.0497,0.0696 m -0.7066,-0.40186 c -0.042,-0.023 -0.0843,-0.0459 -0.1263,-0.0685 0.0459,-0.006 0.0924,-0.008 0.139,-0.008 0.004,0 0.007,0 0.0102,0 0.0607,0.024 0.12029,0.0483 0.17921,0.0726 -0.0261,-0.001 -0.0519,-0.002 -0.0776,-0.002 -0.0423,0 -0.0836,0.002 -0.12453,0.006" />
    <path
       id="path1164"
       style="fill:#f2536e;fill-opacity:1;fill-rule:nonzero;stroke:none;stroke-width:0.03527778"
       d="m 137.84536,197.12711 c -1.20332,0 -2.80423,-1.01561 -3.30623,-1.78082 -0.002,-0.012 -0.005,-0.0236 -0.008,-0.0353 l 0.0145,-0.006 c 0.5207,0.70845 2.24649,1.55674 3.46181,1.55674 0.40463,0 0.75212,-0.0938 0.98037,-0.31775 l 0.0152,0.0138 c -0.25824,0.4064 -0.67628,0.569 -1.15782,0.569" />
    <path
       id="path1166"
       style="fill:#f14a63;fill-opacity:1;fill-rule:nonzero;stroke:none;stroke-width:0.03527778"
       d="m 134.53913,195.34629 c -0.007,-0.0102 -0.013,-0.0204 -0.0194,-0.0307 l 0.0116,-0.005 c 0.002,0.0117 0.005,0.0233 0.008,0.0353" />
    <path
       id="path1168"
       style="fill:#8f1533;fill-opacity:1;fill-rule:nonzero;stroke:none;stroke-width:0.03527778"
       d="m 138.76682,195.07673 c -0.0219,-0.25012 -0.073,-0.49953 -0.14746,-0.74718 -0.42016,-0.91225 -1.2753,-1.62454 -2.19851,-2.16172 -0.0773,-0.0651 -0.15734,-0.12844 -0.23778,-0.19057 -0.21554,-0.23205 -0.44309,-0.45656 -0.68297,-0.67165 l -0.0123,-0.0102 c 0.27904,0.0493 0.56938,0.0461 0.8516,0.0778 0.16193,0.0176 0.32667,0.0393 0.4893,0.0689 0.0614,0.14027 0.21308,0.24928 0.32597,0.34562 0.19226,0.16411 0.39829,0.29778 0.60078,0.44662 l 0.001,-0.002 c -0.28892,-0.24377 -0.64629,-0.4735 -0.87595,-0.78067 0.34114,0.0642 0.67487,0.16757 0.96767,0.35486 l 0.0219,0.0172 c -0.0956,-0.093 -0.19896,-0.17913 -0.30373,-0.26373 -0.78493,-0.42735 -1.80199,-0.44386 -2.68323,-0.76482 -0.56338,-0.45131 -1.12995,-0.93031 -1.34338,-1.625 -0.23777,-0.77569 -0.20249,-1.63752 -0.18415,-2.46655 l 0.001,-0.002 -0.001,-0.0233 c -0.018,-0.0613 -0.0399,-0.12128 -0.0674,-0.17984 l -0.0505,-0.0427 c -0.0942,-0.0628 -0.19297,-0.0674 -0.2988,-0.0391 -0.0593,0.0151 -0.12418,0.0522 -0.15875,0.10693 l -0.002,-0.0223 c -0.0159,0.0378 -0.0293,0.0766 -0.0409,0.11575 l 7.1e-4,0.0518 v 0.0152 l 0.001,0.0653 c -0.013,0.0688 -0.0166,0.13575 0.004,0.19293 0.018,0.75463 0.0268,1.52619 -0.18944,2.22815 -0.21237,0.69469 -0.77928,1.17369 -1.34302,1.625 -0.8812,0.32096 -1.8996,0.33747 -2.68302,0.76482 -0.10541,0.0846 -0.20806,0.17071 -0.30384,0.26374 l 0.0221,-0.0172 c 0.29213,-0.18729 0.62565,-0.29062 0.96601,-0.35486 -0.22874,0.30717 -0.58569,0.5369 -0.87436,0.78066 l 6.6e-4,0.002 c 0.2026,-0.14884 0.40929,-0.28251 0.60085,-0.44662 0.11366,-0.0963 0.26458,-0.20535 0.3259,-0.34562 0.1633,-0.0296 0.32797,-0.0513 0.4899,-0.0689 0.2818,-0.0317 0.57189,-0.0285 0.85093,-0.0778 l -0.0124,0.0102 c -0.23979,0.21509 -0.46715,0.4396 -0.6828,0.67165 -0.0806,0.0621 -0.16055,0.12552 -0.23841,0.19058 -0.92262,0.53717 -1.77835,1.24946 -2.19798,2.16171 -0.0737,0.24765 -0.12542,0.49707 -0.14746,0.74719 0.25424,-1.14406 1.13481,-1.97556 2.12358,-2.68994 -0.0262,0.0303 -0.0551,0.0586 -0.0792,0.092 -0.12679,0.17791 -0.21085,0.34192 -0.25908,0.51693 -0.14263,0.22391 -0.27284,0.45321 -0.38103,0.69451 -0.10816,0.29919 -0.19982,0.62026 -0.2515,0.94481 0.0255,-0.067 0.0496,-0.1337 0.0779,-0.2008 0.12954,-0.43533 0.29905,-0.84307 0.51541,-1.2325 -0.008,0.0685 -0.0103,0.13861 -0.01,0.21442 -0.0103,0.11864 -0.0151,0.2388 -0.0179,0.36089 -0.0145,0.43822 -0.0524,0.86113 -0.10679,1.28986 0.0482,-0.14195 0.091,-0.28511 0.12746,-0.43187 0.0186,-0.12555 0.0331,-0.25012 0.0413,-0.37719 0.008,-0.12375 0.01,-0.24927 0.0117,-0.37454 0.0131,-0.13162 0.0214,-0.26321 0.0331,-0.3948 0.0103,-0.11578 0.0351,-0.22119 0.0641,-0.32811 0.28251,-0.73368 1.14241,-1.34469 1.88462,-1.72999 -0.0628,0.0461 -0.12347,0.0927 -0.18062,0.13973 -0.22465,0.18726 -0.39208,0.43078 -0.53817,0.68365 -0.56155,0.86967 -0.65662,1.94702 -0.25216,2.92351 0.0455,0.0783 0.0971,0.15197 0.15501,0.22115 -0.11921,-0.68156 -0.11575,-1.31903 0.0338,-1.91561 -0.003,0.16689 0.0214,0.33693 0.0689,0.54793 0.0779,0.34283 0.26666,0.68968 0.36724,1.04316 -0.009,-0.14333 -0.0331,-0.28966 -0.0751,-0.44234 -0.0255,-0.0911 -0.0517,-0.18288 -0.0779,-0.27274 -0.16327,-0.35316 -0.31694,-0.78076 -0.21841,-1.15079 0.0434,-0.1662 0.11645,-0.31362 0.20189,-0.45406 0.1765,-0.36545 0.41603,-0.71533 0.72824,-1.05089 0.46708,-0.50314 1.13559,-0.83923 1.47673,-1.41468 l 0.024,-0.0731 c 0.0868,-0.11631 0.15452,-0.24444 0.21026,-0.37811 0.0268,0.0656 0.0543,0.13022 0.0861,0.19223 0.0991,0.19375 0.23213,0.35994 0.381,0.51622 0.36231,0.42785 0.895,0.73449 1.28764,1.1574 0.31221,0.33556 0.55281,0.68544 0.72919,1.05089 0.0847,0.14044 0.1577,0.28786 0.20179,0.45406 0.0977,0.37003 -0.055,0.79763 -0.21907,1.15079 -0.0261,0.0898 -0.0529,0.18165 -0.078,0.27274 -0.042,0.15268 -0.0653,0.29901 -0.0744,0.44234 0.0995,-0.35348 0.28892,-0.70033 0.36653,-1.04316 0.0476,-0.211 0.073,-0.38104 0.0699,-0.54793 0.14852,0.59658 0.15205,1.23405 0.0328,1.91561 0.0586,-0.0692 0.11042,-0.14291 0.15523,-0.22115 0.40428,-0.97649 0.30938,-2.05384 -0.25153,-2.92351 -0.14747,-0.25287 -0.31433,-0.49639 -0.5394,-0.68365 -0.0568,-0.047 -0.11783,-0.0936 -0.17851,-0.13973 0.74048,0.3853 1.60056,0.99631 1.88313,1.72999 0.0282,0.10692 0.0536,0.21233 0.0646,0.32811 0.0109,0.13159 0.0201,0.26318 0.0325,0.3948 0.002,0.12527 0.004,0.25079 0.0116,0.37454 0.008,0.12707 0.0229,0.25164 0.042,0.37719 0.0353,0.14676 0.078,0.28992 0.127,0.43187 -0.0547,-0.42873 -0.0924,-0.85164 -0.10548,-1.28986 -0.004,-0.12209 -0.009,-0.24225 -0.0194,-0.36089 7.1e-4,-0.0758 -10e-4,-0.14594 -0.01,-0.21442 0.21766,0.38943 0.38594,0.79717 0.51541,1.2325 0.0282,0.0671 0.0529,0.13381 0.078,0.2008 -0.0519,-0.32455 -0.14358,-0.64562 -0.25153,-0.94481 -0.1076,-0.2413 -0.23848,-0.4706 -0.3803,-0.69451 -0.049,-0.17501 -0.13299,-0.33902 -0.25929,-0.51693 -0.024,-0.0335 -0.0529,-0.0617 -0.0804,-0.092 0.9899,0.71438 1.86972,1.54588 2.12408,2.68994" />
    <path
       id="path1170"
       style="fill:#f16567;fill-opacity:1;fill-rule:nonzero;stroke:none;stroke-width:0.03527778"
       d="m 132.80558,186.61889 c 0.0212,-0.10404 0.11289,-0.12058 0.20038,-0.13575 0.0702,-0.0124 0.17286,0.0412 0.2226,0.086 0.0378,0.0339 0.0501,0.078 0.0744,0.11645 -0.006,0.0967 -0.0123,0.19374 -0.0173,0.29171 l -0.0861,0.0357 c -0.0882,0.0152 -0.17992,0.0116 -0.26741,0.003 -0.0614,-0.006 -0.0998,-0.0331 -0.12453,-0.0688 -0.005,-0.0909 -0.0113,-0.18274 -0.0173,-0.27298 l 0.0152,-0.0551" />
    <path
       id="path1172"
       style="fill:#f16567;fill-opacity:1;fill-rule:nonzero;stroke:none;stroke-width:0.03527778"
       d="m 132.95516,187.92801 c 0.11289,0.0201 0.22225,0.006 0.31185,-0.0563 0.003,0.073 0.006,0.14676 0.0106,0.21911 -0.0815,0.0529 -0.14746,0.0874 -0.25858,0.0832 -0.0819,-0.003 -0.1577,-0.0283 -0.20038,-0.10057 0.004,-0.0744 0.007,-0.14955 0.009,-0.22395 0.0254,0.0394 0.067,0.0683 0.1277,0.0785" />
    <path
       id="path1174"
       style="fill:#f16567;fill-opacity:1;fill-rule:nonzero;stroke:none;stroke-width:0.03527778"
       d="m 132.82886,187.46845 c 0.0663,0.0511 0.14323,0.0677 0.22543,0.0787 0.0342,0.005 0.14181,-0.006 0.21131,-0.0393 -0.002,0.0985 -0.002,0.1983 0,0.29602 l -0.005,0.003 c -0.049,0.055 -0.14816,0.0476 -0.21237,0.0539 -0.097,0.0103 -0.1778,-0.0353 -0.21837,-0.11533 7.1e-4,-0.0914 0,-0.18453 -0.001,-0.27686" />
    <path
       id="path1176"
       style="fill:#f16567;fill-opacity:1;fill-rule:nonzero;stroke:none;stroke-width:0.03527778"
       d="m 133.26631,187.42643 c -0.0889,0.0615 -0.21485,0.0518 -0.3108,0.0187 -0.0825,-0.0296 -0.10936,-0.0823 -0.13159,-0.144 -0.002,-0.0889 -0.006,-0.17847 -0.0116,-0.26804 l 0.0628,0.0349 c 0.0385,0.0158 0.29915,0.0402 0.40569,-0.008 -0.007,0.12209 -0.0116,0.24514 -0.0145,0.36657" />
    <path
       id="path1178"
       style="fill:#f16567;fill-opacity:1;fill-rule:nonzero;stroke:none;stroke-width:0.03527778"
       d="m 132.81228,188.15732 c 0.0268,0.0513 0.0946,0.0766 0.15981,0.0866 0.11712,0.0183 0.22825,-0.006 0.31009,-0.0794 0.006,0.0751 0.0123,0.15089 0.0208,0.22613 -0.0794,0.0694 -0.15452,0.10788 -0.26952,0.10361 -0.0896,-0.004 -0.19015,-0.0321 -0.24024,-0.11214 0.008,-0.0737 0.0145,-0.14884 0.019,-0.22479" />
    <path
       id="path1180"
       style="fill:#f16567;fill-opacity:1;fill-rule:nonzero;stroke:none;stroke-width:0.03527778"
       d="m 132.78124,188.46367 c 0.0744,0.15406 0.40111,0.13959 0.53199,0.005 0.0123,0.0959 0.0282,0.19018 0.0469,0.2825 l -0.007,0.009 c -0.0839,0.22476 -0.55171,0.21978 -0.61732,-0.0183 0.0187,-0.0931 0.0339,-0.18479 0.0455,-0.27753" />
    <path
       id="path1182"
       style="fill:#f16567;fill-opacity:1;fill-rule:nonzero;stroke:none;stroke-width:0.03527778"
       d="m 132.72338,188.8072 c 0.0381,0.13367 0.19509,0.16895 0.3369,0.17212 0.0988,0.001 0.26812,-0.0604 0.31221,-0.16506 0.0254,0.12167 0.0586,0.24017 0.0967,0.35729 l -0.0166,0.0124 c -0.0765,0.091 -0.2667,0.10626 -0.37571,0.11328 -0.13758,0.007 -0.3623,-0.003 -0.44838,-0.13519 0.037,-0.11712 0.0702,-0.23495 0.0949,-0.35486" />
    <path
       id="path1184"
       style="fill:#f16567;fill-opacity:1;fill-rule:nonzero;stroke:none;stroke-width:0.03527778"
       d="m 132.61331,189.20835 c 0.073,0.16041 0.31962,0.17145 0.48578,0.16538 0.0797,-0.002 0.32773,-0.0426 0.38982,-0.14069 0.0229,0.0656 0.0512,0.1294 0.0787,0.19512 -0.14958,0.1633 -0.31291,0.23703 -0.53622,0.24159 l -10e-4,-0.003 -0.002,0.002 -0.0127,0.003 c -0.17075,0.002 -0.38983,-0.1093 -0.47379,-0.26777 0.0254,-0.0649 0.0508,-0.12978 0.0723,-0.19568" />
    <path
       id="path1186"
       style="fill:#f16567;fill-opacity:1;fill-rule:nonzero;stroke:none;stroke-width:0.03527778"
       d="m 132.95904,189.78754 c -0.042,0.0959 -0.0854,0.19089 -0.133,0.28402 -0.58773,1.07915 -1.97273,1.5911 -2.448,2.80568 -0.23011,0.58691 -0.34036,1.27497 -0.27216,1.92429 -0.18673,-0.86388 -0.13159,-1.72296 0.30042,-2.48913 0.24254,-0.31365 0.4657,-0.60565 0.77297,-0.87383 l 0.0586,-0.047 0.0194,-0.032 c 0.0303,-0.0382 0.0628,-0.0737 0.0952,-0.10982 l -0.0127,0.009 c -0.43392,0.15102 -0.86459,0.50172 -1.2222,0.75886 -0.38171,0.27478 -0.81439,0.67592 -0.93913,1.15108 l -0.0145,0.0303 c 0.0152,-0.0875 0.0193,-0.22437 0.0476,-0.30868 0.16605,-0.47653 0.35002,-0.4808 0.57118,-0.74676 0.0221,-0.0152 0.51608,-0.48232 0.85785,-0.76553 0.042,-0.0529 0.0841,-0.10735 0.1337,-0.1542 l 0.0226,-0.018 c -0.0426,6.6e-4 -0.0853,-7.2e-4 -0.12873,-0.007 -0.60702,0.0816 -1.25402,0.0882 -1.82936,0.28829 0.2777,-0.1112 0.57742,-0.19153 0.89369,-0.27023 0.32381,-0.0798 0.65592,-0.11218 0.97564,-0.18383 l 0.0331,-0.008 c 0.0945,-0.0219 0.1887,-0.0463 0.28042,-0.0777 l -0.018,0.016 c 0.0808,-0.0251 0.16051,-0.0569 0.23918,-0.0938 0.38594,-0.30456 0.7807,-0.60223 1.06609,-1.002 0.0854,-0.13571 0.15487,-0.27615 0.21414,-0.42016 0.0282,0.18659 0.2734,0.28512 0.45685,0.30442 l -0.0152,0.0298 -0.006,0.007" />
    <path
       id="path1188"
       style="fill:#f16567;fill-opacity:1;fill-rule:nonzero;stroke:none;stroke-width:0.03527778"
       d="m 136.88298,192.89022 c 0.0289,0.0843 0.0325,0.22115 0.0469,0.30868 l -0.013,-0.0303 c -0.12558,-0.47516 -0.55809,-0.8763 -0.9398,-1.15108 -0.35701,-0.25714 -0.7881,-0.60784 -1.22237,-0.75886 l -0.0116,-0.009 c 0.0317,0.0361 0.0642,0.0717 0.0942,0.10982 l 0.0194,0.032 0.0579,0.047 c 0.30797,0.26818 0.53128,0.56018 0.7747,0.87383 0.43039,0.76617 0.48613,1.62525 0.30021,2.48913 0.0681,-0.64932 -0.0427,-1.33738 -0.2727,-1.92429 -0.47483,-1.21458 -1.86055,-1.72653 -2.44898,-2.80568 -0.0702,-0.10058 -0.1337,-0.2074 -0.19156,-0.3175 0.18274,-0.008 0.43145,-0.0995 0.50871,-0.27905 0.0579,0.133 0.121,0.26458 0.20108,0.3919 0.2861,0.39977 0.67945,0.69744 1.06574,1.002 0.0787,0.0369 0.15875,0.0687 0.23989,0.0938 l -0.0194,-0.016 c 0.0931,0.0314 0.18697,0.0558 0.28187,0.0777 l 0.0325,0.008 c 0.31962,0.0717 0.65193,0.10404 0.97578,0.18383 0.31609,0.0787 0.61595,0.15904 0.89288,0.27023 -0.57467,-0.20009 -1.22166,-0.20669 -1.8288,-0.28829 -0.0434,0.006 -0.0868,0.008 -0.12876,0.007 l 0.0222,0.018 c 0.0501,0.0469 0.0921,0.10128 0.13476,0.1542 0.34255,0.28321 0.83538,0.75036 0.85655,0.76552 0.2226,0.26596 0.40604,0.27023 0.57185,0.74676" />
    <path
       id="path1190"
       style="fill:#f8a5a0;fill-opacity:1;fill-rule:nonzero;stroke:none;stroke-width:0.03527778"
       d="m 136.02926,193.83139 c -0.21202,-0.9471 -0.59655,-1.72296 -1.35996,-2.33852 -0.5782,-0.46493 -1.01705,-0.96792 -1.35678,-1.62596 l 0.004,-6.6e-4 c 0.50165,0.8297 1.25871,1.33174 1.89971,2.02985 0.49459,0.54017 0.72319,1.21144 0.83643,1.92444 l -0.0229,0.0109" />
    <path
       id="path1192"
       style="fill:#f46d81;fill-opacity:1;fill-rule:nonzero;stroke:none;stroke-width:0.03527778"
       d="m 131.1895,190.89314 c 0.0229,-0.012 0.0459,-0.0239 0.0684,-0.0362 -0.005,0.004 -0.0102,0.008 -0.0152,0.012 -0.0176,0.008 -0.0356,0.0165 -0.0533,0.0242 m 1.403,-1.30912 c -0.007,-0.007 -0.013,-0.0148 -0.019,-0.0226 0.0116,-0.0219 0.0229,-0.0441 0.0346,-0.0667 0.005,0.006 0.0109,0.011 0.0166,0.0166 -0.0106,0.0243 -0.0212,0.0487 -0.0321,0.0726 m 0.11077,-0.27729 c -0.002,-0.001 -0.004,-0.002 -0.006,-0.003 7.2e-4,-0.001 0.001,-0.003 0.002,-0.004 h 0.006 c -7.1e-4,0.002 -0.001,0.005 -0.002,0.007" />
    <path
       id="path1194"
       style="fill:#f8a5a0;fill-opacity:1;fill-rule:nonzero;stroke:none;stroke-width:0.03527778"
       d="m 132.6246,189.51138 c -0.006,-0.006 -0.0113,-0.011 -0.0166,-0.0166 0.031,-0.0617 0.061,-0.12555 0.0896,-0.19113 0.002,0.001 0.004,0.002 0.006,0.003 -0.0247,0.0702 -0.0508,0.13822 -0.0787,0.20464" />
    <path
       id="path1196"
       style="fill:#f8a5a0;fill-opacity:1;fill-rule:nonzero;stroke:none;stroke-width:0.03527778"
       d="m 131.03887,190.97954 -0.002,-0.0109 c 0.0519,-0.0247 0.10301,-0.0497 0.15275,-0.0755 0.0176,-0.008 0.0356,-0.0158 0.0533,-0.0242 0.005,-0.004 0.0102,-0.008 0.0152,-0.012 0.5782,-0.31295 1.00753,-0.71836 1.31551,-1.2955 0.006,0.008 0.0123,0.0152 0.019,0.0226 -0.30833,0.68019 -0.81562,1.13813 -1.55363,1.39552" />
    <path
       id="path1198"
       style="fill:#f46d81;fill-opacity:1;fill-rule:nonzero;stroke:none;stroke-width:0.03527778"
       d="m 129.6776,192.25561 c 0.082,-0.0925 0.16673,-0.18204 0.26085,-0.26099 0.0192,-0.016 0.0385,-0.0311 0.0579,-0.0459 -0.12016,0.10996 -0.20479,0.18867 -0.21361,0.19473 -0.0359,0.0434 -0.0709,0.0796 -0.10513,0.11215" />
    <path
       id="path1200"
       style="fill:#f8a5a0;fill-opacity:1;fill-rule:nonzero;stroke:none;stroke-width:0.03527778"
       d="m 129.50231,192.47362 -0.007,-0.01 c 0.061,-0.0684 0.12086,-0.13892 0.18217,-0.2081 0.0342,-0.0325 0.0692,-0.0688 0.10513,-0.11215 0.009,-0.006 0.0935,-0.0848 0.21361,-0.19473 0.1524,-0.11755 0.31266,-0.21139 0.47335,-0.32068 l 0.003,0.005 c -0.093,0.0751 -0.19705,0.13793 -0.29008,0.21194 -0.0744,0.0606 -0.14055,0.14221 -0.22253,0.19512 -0.16951,0.10968 -0.29697,0.30484 -0.45752,0.43353" />
    <path
       id="path1202"
       style="fill:#f8a5a0;fill-opacity:1;fill-rule:nonzero;stroke:none;stroke-width:0.03527778"
       d="m 130.06661,194.17687 c -0.0916,-0.72926 0.0737,-1.34758 0.45406,-1.96783 l 0.01,0.004 c -0.32798,0.61711 -0.46577,1.25913 -0.44651,1.95545 l -0.0172,0.008" />
    <path
       id="path1204"
       style="fill:#f46d81;fill-opacity:1;fill-rule:nonzero;stroke:none;stroke-width:0.03527778"
       d="m 132.8405,188.9366 c -0.008,-0.004 -0.0166,-0.008 -0.0247,-0.0129 0.001,-0.0219 0.002,-0.0438 0.004,-0.066 0.01,0.007 0.0198,0.0138 0.0307,0.0194 -0.003,0.0197 -0.006,0.0398 -0.01,0.0595 m 0.0526,-0.38241 c -0.0215,-0.007 -0.0409,-0.0172 -0.0582,-0.0292 0.001,-0.0307 0.003,-0.0617 0.004,-0.0925 0.0194,0.0149 0.0409,0.0269 0.0639,0.0357 -0.003,0.0285 -0.006,0.0575 -0.01,0.086 m 0.03,-0.32092 c -0.0279,-0.008 -0.054,-0.0194 -0.0748,-0.035 10e-4,-0.0278 0.002,-0.0557 0.003,-0.0835 0.0219,0.0208 0.048,0.0349 0.0765,0.0444 -0.001,0.0247 -0.003,0.0495 -0.005,0.0742 m 0.0166,-0.3084 c -0.0324,-0.008 -0.0589,-0.0211 -0.0797,-0.0387 0.001,-0.0307 0.002,-0.0617 0.003,-0.0925 0.0219,0.024 0.0483,0.0423 0.079,0.054 -7.2e-4,0.0258 -0.002,0.0514 -0.002,0.0772 m 0.005,-0.39966 c -0.024,-0.007 -0.0473,-0.0158 -0.0699,-0.0275 10e-4,-0.0331 0.003,-0.0663 0.004,-0.0998 0.0162,0.0166 0.0367,0.0306 0.0642,0.0423 7.2e-4,0.0285 0.001,0.0568 0.001,0.085 m -0.0148,-0.44619 c -0.0145,-0.002 -0.0268,-0.004 -0.0367,-0.006 0.001,-0.0212 0.002,-0.0427 0.003,-0.0638 0.009,0.002 0.0194,0.005 0.03,0.006 0.001,0.0215 0.002,0.0427 0.004,0.0639" />
    <path
       id="path1206"
       style="fill:#f8a5a0;fill-opacity:1;fill-rule:nonzero;stroke:none;stroke-width:0.03527778"
       d="m 132.92588,187.01509 c -0.0106,-10e-4 -0.0208,-0.003 -0.03,-0.006 0.002,-0.0515 0.005,-0.10308 0.008,-0.15462 l 0.0109,-0.004 c 0.004,0.0554 0.008,0.11035 0.0109,0.16468" />
    <path
       id="path1208"
       style="fill:#f8a5a0;fill-opacity:1;fill-rule:nonzero;stroke:none;stroke-width:0.03527778"
       d="m 132.92799,188.15912 c -0.0286,-0.009 -0.0547,-0.0236 -0.0765,-0.0444 0.003,-0.0762 0.006,-0.1524 0.008,-0.2286 0.0208,0.0176 0.0473,0.031 0.0797,0.0387 -0.003,0.078 -0.006,0.15625 -0.0116,0.23425" />
    <path
       id="path1210"
       style="fill:#f8a5a0;fill-opacity:1;fill-rule:nonzero;stroke:none;stroke-width:0.03527778"
       d="m 132.9421,187.84768 c -0.0307,-0.0117 -0.0572,-0.03 -0.079,-0.054 0.004,-0.0988 0.007,-0.19762 0.0113,-0.29601 0.0226,0.0117 0.0459,0.0205 0.0699,0.0275 0.001,0.10834 3.5e-4,0.21555 -0.002,0.32247" />
    <path
       id="path1212"
       style="fill:#f8a5a0;fill-opacity:1;fill-rule:nonzero;stroke:none;stroke-width:0.03527778"
       d="m 132.94281,187.44019 c -0.0275,-0.0117 -0.048,-0.0257 -0.0642,-0.0423 0.004,-0.1083 0.009,-0.21664 0.0141,-0.32494 0.01,0.002 0.0222,0.004 0.0367,0.006 0.006,0.12195 0.0109,0.24225 0.0134,0.36117" />
    <path
       id="path1214"
       style="fill:#f8a5a0;fill-opacity:1;fill-rule:nonzero;stroke:none;stroke-width:0.03527778"
       d="m 132.90259,188.46822 c -0.0229,-0.009 -0.0445,-0.0208 -0.0639,-0.0357 0.004,-0.0783 0.006,-0.15625 0.01,-0.23425 0.0208,0.0156 0.0469,0.0268 0.0748,0.035 -0.006,0.078 -0.0123,0.15625 -0.0205,0.23495" />
    <path
       id="path1216"
       style="fill:#f8a5a0;fill-opacity:1;fill-rule:nonzero;stroke:none;stroke-width:0.03527778"
       d="m 132.85003,188.87709 c -0.0109,-0.006 -0.0212,-0.0124 -0.0307,-0.0194 0.006,-0.11081 0.0109,-0.22158 0.0155,-0.33267 0.0173,0.012 0.0367,0.0219 0.0582,0.0292 -0.012,0.10668 -0.0265,0.21389 -0.043,0.3229" />
    <path
       id="path1218"
       style="fill:#f8a5a0;fill-opacity:1;fill-rule:nonzero;stroke:none;stroke-width:0.03527778"
       d="m 132.81087,189.01393 c 0.002,-0.0301 0.004,-0.0604 0.005,-0.0903 0.008,0.005 0.0162,0.009 0.0247,0.0129 -0.004,0.0248 -0.008,0.0491 -0.0123,0.0737 l -0.0173,0.004" />
    <path
       id="path1220"
       style="fill:#f46d81;fill-opacity:1;fill-rule:nonzero;stroke:none;stroke-width:0.03527778"
       d="m 136.59865,192.59463 c -0.15629,-0.16719 -0.31786,-0.32343 -0.48402,-0.47421 0.17181,0.13452 0.34502,0.29256 0.48931,0.46923 l -0.005,0.005" />
    <path
       id="path1222"
       style="fill:#f8a5a0;fill-opacity:1;fill-rule:nonzero;stroke:none;stroke-width:0.03527778"
       d="m 136.60394,192.58965 c -0.14429,-0.17667 -0.3175,-0.33471 -0.48931,-0.46923 -0.18309,-0.16577 -0.37147,-0.32519 -0.56338,-0.48535 l 0.007,-0.009 c 0.39617,0.277 0.7807,0.54225 1.05974,0.94975 l -0.0145,0.0134" />
    <path
       id="path1224"
       style="fill:#83161f;fill-opacity:1;fill-rule:nonzero;stroke:none;stroke-width:0.03527778"
       d="m 135.12897,190.87688 c -0.13335,-0.0179 -0.26035,-0.0482 -0.38064,-0.0896 -0.35243,-0.27682 -0.70203,-0.5563 -0.96238,-0.9204 -0.0801,-0.12731 -0.14323,-0.2589 -0.20109,-0.3919 -0.0226,0.0518 -0.0593,0.0966 -0.10442,0.13409 -0.012,-0.0233 -0.024,-0.0463 -0.0353,-0.0699 0.0423,-0.031 0.0829,-0.068 0.12242,-0.11106 -0.0275,-0.0657 -0.0557,-0.12954 -0.0787,-0.19512 -0.0247,0.0391 -0.0794,0.0692 -0.14111,0.0913 -0.009,-0.0215 -0.0173,-0.0427 -0.0254,-0.0642 0.0529,-0.0165 0.10018,-0.0405 0.13017,-0.0762 l 0.0166,-0.0124 c -0.0381,-0.11712 -0.0713,-0.23562 -0.0967,-0.35729 -0.0243,0.0574 -0.0864,0.10238 -0.15381,0.13049 -0.005,-0.0161 -0.009,-0.0324 -0.013,-0.0487 0.0681,-0.0269 0.12347,-0.0724 0.14746,-0.13656 l 0.007,-0.009 c -0.0187,-0.0923 -0.0346,-0.18658 -0.0469,-0.2825 -0.0434,0.0448 -0.1083,0.0762 -0.17851,0.0927 -0.004,-0.0244 -0.008,-0.0487 -0.0113,-0.073 0.0684,-0.0138 0.12277,-0.048 0.17957,-0.0973 -0.008,-0.0752 -0.0152,-0.15106 -0.0208,-0.22613 -0.0526,0.0475 -0.11748,0.0744 -0.18838,0.0825 -0.002,-0.0255 -0.005,-0.0504 -0.007,-0.0759 0.073,-0.009 0.127,-0.0391 0.1905,-0.0803 -0.004,-0.0724 -0.008,-0.14608 -0.0106,-0.21911 -0.0578,0.0405 -0.12418,0.0607 -0.19438,0.0642 -0.001,-0.0255 -0.002,-0.0511 -0.003,-0.0769 0.0631,-0.004 0.1471,-0.003 0.1912,-0.0522 l 0.005,-0.003 c -0.002,-0.0977 -0.002,-0.19748 0,-0.29601 -0.0593,0.028 -0.14605,0.0403 -0.19156,0.0403 -0.003,0 -0.005,0 -0.008,0 3.5e-4,-0.0265 7.2e-4,-0.0525 0.001,-0.0787 0.0127,0.001 0.0257,0.002 0.0385,0.002 0.0571,0 0.11395,-0.0127 0.16052,-0.0448 0.003,-0.12143 0.008,-0.24448 0.0145,-0.36658 -0.0473,0.0215 -0.12453,0.0287 -0.19932,0.0287 -7.2e-4,0 -0.001,0 -0.002,0 0.001,-0.022 0.002,-0.0434 0.003,-0.0653 0.0392,-4.2e-4 0.0787,-0.004 0.11747,-0.0102 l 0.0861,-0.0357 c 0.005,-0.098 0.0109,-0.19498 0.0173,-0.29171 -0.0243,-0.0384 -0.0367,-0.0825 -0.0744,-0.11645 -0.0279,-0.0249 -0.0727,-0.0532 -0.11888,-0.0706 0.001,-0.0296 0.003,-0.0596 0.005,-0.0892 0.0378,0.008 0.0755,0.0222 0.11218,0.0462 l 0.0512,0.0427 c 0.0268,0.0586 0.0501,0.1185 0.0674,0.17984 l 7.1e-4,0.0233 -0.001,0.002 c -0.0187,0.82902 -0.0536,1.69086 0.1838,2.46655 0.21378,0.69469 0.7807,1.17369 1.34373,1.625 0.084,0.031 0.17039,0.0564 0.25718,0.0817" />
    <path
       id="path1226"
       style="fill:#e13437;fill-opacity:1;fill-rule:nonzero;stroke:none;stroke-width:0.03527778"
       d="m 133.08216,187.02321 c 0.008,-0.17597 0.0183,-0.35098 0.0275,-0.52462 0.0462,0.0174 0.091,0.0456 0.11888,0.0706 0.0378,0.0339 0.0501,0.078 0.0744,0.11645 -0.006,0.0967 -0.0123,0.19374 -0.0173,0.29171 l -0.0861,0.0357 c -0.0388,0.007 -0.0783,0.01 -0.11747,0.0102" />
    <path
       id="path1228"
       style="fill:#e13437;fill-opacity:1;fill-rule:nonzero;stroke:none;stroke-width:0.03527778"
       d="m 133.0871,188.17111 c -0.006,-0.0779 -0.0113,-0.15653 -0.0145,-0.23523 0.0702,-0.004 0.13652,-0.0237 0.19438,-0.0642 0.003,0.073 0.006,0.14676 0.0106,0.21911 -0.0635,0.0412 -0.11748,0.0712 -0.1905,0.0803" />
    <path
       id="path1230"
       style="fill:#e13437;fill-opacity:1;fill-rule:nonzero;stroke:none;stroke-width:0.03527778"
       d="m 133.06981,187.85897 c -0.003,-0.10333 -0.004,-0.20711 -0.004,-0.31087 0.003,0 0.005,0 0.008,0 0.0455,0 0.13229,-0.0123 0.19156,-0.0403 -0.002,0.0985 -0.002,0.1983 0,0.29602 l -0.005,0.003 c -0.0441,0.0493 -0.12806,0.0487 -0.19121,0.0522" />
    <path
       id="path1232"
       style="fill:#e13437;fill-opacity:1;fill-rule:nonzero;stroke:none;stroke-width:0.03527778"
       d="m 133.10579,187.4712 c -0.0127,0 -0.0258,-6.6e-4 -0.0385,-0.002 0.002,-0.1269 0.006,-0.25425 0.0116,-0.38086 0.001,0 0.002,0 0.002,0 0.0748,0 0.15205,-0.007 0.19932,-0.0287 -0.007,0.1221 -0.0116,0.24514 -0.0145,0.36657 -0.0466,0.0321 -0.10336,0.0448 -0.16051,0.0448" />
    <path
       id="path1234"
       style="fill:#e13437;fill-opacity:1;fill-rule:nonzero;stroke:none;stroke-width:0.03527778"
       d="m 133.12343,188.48794 c -0.012,-0.0801 -0.0219,-0.16016 -0.0296,-0.24091 0.0709,-0.008 0.13582,-0.035 0.18838,-0.0825 0.006,0.0751 0.0123,0.15089 0.0208,0.22613 -0.0568,0.0493 -0.11112,0.0835 -0.17956,0.0973" />
    <path
       id="path1236"
       style="fill:#e13437;fill-opacity:1;fill-rule:nonzero;stroke:none;stroke-width:0.03527778"
       d="m 133.20563,188.8961 c -0.0286,-0.1108 -0.0522,-0.22256 -0.0709,-0.33514 0.0702,-0.0165 0.13511,-0.048 0.1785,-0.0927 0.0123,0.0959 0.0282,0.19018 0.0469,0.2825 l -0.007,0.009 c -0.024,0.0642 -0.0794,0.10968 -0.14746,0.13656" />
    <path
       id="path1238"
       style="fill:#e13437;fill-opacity:1;fill-rule:nonzero;stroke:none;stroke-width:0.03527778"
       d="m 133.3224,189.26017 c -0.0402,-0.10375 -0.0748,-0.2092 -0.10372,-0.31542 0.0674,-0.0281 0.12947,-0.0731 0.15381,-0.13049 0.0254,0.12167 0.0586,0.24017 0.0967,0.35729 l -0.0166,0.0124 c -0.03,0.0357 -0.0773,0.0597 -0.13017,0.0762" />
    <path
       id="path1240"
       style="fill:#e13437;fill-opacity:1;fill-rule:nonzero;stroke:none;stroke-width:0.03527778"
       d="m 133.44516,189.53922 c -0.0289,-0.0586 -0.0561,-0.11822 -0.0822,-0.17928 -0.005,-0.012 -0.0102,-0.024 -0.0152,-0.0356 0.0617,-0.0222 0.11642,-0.0522 0.14112,-0.0913 0.0229,0.0656 0.0512,0.1294 0.0787,0.19512 -0.0395,0.043 -0.0801,0.08 -0.12242,0.11106" />
    <path
       id="path1242"
       style="fill:#e13437;fill-opacity:1;fill-rule:nonzero;stroke:none;stroke-width:0.03527778"
       d="m 134.74833,190.78731 c -0.55633,-0.19114 -0.9772,-0.61874 -1.26789,-1.17821 0.0452,-0.0375 0.0819,-0.0823 0.10442,-0.13409 0.0579,0.133 0.12101,0.26459 0.20109,0.3919 0.26035,0.3641 0.60995,0.64358 0.96238,0.9204" />
    <path
       id="path1244"
       style="fill:#d6252e;fill-opacity:1;fill-rule:nonzero;stroke:none;stroke-width:0.03527778"
       d="m 130.71787,194.98579 c -0.10389,-0.32315 -0.26913,-0.64065 -0.33983,-0.95497 -0.0109,-0.048 -0.0207,-0.0936 -0.0292,-0.13769 0.003,-0.005 0.005,-0.0102 0.008,-0.0154 0.009,0.049 0.0195,0.0998 0.0315,0.1531 0.0708,0.31211 0.23358,0.62728 0.33803,0.94795 -0.003,0.002 -0.006,0.005 -0.009,0.007 m -0.39839,-1.28102 c -0.007,-0.0602 -0.0106,-0.11849 -0.0113,-0.17554 0.004,-0.0156 0.007,-0.0307 0.0113,-0.0463 -0.001,0.0674 0.002,0.13519 0.01,0.20574 -0.003,0.006 -0.006,0.0109 -0.01,0.0161" />
    <path
       id="path1246"
       style="fill:#bd1e25;fill-opacity:1;fill-rule:nonzero;stroke:none;stroke-width:0.03527778"
       d="m 130.74462,195.07398 c -0.008,-0.0296 -0.0172,-0.059 -0.0267,-0.0882 0.003,-0.002 0.006,-0.005 0.009,-0.007 0.005,0.0147 0.01,0.0296 0.0142,0.0444 0.002,0.0169 0.003,0.0339 0.004,0.0508" />
    <path
       id="path1248"
       style="fill:#c81f25;fill-opacity:1;fill-rule:nonzero;stroke:none;stroke-width:0.03527778"
       d="m 130.34883,193.89313 c -0.0125,-0.0659 -0.0225,-0.12827 -0.0293,-0.18838 0.003,-0.005 0.006,-0.0104 0.01,-0.0161 0.006,0.0602 0.0157,0.12308 0.0278,0.18909 -0.003,0.005 -0.005,0.0102 -0.008,0.0154" />
    <path
       id="path1250"
       style="fill:#83161f;fill-opacity:1;fill-rule:nonzero;stroke:none;stroke-width:0.03527778"
       d="m 130.74063,195.02315 c -0.005,-0.0147 -0.009,-0.0296 -0.0142,-0.0444 -0.10445,-0.32068 -0.26719,-0.63585 -0.33803,-0.94795 -0.012,-0.0533 -0.0226,-0.10407 -0.0315,-0.15311 -0.0121,-0.066 -0.0215,-0.12887 -0.0278,-0.18909 -0.007,-0.0706 -0.0106,-0.13832 -0.01,-0.20574 -0.004,0.0156 -0.008,0.0307 -0.0113,0.0463 -1.4e-4,-0.0156 0,-0.0307 2.9e-4,-0.0463 -0.10336,0.41342 -0.13504,0.84572 -0.10682,1.29897 -0.0865,-0.38132 -0.0956,-0.76909 -0.0404,-1.15108 0.05,-0.26141 0.12361,-0.5158 0.21674,-0.75353 0.47527,-1.21458 1.86027,-1.72653 2.448,-2.80568 0.0476,-0.0931 0.091,-0.1881 0.133,-0.28402 l 0.006,-0.007 0.0152,-0.0298 c -0.0395,-0.004 -0.0818,-0.012 -0.12417,-0.0236 0.0145,-0.0229 0.0286,-0.0461 0.0427,-0.0699 0.0381,0.009 0.0762,0.014 0.11183,0.014 0.002,0 0.003,0 0.005,0 l 0.0109,-0.002 c -0.007,0.0688 -0.0173,0.13709 -0.0293,0.20532 -0.0533,0.11948 -0.11466,0.2348 -0.19297,0.34064 l -0.0236,0.0731 c -0.34078,0.57545 -1.0093,0.91155 -1.47708,1.41468 -0.3115,0.33556 -0.55125,0.68544 -0.72831,1.05089 -0.0848,0.14044 -0.15847,0.28786 -0.20189,0.45406 -0.0978,0.37003 0.0551,0.79763 0.21911,1.15079 0.0269,0.0898 0.0524,0.18165 0.0779,0.27274 0.0371,0.13462 0.0597,0.26458 0.0711,0.39151" />
    <path
       id="path1252"
       style="fill:#e13437;fill-opacity:1;fill-rule:nonzero;stroke:none;stroke-width:0.03527778"
       d="m 133.01019,189.67179 c -0.0356,0 -0.0737,-0.005 -0.11183,-0.014 0.048,-0.0812 0.0921,-0.16581 0.13159,-0.25439 0.007,0.0868 0.005,0.17639 -0.004,0.2661 l -0.0109,0.002 c -0.001,0 -0.003,0 -0.005,0" />
    <path
       id="path1254"
       style="fill:#e13437;fill-opacity:1;fill-rule:nonzero;stroke:none;stroke-width:0.03527778"
       d="m 130.1613,193.63077 c 0.10223,-0.70626 0.42457,-1.3939 0.88356,-1.98755 0.55457,-0.71727 1.34232,-1.17616 1.81081,-1.91562 0.0423,0.0116 0.0847,0.0194 0.12418,0.0236 l -0.0152,0.0298 -0.006,0.007 c -0.042,0.0959 -0.0854,0.19089 -0.133,0.28402 -0.58773,1.07915 -1.97273,1.5911 -2.44799,2.80568 -0.0931,0.23773 -0.16673,0.49212 -0.21675,0.75353" />
  </g>
</svg>
