<?xml version="1.0" encoding="UTF-8" standalone="no"?>
<!-- Created with Inkscape (http://www.inkscape.org/) -->

<svg
   xmlns:dc="http://purl.org/dc/elements/1.1/"
   xmlns:cc="http://creativecommons.org/ns#"
   xmlns:rdf="http://www.w3.org/1999/02/22-rdf-syntax-ns#"
   xmlns:svg="http://www.w3.org/2000/svg"
   xmlns="http://www.w3.org/2000/svg"
   xmlns:sodipodi="http://sodipodi.sourceforge.net/DTD/sodipodi-0.dtd"
   xmlns:inkscape="http://www.inkscape.org/namespaces/inkscape"
   width="15.520603mm"
   height="17.901217mm"
   viewBox="0 0 31.041207 35.802433"
   version="1.1"
   id="svg4565"
   inkscape:version="0.92.3 (2405546, 2018-03-11)"
   sodipodi:docname="ribCage.svg">
  <defs
     id="defs4559" />
  <sodipodi:namedview
     id="base"
     pagecolor="#ffffff"
     bordercolor="#666666"
     borderopacity="1.0"
     inkscape:pageopacity="0.0"
     inkscape:pageshadow="2"
     inkscape:zoom="0.35"
     inkscape:cx="-668.48239"
     inkscape:cy="154.28603"
     inkscape:document-units="mm"
     inkscape:current-layer="layer1"
     showgrid="false"
     fit-margin-top="0"
     fit-margin-left="0"
     fit-margin-right="0"
     fit-margin-bottom="0"
     inkscape:window-width="1366"
     inkscape:window-height="662"
     inkscape:window-x="0"
     inkscape:window-y="27"
     inkscape:window-maximized="1" />
  <metadata
     id="metadata4562">
    <rdf:RDF>
      <cc:Work
         rdf:about="">
        <dc:format>image/svg+xml</dc:format>
        <dc:type
           rdf:resource="http://purl.org/dc/dcmitype/StillImage" />
        <dc:title></dc:title>
      </cc:Work>
    </rdf:RDF>
  </metadata>
  <g
     inkscape:label="Layer 1"
     inkscape:groupmode="layer"
     id="layer1"
     transform="translate(-138.6937,-171.75363)">
    <path
       d="m 164.92059,201.01905 c 1.04458,0.0296 2.30964,-0.83256 3.4477,-2.02495 0.30092,-0.31538 0.57256,-0.64699 0.81703,-0.98989 0.65899,-0.73942 0.73907,-2.1777 0.16581,-3.0801 -0.67028,3.0554 -3.57435,4.90925 -4.43054,4.94418 -1.35784,0.0617 -3.18488,-1.14759 -3.14219,-1.6376 0.0427,-0.49001 0.77752,-0.22084 2.24684,-0.62829 1.55998,-0.42157 3.87491,-1.44992 5.32307,-3.93842 0.496,-0.63394 0.44802,-1.8803 -0.12559,-2.78518 -0.86466,3.59657 -3.38667,5.04226 -5.49769,5.6127 -1.7773,0.37994 -4.40443,-1.10772 -4.04742,-2.46415 0.006,0.002 2.18016,0.6417 3.42476,0.21237 2.23379,-0.71579 4.7498,-2.24649 6.02615,-4.5272 0.58809,-1.10102 -0.16298,-3.4103 -0.4392,-3.08292 -0.0646,3.32528 -3.22545,5.63774 -5.97712,6.39268 -2.94675,0.80857 -6.66397,-3.24732 -5.92984,-3.79307 1.54975,0.72285 3.13761,1.82175 5.02603,1.32927 2.86173,-0.63112 5.62962,-2.25178 6.87669,-4.6422 0.40817,-1.21991 0.19227,-2.77813 -0.6604,-3.10162 0.25365,3.35139 -2.98238,5.71888 -6.51933,6.37081 -2.63525,0.48578 -5.3273,-2.26801 -5.20876,-2.84127 0.1972,-0.46955 1.76459,0.3489 3.8615,0.1785 2.87902,-0.23424 6.22653,-1.97732 7.63447,-4.49897 0.30197,-0.81915 -0.12947,-1.62631 -0.65194,-1.85138 -0.45649,2.72486 -3.81353,4.71593 -7.05238,5.07577 -1.19697,0.16651 -4.30777,-0.73942 -4.30777,-1.70392 0,-0.9786 2.0701,-0.43427 3.71017,-0.93768 10e-4,-3.5e-4 6.00568,-1.54411 6.98288,-3.6001 0.0303,-0.0642 0.0586,-0.12947 0.085,-0.19509 0.20179,-0.75494 -0.45367,-1.91346 -1.13947,-2.19956 0.1912,0.73307 0.16474,1.32891 -0.0829,1.81045 -0.65335,1.27212 -6.00181,2.8956 -6.2163,2.96122 -2.02741,0.54716 -3.29142,-0.001 -3.3394,-0.65194 -0.1598,-0.92216 2.07963,-1.30422 2.85715,-1.4986 3.41242,-0.75141 5.49205,-1.88771 6.18137,-3.37714 0.0208,-0.0448 0.0395,-0.0896 0.0575,-0.13476 0.12595,-0.97261 -0.59337,-1.85949 -1.31162,-1.88807 0.2674,0.55316 0.29986,1.0407 0.0942,1.4859 -0.35278,0.76165 -1.55787,1.84221 -5.29625,2.66559 0,0 -0.096,0.0222 -0.0995,0.0229 -1.02941,0.21837 -2.43664,-0.0974 -2.48286,-0.72742 -0.15981,-0.92216 1.99743,-1.53882 2.89419,-1.67146 2.17911,-0.37148 3.51261,-1.34409 3.98392,-2.90054 -0.0773,-0.60431 -0.45297,-0.95427 -0.85372,-0.95427 -0.16898,1.56387 -1.24954,2.37984 -3.34398,2.72592 -0.0402,0.006 -0.0822,0.0127 -0.12559,0.0208 -1.59068,0.29775 -2.68288,-1.44427 -4.12115,-1.43334 -1.43828,-0.0109 -2.53012,1.73109 -4.1208,1.43334 -0.0434,-0.008 -0.0854,-0.0152 -0.12594,-0.0208 -2.09409,-0.34608 -3.17465,-1.16205 -3.34398,-2.72592 -0.4004,0 -0.77611,0.34996 -0.85372,0.95427 0.47131,1.55645 1.80516,2.52906 3.98427,2.90054 0.89676,0.13264 3.054,0.7493 2.89419,1.67146 -0.0462,0.63006 -1.45345,0.94579 -2.48285,0.72742 -0.004,-7.1e-4 -0.0995,-0.0229 -0.0995,-0.0229 -3.73873,-0.82338 -4.94347,-1.90394 -5.29625,-2.66559 -0.20602,-0.4452 -0.17321,-0.93274 0.0938,-1.4859 -0.71825,0.0286 -1.43722,0.91546 -1.31163,1.88807 0.0183,0.0452 0.037,0.09 0.0579,0.13476 0.68933,1.48943 2.76895,2.62573 6.18102,3.37714 0.77752,0.19438 3.01731,0.57644 2.8575,1.4986 -0.048,0.65053 -1.31198,1.19909 -3.3394,0.65194 -0.21449,-0.0656 -5.56295,-1.6891 -6.21665,-2.96122 -0.24729,-0.48154 -0.27375,-1.07738 -0.0825,-1.81046 -0.68615,0.28611 -1.34126,1.44463 -1.13982,2.19957 0.0268,0.0656 0.055,0.13088 0.0854,0.19509 0.97684,2.05599 6.98147,3.59974 6.98253,3.6001 1.64042,0.50341 3.71052,-0.0409 3.71052,0.93768 0,0.96449 -3.1108,1.87043 -4.30812,1.70392 -3.23886,-0.35984 -6.59554,-2.35091 -7.05203,-5.07577 -0.52247,0.22507 -0.95391,1.03223 -0.65194,1.85138 1.40794,2.52165 4.7551,4.26473 7.63412,4.49897 2.09726,0.17039 3.6643,-0.64805 3.86185,-0.1785 0.11818,0.57326 -2.57386,3.32704 -5.20911,2.84127 -3.53695,-0.65193 -6.77298,-3.01943 -6.51898,-6.37081 -0.85302,0.32349 -1.06857,1.88171 -0.6604,3.10162 1.24707,2.39042 4.01461,4.01108 6.87669,4.6422 1.88842,0.49248 3.47628,-0.60642 5.02603,-1.32927 0.73378,0.54575 -2.98309,4.60164 -5.92984,3.79307 -2.75167,-0.75494 -5.91291,-3.0674 -5.97712,-6.39269 -0.27622,-0.32737 -1.02729,1.98191 -0.4392,3.08293 1.27599,2.28071 3.792,3.81141 6.02615,4.5272 1.2446,0.42933 3.41806,-0.21061 3.42476,-0.21238 0.35701,1.35643 -2.27012,2.8441 -4.04742,2.46416 -2.11102,-0.57044 -4.63303,-2.01613 -5.49804,-5.6127 -0.57326,0.90488 -0.62124,2.15124 -0.12559,2.78518 1.44851,2.4885 3.76308,3.51684 5.32342,3.93841 1.46897,0.40746 2.20415,0.13829 2.24684,0.6283 0.0427,0.49001 -1.78435,1.69933 -3.14219,1.6376 -0.85655,-0.0349 -3.76061,-1.88878 -4.43089,-4.94418 -0.57291,0.9024 -0.49283,2.34068 0.16616,3.0801 0.24447,0.3429 0.51576,0.67451 0.81703,0.98989 1.13806,1.19239 2.40277,2.05458 3.4477,2.02495 0.64911,0.0243 1.78153,-0.3115 1.90077,0.003 0.28151,0.7433 -1.54482,2.21227 -2.70052,1.92581 -1.04105,-0.33832 -2.29835,-1.17052 -3.16159,-2.6984 -0.48331,0.67521 -0.0836,1.46543 0.43885,2.06868 0.81951,0.82692 1.73179,1.34797 2.5273,1.5928 0.57926,0.17533 1.56598,0.0716 1.56598,0.45508 0,0.38347 -1.25871,2.11984 -2.52095,0.51294 -0.73166,-0.93133 -0.77964,-1.23719 -1.10137,-0.91123 -0.24236,1.12748 0.71191,2.03165 1.16523,3.04165 0.4646,1.03541 1.18215,0.45826 2.0454,-0.55386 1.23578,-1.44886 8.01158,-14.87099 10.547,-14.87099 2.53577,0 9.31122,13.42213 10.54735,14.87099 0.86289,1.01212 1.5808,1.58927 2.0454,0.55386 0.45332,-1.01 1.40759,-1.91417 1.16523,-3.04165 -0.32173,-0.32596 -0.37006,-0.0201 -1.10137,0.91123 -1.26224,1.6069 -2.52095,-0.12947 -2.52095,-0.51294 0,-0.38347 0.98672,-0.27975 1.56598,-0.45508 0.79551,-0.24483 1.70779,-0.76588 2.5273,-1.5928 0.52246,-0.60325 0.92181,-1.39347 0.43885,-2.06868 -0.86324,1.52788 -2.12054,2.36008 -3.16194,2.69839 -1.15535,0.28646 -2.98168,-1.18251 -2.70017,-1.92581 0.11924,-0.31433 1.25131,0.0215 1.90077,-0.003"
       style="fill:#bbb394;fill-opacity:1;fill-rule:nonzero;stroke:none;stroke-width:0.03527778"
       id="path874"
       inkscape:connector-curvature="0" />
  </g>
</svg>
