<?xml version="1.0" encoding="UTF-8" standalone="no"?>
<!-- Created with Inkscape (http://www.inkscape.org/) -->

<svg
   xmlns:dc="http://purl.org/dc/elements/1.1/"
   xmlns:cc="http://creativecommons.org/ns#"
   xmlns:rdf="http://www.w3.org/1999/02/22-rdf-syntax-ns#"
   xmlns:svg="http://www.w3.org/2000/svg"
   xmlns="http://www.w3.org/2000/svg"
   xmlns:sodipodi="http://sodipodi.sourceforge.net/DTD/sodipodi-0.dtd"
   xmlns:inkscape="http://www.inkscape.org/namespaces/inkscape"
   width="30.498055mm"
   height="30.489668mm"
   viewBox="0 0 365.97666 365.87602"
   version="1.1"
   id="svg1496"
   inkscape:version="0.92.3 (2405546, 2018-03-11)"
   sodipodi:docname="sight.svg">
  <defs
     id="defs1490" />
  <sodipodi:namedview
     id="base"
     pagecolor="#ffffff"
     bordercolor="#666666"
     borderopacity="1.0"
     inkscape:pageopacity="0.0"
     inkscape:pageshadow="2"
     inkscape:zoom="0.35"
     inkscape:cx="432.7787"
     inkscape:cy="-578.05472"
     inkscape:document-units="mm"
     inkscape:current-layer="g90"
     showgrid="false"
     inkscape:window-width="1366"
     inkscape:window-height="662"
     inkscape:window-x="0"
     inkscape:window-y="27"
     inkscape:window-maximized="1"
     fit-margin-top="-0.4"
     fit-margin-left="0"
     fit-margin-right="0"
     fit-margin-bottom="0" />
  <metadata
     id="metadata1493">
    <rdf:RDF>
      <cc:Work
         rdf:about="">
        <dc:format>image/svg+xml</dc:format>
        <dc:type
           rdf:resource="http://purl.org/dc/dcmitype/StillImage" />
        <dc:title></dc:title>
      </cc:Work>
    </rdf:RDF>
  </metadata>
  <g
     inkscape:label="Layer 1"
     inkscape:groupmode="layer"
     id="layer1"
     transform="translate(34.065712,0.84280381)">
    <g
       id="g42"
       transform="matrix(0.06626084,0,0,-0.06626084,-189.02286,1284.141)">
      <path
         d="m 7594.57,16300 c -0.32,-2.3 -0.64,-4.5 -1.01,-6.8 0.32,2.1 0.69,4.6 1.01,6.8"
         style="fill:#ffffff;fill-opacity:1;fill-rule:nonzero;stroke:none"
         id="path44"
         inkscape:connector-curvature="0" />
    </g>
    <g
       id="g46"
       transform="matrix(0.06715971,0,0,-0.06715971,-189.02286,1284.141)">
      <path
         d="m 5848.95,16300 c -0.36,-3.5 -0.68,-6.5 0,0 v 0"
         style="fill:#ffffff;fill-opacity:1;fill-rule:nonzero;stroke:none"
         id="path48"
         inkscape:connector-curvature="0" />
    </g>
    <g
       id="g50"
       transform="matrix(0.07067232,0,0,-0.07067232,-189.02286,1284.141)">
      <path
         d="m 3826.14,15594.4 c 0.26,52.5 5.28,104.4 13.23,156.2 32.63,212.8 142.97,406.3 299.6,549.4 -75.65,-20.9 -150.46,-44.8 -224.21,-71.6 -28.28,-10.3 -56.41,-20.9 -84.38,-32 -13.79,-5.5 -27.55,-11.1 -41.26,-16.7 -2.8,-1.1 -11.04,-4.6 -13.69,-5.7 -2.78,-1.2 -5.56,-2.4 -8.33,-3.6 -54.62,-23.5 -108.6,-48.7 -161.88,-75.1 -180.27,-89.5 -352.56,-194.8 -515.42,-313 -1.48,-1.4 -11.67,-9.4 -13.43,-11 -6.4,-5.7 -12.61,-11.6 -18.58,-17.7 -5.9,-6.1 -11.31,-12.6 -16.99,-18.9 -0.63,-0.7 -1.19,-1.3 -1.72,-1.9 -0.52,-0.9 -1.13,-1.9 -1.88,-3.1 -8.6,-14 -17.58,-27.5 -24.96,-42.3 -2.38,-4.8 -11.27,-29.4 -2.41,-4.3 -2.68,-7.6 -5.57,-15.1 -7.97,-22.8 -3.18,-10.2 -5.89,-20.6 -8.14,-31 -0.74,-3.5 -2.45,-15.4 -2.79,-16.5 -0.98,-11.5 -1.48,-23.1 -1.34,-34.7 0.09,-8 0.9,-15.9 1.09,-23.9 0.03,-1.2 0.04,-2.1 0.04,-3 0.04,-0.2 0.08,-0.4 0.12,-0.6 3.21,-15.7 6.42,-31.3 11.26,-46.7 1.55,-4.9 12.93,-31.9 6.3,-18.2 2.57,-5.4 5.17,-10.8 8.02,-16.1 6.12,-11.6 13.02,-22.5 20.3,-33.2 -1.14,1.9 8.24,-10.8 10.46,-13.3 5.68,-6.3 11.58,-12.5 17.7,-18.4 6.23,-6.1 12.77,-11.7 19.31,-17.4 1.6,-1.4 2.84,-2.6 3.83,-3.4 1.98,-1.4 4.85,-3.5 8.92,-6.5 160.7,-117.7 327.57,-225.3 506.15,-314.1 83.57,-41.6 144.18,-68.3 222.99,-98.6 80.04,-30.7 161.52,-57.6 244.13,-80.6 35.42,-9.7 71.06,-18.8 106.86,-27.1 -215.97,178.8 -349.46,447.2 -350.93,737.4"
         style="fill:#ffffff;fill-opacity:1;fill-rule:nonzero;stroke:none"
         id="path52"
         inkscape:connector-curvature="0" />
    </g>
    <g
       id="g54"
       transform="matrix(0.06450083,0,0,-0.06450083,-189.02286,1284.141)">
      <path
         d="m 5574.15,16296.3 c 9.08,3.7 2.52,1 -0.33,-0.2 0.11,0.1 0.22,0.1 0.33,0.2"
         style="fill:#ffffff;fill-opacity:1;fill-rule:nonzero;stroke:none"
         id="path56"
         inkscape:connector-curvature="0" />
    </g>
    <g
       id="g58"
       transform="matrix(0.07097854,0,0,-0.07097854,-189.02286,1284.141)">
      <path
         d="m 4865.49,16300 c 3.24,-0.3 6.07,-0.6 0,0 v 0"
         style="fill:#ffffff;fill-opacity:1;fill-rule:nonzero;stroke:none"
         id="path60"
         inkscape:connector-curvature="0" />
    </g>
    <g
       id="g62"
       transform="matrix(0.07077463,0,0,-0.07077463,-189.02286,1284.141)">
      <path
         d="m 6310.09,15272.2 c 40.33,25.5 80.2,51.7 119.58,78.7 10.32,7.1 20.49,14.4 30.85,21.4 1.4,0.9 2.55,1.6 3.49,2.3 0.7,0.6 1.45,1.3 2.35,2.2 6.18,5.7 12.61,11.1 18.64,17.1 5.93,5.8 11.66,11.8 17.14,18.1 2.5,2.8 12.02,16.3 9.72,12.7 7.03,10.5 13.81,21.1 19.79,32.4 2.85,5.3 15.66,37.4 5.98,10.8 2.7,7.4 5.54,14.8 7.93,22.4 4.79,15.1 7.93,30.3 11.26,45.8 0.11,0.4 0.15,0.7 0.26,1 0,0.6 0,1.3 0.04,2 0.3,7.8 1.1,15.6 1.25,23.5 0.3,13.4 -0.55,26.7 -1.59,40 1.24,-17 -1.95,11.7 -3.24,17.6 -1.75,7.7 -3.74,15.3 -5.99,22.9 -2.24,7.6 -5.08,15 -7.52,22.5 -0.2,0.7 -0.4,1.3 -0.6,1.9 -0.35,0.7 -0.75,1.4 -1.2,2.2 -7.67,14.2 -14.85,28.4 -23.87,42 -2.1,3.1 -13.36,17.2 -9.02,12.2 -3.29,3.9 -6.68,7.8 -10.17,11.6 -7.73,8.2 -15.8,16.1 -24.28,23.5 -0.35,0.4 -12.16,10 -13.11,10.9 -15.25,11.9 -30.95,23.3 -46.55,34.7 -39.93,29.3 -80.5,57.8 -121.62,85.4 -81.45,54.8 -165.14,106 -251.12,153.3 -80.55,44.4 -163.05,85.2 -247.34,121.9 -5.88,2.6 -11.76,5.1 -17.64,7.6 -1.55,0.6 -3.54,1.5 -6.08,2.5 -9.72,4 -19.49,8.1 -29.26,12 -19.39,7.7 -38.88,15.3 -58.42,22.6 -38.33,14.4 -77.01,27.8 -115.94,40.5 -57.27,18.5 -115.14,35 -173.56,49.6 78.76,-65.8 147.54,-144.8 202.52,-235.6 101.44,-167.5 149.74,-368.8 133.84,-564.2 -16.1,-198.6 -91.72,-383.7 -217.63,-538 -25.87,-31.7 -53.83,-61.4 -83.54,-89.1 100.94,28.1 200.48,61.4 298.12,99.4 16.45,6.4 32.8,12.9 49.15,19.6 6.93,2.8 13.86,5.7 20.79,8.5 0.89,0.4 1.64,0.7 2.34,1 26.97,11.6 53.78,23.4 80.5,35.5 53.68,24.5 106.72,50.4 159.1,77.6 93.76,48.6 185.38,101.2 274.65,157.5"
         style="fill:#ffffff;fill-opacity:1;fill-rule:nonzero;stroke:none"
         id="path64"
         inkscape:connector-curvature="0" />
    </g>
    <g
       id="g66"
       transform="matrix(0.06629047,0,0,-0.06629047,-189.02286,1284.141)">
      <path
         d="m 5867.18,16300 c -1.17,-2.8 -3.78,-9.2 -0.16,-0.3 0.05,0.1 0.1,0.2 0.16,0.3"
         style="fill:#ffffff;fill-opacity:1;fill-rule:nonzero;stroke:none"
         id="path68"
         inkscape:connector-curvature="0" />
    </g>
    <g
       id="g70"
       transform="matrix(0.07100958,0,0,-0.07100958,-189.02286,1284.141)">
      <path
         d="m 5119.21,15219.4 c -122.12,-149 -337.74,-208.2 -518.59,-140.7 -185.31,69 -308.63,243.6 -310.8,441.7 0.56,51.5 9.75,102 26.17,149.6 19.46,-9.5 40.32,-16.5 62.17,-20.8 15.93,-3.1 32.37,-4.8 49.21,-4.8 7.37,0 14.65,0.4 21.87,1 112.22,9.6 203.67,91.8 227.07,199.5 3.8,17.5 5.86,35.6 5.86,54.3 0,5.3 -0.22,10.7 -0.54,15.9 -1.41,22.9 -5.85,44.9 -12.89,65.7 193.84,35.6 392.99,-50.5 494.48,-221.1 101.4,-170.4 80.58,-388.2 -44.01,-540.3 z m 338.57,-44 c 4.42,8.8 8.74,17.7 12.86,26.7 2.29,4.9 4.52,9.9 6.71,14.9 16.15,39.4 29.21,80 39.25,121.4 5.11,21.1 9.44,42.3 12.96,63.7 0.9,5.4 1.74,10.8 2.49,16.1 0.1,1.3 0.25,2.7 0.44,4.4 1.05,10.3 2.09,20.5 2.89,30.8 3.43,44.6 3.43,89.4 0,133.9 -0.9,11.8 -2.09,23.5 -3.43,35.2 -0.05,0.9 -0.15,1.5 -0.2,2.1 -0.05,0.3 -0.1,0.6 -0.15,1 -0.64,4.3 -1.34,8.6 -2.04,13 -3.28,20 -7.25,39.8 -11.92,59.5 -9.94,41.8 -23.2,82.4 -38.9,122.3 -0.55,1.3 -0.94,2.4 -1.34,3.4 -0.25,0.5 -0.75,1.5 -1.54,3.3 -2.34,5.1 -4.62,10.3 -7,15.4 -4.18,8.9 -8.5,17.8 -12.97,26.5 -8.94,17.6 -18.43,34.7 -28.52,51.6 -11.52,19.2 -23.75,37.9 -36.71,56.2 -2.54,3.6 -11.58,15.9 -13.22,18.1 -1.59,2 -10.83,13.6 -14.06,17.5 -26.72,32 -55.79,62.2 -86.84,90.2 -35.87,32.2 -48.14,41.7 -88.58,68 -35.22,23 -72.13,43.5 -110.39,61.1 -4.37,2 -8.74,4 -13.16,5.9 -1.94,0.8 -4.32,1.9 -5.12,2.2 -9.24,3.6 -18.48,7.2 -27.82,10.6 -20.07,7.3 -40.44,13.9 -61.06,19.6 -20.77,5.9 -41.78,10.9 -62.94,15.1 -9.96,2.1 -19.95,3.9 -29.97,5.6 -5.35,0.8 -10.72,1.6 -16.1,2.4 -1.22,0.1 -2.62,0.3 -4.37,0.4 -42.99,4.4 -85.94,6.5 -129.16,5 -23.64,-0.9 -47.21,-2.8 -70.71,-5.5 -0.72,-0.1 -1.32,-0.1 -1.85,-0.2 -4.75,-0.7 -9.51,-1.4 -14.25,-2.1 -10.02,-1.7 -20,-3.5 -29.97,-5.6 -42.13,-8.4 -83.62,-20 -124.02,-34.7 -10.66,-3.9 -21.24,-7.9 -31.74,-12.2 -0.11,-0.1 -0.17,-0.1 -0.28,-0.2 -0.62,-0.2 -1.39,-0.6 -2.49,-1.1 -3.86,-1.7 -7.73,-3.4 -11.58,-5.2 -19.15,-8.9 -37.97,-18.4 -56.43,-28.6 -18.38,-10.2 -36.39,-21 -53.97,-32.5 -14.64,-9.6 -38.96,-26.7 -45.88,-32 -6.11,-4.7 -30.32,-24.9 -42.69,-36 -14.49,-13 -28.54,-26.6 -42.12,-40.6 -15.53,-16 -30.45,-32.6 -44.7,-49.6 -3.23,-3.9 -12.48,-15.5 -14.09,-17.5 -1.59,-2.2 -10.68,-14.5 -13.21,-18.1 -24.31,-34.3 -46.13,-70.3 -65.21,-107.8 -5.76,-11.3 -11.17,-22.7 -16.5,-34.2 -1.78,-3.8 -3.49,-7.7 -5.19,-11.6 1.52,3.4 5.2,13.3 -1.15,-2.8 -7.29,-18.5 -14.21,-37.2 -20.34,-56.1 -13.31,-41 -23.51,-83.1 -30.51,-125.7 -0.2,-1.3 -1.62,-10.9 -2.25,-15 -0.29,-2.4 -0.65,-5.4 -0.66,-5.5 -1.19,-11.7 -2.4,-23.5 -3.24,-35.2 -1.48,-20.9 -2.12,-41.7 -2.22,-62.5 0.11,-22.4 0.85,-44.7 2.56,-67 0.79,-10.3 1.87,-20.5 2.9,-30.8 0.17,-1.7 0.32,-3.1 0.44,-4.4 0.75,-5.3 1.59,-10.7 2.47,-16.1 7,-42.5 17.2,-84.6 30.51,-125.7 6.56,-20.3 13.87,-40.3 21.95,-60 0.04,-0.1 0.06,-0.2 0.1,-0.3 0.3,-0.6 0.65,-1.4 1.16,-2.5 1.75,-3.8 3.45,-7.7 5.22,-11.5 4.13,-9 8.42,-17.9 12.85,-26.7 18.91,-37.5 40.54,-73.6 64.7,-108 17.2,-24.5 13.16,-19.3 32.4,-42.2 12.54,-15 25.59,-29.5 39.11,-43.5 15.45,-16.1 31.51,-31.5 48.14,-46.4 7.28,-6.4 14.67,-12.8 22.16,-19 4.05,-3.4 20.54,-16.6 17.41,-14.2 6.13,-4.7 31.92,-22.9 45.88,-32 17.59,-11.5 35.6,-22.3 53.97,-32.5 18.45,-10.2 37.28,-19.8 56.43,-28.6 5.13,-2.3 10.28,-4.7 15.45,-7 -3.45,1.6 -13.28,5.3 2.83,-1.1 9.24,-3.6 18.48,-7.3 27.81,-10.6 39.03,-14.2 79.1,-25.5 119.77,-33.9 12.79,-2.6 25.64,-5 38.53,-7 2.8,-0.5 5.59,-0.9 8.39,-1.3 2.18,-0.3 6.62,-0.9 7.77,-1 20.61,-1.9 41.17,-3.8 61.87,-4.7 44.7,-1.8 89.16,0.3 133.63,4.7 2.36,0.3 3.89,0.4 4.94,0.5 0.34,0.1 1.08,0.2 2.57,0.4 4.32,0.7 8.65,1.4 12.96,2.1 11.45,1.9 22.86,3.9 34.22,6.3 19.73,4.1 39.31,8.8 58.69,14.2 21.96,6.2 43.67,13.3 65.08,21.1 9.1,3.4 18.14,6.9 27.13,10.6 5.02,2.2 9.98,4.4 14.95,6.7 38.26,17.6 75.17,38 110.39,61.1 40.29,26.3 53.16,36.2 88.58,68 31.05,28 60.12,58.1 86.84,90.3 2.19,2.6 13.86,17.5 14.51,18.1 5.17,6.9 10.23,13.8 15.2,20.9 11.23,16 21.96,32.4 32.1,49.1 11.62,19.2 22.5,38.9 32.59,58.9"
         style="fill:#ffffff;fill-opacity:1;fill-rule:nonzero;stroke:none"
         id="path72"
         inkscape:connector-curvature="0" />
    </g>
    <g
       id="g74"
       transform="matrix(0.07784959,0,0,-0.07784959,-189.02286,1284.141)">
      <path
         d="m 4676.46,13269.7 c -294.6,-44.8 -592.35,-40.1 -884.47,20.8 -339.28,70.6 -661.54,217.5 -948.11,410.9 -40.76,27.4 -80.86,55.9 -120.32,85.3 -34.73,25.7 -70.25,51 -98.43,84.3 -48.99,57.6 -85.09,126.7 -96.76,202 -25.2,162.8 38.24,312.2 167.54,411.6 1.62,1.3 3.27,2.6 4.95,3.9 33.79,24.6 68.01,48.7 102.7,72.1 174.92,118 360.66,218.5 555.06,300.5 238.37,100.6 487.18,168.2 744.27,198.4 288.03,34 582.31,13 863.27,-58.8 341.22,-87.3 661.38,-249.9 945.73,-456 71.37,-51.8 141.07,-101.8 186.38,-179.3 37.39,-64 57.33,-139.5 56.6,-213.5 -0.68,-74 -21.12,-149.2 -59.63,-212.5 -38.16,-62.7 -90.86,-107.3 -150.68,-148.3 -168.93,-115.9 -348.11,-217.2 -535.35,-300.3 -234.15,-104 -479.08,-182.5 -732.75,-221.1 z m 402.31,-1123.3 c 26.78,9.7 53.38,19.9 79.75,30.7 5.71,2.3 11.42,4.5 17.09,6.9 1.58,0.8 3.12,1.4 4.26,1.9 12.96,5.8 25.96,11.5 38.88,17.4 100.28,45.7 197.16,98.8 289.65,158.8 47.09,30.6 92.67,63.2 137.62,96.8 1.09,0.8 1.95,1.5 2.68,2 0.91,0.7 1.99,1.6 3.31,2.6 4.98,4 9.97,7.9 14.95,11.9 9.97,7.9 19.85,15.9 29.64,24 21.57,17.9 42.82,36.1 63.71,54.7 81.61,72.8 157.97,151.5 228.21,235.3 9.83,11.7 19.53,23.5 29.09,35.4 4.81,6 9.52,12 14.28,17.9 1.17,1.5 4.3,5.6 6.7,8.7 13.87,18.4 27.64,36.9 41.06,55.7 32.63,45.7 63.53,92.7 92.62,140.7 29.23,48.2 56.6,97.5 82.11,147.8 12.78,25.3 25.11,50.7 36.94,76.4 5.34,11.7 10.65,23.4 15.81,35.3 2.09,4.6 4.26,9.3 6.3,14.1 0.5,1.2 1,2.5 1.41,3.5 43.32,106.1 79.52,214.8 106.71,326.3 13.73,56.4 25.29,113.4 34.62,170.8 2.54,15.8 4.85,31.6 7.16,47.4 0.59,4.1 0.96,6.4 1.09,7.5 0.5,4.1 0.86,8.2 1.36,12.3 3.17,26.7 5.85,53.4 8.07,80.2 9.83,119.2 10.24,239.3 1.27,358.6 -2.22,29.5 -5.03,59 -8.43,88.4 -0.91,7.9 -1.95,15.9 -2.86,23.8 -0.09,0.7 -0.18,1.3 -0.22,1.9 -2,13.9 -3.99,27.7 -6.17,41.5 -8.92,56.2 -19.98,111.9 -33.12,167.3 -26.28,110.2 -60.91,218.4 -103.59,323.4 -0.82,1.9 -7.16,17 -8.3,19.9 -1.08,2.5 -2.04,4.6 -2.17,5 -5.17,11.8 -10.38,23.6 -15.73,35.3 -11.73,25.7 -23.97,51.2 -36.7,76.5 -24.74,49.2 -51.3,97.6 -79.62,144.8 -28.19,47.1 -58.14,93.2 -89.72,138.1 -17.13,24.4 -34.9,48.3 -52.89,72.1 -4.39,5.6 -8.79,11.2 -13.23,16.7 -7.93,10 -15.95,19.8 -24.06,29.7 -71.33,86.2 -149.04,167.1 -232.33,241.9 -37.44,33.6 -76.04,65.8 -115.6,96.9 -3.81,2.8 -14.05,10.7 -16.54,12.6 -5.08,3.8 -10.2,7.6 -15.32,11.4 -11.28,8.3 -22.66,16.5 -34.12,24.6 -20.8,14.8 -41.87,29.2 -63.17,43.2 -94.21,62 -193.05,116.9 -295.51,164.1 -14,6.4 -28.14,12.7 -42.32,18.9 -4.62,2 -9.43,4.4 -14.18,6.1 0.99,-0.3 1.9,-0.7 2.76,-1 -2.63,1 -5.07,1.9 -6.3,2.4 -25.1,10.4 -50.43,20.2 -75.95,29.6 -52.52,19.4 -105.72,36.7 -159.55,52.1 -55.56,15.9 -111.79,29.5 -168.44,41 -28.55,5.8 -57.23,11 -86.01,15.7 -14.45,2.4 -28.91,4.6 -43.41,6.6 -1.54,0.2 -3.76,0.6 -5.89,1 -5.94,0.8 -11.96,1.3 -17.85,2 -115.93,13.8 -232.89,18.5 -349.54,14.3 -59.36,-2.1 -118.63,-6.5 -177.64,-13.3 -9.3,-1.1 -18.59,-2.3 -27.89,-3.4 -0.11,0 -0.18,-0.1 -0.28,-0.1 -13.04,-1.9 -26.09,-3.8 -39.11,-5.8 -28.8,-4.6 -57.51,-9.7 -86.11,-15.4 -110.35,-22 -219.03,-52.3 -324.8,-90.7 -29.2,-10.6 -58.18,-21.8 -86.91,-33.6 -3.94,-1.6 -7.93,-3.2 -11.85,-4.9 -2.45,-1.1 -4.75,-2.1 -5.87,-2.6 -11.81,-5.1 -23.58,-10.4 -35.31,-15.7 -51.42,-23.5 -101.95,-48.9 -151.44,-76.1 -96.36,-53.1 -187.81,-113.7 -275.88,-179.6 -1.01,-0.8 -1.85,-1.4 -2.62,-2 -2.11,-1.7 -4.23,-3.3 -6.33,-5 -5.01,-3.9 -9.99,-7.9 -14.95,-11.8 -10.93,-8.8 -21.77,-17.7 -32.53,-26.6 -19.55,-16.3 -38.83,-32.9 -57.82,-49.8 -41.77,-37.2 -82.15,-76 -121.04,-116.3 -38.9,-40.2 -76.3,-81.9 -112.1,-124.9 -9.77,-11.7 -19.42,-23.5 -28.95,-35.5 -2.64,-3.3 -17.85,-23 -17.75,-22.7 -14.13,-18.8 -28.13,-37.6 -41.73,-56.7 -64.46,-90.7 -122.19,-186.2 -172.51,-285.4 -12.79,-25.2 -25.1,-50.7 -36.93,-76.4 -6.46,-14 -12.78,-28.2 -18.95,-42.3 -2.04,-4.7 -4.38,-9.5 -6.13,-14.2 0.4,1 0.75,2 1.09,2.9 -1,-2.7 -1.97,-5.2 -2.48,-6.4 -21.18,-51.6 -40.42,-104 -57.68,-157 -35.39,-108.7 -62.38,-220.1 -80.7,-333 -2.57,-15.8 -4.91,-31.5 -7.18,-47.4 -0.05,-0.3 -0.08,-0.5 -0.12,-0.8 -0.11,-0.9 -0.22,-1.9 -0.36,-3.1 -0.65,-5.3 -1.32,-10.6 -1.95,-15.9 -3.49,-29.3 -6.39,-58.7 -8.72,-88.2 -4.71,-59.7 -6.95,-119.5 -7.06,-179.3 0.1,-57.2 2.14,-114.3 6.43,-171.3 2.23,-29.5 5.03,-58.9 8.41,-88.4 0.3,-2.5 1.43,-12.4 2.32,-20.2 1.52,-13.1 3.7,-26.1 5.72,-39.1 17.72,-114.4 44.37,-227.4 79.62,-337.7 17.37,-54.3 36.84,-108 58.34,-160.9 2.53,-6.2 5.01,-12.4 7.68,-18.7 1.16,-2.5 2.26,-5 2.77,-6.2 5.14,-11.8 10.39,-23.6 15.73,-35.3 10.68,-23.4 21.75,-46.6 33.23,-69.6 50.22,-100.8 108.05,-197.7 172.8,-289.8 16.14,-22.9 32.85,-45.5 49.65,-67.9 0.56,-0.7 1.05,-1.4 1.49,-2 0.26,-0.3 0.48,-0.6 0.76,-0.9 3.16,-4 6.29,-8 9.45,-12 9.49,-12 19.11,-23.9 28.84,-35.7 34.03,-41.1 69.53,-81.1 106.4,-119.7 75.39,-79.1 156.58,-152.3 242.43,-219.8 3.73,-2.8 10.34,-7.9 12.58,-9.6 5.09,-3.8 10.19,-7.6 15.32,-11.4 10.24,-7.6 20.56,-15.1 30.93,-22.5 22.85,-16.3 45.99,-32.2 69.43,-47.6 45.92,-30.2 92.95,-58.8 140.96,-85.5 48.22,-27 97.43,-52.1 147.5,-75.3 14.02,-6.5 28.1,-12.9 42.26,-19.1 7.04,-3.1 14.09,-6.6 21.29,-9.2 -0.7,0.2 -1.36,0.5 -1.99,0.7 2.31,-0.9 4.43,-1.7 5.5,-2.1 23.93,-9.9 48.04,-19.3 72.31,-28.3 106.65,-39.5 216.31,-70.8 327.75,-93.6 29.84,-6.1 59.81,-11.6 89.88,-16.5 13.14,-2.2 26.3,-4.2 39.47,-6.1 1.31,-0.1 2.62,-0.3 3.93,-0.5 1.29,0.5 13.52,-1.8 15.81,-2 58.87,-7.2 118.03,-12.1 177.28,-14.7 119.38,-5.1 239.16,-0.9 357.87,12.8 7.98,0.9 15.95,1.9 23.93,2.9 0.99,0 1.85,0.1 2.67,0.2 0.36,0.1 0.72,0.2 1.18,0.2 13.18,1.9 26.33,3.9 39.51,5.9 26.19,4.2 52.3,8.8 78.31,13.9 56.78,11.1 113.15,24.4 168.89,39.8 55.19,15.4 109.84,32.9 163.68,52.4"
         style="fill:#ffffff;fill-opacity:1;fill-rule:nonzero;stroke:none"
         id="path76"
         inkscape:connector-curvature="0" />
    </g>
    <g
       id="g78"
       transform="matrix(0.06715971,0,0,-0.06715971,-189.02286,1284.141)">
      <path
         d="m 4215.25,16300 c 0.66,-6.5 0.38,-3.5 0,0 v 0"
         style="fill:#ffffff;fill-opacity:1;fill-rule:nonzero;stroke:none"
         id="path80"
         inkscape:connector-curvature="0" />
    </g>
    <g
       id="g82"
       transform="matrix(0.07908114,0,0,-0.07908114,-588.99097,1202.3293)">
      <path
         d="m 7671.1931,11602.272 c -3.12,3.9 -6.19,7.9 -9.31,11.8 -0.27,0.3 -0.49,0.7 -0.74,1 -0.44,0.5 -0.92,1.2 -1.47,1.9 -16.54,22.1 -32.99,44.3 -48.87,66.9 -63.75,90.6 -120.68,186 -170.12,285.2 -11.29,22.7 -22.2,45.5 -32.71,68.6 -5.26,11.5 -10.42,23.1 -15.48,34.7 -0.51,1.2 -1.59,3.6 -2.73,6.2 -2.63,6.1 -5.07,12.2 -7.56,18.3 -21.16,52.1 -40.33,105 -57.44,158.4 -34.69,108.6 -60.93,219.8 -78.37,332.4 -1.99,12.8 -4.14,25.7 -5.63,38.6 -0.88,7.6 -1.99,17.4 -2.29,19.9 -3.32,28.9 -6.08,57.9 -8.27,87 -4.23,56 -6.24,112.3 -6.34,168.5 0.11,59 2.31,117.9 6.95,176.6 2.29,29 5.15,57.9 8.59,86.9 0.62,5.2 1.28,10.4 1.92,15.6 0.13,1.2 0.25,2.2 0.35,3 0.04,0.3 0.08,0.5 0.12,0.8 2.24,15.6 4.54,31.1 7.07,46.7 18.03,111.1 44.6,220.8 79.45,327.8 16.98,52.2 35.92,103.7 56.78,154.5 0.49,1.2 1.45,3.7 2.43,6.4 -0.33,-0.9 -0.68,-1.9 -1.07,-3 1.72,4.7 4.03,9.4 6.04,14 6.07,14 12.29,27.9 18.65,41.7 11.64,25.3 23.77,50.4 36.36,75.2 49.53,97.7 106.36,191.7 169.82,280.9 13.38,18.9 27.17,37.4 41.08,55.8 -0.1,-0.2 14.87,19.2 17.47,22.5 9.38,11.7 18.89,23.4 28.5,34.9 35.24,42.3 72.06,83.4 110.35,123 38.29,39.6 78.04,77.7 119.15,114.4 18.7,16.7 37.68,33 56.93,49 10.59,8.8 21.26,17.6 32.02,26.2 4.89,3.9 9.79,7.8 14.71,11.7 2.08,1.6 4.16,3.2 6.24,4.9 0.76,0.5 1.58,1.2 2.58,1.9 86.69,64.9 176.72,124.5 271.58,176.8 48.72,26.8 98.46,51.8 149.08,74.9 11.55,5.3 23.13,10.5 34.77,15.5 1.1,0.5 3.36,1.5 5.77,2.6 3.86,1.7 7.78,3.2 11.66,4.8 28.29,11.6 56.82,22.7 85.57,33.1 104.12,37.8 211.1,67.6 319.73,89.2 28.15,5.6 56.42,10.7 84.77,15.2 12.82,2 25.67,3.9 38.51,5.8 0.09,0 0.16,0 0.27,0 9.15,1.1 18.3,2.3 27.46,3.3 58.08,6.7 116.43,11.1 174.87,13.2 114.83,4.1 229.97,-0.6 344.09,-14.1 5.8,-0.7 11.73,-1.2 17.57,-2 2.1,-0.4 4.29,-0.7 5.8,-0.9 14.28,-2.1 28.51,-4.2 42.74,-6.5 28.33,-4.6 56.56,-9.8 84.67,-15.5 55.76,-11.3 111.12,-24.8 165.81,-40.4 53,-15.1 105.3699,-32.2 157.0699,-51.3 25.12,-9.2 50.05,-18.9 74.77,-29.1 1.2,-0.5 3.61,-1.4 6.2,-2.4 -0.85,0.4 -1.74,0.7 -2.72,1.1 4.68,-1.8 9.41,-4.1 13.96,-6.1 13.96,-6.1 27.88,-12.3 41.66,-18.6 100.87,-46.4 198.16,-100.5 290.9,-161.5 20.97,-13.8 41.71,-28 62.19,-42.5 11.28,-8 22.48,-16.1 33.59,-24.3 5.04,-3.7 10.08,-7.4 15.08,-11.2 2.45,-1.8 12.53,-9.6 16.28,-12.4 38.94,-30.6 76.95,-62.3 113.8,-95.4 81.99,-73.6 158.5,-153.3 228.71,-238.2 7.99,-9.6 15.88,-19.4 23.69,-29.1 4.37,-5.5 8.7,-11 13.03,-16.5 17.71,-23.4 35.19,-47 52.06,-71 31.09,-44.2 60.58,-89.5 88.32,-135.9 27.88,-46.5 54.03,-94.1 78.38,-142.6 12.54,-24.8 24.58,-50 36.13,-75.3 5.27,-11.5 10.4,-23.1 15.48,-34.8 0.14,-0.3 1.08,-2.4 2.15,-4.9 1.11,-2.8 7.36,-17.7 8.16,-19.6 42.02,-103.3 76.1,-209.9 101.98,-318.3 12.93,-54.5 23.82,-109.4 32.61,-164.7 2.14,-13.6 4.1,-27.2 6.06,-40.9 0.05,-0.5 0.14,-1.1 0.23,-1.8 0.89,-7.8 1.91,-15.6 2.81,-23.5 3.34,-28.9 6.11,-57.9 8.29,-87 8.84,-117.4 8.44,-235.6 -1.25,-353 -2.18,-26.4 -4.81,-52.7 -7.94,-79 -0.49,-4 -0.84,-8 -1.33,-12.1 -0.14,-1 -0.49,-3.3 -1.07,-7.4 -2.28,-15.5 -4.55,-31.1 -7.05,-46.6 -9.19,-56.5 -20.57,-112.6 -34.08,-168.2 -26.77,-109.7 -62.41,-216.7 -105.06,-321.2 -0.4,-0.9 -0.89,-2.2 -1.38,-3.4 -2.01,-4.7 -4.15,-9.3 -6.2,-13.9 -5.09,-11.7 -10.31,-23.2 -15.57,-34.7 -11.65,-25.3 -23.78,-50.4 -36.36,-75.2 -25.11,-49.5 -52.06,-98.1 -80.83,-145.5 -28.64,-47.3 -59.06,-93.6 -91.18,-138.6 -13.21,-18.4 -26.77,-36.6 -40.42,-54.7 -2.36,-3.1 -5.44,-7.1 -6.6,-8.6 -4.68,-5.9 -9.33,-11.8 -14.05,-17.6 -9.42,-11.8 -18.96,-23.4 -28.64,-34.9 -69.15,-82.5 -144.32,-160 -224.66,-231.6 -20.56,-18.4 -41.48,-36.3 -62.72,-53.9 -9.63,-8 -19.36,-15.8 -29.17,-23.7 -4.91,-3.9 -9.82,-7.7 -14.72,-11.6 -1.3,-1 -2.37,-1.9 -3.26,-2.6 -0.71,-0.5 -1.56,-1.2 -2.63,-1.9 -44.25,-33.2 -89.13,-65.3 -135.48,-95.3 -91.05,-59.1 -186.42,-111.4 -285.15,-156.4 -12.71,-5.8 -25.51,-11.4 -38.27,-17.1 -1.12,-0.5 -2.63,-1.1 -4.19,-1.9 -5.58,-2.3 -11.2,-4.5 -16.82,-6.8 -25.96,-10.6 -52.15,-20.7 -78.51,-30.2 -53,-19.2 -106.7999,-36.4 -161.1299,-51.5 -54.87,-15.3 -110.37,-28.4 -166.26,-39.3 -25.61,-5 -51.3,-9.5 -77.09,-13.6 -12.98,-2.1 -25.92,-4 -38.9,-5.9 -0.44,0 -0.8,0 -1.16,-0.1 -0.8,-0.1 -1.65,-0.2 -2.63,-0.3 -7.85,-0.9 -15.7,-2 -23.55,-2.9 -116.86,-13.4 -234.78,-17.5 -352.29,-12.5 -58.34,2.5 -116.57,7.3 -174.53,14.4 -2.25,0.3 -14.29,2.5 -15.56,2 -1.29,0.2 -2.58,0.4 -3.87,0.6 -12.97,1.8 -25.92,3.8 -38.85,5.9 -29.6,4.8 -59.11,10.3 -88.49,16.2 -109.69,22.5 -217.65,53.3 -322.64,92.2 -23.89,8.9 -47.62,18.2 -71.19,27.8 -1.05,0.5 -3.13,1.3 -5.41,2.2 0.62,-0.3 1.27,-0.5 1.97,-0.8 -7.1,2.6 -14.04,6 -20.97,9.1 -13.93,6.1 -27.8,12.4 -41.6,18.8 -49.29,22.9 -97.73,47.6 -145.2,74.1 -47.26,26.4 -93.56,54.5 -138.76,84.2 -23.08,15.2 -45.86,30.8 -68.36,46.9 -10.21,7.3 -20.36,14.6 -30.45,22.1 -5.04,3.7 -10.06,7.5 -15.07,11.2 -2.21,1.7 -8.71,6.7 -12.38,9.5 -84.52,66.5 -164.45,138.5 -238.66,216.3 -36.29,38.1 -71.24,77.4 -104.75,117.9 -9.58,11.6 -19.04,23.3 -28.38,35.1 z m 2294.84,-926.3 c 446.1899,127.3 852.9399,392.2 1147.4899,750.9 304.19,370.5 487.9,824 524.83,1302.3 36.72,475.5 -78.96,960.7 -326.05,1368.5 -239.29,395 -598.52,718.4 -1019.77,908.8 -447.6599,202.2 -948.9099,259 -1430.6199,161.3 -456.63,-92.6 -882.39,-330.6 -1203.75,-667.5 -322.63,-338.2 -542.2,-774.5 -612.28,-1237.4 -18.13,-119.6 -28.5,-240 -28.72,-361.2 0.86,-474.9 147.65,-947.3 423.86,-1334.5 274.32,-384.5 657.93,-678.6 1101.61,-841.2 452.58,-166 960.15,-182.1 1423.4,-50"
         style="fill:#0092f4;fill-opacity:1;fill-rule:nonzero;stroke:none"
         id="path84"
         inkscape:connector-curvature="0" />
    </g>
    <g
       id="g86"
       transform="matrix(0.07208696,0,0,-0.07208696,-189.02311,1284.139)">
      <path
         d="m 3027.42,15082 c -0.97,0.8 -2.18,2 -3.75,3.3 -6.41,5.6 -12.82,11.1 -18.93,17.1 -6,5.8 -11.79,11.8 -17.35,18.1 -2.18,2.4 -11.38,14.9 -10.26,13 -7.14,10.5 -13.9,21.2 -19.9,32.5 -2.79,5.2 -5.35,10.5 -7.86,15.9 6.49,-13.5 -4.66,12.9 -6.18,17.8 -4.74,15.1 -7.89,30.3 -11.04,45.8 -0.04,0.2 -0.08,0.3 -0.11,0.5 -0.01,0.9 -0.02,1.8 -0.05,3 -0.19,7.8 -0.97,15.6 -1.07,23.4 -0.13,11.4 0.36,22.8 1.32,34.1 0.33,1 2.01,12.7 2.74,16.1 2.2,10.2 4.86,20.4 7.98,30.4 2.35,7.5 5.18,14.9 7.81,22.4 -8.69,-24.7 0.03,-0.5 2.36,4.2 7.24,14.5 16.04,27.7 24.48,41.5 0.73,1.2 1.33,2.1 1.84,3 0.51,0.6 1.06,1.2 1.68,1.9 5.57,6.1 10.87,12.5 16.66,18.4 5.86,6 11.93,11.9 18.21,17.4 1.73,1.6 11.72,9.4 13.17,10.8 159.67,115.9 328.57,219.1 505.3,306.9 52.24,25.9 105.16,50.5 158.71,73.6 2.72,1.2 5.44,2.3 8.16,3.5 2.6,1.1 10.68,4.5 13.42,5.6 13.45,5.5 26.94,11 40.46,16.4 27.42,10.8 54.99,21.3 82.72,31.4 72.31,26.3 145.65,49.7 219.81,70.1 -153.55,-140.2 -261.73,-330 -293.71,-538.6 -7.8,-50.8 -12.72,-101.7 -12.98,-153.1 1.45,-284.6 132.31,-547.6 344.05,-722.9 -35.11,8.1 -70.04,17 -104.77,26.6 -80.99,22.4 -160.87,48.9 -239.34,79 -77.26,29.6 -136.68,55.8 -218.62,96.6 -175.07,87.1 -338.66,192.5 -496.21,308 -3.99,2.9 -6.81,4.9 -8.75,6.3 z m 2435.11,872.6 c 38.23,-12.4 76.2,-25.6 113.83,-39.8 19.19,-7.1 38.32,-14.6 57.36,-22.2 9.59,-3.8 19.18,-7.8 28.73,-11.7 2.49,-1 4.45,-1.9 5.97,-2.5 5.77,-2.4 11.55,-4.9 17.32,-7.4 82.76,-36.1 163.75,-76.2 242.83,-119.7 84.42,-46.4 166.58,-96.8 246.55,-150.5 40.37,-27.1 80.21,-55.1 119.41,-83.8 15.31,-11.3 30.73,-22.5 45.7,-34.1 0.93,-0.9 12.53,-10.4 12.87,-10.7 8.32,-7.4 16.25,-15.1 23.84,-23.2 3.42,-3.6 6.75,-7.5 9.98,-11.3 -4.26,4.9 6.8,-8.9 8.86,-12 8.86,-13.3 15.9,-27.3 23.44,-41.3 0.44,-0.8 0.83,-1.4 1.17,-2.1 0.2,-0.6 0.4,-1.2 0.59,-1.8 2.4,-7.4 5.19,-14.7 7.39,-22.2 2.2,-7.4 4.16,-14.9 5.87,-22.4 1.28,-5.8 4.41,-34 3.19,-17.3 1.02,-13.1 1.86,-26.1 1.56,-39.3 -0.15,-7.7 -0.93,-15.4 -1.22,-23.1 -0.05,-0.7 -0.05,-1.3 -0.05,-1.9 -0.1,-0.3 -0.15,-0.6 -0.25,-1 -3.28,-15.2 -6.36,-30.2 -11.06,-45 -2.35,-7.4 -5.13,-14.7 -7.78,-22 9.5,26.2 -3.08,-5.4 -5.87,-10.6 -5.87,-11.1 -12.53,-21.5 -19.43,-31.8 2.25,3.5 -7.09,-9.7 -9.54,-12.5 -5.38,-6.1 -11.01,-12 -16.84,-17.7 -5.92,-5.9 -12.23,-11.2 -18.3,-16.8 -0.88,-0.9 -1.61,-1.5 -2.3,-2.2 -0.93,-0.6 -2.05,-1.4 -3.42,-2.2 -10.18,-6.9 -20.17,-14.1 -30.3,-21 -38.66,-26.5 -77.81,-52.2 -117.4,-77.3 -87.65,-55.3 -177.59,-106.9 -269.65,-154.6 -51.43,-26.7 -103.5,-52.1 -156.21,-76.2 -26.23,-11.9 -52.55,-23.5 -79.03,-34.9 -0.68,-0.2 -1.42,-0.6 -2.3,-0.9 -6.8,-2.8 -13.6,-5.6 -20.41,-8.4 -16.05,-6.5 -32.1,-13 -48.25,-19.2 -95.87,-37.4 -193.6,-70 -292.7,-97.6 29.17,27.2 56.62,56.3 82.02,87.5 123.62,151.4 197.86,333.1 213.67,528.2 15.61,191.8 -31.81,389.4 -131.4,553.9 -53.98,89.1 -121.51,166.7 -198.84,231.3 57.36,-14.3 114.18,-30.5 170.4,-48.7 z m -475.28,-1373.4 c 2.55,1 8.42,3.4 0.3,0.1 -0.1,0 -0.2,-0.1 -0.3,-0.1 z m 408.14,408.1 c -0.05,-0.1 -0.1,-0.2 -0.14,-0.3 -3.33,-8.1 -0.93,-2.2 0.14,0.3 z m 53.79,196.6 c -0.64,-6 -0.35,-3.2 0,0 z m -658.5,863.5 c 5.98,-0.6 3.19,-0.3 0,0 z m -863.54,-863.5 c 0.35,-3.2 0.61,-6 0,0 z m 55.15,-199.6 c -0.5,1 -0.85,1.8 -1.14,2.4 -0.04,0.1 -0.06,0.2 -0.1,0.3 -7.96,19.4 -15.16,39.1 -21.62,59.1 -13.11,40.5 -23.16,81.9 -30.05,123.8 -0.87,5.3 -1.7,10.6 -2.44,15.9 -0.12,1.2 -0.26,2.6 -0.43,4.3 -1.02,10.1 -2.08,20.2 -2.86,30.3 -1.68,22 -2.41,44 -2.52,66 0.1,20.6 0.73,41.1 2.19,61.6 0.83,11.6 2.02,23.1 3.19,34.7 0.01,0.1 0.36,3 0.65,5.4 0.62,4 2.02,13.5 2.22,14.7 6.89,42 16.94,83.5 30.05,123.9 6.04,18.6 12.85,37 20.03,55.2 6.26,15.9 2.63,6.2 1.14,2.8 1.68,3.9 3.35,7.7 5.1,11.4 5.26,11.4 10.59,22.7 16.26,33.8 18.79,36.9 40.29,72.3 64.23,106.1 2.5,3.5 11.45,15.7 13.02,17.9 1.59,1.9 10.7,13.3 13.88,17.1 14.04,16.9 28.73,33.2 44.03,49 13.38,13.7 27.22,27.1 41.5,39.9 12.17,11 36.03,30.9 42.05,35.5 6.81,5.2 30.77,22.1 45.18,31.6 17.33,11.3 35.07,21.9 53.17,32 18.19,10 36.72,19.4 55.59,28.1 3.79,1.8 7.6,3.4 11.4,5.1 1.09,0.5 1.85,0.9 2.46,1.2 0.11,0 0.17,0.1 0.28,0.1 10.34,4.2 20.76,8.2 31.26,12.1 39.79,14.4 80.67,25.8 122.17,34.2 9.81,2 19.65,3.7 29.52,5.4 4.67,0.7 9.35,1.5 14.03,2.1 0.53,0.1 1.12,0.1 1.83,0.2 23.15,2.7 46.37,4.5 69.66,5.4 42.56,1.5 84.88,-0.6 127.22,-4.9 1.72,-0.1 3.1,-0.3 4.31,-0.4 5.29,-0.7 10.59,-1.6 15.86,-2.4 9.87,-1.7 19.71,-3.4 29.52,-5.4 20.84,-4.2 41.53,-9.1 62,-14.9 20.31,-5.7 40.37,-12.2 60.14,-19.3 9.2,-3.4 18.31,-6.9 27.41,-10.5 0.78,-0.3 3.13,-1.3 5.04,-2.2 4.35,-1.9 8.66,-3.8 12.97,-5.8 37.68,-17.4 74.04,-37.5 108.74,-60.1 39.83,-26 51.92,-35.3 87.25,-67.1 30.59,-27.5 59.22,-57.2 85.55,-88.9 3.18,-3.8 12.28,-15.2 13.85,-17.1 1.61,-2.2 10.52,-14.4 13.01,-17.9 12.78,-18 24.82,-36.5 36.17,-55.3 9.93,-16.6 19.28,-33.6 28.09,-50.8 4.4,-8.7 8.66,-17.4 12.77,-26.2 2.35,-5 4.6,-10.1 6.9,-15.1 0.79,-1.8 1.27,-2.8 1.52,-3.3 0.39,-1 0.78,-2.1 1.32,-3.4 15.47,-39.2 28.53,-79.3 38.32,-120.4 4.6,-19.4 8.51,-38.9 11.74,-58.7 0.69,-4.2 1.37,-8.5 2.01,-12.7 0.05,-0.4 0.1,-0.7 0.15,-1 0.05,-0.6 0.14,-1.2 0.19,-2.1 1.32,-11.5 2.5,-23.1 3.38,-34.6 3.38,-43.9 3.38,-88.1 0,-132 -0.78,-10.1 -1.81,-20.2 -2.84,-30.3 -0.19,-1.7 -0.34,-3.1 -0.44,-4.3 -0.73,-5.3 -1.56,-10.6 -2.45,-15.9 -3.47,-21.1 -7.73,-42 -12.77,-62.7 -9.88,-40.8 -22.76,-80.8 -38.66,-119.6 -2.15,-4.9 -4.36,-9.8 -6.61,-14.7 -4.06,-8.8 -8.32,-17.6 -12.67,-26.3 -9.94,-19.7 -20.65,-39.1 -32.1,-58 -9.99,-16.5 -20.56,-32.6 -31.62,-48.4 -4.89,-7 -9.88,-13.8 -14.97,-20.6 -0.64,-0.6 -12.14,-15.3 -14.29,-17.8 -26.33,-31.7 -54.96,-61.4 -85.55,-88.9 -34.89,-31.4 -47.56,-41.1 -87.25,-67 -34.7,-22.7 -71.06,-42.9 -108.74,-60.2 -4.9,-2.3 -9.79,-4.5 -14.73,-6.6 -8.86,-3.7 -17.77,-7.1 -26.72,-10.5 -21.1,-7.7 -42.48,-14.6 -64.11,-20.7 -19.09,-5.3 -38.38,-10 -57.82,-14.1 -11.19,-2.3 -22.43,-4.3 -33.7,-6.2 -4.25,-0.7 -8.51,-1.3 -12.77,-2 -1.47,-0.2 -2.19,-0.3 -2.53,-0.4 -1.04,-0.1 -2.55,-0.2 -4.87,-0.5 -43.81,-4.4 -87.6,-6.4 -131.63,-4.6 -20.39,0.8 -40.64,2.7 -60.95,4.6 -1.13,0.1 -5.51,0.7 -7.66,1 -2.75,0.4 -5.5,0.8 -8.25,1.2 -12.7,2.1 -25.36,4.4 -37.96,6.9 -40.06,8.3 -79.53,19.5 -117.98,33.4 -9.19,3.4 -18.29,6.9 -27.39,10.5 -15.87,6.3 -6.19,2.6 -2.8,1.1 -5.09,2.3 -10.16,4.6 -15.21,6.9 -18.86,8.7 -37.41,18.1 -55.59,28.2 -18.1,10 -35.84,20.7 -53.17,32 -13.74,8.9 -39.15,26.9 -45.18,31.5 3.07,-2.4 -13.17,10.6 -17.15,13.9 -7.39,6.2 -14.66,12.5 -21.83,18.8 -16.39,14.7 -32.2,29.9 -47.42,45.7 -13.33,13.8 -26.18,28.1 -38.53,42.8 -18.95,22.6 -14.97,17.5 -31.91,41.6 -23.81,33.9 -45.11,69.4 -63.74,106.4 -4.36,8.7 -8.59,17.5 -12.66,26.3 -1.74,3.7 -3.41,7.6 -5.14,11.4 z m 112.82,-633.4 c 315.48,-65.8 637.02,-70.8 955.17,-22.4 273.96,41.6 538.47,126.5 791.33,238.7 202.21,89.8 395.71,199.2 578.15,324.3 64.6,44.3 121.51,92.4 162.72,160.2 41.59,68.3 63.66,149.6 64.4,229.4 0.78,80 -20.75,161.6 -61.12,230.6 -48.94,83.8 -124.21,137.7 -201.29,193.6 -307.08,222.7 -652.83,398.2 -1021.33,492.5 -303.41,77.5 -621.21,100.2 -932.28,63.6 -277.63,-32.7 -546.33,-105.7 -803.76,-214.3 -209.93,-88.6 -410.53,-197.1 -599.44,-324.6 -37.45,-25.3 -74.41,-51.2 -110.9,-77.9 -1.81,-1.3 -3.56,-2.8 -5.34,-4.1 -139.65,-107.4 -208.15,-268.7 -180.94,-444.5 12.6,-81.4 51.6,-155.9 104.5,-218.2 30.43,-35.9 68.79,-63.2 106.3,-91.1 42.61,-31.7 85.92,-62.4 129.93,-92.1 309.48,-208.8 657.5,-367.5 1023.9,-443.7"
         style="fill:#0090f4;fill-opacity:1;fill-rule:nonzero;stroke:none"
         id="path88"
         inkscape:connector-curvature="0" />
    </g>
    <g
       id="g90"
       transform="matrix(0.06977415,0,0,-0.06977415,-189.02286,1284.141)">
      <path
         d="m 4682.09,15345.7 c 184.05,-68.6 403.49,-8.5 527.77,143.2 126.8,154.8 147.99,376.5 44.8,549.9 -103.3,173.6 -305.97,261.2 -503.25,225 7.17,-21.2 11.68,-43.6 13.12,-66.8 0.33,-5.4 0.55,-10.8 0.55,-16.3 0,-18.9 -2.09,-37.4 -5.96,-55.2 -23.81,-109.6 -116.88,-193.3 -231.09,-203 -7.35,-0.7 -14.76,-1 -22.26,-1 -17.14,0 -33.87,1.6 -50.08,4.8 -22.24,4.4 -43.46,11.5 -63.27,21.2 -16.71,-48.5 -26.06,-99.9 -26.64,-152.3 2.21,-201.5 127.72,-379.2 316.31,-449.5"
         style="fill:#0090f4;fill-opacity:1;fill-rule:nonzero;stroke:none"
         id="path92"
         inkscape:connector-curvature="0" />
    </g>
  </g>
</svg>
