<?xml version="1.0" encoding="UTF-8" standalone="no"?>
<!-- Created with Inkscape (http://www.inkscape.org/) -->

<svg
   xmlns:dc="http://purl.org/dc/elements/1.1/"
   xmlns:cc="http://creativecommons.org/ns#"
   xmlns:rdf="http://www.w3.org/1999/02/22-rdf-syntax-ns#"
   xmlns:svg="http://www.w3.org/2000/svg"
   xmlns="http://www.w3.org/2000/svg"
   xmlns:sodipodi="http://sodipodi.sourceforge.net/DTD/sodipodi-0.dtd"
   xmlns:inkscape="http://www.inkscape.org/namespaces/inkscape"
   width="30.497824mm"
   height="30.489351mm"
   viewBox="0 0 365.97389 365.87219"
   version="1.1"
   id="svg3698"
   inkscape:version="0.92.3 (2405546, 2018-03-11)"
   sodipodi:docname="smell.svg">
  <defs
     id="defs3692" />
  <sodipodi:namedview
     id="base"
     pagecolor="#ffffff"
     bordercolor="#666666"
     borderopacity="1.0"
     inkscape:pageopacity="0.0"
     inkscape:pageshadow="2"
     inkscape:zoom="0.35"
     inkscape:cx="-628.39582"
     inkscape:cy="-479.03381"
     inkscape:document-units="mm"
     inkscape:current-layer="g316"
     showgrid="false"
     inkscape:window-width="1366"
     inkscape:window-height="662"
     inkscape:window-x="0"
     inkscape:window-y="27"
     inkscape:window-maximized="1"
     fit-margin-top="0"
     fit-margin-left="0"
     fit-margin-right="0"
     fit-margin-bottom="0" />
  <metadata
     id="metadata3695">
    <rdf:RDF>
      <cc:Work
         rdf:about="">
        <dc:format>image/svg+xml</dc:format>
        <dc:type
           rdf:resource="http://purl.org/dc/dcmitype/StillImage" />
        <dc:title></dc:title>
      </cc:Work>
    </rdf:RDF>
  </metadata>
  <g
     inkscape:label="Layer 1"
     inkscape:groupmode="layer"
     id="layer1"
     transform="translate(15.921464,8.4003916)">
    <g
       id="g22"
       transform="matrix(0.04361039,0,0,-0.04361039,-378.50515,644.93105)">
      <path
         d="m 16300,10282 c -0.5,-3.5 -1,-6.9 -1.5,-10.3 0.4,3.1 1,7 1.5,10.3"
         style="fill:#ffffff;fill-opacity:1;fill-rule:nonzero;stroke:none"
         id="path24"
         inkscape:connector-curvature="0" />
    </g>
    <path
       d="m 90.459994,157.26868 c 0.0106,-0.0141 0.0176,-0.0247 0.0247,-0.0353 -0.15522,0.14817 -0.30339,0.31044 -0.44803,0.47625 0.0459,-0.007 0.28575,-0.2152 0.42334,-0.44097"
       style="fill:#ffffff;fill-opacity:1;fill-rule:nonzero;stroke:none;stroke-width:0.03527778"
       id="path294"
       inkscape:connector-curvature="0" />
    <g
       id="g296"
       transform="matrix(0.04370599,0,0,-0.04370599,-378.50515,644.93105)">
      <path
         d="m 15296.8,9295.96 c -120.5,-174.42 -291.7,-290.58 -487.6,-366.44 -399.8,-154.9 -862.5,-90.97 -1266.4,12.83 -25.5,6.53 -47.4,18.8 -65.5,34.78 -72.3,-93.14 -149.3,-179.1 -245.4,-253.36 -122.8,-94.84 -257.4,-167.73 -404.9,-216.81 -292.2,-97.34 -610.5,-76.75 -891.6,44.4 -200.7,86.45 -367.4,226.73 -503.4,393.81 -3,-1.05 -6.2,-2.02 -9.4,-2.82 -461.2,-118.49 -991.8,-177.82 -1426.75,59.73 -160.79,87.73 -305.67,224.07 -383.16,392.03 -79.91,173.38 -99.68,355.64 -72.32,543.62 24.38,166.97 91.29,330.57 183.71,471.27 114.7,174.7 265.96,307.4 445.52,413 166.1,97.6 345.1,173.2 503.9,283.4 3.6,2.7 13.8,10.4 18.9,14.9 7,6.2 13.7,12.5 20.3,19.1 2.6,2.5 5.1,5.4 7.6,8.3 -0.9,-0.2 1.3,2.7 10.3,11 6.1,9.9 12.4,19.5 17.9,29.6 2.6,4.9 8.6,18.9 9.5,20.2 7,19.6 13,39.7 19.5,59.4 38,116.7 72.6,234.6 109,352 146.1,469.8 345.2,922.4 527.8,1378.7 35.8,89.5 111.8,142.3 210.9,119.8 83.3,-18.9 153.1,-127.4 119.7,-210.9 -63.7,-159.2 -128.8,-318 -192.8,-477.1 -133.5,-331.4 -262.8,-664.3 -367.1,-1006.4 -62.8,-205.9 -105.5,-433.2 -283.4,-573.1 -153.6,-120.9 -333.5,-199 -503.3,-293.3 -44.3,-24.5 -88,-50.1 -130.4,-77.9 -17.6,-11.6 -35.1,-23.5 -52.3,-35.9 -3.6,-2.6 -14.5,-11 -18,-13.5 -5.4,-4.4 -10.7,-8.7 -15.9,-13.1 -36.4,-30.8 -70.7,-64.1 -101.7,-100.2 -7.2,-8.3 -30.3,-38.5 -23.7,-29.1 -9.8,-13.4 -19.4,-26.9 -28.7,-40.6 -22.5,-33.4 -43.29,-68 -62.18,-103.6 -9.28,-17.6 -18.24,-35.4 -26.64,-53.5 -2.66,-5.7 -5.16,-11.5 -7.75,-17.3 -0.24,-0.8 -0.56,-1.4 -0.88,-2.4 -13.64,-36.6 -26.48,-73.36 -36.48,-111.21 -4.45,-16.55 -8.4,-33.26 -11.87,-50.05 -1.7,-8.31 -3.39,-16.62 -4.84,-25.02 -0.17,-0.73 -0.81,-4.36 -1.54,-8.72 -0.72,-6.13 -2.34,-17.83 -2.66,-20.9 -0.97,-10.41 -1.7,-20.91 -2.26,-31.32 -0.97,-16.63 -1.37,-33.26 -1.29,-49.88 0.08,-18.57 0.81,-37.13 2.26,-55.62 0.16,-2.34 0.24,-6.86 0.4,-11.46 0.24,-1.21 0.48,-2.5 0.81,-4.11 6.62,-36.33 14.53,-72.08 26.15,-107.19 3.63,-10.82 13.64,-34.71 11.38,-30.6 5.73,-12.19 11.62,-24.29 18.08,-36.24 10.09,-18.48 21.07,-36.48 32.85,-53.92 4.44,-6.53 9.37,-12.83 13.72,-19.45 0.73,-0.81 1.54,-1.61 2.34,-2.5 24.5,-26.56 48.2,-52.87 75.5,-76.68 2.5,-2.26 19.8,-16.06 21.3,-17.67 3.7,-2.75 7.4,-5.5 11.1,-8.16 16.3,-11.38 33,-22.2 50,-32.37 20.6,-12.34 41.6,-23.89 63,-34.7 9.8,-4.93 19.7,-9.69 29.6,-14.29 2.1,-0.97 13.1,-5.65 19,-8.15 8.9,-3.23 27.8,-10.33 31.5,-11.63 10.3,-3.63 20.7,-7.18 31.2,-10.49 23.6,-7.51 47.3,-14.28 71.4,-20.34 39.1,-9.85 78.8,-17.6 118.8,-23.81 -1.9,0.56 30.7,-3.71 32.3,-3.87 11.1,-1.05 22.3,-2.1 33.5,-2.99 22.3,-1.7 44.8,-2.99 67.3,-3.88 50.8,-1.85 101.8,-1.53 152.6,0.65 51,2.18 101.9,6.22 152.7,11.87 11.2,1.21 22.4,2.58 33.6,3.95 1.3,0.16 4.1,0.48 7,0.97 21.5,3.15 43.1,6.45 64.5,10.09 62.4,10.49 124.3,23.24 185.9,37.37 -32.1,53.43 -64.5,106.71 -95.5,160.87 -20.1,34.86 -42.7,67.88 -66.1,100.49 -15.1,-6.7 -31,-11.87 -47.3,-15.34 -41.9,-8.88 -83.9,-17.11 -126.4,-23.08 -117.1,-16.55 -243.6,-27.93 -351.9,30.91 -134.8,73.21 -184.3,260.31 -106,393.09 83.2,141.38 243.1,141.58 387.2,136.28 12.6,-0.4 24.8,-2.1 36.4,-4.9 3.1,-0.4 6.2,-0.7 9.2,-1.2 54.3,-9.4 110.1,-25.82 160.6,-50.44 65.8,-26.23 128,-65.62 184.5,-116.47 13.1,-11.78 25.7,-24.21 38.2,-36.89 57,-58.27 106.9,-124.94 152.4,-194.76 50.6,-77.49 95.9,-158.69 140,-236.34 40.8,-71.83 87.2,-140.2 134.6,-207.84 2.8,-4.04 5.7,-8.08 7.1,-10.09 3.4,-4.36 6.9,-8.64 10.3,-12.84 11.9,-14.52 24,-28.81 36.6,-42.78 23,-25.74 47.3,-50.52 72.4,-74.17 15.5,-14.53 31.2,-28.58 47.3,-42.22 6.1,-5.08 12.2,-10.09 18.3,-15.17 0.4,-0.32 3.4,-2.58 6.3,-4.92 5,-3.64 13.5,-9.85 15.3,-11.23 6.4,-4.52 12.8,-9.03 19.2,-13.47 15,-10.34 30.3,-20.27 45.8,-29.87 30.7,-19.05 62.5,-36.64 94.9,-52.71 12.8,-6.37 25.8,-12.35 38.9,-18.24 0.6,0 19.2,-7.5 26,-10.01 62.7,-23.08 127.9,-40.36 194,-50.61 -2.5,0.73 25.5,-2.42 34.2,-2.98 17.7,-1.29 35.3,-2.1 53,-2.74 33,-1.3 65.9,-1.22 98.7,0.56 20.1,1.13 40,3.47 60,5 5.2,0.81 10.3,1.62 15.5,2.51 32.6,5.56 65,12.67 97,21.14 37.2,9.85 73.7,21.71 109.6,35.28 6.2,2.34 12.2,4.76 18.4,7.18 15.6,7.26 31.3,14.21 46.7,21.95 62.1,30.92 121.9,67.48 177.4,109.21 -2.7,-1.61 22,18.32 27.4,23.01 13.9,11.94 27.6,24.21 41,36.8 24.8,23.49 48.6,48.03 71.2,73.7 7.1,7.9 13.9,15.9 20.7,23.97 1.5,1.77 8.2,10.01 12.2,14.85 2.4,3.07 4.9,6.38 5.2,6.78 4.6,6.46 9.3,12.92 13.9,19.45 21.7,30.92 43.8,61.51 65.4,92.5 51.3,73.21 99.5,148.76 145.4,225.44 41.9,70.14 84.6,139.07 132.4,203.65 28.5,38.5 58.9,75.39 92,110.01 31.6,32.86 65.6,63.61 103.1,91.7 42.9,32.12 89.7,56.34 138.7,72.88 44.6,18.62 92.3,31.22 138,39.22 4.1,0.7 8.2,1.1 12.2,1.6 11,2.6 22.2,4.1 33.4,4.5 72.8,2.7 145.5,8.2 217.1,-10.6 96.8,-25.59 177.2,-99.21 197.4,-198.97 31.2,-154.65 -41.5,-293.81 -192.5,-344.82 -104.1,-35.19 -222.6,-18.08 -328,-0.48 -38.3,6.37 -80,11.54 -117.2,23.32 -7.6,2.42 -15,5.17 -22.1,8.23 -1.5,-2.09 -3.1,-4.19 -4.6,-6.29 -14.3,-19.94 -28.5,-40.04 -41.5,-60.78 -25.4,-40.12 -47.8,-82.25 -72.4,-122.93 -11.3,-18.64 -22.7,-37.21 -34.4,-55.69 92.5,-22.77 185.7,-42.3 279.7,-56.99 1.1,-0.16 28.6,-4.2 32.2,-4.84 7.6,-0.97 15.3,-1.94 23,-2.91 28,-3.31 56.3,-6.13 84.5,-8.39 56.5,-4.69 113.2,-7.19 169.9,-7.19 53.4,0 106.8,2.26 160.1,7.35 4,0.32 26.5,2.9 35.4,3.79 6.5,1.05 16.3,2.5 18.5,2.83 27.3,4.52 54.4,9.76 81.5,15.98 51.1,11.78 100.2,28.09 149.8,45.04 5.1,1.78 8.5,2.9 10.7,3.55 1.9,0.97 4.7,2.34 9.1,4.36 10,4.68 19.9,9.2 29.7,14.12 24,11.79 47.6,24.54 70.4,38.34 21.3,12.76 41.7,26.56 61.9,40.85 0.2,0.16 0.4,0.32 0.6,0.48 6.6,5.65 13.4,11.06 19.9,16.87 29,25.34 52.6,54.89 79.7,81.76 0.4,0.41 0.7,0.57 1,0.81 1,1.62 2.2,3.39 3.6,5.57 4.8,7.02 9.7,13.97 14.3,21.15 10.3,15.82 19.9,32.12 28.8,48.75 7.8,14.69 14.6,29.79 21.7,44.8 -18.9,-40.04 0.9,4.92 4.8,16.55 11.4,34.38 18.9,69.25 25.7,104.68 0.2,8.08 1.5,16.15 2,24.22 1.3,18.56 2,37.13 2,55.69 -0.1,18.81 -0.8,37.54 -2.1,56.18 -0.9,12.43 -10.7,70.14 -1.5,23.33 -6.7,33.58 -12.2,66.99 -20.9,100.17 -10.5,39.71 -26.8,77.21 -38.6,116.41 -3.3,6.8 -6.2,13.7 -9.4,20.5 -8.5,18.1 -17.5,35.9 -27,53.4 -19,35.5 -40,70 -62.7,103.3 -10.1,14.9 -21,29.3 -31.5,43.9 23.5,-33 -15.4,18.4 -22.4,26.2 -31.4,35.8 -65.9,68.8 -102.5,99.2 -1.5,1.2 -7.4,6 -12.2,9.8 -7.3,5.4 -23.4,17.4 -22.1,16.4 -17.2,12.3 -34.8,24.2 -52.6,35.7 -78.5,50.9 -161.4,94.7 -244.3,137.9 -165.6,86.4 -360.3,171.7 -477.2,323.1 -70.5,91.3 -102.1,198.8 -136.2,307.6 -34.8,110.8 -67.6,222.3 -102.7,333 -91.4,287.9 -202.9,569.4 -317.3,849.5 -64.3,157.6 -129.5,314.8 -192.6,472.3 -35.6,89.2 39.5,184.9 119.7,210.9 95,30.7 177.8,-36.8 210.9,-119.8 205.4,-513.1 418.5,-1021 580.2,-1550.1 18.5,-60.4 37.1,-120.6 56.6,-180.6 4.1,-12.6 8.2,-25.3 12.5,-37.9 -1.3,3.7 6.2,-16.6 9.9,-27.5 4.1,-7.9 10.3,-20.9 10.1,-20.5 4.7,-8.3 9.9,-16.2 15,-24.2 0.8,-1.3 1.5,-2.3 2.1,-3.4 1.5,-1.2 3.4,-2.9 5.7,-5.1 6.6,-6.4 12.8,-13.3 19.5,-19.6 6.9,-6.4 14,-12.3 21,-18.5 1,-0.9 1.9,-1.7 2.7,-2.4 0.9,-0.5 1.8,-1.1 3.1,-1.8 37.8,-22.9 73.6,-49 112,-71.4 170.1,-99.6 353.8,-176.4 514.9,-291.1 304.5,-216.7 515.9,-573.6 522.6,-952.38 3,-172.81 -43.5,-353.13 -142.2,-496.16 z m 972.2,1930.24 c -1.6,14.2 -3.5,28.3 -5.1,42.5 -0.1,1.2 -0.3,2.3 -0.4,3.3 -3.5,24.7 -7.1,49.4 -11,74 -15.9,100 -35.6,199.4 -59,297.9 -46.8,196.3 -108.5,389.1 -184.6,576.1 -1.3,3.4 -12.6,30.3 -14.7,35.3 -1.9,4.5 -3.6,8.4 -3.8,9 -9.2,21.1 -18.5,42 -28,62.9 -20.9,45.8 -42.7,91.3 -65.4,136.3 -44.1,87.7 -91.4,173.8 -141.8,258 -50.3,83.9 -103.6,165.9 -159.8,245.9 -30.6,43.4 -62.2,86 -94.2,128.4 -7.9,9.9 -15.7,20 -23.6,29.8 -14.1,17.7 -28.4,35.3 -42.9,52.8 -127,153.6 -265.4,297.8 -413.8,430.9 -66.7,59.8 -135.4,117.2 -205.9,172.6 -6.8,5.1 -25,19.1 -29.5,22.5 -9,6.8 -18.1,13.6 -27.3,20.3 -20.1,14.8 -40.3,29.4 -60.7,43.9 -37.1,26.2 -74.6,51.9 -112.6,76.8 -103.9,68.5 -211,132 -321,190.4 -534.3,270.4 -1138.4,422.7 -1778.1,422.7 -691.4,0 -1341.2,-177.9 -1906.3,-490.4 -146.1,-84.6 -286,-178.8 -421.3,-280.1 -1.8,-1.4 -3.3,-2.5 -4.7,-3.6 -3.7,-2.9 -7.5,-5.9 -11.3,-8.8 -8.9,-7 -17.8,-14.1 -26.6,-21.2 -19.5,-15.6 -38.8,-31.3 -57.9,-47.3 -34.9,-29 -69.19,-58.5 -103.01,-88.7 -74.42,-66.3 -146.34,-135.4 -215.6,-207.1 -69.33,-71.6 -135.92,-145.8 -199.69,-222.4 -17.43,-20.9 -34.62,-42.1 -51.57,-63.3 -4.69,-5.9 -31.81,-41.1 -31.64,-40.5 -25.11,-33.4 -50.05,-66.9 -74.34,-101 -114.78,-161.5 -217.62,-331.6 -307.21,-508.3 -22.84,-45 -44.72,-90.4 -65.78,-136.1 -11.55,-25 -22.77,-50.1 -33.82,-75.4 -3.63,-8.3 -7.75,-16.8 -10.9,-25.4 0.73,2.1 1.37,3.8 1.94,5.4 -1.78,-4.8 -3.47,-9.4 -4.36,-11.6 -37.78,-91.8 -72,-185.1 -102.75,-279.5 -63.04,-193.6 -111.15,-392.1 -143.76,-593.2 -4.6,-28.1 -8.71,-56.1 -12.83,-84.3 -0.08,-0.6 -0.08,-1 -0.16,-1.6 -0.24,-1.5 -0.41,-3.3 -0.65,-5.4 -1.21,-9.4 -2.34,-18.8 -3.47,-28.3 -6.21,-52.3 -11.38,-104.7 -15.58,-157.2 -8.39,-106.2 -12.35,-212.8 -12.59,-319.4 0.24,-101.8 3.88,-203.6 11.46,-305 4.04,-52.6 8.96,-105.1 15.02,-157.4 0.56,-4.6 2.58,-22.2 4.11,-36 2.75,-23.4 6.62,-46.6 10.17,-69.8 31.56,-203.7 79.1,-405.01 141.82,-601.39 30.99,-96.78 65.62,-192.43 103.96,-286.62 4.52,-11.06 8.88,-22.2 13.64,-33.26 2.1,-4.6 4.04,-8.96 4.93,-11.06 9.2,-21.06 18.56,-41.97 28.09,-62.87 18.97,-41.73 38.74,-83.06 59.16,-124.06 89.43,-179.51 192.43,-352.17 307.77,-516.18 28.74,-40.85 58.52,-80.96 88.47,-120.91 0.96,-1.3 1.85,-2.51 2.66,-3.56 0.4,-0.56 0.81,-1.05 1.29,-1.69 5.65,-7.11 11.22,-14.29 16.87,-21.39 16.87,-21.31 34.06,-42.46 51.33,-63.45 60.62,-73.28 123.9,-144.48 189.53,-213.32 134.31,-140.77 278.95,-271.21 431.79,-391.4 6.7,-5.08 18.4,-14.2 22.5,-17.19 9,-6.78 18.1,-13.56 27.3,-20.34 18.2,-13.48 36.6,-26.8 55,-40.03 40.8,-28.98 81.9,-57.31 123.7,-84.76 81.8,-53.84 165.6,-104.69 251.1,-152.39 85.8,-47.94 173.5,-92.66 262.7,-134.06 25,-11.63 50,-22.93 75.3,-33.99 12.5,-5.57 25.1,-11.7 37.9,-16.46 -1.2,0.48 -2.5,0.88 -3.6,1.37 4.2,-1.61 7.9,-3.07 9.9,-3.88 42.6,-17.43 85.5,-34.22 128.8,-50.28 189.9,-70.39 385.2,-126.16 583.7,-166.84 53.2,-10.82 106.6,-20.67 160.2,-29.3 23.4,-3.79 46.8,-7.43 70.3,-10.82 2.3,-0.32 4.6,-0.64 7,-0.97 2.2,0.89 24,-3.14 28.1,-3.63 104.9,-12.83 210.2,-21.55 315.8,-26.07 212.6,-9.12 425.9,-1.69 637.4,22.68 14.2,1.62 28.4,3.47 42.6,5.17 1.8,0.16 3.4,0.32 4.8,0.48 0.7,0.16 1.3,0.24 2.1,0.32 23.5,3.4 46.9,6.86 70.4,10.58 46.6,7.34 93.1,15.58 139.5,24.7 101.1,19.69 201.5,43.42 300.8,70.95 98.3,27.36 195.7,58.44 291.5,93.22 47.7,17.27 95.1,35.52 142.1,54.65 10.1,4.11 20.3,8.15 30.4,12.43 2.9,1.29 5.6,2.5 7.6,3.39 23.1,10.25 46.3,20.34 69.2,30.83 178.7,81.44 351.3,176.12 516,282.99 83.9,54.4 165.1,112.44 245.1,172.41 2,1.37 3.5,2.58 4.8,3.47 1.6,1.37 3.6,2.9 5.9,4.68 8.9,7.11 17.8,14.05 26.6,21.15 17.8,14.13 35.3,28.41 52.8,42.86 38.4,31.8 76.3,64.25 113.5,97.42 145.4,129.63 281.4,269.84 406.5,419.08 17.5,20.9 34.8,41.89 51.8,63.12 8.5,10.57 17,21.23 25.4,31.89 2.1,2.66 7.6,9.92 11.9,15.49 24.8,32.77 49.3,65.7 73.2,99.12 58.1,81.44 113.2,165.06 165,250.63 52.1,85.88 100.8,173.77 146.3,263.29 22.7,44.96 44.7,90.32 65.7,136.08 9.6,20.83 19,41.73 28.2,62.8 3.7,8.32 7.6,16.63 11.2,25.1 0.9,2.26 1.8,4.61 2.4,6.3 77.3,189.12 141.8,382.67 190.2,581.15 24.5,100.58 45.1,202.07 61.7,304.27 4.5,28.1 8.6,56.3 12.7,84.4 1.1,7.4 1.7,11.4 2,13.4 0.8,7.3 1.5,14.7 2.4,21.9 5.6,47.5 10.4,95.1 14.4,142.8 17.5,212.5 18.2,426.3 2.2,638.8 -3.9,52.6 -8.9,105 -15,157.4"
         style="fill:#ffffff;fill-opacity:1;fill-rule:nonzero;stroke:none"
         id="path298"
         inkscape:connector-curvature="0" />
    </g>
    <path
       d="m 90.527014,157.19107 c -0.0141,0.0106 -0.0247,0.0212 -0.0388,0.0353 -0.004,0 -0.004,0.004 -0.004,0.007 0.0141,-0.0141 0.0247,-0.0282 0.0423,-0.0423"
       style="fill:#ffffff;fill-opacity:1;fill-rule:nonzero;stroke:none;stroke-width:0.03527778"
       id="path300"
       inkscape:connector-curvature="0" />
    <path
       d="m 101.40315,242.7926 c 0.33514,-0.0494 0.6597,-0.0952 0,0 v 0"
       style="fill:#ffffff;fill-opacity:1;fill-rule:nonzero;stroke:none;stroke-width:0.03527778"
       id="path302"
       inkscape:connector-curvature="0" />
    <path
       d="m 53.04085,221.28022 c -0.0141,-0.0177 -0.0388,-0.13406 -0.0635,-0.2787 0.01058,0.127 0.03175,0.23283 0.0635,0.2787"
       style="fill:#ffffff;fill-opacity:1;fill-rule:nonzero;stroke:none;stroke-width:0.03527778"
       id="path304"
       inkscape:connector-curvature="0" />
    <path
       d="m 97.914184,222.78305 c 0.44803,0.18344 0.74083,0.23283 0,0 v 0"
       style="fill:#ffffff;fill-opacity:1;fill-rule:nonzero;stroke:none;stroke-width:0.03527778"
       id="path306"
       inkscape:connector-curvature="0" />
    <g
       id="g308"
       transform="matrix(0.03999265,0,0,-0.03999265,-378.50515,644.93105)">
      <path
         d="m 16276.4,10228.3 c 23.6,16.7 7.5,5.7 0,0 v 0"
         style="fill:#ffffff;fill-opacity:1;fill-rule:nonzero;stroke:none"
         id="path310"
         inkscape:connector-curvature="0" />
    </g>
    <g
       id="g312"
       transform="matrix(0.04484264,0,0,-0.04484264,-378.50515,644.93105)">
      <path
         d="m 10379.6,13750.2 c 85.9,47.3 173.6,91.4 262.9,132.2 20.4,9.2 40.8,18.3 61.3,27.3 2,0.9 5.9,2.6 10.2,4.6 6.8,2.9 13.7,5.6 20.6,8.5 49.9,20.4 100.2,39.8 150.9,58.2 183.6,66.7 372.2,119.3 563.8,157.5 49.7,9.8 99.5,18.8 149.5,26.6 22.6,3.7 45.3,6.9 67.9,10.3 0.2,0 0.4,0 0.5,0 16.1,1.9 32.3,4.1 48.4,5.9 102.5,11.8 205.4,19.6 308.5,23.2 202.5,7.2 405.5,-1 606.7,-24.8 10.3,-1.3 20.7,-2.1 31,-3.5 3.7,-0.7 7.6,-1.4 10.3,-1.8 25.1,-3.5 50.2,-7.4 75.3,-11.4 50,-8.2 99.8,-17.2 149.3,-27.3 98.4,-19.9 196,-43.6 292.5,-71.2 93.4,-26.7 185.8,-56.8 277,-90.5 44.2,-16.2 88.2,-33.4 131.8,-51.2 2.1,-0.9 6.4,-2.6 10.9,-4.2 -1.5,0.5 -3,1.1 -4.8,1.7 8.3,-3.1 16.6,-7.1 24.7,-10.6 24.6,-10.7 49.1,-21.7 73.4,-32.9 67.7,-31.1 134.5,-64.3 200.2,-99.3 107.1,-56.9 211.5,-118.8 312.8,-185.6 37,-24.3 73.6,-49.3 109.7,-74.8 19.9,-14.1 39.6,-28.4 59.3,-42.8 8.8,-6.6 17.7,-13.2 26.5,-19.8 4.4,-3.3 22.2,-17 28.8,-21.9 68.6,-54 135.7,-109.9 200.6,-168.2 144.6,-129.8 279.6,-270.3 403.4,-420.1 14.1,-17 28,-34.2 41.8,-51.4 7.7,-9.6 15.3,-19.4 22.9,-29 31.3,-41.3 62.1,-82.9 91.8,-125.2 54.9,-78 106.8,-157.9 155.8,-239.7 49.2,-82.1 95.3,-165.9 138.2,-251.4 22.1,-43.8 43.4,-88.2 63.7,-132.9 9.3,-20.3 18.4,-40.8 27.3,-61.3 0.3,-0.5 1.9,-4.3 3.8,-8.7 2,-4.9 13,-31.2 14.3,-34.5 74.2,-182.3 134.3,-370.1 180,-561.4 22.8,-96.1 42,-192.9 57.5,-290.4 3.7,-24 7.2,-48 10.7,-72.1 0,-1 0.2,-2 0.4,-3.2 1.5,-13.8 3.3,-27.6 4.9,-41.5 5.9,-51 10.8,-102.2 14.6,-153.4 15.6,-207.1 14.9,-415.5 -2.2,-622.6 -3.8,-46.5 -8.5,-92.9 -14,-139.2 -0.8,-7 -1.5,-14.2 -2.3,-21.3 -0.3,-1.9 -0.9,-5.85 -1.9,-13.08 -4,-27.38 -8,-54.84 -12.4,-82.22 -16.2,-99.59 -36.3,-198.56 -60.1,-296.58 -47.2,-193.45 -110.1,-382.1 -185.4,-566.42 -0.6,-1.65 -1.5,-3.94 -2.3,-6.14 -3.6,-8.26 -7.4,-16.36 -11,-24.47 -8.9,-20.53 -18.2,-40.9 -27.4,-61.2 -20.6,-44.61 -42,-88.82 -64.1,-132.64 -44.3,-87.24 -91.9,-172.91 -142.6,-256.62 -50.5,-83.39 -104.2,-164.89 -160.8,-244.27 -23.3,-32.57 -47.2,-64.67 -71.4,-96.6 -4.1,-5.43 -9.5,-12.51 -11.5,-15.11 -8.3,-10.38 -16.5,-20.77 -24.8,-31.07 -16.6,-20.69 -33.4,-41.15 -50.5,-61.52 -121.9,-145.46 -254.5,-282.12 -396.2,-408.46 -36.3,-32.33 -73.2,-63.96 -110.6,-94.95 -17.1,-14.09 -34.1,-28.01 -51.4,-41.78 -8.7,-6.92 -17.4,-13.68 -26,-20.61 -2.3,-1.73 -4.2,-3.22 -5.8,-4.56 -1.2,-0.87 -2.7,-2.05 -4.6,-3.38 -78,-58.46 -157.2,-115.02 -238.9,-168.04 -160.6,-104.16 -328.8,-196.44 -503,-275.82 -22.3,-10.23 -44.9,-20.06 -67.4,-30.05 -1.9,-0.87 -4.6,-2.04 -7.4,-3.3 -9.8,-4.17 -19.8,-8.11 -29.6,-12.12 -45.8,-18.65 -92,-36.43 -138.5,-53.26 -93.4,-33.9 -188.3,-64.2 -284.1,-90.86 -96.8,-26.83 -194.7,-49.96 -293.2,-69.15 -45.2,-8.89 -90.5,-16.92 -136,-24.08 -22.9,-3.62 -45.7,-7 -68.6,-10.3 -0.8,-0.08 -1.4,-0.16 -2,-0.32 -1.4,-0.16 -2.9,-0.31 -4.7,-0.47 -13.8,-1.65 -27.7,-3.46 -41.5,-5.03 -206.1,-23.76 -414,-31 -621.3,-22.11 -102.9,4.4 -205.5,12.9 -307.8,25.41 -3.9,0.47 -25.2,4.41 -27.4,3.54 -2.3,0.32 -4.5,0.63 -6.8,0.94 -22.9,3.31 -45.7,6.85 -68.5,10.55 -52.3,8.41 -104.3,18.01 -156.1,28.55 -193.5,39.65 -383.9,94.01 -569,162.61 -42.1,15.66 -84,32.02 -125.5,49.02 -1.9,0.78 -5.5,2.2 -9.6,3.77 1.1,-0.47 2.3,-0.86 3.5,-1.33 -12.5,4.64 -24.8,10.61 -37,16.04 -24.6,10.78 -49,21.79 -73.4,33.12 -86.9,40.36 -172.3,83.94 -256,130.67 -83.3,46.5 -165,96.06 -244.7,148.53 -40.7,26.75 -80.9,54.36 -120.59,82.61 -17.93,12.9 -35.87,25.88 -53.65,39.01 -8.89,6.61 -17.78,13.22 -26.59,19.83 -3.93,2.91 -15.34,11.8 -21.87,16.76 -149,117.14 -289.97,244.27 -420.88,381.47 -63.96,67.1 -125.64,136.49 -184.72,207.92 -16.83,20.46 -33.59,41.07 -50.03,61.84 -5.51,6.92 -10.94,13.92 -16.45,20.84 -0.47,0.63 -0.86,1.11 -1.25,1.66 -0.79,1.02 -1.66,2.2 -2.6,3.46 -29.19,38.94 -58.22,78.04 -86.22,117.84 -112.42,159.86 -212.81,328.14 -299.97,503.1 -19.9,39.96 -39.18,80.24 -57.66,120.91 -9.29,20.38 -18.42,40.75 -27.38,61.29 -0.87,2.04 -2.76,6.29 -4.8,10.78 -4.64,10.77 -8.89,21.63 -13.3,32.41 -37.36,91.8 -71.12,185.03 -101.32,279.35 -61.13,191.41 -107.47,387.61 -138.23,586.17 -3.46,22.58 -7.23,45.24 -9.91,68.02 -1.49,13.4 -3.46,30.6 -4.01,35 -5.9,51.1 -10.7,102.2 -14.63,153.4 -7.4,98.9 -10.94,198.1 -11.17,297.3 0.23,104 4.09,207.8 12.27,311.3 4.09,51.3 9.12,102.3 15.18,153.3 1.1,9.2 2.2,18.4 3.38,27.6 0.24,2 0.4,3.8 0.63,5.3 0.08,0.5 0.08,0.9 0.16,1.5 4.01,27.4 8.02,54.8 12.51,82.2 31.78,195.9 78.67,389.4 140.11,578.1 29.97,92.1 63.33,182.9 100.15,272.5 0.86,2.1 2.51,6.6 4.24,11.2 -0.55,-1.6 -1.18,-3.2 -1.88,-5.2 3.06,8.3 7.08,16.6 10.62,24.7 10.77,24.6 21.71,49.1 32.96,73.5 20.53,44.6 41.85,88.8 64.11,132.6 87.33,172.3 187.56,338.1 299.42,495.5 23.68,33.2 47.99,65.8 72.46,98.4 -0.16,-0.5 26.27,33.8 30.84,39.5 16.52,20.7 33.27,41.3 50.27,61.7 62.15,74.6 127.05,146.9 194.62,216.8 67.5,69.8 137.6,137.2 210.13,201.8 32.97,29.4 66.4,58.2 100.39,86.4 18.64,15.6 37.44,31 56.4,46.1 8.66,7 17.31,13.9 25.96,20.7 3.7,2.9 7.4,5.8 11.02,8.6 1.33,1 2.83,2.1 4.56,3.5 131.92,98.7 268.22,190.5 410.62,273 22.7,13.2 45.3,26.1 68.3,38.7 z m 3482.3,452.5 c -789.5,356.6 -1673.5,456.8 -2523,284.5 -805.2,-163.2 -1556.07,-583 -2122.8,-1177.1 -568.95,-596.6 -956.16,-1366 -1079.75,-2182.2 -32.02,-211 -50.27,-423.4 -50.66,-637 1.49,-837.56 260.39,-1670.59 747.44,-2353.37 483.82,-678.13 1160.3,-1196.73 1942.77,-1483.55 798.1,-292.66 1693.2,-321.06 2510.2,-88.11 786.8,224.44 1504.1,691.5 2023.5,1324.17 536.6,653.43 860.5,1453.18 925.6,2296.56 64.8,838.6 -139.2,1694.2 -574.9,2413.5 -422,696.5 -1055.6,1266.9 -1798.4,1602.6"
         style="fill:#0092f4;fill-opacity:1;fill-rule:nonzero;stroke:none"
         id="path314"
         inkscape:connector-curvature="0" />
    </g>
    <g
       id="g316"
       transform="matrix(0.04140553,0,0,-0.04140553,-378.50515,644.93105)">
      <path
         d="m 10422.4,10231.8 c -0.7,1.1 -1.2,3.6 -1.5,6.7 0.6,-3.5 1.2,-6.3 1.5,-6.7 z m 1168,-519.6 c 16,2.3 8.1,1.19 0,0 z m -84.2,483.3 c 17.9,-5.7 10.8,-4.5 0,0 z M 15721,9879.28 c 7.2,5.53 22.8,16.18 0,0 z m -5456.6,1108.12 c -97.6,-148.6 -168.2,-321.2 -193.9,-497.5 -28.9,-198.4 -8,-390.8 76.3,-573.82 81.8,-177.3 234.7,-321.2 404.5,-413.82 459.1,-250.74 1019.1,-188.12 1506,-63.05 3.4,0.86 6.7,1.88 9.9,2.99 143.6,-176.37 319.5,-324.45 531.3,-415.7 296.8,-127.88 632.7,-149.61 941.2,-46.86 155.7,51.8 297.8,128.74 427.4,228.85 101.5,78.39 182.8,169.12 259,267.44 19.2,-16.86 42.3,-29.82 69.2,-36.72 426.4,-109.56 914.7,-177.04 1336.7,-13.54 206.8,80.08 387.5,202.69 514.7,386.81 104.2,150.98 153.3,341.32 150.1,523.72 -7,399.9 -230.2,776.6 -551.5,1005.3 -170.2,121.1 -364,202.2 -543.6,307.3 -40.5,23.6 -78.3,51.1 -118.3,75.3 -1.3,0.8 -2.3,1.4 -3.2,1.9 -0.9,0.8 -1.8,1.6 -2.8,2.6 -7.4,6.5 -14.9,12.7 -22.2,19.6 -7.1,6.6 -13.6,13.8 -20.6,20.6 -2.5,2.4 -4.4,4.1 -6,5.4 -0.6,1.1 -1.4,2.2 -2.2,3.5 -5.4,8.5 -10.9,16.8 -15.8,25.6 0.1,-0.4 -6.4,13.3 -10.7,21.6 -3.9,11.5 -11.8,33 -10.5,29.1 -4.5,13.3 -8.8,26.6 -13.2,39.9 -20.6,63.4 -40.2,127 -59.7,190.7 -170.7,558.5 -395.7,1094.6 -612.4,1636.3 -35,87.6 -122.4,158.8 -222.6,126.4 -84.7,-27.4 -164.1,-128.5 -126.4,-222.6 66.5,-166.3 135.4,-332.2 203.3,-498.5 120.7,-295.7 238.4,-592.8 334.9,-896.7 37.1,-116.9 71.7,-234.6 108.4,-351.6 36,-114.8 69.3,-228.3 143.8,-324.7 123.4,-159.7 328.9,-249.8 503.7,-341 87.5,-45.6 175,-91.8 257.9,-145.6 18.8,-12.1 37.3,-24.7 55.5,-37.6 -1.4,1 15.7,-11.7 23.3,-17.3 5.1,-4 11.4,-9.1 12.9,-10.4 38.7,-32.1 75.1,-66.9 108.2,-104.7 7.3,-8.3 48.4,-62.5 23.7,-27.6 11,-15.5 22.5,-30.7 33.2,-46.5 24,-35.1 46.1,-71.5 66.2,-108.9 10,-18.5 19.5,-37.4 28.5,-56.4 3.3,-7.2 6.5,-14.5 9.9,-21.7 12.5,-41.3 29.6,-80.9 40.8,-122.8 9.2,-35.1 15,-70.3 22,-105.8 -9.8,49.4 0.6,-11.5 1.6,-24.6 1.3,-19.7 2.1,-39.4 2.2,-59.3 0,-19.6 -0.7,-39.2 -2.1,-58.8 -0.6,-8.5 -1.9,-17 -2.1,-25.5 -7.2,-37.4 -15.2,-74.3 -27.2,-110.6 -4.1,-12.2 -25,-59.7 -5,-17.4 -7.5,-15.9 -14.6,-31.8 -22.9,-47.3 -9.4,-17.6 -19.5,-34.8 -30.4,-51.5 -4.9,-7.5 -10.1,-14.88 -15.1,-22.29 -1.5,-2.3 -2.7,-4.17 -3.8,-5.88 -0.4,-0.25 -0.6,-0.42 -1.1,-0.85 -28.6,-28.37 -53.5,-59.56 -84.1,-86.31 -6.9,-6.13 -14,-11.84 -21,-17.81 -0.3,-0.17 -0.4,-0.34 -0.7,-0.51 -21.3,-15.08 -42.8,-29.65 -65.3,-43.11 -24.1,-14.57 -48.9,-28.03 -74.2,-40.47 -10.4,-5.19 -20.9,-9.97 -31.5,-14.91 -4.6,-2.13 -7.6,-3.58 -9.5,-4.6 -2.4,-0.68 -6,-1.87 -11.4,-3.75 -52.3,-17.89 -104.2,-35.1 -158.1,-47.54 -28.5,-6.56 -57.2,-12.1 -86,-16.87 -2.3,-0.34 -12.7,-1.87 -19.6,-2.98 -9.3,-0.94 -33.1,-3.66 -37.3,-4 -56.2,-5.37 -112.6,-7.76 -169,-7.76 -59.8,0 -119.6,2.64 -179.3,7.58 -29.8,2.39 -59.6,5.37 -89.3,8.87 -8.1,1.02 -16.2,2.04 -24.2,3.06 -3.8,0.68 -32.8,4.94 -34,5.11 -99.2,15.51 -197.6,36.13 -295.2,60.16 12.3,19.51 24.3,39.1 36.2,58.78 26,42.94 49.7,87.42 76.5,129.77 13.8,21.89 28.8,43.11 43.8,64.11 1.6,2.3 3.3,4.5 4.9,6.7 7.5,-3.2 15.2,-6.1 23.3,-8.7 39.2,-12.4 83.3,-17.9 123.7,-24.6 111.2,-18.6 236.4,-36.66 346.2,0.5 159.4,53.8 236.1,200.7 203.2,364 -21.3,105.3 -106.1,183 -208.4,210 -75.5,19.8 -152.2,14 -229.1,11.2 -11.8,-0.4 -23.7,-2 -35.3,-4.7 -4.2,-0.6 -8.5,-1 -12.8,-1.7 -48.2,-8.5 -98.6,-21.8 -145.7,-41.5 -51.7,-17.4 -101.1,-43 -146.4,-76.9 -39.6,-29.6 -75.5,-62.1 -108.8,-96.8 -35,-36.5 -67,-75.5 -97.1,-116.1 -50.5,-68.2 -95.5,-140.9 -139.8,-215 -48.4,-80.91 -99.4,-160.66 -153.5,-237.93 -22.8,-32.72 -46.1,-65.01 -69,-97.65 -4.8,-6.89 -9.8,-13.71 -14.7,-20.53 -0.3,-0.42 -2.9,-3.92 -5.5,-7.16 -4.2,-5.11 -11.3,-13.8 -12.8,-15.67 -7.2,-8.52 -14.4,-16.96 -21.9,-25.3 -23.9,-27.1 -49,-53 -75.2,-77.79 -14.1,-13.3 -28.5,-26.25 -43.2,-38.86 -5.8,-4.94 -31.8,-25.98 -29,-24.28 -58.6,-44.05 -121.6,-82.64 -187.2,-115.28 -16.3,-8.17 -32.8,-15.5 -49.4,-23.17 -6.4,-2.56 -12.8,-5.11 -19.3,-7.58 -37.9,-14.32 -76.5,-26.84 -115.7,-37.24 -33.8,-8.94 -68,-16.44 -102.4,-22.32 -5.5,-0.93 -10.9,-1.79 -16.4,-2.64 -21.1,-1.62 -42.1,-4.09 -63.3,-5.28 -34.7,-1.88 -69.4,-1.96 -104.2,-0.6 -18.6,0.68 -37.3,1.54 -56,2.9 -9.2,0.6 -38.6,3.92 -36.1,3.15 -69.8,10.82 -138.5,29.05 -204.7,53.42 -7.2,2.64 -26.9,10.57 -27.4,10.57 -13.9,6.22 -27.6,12.52 -41.1,19.25 -34.3,16.96 -67.8,35.53 -100.2,55.64 -16.4,10.14 -32.5,20.62 -48.3,31.52 -6.8,4.69 -13.6,9.46 -20.3,14.23 -2,1.45 -10.9,8.01 -16.2,11.85 -3.1,2.47 -6.2,4.85 -6.6,5.19 -6.4,5.37 -12.9,10.65 -19.3,16.02 -17,14.4 -33.6,29.22 -49.9,44.56 -26.6,24.96 -52.2,51.12 -76.5,78.3 -13.2,14.74 -26.1,29.82 -38.6,45.15 -3.6,4.44 -7.3,8.95 -10.8,13.55 -1.6,2.13 -4.6,6.39 -7.6,10.65 -50,71.4 -99,143.57 -142.1,219.39 -46.5,81.97 -94.4,167.64 -147.7,249.44 -48,73.7 -100.7,144.1 -160.9,205.6 -13.2,13.4 -26.5,26.5 -40.3,39 -59.7,53.6 -125.3,95.2 -194.8,122.9 -53.3,26 -112.2,43.3 -169.5,53.3 -3.2,0.5 -6.4,0.8 -9.7,1.2 -12.3,2.9 -25.1,4.7 -38.4,5.2 -152.1,5.6 -320.9,5.4 -408.8,-143.9 -82.6,-140.1 -30.3,-337.6 112,-414.9 114.3,-62.11 247.8,-50.1 371.4,-32.64 44.8,6.34 89.1,15.04 133.5,24.34 17.2,3.7 33.9,9.2 49.8,16.2 24.8,-34.4 48.6,-69.25 69.8,-106.06 32.7,-57.16 66.9,-113.4 100.9,-169.8 -65.1,-14.91 -130.4,-28.37 -196.3,-39.45 -22.6,-3.83 -45.4,-7.32 -68.1,-10.65 -3.1,-0.51 -6,-0.85 -7.4,-1.02 -11.8,-1.45 -23.6,-2.9 -35.5,-4.17 -53.6,-5.97 -107.3,-10.23 -161.2,-12.53 -53.6,-2.3 -107.3,-2.64 -161,-0.68 -23.8,0.94 -47.5,2.3 -71.1,4.09 -11.8,0.94 -23.6,2.04 -35.3,3.15 -1.6,0.17 -36.2,4.69 -34.1,4.09 -42.2,6.56 -84.1,14.74 -125.4,25.14 -25.4,6.39 -50.5,13.54 -75.3,21.47 -11.1,3.49 -22.1,7.24 -33,11.07 -3.9,1.37 -23.9,8.86 -33.2,12.27 -6.3,2.64 -17.8,7.58 -20.1,8.61 -10.4,4.85 -20.9,9.88 -31.2,15.08 -22.7,11.41 -44.8,23.6 -66.6,36.63 -18,10.74 -35.5,22.15 -52.7,34.17 -3.9,2.81 -7.9,5.71 -11.8,8.61 -1.5,1.7 -19.8,16.27 -22.5,18.65 -28.8,25.14 -53.8,52.91 -79.6,80.94 -0.9,0.94 -1.7,1.79 -2.5,2.65 -4.6,6.98 -9.8,13.62 -14.5,20.54 -12.4,18.4 -24,37.4 -34.7,56.9 -6.8,12.6 -13,25.4 -19,38.3 2.3,-4.4 -8.2,20.8 -12.1,32.2 -12.2,37.1 -20.6,74.9 -27.6,113.2 -0.3,1.7 -0.6,3.1 -0.8,4.3 -0.2,4.9 -0.3,9.7 -0.4,12.1 -1.6,19.6 -2.3,39.1 -2.4,58.7 -0.1,17.6 0.3,35.1 1.3,52.7 0.6,11 1.4,22.1 2.4,33.1 0.4,3.2 2.1,15.5 2.8,22 0.8,4.6 1.5,8.5 1.7,9.2 1.5,8.9 3.3,17.7 5.1,26.4 3.6,17.8 7.8,35.4 12.5,52.9 10.6,39.9 24.1,78.7 38.5,117.4 0.3,1 0.7,1.7 0.9,2.5 2.8,6.2 5.4,12.2 8.2,18.3 8.9,19 18.3,37.9 28.1,56.4 20,37.6 42,74.1 65.6,109.4 9.8,14.4 20.1,28.7 30.4,42.8 -7,-9.9 17.4,22 24.9,30.8 32.8,38.1 69,73.2 107.4,105.7 5.5,4.7 11.1,9.2 16.8,13.8 3.7,2.7 15.2,11.6 19,14.3 18.1,13.1 36.6,25.7 55.3,37.9 44.7,29.3 90.8,56.4 137.6,82.3 179.2,99.5 369.1,181.9 531.3,309.5 187.7,147.6 232.7,387.6 299.1,604.9 110.1,361.2 246.6,712.5 387.4,1062.4 67.7,167.9 136.3,335.5 203.6,503.6 35.2,88.1 -38.5,202.6 -126.4,222.6 -104.5,23.8 -184.8,-32 -222.6,-126.4 -192.7,-481.7 -402.9,-959.5 -557.1,-1455.4 -38.4,-123.9 -74.9,-248.3 -115.1,-371.6 -6.8,-20.8 -13.2,-41.9 -20.6,-62.6 -0.9,-1.4 -7.2,-16.2 -9.9,-21.3 -5.9,-10.7 -12.6,-20.9 -19,-31.3 0.4,0.4 0.6,0.6 1,0.9 -0.5,-0.3 -0.7,-0.7 -1.1,-1 -0.1,-0.3 -0.3,-0.5 -0.5,-0.9 -3.4,-5.4 -9.2,-10.5 -10.3,-10.6 -2.6,-3.1 -5.3,-6.1 -8,-8.8 -6.9,-6.9 -14,-13.6 -21.4,-20.1 -5.4,-4.8 -16.2,-12.9 -20,-15.8 -167.6,-116.3 -356.6,-196 -531.9,-299.1 -189.5,-111.5 -349.1,-251.5 -470.2,-435.9"
         style="fill:#0092f4;fill-opacity:1;fill-rule:nonzero;stroke:none"
         id="path318"
         inkscape:connector-curvature="0" />
    </g>
    <path
       d="m 90.488214,157.22634 c -0.39511,0.36336 -0.49036,0.49036 -0.45156,0.48331 0.14464,-0.16581 0.29281,-0.32808 0.44803,-0.47625 0,-0.004 0,-0.007 0.004,-0.007"
       style="fill:#182846;fill-opacity:1;fill-rule:nonzero;stroke:none;stroke-width:0.03527778"
       id="path320"
       inkscape:connector-curvature="0" />
  </g>
</svg>
