<?xml version="1.0" encoding="UTF-8" standalone="no"?>
<!-- Created with Inkscape (http://www.inkscape.org/) -->

<svg
   xmlns:dc="http://purl.org/dc/elements/1.1/"
   xmlns:cc="http://creativecommons.org/ns#"
   xmlns:rdf="http://www.w3.org/1999/02/22-rdf-syntax-ns#"
   xmlns:svg="http://www.w3.org/2000/svg"
   xmlns="http://www.w3.org/2000/svg"
   xmlns:sodipodi="http://sodipodi.sourceforge.net/DTD/sodipodi-0.dtd"
   xmlns:inkscape="http://www.inkscape.org/namespaces/inkscape"
   width="6.5673537mm"
   height="13.343659mm"
   viewBox="0 0 6.5673537 13.343659"
   version="1.1"
   id="svg1140"
   inkscape:version="0.92.3 (2405546, 2018-03-11)"
   sodipodi:docname="urinarySystem.svg">
  <defs
     id="defs1134" />
  <sodipodi:namedview
     id="base"
     pagecolor="#ffffff"
     bordercolor="#666666"
     borderopacity="1.0"
     inkscape:pageopacity="0.0"
     inkscape:pageshadow="2"
     inkscape:zoom="3.959798"
     inkscape:cx="-26.848629"
     inkscape:cy="6.3602349"
     inkscape:document-units="mm"
     inkscape:current-layer="layer1"
     showgrid="false"
     inkscape:window-width="1280"
     inkscape:window-height="692"
     inkscape:window-x="0"
     inkscape:window-y="68"
     inkscape:window-maximized="1" />
  <metadata
     id="metadata1137">
    <rdf:RDF>
      <cc:Work
         rdf:about="">
        <dc:format>image/svg+xml</dc:format>
        <dc:type
           rdf:resource="http://purl.org/dc/dcmitype/StillImage" />
        <dc:title></dc:title>
      </cc:Work>
    </rdf:RDF>
  </metadata>
  <g
     inkscape:label="Layer 1"
     inkscape:groupmode="layer"
     id="layer1"
     transform="translate(-128.25207,-207.92936)">
    <path
       d="m 132.0072,215.11646 c 0.16545,-0.38576 0.55474,-1.54693 0.63747,-3.11449 0.0319,-0.60608 -0.0296,-0.90153 -0.002,-1.48044 0.5237,-0.41328 0.47784,-1.38818 0.27764,-1.88207 -0.2039,-0.50394 -0.63394,-0.71949 -1.27476,-0.70979 -1.14565,0.0171 -0.95303,1.53723 -1.09555,2.5012 -0.27905,1.88807 0.38576,4.05183 0.74418,4.68559 h 0.71314"
       style="fill:#db7468;fill-opacity:1;fill-rule:nonzero;stroke:none;stroke-width:0.01763889"
       id="path596"
       inkscape:connector-curvature="0" />
    <path
       d="m 131.66571,215.15756 c 0.0282,-0.50941 0.20973,-1.06274 0.57768,-1.48731 0.39634,-0.45297 0.99077,-0.59443 1.3021,-1.16064 0.22631,-0.36794 0.33972,-0.87736 0.28293,-1.30192 -0.25471,-1.38713 -1.16981,-1.67005 -2.29271,-1.67005 -1.12271,0 -2.03799,0.28292 -2.2927,1.67005 -0.0566,0.42456 0.0566,0.93398 0.28293,1.30192 0.31133,0.56621 0.90593,0.70767 1.3021,1.16064 0.36795,0.42457 0.54945,0.96961 0.57768,1.47902 l 0.25999,0.008"
       style="fill:#c9845a;fill-opacity:1;fill-rule:nonzero;stroke:none;stroke-width:0.01763889"
       id="path1020"
       inkscape:connector-curvature="0" />
    <path
       d="m 129.31621,218.71956 c 0.25524,0.70132 0.82444,1.13806 1.27124,0.97543 0.44679,-0.16263 0.60201,-0.86307 0.34678,-1.56422 -0.25524,-0.70132 -0.82444,-1.13806 -1.27106,-0.97543 -0.44697,0.16263 -0.60219,0.8629 -0.34696,1.56422"
       style="fill:#eaa28f;fill-opacity:1;fill-rule:nonzero;stroke:none;stroke-width:0.01763889"
       id="path1022"
       inkscape:connector-curvature="0" />
    <path
       d="m 133.75522,218.71956 c -0.25524,0.70132 -0.82445,1.13806 -1.27106,0.97543 -0.44697,-0.16263 -0.60219,-0.86307 -0.34696,-1.56422 0.25524,-0.70132 0.82444,-1.13806 1.27124,-0.97543 0.44679,0.16263 0.60201,0.8629 0.34678,1.56422"
       style="fill:#eaa28f;fill-opacity:1;fill-rule:nonzero;stroke:none;stroke-width:0.01763889"
       id="path1024"
       inkscape:connector-curvature="0" />
    <path
       d="m 131.53571,215.15774 c 0.41522,-0.002 0.65935,0.079 0.79693,0.25929 l 8.7e-4,3.40395 c 0,2.54265 -0.7978,2.45163 -0.7978,2.45163 0,0 -0.79781,0.091 -0.79781,-2.45163 l 0.001,-3.40395 c 0.13758,-0.18027 0.38153,-0.26141 0.79675,-0.25929"
       style="fill:#a3b0da;fill-opacity:1;fill-rule:nonzero;stroke:none;stroke-width:0.01763889"
       id="path1026"
       inkscape:connector-curvature="0" />
    <path
       d="m 131.88214,216.11835 c 0.0346,-0.60043 0.23707,-0.64787 0.4505,-0.51593 l 8.7e-4,3.21856 c 0,0.74278 -0.0681,1.26048 -0.16457,1.62172 -0.5304,0.60131 -0.33514,-3.48244 -0.28681,-4.32435"
       style="fill:#929abe;fill-opacity:1;fill-rule:nonzero;stroke:none;stroke-width:0.01763889"
       id="path1028"
       inkscape:connector-curvature="0" />
    <path
       d="m 131.18929,216.11835 c -0.0346,-0.60043 -0.23689,-0.64787 -0.4505,-0.51593 l -8.8e-4,3.21856 c 0,0.74278 0.0681,1.26048 0.16457,1.62172 0.5304,0.60131 0.33514,-3.48244 0.28681,-4.32435"
       style="fill:#929abe;fill-opacity:1;fill-rule:nonzero;stroke:none;stroke-width:0.01763889"
       id="path1030"
       inkscape:connector-curvature="0" />
    <path
       d="m 131.53571,215.15774 c 0.0455,-3.5e-4 0.0885,5.3e-4 0.13,0.002 v 6.08471 c -0.0778,0.0335 -0.13,0.0277 -0.13,0.0277 0,0 -0.0522,0.006 -0.12999,-0.0277 v -6.0847 c 0.0414,-0.002 0.0847,-0.003 0.12999,-0.002"
       style="fill:#c9845a;fill-opacity:1;fill-rule:nonzero;stroke:none;stroke-width:0.01763889"
       id="path1032"
       inkscape:connector-curvature="0" />
    <path
       d="m 131.14589,213.95283 c -0.12982,-0.21661 -0.80133,-0.69304 -0.99606,-0.34643 -0.30339,0.51964 0.23812,0.86624 0.58455,1.10437 0.15169,0.0866 0.41151,0.49812 0.60642,0.43321 0.21661,-0.0868 0.10831,-0.43321 0.0649,-0.60642 -0.0649,-0.26 -0.14147,-0.39124 -0.25983,-0.58473"
       style="fill:#f06e75;fill-opacity:1;fill-rule:nonzero;stroke:none;stroke-width:0.01763889"
       id="path1034"
       inkscape:connector-curvature="0" />
    <path
       d="m 131.92553,213.95283 c 0.13,-0.21661 0.80134,-0.69304 0.99625,-0.34643 0.30321,0.51964 -0.2383,0.86624 -0.58473,1.10437 -0.1517,0.0866 -0.41152,0.49812 -0.60643,0.43321 -0.2166,-0.0868 -0.1083,-0.43321 -0.0649,-0.60642 0.0649,-0.26 0.14147,-0.39124 0.25982,-0.58473"
       style="fill:#f06e75;fill-opacity:1;fill-rule:nonzero;stroke:none;stroke-width:0.01763889"
       id="path1036"
       inkscape:connector-curvature="0" />
    <path
       d="m 129.82157,215.67385 c 0.26705,-0.17586 0.44362,-0.29227 0.41504,-0.79763 -0.0256,-0.44961 -0.46796,-1.18445 -1.10084,-1.82862 -0.55686,-0.56674 -0.90347,-1.3148 -0.88283,-1.90553 0.0104,-0.30286 0.11624,-0.55139 0.30551,-0.71914 0.20778,-0.1838 0.41839,-0.25347 0.626,-0.20726 0.47819,0.1069 0.78034,0.80857 0.98019,1.27283 0.0286,0.0667 0.055,0.12753 0.0787,0.17956 0.14129,0.30851 0.38841,0.58649 0.62742,0.85549 0.25488,0.28663 0.51452,0.57996 0.66498,0.92304 0.15046,-0.34308 0.41011,-0.63641 0.66499,-0.92304 0.23901,-0.269 0.4863,-0.54698 0.62742,-0.85549 0.0238,-0.052 0.0501,-0.11289 0.0787,-0.17956 0.20002,-0.46426 0.502,-1.16593 0.98019,-1.27283 0.20761,-0.0462 0.41822,0.0235 0.626,0.20726 0.18927,0.16775 0.2951,0.41628 0.30551,0.71914 0.0206,0.59073 -0.32597,1.33879 -0.88283,1.90553 -0.63288,0.64417 -1.07527,1.37901 -1.10067,1.82862 -0.0288,0.50536 0.14782,0.62177 0.41487,0.79763 0.24589,0.16193 0.55175,0.36354 0.71755,0.91617 0.20161,0.67204 0.0118,1.52664 -0.23318,2.1022 -0.0905,0.2129 -0.33073,0.7179 -0.60502,0.80945 -0.0321,0.0106 -0.064,0.0159 -0.0952,0.0159 -0.0482,0 -0.0949,-0.0125 -0.13829,-0.0376 -0.0684,-0.0395 -0.11077,-0.0926 -0.12629,-0.15805 -0.0296,-0.12612 0.0478,-0.24306 0.1651,-0.42033 0.14517,-0.21961 0.36459,-0.55139 0.48895,-1.07015 0.0633,-0.26423 0.0392,-0.5558 -0.0538,-0.64982 -0.0189,-0.0192 -0.0464,-0.0369 -0.10689,-0.0229 -0.0697,0.016 -0.13953,-0.0277 -0.15558,-0.0977 -0.0159,-0.07 0.0279,-0.1397 0.0979,-0.15557 0.13529,-0.0309 0.25929,0.002 0.34943,0.0935 0.18573,0.18768 0.19332,0.59461 0.1217,0.89306 -0.13493,0.56338 -0.36971,0.91828 -0.52511,1.15305 -0.0499,0.0753 -0.11059,0.16722 -0.12488,0.21026 0.004,0.002 0.008,0.004 0.0206,0 0.11007,-0.0369 0.30286,-0.32262 0.44838,-0.66481 0.22701,-0.53376 0.40499,-1.3201 0.22331,-1.92565 -0.13864,-0.46231 -0.37906,-0.62071 -0.61172,-0.77381 -0.2794,-0.18415 -0.5685,-0.37465 -0.53128,-1.02959 0.0293,-0.51576 0.49036,-1.29928 1.17475,-1.99584 0.50941,-0.5184 0.82691,-1.1915 0.80856,-1.7145 -0.008,-0.22983 -0.0834,-0.41416 -0.21819,-0.53357 -0.14393,-0.12718 -0.27393,-0.17569 -0.39705,-0.14817 -0.34855,0.078 -0.63006,0.73149 -0.79816,1.12183 -0.0295,0.0688 -0.0566,0.13159 -0.0811,0.18521 -0.15734,0.34378 -0.41769,0.63659 -0.6694,0.91987 -0.375,0.42192 -0.72919,0.82039 -0.72919,1.34867 0,0.0718 -0.0582,0.38982 -0.13,0.38982 -0.0718,0 -0.12999,-0.31803 -0.12999,-0.38982 0,-0.52828 -0.35419,-0.92675 -0.7292,-1.34867 -0.2517,-0.28328 -0.51205,-0.57609 -0.66939,-0.91987 -0.0245,-0.0536 -0.0517,-0.11641 -0.0811,-0.18521 -0.1681,-0.39034 -0.44962,-1.04386 -0.79816,-1.12183 -0.12312,-0.0275 -0.25312,0.021 -0.39705,0.14817 -0.13476,0.11941 -0.21008,0.30374 -0.2182,0.53358 -0.0182,0.52299 0.29916,1.19609 0.80857,1.7145 0.68439,0.69655 1.14547,1.48007 1.17493,1.99584 0.037,0.65493 -0.25206,0.84543 -0.53146,1.02958 -0.23266,0.1531 -0.47308,0.3115 -0.61172,0.77382 -0.18168,0.60554 -0.004,1.39188 0.22349,1.92563 0.14552,0.3422 0.33813,0.62795 0.4482,0.66481 0.0125,0.004 0.0166,0.002 0.0206,0 -0.0143,-0.043 -0.075,-0.13494 -0.12489,-0.21025 -0.15539,-0.23478 -0.39017,-0.58967 -0.52511,-1.15306 -0.0714,-0.29845 -0.064,-0.70538 0.12171,-0.89305 0.0901,-0.0912 0.21414,-0.12436 0.34943,-0.0935 0.07,0.0159 0.11377,0.0856 0.0979,0.15558 -0.0161,0.07 -0.0857,0.11377 -0.15558,0.0977 -0.0605,-0.0139 -0.088,0.004 -0.10689,0.0229 -0.093,0.094 -0.11712,0.38558 -0.0538,0.64981 0.12435,0.51876 0.34378,0.85055 0.48913,1.07015 0.11712,0.17727 0.19455,0.29422 0.16492,0.42034 -0.0155,0.0654 -0.0579,0.11853 -0.12629,0.15804 -0.0434,0.025 -0.0901,0.0376 -0.13829,0.0376 -0.0312,0 -0.0632,-0.005 -0.0951,-0.0159 -0.27446,-0.0915 -0.5147,-0.59655 -0.60519,-0.80945 -0.24482,-0.57556 -0.4348,-1.43016 -0.23318,-2.1022 0.1658,-0.55263 0.47166,-0.75424 0.71755,-0.91617"
       style="fill:#d19081;fill-opacity:1;fill-rule:nonzero;stroke:none;stroke-width:0.01763889"
       id="path1038"
       inkscape:connector-curvature="0" />
    <path
       d="m 130.35197,212.16548 c -0.37201,-0.8913 -1.13259,-0.29704 -0.70432,0.42862 0.21166,0.31415 0.71861,0.58985 1.05569,0.84579 0.4452,0.33778 0.8673,0.25558 0.51399,-0.27887 -0.24924,-0.40975 -0.66939,-0.59108 -0.86536,-0.99554"
       style="fill:#f89c38;fill-opacity:1;fill-rule:nonzero;stroke:none;stroke-width:0.01763889"
       id="path1040"
       inkscape:connector-curvature="0" />
    <path
       d="m 132.71946,212.16548 c 0.372,-0.8913 1.13259,-0.29704 0.70432,0.42862 -0.21167,0.31415 -0.71861,0.58985 -1.05569,0.84579 -0.4452,0.33778 -0.8673,0.25558 -0.51399,-0.27887 0.24923,-0.40975 0.66939,-0.59108 0.86536,-0.99554"
       style="fill:#f89c38;fill-opacity:1;fill-rule:nonzero;stroke:none;stroke-width:0.01763889"
       id="path1042"
       inkscape:connector-curvature="0" />
  </g>
</svg>
